<svg width="1152" height="700" viewBox="0 0 1152 700" fill="none" xmlns="http://www.w3.org/2000/svg">
<g clip-path="url(#clip0)">
<rect width="1152" height="700" fill="white"/>
<rect width="1152" height="699" fill="#E6EEBB"/>
<rect width="1152" height="699" fill="url(#paint0_linear)"/>
<path d="M123.96 329.784C113.253 346.867 33.5256 410.454 -5 440.113V554H2.2996H1197V405.708C1192.13 405.708 1176.32 403.573 1151.99 395.031C1121.57 384.354 1106.97 363 1087.51 351.137C1068.04 339.274 931.781 440.113 898.933 419.944C866.085 399.776 824.721 398.59 804.039 405.708C783.356 412.826 717.66 387.913 704.277 383.168C690.895 378.423 664.13 351.137 643.447 351.137C622.765 351.137 621.549 323.852 603.3 317.92C585.051 311.987 533.953 345.205 479.206 373.677C424.46 402.149 404.994 381.982 372.146 373.677C339.298 365.373 304.016 342.833 294.283 351.137C284.551 359.441 266.302 370.118 259.002 363C251.702 355.882 228.587 346.392 205.472 323.852C182.356 301.312 137.342 308.43 123.96 329.784Z" fill="#1C7A3C"/>
<path d="M28 493C21.6 507.4 6.66667 517 0 520C0 615 12 561 49 578C86 595 122 587 211 567C300 547 669.5 571 896 602C1122.5 633 1148 501 1145 493C1142 485 1136 451 1136 439C1136 429.4 1127.33 410.333 1123 402C1124.33 409.667 1126.2 427.8 1123 439C1119 453 1128 462 1136 493C1144 523.999 1105 520 1096 520H1079C1073 520 1075 467 1079 462C1082.2 458.001 1084.33 455.667 1085 455C1088 446.667 1092.8 427.2 1088 416C1083.2 404.8 1086 386 1088 378C1086.33 382.667 1082.2 395.6 1079 410C1075 428 1064 430 1054 439C1044 448 1039 462 1030 482.999C1021 503.999 1013 462 1007 451C1001 440 1022 439 1039 416C1052.6 397.6 1054.67 383 1054 378C1042.67 386.333 1014.6 405.6 993 416C966 429 964 430 957 451C950 472 907 462 896 462C885 462 866 451 863 462C860.6 470.801 867.333 483 871 487.999C868 487.999 858.6 486.999 845 482.999C828 477.999 818 437 806 439C794 441 732 430 726 416C720 402 669.5 392 679 384C688.5 376.001 674.5 365 669.5 360.5C664.5 356 647 351 639.5 351C632 351 624 340 615 329C615 337.8 604.333 356.667 599 365C602.333 363.333 610.2 361 615 365C621 370 620 409 656 410C692 411 672 446 679 462C681 473 627.003 473 599.002 473H599C576.6 473 596.333 455 609 446C599.667 449.667 577.8 458 565 462C552.2 466.001 563.667 442.334 571 430C565 430 551.6 433.2 546 446C540.4 458.8 517 454.667 506 451C503 458.333 497 475 497 482.999C497 492.999 478 501 475 482.999C472.6 468.599 464.667 494.999 461 510C445 510 407.2 508.2 384 501C357 482 384 493 384 482.999C384 472.999 359 482.999 351 482.999C343 482.999 339 473 339 462C339 451 311 430 300 416C289 402 288 408 288 392C288 379.2 270.667 368.667 262 365C249.333 357.333 222.4 340.4 216 334C189.6 306 166.333 308.334 158 313C164.667 313.334 180.4 315.8 190 323C202 332 200 351 202 360C204 369 224 378 240 384C256 390 267 404 259 430C251 456 244 447 240 462C236.8 474 219.333 474.334 211 473C206.667 474.334 196.4 478.2 190 482.999C182 488.999 173 487.999 158 482.999C143 477.999 116 477.999 107 487.999C99.8 495.999 96 487.999 95 482.999C89.6667 482.999 78 484.999 74 493C69 503 28 512 34 510C40 508 36 475 28 493Z" fill="#085E31"/>
<path d="M397 506C248.2 478 69.6667 511 -1 531V701H1152V467C842 562 583 541 397 506Z" fill="#DB9349"/>
<path d="M-1 701.999V530.999C79 495.999 284.603 493.302 321 495.999C361.5 498.999 471 517.999 498 521.999C519.6 525.199 569 529.332 591 530.999C477.4 530.999 406.333 644.999 385 701.999H-1Z" fill="#96C753"/>
<path d="M120.719 566.752C136.427 563.401 45.4513 572.059 -2 576.807V679.866C6.59031 682.38 26.2253 685.899 36.0428 679.866C48.3147 672.325 99.8566 679.866 87.5847 687.407C75.3128 694.948 120.719 684.056 144.035 679.866C167.352 675.677 161.216 687.407 234.847 679.866C308.478 672.325 323.205 668.974 341.613 636.296C360.02 603.619 266.754 616.187 240.983 601.105C215.212 586.023 225.03 595.24 207.849 601.105C190.668 606.97 178.397 595.24 184.533 576.807C190.668 558.374 92.4934 589.375 55.6778 584.348C18.8622 579.32 101.084 570.942 120.719 566.752Z" fill="#75B744"/>
<path d="M124.389 615H-6V659.333C10.8244 659.333 46.7163 660.5 55.6893 665.167C66.9056 671 158.038 659.333 181.872 659.333C195.332 659.333 176.264 667.111 165.048 671C186.545 670.222 239.075 666.8 277.21 659.333C324.879 650 338.899 627.833 292.632 620.833C246.365 613.833 97.7502 623.167 107.564 620.833C115.416 618.967 122.052 616.167 124.389 615Z" fill="#56963F"/>
<path d="M415 681C408.6 684.2 392.333 695 385 700H375C376.667 693.667 381 677.8 385 665C390 649 403 630 421 613C435.4 599.4 443.667 584.667 446 579L487 557L507 546C514 543.334 529 536.8 533 532C537 527.201 542 528.5 544 528.5L605 533.5C601.333 533.834 591.2 532.8 580 532C568.8 531.2 569.333 541 571 546H544C538 548.667 524.8 553.6 520 552C514 550 505 571 483 579C465.4 585.4 469 592.334 473 595C468 596.667 457.2 600.6 454 603C450.8 605.4 447.333 616.667 446 622C442.333 623.334 432.2 630 421 646C407 666 423 677 415 681Z" fill="#96C753"/>
<path d="M422 681C415.6 684.2 399.333 695 392 700H382C383.667 693.666 388 677.8 392 665C397 649 410 630 428 613C442.4 599.4 450.667 584.666 453 579L494 557L514 546C521 543.333 536 536.8 540 532C544 527.2 547.5 527.5 549.5 527.5L611.5 534C607.833 534.333 598.2 532.8 587 532C575.8 531.2 576.333 541 578 546H551C545 548.667 531.8 553.6 527 552C521 550 512 571 490 579C472.4 585.4 476 592.333 480 595C475 596.666 464.2 600.6 461 603C457.8 605.4 454.333 616.666 453 622C449.333 623.333 439.2 630 428 646C414 666 430 677 422 681Z" fill="#75B744"/>
<path d="M406 681C399.6 684.2 383.333 695 376 700H366C367.667 693.667 372 677.8 376 665C381 649 394 630 412 613C426.4 599.4 434.667 584.667 437 579L478 557L498 546C505 543.333 520 536.8 524 532C528 527.2 533 526 535 526L596 532C592.333 532.334 582.2 532.8 571 532C559.8 531.2 560.333 541 562 546H535C529 548.667 515.8 553.6 511 552C505 550 496 571 474 579C456.4 585.4 460 592.333 464 595C459 596.667 448.2 600.6 445 603C441.8 605.4 438.333 616.667 437 622C433.333 623.333 423.2 630 412 646C398 666 414 677 406 681Z" fill="#96C753"/>
<path d="M165.469 502.972C177.187 496.647 215.601 495.246 231 495.999L293 495.999L350 499L317.5 517.5C317.5 506.205 299.325 519.914 289.41 519.914C277.016 519.914 283.38 527.816 280 542.5C276.62 557.184 260.027 543.87 242 545C223.972 546.13 248 560.577 216.172 560.577C194.498 560.577 191.384 558.318 171.103 551.541C150.821 544.764 155.106 529.389 167.5 526C179.894 522.611 178.99 521.044 171.103 514.267C163.216 507.49 150.822 510.879 165.469 502.972Z" fill="#75B744"/>
<path d="M177 502C187.4 496.4 217.333 496.334 231 497L339 498.5L319 512C319 502 295.8 517 287 517C276 517 280 521 277 534C274 547 253 538 237 539C221 540 241 556 222 553C203 550 200 551 182 545C164 539 166 532 177 529C188 526 189 518 182 512C175 506 164 509 177 502Z" fill="#88BA47"/>
<path d="M383 684C379.8 691.6 365.333 697.167 358.5 699H383V696L409.5 679C409.5 677 407.5 672.9 407.5 670.5C406 642 428 628 437.5 623C436.3 619 442.333 608.667 445.5 604L465 595C464.167 591.333 461.8 583 471 581C480.2 579 502 561.833 511 553C519.4 552.2 531.833 547.334 536.5 545.5H561.5C563.5 528.986 578 534 589.5 531.5C573.667 530 543.6 527.2 550 528C558 529 539 533.5 528.5 537C518 540.5 505 541.5 499 545.5C493 549.5 492.5 551.5 483.5 556C474.5 560.5 468.5 568.5 465 573C461.5 577.5 454.5 584 443.5 586.5C432.5 589 431.5 592.5 431.5 602C431.5 611.5 414 625.5 401.5 641.5C389 657.5 386 654 386 658.5C386 663 387 674.5 383 684Z" fill="#63A448"/>
<path d="M350 662C350.401 659.909 352.289 656.354 356.625 658.863C360.961 661.373 354.015 662 350 662Z" fill="#F1FFC3"/>
<path d="M71 625C71.4015 622.909 73.2885 619.354 77.6246 621.863C81.9607 624.373 75.0149 625 71 625Z" fill="#F1FFC3"/>
<path d="M141 543C141.401 540.909 143.289 537.354 147.625 539.863C151.961 542.373 145.015 543 141 543Z" fill="#F1FFC3"/>
<path d="M348.538 647.439C346.704 646.358 343.991 643.385 347.812 640.145C351.634 636.906 349.889 643.658 348.538 647.439Z" fill="#F1FFC3"/>
<path d="M62.767 620.879C60.9326 619.797 58.2193 616.824 62.0409 613.585C65.8626 610.345 64.1173 617.098 62.767 620.879Z" fill="#F1FFC3"/>
<path d="M356.578 639.883C358.993 638.249 363.899 635.954 364.201 639.849C364.502 643.743 359.245 641.494 356.578 639.883Z" fill="#F1FFC3"/>
<path d="M393 528.433C395.415 526.8 400.321 524.505 400.623 528.399C400.924 532.294 395.667 530.045 393 528.433Z" fill="#F1FFC3"/>
<path d="M366 518.433C368.415 516.8 373.321 514.505 373.623 518.399C373.924 522.294 368.667 520.045 366 518.433Z" fill="#F1FFC3"/>
<path d="M157 535.433C159.415 533.8 164.321 531.505 164.623 535.399C164.924 539.294 159.667 537.045 157 535.433Z" fill="#F1FFC3"/>
<path d="M1050 701C1074.8 698.6 1129.33 694 1152 701V536L1145 554C1145 560.667 1128 572.4 1128 586C1128 599.6 1040.83 619 1030.5 622C1035.17 621 1108.4 615.6 1122 622C1139 630 1116 628 1122 654C1126.8 674.8 1090.67 674 1072 671L1002 689C990.001 701 1025.2 703.4 1050 701Z" fill="#B2782B"/>
<path d="M1152 685H1091.93C1090.86 685.1 1089.88 685.102 1089 685H1091.93C1101.36 684.117 1117.53 675.576 1131 663C1144.18 650.699 1133 637 1136 631C1138.4 626.2 1123.67 615 1116 610L1136 589C1137.33 589.667 1140.4 589.6 1142 584C1143.6 578.4 1149.33 572.333 1152 570V685Z" fill="#B65B24"/>
<path d="M448.626 693.78C457.045 704.312 563.05 705.541 615 704.839L558.373 700.099C541.168 697.993 504.753 693.78 496.735 693.78C486.712 693.78 468.17 685.354 456.645 685.88C445.119 686.407 448.626 672.188 448.626 663.762C448.626 655.337 469.674 645.33 473.683 642.17C477.692 639.011 473.683 626.898 478.694 616.893C482.703 608.888 506.423 608.291 517.782 608.993L510.766 603.201C509.43 603.201 506.056 601.515 503.249 594.774C499.741 586.348 526.301 583.715 536.825 569.497C547.348 555.278 559.877 562.124 578.418 562.124C596.96 562.124 590.946 547.378 590.946 540.006C590.946 534.108 614.534 536 612.5 533C607.656 533.527 584.332 532.317 581.926 535.266C578.919 538.953 589.443 547.379 578.418 553.172C567.393 558.964 553.362 551.592 547.348 553.172C541.335 554.751 528.306 555.805 526.301 562.124C524.297 568.444 504.252 582.662 493.728 586.349C485.309 589.298 492.225 598.812 496.735 603.201C491.556 603.903 479.696 606.044 473.683 608.993C466.166 612.68 467.168 618.473 464.663 631.638C462.157 644.804 440.107 652.177 433.091 663.762C426.075 675.348 438.102 680.614 448.626 693.78Z" fill="#C77835"/>
<path d="M672.976 564.34C659.386 560.458 645.996 568.17 641 572.511C647.931 574.073 660.1 570.664 670.997 573.12C681.895 575.575 699.615 572.052 704.904 566.41C699.924 567.338 686.566 568.223 672.976 564.34Z" fill="#B65B24"/>
<path d="M936.976 660.34C923.386 656.458 909.996 664.17 905 668.511C911.931 670.073 924.1 666.664 934.997 669.12C945.895 671.575 963.615 668.052 968.904 662.41C963.924 663.338 950.566 664.223 936.976 660.34Z" fill="#B65B24"/>
<path d="M699.994 632.578C687.194 643.778 701.994 655.912 710.994 660.578L747.994 668.578L756.994 676.578H772.994C785.994 671.245 813.994 659.178 821.994 653.578C831.994 646.578 885.994 632.578 884.994 619.578C883.994 606.578 838.994 624.579 821.994 632.578C804.994 640.578 776.994 625.578 764.994 619.578C752.994 613.578 715.994 618.578 699.994 632.578Z" fill="#B2782B" fill-opacity="0.7"/>
<path d="M927.661 606.386C919.585 606.343 912.845 607.941 910.485 608.746C910.326 611.581 910.983 618.066 914.889 621.317C919.771 625.382 923.01 612.996 926.049 611.137C929.088 609.278 932.242 612.757 942.778 611.516C953.313 610.274 937.757 606.441 927.661 606.386Z" fill="#EAAF63"/>
<path d="M563.122 651.215C547.367 650.899 538.819 643.239 528.317 636.736C513.177 628.407 528.183 599.553 540.078 611.197C551.973 622.841 566.691 606.164 574.198 611.624C581.705 617.084 591.841 610.012 607.922 618.2C619.738 618.437 597.572 653.389 591.172 650.9C584.773 648.412 582.816 651.61 563.122 651.215Z" fill="#B2782B" fill-opacity="0.7"/>
<path d="M761.811 637.954C758 623.471 729.738 642.46 720.991 644.713C728.766 647.931 730.817 672.561 768.5 660C845 634.5 765.521 652.052 761.811 637.954Z" fill="#EAAF63"/>
<path d="M727.794 591.609C713.021 598.561 744.317 599.655 761.811 599.333C776.39 599.333 810.212 597.788 828.872 591.609C852.198 583.885 803.603 579.057 761.811 576.161C720.019 573.264 746.261 582.919 727.794 591.609Z" fill="#EAAF63"/>
<path d="M994.096 576.161C980.878 582.34 967.207 584.528 962.023 584.85C966.235 587.103 977.185 591.609 987.293 591.609C999.928 591.609 1007.7 584.85 1028.11 576.161C1048.52 567.471 1010.62 568.436 994.096 576.161Z" fill="#EAAF63"/>
<path d="M586.868 637.954C571.318 637.954 539.569 642.46 525.638 644.713C499.397 637.954 525.638 628.299 561.599 623.471C597.559 618.644 606.306 637.954 586.868 637.954Z" fill="#EAAF63"/>
<path d="M1003 518C991.001 516.4 998.001 509.333 1003 506L1109 480C1107.33 484.333 1106.8 498.8 1090 502C1069 506 1069 511 1064 524C1059 537 1047 530 1037 518C1027 506 1018 520 1003 518Z" fill="#BE8034"/>
<path d="M1055 493.499C1041.53 497.768 1010 500.499 1027 505.499C1034.1 505.673 1038.76 521.997 1049.93 522.27C1061.1 522.543 1076.12 496.623 1080.2 490.054C1075.5 487.999 1069.85 488.793 1055 493.499Z" fill="#B65B24" fill-opacity="0.8"/>
<path d="M423 677.5L391.5 700.5H466.5C461.667 699 452.6 693.3 449 690.5C444.5 687 431.5 679 431.5 670C431.5 661 453.5 645.5 460.5 640.5C467.5 635.5 465 618.5 469.5 612.5C473.1 607.7 490 604.5 498 603.5C497.667 603 498.3 600.657 495.5 598.657C486.5 588.657 491.5 586.657 504.5 581.657C517.5 576.657 526.5 566.5 531.5 560.5C536.5 554.5 546.5 554.5 551.5 554C555.5 553.6 566.167 555.167 571 556C576.833 554.833 587.4 550.4 583 542C578.6 533.6 588.833 532.167 594.5 532.5C593 532 588.4 531.3 582 532.5C575.6 533.7 576.667 541.667 578 545.5H551.5C549.333 547.5 540.288 550.868 534.5 550C524.5 548.5 523.5 551.5 515.5 561.5C507.5 571.5 488 578 480 582.5C473.6 586.1 477.333 593.834 480 596C475.5 594.5 464.1 599.8 460.5 601C456.9 602.2 453.333 616.334 452 622C448.833 624.5 441.6 630.4 438 634C420 648.4 419.667 669 423 677.5Z" fill="#B65B24"/>
<path d="M117 414C71.4 426 23.3333 430.167 6 431.5C42.3333 402.833 118.5 337 126 326C134.864 313 150.667 311.333 158 311C159 316 163 331 175 347C190 367 177 366 180 388C183 410 208 421 196 433C184 445 174 399 117 414Z" fill="#2B9D58"/>
<path d="M282 392C284.4 384 272.333 372 266 367C265.5 366.667 264 365.8 262 365C264 365 268.5 365 272.5 364C279.3 362.8 290.667 354.5 295.5 350.5C309 346 335 361.5 342 364C349 366.5 372.5 374 379.5 376C386.5 378 405.5 386 426 389C446.5 392 468 378.5 473.5 377C479 375.5 544.5 339.5 563 329.5C577.8 321.5 587.167 319.167 590 319C592.333 320.333 596.8 326 596 338C595 353 574 367 581 360C586.6 354.4 583.333 343 581 338L568 347C553.667 359 521.8 383.6 509 386C493 389 457 392 433 408C409 424 380 418 365 413C353 409 340 418 335 423C336.333 425.667 340.8 433.8 348 445C357 459 322 448 312 436C302 424 279 402 282 392Z" fill="#2E9B58"/>
<path d="M693.5 378.5C694.486 378.955 695.81 379.638 697.372 380.535C705.068 383.913 721.575 389.569 730.5 392.5C749 398.667 789.3 410.1 802.5 406.5C819 402 824.5 401 848 403C871.5 405 887 414 893.5 417C900 420 899.5 426 924.5 420.5C949.5 415 1009.5 383.5 1031 371.5C1048.2 361.9 1069.17 354.167 1077.5 351.5V361.5C1077.5 367.5 1078.5 371.5 1077.5 383.5C1076.5 395.5 1075.5 392 1068.5 401C1062.9 408.2 1059.17 417 1058 420.5C1058.33 418.833 1058.8 413.7 1058 406.5C1057 397.5 1059.5 396.5 1063 383.5C1066.5 370.5 1056 368 1047.5 371.5C1039 375 1016.5 391.5 1009.5 396.5C1002.5 401.5 976 413.5 962 420.5C948 427.5 944 440.5 924.5 447C905 453.5 871.5 439 860.5 435.5C849.5 432 841 426 837.5 435.5C834 445 847.5 451.5 841 451.5C834.5 451.5 828 437 823 430.5C818 424 793 424.5 780 426C767 427.5 728.5 408.5 717.5 396.5C710.702 389.085 702.672 383.578 697.372 380.535C695.439 379.686 694.062 378.982 693.5 378.5Z" fill="#2E9B58"/>
<path d="M74 389.499C64 401.099 40.8333 413.999 30.5 418.999C38 417.999 58.7 413.599 81.5 403.999C110 391.999 95 385.999 103 375.999C111 365.999 127 374.999 135 371.999C143 368.999 143 356.999 138.5 349.499C134 341.999 147 328.999 147 319.499C147 311.899 141.333 320.999 138.5 326.499C134.667 331.333 125.4 342.699 119 349.499C111 357.999 86.5 374.999 74 389.499Z" fill="#34B771"/>
<path d="M313.001 431C315.401 437.4 324.334 437 328.501 436C332.5 435.451 328.501 420.5 324.501 407.5C320.501 394.5 344.001 395.5 362.001 395.5C380.001 395.5 379.001 401 402.001 401.5C425.001 402 422.501 395.5 409.501 395.5C396.501 395.5 383.501 389.5 369.001 382.5C354.501 375.5 351.001 380 328.501 380C306 380 309.501 365 295.001 363.5C280.501 362 279.501 368.5 283.501 376.5C287.501 384.5 292.501 385.5 292.501 395.5C292.501 405.5 298.501 401 306.001 414.5C313.501 428 310.001 423 313.001 431Z" fill="#34B771"/>
<path d="M540.5 350C531.3 359.6 493.333 376 475.5 383C459 396.001 493.5 383 505.5 379C517.5 375 516.5 376 521 370C525.5 364 546.5 356 556 350C565.5 344 552 338 540.5 350Z" fill="#34B771"/>
<path d="M779.001 417.5C767.401 418.3 746.168 407.833 737.001 402.5C717.652 393 768.501 406.5 783.001 412C797.501 417.5 816.501 412 825.501 412C834.501 412 845.501 413.5 873.501 421C901.501 428.5 895.501 430 904.501 431C913.501 432 929.001 429.5 949.001 417.5C965.001 407.9 993.001 397.5 1005 393.5C1001 396.5 991.801 402.5 987.001 402.5C981.001 402.5 953.501 423.5 944.501 426C935.501 428.5 923.001 438.5 912.001 442.5C901.001 446.5 848.001 423.5 835.501 423.5C823.001 423.5 833.001 431.5 825.501 423.5C818.001 415.5 793.501 416.5 779.001 417.5Z" fill="#34B771"/>
<g filter="url(#filter0_f)">
<circle cx="605" cy="167" r="95" fill="#E2E689" fill-opacity="0.7"/>
</g>
<circle cx="604.602" cy="167.456" r="69.5884" transform="rotate(13.9713 604.602 167.456)" fill="#F4EEA7"/>
<circle cx="604.602" cy="167.456" r="69.5884" transform="rotate(13.9713 604.602 167.456)" fill="url(#paint1_linear)"/>
<circle cx="604.602" cy="167.456" r="69.5884" transform="rotate(13.9713 604.602 167.456)" fill="url(#paint2_linear)"/>
<path d="M690.08 202.885C684.08 206.02 673.437 207.466 660.991 208.639C654.954 208.351 642.161 205.615 639.288 196.975C635.612 185.92 635.825 180.478 654.487 171.586C671.319 163.566 685.607 175.856 688.61 171.289C691.614 166.721 683.312 164.077 690.811 161.656C698.309 159.236 698.469 160.935 699.691 155.678C700.912 150.422 703.036 136.513 715.239 129.365C725.002 123.647 734.924 122.654 738.665 122.873C738.973 113.99 743.65 93.7846 759.9 84.0276C780.213 71.8313 791.115 69.0903 819.095 83.5904C828.472 79.8505 850.699 74.6139 864.594 83.5867C881.962 94.8026 885.475 104.755 887.127 113.167C888.448 119.897 890.373 120.286 891.171 119.64C898.926 116.91 911.236 122.273 922.152 128.785C933.067 135.296 948.465 138.518 951.835 143.913C952.169 143.539 952.406 143.235 952.569 142.994C952.401 142.122 953.369 141.808 952.569 142.994C952.737 143.87 954.052 145.312 959.465 146.362C974.331 149.244 996.913 157.658 990.426 161.697C990.682 164.415 988.176 168.193 986.891 169.742C991.049 171.349 998.073 177.257 992.907 188.026C987.741 198.794 979.375 199.297 975.838 198.202C978.587 203.084 968.702 201.882 952.748 207.498C936.795 213.114 930.144 204.487 928.813 199.472C928.265 205.807 924.105 208.867 899.959 207.715C875.813 206.563 881.53 220.799 883.196 217.214C882.515 222.134 867.341 205.264 857.13 206.227C848.784 207.013 852.849 218.856 854.519 220.513C854.765 220.365 854.965 220.151 855.115 219.861C855.146 220.744 854.893 220.883 854.519 220.513C851.207 222.499 839.492 212.327 826.064 212.316C811.641 212.304 808.581 227.102 806.612 224.431C803.015 228.769 790.423 217.046 780.765 216.585C771.107 216.124 768.871 230.844 767.47 228.12C763.535 231.918 759.65 212.749 752.586 210.672C745.523 208.596 734.531 227.797 732.792 224.533C731.517 229.223 731.779 213.479 723.779 208.749C717.139 204.823 712.867 215.357 712.249 217.198C712.28 217.144 712.31 217.09 712.341 217.035C712.149 217.587 712.123 217.575 712.249 217.198C706.92 226.669 703.816 225.446 690.08 202.885Z" fill="#EEFDFF"/>
<path d="M690.863 216.488C684.863 219.624 671.522 222.595 666.157 209.391C660.12 209.103 647.329 206.367 644.454 197.727C640.861 186.927 645.537 172.777 666.199 173.4C686.862 174.023 690.825 179.648 693.829 175.081C696.832 170.513 695.261 162.95 702.759 160.53C710.257 158.109 710.417 159.808 711.639 154.552C712.861 149.296 714.984 135.386 727.188 128.238C736.951 122.52 746.873 121.528 750.613 121.747C750.921 112.863 755.599 92.658 771.849 82.901C792.162 70.7047 803.064 67.9637 831.043 82.4639C840.42 78.724 862.648 73.4874 876.542 82.4601C893.911 93.676 897.424 103.628 899.075 112.04C900.396 118.77 902.321 119.16 903.119 118.513C910.874 115.783 929.114 111.951 940.029 118.463C950.944 124.974 960.413 137.391 963.783 142.786C967.408 138.732 977.629 131.2 989.522 133.507C1004.39 136.389 1008.86 156.531 1002.37 160.57C1002.63 163.289 1000.12 167.066 998.84 168.615C1003 170.223 1010.02 176.131 1004.86 186.899C999.689 197.668 991.323 198.17 987.786 197.076C990.535 201.958 992.046 213.126 976.092 218.742C960.138 224.358 953.488 215.731 952.156 210.715C951.609 217.05 944.477 229.433 920.331 228.281C900.059 227.314 894.899 221.903 894.751 218.07C893.426 223.309 889.315 231.203 880.337 232.049C870.126 233.012 867.234 223.573 867.064 218.734C864.884 222.938 856.92 231.343 842.496 231.331C828.073 231.319 820.529 225.975 818.561 223.305C814.963 227.642 805.354 236.202 795.695 235.742C786.037 235.281 780.819 229.717 779.418 226.993C775.484 230.791 765.849 237.869 758.785 235.792C751.722 233.716 746.479 226.67 744.741 223.406C743.466 228.096 738.916 236.294 730.915 231.564C722.915 226.834 723.164 219.156 724.289 215.908C718.903 225.556 704.677 239.178 690.863 216.488Z" fill="#C4E9FB"/>
<path d="M-70.5607 107.243C-77.4632 110.85 -89.7062 112.513 -104.025 113.863C-110.969 113.532 -125.687 110.385 -128.992 100.444C-133.221 87.7266 -132.975 81.4658 -111.507 71.2366C-92.143 62.0101 -75.7066 76.1492 -72.2514 70.8948C-68.7961 65.6404 -78.3458 62.598 -69.7198 59.8137C-61.0937 57.0294 -60.9095 58.9834 -59.5041 52.9367C-58.0987 46.89 -55.6562 30.8885 -41.6171 22.6655C-30.3857 16.0871 -18.9712 14.9458 -14.6679 15.1974C-14.3141 4.97822 -8.93312 -18.2662 9.76121 -29.4907C33.1291 -43.5213 45.6708 -46.6746 77.8585 -29.9936C88.6459 -34.296 114.217 -40.3202 130.201 -29.9979C150.181 -17.0951 154.223 -5.64594 156.123 4.03142C157.643 11.7733 159.858 12.2215 160.775 11.4779C169.697 8.33721 183.858 14.5072 196.416 21.9982C208.973 29.4891 226.687 33.1953 230.564 39.4013C230.948 38.9713 231.22 38.622 231.407 38.3442C231.215 37.3412 232.328 36.9806 231.407 38.3442C231.601 39.3528 233.114 41.011 239.341 42.2186C256.443 45.5348 282.422 55.214 274.959 59.8606C275.253 62.9874 272.371 67.3331 270.893 69.1151C275.676 70.9647 283.756 77.7609 277.813 90.1491C271.87 102.537 262.246 103.116 258.176 101.856C261.339 107.472 249.967 106.089 231.614 112.55C213.261 119.011 205.61 109.087 204.079 103.317C203.449 110.605 198.663 114.125 170.885 112.8C143.107 111.475 149.685 127.851 151.601 123.728C150.817 129.387 133.361 109.981 121.615 111.088C112.013 111.992 116.69 125.617 118.611 127.522C118.894 127.353 119.124 127.106 119.297 126.772C119.332 127.789 119.041 127.948 118.611 127.522C114.801 129.808 101.323 118.106 85.8764 118.093C69.2834 118.079 65.7635 135.103 63.4987 132.03C59.3601 137.02 44.875 123.534 33.7639 123.004C22.6528 122.474 20.0811 139.407 18.469 136.274C13.9427 140.643 9.47282 118.591 1.34691 116.202C-6.77901 113.813 -19.4242 135.902 -21.424 132.147C-22.8907 137.543 -22.5897 119.43 -31.7934 113.989C-39.4315 109.473 -44.3457 121.592 -45.0568 123.709C-45.0219 123.647 -44.9868 123.585 -44.9517 123.522C-45.1718 124.157 -45.2026 124.143 -45.0568 123.709C-51.1881 134.605 -54.7591 133.198 -70.5607 107.243Z" fill="#EEFDFF"/>
<path d="M-69.6602 122.894C-76.5626 126.501 -91.9106 129.919 -98.0825 114.729C-105.027 114.398 -119.743 111.251 -123.049 101.311C-127.183 88.886 -121.804 72.6077 -98.0338 73.3249C-74.2637 74.042 -69.7042 80.5129 -66.249 75.2584C-62.7937 70.004 -64.6013 61.3032 -55.9752 58.5189C-47.3491 55.7346 -47.165 57.6887 -45.7596 51.642C-44.3542 45.5953 -41.9117 29.5937 -27.8725 21.3707C-16.6412 14.7923 -5.22672 13.651 -0.923393 13.9026C-0.569586 3.68344 4.8116 -19.561 23.5059 -30.7855C46.8739 -44.8161 59.4155 -47.9694 91.6032 -31.2884C102.391 -35.5908 127.962 -41.615 143.946 -31.2927C163.926 -18.3899 167.968 -6.94073 169.867 2.73663C171.387 10.4785 173.602 10.9268 174.52 10.1832C183.441 7.04244 204.424 2.63372 216.981 10.1247C229.538 17.6156 240.431 31.9005 244.308 38.1066C248.477 33.4427 260.236 24.7784 273.918 27.4313C291.02 30.7476 296.166 53.9192 288.703 58.5658C288.998 61.6927 286.115 66.0384 284.637 67.8204C289.42 69.6699 297.501 76.4661 291.557 88.8544C285.614 101.243 275.99 101.821 271.921 100.561C275.084 106.178 276.821 119.025 258.468 125.486C240.115 131.947 232.464 122.023 230.932 116.253C230.302 123.54 222.098 137.785 194.32 136.46C171 135.347 165.064 129.123 164.893 124.714C163.369 130.74 158.64 139.822 148.311 140.795C136.564 141.902 133.237 131.045 133.041 125.477C130.534 130.314 121.372 139.983 104.779 139.969C88.1859 139.956 79.5082 133.808 77.2435 130.735C73.1049 135.725 62.0499 145.573 50.9388 145.043C39.8277 144.513 33.8257 138.113 32.2136 134.979C27.6873 139.348 16.6033 147.49 8.47736 145.101C0.351443 142.713 -5.67964 134.607 -7.67945 130.853C-9.14623 136.248 -14.3807 145.678 -23.5844 140.237C-32.788 134.796 -32.5011 125.963 -31.2072 122.227C-37.4033 133.325 -53.7684 148.997 -69.6602 122.894Z" fill="#C4E9FB"/>
<path d="M267.35 273.353C264.514 274.835 259.484 275.518 253.602 276.073C250.749 275.937 244.702 274.644 243.344 270.56C241.607 265.335 241.708 262.763 250.528 258.56C258.483 254.769 265.236 260.578 266.656 258.42C268.075 256.261 264.152 255.011 267.696 253.867C271.24 252.723 271.315 253.526 271.893 251.042C272.47 248.557 273.474 241.983 279.242 238.605C283.856 235.902 288.545 235.433 290.313 235.537C290.459 231.338 292.669 221.788 300.35 217.177C309.95 211.413 315.103 210.117 328.327 216.97C332.759 215.203 343.265 212.728 349.832 216.969C358.04 222.27 359.701 226.973 360.481 230.949C361.106 234.13 362.016 234.314 362.393 234.009C366.058 232.718 371.876 235.253 377.035 238.331C382.194 241.408 389.472 242.931 391.065 245.481C391.223 245.304 391.334 245.161 391.411 245.046C391.332 244.634 391.79 244.486 391.411 245.046C391.491 245.461 392.113 246.142 394.671 246.638C401.697 248.001 412.37 251.977 409.304 253.886C409.425 255.171 408.241 256.956 407.634 257.688C409.599 258.448 412.919 261.24 410.477 266.33C408.035 271.42 404.081 271.657 402.409 271.14C403.709 273.447 399.037 272.879 391.496 275.533C383.956 278.188 380.813 274.11 380.184 271.74C379.925 274.734 377.959 276.18 366.546 275.636C355.134 275.091 357.836 281.82 358.623 280.126C358.302 282.451 351.13 274.478 346.304 274.932C342.359 275.304 344.281 280.902 345.07 281.685C345.186 281.615 345.28 281.514 345.352 281.376C345.366 281.794 345.246 281.859 345.07 281.685C343.504 282.623 337.967 277.816 331.621 277.811C324.804 277.805 323.358 284.799 322.427 283.537C320.727 285.587 314.776 280.046 310.211 279.828C305.646 279.61 304.59 286.567 303.927 285.28C302.068 287.075 300.231 278.015 296.893 277.034C293.554 276.052 288.359 285.127 287.538 283.585C286.935 285.801 287.059 278.36 283.277 276.125C280.139 274.269 278.121 279.248 277.828 280.118C277.843 280.092 277.857 280.067 277.872 280.041C277.781 280.302 277.768 280.296 277.828 280.118C275.309 284.594 273.842 284.016 267.35 273.353Z" fill="#EEFDFF"/>
<path d="M267.721 279.784C264.885 281.266 258.58 282.67 256.044 276.429C253.191 276.293 247.145 275 245.787 270.916C244.088 265.812 246.298 259.124 256.064 259.419C265.83 259.713 267.703 262.372 269.123 260.213C270.542 258.054 269.8 254.48 273.344 253.336C276.888 252.192 276.963 252.995 277.541 250.51C278.118 248.026 279.121 241.452 284.889 238.074C289.504 235.371 294.193 234.902 295.961 235.005C296.107 230.807 298.317 221.257 305.998 216.646C315.598 210.881 320.751 209.586 333.975 216.439C338.407 214.672 348.912 212.197 355.48 216.437C363.688 221.738 365.349 226.442 366.129 230.418C366.754 233.599 367.664 233.783 368.041 233.477C371.706 232.187 380.326 230.376 385.485 233.453C390.644 236.531 395.12 242.4 396.713 244.949C398.425 243.033 403.257 239.474 408.877 240.564C415.904 241.926 418.018 251.446 414.952 253.355C415.073 254.64 413.889 256.425 413.281 257.157C415.246 257.917 418.566 260.709 416.124 265.799C413.683 270.888 409.729 271.126 408.057 270.609C409.356 272.916 410.07 278.194 402.53 280.849C394.99 283.503 391.846 279.426 391.217 277.055C390.958 280.049 387.588 285.902 376.175 285.357C366.594 284.9 364.156 282.343 364.085 280.531C363.459 283.007 361.516 286.739 357.273 287.138C352.447 287.593 351.08 283.132 351 280.845C349.97 282.832 346.205 286.804 339.388 286.799C332.571 286.793 329.006 284.268 328.075 283.005C326.375 285.055 321.833 289.101 317.268 288.883C312.703 288.666 310.238 286.036 309.575 284.749C307.716 286.544 303.162 289.889 299.823 288.907C296.485 287.926 294.007 284.596 293.186 283.053C292.583 285.27 290.432 289.144 286.651 286.909C282.87 284.673 282.988 281.045 283.519 279.51C280.974 284.069 274.25 290.508 267.721 279.784Z" fill="#C4E9FB"/>
<path d="M722.35 328.353C719.514 329.835 714.484 330.518 708.602 331.073C705.749 330.937 699.702 329.644 698.344 325.56C696.607 320.335 696.708 317.763 705.528 313.56C713.483 309.769 720.236 315.578 721.656 313.42C723.075 311.261 719.152 310.011 722.696 308.867C726.24 307.723 726.315 308.526 726.893 306.042C727.47 303.557 728.474 296.983 734.242 293.605C738.856 290.902 743.545 290.433 745.313 290.537C745.459 286.338 747.669 276.788 755.35 272.177C764.95 266.413 770.103 265.117 783.327 271.97C787.759 270.203 798.265 267.728 804.832 271.969C813.04 277.27 814.701 281.973 815.481 285.949C816.106 289.13 817.016 289.314 817.393 289.009C821.058 287.718 826.876 290.253 832.035 293.331C837.194 296.408 844.472 297.931 846.065 300.481C846.223 300.304 846.334 300.161 846.411 300.046C846.332 299.634 846.79 299.486 846.411 300.046C846.491 300.461 847.113 301.142 849.671 301.638C856.697 303.001 867.37 306.977 864.304 308.886C864.425 310.171 863.241 311.956 862.634 312.688C864.599 313.448 867.919 316.24 865.477 321.33C863.035 326.42 859.081 326.657 857.409 326.14C858.709 328.447 854.037 327.879 846.496 330.533C838.956 333.188 835.813 329.11 835.184 326.74C834.925 329.734 832.959 331.18 821.546 330.636C810.134 330.091 812.836 336.82 813.623 335.126C813.302 337.451 806.13 329.478 801.304 329.932C797.359 330.304 799.281 335.902 800.07 336.685C800.186 336.615 800.28 336.514 800.352 336.376C800.366 336.794 800.246 336.859 800.07 336.685C798.504 337.623 792.967 332.816 786.621 332.811C779.804 332.805 778.358 339.799 777.427 338.537C775.727 340.587 769.776 335.046 765.211 334.828C760.646 334.61 759.59 341.567 758.927 340.28C757.068 342.075 755.231 333.015 751.893 332.034C748.554 331.052 743.359 340.127 742.538 338.585C741.935 340.801 742.059 333.36 738.277 331.125C735.139 329.269 733.121 334.248 732.828 335.118C732.843 335.092 732.857 335.067 732.872 335.041C732.781 335.302 732.768 335.296 732.828 335.118C730.309 339.594 728.842 339.016 722.35 328.353Z" fill="#EEFDFF"/>
<path d="M722.721 334.784C719.885 336.266 713.58 337.67 711.044 331.429C708.191 331.293 702.145 330 700.787 325.916C699.088 320.812 701.298 314.124 711.064 314.419C720.83 314.713 722.703 317.372 724.123 315.213C725.542 313.054 724.8 309.48 728.344 308.336C731.888 307.192 731.963 307.995 732.541 305.51C733.118 303.026 734.121 296.452 739.889 293.074C744.504 290.371 749.193 289.902 750.961 290.005C751.107 285.807 753.317 276.257 760.998 271.646C770.598 265.881 775.751 264.586 788.975 271.439C793.407 269.672 803.912 267.197 810.48 271.437C818.688 276.738 820.349 281.442 821.129 285.418C821.754 288.599 822.664 288.783 823.041 288.477C826.706 287.187 835.326 285.376 840.485 288.453C845.644 291.531 850.12 297.4 851.713 299.949C853.425 298.033 858.257 294.474 863.877 295.564C870.904 296.926 873.018 306.446 869.952 308.355C870.073 309.64 868.889 311.425 868.281 312.157C870.246 312.917 873.566 315.709 871.124 320.799C868.683 325.888 864.729 326.126 863.057 325.609C864.356 327.916 865.07 333.194 857.53 335.849C849.99 338.503 846.846 334.426 846.217 332.055C845.958 335.049 842.588 340.902 831.175 340.357C821.594 339.9 819.156 337.343 819.085 335.531C818.459 338.007 816.516 341.739 812.273 342.138C807.447 342.593 806.08 338.132 806 335.845C804.97 337.832 801.205 341.804 794.388 341.799C787.571 341.793 784.006 339.268 783.075 338.005C781.375 340.055 776.833 344.101 772.268 343.883C767.703 343.666 765.238 341.036 764.575 339.749C762.716 341.544 758.162 344.889 754.823 343.907C751.485 342.926 749.007 339.596 748.186 338.053C747.583 340.27 745.432 344.144 741.651 341.909C737.87 339.673 737.988 336.045 738.519 334.51C735.974 339.069 729.25 345.508 722.721 334.784Z" fill="#C4E9FB"/>
<path d="M-33.6498 224.353C-36.4856 225.835 -41.5155 226.518 -47.3983 227.073C-50.2513 226.937 -56.2978 225.644 -57.6558 221.56C-59.3931 216.335 -59.2923 213.763 -50.4722 209.56C-42.5167 205.769 -35.7639 211.578 -34.3443 209.42C-32.9248 207.261 -36.8482 206.011 -33.3043 204.867C-29.7603 203.723 -29.6846 204.526 -29.1072 202.042C-28.5298 199.557 -27.5264 192.983 -21.7585 189.605C-17.1442 186.902 -12.4546 186.433 -10.6866 186.537C-10.5413 182.338 -8.33055 172.788 -0.650135 168.177C8.95039 162.413 14.103 161.117 27.3271 167.97C31.759 166.203 42.2646 163.728 48.8316 167.969C57.0404 173.27 58.7009 177.973 59.4814 181.949C60.1057 185.13 61.0158 185.314 61.3928 185.009C65.0581 183.718 70.8763 186.253 76.0353 189.331C81.1943 192.408 88.472 193.931 90.0648 196.481C90.2227 196.304 90.3344 196.161 90.4114 196.046C90.3324 195.634 90.7895 195.486 90.4114 196.046C90.4909 196.461 91.1125 197.142 93.671 197.638C100.697 199.001 111.37 202.977 108.304 204.886C108.425 206.171 107.241 207.956 106.634 208.688C108.599 209.448 111.919 212.24 109.477 217.33C107.035 222.42 103.081 222.657 101.409 222.14C102.709 224.447 98.0366 223.879 90.4963 226.533C82.9561 229.188 79.8128 225.11 79.1836 222.74C78.9248 225.734 76.9586 227.18 65.5463 226.636C54.134 226.091 56.8364 232.82 57.6235 231.126C57.3016 233.451 50.13 225.478 45.3039 225.932C41.3591 226.304 43.2805 231.902 44.07 232.685C44.1862 232.615 44.2805 232.514 44.3516 232.376C44.3663 232.794 44.2464 232.859 44.07 232.685C42.5044 233.623 36.9674 228.816 30.6212 228.811C23.8041 228.805 22.3579 235.799 21.4275 234.537C19.7272 236.587 13.7761 231.046 9.21119 230.828C4.64628 230.61 3.58973 237.567 2.9274 236.28C1.06782 238.075 -0.768612 229.015 -4.10708 228.034C-7.44555 227.052 -12.6407 236.127 -13.4623 234.585C-14.0649 236.801 -13.9413 229.36 -17.7225 227.125C-20.8606 225.269 -22.8795 230.248 -23.1717 231.118C-23.1573 231.092 -23.1429 231.067 -23.1285 231.041C-23.2189 231.302 -23.2316 231.296 -23.1717 231.118C-25.6907 235.594 -27.1577 235.016 -33.6498 224.353Z" fill="#EEFDFF"/>
<path d="M-33.2788 230.784C-36.1146 232.266 -42.4202 233.67 -44.9558 227.429C-47.8089 227.293 -53.8547 226 -55.2133 221.916C-56.9116 216.812 -54.7016 210.124 -44.9359 210.419C-35.1701 210.713 -33.2969 213.372 -31.8773 211.213C-30.4577 209.054 -31.2004 205.48 -27.6564 204.336C-24.1125 203.192 -24.0368 203.995 -23.4594 201.51C-22.882 199.026 -21.8785 192.452 -16.1107 189.074C-11.4964 186.371 -6.80681 185.902 -5.03883 186.005C-4.89347 181.807 -2.68265 172.257 4.99776 167.646C14.5983 161.881 19.7509 160.586 32.975 167.439C37.4069 165.672 47.9125 163.197 54.4795 167.437C62.6883 172.738 64.3488 177.442 65.1292 181.418C65.7536 184.599 66.6636 184.783 67.0405 184.477C70.7059 183.187 79.3265 181.376 84.4855 184.453C89.6445 187.531 94.1198 193.4 95.7125 195.949C97.4255 194.033 102.257 190.474 107.877 191.564C114.904 192.926 117.018 202.446 113.952 204.355C114.073 205.64 112.889 207.425 112.281 208.157C114.246 208.917 117.566 211.709 115.124 216.799C112.683 221.888 108.729 222.126 107.057 221.609C108.356 223.916 109.07 229.194 101.53 231.849C93.9898 234.503 90.8464 230.426 90.2173 228.055C89.9584 231.049 86.5877 236.902 75.1754 236.357C65.5944 235.9 63.1556 233.343 63.0854 231.531C62.4593 234.007 60.5165 237.739 56.2731 238.138C51.4469 238.593 50.0798 234.132 49.9995 231.845C48.9695 233.832 45.2052 237.804 38.3881 237.799C31.571 237.793 28.0058 235.268 27.0754 234.005C25.3751 236.055 20.8333 240.101 16.2683 239.883C11.7034 239.666 9.23755 237.036 8.57522 235.749C6.71564 237.544 2.16186 240.889 -1.1766 239.907C-4.51507 238.926 -6.99289 235.596 -7.81449 234.053C-8.41711 236.27 -10.5676 240.144 -14.3489 237.909C-18.1302 235.673 -18.0123 232.045 -17.4807 230.51C-20.0263 235.069 -26.7498 241.508 -33.2788 230.784Z" fill="#C4E9FB"/>
<path d="M367.35 75.3529C364.514 76.835 359.484 77.5183 353.602 78.0726C350.749 77.9365 344.702 76.6436 343.344 72.5597C341.607 67.3348 341.708 64.7626 350.528 60.56C358.483 56.7694 365.236 62.5783 366.656 60.4196C368.075 58.2608 364.152 57.0109 367.696 55.867C371.24 54.7231 371.315 55.5259 371.893 53.0416C372.47 50.5574 373.474 43.9833 379.242 40.6049C383.856 37.9023 388.545 37.4334 390.313 37.5367C390.459 33.3383 392.669 23.7885 400.35 19.177C409.95 13.4126 415.103 12.1171 428.327 18.9704C432.759 17.2028 443.265 14.7278 449.832 18.9686C458.04 24.2696 459.701 28.9734 460.481 32.9493C461.106 36.13 462.016 36.3141 462.393 36.0086C466.058 34.7183 471.876 37.2532 477.035 40.3308C482.194 43.4084 489.472 44.931 491.065 47.4807C491.223 47.3041 491.334 47.1605 491.411 47.0464C491.332 46.6344 491.79 46.4862 491.411 47.0464C491.491 47.4608 492.113 48.1421 494.671 48.6382C501.697 50.0006 512.37 53.9772 509.304 55.8862C509.425 57.1709 508.241 58.9563 507.634 59.6884C509.599 60.4483 512.919 63.2404 510.477 68.3301C508.035 73.4197 504.081 73.6572 502.409 73.1398C503.709 75.4472 499.037 74.879 491.496 77.5334C483.956 80.1878 480.813 76.1103 480.184 73.7398C479.925 76.734 477.959 78.1804 466.546 77.6359C455.134 77.0915 457.836 83.8197 458.623 82.1257C458.302 84.4508 451.13 76.4777 446.304 76.9325C442.359 77.3042 444.281 82.9016 445.07 83.6845C445.186 83.6149 445.28 83.5136 445.352 83.3763C445.366 83.794 445.246 83.8594 445.07 83.6845C443.504 84.6234 437.967 79.8157 431.621 79.8106C424.804 79.805 423.358 86.7988 422.427 85.5366C420.727 87.5867 414.776 82.0459 410.211 81.8281C405.646 81.6104 404.59 88.5674 403.927 87.28C402.068 89.0751 400.231 80.015 396.893 79.0337C393.554 78.0524 388.359 87.1271 387.538 85.5847C386.935 87.8013 387.059 80.36 383.277 78.1245C380.139 76.2693 378.121 81.2479 377.828 82.1179C377.843 82.0924 377.857 82.0667 377.872 82.0409C377.781 82.302 377.768 82.2962 377.828 82.1179C375.309 86.5943 373.842 86.0162 367.35 75.3529Z" fill="#EEFDFF"/>
<path d="M367.721 81.7836C364.885 83.2658 358.58 84.6699 356.044 78.4293C353.191 78.2932 347.145 77.0001 345.787 72.9164C344.088 67.8118 346.298 61.124 356.064 61.4186C365.83 61.7133 367.703 64.3718 369.123 62.213C370.542 60.0543 369.8 56.4796 373.344 55.3357C376.888 54.1918 376.963 54.9946 377.541 52.5104C378.118 50.0262 379.121 43.452 384.889 40.0737C389.504 37.371 394.193 36.9021 395.961 37.0055C396.107 32.807 398.317 23.2572 405.998 18.6457C415.598 12.8814 420.751 11.5859 433.975 18.4391C438.407 16.6715 448.912 14.1965 455.48 18.4374C463.688 23.7384 465.349 28.4422 466.129 32.418C466.754 35.5987 467.664 35.7829 468.041 35.4774C471.706 34.1871 480.326 32.3758 485.485 35.4534C490.644 38.5309 495.12 44.3998 496.713 46.9495C498.425 45.0334 503.257 41.4737 508.877 42.5637C515.904 43.9261 518.018 53.446 514.952 55.355C515.073 56.6397 513.889 58.4251 513.281 59.1572C515.246 59.917 518.566 62.7092 516.124 67.7988C513.683 72.8884 509.729 73.126 508.057 72.6086C509.356 74.916 510.07 80.1943 502.53 82.8487C494.99 85.5032 491.846 81.4257 491.217 79.0551C490.958 82.0493 487.588 87.9016 476.175 87.3571C466.594 86.9001 464.156 84.3428 464.085 82.5314C463.459 85.0072 461.516 88.7385 457.273 89.1384C452.447 89.5932 451.08 85.1324 451 82.8451C449.97 84.832 446.205 88.8045 439.388 88.7989C432.571 88.7934 429.006 86.2676 428.075 85.0053C426.375 87.0554 421.833 91.1012 417.268 90.8834C412.703 90.6656 410.238 88.0362 409.575 86.7487C407.716 88.5438 403.162 91.8888 399.823 90.9074C396.485 89.9261 394.007 86.5959 393.186 85.0534C392.583 87.2701 390.432 91.1445 386.651 88.909C382.87 86.6735 382.988 83.0446 383.519 81.5096C380.974 86.0693 374.25 92.5077 367.721 81.7836Z" fill="#C4E9FB"/>
<path d="M337.005 174.228C334.73 175.417 330.697 175.965 325.979 176.409C323.691 176.3 318.842 175.263 317.753 171.988C316.359 167.798 316.44 165.735 323.514 162.365C329.894 159.325 335.309 163.984 336.447 162.252C337.586 160.521 334.44 159.519 337.282 158.601C340.124 157.684 340.184 158.328 340.647 156.336C341.11 154.343 341.915 149.071 346.541 146.362C350.241 144.194 354.002 143.818 355.42 143.901C355.537 140.534 357.31 132.876 363.469 129.177C371.168 124.555 375.3 123.516 385.906 129.012C389.46 127.594 397.885 125.609 403.151 129.01C409.734 133.262 411.066 137.034 411.692 140.222C412.193 142.773 412.923 142.921 413.225 142.676C416.164 141.641 420.83 143.674 424.968 146.142C429.105 148.61 434.941 149.831 436.219 151.876C436.345 151.734 436.435 151.619 436.497 151.528C436.433 151.197 436.8 151.078 436.497 151.528C436.56 151.86 437.059 152.406 439.111 152.804C444.745 153.897 453.305 157.086 450.846 158.617C450.943 159.647 449.993 161.079 449.506 161.666C451.082 162.275 453.744 164.515 451.786 168.596C449.828 172.678 446.657 172.868 445.316 172.454C446.359 174.304 442.612 173.848 436.565 175.977C430.518 178.106 427.997 174.836 427.492 172.935C427.285 175.336 425.708 176.496 416.556 176.059C407.404 175.623 409.571 181.018 410.202 179.66C409.944 181.525 404.193 175.13 400.322 175.495C397.159 175.793 398.7 180.282 399.333 180.91C399.426 180.854 399.501 180.773 399.559 180.663C399.57 180.998 399.474 181.05 399.333 180.91C398.077 181.663 393.637 177.807 388.547 177.803C383.08 177.799 381.92 183.408 381.174 182.395C379.811 184.039 375.038 179.596 371.377 179.421C367.716 179.247 366.869 184.826 366.338 183.793C364.847 185.233 363.374 177.967 360.697 177.18C358.019 176.393 353.853 183.671 353.194 182.434C352.711 184.211 352.81 178.244 349.778 176.451C347.261 174.963 345.642 178.956 345.408 179.654C345.419 179.633 345.431 179.613 345.442 179.592C345.37 179.801 345.36 179.797 345.408 179.654C343.387 183.244 342.211 182.78 337.005 174.228Z" fill="#EEFDFF"/>
<path d="M337.302 179.385C335.028 180.574 329.971 181.7 327.937 176.695C325.649 176.586 320.801 175.549 319.711 172.274C318.349 168.18 320.122 162.817 327.953 163.053C335.785 163.29 337.287 165.422 338.426 163.69C339.564 161.959 338.969 159.092 341.811 158.175C344.653 157.258 344.714 157.902 345.177 155.909C345.64 153.917 346.444 148.645 351.07 145.936C354.771 143.768 358.531 143.392 359.949 143.475C360.066 140.108 361.839 132.449 367.998 128.751C375.697 124.128 379.83 123.089 390.435 128.585C393.989 127.168 402.414 125.183 407.681 128.584C414.264 132.835 415.595 136.608 416.221 139.796C416.722 142.347 417.452 142.494 417.754 142.249C420.694 141.215 427.607 139.762 431.744 142.23C435.881 144.698 439.471 149.405 440.748 151.45C442.122 149.913 445.996 147.058 450.504 147.932C456.138 149.025 457.834 156.66 455.375 158.191C455.472 159.221 454.522 160.653 454.035 161.24C455.611 161.849 458.274 164.088 456.315 168.17C454.357 172.252 451.186 172.442 449.846 172.027C450.888 173.878 451.46 178.111 445.413 180.239C439.366 182.368 436.845 179.098 436.341 177.197C436.133 179.598 433.43 184.292 424.278 183.855C416.594 183.488 414.638 181.438 414.582 179.985C414.08 181.97 412.522 184.963 409.119 185.283C405.249 185.648 404.152 182.071 404.088 180.236C403.262 181.83 400.243 185.016 394.776 185.011C389.309 185.007 386.45 182.981 385.704 181.969C384.34 183.613 380.698 186.858 377.037 186.683C373.376 186.508 371.398 184.4 370.867 183.367C369.376 184.807 365.724 187.489 363.047 186.702C360.369 185.915 358.382 183.244 357.723 182.007C357.24 183.785 355.515 186.892 352.483 185.099C349.451 183.307 349.545 180.396 349.971 179.165C347.93 182.822 342.538 187.986 337.302 179.385Z" fill="#C4E9FB"/>
<path d="M454.699 289.057C452.981 289.955 449.934 290.369 446.37 290.704C444.642 290.622 440.978 289.839 440.156 287.364C439.103 284.199 439.164 282.641 444.508 280.095C449.327 277.798 453.419 281.317 454.279 280.01C455.139 278.702 452.762 277.944 454.909 277.251C457.056 276.558 457.102 277.045 457.451 275.54C457.801 274.035 458.409 270.052 461.904 268.005C464.699 266.368 467.54 266.084 468.611 266.146C468.699 263.603 470.039 257.817 474.692 255.023C480.508 251.531 483.63 250.746 491.641 254.898C494.326 253.827 500.691 252.328 504.669 254.897C509.643 258.109 510.649 260.958 511.121 263.367C511.5 265.294 512.051 265.406 512.279 265.221C514.5 264.439 518.025 265.975 521.15 267.839C524.276 269.704 528.685 270.626 529.65 272.171C529.746 272.064 529.813 271.977 529.86 271.908C529.812 271.658 530.089 271.568 529.86 271.908C529.908 272.159 530.285 272.571 531.835 272.872C536.091 273.697 542.557 276.107 540.7 277.263C540.773 278.041 540.056 279.123 539.688 279.567C540.878 280.027 542.89 281.719 541.41 284.802C539.931 287.885 537.536 288.029 536.523 287.716C537.31 289.114 534.479 288.77 529.911 290.378C525.343 291.986 523.439 289.516 523.058 288.079C522.901 289.893 521.71 290.77 514.796 290.44C507.882 290.11 509.519 294.186 509.996 293.16C509.801 294.569 505.456 289.738 502.532 290.014C500.142 290.239 501.306 293.63 501.785 294.104C501.855 294.062 501.912 294.001 501.955 293.918C501.964 294.171 501.892 294.21 501.785 294.104C500.836 294.673 497.482 291.76 493.637 291.757C489.507 291.754 488.631 295.991 488.067 295.226C487.037 296.468 483.432 293.112 480.666 292.98C477.9 292.848 477.26 297.063 476.859 296.282C475.732 297.37 474.62 291.881 472.597 291.287C470.575 290.692 467.427 296.19 466.93 295.255C466.565 296.598 466.639 292.09 464.349 290.736C462.447 289.612 461.224 292.628 461.047 293.155C461.056 293.14 461.065 293.124 461.074 293.108C461.019 293.267 461.011 293.263 461.047 293.155C459.521 295.867 458.632 295.517 454.699 289.057Z" fill="#EEFDFF"/>
<path d="M454.925 292.953C453.207 293.85 449.387 294.701 447.85 290.92C446.122 290.838 442.459 290.054 441.636 287.58C440.607 284.488 441.946 280.436 447.862 280.615C453.779 280.793 454.914 282.404 455.774 281.096C456.634 279.788 456.184 277.622 458.331 276.929C460.478 276.236 460.524 276.723 460.874 275.218C461.223 273.713 461.831 269.73 465.326 267.683C468.121 266.046 470.962 265.762 472.033 265.824C472.122 263.281 473.461 257.495 478.114 254.701C483.93 251.209 487.052 250.424 495.064 254.576C497.749 253.505 504.113 252.006 508.092 254.575C513.065 257.787 514.071 260.636 514.544 263.045C514.922 264.972 515.473 265.084 515.702 264.899C517.922 264.117 523.145 263.02 526.27 264.884C529.396 266.749 532.107 270.304 533.072 271.849C534.11 270.688 537.037 268.531 540.442 269.192C544.699 270.017 545.98 275.785 544.122 276.941C544.195 277.719 543.478 278.801 543.11 279.245C544.301 279.705 546.312 281.397 544.833 284.48C543.353 287.563 540.958 287.707 539.945 287.394C540.732 288.792 541.165 291.99 536.597 293.598C532.028 295.206 530.124 292.736 529.743 291.3C529.586 293.113 527.544 296.659 520.63 296.329C514.825 296.052 513.348 294.503 513.305 293.406C512.926 294.905 511.749 297.166 509.178 297.408C506.254 297.684 505.426 294.981 505.378 293.596C504.754 294.799 502.473 297.206 498.343 297.203C494.213 297.199 492.053 295.669 491.489 294.904C490.459 296.146 487.708 298.597 484.942 298.465C482.176 298.334 480.683 296.741 480.281 295.961C479.155 297.048 476.396 299.075 474.373 298.48C472.351 297.886 470.85 295.868 470.352 294.933C469.987 296.276 468.684 298.624 466.393 297.269C464.102 295.915 464.174 293.716 464.496 292.787C462.954 295.549 458.88 299.45 454.925 292.953Z" fill="#C4E9FB"/>
<path d="M1009.49 90.674C1006.16 92.4157 1000.25 93.2186 993.334 93.8701C989.981 93.7101 982.876 92.1908 981.28 87.3917C979.239 81.2518 979.357 78.2292 989.722 73.2907C999.07 68.8362 1007.01 75.6624 1008.67 73.1256C1010.34 70.5889 1005.73 69.1201 1009.9 67.7758C1014.06 66.4316 1014.15 67.375 1014.83 64.4557C1015.51 61.5364 1016.69 53.8111 1023.46 49.8411C1028.89 46.6652 1034.4 46.1142 1036.47 46.2356C1036.65 41.3019 1039.24 30.0798 1048.27 24.6608C1059.55 17.887 1065.61 16.3646 1081.14 24.418C1086.35 22.3409 1098.7 19.4324 1106.42 24.4159C1116.06 30.6452 1118.01 36.1727 1118.93 40.8448C1119.66 44.5825 1120.73 44.7989 1121.18 44.4399C1125.48 42.9236 1132.32 45.9024 1138.38 49.519C1144.45 53.1355 1153 54.9248 1154.87 57.921C1155.05 57.7134 1155.19 57.5447 1155.28 57.4106C1155.18 56.9264 1155.72 56.7523 1155.28 57.4106C1155.37 57.8976 1156.1 58.6981 1159.11 59.2811C1167.36 60.8822 1179.91 65.5551 1176.3 67.7985C1176.44 69.3081 1175.05 71.4061 1174.34 72.2664C1176.65 73.1594 1180.55 76.4405 1177.68 82.4214C1174.81 88.4023 1170.16 88.6815 1168.2 88.0734C1169.73 90.7849 1164.24 90.1172 1155.38 93.2364C1146.52 96.3557 1142.82 91.5641 1142.08 88.7785C1141.78 92.297 1139.47 93.9967 1126.06 93.3569C1112.65 92.7171 1115.82 100.624 1116.75 98.6328C1116.37 101.365 1107.94 91.9958 1102.27 92.5302C1097.63 92.9671 1099.89 99.5447 1100.82 100.465C1100.96 100.383 1101.07 100.264 1101.15 100.103C1101.17 100.593 1101.03 100.67 1100.82 100.465C1098.98 101.568 1092.47 95.9184 1085.02 95.9123C1077 95.9058 1075.31 104.124 1074.21 102.641C1072.21 105.05 1065.22 98.5391 1059.86 98.2832C1054.49 98.0273 1053.25 106.203 1052.47 104.69C1050.29 106.799 1048.13 96.1525 1044.21 94.9994C1040.28 93.8462 1034.18 104.51 1033.21 102.698C1032.5 105.302 1032.65 96.558 1028.21 93.931C1024.52 91.7509 1022.15 97.6014 1021.8 98.6238C1021.82 98.5938 1021.84 98.5636 1021.85 98.5332C1021.75 98.84 1021.73 98.8333 1021.8 98.6238C1018.84 103.884 1017.12 103.205 1009.49 90.674Z" fill="#EEFDFF"/>
<path d="M1009.93 98.2314C1006.59 99.9731 999.184 101.623 996.204 94.2897C992.851 94.1298 985.747 92.6102 984.15 87.8114C982.155 81.8129 984.752 73.9539 996.228 74.3001C1007.7 74.6464 1009.9 77.7704 1011.57 75.2337C1013.24 72.6969 1012.37 68.4962 1016.53 67.152C1020.7 65.8078 1020.79 66.7512 1021.46 63.8319C1022.14 60.9126 1023.32 53.1873 1030.1 49.2173C1035.52 46.0414 1041.03 45.4903 1043.11 45.6118C1043.28 40.6781 1045.88 29.456 1054.91 24.037C1066.19 17.2632 1072.24 15.7408 1087.78 23.7942C1092.99 21.717 1105.34 18.8086 1113.05 23.7921C1122.7 30.0214 1124.65 35.5489 1125.57 40.221C1126.3 43.9587 1127.37 44.1751 1127.81 43.8161C1132.12 42.2998 1142.25 40.1713 1148.31 43.7879C1154.38 47.4044 1159.63 54.301 1161.51 57.2972C1163.52 55.0456 1169.2 50.8625 1175.8 52.1433C1184.06 53.7444 1186.54 64.9313 1182.94 67.1747C1183.08 68.6843 1181.69 70.7823 1180.98 71.6426C1183.29 72.5356 1187.19 75.8167 1184.32 81.7976C1181.45 87.7785 1176.8 88.0577 1174.84 87.4496C1176.36 90.1611 1177.2 96.3638 1168.34 99.483C1159.48 102.602 1155.79 97.8108 1155.05 95.0251C1154.74 98.5436 1150.78 105.421 1137.37 104.781C1126.11 104.244 1123.25 101.239 1123.17 99.1101C1122.43 102.019 1120.15 106.404 1115.16 106.874C1109.49 107.409 1107.88 102.167 1107.79 99.4787C1106.58 101.814 1102.15 106.482 1094.14 106.475C1086.13 106.469 1081.94 103.501 1080.85 102.017C1078.85 104.426 1073.51 109.181 1068.15 108.925C1062.79 108.669 1059.89 105.579 1059.11 104.066C1056.92 106.175 1051.57 110.106 1047.65 108.953C1043.73 107.8 1040.82 103.886 1039.85 102.074C1039.14 104.679 1036.61 109.231 1032.17 106.604C1027.73 103.978 1027.87 99.7132 1028.49 97.9094C1025.5 103.268 1017.6 110.833 1009.93 98.2314Z" fill="#C4E9FB"/>
<path d="M935.234 246.768C930.477 249.255 922.039 250.401 912.171 251.331C907.385 251.102 897.243 248.934 894.965 242.083C892.05 233.318 892.22 229.004 907.015 221.954C920.36 215.595 931.687 225.34 934.068 221.719C936.45 218.097 929.868 216.001 935.813 214.082C941.758 212.163 941.885 213.51 942.853 209.342C943.822 205.175 945.505 194.147 955.181 188.48C962.921 183.947 970.787 183.16 973.753 183.334C973.997 176.291 977.705 160.272 990.589 152.536C1006.69 142.867 1015.34 140.694 1037.52 152.19C1044.95 149.224 1062.58 145.073 1073.59 152.187C1087.36 161.079 1090.15 168.969 1091.46 175.638C1092.5 180.974 1094.03 181.283 1094.66 180.77C1100.81 178.606 1110.57 182.858 1119.22 188.021C1127.88 193.183 1140.09 195.737 1142.76 200.014C1143.02 199.718 1143.21 199.477 1143.34 199.286C1143.21 198.595 1143.97 198.346 1143.34 199.286C1143.47 199.981 1144.52 201.124 1148.81 201.956C1160.59 204.241 1178.5 210.912 1173.35 214.114C1173.56 216.269 1171.57 219.264 1170.55 220.492C1173.85 221.767 1179.42 226.45 1175.32 234.988C1171.23 243.526 1164.59 243.924 1161.79 243.056C1163.97 246.927 1156.13 245.973 1143.48 250.426C1130.83 254.879 1125.56 248.039 1124.51 244.063C1124.07 249.085 1120.77 251.511 1101.63 250.598C1082.49 249.685 1087.02 260.971 1088.34 258.129C1087.8 262.03 1075.77 248.655 1067.67 249.418C1061.06 250.042 1064.28 259.431 1065.6 260.744C1065.8 260.627 1065.96 260.458 1066.08 260.227C1066.1 260.928 1065.9 261.038 1065.6 260.744C1062.98 262.319 1053.69 254.255 1043.04 254.246C1031.61 254.237 1029.18 265.968 1027.62 263.851C1024.77 267.29 1014.79 257.996 1007.13 257.63C999.473 257.265 997.701 268.935 996.59 266.775C993.471 269.787 990.39 254.589 984.79 252.943C979.19 251.297 970.475 266.519 969.097 263.932C968.086 267.65 968.294 255.168 961.951 251.418C956.687 248.306 953.3 256.657 952.81 258.116C952.834 258.074 952.858 258.031 952.883 257.987C952.731 258.425 952.71 258.416 952.81 258.116C948.585 265.625 946.124 264.656 935.234 246.768Z" fill="#EEFDFF"/>
<path d="M935.855 257.556C931.098 260.042 920.521 262.397 916.267 251.929C911.481 251.701 901.34 249.532 899.061 242.681C896.212 234.119 899.919 222.9 916.301 223.394C932.682 223.889 935.824 228.348 938.206 224.727C940.587 221.106 939.341 215.11 945.286 213.191C951.231 211.272 951.358 212.619 952.326 208.451C953.295 204.284 954.978 193.256 964.653 187.589C972.394 183.056 980.26 182.269 983.226 182.443C983.47 175.4 987.178 159.381 1000.06 151.645C1016.17 141.976 1024.81 139.802 1046.99 151.298C1054.43 148.333 1072.05 144.182 1083.06 151.295C1096.83 160.188 1099.62 168.078 1100.93 174.747C1101.98 180.083 1103.5 180.392 1104.14 179.879C1110.28 177.715 1124.74 174.676 1133.4 179.839C1142.05 185.001 1149.56 194.846 1152.23 199.123C1155.1 195.909 1163.21 189.938 1172.64 191.766C1184.42 194.052 1187.97 210.021 1182.83 213.223C1183.03 215.378 1181.04 218.373 1180.02 219.601C1183.32 220.876 1188.89 225.559 1184.79 234.097C1180.7 242.634 1174.07 243.033 1171.26 242.165C1173.44 246.036 1174.64 254.89 1161.99 259.342C1149.34 263.795 1144.07 256.955 1143.01 252.979C1142.58 258.001 1136.92 267.818 1117.78 266.905C1101.71 266.138 1097.62 261.849 1097.5 258.81C1096.45 262.963 1093.19 269.222 1086.07 269.893C1077.98 270.656 1075.68 263.173 1075.55 259.336C1073.82 262.669 1067.51 269.333 1056.07 269.324C1044.64 269.314 1038.66 265.077 1037.1 262.96C1034.24 266.399 1026.63 273.185 1018.97 272.82C1011.31 272.455 1007.17 268.044 1006.06 265.884C1002.94 268.896 995.305 274.507 989.705 272.86C984.104 271.214 979.948 265.628 978.57 263.041C977.559 266.759 973.952 273.258 967.609 269.508C961.266 265.758 961.464 259.671 962.355 257.096C958.085 264.745 946.807 275.545 935.855 257.556Z" fill="#C4E9FB"/>
<path d="M86.168 428.164C66.7427 444.212 57.3267 426.432 55.0469 415.536C53.7402 428.09 46.2016 449.408 26.5019 434.257C6.8022 419.106 18.1676 398.394 26.3127 389.931C17.8266 397.524 -1.65923 407.826 -11.7141 388.29C-24.2827 363.87 24.2144 367.425 17.1034 366.451C11.4147 365.672 5.43382 362.75 3.15449 361.386C-12.3294 352.408 -5.64571 333.231 8.35401 326.987C19.5538 321.992 28.4933 336.397 31.563 344.224C33.1598 334.316 40.1733 316.614 55.4526 325.07C70.7318 333.527 64.5595 352.102 59.5634 360.333C67.7539 351.351 86.9557 339.054 98.2385 361.72C109.521 384.387 86.8771 395.024 74.1447 397.51C86.2464 401.041 105.593 412.117 86.168 428.164Z" fill="#A3CF2A"/>
<path d="M75.6336 592.466L96.0571 598.964L109.982 587.824L105.34 481.993L129.477 449.501V437.433L105.34 466.211L109.982 405.869L83.0603 427.221V466.211H64.4935L56.1384 449.501L50.5684 456.928L64.4935 475.495L83.0603 481.993L75.6336 592.466Z" fill="#B07D56"/>
<path d="M-15.4212 456.568C-23.2679 432.625 -3.27764 430.351 7.69831 432.207C-3.51107 426.407 -20.6053 411.604 0.692675 398.797C21.9907 385.99 22.7175 390.553 35.2501 397.051C35.2501 382.265 35.5792 382.232 57.1446 380.034L57.4407 380.004C84.7638 377.22 63.746 421.071 67.249 414.806C70.0513 409.795 74.9555 405.294 77.0573 403.67C91.0691 392.533 106.482 405.758 107.183 421.071C107.743 433.321 91.0691 436.384 82.662 436.384C91.3027 441.488 105.221 454.48 91.7697 465.617C78.3183 476.754 63.2789 464.225 57.4407 456.568C62.8119 467.473 67.249 489.839 42.0276 492.067C16.8063 494.294 13.4196 483.615 15.7549 470.854C8.04832 480.831 -7.57461 480.512 -15.4212 456.568Z" fill="#93BA24"/>
<path d="M-4.59941 452.748C-11.0407 433.185 5.36922 431.327 14.3793 432.844C5.17759 428.105 -8.85501 416.011 8.62843 405.547C26.1119 395.082 26.7085 398.811 36.9965 404.12C36.9965 392.039 37.2666 392.012 54.9696 390.217L55.2126 390.192C77.642 387.917 60.3886 423.745 63.2642 418.627C65.5646 414.532 69.5904 410.855 71.3158 409.528C82.818 400.429 95.4705 411.234 96.0456 423.745C96.5057 433.754 82.818 436.256 75.9167 436.256C83.0098 440.427 94.4353 451.043 83.3932 460.142C72.351 469.241 60.0052 459.004 55.2126 452.748C59.6218 461.658 63.2642 479.932 42.5601 481.752C21.856 483.572 19.0759 474.847 20.993 464.421C14.6666 472.572 1.84186 472.311 -4.59941 452.748Z" fill="#7DA314"/>
<path d="M59.7741 384.156C51.9274 360.212 71.9177 357.939 82.8936 359.795C71.6842 353.995 54.59 339.192 75.888 326.385C97.186 313.578 112.319 331.721 117.223 342.394C113.253 331.722 110.777 309.82 132.636 307.592C159.959 304.808 138.941 348.659 142.444 342.394C145.247 337.383 150.151 332.882 152.253 331.258C166.264 320.121 181.677 333.346 182.378 348.659C182.939 360.909 166.264 363.971 157.857 363.971C166.498 369.076 180.416 382.068 166.965 393.205C153.514 404.342 138.474 391.813 132.636 384.156C138.007 395.061 142.444 417.427 117.223 419.654C92.0016 421.882 90.3669 396.917 92.7022 384.156C84.9956 394.133 67.6207 408.1 59.7741 384.156Z" fill="#93BA24"/>
<path d="M68.3288 416.239C59.6038 389.525 81.8317 386.988 94.0363 389.059C81.5722 382.587 62.5644 366.072 86.2465 351.783C109.929 337.494 126.755 357.737 132.209 369.645C127.794 357.737 125.042 333.301 149.347 330.816C179.729 327.71 156.358 376.634 160.253 369.645C163.369 364.053 168.822 359.031 171.159 357.219C186.74 344.794 203.878 359.549 204.657 376.634C205.28 390.301 186.74 393.718 177.392 393.718C186.999 399.413 202.476 413.909 187.519 426.334C172.562 438.759 155.839 424.781 149.347 416.239C155.319 428.405 160.253 453.359 132.209 455.844C104.164 458.329 102.346 430.476 104.943 416.239C96.3736 427.369 77.0538 442.953 68.3288 416.239Z" fill="#83A61E"/>
<path d="M96.9088 457.496C89.0622 433.552 109.052 431.279 120.028 433.135C108.819 427.334 91.7247 412.532 113.023 399.725C134.321 386.918 149.454 405.061 154.358 415.734C150.388 405.061 147.912 383.159 169.771 380.932C197.094 378.148 176.076 421.998 179.579 415.734C182.381 410.722 187.286 406.221 189.387 404.597C203.399 393.461 218.812 406.686 219.513 421.998C220.073 434.249 203.399 437.311 194.992 437.311C203.633 442.416 217.551 455.408 204.1 466.545C190.648 477.681 175.609 465.153 169.771 457.496C175.142 468.401 179.579 490.767 154.358 492.994C129.136 495.222 127.502 470.257 129.837 457.496C122.13 467.473 104.755 481.44 96.9088 457.496Z" fill="#A3CF2A"/>
<path d="M123.065 415.572C118.933 420.71 126.939 427.347 131.458 430.023C133.18 431.629 135.59 434.905 131.458 435.162C126.293 435.483 115.963 435.804 117.578 444.474C119.192 453.145 123.065 454.43 131.458 447.686C139.851 440.942 139.529 449.934 141.466 460.531C143.403 471.128 155.992 464.706 159.22 458.925C162.449 453.145 155.992 442.226 154.378 441.263C152.764 440.3 150.182 432.914 147.276 430.023C144.371 427.133 150.182 420.068 141.466 412.682C132.75 405.296 128.23 409.15 123.065 415.572Z" fill="#ABDE1F"/>
<path d="M114.159 398.908C135.325 387.768 149.126 404.014 153.149 413.297L154.077 414.69C146.706 408.191 127.659 397.98 116.015 407.263C104.371 416.547 117.972 430.627 126.227 436.506C118.182 436.095 102.647 439.047 104.875 454.145C107.103 469.243 124.371 459.507 132.726 452.752C133.499 463.556 139.131 485.088 155.47 484.78C171.809 484.472 172.18 467.013 170.323 458.322C171.251 460.642 172.902 465.957 173.108 467.605C173.572 471.318 175.429 482.459 170.323 486.172C165.218 489.886 160.111 495.919 144.794 492.67C131.078 489.761 127.155 472.247 129.476 458.322C125.763 463.427 116.572 470.854 109.517 470.854C100.698 470.854 92.3429 453.68 96.5205 441.612C99.8625 431.957 112.766 431.4 119.265 432.792L116.015 430.936C106.577 425.057 92.9926 410.048 114.159 398.908Z" fill="#597609" fill-opacity="0.7"/>
<path d="M8.32857 331.139C-9.12424 344.135 -0.800116 354.502 5.54355 358.06L10.1852 360.845C8.17381 358.525 3.77966 352.676 2.29432 347.849C0.808973 343.021 8.79271 332.84 12.9702 328.354L8.32857 331.139Z" fill="#ABDE1F"/>
<path d="M145.258 334.387C169.395 327.331 162.742 354.346 156.398 368.735C157.171 360.071 157.79 341.72 154.077 337.636C149.435 332.53 139.688 336.707 145.258 334.387Z" fill="#74980F"/>
<path d="M68.2063 332.995C61.8936 340.05 68.3611 348.622 72.3839 352.026L77.0255 355.739C73.2165 350.633 68.7193 338.287 81.203 329.746C93.6867 321.205 111.779 336.708 119.265 345.528C116.635 337.637 114.809 320.462 128.548 314.892C142.288 309.322 145.413 322.474 145.259 329.746C145.723 327.734 146.651 322.876 146.651 319.534C146.651 315.356 144.794 312.107 142.938 310.251C141.081 308.394 134.118 304.217 121.586 312.107C111.56 318.42 113.695 333.614 116.016 340.422C106.732 322.783 94.664 321.855 89.0939 321.855C83.5239 321.855 76.0972 324.176 68.2063 332.995Z" fill="#7DA314"/>
<path d="M105.34 481.53L111.374 473.639L97.4492 482.458L96.0566 487.564L106.268 504.274L105.34 481.53Z" fill="#855633"/>
<path d="M98.0991 566.48C97.3565 562.395 99.0275 555.185 99.9558 552.091C101.813 547.449 103.205 555.34 102.741 561.374C102.277 567.409 103.669 566.48 103.205 573.907C102.741 581.334 99.0273 582.262 99.9558 577.156C100.884 572.05 99.0275 571.586 98.0991 566.48Z" fill="#855633"/>
<path d="M90.9512 558.582C89.0945 564.524 81.2036 569.413 77.4902 571.115L83.0603 484.779C83.6792 486.017 86.1238 489.235 90.9512 492.206C96.9854 495.919 96.9854 507.988 95.1287 510.773C93.272 513.558 95.5929 519.592 95.1287 527.483C94.6645 535.374 99.3062 536.302 96.9854 541.408C94.6645 546.514 93.272 551.156 90.9512 558.582Z" fill="#9D5823"/>
<path d="M77.4902 565.08L80.7394 515.414L82.1319 497.775C84.917 501.179 90.5798 508.173 90.9512 508.915C91.4153 509.844 85.3811 527.482 85.3811 532.124C85.3811 536.766 90.0228 541.872 89.0945 546.049C88.3518 549.391 81.0489 560.129 77.4902 565.08Z" fill="#855633"/>
<path d="M320.168 404.164C300.743 420.212 291.327 402.432 289.047 391.536C287.74 404.09 280.202 425.408 260.502 410.257C240.802 395.106 252.168 374.394 260.313 365.931C251.827 373.524 232.341 383.826 222.286 364.29C209.717 339.87 258.214 343.425 251.103 342.451C245.415 341.672 239.434 338.75 237.154 337.386C221.671 328.408 228.354 309.231 242.354 302.987C253.554 297.992 262.493 312.397 265.563 320.224C267.16 310.316 274.173 292.614 289.453 301.07C304.732 309.527 298.559 328.102 293.563 336.333C301.754 327.351 320.956 315.054 332.238 337.72C343.521 360.387 320.877 371.024 308.145 373.51C320.246 377.041 339.593 388.117 320.168 404.164Z" fill="#A3CF2A"/>
<path d="M309.634 568.466L330.057 574.964L343.982 563.824L339.34 457.993L363.477 425.501V413.433L339.34 442.211L343.982 381.869L317.06 403.221V442.211H298.493L290.138 425.501L284.568 432.928L298.493 451.495L317.06 457.993L309.634 568.466Z" fill="#B07D56"/>
<path d="M218.579 432.568C210.732 408.625 230.722 406.351 241.698 408.207C230.489 402.407 213.395 387.604 234.693 374.797C255.991 361.99 256.717 366.553 269.25 373.051C269.25 358.265 269.579 358.232 291.145 356.034L291.441 356.004C318.764 353.22 297.746 397.071 301.249 390.806C304.051 385.795 308.955 381.294 311.057 379.67C325.069 368.533 340.482 381.758 341.183 397.071C341.743 409.321 325.069 412.384 316.662 412.384C325.303 417.488 339.221 430.48 325.77 441.617C312.318 452.754 297.279 440.225 291.441 432.568C296.812 443.473 301.249 465.839 276.028 468.067C250.806 470.294 247.42 459.615 249.755 446.854C242.048 456.831 226.425 456.512 218.579 432.568Z" fill="#93BA24"/>
<path d="M229.401 428.748C222.959 409.185 239.369 407.327 248.379 408.844C239.178 404.105 225.145 392.011 242.628 381.547C260.112 371.082 260.709 374.811 270.996 380.12C270.996 368.039 271.267 368.012 288.97 366.217L289.213 366.192C311.642 363.917 294.389 399.745 297.264 394.627C299.565 390.532 303.59 386.855 305.316 385.528C316.818 376.429 329.471 387.234 330.046 399.745C330.506 409.754 316.818 412.256 309.917 412.256C317.01 416.427 328.435 427.043 317.393 436.142C306.351 445.241 294.005 435.004 289.213 428.748C293.622 437.658 297.264 455.932 276.56 457.752C255.856 459.572 253.076 450.847 254.993 440.421C248.667 448.572 235.842 448.311 229.401 428.748Z" fill="#7DA314"/>
<path d="M293.774 360.156C285.927 336.212 305.918 333.939 316.894 335.795C305.684 329.995 288.59 315.192 309.888 302.385C331.186 289.578 346.319 307.721 351.223 318.394C347.253 307.722 344.777 285.82 366.636 283.592C393.959 280.808 372.941 324.659 376.444 318.394C379.247 313.383 384.151 308.882 386.253 307.258C400.264 296.121 415.677 309.346 416.378 324.659C416.939 336.909 400.264 339.971 391.857 339.971C400.498 345.076 414.416 358.068 400.965 369.205C387.514 380.342 372.474 367.813 366.636 360.156C372.007 371.061 376.444 393.427 351.223 395.654C326.002 397.882 324.367 372.917 326.702 360.156C318.996 370.133 301.621 384.1 293.774 360.156Z" fill="#93BA24"/>
<path d="M302.329 392.239C293.604 365.525 315.832 362.988 328.036 365.059C315.572 358.587 296.564 342.072 320.246 327.783C343.929 313.494 360.755 333.737 366.209 345.645C361.794 333.737 359.042 309.301 383.347 306.816C413.729 303.71 390.358 352.634 394.253 345.645C397.369 340.053 402.822 335.031 405.159 333.219C420.74 320.794 437.878 335.549 438.657 352.634C439.28 366.301 420.74 369.718 411.392 369.718C420.999 375.413 436.476 389.909 421.519 402.334C406.562 414.759 389.839 400.781 383.347 392.239C389.319 404.405 394.253 429.359 366.209 431.844C338.164 434.329 336.346 406.476 338.943 392.239C330.374 403.369 311.054 418.953 302.329 392.239Z" fill="#83A61E"/>
<path d="M330.909 433.496C323.062 409.552 343.052 407.279 354.028 409.135C342.819 403.334 325.725 388.532 347.023 375.725C368.321 362.918 383.454 381.061 388.358 391.734C384.388 381.061 381.912 359.159 403.771 356.932C431.094 354.148 410.076 397.998 413.579 391.734C416.381 386.722 421.286 382.221 423.387 380.597C437.399 369.461 452.812 382.686 453.513 397.998C454.073 410.249 437.399 413.311 428.992 413.311C437.633 418.416 451.551 431.408 438.1 442.545C424.648 453.681 409.609 441.153 403.771 433.496C409.142 444.401 413.579 466.767 388.358 468.994C363.136 471.222 361.502 446.257 363.837 433.496C356.13 443.473 338.755 457.44 330.909 433.496Z" fill="#A3CF2A"/>
<path d="M357.065 391.572C352.933 396.71 360.939 403.347 365.458 406.023C367.18 407.629 369.59 410.905 365.458 411.162C360.293 411.483 349.963 411.804 351.578 420.474C353.192 429.145 357.065 430.43 365.458 423.686C373.851 416.942 373.529 425.934 375.466 436.531C377.403 447.128 389.992 440.706 393.22 434.925C396.449 429.145 389.992 418.226 388.378 417.263C386.764 416.3 384.182 408.914 381.276 406.023C378.371 403.133 384.182 396.068 375.466 388.682C366.75 381.296 362.23 385.15 357.065 391.572Z" fill="#ABDE1F"/>
<path d="M348.159 374.908C369.325 363.768 383.126 380.014 387.149 389.297L388.077 390.69C380.706 384.191 361.659 373.98 350.015 383.263C338.371 392.547 351.972 406.627 360.227 412.506C352.182 412.095 336.647 415.047 338.875 430.145C341.103 445.243 358.371 435.507 366.726 428.752C367.499 439.556 373.131 461.088 389.47 460.78C405.809 460.472 406.18 443.013 404.323 434.322C405.251 436.642 406.902 441.957 407.108 443.605C407.572 447.318 409.429 458.459 404.323 462.172C399.218 465.886 394.111 471.919 378.794 468.67C365.078 465.761 361.155 448.247 363.476 434.322C359.763 439.427 350.572 446.854 343.517 446.854C334.698 446.854 326.343 429.68 330.52 417.612C333.862 407.957 346.766 407.4 353.265 408.792L350.015 406.936C340.577 401.057 326.993 386.048 348.159 374.908Z" fill="#597609" fill-opacity="0.7"/>
<path d="M242.329 307.139C224.876 320.135 233.2 330.502 239.544 334.06L244.185 336.845C242.174 334.525 237.78 328.676 236.294 323.849C234.809 319.021 242.793 308.84 246.97 304.354L242.329 307.139Z" fill="#ABDE1F"/>
<path d="M379.258 310.387C403.395 303.331 396.742 330.346 390.398 344.735C391.171 336.071 391.79 317.72 388.077 313.636C383.435 308.53 373.688 312.707 379.258 310.387Z" fill="#74980F"/>
<path d="M302.206 308.995C295.894 316.05 302.361 324.622 306.384 328.026L311.025 331.739C307.216 326.633 302.719 314.287 315.203 305.746C327.687 297.205 345.779 312.708 353.265 321.528C350.635 313.637 348.809 296.462 362.548 290.892C376.288 285.322 379.413 298.474 379.259 305.746C379.723 303.734 380.651 298.876 380.651 295.534C380.651 291.356 378.794 288.107 376.938 286.251C375.081 284.394 368.118 280.217 355.586 288.107C345.56 294.42 347.695 309.614 350.016 316.422C340.732 298.783 328.664 297.855 323.094 297.855C317.524 297.855 310.097 300.176 302.206 308.995Z" fill="#7DA314"/>
<path d="M339.34 457.53L345.374 449.639L331.449 458.458L330.057 463.564L340.268 480.274L339.34 457.53Z" fill="#855633"/>
<path d="M332.099 542.48C331.356 538.395 333.027 531.185 333.956 528.091C335.813 523.449 337.205 531.34 336.741 537.374C336.277 543.409 337.669 542.48 337.205 549.907C336.741 557.334 333.027 558.262 333.956 553.156C334.884 548.05 333.027 547.586 332.099 542.48Z" fill="#855633"/>
<path d="M324.951 534.582C323.094 540.524 315.204 545.413 311.49 547.115L317.06 460.779C317.679 462.017 320.124 465.235 324.951 468.206C330.985 471.919 330.985 483.988 329.129 486.773C327.272 489.558 329.593 495.592 329.129 503.483C328.665 511.374 333.306 512.302 330.985 517.408C328.665 522.514 327.272 527.156 324.951 534.582Z" fill="#9D5823"/>
<path d="M311.49 541.08L314.739 491.414L316.132 473.775C318.917 477.179 324.58 484.173 324.951 484.915C325.415 485.844 319.381 503.482 319.381 508.124C319.381 512.766 324.023 517.872 323.094 522.049C322.352 525.391 315.049 536.129 311.49 541.08Z" fill="#855633"/>
<path d="M218.168 482.164C198.743 498.212 189.327 480.432 187.047 469.536C185.74 482.09 178.202 503.408 158.502 488.257C138.802 473.106 150.168 452.394 158.313 443.931C149.827 451.524 130.341 461.826 120.286 442.29C107.717 417.87 156.214 421.425 149.103 420.451C143.415 419.672 137.434 416.75 135.154 415.386C119.671 406.408 126.354 387.231 140.354 380.987C151.554 375.992 160.493 390.397 163.563 398.224C165.16 388.316 172.173 370.614 187.453 379.07C202.732 387.527 196.559 406.102 191.563 414.333C199.754 405.351 218.956 393.054 230.238 415.72C241.521 438.387 218.877 449.024 206.145 451.51C218.246 455.041 237.593 466.117 218.168 482.164Z" fill="#A3CF2A"/>
<path d="M207.634 646.466L228.057 652.964L241.982 641.824L237.34 535.993L261.477 503.501V491.433L237.34 520.211L241.982 459.869L215.06 481.221V520.211H196.493L188.138 503.501L182.568 510.928L196.493 529.495L215.06 535.993L207.634 646.466Z" fill="#B07D56"/>
<path d="M116.579 510.568C108.732 486.625 128.722 484.351 139.698 486.207C128.489 480.407 111.395 465.604 132.693 452.797C153.991 439.99 154.717 444.553 167.25 451.051C167.25 436.265 167.579 436.232 189.145 434.034L189.441 434.004C216.764 431.22 195.746 475.071 199.249 468.806C202.051 463.795 206.955 459.294 209.057 457.67C223.069 446.533 238.482 459.758 239.183 475.071C239.743 487.321 223.069 490.384 214.662 490.384C223.303 495.488 237.221 508.48 223.77 519.617C210.318 530.754 195.279 518.225 189.441 510.568C194.812 521.473 199.249 543.839 174.028 546.067C148.806 548.294 145.42 537.615 147.755 524.854C140.048 534.831 124.425 534.512 116.579 510.568Z" fill="#93BA24"/>
<path d="M127.401 506.748C120.959 487.185 137.369 485.327 146.379 486.844C137.178 482.105 123.145 470.011 140.628 459.547C158.112 449.082 158.709 452.811 168.996 458.12C168.996 446.039 169.267 446.012 186.97 444.217L187.213 444.192C209.642 441.917 192.389 477.745 195.264 472.627C197.565 468.532 201.59 464.855 203.316 463.528C214.818 454.429 227.471 465.234 228.046 477.745C228.506 487.754 214.818 490.256 207.917 490.256C215.01 494.427 226.435 505.043 215.393 514.142C204.351 523.241 192.005 513.004 187.213 506.748C191.622 515.658 195.264 533.932 174.56 535.752C153.856 537.572 151.076 528.847 152.993 518.421C146.667 526.572 133.842 526.311 127.401 506.748Z" fill="#7DA314"/>
<path d="M191.774 438.156C183.927 414.212 203.918 411.939 214.894 413.795C203.684 407.995 186.59 393.192 207.888 380.385C229.186 367.578 244.319 385.721 249.223 396.394C245.253 385.722 242.777 363.82 264.636 361.592C291.959 358.808 270.941 402.659 274.444 396.394C277.247 391.383 282.151 386.882 284.253 385.258C298.264 374.121 313.677 387.346 314.378 402.659C314.939 414.909 298.264 417.971 289.857 417.971C298.498 423.076 312.416 436.068 298.965 447.205C285.514 458.342 270.474 445.813 264.636 438.156C270.007 449.061 274.444 471.427 249.223 473.654C224.002 475.882 222.367 450.917 224.702 438.156C216.996 448.133 199.621 462.1 191.774 438.156Z" fill="#93BA24"/>
<path d="M200.329 470.239C191.604 443.525 213.832 440.988 226.036 443.059C213.572 436.587 194.564 420.072 218.246 405.783C241.929 391.494 258.755 411.737 264.209 423.645C259.794 411.737 257.042 387.301 281.347 384.816C311.729 381.71 288.358 430.634 292.253 423.645C295.369 418.053 300.822 413.031 303.159 411.219C318.74 398.794 335.878 413.549 336.657 430.634C337.28 444.301 318.74 447.718 309.392 447.718C318.999 453.413 334.476 467.909 319.519 480.334C304.562 492.759 287.839 478.781 281.347 470.239C287.319 482.405 292.253 507.359 264.209 509.844C236.164 512.329 234.346 484.476 236.943 470.239C228.374 481.369 209.054 496.953 200.329 470.239Z" fill="#83A61E"/>
<path d="M228.909 511.496C221.062 487.552 241.052 485.279 252.028 487.135C240.819 481.334 223.725 466.532 245.023 453.725C266.321 440.918 281.454 459.061 286.358 469.734C282.388 459.061 279.912 437.159 301.771 434.932C329.094 432.148 308.076 475.998 311.579 469.734C314.381 464.722 319.286 460.221 321.387 458.597C335.399 447.461 350.812 460.686 351.513 475.998C352.073 488.249 335.399 491.311 326.992 491.311C335.633 496.416 349.551 509.408 336.1 520.545C322.648 531.681 307.609 519.153 301.771 511.496C307.142 522.401 311.579 544.767 286.358 546.994C261.136 549.222 259.502 524.257 261.837 511.496C254.13 521.473 236.755 535.44 228.909 511.496Z" fill="#A3CF2A"/>
<path d="M255.065 469.572C250.933 474.71 258.939 481.347 263.458 484.023C265.18 485.629 267.59 488.905 263.458 489.162C258.293 489.483 247.963 489.804 249.578 498.474C251.192 507.145 255.065 508.43 263.458 501.686C271.851 494.942 271.529 503.934 273.466 514.531C275.403 525.128 287.992 518.706 291.22 512.925C294.449 507.145 287.992 496.226 286.378 495.263C284.764 494.3 282.182 486.914 279.276 484.023C276.371 481.133 282.182 474.068 273.466 466.682C264.75 459.296 260.23 463.15 255.065 469.572Z" fill="#ABDE1F"/>
<path d="M246.159 452.908C267.325 441.768 281.126 458.014 285.149 467.297L286.077 468.69C278.706 462.191 259.659 451.98 248.015 461.263C236.371 470.547 249.972 484.627 258.227 490.506C250.182 490.095 234.647 493.047 236.875 508.145C239.103 523.243 256.371 513.507 264.726 506.752C265.499 517.556 271.131 539.088 287.47 538.78C303.809 538.472 304.18 521.013 302.323 512.322C303.251 514.642 304.902 519.957 305.108 521.605C305.572 525.318 307.429 536.459 302.323 540.172C297.218 543.886 292.111 549.919 276.794 546.67C263.078 543.761 259.155 526.247 261.476 512.322C257.763 517.427 248.572 524.854 241.517 524.854C232.698 524.854 224.343 507.68 228.52 495.612C231.862 485.957 244.766 485.4 251.265 486.792L248.015 484.936C238.577 479.057 224.993 464.048 246.159 452.908Z" fill="#597609" fill-opacity="0.7"/>
<path d="M140.329 385.139C122.876 398.135 131.2 408.502 137.544 412.06L142.185 414.845C140.174 412.525 135.78 406.676 134.294 401.849C132.809 397.021 140.793 386.84 144.97 382.354L140.329 385.139Z" fill="#ABDE1F"/>
<path d="M277.258 388.387C301.395 381.331 294.742 408.346 288.398 422.735C289.171 414.071 289.79 395.72 286.077 391.636C281.435 386.53 271.688 390.707 277.258 388.387Z" fill="#74980F"/>
<path d="M200.206 386.995C193.894 394.05 200.361 402.622 204.384 406.026L209.025 409.739C205.216 404.633 200.719 392.287 213.203 383.746C225.687 375.205 243.779 390.708 251.265 399.528C248.635 391.637 246.809 374.462 260.548 368.892C274.288 363.322 277.413 376.474 277.259 383.746C277.723 381.734 278.651 376.876 278.651 373.534C278.651 369.356 276.794 366.107 274.938 364.251C273.081 362.394 266.118 358.217 253.586 366.107C243.56 372.42 245.695 387.614 248.016 394.422C238.732 376.783 226.664 375.855 221.094 375.855C215.524 375.855 208.097 378.176 200.206 386.995Z" fill="#7DA314"/>
<path d="M237.34 535.53L243.374 527.639L229.449 536.458L228.057 541.564L238.268 558.274L237.34 535.53Z" fill="#855633"/>
<path d="M230.099 620.48C229.356 616.395 231.027 609.185 231.956 606.091C233.813 601.449 235.205 609.34 234.741 615.374C234.277 621.409 235.669 620.48 235.205 627.907C234.741 635.334 231.027 636.262 231.956 631.156C232.884 626.05 231.027 625.586 230.099 620.48Z" fill="#855633"/>
<path d="M222.951 612.582C221.094 618.524 213.204 623.413 209.49 625.115L215.06 538.779C215.679 540.017 218.124 543.235 222.951 546.206C228.985 549.919 228.985 561.988 227.129 564.773C225.272 567.558 227.593 573.592 227.129 581.483C226.665 589.374 231.306 590.302 228.985 595.408C226.665 600.514 225.272 605.156 222.951 612.582Z" fill="#9D5823"/>
<path d="M209.49 619.08L212.739 569.414L214.132 551.775C216.917 555.179 222.58 562.173 222.951 562.915C223.415 563.844 217.381 581.482 217.381 586.124C217.381 590.766 222.023 595.872 221.094 600.049C220.352 603.391 213.049 614.129 209.49 619.08Z" fill="#855633"/>
<g clip-path="url(#clip1)">
<path style="mix-blend-mode:multiply" opacity="0.22" d="M742.367 602.931C745.369 603.041 748.372 602.931 751.375 602.931L776.507 602.655C777.809 602.655 779.482 602.393 779.578 601.497C779.674 600.601 778.33 600.118 777.206 599.939C773.136 599.172 769.007 598.762 764.866 598.712C758.733 598.464 752.6 598.257 746.466 598.091C742.678 597.82 738.871 598.047 735.141 598.767C733.208 599.236 730.342 601.276 733.441 602.283C734.606 602.471 735.785 602.554 736.965 602.531C738.72 602.724 740.529 602.862 742.367 602.931Z" fill="url(#paint3_linear)"/>
<path d="M768.857 547.395C770.005 548.049 771.266 548.48 772.573 548.663C774.081 549.077 775.603 549.422 777.139 549.739C780.125 550.45 783.158 550.943 786.215 551.214H786.421C786.498 551.228 786.577 551.228 786.654 551.214C788.217 551.2 790.959 550.649 791.521 549.27C791.889 547.921 792.087 546.532 792.111 545.134C792.303 543.479 792.44 541.838 792.563 540.184C792.796 536.875 792.947 533.538 793.002 530.229C793 530.184 792.99 530.14 792.971 530.098C792.952 530.057 792.925 530.02 792.892 529.99C792.859 529.959 792.82 529.935 792.778 529.919C792.736 529.904 792.691 529.897 792.646 529.898H792.33C792.302 529.841 792.253 529.796 792.193 529.774C789.451 529.057 786.709 528.396 783.967 527.761C784.048 527.544 784.048 527.304 783.967 527.086C783.863 526.491 783.618 525.929 783.253 525.449C782.888 524.969 782.413 524.585 781.869 524.328C780.141 523.625 779.209 524.328 778.016 525.459C777.893 525.583 777.207 526.162 777.276 526.272L774.739 525.721C773.41 525.27 772.026 525.001 770.626 524.921C768.418 525.114 769.076 529.057 769.022 530.353C768.885 533.69 768.72 537.027 768.597 540.377C768.528 542.045 768.459 543.714 768.405 545.382C768.336 546.14 768.213 546.871 768.857 547.395ZM782.568 527.472L780.429 526.989C779.963 526.879 778.935 526.603 778.468 526.507C778.792 526.098 779.213 525.778 779.692 525.575C780.172 525.373 780.694 525.295 781.211 525.349C781.841 525.486 782.321 526.838 782.609 527.472H782.568Z" fill="#494949"/>
<path d="M739.555 562.477C740.227 552.192 738.855 541.713 738.855 531.345C738.405 527.663 739.182 523.934 741.063 520.743C741.192 520.516 741.376 520.327 741.598 520.191C742.547 519.805 743.609 519.805 744.559 520.191C754.148 522.736 764.29 522.177 773.544 518.592C774.981 520.191 775.887 522.2 776.136 524.341C776.904 527.514 777.436 530.74 777.726 533.992C777.726 534.682 777.726 535.371 777.726 536.074C777.387 540.148 776.638 544.176 775.491 548.097C774.824 550.663 774.424 553.293 774.298 555.942C774.298 558.093 774.723 560.078 773.983 562.188C772.173 567.386 772.173 573.039 771.405 578.347C770.583 584.041 769.774 589.722 769.102 595.43L769.02 596.147C768.581 596.147 761.904 597.236 761.904 596.147L760.299 563.057C760.08 558.396 760.587 542.692 758.791 538.239L756.68 538.308C752.566 552.936 747.781 578.554 743.709 593.182C743.482 594.584 742.725 595.843 741.598 596.698C740.227 597.525 737.882 597.291 737.484 596.009C738.65 584.827 738.855 573.659 739.555 562.477Z" fill="#333333"/>
<path d="M777.246 530.216C777.246 530.216 773.421 530.133 772.036 528.258C770.651 526.383 767.375 520.551 767.375 520.551L766.854 520.675C766.854 520.675 769.116 524.921 769.417 525.39C769.94 527.025 770.999 528.433 772.422 529.382C773.844 530.332 775.546 530.767 777.246 530.616V530.216Z" fill="#636363"/>
<path d="M748.523 521.089C748.523 521.089 746.645 531.167 738.926 531.995V531.567C738.926 531.567 745.781 531.843 747.92 520.979L748.523 521.089Z" fill="#636363"/>
<path d="M763.236 596.271C765.217 596.115 767.21 596.194 769.173 596.506C770.696 597.578 772.345 598.458 774.081 599.125C774.582 599.288 775.048 599.545 775.452 599.884C775.637 600.057 775.755 600.29 775.785 600.543C775.816 600.795 775.756 601.05 775.617 601.263C775.428 601.421 775.209 601.538 774.973 601.607C774.737 601.675 774.489 601.694 774.246 601.662C770.571 601.696 766.9 601.401 763.277 600.78C763.062 600.76 762.857 600.679 762.687 600.546C762.568 600.425 762.487 600.271 762.454 600.104C762.3 599.447 762.289 598.763 762.424 598.101C762.559 597.439 762.836 596.815 763.236 596.271Z" fill="#7A4135"/>
<path d="M737.953 595.086C739.72 595.279 741.459 595.677 743.135 596.272C744.28 597.478 745.575 598.53 746.988 599.401C747.413 599.624 747.787 599.934 748.085 600.311C748.228 600.5 748.298 600.734 748.28 600.971C748.263 601.207 748.159 601.429 747.989 601.594C747.803 601.699 747.598 601.765 747.385 601.787C747.173 601.808 746.958 601.784 746.755 601.718C743.526 601.141 740.355 600.274 737.281 599.126C737.093 599.077 736.926 598.971 736.801 598.822C736.719 598.695 736.676 598.546 736.678 598.395C736.641 597.784 736.736 597.172 736.956 596.601C737.176 596.03 737.516 595.513 737.953 595.086Z" fill="#7A4135"/>
<path d="M749.634 472.888C749.332 472.336 748.907 471.826 748.578 471.274C748.249 470.723 747.207 469.317 746.617 470.171C746.464 470.623 746.488 471.116 746.686 471.55C746.855 471.99 747.134 472.38 747.495 472.681C747.49 472.704 747.49 472.727 747.495 472.75C747.851 473.232 748.756 474.721 749.565 473.894C749.671 473.75 749.734 473.579 749.746 473.401C749.758 473.223 749.719 473.044 749.634 472.888Z" fill="#A89288"/>
<path d="M751.402 471.879C750.264 470.114 749.564 468.046 748.358 466.364C748.321 466.309 748.268 466.267 748.207 466.242C748.146 466.218 748.079 466.212 748.015 466.226C747.247 466.364 746.287 466.226 746.041 467.136C745.998 467.873 746.206 468.602 746.63 469.204C746.725 469.453 746.849 469.689 747 469.908C747.658 471.038 750.264 477.367 752.361 474.595C753.019 473.699 751.881 472.624 751.402 471.879Z" fill="#191919"/>
<path d="M748.454 466.888C748.454 466.888 747.371 466.695 747.357 467.012C747.275 468.06 750.716 474.058 750.716 474.058C750.716 474.058 750.716 474.154 750.977 474.058C751.366 473.938 751.746 473.79 752.115 473.617C752.115 473.617 750.867 471.231 750.744 470.942C750.62 470.652 748.618 466.93 748.618 466.93C748.618 466.93 748.536 466.916 748.454 466.888Z" fill="white"/>
<path d="M751.552 474.127C751.519 474.167 751.483 474.204 751.443 474.237C751.42 474.257 751.401 474.281 751.388 474.308C751.376 474.336 751.369 474.366 751.369 474.396C751.369 474.426 751.376 474.456 751.388 474.483C751.401 474.511 751.42 474.535 751.443 474.554C751.46 474.58 751.484 474.601 751.511 474.615C751.539 474.63 751.569 474.637 751.6 474.637C751.631 474.637 751.662 474.63 751.689 474.615C751.717 474.601 751.74 474.58 751.758 474.554C752.142 474.416 751.84 473.837 751.552 474.127Z" fill="white"/>
<path d="M754.939 475.231C755.913 475.68 756.957 475.955 758.024 476.045C758.978 475.969 759.898 475.651 760.697 475.121C762.51 474.339 764.048 473.028 765.112 471.357C765.565 470.296 765.816 469.16 765.853 468.007C766.113 465.111 766.237 462.202 766.209 459.307C766.32 457.811 766.006 456.315 765.304 454.991C763.933 452.896 761.068 452.537 758.572 452.372C756.123 452.003 753.62 452.313 751.333 453.268C749.043 454.495 749.578 456.301 749.4 458.549C749.18 461.306 749.043 464.174 749.029 467C748.872 468.597 749.147 470.208 749.825 471.661C751.179 473.292 752.946 474.526 754.939 475.231Z" fill="#A89288"/>
<path d="M760.3 473.438C759.948 473.642 759.533 473.711 759.135 473.631C758.764 473.507 758.531 473.148 758.23 472.886C757.928 472.624 757.421 472.486 757.174 472.79C757.259 472.944 757.281 473.125 757.235 473.295C757.188 473.465 757.078 473.61 756.927 473.7C756.607 473.852 756.25 473.909 755.899 473.865C755.254 473.865 754.404 473.548 754.432 472.9H753.938C753.837 473.182 753.812 473.486 753.865 473.782C753.918 474.077 754.047 474.353 754.24 474.582C754.633 475.038 755.154 475.365 755.734 475.52C756.64 475.812 757.605 475.87 758.539 475.689C759.474 475.509 760.348 475.095 761.081 474.486C761.561 474.072 762 473.396 761.698 472.845L760.3 473.438Z" fill="#D7C68E"/>
<path d="M747.179 457.39C746.974 459.899 746.439 464.352 748.55 466.186C750.689 463.181 749.03 458.369 751.814 455.597C752.794 454.765 754.046 454.326 755.329 454.364C756.611 454.402 757.835 454.915 758.765 455.804C759.546 456.549 760.205 457.541 761.26 457.748C761.603 457.748 761.96 457.748 762.316 457.831C765.744 458.258 765.264 464.215 765.662 466.614C765.744 467.096 765.991 467.703 766.471 467.675C766.95 467.648 767.129 467.138 767.238 466.71C767.905 463.482 768.044 460.166 767.65 456.893C767.586 456.004 767.373 455.132 767.019 454.315C765.319 450.62 759.08 449.572 755.433 450.138C751.786 450.703 747.536 453.171 747.179 457.39Z" fill="#D7C68E"/>
<path d="M751.195 479.851C749.704 481.518 748.433 483.372 747.411 485.366C746.084 487.47 744.946 489.69 744.011 491.997C743.654 492.976 743.271 494.755 744.669 495.251C746.068 495.748 747.068 493.873 747.644 493.087C750.688 488.95 752.909 485.255 755.542 480.843C755.71 480.592 755.861 480.329 755.994 480.057C756.032 479.854 756.028 479.644 755.984 479.442C755.94 479.239 755.856 479.047 755.737 478.878C755.618 478.708 755.467 478.564 755.292 478.455C755.118 478.345 754.923 478.271 754.719 478.237C753.403 477.934 752.059 479.023 751.195 479.851Z" fill="#333333"/>
<path d="M779.989 527.885C779.995 527.872 779.998 527.858 779.998 527.844C779.998 527.829 779.995 527.815 779.989 527.802C778.207 518.647 779.4 509.244 778.344 500.034C777.878 495.518 776.62 491.121 774.628 487.046C773.106 483.986 771.886 479.808 768.445 478.36C764.235 476.554 759.176 476.651 754.734 477.064C748.591 477.574 745.301 484.344 742.97 489.418C741.297 492.975 740.721 497.18 739.857 501.013C738.545 506.021 737.886 511.18 737.897 516.359C737.897 517.641 736.169 528.96 736.388 528.96C739.473 528.96 742.531 529.153 745.657 529.264C748.495 529.36 751.374 529.346 754.213 529.264C764.331 529.071 770.213 530.119 779.688 528.202C779.989 528.175 780.099 528.009 779.989 527.885Z" fill="#F3F3F5"/>
<path d="M778.961 499.482C778.517 495.849 777.647 492.281 776.37 488.852C774.941 485.643 773.244 482.562 771.297 479.642C771.297 479.518 770.447 479.353 770.268 479.325C767.65 478.953 766.882 481.379 767.156 483.654C767.622 487.625 770.872 491.238 772.64 494.753C774.752 498.89 775.725 503.743 776.946 508.238C778.246 512.832 779.317 517.489 780.154 522.191C780.154 522.301 780.318 522.384 780.428 522.384H781.799C781.95 522.384 782.115 522.259 782.101 522.108C781.1 514.552 780.126 507.01 778.961 499.482Z" fill="#EBEBED"/>
<path d="M783.431 524.453C783.106 524.14 782.753 523.858 782.375 523.612C782.255 523.545 782.148 523.456 782.06 523.35C781.826 522.992 781.703 521.186 780.894 521.971C780.085 522.757 780.428 523.902 780.195 524.729C780.099 525.019 780.017 525.363 780.195 525.57C780.324 525.652 780.478 525.687 780.63 525.67C780.782 525.652 780.924 525.583 781.031 525.474C781.245 525.253 781.479 525.055 781.731 524.881C781.91 524.799 782.112 524.78 782.304 524.827C782.495 524.875 782.665 524.986 782.786 525.143C782.937 525.349 783.019 525.639 783.28 525.722C783.54 525.804 783.842 525.501 783.828 525.212C783.798 524.917 783.656 524.645 783.431 524.453Z" fill="#A89288"/>
<path d="M757.311 479.16C757.264 479.031 757.264 478.889 757.311 478.76C757.379 478.539 757.64 478.443 757.859 478.388C758.598 478.105 759.409 478.08 760.163 478.319C760.876 478.664 761.218 479.78 760.574 480.235C760.286 480.456 759.82 480.497 759.683 480.842C759.635 481.013 759.635 481.195 759.683 481.366C760.19 483.944 760.697 486.509 761.218 489.087C762.46 494.816 763.376 500.611 763.961 506.445C764.064 507.089 764.064 507.746 763.961 508.389C763.728 509.052 763.365 509.66 762.894 510.178C762.423 510.697 761.853 511.115 761.218 511.409C761.088 511.496 760.936 511.544 760.78 511.547C760.574 511.499 760.393 511.376 760.272 511.202L757.53 507.962C757.145 507.564 756.838 507.096 756.625 506.583C756.433 505.882 756.405 505.146 756.543 504.432C756.9 501.463 757.247 498.499 757.585 495.539C757.928 492.603 758.284 489.666 758.38 486.715C758.38 485.24 758.38 483.779 758.312 482.303C758.129 481.213 757.792 480.154 757.311 479.16Z" fill="#7A4135"/>
<path d="M752.8 477.575C752.892 477.682 752.958 477.808 752.994 477.944C753.029 478.08 753.034 478.223 753.006 478.361C753.006 479.064 752.937 479.74 753.006 480.443C753.11 482.486 753.736 484.469 754.824 486.198C755.912 487.927 757.425 489.345 759.217 490.315C759.551 490.528 759.933 490.651 760.328 490.673C761.452 490.673 762.096 489.418 762.48 488.357C763.68 485.526 764.438 482.527 764.729 479.464C764.677 478.659 764.838 477.855 765.195 477.134C765.634 476.458 766.758 476.196 767.211 476.858C767.413 477.288 767.461 477.775 767.348 478.237C766.929 481.15 767.519 484.12 769.02 486.647C770.392 488.95 772.544 490.783 774.176 492.907C777.864 497.815 778.837 504.212 779.66 510.32C780.661 515.891 781.065 521.553 780.867 527.21C780.855 527.707 780.693 528.188 780.4 528.589C780.016 528.925 779.537 529.132 779.029 529.182C774.816 530.101 770.565 530.822 766.278 531.346C762.228 531.968 758.124 532.158 754.034 531.912C751.45 531.652 748.882 531.247 746.343 530.698L734.441 528.423C735.127 520.785 735.808 513.151 736.484 505.522C736.841 501.593 737.225 497.553 739.021 494.065C739.926 492.3 741.16 490.728 742.174 489.032C743.669 486.468 744.67 483.641 746.288 481.132C747.261 479.602 750.47 475.521 752.8 477.575Z" fill="#97A8B2"/>
<path d="M748.234 473.77C747.85 472.819 747.59 472.474 746.712 472.97C746.1 473.394 745.623 473.988 745.341 474.68C742.388 479.324 739.728 484.15 737.375 489.129C736.83 490.07 736.552 491.144 736.571 492.233C736.591 493.322 736.907 494.385 737.485 495.306C737.994 495.975 738.742 496.419 739.57 496.546C740.399 496.672 741.244 496.469 741.927 495.982C743.094 494.663 743.922 493.077 744.34 491.363C745.122 488.826 745.478 486.179 746.177 483.628C746.877 481.077 747.288 478.582 748.028 476.072C748.347 475.349 748.419 474.539 748.234 473.77Z" fill="#EBEBED"/>
<path d="M765.5 466.5H749C749.833 469.167 752.8 474.5 758 474.5C763.2 474.5 765.167 469.167 765.5 466.5Z" fill="white"/>
</g>
</g>
<defs>
<filter id="filter0_f" x="490" y="52" width="230" height="230" filterUnits="userSpaceOnUse" color-interpolation-filters="sRGB">
<feFlood flood-opacity="0" result="BackgroundImageFix"/>
<feBlend mode="normal" in="SourceGraphic" in2="BackgroundImageFix" result="shape"/>
<feGaussianBlur stdDeviation="10" result="effect1_foregroundBlur"/>
</filter>
<linearGradient id="paint0_linear" x1="576" y1="-149" x2="576" y2="699" gradientUnits="userSpaceOnUse">
<stop stop-color="#1AC1EA"/>
<stop offset="0.350501" stop-color="white" stop-opacity="0"/>
</linearGradient>
<linearGradient id="paint1_linear" x1="580.397" y1="193.173" x2="729.407" y2="-21.643" gradientUnits="userSpaceOnUse">
<stop offset="0.0261508" stop-color="#FAB421"/>
<stop offset="0.694041" stop-color="#FDE7A9" stop-opacity="0.395074"/>
<stop offset="1" stop-color="white" stop-opacity="0"/>
</linearGradient>
<linearGradient id="paint2_linear" x1="604.602" y1="97.8675" x2="604.602" y2="237.044" gradientUnits="userSpaceOnUse">
<stop stop-color="white"/>
<stop offset="1" stop-color="white" stop-opacity="0"/>
</linearGradient>
<linearGradient id="paint3_linear" x1="728.482" y1="599.068" x2="775.784" y2="601.681" gradientUnits="userSpaceOnUse">
<stop/>
<stop offset="1"/>
</linearGradient>
<clipPath id="clip0">
<rect width="1152" height="700" fill="white"/>
</clipPath>
<clipPath id="clip1">
<rect x="732" y="450" width="61" height="153" fill="white"/>
</clipPath>
</defs>
</svg>
