<svg width="1152" height="700" viewBox="0 0 1152 700" fill="none" xmlns="http://www.w3.org/2000/svg">
<g clip-path="url(#clip0)">
<rect width="1152" height="700" fill="white"/>
<rect width="1152" height="699" fill="#E6EEBB"/>
<rect width="1152" height="699" fill="url(#paint0_linear)"/>
<path d="M123.96 329.784C113.253 346.867 33.5256 410.454 -5 440.113V554H2.2996H1197V405.708C1192.13 405.708 1176.32 403.573 1151.99 395.031C1121.57 384.354 1106.97 363 1087.51 351.137C1068.04 339.274 931.781 440.113 898.933 419.944C866.085 399.776 824.721 398.59 804.039 405.708C783.356 412.826 717.66 387.913 704.277 383.168C690.895 378.423 664.13 351.137 643.447 351.137C622.765 351.137 621.549 323.852 603.3 317.92C585.051 311.987 533.953 345.205 479.206 373.677C424.46 402.149 404.994 381.982 372.146 373.677C339.298 365.373 304.016 342.833 294.283 351.137C284.551 359.441 266.302 370.118 259.002 363C251.702 355.882 228.587 346.392 205.472 323.852C182.356 301.312 137.342 308.43 123.96 329.784Z" fill="#1C7A3C"/>
<path d="M28 493C21.6 507.4 6.66667 517 0 520C0 615 12 561 49 578C86 595 122 587 211 567C300 547 669.5 571 896 602C1122.5 633 1148 501 1145 493C1142 485 1136 451 1136 439C1136 429.4 1127.33 410.333 1123 402C1124.33 409.667 1126.2 427.8 1123 439C1119 453 1128 462 1136 493C1144 523.999 1105 520 1096 520H1079C1073 520 1075 467 1079 462C1082.2 458.001 1084.33 455.667 1085 455C1088 446.667 1092.8 427.2 1088 416C1083.2 404.8 1086 386 1088 378C1086.33 382.667 1082.2 395.6 1079 410C1075 428 1064 430 1054 439C1044 448 1039 462 1030 482.999C1021 503.999 1013 462 1007 451C1001 440 1022 439 1039 416C1052.6 397.6 1054.67 383 1054 378C1042.67 386.333 1014.6 405.6 993 416C966 429 964 430 957 451C950 472 907 462 896 462C885 462 866 451 863 462C860.6 470.801 867.333 483 871 487.999C868 487.999 858.6 486.999 845 482.999C828 477.999 818 437 806 439C794 441 732 430 726 416C720 402 669.5 392 679 384C688.5 376.001 674.5 365 669.5 360.5C664.5 356 647 351 639.5 351C632 351 624 340 615 329C615 337.8 604.333 356.667 599 365C602.333 363.333 610.2 361 615 365C621 370 620 409 656 410C692 411 672 446 679 462C681 473 627.003 473 599.002 473H599C576.6 473 596.333 455 609 446C599.667 449.667 577.8 458 565 462C552.2 466.001 563.667 442.334 571 430C565 430 551.6 433.2 546 446C540.4 458.8 517 454.667 506 451C503 458.333 497 475 497 482.999C497 492.999 478 501 475 482.999C472.6 468.599 464.667 494.999 461 510C445 510 407.2 508.2 384 501C357 482 384 493 384 482.999C384 472.999 359 482.999 351 482.999C343 482.999 339 473 339 462C339 451 311 430 300 416C289 402 288 408 288 392C288 379.2 270.667 368.667 262 365C249.333 357.333 222.4 340.4 216 334C189.6 306 166.333 308.334 158 313C164.667 313.334 180.4 315.8 190 323C202 332 200 351 202 360C204 369 224 378 240 384C256 390 267 404 259 430C251 456 244 447 240 462C236.8 474 219.333 474.334 211 473C206.667 474.334 196.4 478.2 190 482.999C182 488.999 173 487.999 158 482.999C143 477.999 116 477.999 107 487.999C99.8 495.999 96 487.999 95 482.999C89.6667 482.999 78 484.999 74 493C69 503 28 512 34 510C40 508 36 475 28 493Z" fill="#085E31"/>
<path d="M397 506C248.2 478 69.6667 511 -1 531V701H1152V467C842 562 583 541 397 506Z" fill="#BD943A"/>
<path d="M-1 701.999V530.999C79 495.999 284.603 493.302 321 495.999C361.5 498.999 471 517.999 498 521.999C519.6 525.199 569 529.332 591 530.999C477.4 530.999 406.333 644.999 385 701.999H-1Z" fill="#859D3D"/>
<path d="M120.719 566.752C136.427 563.401 45.4513 572.059 -2 576.807V679.866C6.59031 682.38 26.2253 685.899 36.0428 679.866C48.3147 672.325 99.8566 679.866 87.5847 687.407C75.3128 694.948 120.719 684.056 144.035 679.866C167.352 675.677 161.216 687.407 234.847 679.866C308.478 672.325 323.205 668.974 341.613 636.296C360.02 603.619 266.754 616.187 240.983 601.105C215.212 586.023 225.03 595.24 207.849 601.105C190.668 606.97 178.397 595.24 184.533 576.807C190.668 558.374 92.4934 589.375 55.6778 584.348C18.8622 579.32 101.084 570.942 120.719 566.752Z" fill="#5F833D"/>
<path d="M124.389 615H-6V659.333C10.8244 659.333 46.7163 660.5 55.6893 665.167C66.9056 671 158.038 659.333 181.872 659.333C195.332 659.333 176.264 667.111 165.048 671C186.545 670.222 239.075 666.8 277.21 659.333C324.879 650 338.899 627.833 292.632 620.833C246.365 613.833 97.7502 623.167 107.564 620.833C115.416 618.967 122.052 616.167 124.389 615Z" fill="#537832"/>
<path d="M415 681C408.6 684.2 392.333 695 385 700H375C376.667 693.667 381 677.8 385 665C390 649 403 630 421 613C435.4 599.4 443.667 584.667 446 579L487 557L507 546C514 543.334 529 536.8 533 532C537 527.201 542 528.5 544 528.5L605 533.5C601.333 533.834 591.2 532.8 580 532C568.8 531.2 569.333 541 571 546H544C538 548.667 524.8 553.6 520 552C514 550 505 571 483 579C465.4 585.4 469 592.334 473 595C468 596.667 457.2 600.6 454 603C450.8 605.4 447.333 616.667 446 622C442.333 623.334 432.2 630 421 646C407 666 423 677 415 681Z" fill="#96C753"/>
<path d="M422 681C415.6 684.2 399.333 695 392 700H382C383.667 693.666 388 677.8 392 665C397 649 410 630 428 613C442.4 599.4 450.667 584.666 453 579L494 557L514 546C521 543.333 536 536.8 540 532C544 527.2 547.5 527.5 549.5 527.5L611.5 534C607.833 534.333 598.2 532.8 587 532C575.8 531.2 576.333 541 578 546H551C545 548.667 531.8 553.6 527 552C521 550 512 571 490 579C472.4 585.4 476 592.333 480 595C475 596.666 464.2 600.6 461 603C457.8 605.4 454.333 616.666 453 622C449.333 623.333 439.2 630 428 646C414 666 430 677 422 681Z" fill="#537832"/>
<path d="M406 681C399.6 684.2 383.333 695 376 700H366C367.667 693.667 372 677.8 376 665C381 649 394 630 412 613C426.4 599.4 434.667 584.667 437 579L478 557L498 546C505 543.333 520 536.8 524 532C528 527.2 533 526 535 526L596 532C592.333 532.334 582.2 532.8 571 532C559.8 531.2 560.333 541 562 546H535C529 548.667 515.8 553.6 511 552C505 550 496 571 474 579C456.4 585.4 460 592.333 464 595C459 596.667 448.2 600.6 445 603C441.8 605.4 438.333 616.667 437 622C433.333 623.333 423.2 630 412 646C398 666 414 677 406 681Z" fill="#859D3D"/>
<path d="M165.469 502.972C177.187 496.647 215.601 495.246 231 495.999L293 495.999L350 499L317.5 517.5C317.5 506.205 299.325 519.914 289.41 519.914C277.016 519.914 283.38 527.816 280 542.5C276.62 557.184 260.027 543.87 242 545C223.972 546.13 248 560.577 216.172 560.577C194.498 560.577 191.384 558.318 171.103 551.541C150.821 544.764 155.106 529.389 167.5 526C179.894 522.611 178.99 521.044 171.103 514.267C163.216 507.49 150.822 510.879 165.469 502.972Z" fill="#5F833D"/>
<path d="M177 502C187.4 496.4 217.333 496.334 231 497L339 498.5L319 512C319 502 295.8 517 287 517C276 517 280 521 277 534C274 547 253 538 237 539C221 540 241 556 222 553C203 550 200 551 182 545C164 539 166 532 177 529C188 526 189 518 182 512C175 506 164 509 177 502Z" fill="#99B449"/>
<path d="M383 684C379.8 691.6 365.333 697.167 358.5 699H383V696L409.5 679C409.5 677 407.5 672.9 407.5 670.5C406 642 428 628 437.5 623C436.3 619 442.333 608.667 445.5 604L465 595C464.167 591.333 461.8 583 471 581C480.2 579 502 561.833 511 553C519.4 552.2 531.833 547.334 536.5 545.5H561.5C563.5 528.986 578 534 589.5 531.5C573.667 530 543.6 527.2 550 528C558 529 539 533.5 528.5 537C518 540.5 505 541.5 499 545.5C493 549.5 492.5 551.5 483.5 556C474.5 560.5 468.5 568.5 465 573C461.5 577.5 454.5 584 443.5 586.5C432.5 589 431.5 592.5 431.5 602C431.5 611.5 414 625.5 401.5 641.5C389 657.5 386 654 386 658.5C386 663 387 674.5 383 684Z" fill="#63A448"/>
<path d="M350 662C350.401 659.909 352.289 656.354 356.625 658.863C360.961 661.373 354.015 662 350 662Z" fill="#F1FFC3"/>
<path d="M71 625C71.4015 622.909 73.2885 619.354 77.6246 621.863C81.9607 624.373 75.0149 625 71 625Z" fill="#F1FFC3"/>
<path d="M141 543C141.401 540.909 143.289 537.354 147.625 539.863C151.961 542.373 145.015 543 141 543Z" fill="#F1FFC3"/>
<path d="M348.538 647.439C346.704 646.358 343.991 643.385 347.812 640.145C351.634 636.906 349.889 643.658 348.538 647.439Z" fill="#F1FFC3"/>
<path d="M62.767 620.879C60.9326 619.797 58.2193 616.824 62.0409 613.585C65.8626 610.345 64.1173 617.098 62.767 620.879Z" fill="#F1FFC3"/>
<path d="M356.578 639.883C358.993 638.249 363.899 635.954 364.201 639.849C364.502 643.743 359.245 641.494 356.578 639.883Z" fill="#F1FFC3"/>
<path d="M393 528.433C395.415 526.8 400.321 524.505 400.623 528.399C400.924 532.294 395.667 530.045 393 528.433Z" fill="#F1FFC3"/>
<path d="M366 518.433C368.415 516.8 373.321 514.505 373.623 518.399C373.924 522.294 368.667 520.045 366 518.433Z" fill="#F1FFC3"/>
<path d="M157 535.433C159.415 533.8 164.321 531.505 164.623 535.399C164.924 539.294 159.667 537.045 157 535.433Z" fill="#F1FFC3"/>
<path d="M1050 701C1074.8 698.6 1129.33 694 1152 701V536L1145 554C1145 560.667 1128 572.4 1128 586C1128 599.6 1040.83 619 1030.5 622C1035.17 621 1108.4 615.6 1122 622C1139 630 1116 628 1122 654C1126.8 674.8 1090.67 674 1072 671L1002 689C990.001 701 1025.2 703.4 1050 701Z" fill="#B2782B"/>
<path d="M1152 685H1091.93C1090.86 685.1 1089.88 685.102 1089 685H1091.93C1101.36 684.117 1117.53 675.576 1131 663C1144.18 650.699 1133 637 1136 631C1138.4 626.2 1123.67 615 1116 610L1136 589C1137.33 589.667 1140.4 589.6 1142 584C1143.6 578.4 1149.33 572.333 1152 570V685Z" fill="#B65B24" fill-opacity="0.7"/>
<path d="M448.626 693.78C457.045 704.312 563.05 705.541 615 704.839L558.373 700.099C541.168 697.993 504.753 693.78 496.735 693.78C486.712 693.78 468.17 685.354 456.645 685.88C445.119 686.407 448.626 672.188 448.626 663.762C448.626 655.337 469.674 645.33 473.683 642.17C477.692 639.011 473.683 626.898 478.694 616.893C482.703 608.888 506.423 608.291 517.782 608.993L510.766 603.201C509.43 603.201 506.056 601.515 503.249 594.774C499.741 586.348 526.301 583.715 536.825 569.497C547.348 555.278 559.877 562.124 578.418 562.124C596.96 562.124 590.946 547.378 590.946 540.006C590.946 534.108 614.534 536 612.5 533C607.656 533.527 584.332 532.317 581.926 535.266C578.919 538.953 589.443 547.379 578.418 553.172C567.393 558.964 553.362 551.592 547.348 553.172C541.335 554.751 528.306 555.805 526.301 562.124C524.297 568.444 504.252 582.662 493.728 586.349C485.309 589.298 492.225 598.812 496.735 603.201C491.556 603.903 479.696 606.044 473.683 608.993C466.166 612.68 467.168 618.473 464.663 631.638C462.157 644.804 440.107 652.177 433.091 663.762C426.075 675.348 438.102 680.614 448.626 693.78Z" fill="#C77835"/>
<path d="M672.976 564.34C659.386 560.458 645.996 568.17 641 572.511C647.931 574.073 660.1 570.664 670.997 573.12C681.895 575.575 699.615 572.052 704.904 566.41C699.924 567.338 686.566 568.223 672.976 564.34Z" fill="#B56426"/>
<path d="M936.976 660.34C923.386 656.458 909.996 664.17 905 668.511C911.931 670.073 924.1 666.664 934.997 669.12C945.895 671.575 963.615 668.052 968.904 662.41C963.924 663.338 950.566 664.223 936.976 660.34Z" fill="#B56426"/>
<path d="M699.994 632.578C687.194 643.778 701.994 655.912 710.994 660.578L747.994 668.578L756.994 676.578H772.994C785.994 671.245 813.994 659.178 821.994 653.578C831.994 646.578 885.994 632.578 884.994 619.578C883.994 606.578 838.994 624.579 821.994 632.578C804.994 640.578 776.994 625.578 764.994 619.578C752.994 613.578 715.994 618.578 699.994 632.578Z" fill="#B4762D"/>
<path d="M927.661 606.386C919.585 606.343 912.845 607.941 910.485 608.746C910.326 611.581 910.983 618.066 914.889 621.317C919.771 625.382 923.01 612.996 926.049 611.137C929.088 609.278 932.242 612.757 942.778 611.516C953.313 610.274 937.757 606.441 927.661 606.386Z" fill="#EAAF63"/>
<path d="M563.122 651.215C547.367 650.899 538.819 643.239 528.317 636.736C513.177 628.407 528.183 599.553 540.078 611.197C551.973 622.841 566.691 606.164 574.198 611.624C581.705 617.084 591.841 610.012 607.922 618.2C619.738 618.437 597.572 653.389 591.172 650.9C584.773 648.412 582.816 651.61 563.122 651.215Z" fill="#B4762D"/>
<path d="M761.811 637.954C758 623.471 729.738 642.46 720.991 644.713C728.766 647.931 730.817 672.561 768.5 660C845 634.5 765.521 652.052 761.811 637.954Z" fill="#D8B358"/>
<path d="M727.794 591.609C713.021 598.561 744.317 599.655 761.811 599.333C776.39 599.333 810.212 597.788 828.872 591.609C852.198 583.885 803.603 579.057 761.811 576.161C720.019 573.264 746.261 582.919 727.794 591.609Z" fill="#D8B358"/>
<path d="M994.096 576.161C980.878 582.34 967.207 584.528 962.023 584.85C966.235 587.103 977.185 591.609 987.293 591.609C999.928 591.609 1007.7 584.85 1028.11 576.161C1048.52 567.471 1010.62 568.436 994.096 576.161Z" fill="#D8B358"/>
<path d="M586.868 637.954C571.318 637.954 539.569 642.46 525.638 644.713C499.397 637.954 525.638 628.299 561.599 623.471C597.559 618.644 606.306 637.954 586.868 637.954Z" fill="#D8B358"/>
<path d="M1003 518C991.001 516.4 998.001 509.333 1003 506L1109 480C1107.33 484.333 1106.8 498.8 1090 502C1069 506 1069 511 1064 524C1059 537 1047 530 1037 518C1027 506 1018 520 1003 518Z" fill="#BE8034"/>
<path d="M1055 493.499C1041.53 497.768 1010 500.499 1027 505.499C1034.1 505.673 1038.76 521.997 1049.93 522.27C1061.1 522.543 1076.12 496.623 1080.2 490.054C1075.5 487.999 1069.85 488.793 1055 493.499Z" fill="#B65B24" fill-opacity="0.8"/>
<path d="M423 677.5L391.5 700.5H466.5C461.667 699 452.6 693.3 449 690.5C444.5 687 431.5 679 431.5 670C431.5 661 453.5 645.5 460.5 640.5C467.5 635.5 465 618.5 469.5 612.5C473.1 607.7 490 604.5 498 603.5C497.667 603 498.3 600.657 495.5 598.657C486.5 588.657 491.5 586.657 504.5 581.657C517.5 576.657 526.5 566.5 531.5 560.5C536.5 554.5 546.5 554.5 551.5 554C555.5 553.6 566.167 555.167 571 556C576.833 554.833 587.4 550.4 583 542C578.6 533.6 588.833 532.167 594.5 532.5C593 532 588.4 531.3 582 532.5C575.6 533.7 576.667 541.667 578 545.5H551.5C549.333 547.5 540.288 550.868 534.5 550C524.5 548.5 523.5 551.5 515.5 561.5C507.5 571.5 488 578 480 582.5C473.6 586.1 477.333 593.834 480 596C475.5 594.5 464.1 599.8 460.5 601C456.9 602.2 453.333 616.334 452 622C448.833 624.5 441.6 630.4 438 634C420 648.4 419.667 669 423 677.5Z" fill="#A35D21" fill-opacity="0.7"/>
<path d="M117 414C71.4 426 23.3333 430.167 6 431.5C42.3333 402.833 118.5 337 126 326C134.864 313 150.667 311.333 158 311C159 316 163 331 175 347C190 367 177 366 180 388C183 410 208 421 196 433C184 445 174 399 117 414Z" fill="#2B9D58"/>
<path d="M282 392C284.4 384 272.333 372 266 367C265.5 366.667 264 365.8 262 365C264 365 268.5 365 272.5 364C279.3 362.8 290.667 354.5 295.5 350.5C309 346 335 361.5 342 364C349 366.5 372.5 374 379.5 376C386.5 378 405.5 386 426 389C446.5 392 468 378.5 473.5 377C479 375.5 544.5 339.5 563 329.5C577.8 321.5 587.167 319.167 590 319C592.333 320.333 596.8 326 596 338C595 353 574 367 581 360C586.6 354.4 583.333 343 581 338L568 347C553.667 359 521.8 383.6 509 386C493 389 457 392 433 408C409 424 380 418 365 413C353 409 340 418 335 423C336.333 425.667 340.8 433.8 348 445C357 459 322 448 312 436C302 424 279 402 282 392Z" fill="#2E9B58"/>
<path d="M693.5 378.5C694.486 378.955 695.81 379.638 697.372 380.535C705.068 383.913 721.575 389.569 730.5 392.5C749 398.667 789.3 410.1 802.5 406.5C819 402 824.5 401 848 403C871.5 405 887 414 893.5 417C900 420 899.5 426 924.5 420.5C949.5 415 1009.5 383.5 1031 371.5C1048.2 361.9 1069.17 354.167 1077.5 351.5V361.5C1077.5 367.5 1078.5 371.5 1077.5 383.5C1076.5 395.5 1075.5 392 1068.5 401C1062.9 408.2 1059.17 417 1058 420.5C1058.33 418.833 1058.8 413.7 1058 406.5C1057 397.5 1059.5 396.5 1063 383.5C1066.5 370.5 1056 368 1047.5 371.5C1039 375 1016.5 391.5 1009.5 396.5C1002.5 401.5 976 413.5 962 420.5C948 427.5 944 440.5 924.5 447C905 453.5 871.5 439 860.5 435.5C849.5 432 841 426 837.5 435.5C834 445 847.5 451.5 841 451.5C834.5 451.5 828 437 823 430.5C818 424 793 424.5 780 426C767 427.5 728.5 408.5 717.5 396.5C710.702 389.085 702.672 383.578 697.372 380.535C695.439 379.686 694.062 378.982 693.5 378.5Z" fill="#2E9B58"/>
<path d="M74 389.499C64 401.099 40.8333 413.999 30.5 418.999C38 417.999 58.7 413.599 81.5 403.999C110 391.999 95 385.999 103 375.999C111 365.999 127 374.999 135 371.999C143 368.999 143 356.999 138.5 349.499C134 341.999 147 328.999 147 319.499C147 311.899 141.333 320.999 138.5 326.499C134.667 331.333 125.4 342.699 119 349.499C111 357.999 86.5 374.999 74 389.499Z" fill="#34B771"/>
<path d="M313.001 431C315.401 437.4 324.334 437 328.501 436C332.5 435.451 328.501 420.5 324.501 407.5C320.501 394.5 344.001 395.5 362.001 395.5C380.001 395.5 379.001 401 402.001 401.5C425.001 402 422.501 395.5 409.501 395.5C396.501 395.5 383.501 389.5 369.001 382.5C354.501 375.5 351.001 380 328.501 380C306 380 309.501 365 295.001 363.5C280.501 362 279.501 368.5 283.501 376.5C287.501 384.5 292.501 385.5 292.501 395.5C292.501 405.5 298.501 401 306.001 414.5C313.501 428 310.001 423 313.001 431Z" fill="#34B771"/>
<path d="M540.5 350C531.3 359.6 493.333 376 475.5 383C459 396.001 493.5 383 505.5 379C517.5 375 516.5 376 521 370C525.5 364 546.5 356 556 350C565.5 344 552 338 540.5 350Z" fill="#34B771"/>
<path d="M779.001 417.5C767.401 418.3 746.168 407.833 737.001 402.5C717.652 393 768.501 406.5 783.001 412C797.501 417.5 816.501 412 825.501 412C834.501 412 845.501 413.5 873.501 421C901.501 428.5 895.501 430 904.501 431C913.501 432 929.001 429.5 949.001 417.5C965.001 407.9 993.001 397.5 1005 393.5C1001 396.5 991.801 402.5 987.001 402.5C981.001 402.5 953.501 423.5 944.501 426C935.501 428.5 923.001 438.5 912.001 442.5C901.001 446.5 848.001 423.5 835.501 423.5C823.001 423.5 833.001 431.5 825.501 423.5C818.001 415.5 793.501 416.5 779.001 417.5Z" fill="#34B771"/>
<path d="M690.08 202.885C684.08 206.02 673.437 207.466 660.991 208.639C654.954 208.351 642.161 205.615 639.288 196.975C635.612 185.92 635.825 180.478 654.487 171.586C671.319 163.566 685.607 175.856 688.61 171.289C691.614 166.721 683.312 164.077 690.811 161.656C698.309 159.236 698.469 160.935 699.691 155.678C700.912 150.422 703.036 136.513 715.239 129.365C725.002 123.647 734.924 122.654 738.665 122.873C738.973 113.99 743.65 93.7846 759.9 84.0276C780.213 71.8313 791.115 69.0903 819.095 83.5904C828.472 79.8505 850.699 74.6139 864.594 83.5867C881.962 94.8026 885.475 104.755 887.127 113.167C888.448 119.897 890.373 120.286 891.171 119.64C898.926 116.91 911.236 122.273 922.152 128.785C933.067 135.296 948.465 138.518 951.835 143.913C952.169 143.539 952.406 143.235 952.569 142.994C952.401 142.122 953.369 141.808 952.569 142.994C952.737 143.87 954.052 145.312 959.465 146.362C974.331 149.244 996.913 157.658 990.426 161.697C990.682 164.415 988.176 168.193 986.891 169.742C991.049 171.349 998.073 177.257 992.907 188.026C987.741 198.794 979.375 199.297 975.838 198.202C978.587 203.084 968.702 201.882 952.748 207.498C936.795 213.114 930.144 204.487 928.813 199.472C928.265 205.807 924.105 208.867 899.959 207.715C875.813 206.563 881.53 220.799 883.196 217.214C882.515 222.134 867.341 205.264 857.13 206.227C848.784 207.013 852.849 218.856 854.519 220.513C854.765 220.365 854.965 220.151 855.115 219.861C855.146 220.744 854.893 220.883 854.519 220.513C851.207 222.499 839.492 212.327 826.064 212.316C811.641 212.304 808.581 227.102 806.612 224.431C803.015 228.769 790.423 217.046 780.765 216.585C771.107 216.124 768.871 230.844 767.47 228.12C763.535 231.918 759.65 212.749 752.586 210.672C745.523 208.596 734.531 227.797 732.792 224.533C731.517 229.223 731.779 213.479 723.779 208.749C717.139 204.823 712.867 215.357 712.249 217.198C712.28 217.144 712.31 217.09 712.341 217.035C712.149 217.587 712.123 217.575 712.249 217.198C706.92 226.669 703.816 225.446 690.08 202.885Z" fill="white"/>
<path d="M690.863 216.488C684.863 219.624 671.522 222.595 666.157 209.391C660.12 209.103 647.329 206.367 644.454 197.727C640.861 186.927 645.537 172.777 666.199 173.4C686.862 174.023 690.825 179.648 693.829 175.081C696.832 170.513 695.261 162.95 702.759 160.53C710.257 158.109 710.417 159.808 711.639 154.552C712.861 149.296 714.984 135.386 727.188 128.238C736.951 122.52 746.873 121.528 750.613 121.747C750.921 112.863 755.599 92.658 771.849 82.901C792.162 70.7047 803.064 67.9637 831.043 82.4639C840.42 78.724 862.648 73.4874 876.542 82.4601C893.911 93.676 897.424 103.628 899.075 112.04C900.396 118.77 902.321 119.16 903.119 118.513C910.874 115.783 929.114 111.951 940.029 118.463C950.944 124.974 960.413 137.391 963.783 142.786C967.408 138.732 977.629 131.2 989.522 133.507C1004.39 136.389 1008.86 156.531 1002.37 160.57C1002.63 163.289 1000.12 167.066 998.84 168.615C1003 170.223 1010.02 176.131 1004.86 186.899C999.689 197.668 991.323 198.17 987.786 197.076C990.535 201.958 992.046 213.126 976.092 218.742C960.138 224.358 953.488 215.731 952.156 210.715C951.609 217.05 944.477 229.433 920.331 228.281C900.059 227.314 894.899 221.903 894.751 218.07C893.426 223.309 889.315 231.203 880.337 232.049C870.126 233.012 867.234 223.573 867.064 218.734C864.884 222.938 856.92 231.343 842.496 231.331C828.073 231.319 820.529 225.975 818.561 223.305C814.963 227.642 805.354 236.202 795.695 235.742C786.037 235.281 780.819 229.717 779.418 226.993C775.484 230.791 765.849 237.869 758.785 235.792C751.722 233.716 746.479 226.67 744.741 223.406C743.466 228.096 738.916 236.294 730.915 231.564C722.915 226.834 723.164 219.156 724.289 215.908C718.903 225.556 704.677 239.178 690.863 216.488Z" fill="#F8F7CB"/>
<path d="M-70.5607 107.243C-77.4632 110.85 -89.7062 112.513 -104.025 113.863C-110.969 113.532 -125.687 110.385 -128.992 100.444C-133.221 87.7266 -132.975 81.4658 -111.507 71.2366C-92.143 62.0101 -75.7066 76.1492 -72.2514 70.8948C-68.7961 65.6404 -78.3458 62.598 -69.7198 59.8137C-61.0937 57.0294 -60.9095 58.9834 -59.5041 52.9367C-58.0987 46.89 -55.6562 30.8885 -41.6171 22.6655C-30.3857 16.0871 -18.9712 14.9458 -14.6679 15.1974C-14.3141 4.97822 -8.93312 -18.2662 9.76121 -29.4907C33.1291 -43.5213 45.6708 -46.6746 77.8585 -29.9936C88.6459 -34.296 114.217 -40.3202 130.201 -29.9979C150.181 -17.0951 154.223 -5.64594 156.123 4.03142C157.643 11.7733 159.858 12.2215 160.775 11.4779C169.697 8.33721 183.858 14.5072 196.416 21.9982C208.973 29.4891 226.687 33.1953 230.564 39.4013C230.948 38.9713 231.22 38.622 231.407 38.3442C231.215 37.3412 232.328 36.9806 231.407 38.3442C231.601 39.3528 233.114 41.011 239.341 42.2186C256.443 45.5348 282.422 55.214 274.959 59.8606C275.253 62.9874 272.371 67.3331 270.893 69.1151C275.676 70.9647 283.756 77.7609 277.813 90.1491C271.87 102.537 262.246 103.116 258.176 101.856C261.339 107.472 249.967 106.089 231.614 112.55C213.261 119.011 205.61 109.087 204.079 103.317C203.449 110.605 198.663 114.125 170.885 112.8C143.107 111.475 149.685 127.851 151.601 123.728C150.817 129.387 133.361 109.981 121.615 111.088C112.013 111.992 116.69 125.617 118.611 127.522C118.894 127.353 119.124 127.106 119.297 126.772C119.332 127.789 119.041 127.948 118.611 127.522C114.801 129.808 101.323 118.106 85.8764 118.093C69.2834 118.079 65.7635 135.103 63.4987 132.03C59.3601 137.02 44.875 123.534 33.7639 123.004C22.6528 122.474 20.0811 139.407 18.469 136.274C13.9427 140.643 9.47282 118.591 1.34691 116.202C-6.77901 113.813 -19.4242 135.902 -21.424 132.147C-22.8907 137.543 -22.5897 119.43 -31.7934 113.989C-39.4315 109.473 -44.3457 121.592 -45.0568 123.709C-45.0219 123.647 -44.9868 123.585 -44.9517 123.522C-45.1718 124.157 -45.2026 124.143 -45.0568 123.709C-51.1881 134.605 -54.7591 133.198 -70.5607 107.243Z" fill="#EEFDFF"/>
<path d="M-69.6602 122.894C-76.5626 126.501 -91.9106 129.919 -98.0825 114.729C-105.027 114.398 -119.743 111.251 -123.049 101.311C-127.183 88.886 -121.804 72.6077 -98.0338 73.3249C-74.2637 74.042 -69.7042 80.5129 -66.249 75.2584C-62.7937 70.004 -64.6013 61.3032 -55.9752 58.5189C-47.3491 55.7346 -47.165 57.6887 -45.7596 51.642C-44.3542 45.5953 -41.9117 29.5937 -27.8725 21.3707C-16.6412 14.7923 -5.22672 13.651 -0.923393 13.9026C-0.569586 3.68344 4.8116 -19.561 23.5059 -30.7855C46.8739 -44.8161 59.4155 -47.9694 91.6032 -31.2884C102.391 -35.5908 127.962 -41.615 143.946 -31.2927C163.926 -18.3899 167.968 -6.94073 169.867 2.73663C171.387 10.4785 173.602 10.9268 174.52 10.1832C183.441 7.04244 204.424 2.63372 216.981 10.1247C229.538 17.6156 240.431 31.9005 244.308 38.1066C248.477 33.4427 260.236 24.7784 273.918 27.4313C291.02 30.7476 296.166 53.9192 288.703 58.5658C288.998 61.6927 286.115 66.0384 284.637 67.8204C289.42 69.6699 297.501 76.4661 291.557 88.8544C285.614 101.243 275.99 101.821 271.921 100.561C275.084 106.178 276.821 119.025 258.468 125.486C240.115 131.947 232.464 122.023 230.932 116.253C230.302 123.54 222.098 137.785 194.32 136.46C171 135.347 165.064 129.123 164.893 124.714C163.369 130.74 158.64 139.822 148.311 140.795C136.564 141.902 133.237 131.045 133.041 125.477C130.534 130.314 121.372 139.983 104.779 139.969C88.1859 139.956 79.5082 133.808 77.2435 130.735C73.1049 135.725 62.0499 145.573 50.9388 145.043C39.8277 144.513 33.8257 138.113 32.2136 134.979C27.6873 139.348 16.6033 147.49 8.47736 145.101C0.351443 142.713 -5.67964 134.607 -7.67945 130.853C-9.14623 136.248 -14.3807 145.678 -23.5844 140.237C-32.788 134.796 -32.5011 125.963 -31.2072 122.227C-37.4033 133.325 -53.7684 148.997 -69.6602 122.894Z" fill="#F9FADB"/>
<path d="M267.35 273.353C264.514 274.835 259.484 275.518 253.602 276.073C250.749 275.937 244.702 274.644 243.344 270.56C241.607 265.335 241.708 262.763 250.528 258.56C258.483 254.769 265.236 260.578 266.656 258.42C268.075 256.261 264.152 255.011 267.696 253.867C271.24 252.723 271.315 253.526 271.893 251.042C272.47 248.557 273.474 241.983 279.242 238.605C283.856 235.902 288.545 235.433 290.313 235.537C290.459 231.338 292.669 221.788 300.35 217.177C309.95 211.413 315.103 210.117 328.327 216.97C332.759 215.203 343.265 212.728 349.832 216.969C358.04 222.27 359.701 226.973 360.481 230.949C361.106 234.13 362.016 234.314 362.393 234.009C366.058 232.718 371.876 235.253 377.035 238.331C382.194 241.408 389.472 242.931 391.065 245.481C391.223 245.304 391.334 245.161 391.411 245.046C391.332 244.634 391.79 244.486 391.411 245.046C391.491 245.461 392.113 246.142 394.671 246.638C401.697 248.001 412.37 251.977 409.304 253.886C409.425 255.171 408.241 256.956 407.634 257.688C409.599 258.448 412.919 261.24 410.477 266.33C408.035 271.42 404.081 271.657 402.409 271.14C403.709 273.447 399.037 272.879 391.496 275.533C383.956 278.188 380.813 274.11 380.184 271.74C379.925 274.734 377.959 276.18 366.546 275.636C355.134 275.091 357.836 281.82 358.623 280.126C358.302 282.451 351.13 274.478 346.304 274.932C342.359 275.304 344.281 280.902 345.07 281.685C345.186 281.615 345.28 281.514 345.352 281.376C345.366 281.794 345.246 281.859 345.07 281.685C343.504 282.623 337.967 277.816 331.621 277.811C324.804 277.805 323.358 284.799 322.427 283.537C320.727 285.587 314.776 280.046 310.211 279.828C305.646 279.61 304.59 286.567 303.927 285.28C302.068 287.075 300.231 278.015 296.893 277.034C293.554 276.052 288.359 285.127 287.538 283.585C286.935 285.801 287.059 278.36 283.277 276.125C280.139 274.269 278.121 279.248 277.828 280.118C277.843 280.092 277.857 280.067 277.872 280.041C277.781 280.302 277.768 280.296 277.828 280.118C275.309 284.594 273.842 284.016 267.35 273.353Z" fill="white"/>
<path d="M267.721 279.784C264.885 281.266 258.58 282.67 256.044 276.429C253.191 276.293 247.145 275 245.787 270.916C244.088 265.812 246.298 259.124 256.064 259.419C265.83 259.713 267.703 262.372 269.123 260.213C270.542 258.054 269.8 254.48 273.344 253.336C276.888 252.192 276.963 252.995 277.541 250.51C278.118 248.026 279.121 241.452 284.889 238.074C289.504 235.371 294.193 234.902 295.961 235.005C296.107 230.807 298.317 221.257 305.998 216.646C315.598 210.881 320.751 209.586 333.975 216.439C338.407 214.672 348.912 212.197 355.48 216.437C363.688 221.738 365.349 226.442 366.129 230.418C366.754 233.599 367.664 233.783 368.041 233.477C371.706 232.187 380.326 230.376 385.485 233.453C390.644 236.531 395.12 242.4 396.713 244.949C398.425 243.033 403.257 239.474 408.877 240.564C415.904 241.926 418.018 251.446 414.952 253.355C415.073 254.64 413.889 256.425 413.281 257.157C415.246 257.917 418.566 260.709 416.124 265.799C413.683 270.888 409.729 271.126 408.057 270.609C409.356 272.916 410.07 278.194 402.53 280.849C394.99 283.503 391.846 279.426 391.217 277.055C390.958 280.049 387.588 285.902 376.175 285.357C366.594 284.9 364.156 282.343 364.085 280.531C363.459 283.007 361.516 286.739 357.273 287.138C352.447 287.593 351.08 283.132 351 280.845C349.97 282.832 346.205 286.804 339.388 286.799C332.571 286.793 329.006 284.268 328.075 283.005C326.375 285.055 321.833 289.101 317.268 288.883C312.703 288.666 310.238 286.036 309.575 284.749C307.716 286.544 303.162 289.889 299.823 288.907C296.485 287.926 294.007 284.596 293.186 283.053C292.583 285.27 290.432 289.144 286.651 286.909C282.87 284.673 282.988 281.045 283.519 279.51C280.974 284.069 274.25 290.508 267.721 279.784Z" fill="#F8F7CB"/>
<path d="M642.023 71.5828C639.702 72.7959 635.585 73.3551 630.77 73.8088C628.435 73.6974 623.486 72.6392 622.374 69.2966C620.952 65.0201 621.035 62.9148 628.254 59.4751C634.765 56.3725 640.292 61.127 641.454 59.3601C642.616 57.5932 639.405 56.5702 642.305 55.6339C645.206 54.6977 645.268 55.3547 645.741 53.3214C646.213 51.2881 647.035 45.9073 651.755 43.1422C655.532 40.9301 659.37 40.5463 660.818 40.631C660.937 37.1946 662.746 29.3783 669.032 25.6038C676.89 20.8858 681.107 19.8255 691.931 25.4347C695.559 23.988 704.157 21.9623 709.532 25.4333C716.251 29.7721 717.61 33.622 718.249 36.8762C718.76 39.4796 719.505 39.6303 719.813 39.3802C722.813 38.3241 727.575 40.3989 731.798 42.9178C736.02 45.4368 741.977 46.683 743.281 48.7699C743.41 48.6253 743.501 48.5079 743.564 48.4145C743.5 48.0772 743.874 47.9559 743.564 48.4145C743.629 48.7536 744.138 49.3112 746.232 49.7173C751.983 50.8324 760.719 54.0872 758.209 55.6497C758.308 56.7012 757.339 58.1625 756.842 58.7617C758.45 59.3836 761.168 61.669 759.169 65.8347C757.17 70.0005 753.934 70.1949 752.566 69.7714C753.63 71.66 749.805 71.1949 743.634 73.3675C737.462 75.5401 734.89 72.2028 734.375 70.2625C734.163 72.7132 732.554 73.897 723.213 73.4514C713.872 73.0058 716.084 78.5127 716.728 77.1262C716.465 79.0293 710.595 72.5034 706.645 72.8756C703.416 73.1799 704.989 77.7613 705.635 78.4021C705.73 78.3451 705.807 78.2621 705.865 78.1498C705.877 78.4917 705.779 78.5452 705.635 78.4021C704.353 79.1705 699.822 75.2355 694.627 75.2313C689.048 75.2268 687.864 80.9511 687.102 79.918C685.711 81.5959 680.84 77.0609 677.104 76.8827C673.367 76.7044 672.502 82.3987 671.96 81.3449C670.438 82.8141 668.935 75.3986 666.203 74.5954C663.47 73.7922 659.218 81.2198 658.546 79.9573C658.052 81.7716 658.154 75.681 655.059 73.8513C652.49 72.3328 650.838 76.4077 650.599 77.1198C650.611 77.099 650.622 77.0779 650.634 77.0568C650.56 77.2705 650.55 77.2658 650.599 77.1198C648.537 80.7837 647.336 80.3105 642.023 71.5828Z" fill="white"/>
<path d="M642.327 76.8461C640.006 78.0593 634.845 79.2085 632.77 74.1007C630.435 73.9893 625.486 72.9309 624.374 69.5885C622.984 65.4105 624.793 59.9366 632.786 60.1778C640.779 60.4189 642.313 62.5949 643.475 60.828C644.636 59.0611 644.029 56.1353 646.929 55.199C649.83 54.2627 649.892 54.9198 650.364 52.8865C650.837 50.8532 651.658 45.4724 656.379 42.7073C660.156 40.4952 663.994 40.1114 665.441 40.196C665.56 36.7597 667.37 28.9433 673.656 25.1689C681.514 20.4509 685.731 19.3905 696.555 24.9998C700.182 23.5531 708.781 21.5273 714.156 24.9984C720.875 29.3371 722.234 33.1871 722.873 36.4413C723.384 39.0446 724.128 39.1954 724.437 38.9453C727.437 37.8892 734.493 36.4067 738.715 38.9256C742.938 41.4446 746.601 46.2481 747.904 48.335C749.306 46.7667 753.261 43.8532 757.861 44.7453C763.612 45.8604 765.343 53.6523 762.833 55.2148C762.932 56.2662 761.963 57.7276 761.466 58.3268C763.074 58.9487 765.791 61.2341 763.793 65.3998C761.794 69.5656 758.558 69.76 757.19 69.3365C758.253 71.2251 758.838 75.5453 752.666 77.7179C746.494 79.8905 743.922 76.5532 743.407 74.6129C743.195 77.0636 740.436 81.8536 731.095 81.408C723.253 81.0338 721.257 78.9407 721.2 77.4582C720.687 79.4845 719.097 82.5386 715.624 82.8659C711.674 83.2381 710.555 79.587 710.489 77.7149C709.646 79.3412 706.565 82.5926 700.985 82.588C695.406 82.5835 692.488 80.5161 691.726 79.483C690.335 81.161 686.617 84.4724 682.881 84.2941C679.145 84.1159 677.126 81.9637 676.584 80.91C675.062 82.3792 671.335 85.117 668.602 84.3138C665.87 83.5106 663.842 80.7849 663.169 79.5224C662.676 81.3367 660.916 84.5078 657.821 82.6781C654.726 80.8484 654.823 77.8782 655.258 76.6219C653.174 80.3539 647.671 85.6236 642.327 76.8461Z" fill="#F8F7CB"/>
<path d="M510.35 292.353C507.514 293.835 502.484 294.518 496.602 295.073C493.749 294.937 487.702 293.644 486.344 289.56C484.607 284.335 484.708 281.763 493.528 277.56C501.483 273.769 508.236 279.578 509.656 277.42C511.075 275.261 507.152 274.011 510.696 272.867C514.24 271.723 514.315 272.526 514.893 270.042C515.47 267.557 516.474 260.983 522.242 257.605C526.856 254.902 531.545 254.433 533.313 254.537C533.459 250.338 535.669 240.788 543.35 236.177C552.95 230.413 558.103 229.117 571.327 235.97C575.759 234.203 586.265 231.728 592.832 235.969C601.04 241.27 602.701 245.973 603.481 249.949C604.106 253.13 605.016 253.314 605.393 253.009C609.058 251.718 614.876 254.253 620.035 257.331C625.194 260.408 632.472 261.931 634.065 264.481C634.223 264.304 634.334 264.161 634.411 264.046C634.332 263.634 634.79 263.486 634.411 264.046C634.491 264.461 635.113 265.142 637.671 265.638C644.697 267.001 655.37 270.977 652.304 272.886C652.425 274.171 651.241 275.956 650.634 276.688C652.599 277.448 655.919 280.24 653.477 285.33C651.035 290.42 647.081 290.657 645.409 290.14C646.709 292.447 642.037 291.879 634.496 294.533C626.956 297.188 623.813 293.11 623.184 290.74C622.925 293.734 620.959 295.18 609.546 294.636C598.134 294.091 600.836 300.82 601.623 299.126C601.302 301.451 594.13 293.478 589.304 293.932C585.359 294.304 587.281 299.902 588.07 300.685C588.186 300.615 588.28 300.514 588.352 300.376C588.366 300.794 588.246 300.859 588.07 300.685C586.504 301.623 580.967 296.816 574.621 296.811C567.804 296.805 566.358 303.799 565.427 302.537C563.727 304.587 557.776 299.046 553.211 298.828C548.646 298.61 547.59 305.567 546.927 304.28C545.068 306.075 543.231 297.015 539.893 296.034C536.554 295.052 531.359 304.127 530.538 302.585C529.935 304.801 530.059 297.36 526.277 295.125C523.139 293.269 521.121 298.248 520.828 299.118C520.843 299.092 520.857 299.067 520.872 299.041C520.781 299.302 520.768 299.296 520.828 299.118C518.309 303.594 516.842 303.016 510.35 292.353Z" fill="white"/>
<path d="M510.721 298.784C507.885 300.266 501.58 301.67 499.044 295.429C496.191 295.293 490.145 294 488.787 289.916C487.088 284.812 489.298 278.124 499.064 278.419C508.83 278.713 510.703 281.372 512.123 279.213C513.542 277.054 512.8 273.48 516.344 272.336C519.888 271.192 519.963 271.995 520.541 269.51C521.118 267.026 522.121 260.452 527.889 257.074C532.504 254.371 537.193 253.902 538.961 254.005C539.107 249.807 541.317 240.257 548.998 235.646C558.598 229.881 563.751 228.586 576.975 235.439C581.407 233.672 591.912 231.197 598.48 235.437C606.688 240.738 608.349 245.442 609.129 249.418C609.754 252.599 610.664 252.783 611.041 252.477C614.706 251.187 623.326 249.376 628.485 252.453C633.644 255.531 638.12 261.4 639.713 263.949C641.425 262.033 646.257 258.474 651.877 259.564C658.904 260.926 661.018 270.446 657.952 272.355C658.073 273.64 656.889 275.425 656.281 276.157C658.246 276.917 661.566 279.709 659.124 284.799C656.683 289.888 652.729 290.126 651.057 289.609C652.356 291.916 653.07 297.194 645.53 299.849C637.99 302.503 634.846 298.426 634.217 296.055C633.958 299.049 630.588 304.902 619.175 304.357C609.594 303.9 607.156 301.343 607.085 299.531C606.459 302.007 604.516 305.739 600.273 306.138C595.447 306.593 594.08 302.132 594 299.845C592.97 301.832 589.205 305.804 582.388 305.799C575.571 305.793 572.006 303.268 571.075 302.005C569.375 304.055 564.833 308.101 560.268 307.883C555.703 307.666 553.238 305.036 552.575 303.749C550.716 305.544 546.162 308.889 542.823 307.907C539.485 306.926 537.007 303.596 536.186 302.053C535.583 304.27 533.432 308.144 529.651 305.909C525.87 303.673 525.988 300.045 526.519 298.51C523.974 303.069 517.25 309.508 510.721 298.784Z" fill="#F8F7CB"/>
<path d="M775.35 351.353C772.514 352.835 767.484 353.518 761.602 354.073C758.749 353.937 752.702 352.644 751.344 348.56C749.607 343.335 749.708 340.763 758.528 336.56C766.483 332.769 773.236 338.578 774.656 336.42C776.075 334.261 772.152 333.011 775.696 331.867C779.24 330.723 779.315 331.526 779.893 329.042C780.47 326.557 781.474 319.983 787.242 316.605C791.856 313.902 796.545 313.433 798.313 313.537C798.459 309.338 800.669 299.788 808.35 295.177C817.95 289.413 823.103 288.117 836.327 294.97C840.759 293.203 851.265 290.728 857.832 294.969C866.04 300.27 867.701 304.973 868.481 308.949C869.106 312.13 870.016 312.314 870.393 312.009C874.058 310.718 879.876 313.253 885.035 316.331C890.194 319.408 897.472 320.931 899.065 323.481C899.223 323.304 899.334 323.161 899.411 323.046C899.332 322.634 899.79 322.486 899.411 323.046C899.491 323.461 900.113 324.142 902.671 324.638C909.697 326.001 920.37 329.977 917.304 331.886C917.425 333.171 916.241 334.956 915.634 335.688C917.599 336.448 920.919 339.24 918.477 344.33C916.035 349.42 912.081 349.657 910.409 349.14C911.709 351.447 907.037 350.879 899.496 353.533C891.956 356.188 888.813 352.11 888.184 349.74C887.925 352.734 885.959 354.18 874.546 353.636C863.134 353.091 865.836 359.82 866.623 358.126C866.302 360.451 859.13 352.478 854.304 352.932C850.359 353.304 852.281 358.902 853.07 359.685C853.186 359.615 853.28 359.514 853.352 359.376C853.366 359.794 853.246 359.859 853.07 359.685C851.504 360.623 845.967 355.816 839.621 355.811C832.804 355.805 831.358 362.799 830.427 361.537C828.727 363.587 822.776 358.046 818.211 357.828C813.646 357.61 812.59 364.567 811.927 363.28C810.068 365.075 808.231 356.015 804.893 355.034C801.554 354.052 796.359 363.127 795.538 361.585C794.935 363.801 795.059 356.36 791.277 354.125C788.139 352.269 786.121 357.248 785.828 358.118C785.843 358.092 785.857 358.067 785.872 358.041C785.781 358.302 785.768 358.296 785.828 358.118C783.309 362.594 781.842 362.016 775.35 351.353Z" fill="white"/>
<path d="M775.721 357.784C772.885 359.266 766.58 360.67 764.044 354.429C761.191 354.293 755.145 353 753.787 348.916C752.088 343.812 754.298 337.124 764.064 337.419C773.83 337.713 775.703 340.372 777.123 338.213C778.542 336.054 777.8 332.48 781.344 331.336C784.888 330.192 784.963 330.995 785.541 328.51C786.118 326.026 787.121 319.452 792.889 316.074C797.504 313.371 802.193 312.902 803.961 313.005C804.107 308.807 806.317 299.257 813.998 294.646C823.598 288.881 828.751 287.586 841.975 294.439C846.407 292.672 856.912 290.197 863.48 294.437C871.688 299.738 873.349 304.442 874.129 308.418C874.754 311.599 875.664 311.783 876.041 311.477C879.706 310.187 888.326 308.376 893.485 311.453C898.644 314.531 903.12 320.4 904.713 322.949C906.425 321.033 911.257 317.474 916.877 318.564C923.904 319.926 926.018 329.446 922.952 331.355C923.073 332.64 921.889 334.425 921.281 335.157C923.246 335.917 926.566 338.709 924.124 343.799C921.683 348.888 917.729 349.126 916.057 348.609C917.356 350.916 918.07 356.194 910.53 358.849C902.99 361.503 899.846 357.426 899.217 355.055C898.958 358.049 895.588 363.902 884.175 363.357C874.594 362.9 872.156 360.343 872.085 358.531C871.459 361.007 869.516 364.739 865.273 365.138C860.447 365.593 859.08 361.132 859 358.845C857.97 360.832 854.205 364.804 847.388 364.799C840.571 364.793 837.006 362.268 836.075 361.005C834.375 363.055 829.833 367.101 825.268 366.883C820.703 366.666 818.238 364.036 817.575 362.749C815.716 364.544 811.162 367.889 807.823 366.907C804.485 365.926 802.007 362.596 801.186 361.053C800.583 363.27 798.432 367.144 794.651 364.909C790.87 362.673 790.988 359.045 791.519 357.51C788.974 362.069 782.25 368.508 775.721 357.784Z" fill="#F8F7CB"/>
<path d="M989.35 74.3529C986.514 75.835 981.484 76.5183 975.602 77.0726C972.749 76.9365 966.702 75.6436 965.344 71.5597C963.607 66.3348 963.708 63.7626 972.528 59.56C980.483 55.7694 987.236 61.5783 988.656 59.4196C990.075 57.2608 986.152 56.0109 989.696 54.867C993.24 53.7231 993.315 54.5259 993.893 52.0416C994.47 49.5574 995.474 42.9833 1001.24 39.6049C1005.86 36.9023 1010.55 36.4334 1012.31 36.5367C1012.46 32.3383 1014.67 22.7885 1022.35 18.177C1031.95 12.4126 1037.1 11.1171 1050.33 17.9704C1054.76 16.2028 1065.26 13.7278 1071.83 17.9686C1080.04 23.2696 1081.7 27.9734 1082.48 31.9493C1083.11 35.13 1084.02 35.3141 1084.39 35.0086C1088.06 33.7183 1093.88 36.2532 1099.04 39.3308C1104.19 42.4084 1111.47 43.931 1113.06 46.4807C1113.22 46.3041 1113.33 46.1605 1113.41 46.0464C1113.33 45.6344 1113.79 45.4862 1113.41 46.0464C1113.49 46.4608 1114.11 47.1421 1116.67 47.6382C1123.7 49.0006 1134.37 52.9772 1131.3 54.8862C1131.43 56.1709 1130.24 57.9563 1129.63 58.6884C1131.6 59.4483 1134.92 62.2404 1132.48 67.3301C1130.03 72.4197 1126.08 72.6572 1124.41 72.1398C1125.71 74.4472 1121.04 73.879 1113.5 76.5334C1105.96 79.1878 1102.81 75.1103 1102.18 72.7398C1101.92 75.734 1099.96 77.1804 1088.55 76.6359C1077.13 76.0915 1079.84 82.8197 1080.62 81.1257C1080.3 83.4508 1073.13 75.4777 1068.3 75.9325C1064.36 76.3042 1066.28 81.9016 1067.07 82.6845C1067.19 82.6149 1067.28 82.5136 1067.35 82.3763C1067.37 82.794 1067.25 82.8594 1067.07 82.6845C1065.5 83.6234 1059.97 78.8157 1053.62 78.8106C1046.8 78.805 1045.36 85.7988 1044.43 84.5366C1042.73 86.5867 1036.78 81.0459 1032.21 80.8281C1027.65 80.6104 1026.59 87.5674 1025.93 86.28C1024.07 88.0751 1022.23 79.015 1018.89 78.0337C1015.55 77.0524 1010.36 86.1271 1009.54 84.5847C1008.94 86.8013 1009.06 79.36 1005.28 77.1245C1002.14 75.2693 1000.12 80.2479 999.828 81.1179C999.843 81.0924 999.857 81.0667 999.872 81.0409C999.781 81.302 999.768 81.2962 999.828 81.1179C997.309 85.5943 995.842 85.0162 989.35 74.3529Z" fill="white"/>
<path d="M989.721 80.7836C986.885 82.2658 980.58 83.6699 978.044 77.4293C975.191 77.2932 969.145 76.0001 967.787 71.9164C966.088 66.8118 968.298 60.124 978.064 60.4186C987.83 60.7133 989.703 63.3718 991.123 61.213C992.542 59.0543 991.8 55.4796 995.344 54.3357C998.888 53.1918 998.963 53.9946 999.541 51.5104C1000.12 49.0262 1001.12 42.452 1006.89 39.0737C1011.5 36.371 1016.19 35.9021 1017.96 36.0055C1018.11 31.807 1020.32 22.2572 1028 17.6457C1037.6 11.8814 1042.75 10.5859 1055.97 17.4391C1060.41 15.6715 1070.91 13.1965 1077.48 17.4374C1085.69 22.7384 1087.35 27.4422 1088.13 31.418C1088.75 34.5987 1089.66 34.7829 1090.04 34.4774C1093.71 33.1871 1102.33 31.3758 1107.49 34.4534C1112.64 37.5309 1117.12 43.3998 1118.71 45.9495C1120.43 44.0334 1125.26 40.4737 1130.88 41.5637C1137.9 42.9261 1140.02 52.446 1136.95 54.355C1137.07 55.6397 1135.89 57.4251 1135.28 58.1572C1137.25 58.917 1140.57 61.7092 1138.12 66.7988C1135.68 71.8884 1131.73 72.126 1130.06 71.6086C1131.36 73.916 1132.07 79.1943 1124.53 81.8487C1116.99 84.5032 1113.85 80.4257 1113.22 78.0551C1112.96 81.0493 1109.59 86.9016 1098.18 86.3571C1088.59 85.9001 1086.16 83.3428 1086.09 81.5314C1085.46 84.0072 1083.52 87.7385 1079.27 88.1384C1074.45 88.5932 1073.08 84.1324 1073 81.8451C1071.97 83.832 1068.21 87.8045 1061.39 87.7989C1054.57 87.7934 1051.01 85.2676 1050.08 84.0053C1048.38 86.0554 1043.83 90.1012 1039.27 89.8834C1034.7 89.6656 1032.24 87.0362 1031.58 85.7487C1029.72 87.5438 1025.16 90.8888 1021.82 89.9074C1018.48 88.9261 1016.01 85.5959 1015.19 84.0534C1014.58 86.2701 1012.43 90.1445 1008.65 87.909C1004.87 85.6735 1004.99 82.0446 1005.52 80.5096C1002.97 85.0693 996.25 91.5077 989.721 80.7836Z" fill="#F8F7CB"/>
<path d="M5.35024 241.353C2.51442 242.835 -2.51551 243.518 -8.39826 244.073C-11.2513 243.937 -17.2978 242.644 -18.6558 238.56C-20.3931 233.335 -20.2923 230.763 -11.4722 226.56C-3.51667 222.769 3.23609 228.578 4.65566 226.42C6.07522 224.261 2.1518 223.011 5.69574 221.867C9.23969 220.723 9.31537 221.526 9.89276 219.042C10.4702 216.557 11.4736 209.983 17.2415 206.605C21.8558 203.902 26.5454 203.433 28.3134 203.537C28.4587 199.338 30.6694 189.788 38.3499 185.177C47.9504 179.413 53.103 178.117 66.3271 184.97C70.759 183.203 81.2646 180.728 87.8316 184.969C96.0404 190.27 97.7009 194.973 98.4814 198.949C99.1057 202.13 100.016 202.314 100.393 202.009C104.058 200.718 109.876 203.253 115.035 206.331C120.194 209.408 127.472 210.931 129.065 213.481C129.223 213.304 129.334 213.161 129.411 213.046C129.332 212.634 129.79 212.486 129.411 213.046C129.491 213.461 130.113 214.142 132.671 214.638C139.697 216.001 150.37 219.977 147.304 221.886C147.425 223.171 146.241 224.956 145.634 225.688C147.599 226.448 150.919 229.24 148.477 234.33C146.035 239.42 142.081 239.657 140.409 239.14C141.709 241.447 137.037 240.879 129.496 243.533C121.956 246.188 118.813 242.11 118.184 239.74C117.925 242.734 115.959 244.18 104.546 243.636C93.134 243.091 95.8364 249.82 96.6235 248.126C96.3016 250.451 89.13 242.478 84.3039 242.932C80.3591 243.304 82.2805 248.902 83.07 249.685C83.1862 249.615 83.2805 249.514 83.3516 249.376C83.3663 249.794 83.2464 249.859 83.07 249.685C81.5044 250.623 75.9674 245.816 69.6212 245.811C62.8041 245.805 61.3579 252.799 60.4275 251.537C58.7272 253.587 52.7761 248.046 48.2112 247.828C43.6463 247.61 42.5897 254.567 41.9274 253.28C40.0678 255.075 38.2314 246.015 34.8929 245.034C31.5545 244.052 26.3593 253.127 25.5377 251.585C24.9351 253.801 25.0587 246.36 21.2775 244.125C18.1394 242.269 16.1205 247.248 15.8283 248.118C15.8427 248.092 15.8571 248.067 15.8715 248.041C15.7811 248.302 15.7684 248.296 15.8283 248.118C13.3093 252.594 11.8423 252.016 5.35024 241.353Z" fill="white"/>
<path d="M5.72122 247.784C2.8854 249.266 -3.42016 250.67 -5.95584 244.429C-8.80892 244.293 -14.8547 243 -16.2133 238.916C-17.9116 233.812 -15.7016 227.124 -5.93586 227.419C3.82989 227.713 5.70312 230.372 7.12268 228.213C8.54225 226.054 7.79964 222.48 11.3436 221.336C14.8875 220.192 14.9632 220.995 15.5406 218.51C16.118 216.026 17.1215 209.452 22.8893 206.074C27.5036 203.371 32.1932 202.902 33.9612 203.005C34.1065 198.807 36.3173 189.257 43.9978 184.646C53.5983 178.881 58.7509 177.586 71.975 184.439C76.4069 182.672 86.9125 180.197 93.4795 184.437C101.688 189.738 103.349 194.442 104.129 198.418C104.754 201.599 105.664 201.783 106.041 201.477C109.706 200.187 118.326 198.376 123.485 201.453C128.644 204.531 133.12 210.4 134.713 212.949C136.425 211.033 141.257 207.474 146.877 208.564C153.904 209.926 156.018 219.446 152.952 221.355C153.073 222.64 151.889 224.425 151.281 225.157C153.246 225.917 156.566 228.709 154.124 233.799C151.683 238.888 147.729 239.126 146.057 238.609C147.356 240.916 148.07 246.194 140.53 248.849C132.99 251.503 129.846 247.426 129.217 245.055C128.958 248.049 125.588 253.902 114.175 253.357C104.594 252.9 102.156 250.343 102.085 248.531C101.459 251.007 99.5165 254.739 95.2731 255.138C90.4469 255.593 89.0798 251.132 88.9995 248.845C87.9695 250.832 84.2052 254.804 77.3881 254.799C70.571 254.793 67.0058 252.268 66.0754 251.005C64.3751 253.055 59.8333 257.101 55.2683 256.883C50.7034 256.666 48.2375 254.036 47.5752 252.749C45.7156 254.544 41.1619 257.889 37.8234 256.907C34.4849 255.926 32.0071 252.596 31.1855 251.053C30.5829 253.27 28.4324 257.144 24.6511 254.909C20.8698 252.673 20.9877 249.045 21.5193 247.51C18.9737 252.069 12.2502 258.508 5.72122 247.784Z" fill="#F8F7CB"/>
<path d="M369.435 120.307C364.949 122.652 356.991 123.733 347.684 124.61C343.17 124.394 333.604 122.349 331.455 115.888C328.706 107.621 328.866 103.552 342.82 96.9028C355.407 90.9057 366.09 100.096 368.336 96.6806C370.582 93.2653 364.375 91.2878 369.982 89.478C375.589 87.6682 375.708 88.9383 376.622 85.008C377.535 81.0777 379.123 70.6767 388.248 65.3318C395.549 61.0559 402.968 60.3141 405.765 60.4776C405.995 53.8352 409.493 38.7265 421.644 31.4306C436.833 22.3108 444.985 20.2611 465.907 31.1037C472.919 28.3072 489.54 24.3915 499.929 31.1009C512.916 39.4877 515.544 46.9296 516.778 53.2198C517.766 58.252 519.206 58.5433 519.802 58.06C525.601 56.0185 534.806 60.029 542.968 64.8981C551.13 69.7672 562.644 72.1761 565.164 76.2101C565.414 75.9305 565.591 75.7035 565.713 75.5229C565.588 74.871 566.311 74.6366 565.713 75.5229C565.839 76.1785 566.822 77.2563 570.87 78.0412C581.986 80.1968 598.872 86.4882 594.021 89.5084C594.212 91.5409 592.339 94.3656 591.378 95.5239C594.487 96.7261 599.739 101.144 595.876 109.196C592.013 117.248 585.757 117.624 583.113 116.805C585.168 120.456 577.777 119.557 565.847 123.757C553.918 127.956 548.945 121.505 547.949 117.755C547.54 122.492 544.429 124.78 526.374 123.919C508.318 123.057 512.594 133.702 513.839 131.022C513.33 134.701 501.984 122.086 494.348 122.806C488.107 123.394 491.147 132.25 492.396 133.488C492.58 133.378 492.729 133.218 492.841 133.001C492.865 133.661 492.675 133.765 492.396 133.488C489.919 134.974 481.159 127.367 471.118 127.359C460.333 127.35 458.045 138.415 456.573 136.418C453.883 139.662 444.468 130.896 437.246 130.551C430.023 130.207 428.352 141.214 427.304 139.177C424.362 142.017 421.457 127.683 416.175 126.13C410.893 124.578 402.674 138.935 401.374 136.494C400.42 140.001 400.616 128.228 394.634 124.692C389.669 121.756 386.475 129.633 386.013 131.01C386.035 130.969 386.058 130.929 386.081 130.888C385.938 131.301 385.918 131.292 386.013 131.01C382.027 138.092 379.706 137.177 369.435 120.307Z" fill="white"/>
<path d="M370.023 130.481C365.536 132.826 355.56 135.047 351.549 125.174C347.035 124.958 337.47 122.913 335.32 116.452C332.633 108.376 336.13 97.795 351.58 98.2611C367.031 98.7273 369.994 102.933 372.24 99.518C374.486 96.1026 373.311 90.4471 378.918 88.6373C384.525 86.8276 384.645 88.0977 385.558 84.1674C386.472 80.237 388.059 69.8361 397.185 64.4912C404.485 60.2153 411.904 59.4734 414.701 59.637C414.931 52.9946 418.429 37.8858 430.58 30.5899C445.769 21.4701 453.921 19.4205 474.843 30.2631C481.855 27.4665 498.476 23.5508 508.866 30.2602C521.853 38.647 524.48 46.0889 525.715 52.3792C526.702 57.4113 528.142 57.7027 528.738 57.2194C534.538 55.1779 548.176 52.3123 556.338 57.1813C564.5 62.0504 571.581 71.3355 574.101 75.3694C576.811 72.338 584.454 66.7062 593.347 68.4306C604.463 70.5861 607.808 85.6476 602.957 88.6678C603.149 90.7003 601.275 93.5249 600.314 94.6832C603.423 95.8854 608.675 100.303 604.812 108.355C600.949 116.408 594.694 116.783 592.049 115.965C594.105 119.615 595.234 127.966 583.304 132.166C571.375 136.365 566.402 129.914 565.407 126.164C564.997 130.901 559.664 140.16 541.609 139.299C526.451 138.575 522.592 134.529 522.481 131.664C521.491 135.581 518.417 141.484 511.703 142.117C504.068 142.836 501.905 135.779 501.778 132.16C500.148 135.304 494.193 141.588 483.407 141.58C472.622 141.571 466.982 137.575 465.509 135.578C462.819 138.821 455.634 145.222 448.412 144.877C441.189 144.533 437.288 140.373 436.24 138.336C433.298 141.176 426.094 146.468 420.812 144.915C415.53 143.363 411.61 138.094 410.31 135.654C409.357 139.161 405.954 145.29 399.972 141.754C393.99 138.217 394.176 132.476 395.017 130.047C390.99 137.261 380.352 147.447 370.023 130.481Z" fill="#F8F7CB"/>
<path d="M935.234 246.768C930.477 249.255 922.039 250.401 912.171 251.331C907.385 251.102 897.243 248.934 894.965 242.083C892.05 233.318 892.22 229.004 907.015 221.954C920.36 215.595 931.687 225.34 934.068 221.719C936.45 218.097 929.868 216.001 935.813 214.082C941.758 212.163 941.885 213.51 942.853 209.342C943.822 205.175 945.505 194.147 955.181 188.48C962.921 183.947 970.787 183.16 973.753 183.334C973.997 176.291 977.705 160.272 990.589 152.536C1006.69 142.867 1015.34 140.694 1037.52 152.19C1044.95 149.224 1062.58 145.073 1073.59 152.187C1087.36 161.079 1090.15 168.969 1091.46 175.638C1092.5 180.974 1094.03 181.283 1094.66 180.77C1100.81 178.606 1110.57 182.858 1119.22 188.021C1127.88 193.183 1140.09 195.737 1142.76 200.014C1143.02 199.718 1143.21 199.477 1143.34 199.286C1143.21 198.595 1143.97 198.346 1143.34 199.286C1143.47 199.981 1144.52 201.124 1148.81 201.956C1160.59 204.241 1178.5 210.912 1173.35 214.114C1173.56 216.269 1171.57 219.264 1170.55 220.492C1173.85 221.767 1179.42 226.45 1175.32 234.988C1171.23 243.526 1164.59 243.924 1161.79 243.056C1163.97 246.927 1156.13 245.973 1143.48 250.426C1130.83 254.879 1125.56 248.039 1124.51 244.063C1124.07 249.085 1120.77 251.511 1101.63 250.598C1082.49 249.685 1087.02 260.971 1088.34 258.129C1087.8 262.03 1075.77 248.655 1067.67 249.418C1061.06 250.042 1064.28 259.431 1065.6 260.744C1065.8 260.627 1065.96 260.458 1066.08 260.227C1066.1 260.928 1065.9 261.038 1065.6 260.744C1062.98 262.319 1053.69 254.255 1043.04 254.246C1031.61 254.237 1029.18 265.968 1027.62 263.851C1024.77 267.29 1014.79 257.996 1007.13 257.63C999.473 257.265 997.701 268.935 996.59 266.775C993.471 269.787 990.39 254.589 984.79 252.943C979.19 251.297 970.475 266.519 969.097 263.932C968.086 267.65 968.294 255.168 961.951 251.418C956.687 248.306 953.3 256.657 952.81 258.116C952.834 258.074 952.858 258.031 952.883 257.987C952.731 258.425 952.71 258.416 952.81 258.116C948.585 265.625 946.124 264.656 935.234 246.768Z" fill="white"/>
<path d="M935.855 257.556C931.098 260.042 920.521 262.397 916.267 251.929C911.481 251.701 901.34 249.532 899.061 242.681C896.212 234.119 899.919 222.9 916.301 223.394C932.682 223.889 935.824 228.348 938.206 224.727C940.587 221.106 939.341 215.11 945.286 213.191C951.231 211.272 951.358 212.619 952.326 208.451C953.295 204.284 954.978 193.256 964.653 187.589C972.394 183.056 980.26 182.269 983.226 182.443C983.47 175.4 987.178 159.381 1000.06 151.645C1016.17 141.976 1024.81 139.802 1046.99 151.298C1054.43 148.333 1072.05 144.182 1083.06 151.295C1096.83 160.188 1099.62 168.078 1100.93 174.747C1101.98 180.083 1103.5 180.392 1104.14 179.879C1110.28 177.715 1124.74 174.676 1133.4 179.839C1142.05 185.001 1149.56 194.846 1152.23 199.123C1155.1 195.909 1163.21 189.938 1172.64 191.766C1184.42 194.052 1187.97 210.021 1182.83 213.223C1183.03 215.378 1181.04 218.373 1180.02 219.601C1183.32 220.876 1188.89 225.559 1184.79 234.097C1180.7 242.634 1174.07 243.033 1171.26 242.165C1173.44 246.036 1174.64 254.89 1161.99 259.342C1149.34 263.795 1144.07 256.955 1143.01 252.979C1142.58 258.001 1136.92 267.818 1117.78 266.905C1101.71 266.138 1097.62 261.849 1097.5 258.81C1096.45 262.963 1093.19 269.222 1086.07 269.893C1077.98 270.656 1075.68 263.173 1075.55 259.336C1073.82 262.669 1067.51 269.333 1056.07 269.324C1044.64 269.314 1038.66 265.077 1037.1 262.96C1034.24 266.399 1026.63 273.185 1018.97 272.82C1011.31 272.455 1007.17 268.044 1006.06 265.884C1002.94 268.896 995.305 274.507 989.705 272.86C984.104 271.214 979.948 265.628 978.57 263.041C977.559 266.759 973.952 273.258 967.609 269.508C961.266 265.758 961.464 259.671 962.355 257.096C958.085 264.745 946.807 275.545 935.855 257.556Z" fill="#F8F7CB"/>
<path d="M280.168 404.164C260.743 420.212 251.327 402.432 249.047 391.536C247.74 404.09 240.202 425.408 220.502 410.257C200.802 395.106 212.168 374.394 220.313 365.931C211.827 373.524 192.341 383.826 182.286 364.29C169.717 339.87 218.214 343.425 211.103 342.451C205.415 341.672 199.434 338.75 197.154 337.386C181.671 328.408 188.354 309.231 202.354 302.987C213.554 297.992 222.493 312.397 225.563 320.224C227.16 310.316 234.173 292.614 249.453 301.07C264.732 309.527 258.559 328.102 253.563 336.333C261.754 327.351 280.956 315.054 292.238 337.72C303.521 360.387 280.877 371.024 268.145 373.51C280.246 377.041 299.593 388.117 280.168 404.164Z" fill="#A3CF2A"/>
<path d="M269.634 568.466L290.057 574.964L303.982 563.824L299.34 457.993L323.477 425.501V413.433L299.34 442.211L303.982 381.869L277.06 403.221V442.211H258.493L250.138 425.501L244.568 432.928L258.493 451.495L277.06 457.993L269.634 568.466Z" fill="#B07D56"/>
<path d="M178.579 432.568C170.732 408.625 190.722 406.351 201.698 408.207C190.489 402.407 173.395 387.604 194.693 374.797C215.991 361.99 216.717 366.553 229.25 373.051C229.25 358.265 229.579 358.232 251.145 356.034L251.441 356.004C278.764 353.22 257.746 397.071 261.249 390.806C264.051 385.795 268.955 381.294 271.057 379.67C285.069 368.533 300.482 381.758 301.183 397.071C301.743 409.321 285.069 412.384 276.662 412.384C285.303 417.488 299.221 430.48 285.77 441.617C272.318 452.754 257.279 440.225 251.441 432.568C256.812 443.473 261.249 465.839 236.028 468.067C210.806 470.294 207.42 459.615 209.755 446.854C202.048 456.831 186.425 456.512 178.579 432.568Z" fill="#93BA24"/>
<path d="M189.401 428.748C182.959 409.185 199.369 407.327 208.379 408.844C199.178 404.105 185.145 392.011 202.628 381.547C220.112 371.082 220.709 374.811 230.996 380.12C230.996 368.039 231.267 368.012 248.97 366.217L249.213 366.192C271.642 363.917 254.389 399.745 257.264 394.627C259.565 390.532 263.59 386.855 265.316 385.528C276.818 376.429 289.471 387.234 290.046 399.745C290.506 409.754 276.818 412.256 269.917 412.256C277.01 416.427 288.435 427.043 277.393 436.142C266.351 445.241 254.005 435.004 249.213 428.748C253.622 437.658 257.264 455.932 236.56 457.752C215.856 459.572 213.076 450.847 214.993 440.421C208.667 448.572 195.842 448.311 189.401 428.748Z" fill="#7DA314"/>
<path d="M253.774 360.156C245.927 336.212 265.918 333.939 276.894 335.795C265.684 329.995 248.59 315.192 269.888 302.385C291.186 289.578 306.319 307.721 311.223 318.394C307.253 307.722 304.777 285.82 326.636 283.592C353.959 280.808 332.941 324.659 336.444 318.394C339.247 313.383 344.151 308.882 346.253 307.258C360.264 296.121 375.677 309.346 376.378 324.659C376.939 336.909 360.264 339.971 351.857 339.971C360.498 345.076 374.416 358.068 360.965 369.205C347.514 380.342 332.474 367.813 326.636 360.156C332.007 371.061 336.444 393.427 311.223 395.654C286.002 397.882 284.367 372.917 286.702 360.156C278.996 370.133 261.621 384.1 253.774 360.156Z" fill="#93BA24"/>
<path d="M262.329 392.239C253.604 365.525 275.832 362.988 288.036 365.059C275.572 358.587 256.564 342.072 280.246 327.783C303.929 313.494 320.755 333.737 326.209 345.645C321.794 333.737 319.042 309.301 343.347 306.816C373.729 303.71 350.358 352.634 354.253 345.645C357.369 340.053 362.822 335.031 365.159 333.219C380.74 320.794 397.878 335.549 398.657 352.634C399.28 366.301 380.74 369.718 371.392 369.718C380.999 375.413 396.476 389.909 381.519 402.334C366.562 414.759 349.839 400.781 343.347 392.239C349.319 404.405 354.253 429.359 326.209 431.844C298.164 434.329 296.346 406.476 298.943 392.239C290.374 403.369 271.054 418.953 262.329 392.239Z" fill="#83A61E"/>
<path d="M290.909 433.496C283.062 409.552 303.052 407.279 314.028 409.135C302.819 403.334 285.725 388.532 307.023 375.725C328.321 362.918 343.454 381.061 348.358 391.734C344.388 381.061 341.912 359.159 363.771 356.932C391.094 354.148 370.076 397.998 373.579 391.734C376.381 386.722 381.286 382.221 383.387 380.597C397.399 369.461 412.812 382.686 413.513 397.998C414.073 410.249 397.399 413.311 388.992 413.311C397.633 418.416 411.551 431.408 398.1 442.545C384.648 453.681 369.609 441.153 363.771 433.496C369.142 444.401 373.579 466.767 348.358 468.994C323.136 471.222 321.502 446.257 323.837 433.496C316.13 443.473 298.755 457.44 290.909 433.496Z" fill="#A3CF2A"/>
<path d="M317.065 391.572C312.933 396.71 320.939 403.347 325.458 406.023C327.18 407.629 329.59 410.905 325.458 411.162C320.293 411.483 309.963 411.804 311.578 420.474C313.192 429.145 317.065 430.43 325.458 423.686C333.851 416.942 333.529 425.934 335.466 436.531C337.403 447.128 349.992 440.706 353.22 434.925C356.449 429.145 349.992 418.226 348.378 417.263C346.764 416.3 344.182 408.914 341.276 406.023C338.371 403.133 344.182 396.068 335.466 388.682C326.75 381.296 322.23 385.15 317.065 391.572Z" fill="#ABDE1F"/>
<path d="M308.159 374.908C329.325 363.768 343.126 380.014 347.149 389.297L348.077 390.69C340.706 384.191 321.659 373.98 310.015 383.263C298.371 392.547 311.972 406.627 320.227 412.506C312.182 412.095 296.647 415.047 298.875 430.145C301.103 445.243 318.371 435.507 326.726 428.752C327.499 439.556 333.131 461.088 349.47 460.78C365.809 460.472 366.18 443.013 364.323 434.322C365.251 436.642 366.902 441.957 367.108 443.605C367.572 447.318 369.429 458.459 364.323 462.172C359.218 465.886 354.111 471.919 338.794 468.67C325.078 465.761 321.155 448.247 323.476 434.322C319.763 439.427 310.572 446.854 303.517 446.854C294.698 446.854 286.343 429.68 290.52 417.612C293.862 407.957 306.766 407.4 313.265 408.792L310.015 406.936C300.577 401.057 286.993 386.048 308.159 374.908Z" fill="#597609" fill-opacity="0.7"/>
<path d="M202.329 307.139C184.876 320.135 193.2 330.502 199.544 334.06L204.185 336.845C202.174 334.525 197.78 328.676 196.294 323.849C194.809 319.021 202.793 308.84 206.97 304.354L202.329 307.139Z" fill="#ABDE1F"/>
<path d="M339.258 310.387C363.395 303.331 356.742 330.346 350.398 344.735C351.171 336.071 351.79 317.72 348.077 313.636C343.435 308.53 333.688 312.707 339.258 310.387Z" fill="#74980F"/>
<path d="M262.206 308.995C255.894 316.05 262.361 324.622 266.384 328.026L271.025 331.739C267.216 326.633 262.719 314.287 275.203 305.746C287.687 297.205 305.779 312.708 313.265 321.528C310.635 313.637 308.809 296.462 322.548 290.892C336.288 285.322 339.413 298.474 339.259 305.746C339.723 303.734 340.651 298.876 340.651 295.534C340.651 291.356 338.794 288.107 336.938 286.251C335.081 284.394 328.118 280.217 315.586 288.107C305.56 294.42 307.695 309.614 310.016 316.422C300.732 298.783 288.664 297.855 283.094 297.855C277.524 297.855 270.097 300.176 262.206 308.995Z" fill="#7DA314"/>
<path d="M299.34 457.53L305.374 449.639L291.449 458.458L290.057 463.564L300.268 480.274L299.34 457.53Z" fill="#855633"/>
<path d="M292.099 542.48C291.356 538.395 293.027 531.185 293.956 528.091C295.813 523.449 297.205 531.34 296.741 537.374C296.277 543.409 297.669 542.48 297.205 549.907C296.741 557.334 293.027 558.262 293.956 553.156C294.884 548.05 293.027 547.586 292.099 542.48Z" fill="#855633"/>
<path d="M284.951 534.582C283.094 540.524 275.204 545.413 271.49 547.115L277.06 460.779C277.679 462.017 280.124 465.235 284.951 468.206C290.985 471.919 290.985 483.988 289.129 486.773C287.272 489.558 289.593 495.592 289.129 503.483C288.665 511.374 293.306 512.302 290.985 517.408C288.665 522.514 287.272 527.156 284.951 534.582Z" fill="#9D5823"/>
<path d="M271.49 541.08L274.739 491.414L276.132 473.775C278.917 477.179 284.58 484.173 284.951 484.915C285.415 485.844 279.381 503.482 279.381 508.124C279.381 512.766 284.023 517.872 283.094 522.049C282.352 525.391 275.049 536.129 271.49 541.08Z" fill="#855633"/>
<path d="M88.168 428.164C68.7427 444.212 59.3267 426.432 57.0469 415.536C55.7402 428.09 48.2016 449.408 28.5019 434.257C8.8022 419.106 20.1676 398.394 28.3127 389.931C19.8266 397.524 0.340774 407.826 -9.71412 388.29C-22.2827 363.87 26.2144 367.425 19.1034 366.451C13.4147 365.672 7.43382 362.75 5.15449 361.386C-10.3294 352.408 -3.64571 333.231 10.354 326.987C21.5538 321.992 30.4933 336.397 33.563 344.224C35.1598 334.316 42.1733 316.614 57.4526 325.07C72.7318 333.527 66.5595 352.102 61.5634 360.333C69.7539 351.351 88.9557 339.054 100.238 361.72C111.521 384.387 88.8771 395.024 76.1447 397.51C88.2464 401.041 107.593 412.117 88.168 428.164Z" fill="#A3CF2A"/>
<path d="M77.6336 592.466L98.0571 598.964L111.982 587.824L107.34 481.993L131.477 449.501V437.433L107.34 466.211L111.982 405.869L85.0603 427.221V466.211H66.4935L58.1384 449.501L52.5684 456.928L66.4935 475.495L85.0603 481.993L77.6336 592.466Z" fill="#B07D56"/>
<path d="M-13.4212 456.568C-21.2679 432.625 -1.27764 430.351 9.69831 432.207C-1.51107 426.407 -18.6053 411.604 2.69267 398.797C23.9907 385.99 24.7175 390.553 37.2501 397.051C37.2501 382.265 37.5792 382.232 59.1446 380.034L59.4407 380.004C86.7638 377.22 65.746 421.071 69.249 414.806C72.0513 409.795 76.9555 405.294 79.0573 403.67C93.0691 392.533 108.482 405.758 109.183 421.071C109.743 433.321 93.0691 436.384 84.662 436.384C93.3027 441.488 107.221 454.48 93.7697 465.617C80.3183 476.754 65.2789 464.225 59.4407 456.568C64.8119 467.473 69.249 489.839 44.0276 492.067C18.8063 494.294 15.4196 483.615 17.7549 470.854C10.0483 480.831 -5.57461 480.512 -13.4212 456.568Z" fill="#93BA24"/>
<path d="M-2.59941 452.748C-9.04068 433.185 7.36922 431.327 16.3793 432.844C7.17759 428.105 -6.85501 416.011 10.6284 405.547C28.1119 395.082 28.7085 398.811 38.9965 404.12C38.9965 392.039 39.2666 392.012 56.9696 390.217L57.2126 390.192C79.642 387.917 62.3886 423.745 65.2642 418.627C67.5646 414.532 71.5904 410.855 73.3158 409.528C84.818 400.429 97.4705 411.234 98.0456 423.745C98.5057 433.754 84.818 436.256 77.9167 436.256C85.0098 440.427 96.4353 451.043 85.3932 460.142C74.351 469.241 62.0052 459.004 57.2126 452.748C61.6218 461.658 65.2642 479.932 44.5601 481.752C23.856 483.572 21.0759 474.847 22.993 464.421C16.6666 472.572 3.84186 472.311 -2.59941 452.748Z" fill="#7DA314"/>
<path d="M61.7741 384.156C53.9274 360.212 73.9177 357.939 84.8936 359.795C73.6842 353.995 56.59 339.192 77.888 326.385C99.186 313.578 114.319 331.721 119.223 342.394C115.253 331.722 112.777 309.82 134.636 307.592C161.959 304.808 140.941 348.659 144.444 342.394C147.247 337.383 152.151 332.882 154.253 331.258C168.264 320.121 183.677 333.346 184.378 348.659C184.939 360.909 168.264 363.971 159.857 363.971C168.498 369.076 182.416 382.068 168.965 393.205C155.514 404.342 140.474 391.813 134.636 384.156C140.007 395.061 144.444 417.427 119.223 419.654C94.0016 421.882 92.3669 396.917 94.7022 384.156C86.9956 394.133 69.6207 408.1 61.7741 384.156Z" fill="#93BA24"/>
<path d="M70.3288 416.239C61.6038 389.525 83.8317 386.988 96.0363 389.059C83.5722 382.587 64.5644 366.072 88.2465 351.783C111.929 337.494 128.755 357.737 134.209 369.645C129.794 357.737 127.042 333.301 151.347 330.816C181.729 327.71 158.358 376.634 162.253 369.645C165.369 364.053 170.822 359.031 173.159 357.219C188.74 344.794 205.878 359.549 206.657 376.634C207.28 390.301 188.74 393.718 179.392 393.718C188.999 399.413 204.476 413.909 189.519 426.334C174.562 438.759 157.839 424.781 151.347 416.239C157.319 428.405 162.253 453.359 134.209 455.844C106.164 458.329 104.346 430.476 106.943 416.239C98.3736 427.369 79.0538 442.953 70.3288 416.239Z" fill="#83A61E"/>
<path d="M98.9088 457.496C91.0622 433.552 111.052 431.279 122.028 433.135C110.819 427.334 93.7247 412.532 115.023 399.725C136.321 386.918 151.454 405.061 156.358 415.734C152.388 405.061 149.912 383.159 171.771 380.932C199.094 378.148 178.076 421.998 181.579 415.734C184.381 410.722 189.286 406.221 191.387 404.597C205.399 393.461 220.812 406.686 221.513 421.998C222.073 434.249 205.399 437.311 196.992 437.311C205.633 442.416 219.551 455.408 206.1 466.545C192.648 477.681 177.609 465.153 171.771 457.496C177.142 468.401 181.579 490.767 156.358 492.994C131.136 495.222 129.502 470.257 131.837 457.496C124.13 467.473 106.755 481.44 98.9088 457.496Z" fill="#A3CF2A"/>
<path d="M125.065 415.572C120.933 420.71 128.939 427.347 133.458 430.023C135.18 431.629 137.59 434.905 133.458 435.162C128.293 435.483 117.963 435.804 119.578 444.474C121.192 453.145 125.065 454.43 133.458 447.686C141.851 440.942 141.529 449.934 143.466 460.531C145.403 471.128 157.992 464.706 161.22 458.925C164.449 453.145 157.992 442.226 156.378 441.263C154.764 440.3 152.182 432.914 149.276 430.023C146.371 427.133 152.182 420.068 143.466 412.682C134.75 405.296 130.23 409.15 125.065 415.572Z" fill="#ABDE1F"/>
<path d="M116.159 398.908C137.325 387.768 151.126 404.014 155.149 413.297L156.077 414.69C148.706 408.191 129.659 397.98 118.015 407.263C106.371 416.547 119.972 430.627 128.227 436.506C120.182 436.095 104.647 439.047 106.875 454.145C109.103 469.243 126.371 459.507 134.726 452.752C135.499 463.556 141.131 485.088 157.47 484.78C173.809 484.472 174.18 467.013 172.323 458.322C173.251 460.642 174.902 465.957 175.108 467.605C175.572 471.318 177.429 482.459 172.323 486.172C167.218 489.886 162.111 495.919 146.794 492.67C133.078 489.761 129.155 472.247 131.476 458.322C127.763 463.427 118.572 470.854 111.517 470.854C102.698 470.854 94.3429 453.68 98.5205 441.612C101.862 431.957 114.766 431.4 121.265 432.792L118.015 430.936C108.577 425.057 94.9926 410.048 116.159 398.908Z" fill="#597609" fill-opacity="0.7"/>
<path d="M10.3286 331.139C-7.12424 344.135 1.19988 354.502 7.54355 358.06L12.1852 360.845C10.1738 358.525 5.77966 352.676 4.29432 347.849C2.80897 343.021 10.7927 332.84 14.9702 328.354L10.3286 331.139Z" fill="#ABDE1F"/>
<path d="M147.258 334.387C171.395 327.331 164.742 354.346 158.398 368.735C159.171 360.071 159.79 341.72 156.077 337.636C151.435 332.53 141.688 336.707 147.258 334.387Z" fill="#74980F"/>
<path d="M70.2063 332.995C63.8936 340.05 70.3611 348.622 74.3839 352.026L79.0255 355.739C75.2165 350.633 70.7193 338.287 83.203 329.746C95.6867 321.205 113.779 336.708 121.265 345.528C118.635 337.637 116.809 320.462 130.548 314.892C144.288 309.322 147.413 322.474 147.259 329.746C147.723 327.734 148.651 322.876 148.651 319.534C148.651 315.356 146.794 312.107 144.938 310.251C143.081 308.394 136.118 304.217 123.586 312.107C113.56 318.42 115.695 333.614 118.016 340.422C108.732 322.783 96.664 321.855 91.0939 321.855C85.5239 321.855 78.0972 324.176 70.2063 332.995Z" fill="#7DA314"/>
<path d="M107.34 481.53L113.374 473.639L99.4492 482.458L98.0566 487.564L108.268 504.274L107.34 481.53Z" fill="#855633"/>
<path d="M100.099 566.48C99.3565 562.395 101.027 555.185 101.956 552.091C103.813 547.449 105.205 555.34 104.741 561.374C104.277 567.409 105.669 566.48 105.205 573.907C104.741 581.334 101.027 582.262 101.956 577.156C102.884 572.05 101.027 571.586 100.099 566.48Z" fill="#855633"/>
<path d="M92.9512 558.582C91.0945 564.524 83.2036 569.413 79.4902 571.115L85.0603 484.779C85.6792 486.017 88.1238 489.235 92.9512 492.206C98.9854 495.919 98.9854 507.988 97.1287 510.773C95.272 513.558 97.5929 519.592 97.1287 527.483C96.6645 535.374 101.306 536.302 98.9854 541.408C96.6645 546.514 95.272 551.156 92.9512 558.582Z" fill="#9D5823"/>
<path d="M79.4902 565.08L82.7394 515.414L84.1319 497.775C86.917 501.179 92.5798 508.173 92.9512 508.915C93.4153 509.844 87.3811 527.482 87.3811 532.124C87.3811 536.766 92.0228 541.872 91.0945 546.049C90.3518 549.391 83.0489 560.129 79.4902 565.08Z" fill="#855633"/>
<path d="M224.168 482.164C204.743 498.212 195.327 480.432 193.047 469.536C191.74 482.09 184.202 503.408 164.502 488.257C144.802 473.106 156.168 452.394 164.313 443.931C155.827 451.524 136.341 461.826 126.286 442.29C113.717 417.87 162.214 421.425 155.103 420.451C149.415 419.672 143.434 416.75 141.154 415.386C125.671 406.408 132.354 387.231 146.354 380.987C157.554 375.992 166.493 390.397 169.563 398.224C171.16 388.316 178.173 370.614 193.453 379.07C208.732 387.527 202.559 406.102 197.563 414.333C205.754 405.351 224.956 393.054 236.238 415.72C247.521 438.387 224.877 449.024 212.145 451.51C224.246 455.041 243.593 466.117 224.168 482.164Z" fill="#A3CF2A"/>
<path d="M213.634 646.466L234.057 652.964L247.982 641.824L243.34 535.993L267.477 503.501V491.433L243.34 520.211L247.982 459.869L221.06 481.221V520.211H202.493L194.138 503.501L188.568 510.928L202.493 529.495L221.06 535.993L213.634 646.466Z" fill="#B07D56"/>
<path d="M122.579 510.568C114.732 486.625 134.722 484.351 145.698 486.207C134.489 480.407 117.395 465.604 138.693 452.797C159.991 439.99 160.717 444.553 173.25 451.051C173.25 436.265 173.579 436.232 195.145 434.034L195.441 434.004C222.764 431.22 201.746 475.071 205.249 468.806C208.051 463.795 212.955 459.294 215.057 457.67C229.069 446.533 244.482 459.758 245.183 475.071C245.743 487.321 229.069 490.384 220.662 490.384C229.303 495.488 243.221 508.48 229.77 519.617C216.318 530.754 201.279 518.225 195.441 510.568C200.812 521.473 205.249 543.839 180.028 546.067C154.806 548.294 151.42 537.615 153.755 524.854C146.048 534.831 130.425 534.512 122.579 510.568Z" fill="#93BA24"/>
<path d="M133.401 506.748C126.959 487.185 143.369 485.327 152.379 486.844C143.178 482.105 129.145 470.011 146.628 459.547C164.112 449.082 164.709 452.811 174.996 458.12C174.996 446.039 175.267 446.012 192.97 444.217L193.213 444.192C215.642 441.917 198.389 477.745 201.264 472.627C203.565 468.532 207.59 464.855 209.316 463.528C220.818 454.429 233.471 465.234 234.046 477.745C234.506 487.754 220.818 490.256 213.917 490.256C221.01 494.427 232.435 505.043 221.393 514.142C210.351 523.241 198.005 513.004 193.213 506.748C197.622 515.658 201.264 533.932 180.56 535.752C159.856 537.572 157.076 528.847 158.993 518.421C152.667 526.572 139.842 526.311 133.401 506.748Z" fill="#7DA314"/>
<path d="M197.774 438.156C189.927 414.212 209.918 411.939 220.894 413.795C209.684 407.995 192.59 393.192 213.888 380.385C235.186 367.578 250.319 385.721 255.223 396.394C251.253 385.722 248.777 363.82 270.636 361.592C297.959 358.808 276.941 402.659 280.444 396.394C283.247 391.383 288.151 386.882 290.253 385.258C304.264 374.121 319.677 387.346 320.378 402.659C320.939 414.909 304.264 417.971 295.857 417.971C304.498 423.076 318.416 436.068 304.965 447.205C291.514 458.342 276.474 445.813 270.636 438.156C276.007 449.061 280.444 471.427 255.223 473.654C230.002 475.882 228.367 450.917 230.702 438.156C222.996 448.133 205.621 462.1 197.774 438.156Z" fill="#93BA24"/>
<path d="M206.329 470.239C197.604 443.525 219.832 440.988 232.036 443.059C219.572 436.587 200.564 420.072 224.246 405.783C247.929 391.494 264.755 411.737 270.209 423.645C265.794 411.737 263.042 387.301 287.347 384.816C317.729 381.71 294.358 430.634 298.253 423.645C301.369 418.053 306.822 413.031 309.159 411.219C324.74 398.794 341.878 413.549 342.657 430.634C343.28 444.301 324.74 447.718 315.392 447.718C324.999 453.413 340.476 467.909 325.519 480.334C310.562 492.759 293.839 478.781 287.347 470.239C293.319 482.405 298.253 507.359 270.209 509.844C242.164 512.329 240.346 484.476 242.943 470.239C234.374 481.369 215.054 496.953 206.329 470.239Z" fill="#83A61E"/>
<path d="M234.909 511.496C227.062 487.552 247.052 485.279 258.028 487.135C246.819 481.334 229.725 466.532 251.023 453.725C272.321 440.918 287.454 459.061 292.358 469.734C288.388 459.061 285.912 437.159 307.771 434.932C335.094 432.148 314.076 475.998 317.579 469.734C320.381 464.722 325.286 460.221 327.387 458.597C341.399 447.461 356.812 460.686 357.513 475.998C358.073 488.249 341.399 491.311 332.992 491.311C341.633 496.416 355.551 509.408 342.1 520.545C328.648 531.681 313.609 519.153 307.771 511.496C313.142 522.401 317.579 544.767 292.358 546.994C267.136 549.222 265.502 524.257 267.837 511.496C260.13 521.473 242.755 535.44 234.909 511.496Z" fill="#95C01D"/>
<path d="M261.065 469.572C256.933 474.71 264.939 481.347 269.458 484.023C271.18 485.629 273.59 488.905 269.458 489.162C264.293 489.483 253.963 489.804 255.578 498.474C257.192 507.145 261.065 508.43 269.458 501.686C277.851 494.942 277.529 503.934 279.466 514.531C281.403 525.128 293.992 518.706 297.22 512.925C300.449 507.145 293.992 496.226 292.378 495.263C290.764 494.3 288.182 486.914 285.276 484.023C282.371 481.133 288.182 474.068 279.466 466.682C270.75 459.296 266.23 463.15 261.065 469.572Z" fill="#ABDE1F"/>
<path d="M252.159 452.908C273.325 441.768 287.126 458.014 291.149 467.297L292.077 468.69C284.706 462.191 265.659 451.98 254.015 461.263C242.371 470.547 255.972 484.627 264.227 490.506C256.182 490.095 240.647 493.047 242.875 508.145C245.103 523.243 262.371 513.507 270.726 506.752C271.499 517.556 277.131 539.088 293.47 538.78C309.809 538.472 310.18 521.013 308.323 512.322C309.251 514.642 310.902 519.957 311.108 521.605C311.572 525.318 313.429 536.459 308.323 540.172C303.218 543.886 298.111 549.919 282.794 546.67C269.078 543.761 265.155 526.247 267.476 512.322C263.763 517.427 254.572 524.854 247.517 524.854C238.698 524.854 230.343 507.68 234.52 495.612C237.862 485.957 250.766 485.4 257.265 486.792L254.015 484.936C244.577 479.057 230.993 464.048 252.159 452.908Z" fill="#597609" fill-opacity="0.7"/>
<path d="M146.329 385.139C128.876 398.135 137.2 408.502 143.544 412.06L148.185 414.845C146.174 412.525 141.78 406.676 140.294 401.849C138.809 397.021 146.793 386.84 150.97 382.354L146.329 385.139Z" fill="#ABDE1F"/>
<path d="M283.258 388.387C307.395 381.331 300.742 408.346 294.398 422.735C295.171 414.071 295.79 395.72 292.077 391.636C287.435 386.53 277.688 390.707 283.258 388.387Z" fill="#74980F"/>
<path d="M206.206 386.995C199.894 394.05 206.361 402.622 210.384 406.026L215.025 409.739C211.216 404.633 206.719 392.287 219.203 383.746C231.687 375.205 249.779 390.708 257.265 399.528C254.635 391.637 252.809 374.462 266.548 368.892C280.288 363.322 283.413 376.474 283.259 383.746C283.723 381.734 284.651 376.876 284.651 373.534C284.651 369.356 282.794 366.107 280.938 364.251C279.081 362.394 272.118 358.217 259.586 366.107C249.56 372.42 251.695 387.614 254.016 394.422C244.732 376.783 232.664 375.855 227.094 375.855C221.524 375.855 214.097 378.176 206.206 386.995Z" fill="#7DA314"/>
<path d="M243.34 535.53L249.374 527.639L235.449 536.458L234.057 541.564L244.268 558.274L243.34 535.53Z" fill="#855633"/>
<path d="M236.099 620.48C235.356 616.395 237.027 609.185 237.956 606.091C239.813 601.449 241.205 609.34 240.741 615.374C240.277 621.409 241.669 620.48 241.205 627.907C240.741 635.334 237.027 636.262 237.956 631.156C238.884 626.05 237.027 625.586 236.099 620.48Z" fill="#855633"/>
<path d="M228.951 612.582C227.094 618.524 219.204 623.413 215.49 625.115L221.06 538.779C221.679 540.017 224.124 543.235 228.951 546.206C234.985 549.919 234.985 561.988 233.129 564.773C231.272 567.558 233.593 573.592 233.129 581.483C232.665 589.374 237.306 590.302 234.985 595.408C232.665 600.514 231.272 605.156 228.951 612.582Z" fill="#9D5823"/>
<path d="M215.49 619.08L218.739 569.414L220.132 551.775C222.917 555.179 228.58 562.173 228.951 562.915C229.415 563.844 223.381 581.482 223.381 586.124C223.381 590.766 228.023 595.872 227.094 600.049C226.352 603.391 219.049 614.129 215.49 619.08Z" fill="#855633"/>
<g clip-path="url(#clip1)">
<path style="mix-blend-mode:multiply" opacity="0.22" d="M686.367 589.931C689.369 590.041 692.372 589.931 695.375 589.931L720.507 589.655C721.809 589.655 723.482 589.393 723.578 588.497C723.674 587.601 722.33 587.118 721.206 586.939C717.136 586.172 713.007 585.762 708.866 585.712C702.733 585.464 696.6 585.257 690.466 585.091C686.678 584.82 682.871 585.047 679.141 585.767C677.208 586.236 674.342 588.276 677.441 589.283C678.606 589.471 679.785 589.554 680.965 589.531C682.72 589.724 684.529 589.862 686.367 589.931Z" fill="url(#paint1_linear)"/>
<path d="M712.857 534.395C714.005 535.049 715.266 535.48 716.573 535.663C718.081 536.077 719.603 536.422 721.139 536.739C724.125 537.45 727.158 537.943 730.215 538.214H730.421C730.498 538.228 730.577 538.228 730.654 538.214C732.217 538.2 734.959 537.649 735.521 536.27C735.889 534.921 736.087 533.532 736.111 532.134C736.303 530.479 736.44 528.838 736.563 527.184C736.796 523.875 736.947 520.538 737.002 517.229C737 517.184 736.99 517.14 736.971 517.098C736.952 517.057 736.925 517.02 736.892 516.99C736.859 516.959 736.82 516.935 736.778 516.919C736.736 516.904 736.691 516.897 736.646 516.898H736.33C736.302 516.841 736.253 516.796 736.193 516.774C733.451 516.057 730.709 515.396 727.967 514.761C728.048 514.544 728.048 514.304 727.967 514.086C727.863 513.491 727.618 512.929 727.253 512.449C726.888 511.969 726.413 511.585 725.869 511.328C724.141 510.625 723.209 511.328 722.016 512.459C721.893 512.583 721.207 513.162 721.276 513.272L718.739 512.721C717.41 512.27 716.026 512.001 714.626 511.921C712.418 512.114 713.076 516.057 713.022 517.353C712.885 520.69 712.72 524.027 712.597 527.377C712.528 529.045 712.459 530.714 712.405 532.382C712.336 533.14 712.213 533.871 712.857 534.395ZM726.568 514.472L724.429 513.989C723.963 513.879 722.935 513.603 722.468 513.507C722.792 513.098 723.213 512.778 723.692 512.575C724.172 512.373 724.694 512.295 725.211 512.349C725.841 512.486 726.321 513.838 726.609 514.472H726.568Z" fill="#494949"/>
<path d="M683.555 549.477C684.227 539.192 682.855 528.713 682.855 518.345C682.405 514.663 683.182 510.934 685.063 507.743C685.192 507.516 685.376 507.327 685.598 507.191C686.547 506.805 687.609 506.805 688.559 507.191C698.148 509.736 708.29 509.177 717.544 505.592C718.981 507.191 719.887 509.2 720.136 511.341C720.904 514.514 721.436 517.74 721.726 520.992C721.726 521.682 721.726 522.371 721.726 523.074C721.387 527.148 720.638 531.176 719.491 535.097C718.824 537.663 718.424 540.293 718.298 542.942C718.298 545.093 718.723 547.078 717.983 549.188C716.173 554.386 716.173 560.039 715.405 565.347C714.583 571.041 713.774 576.722 713.102 582.43L713.02 583.147C712.581 583.147 705.904 584.236 705.904 583.147L704.299 550.057C704.08 545.396 704.587 529.692 702.791 525.239L700.68 525.308C696.566 539.936 691.781 565.554 687.709 580.182C687.482 581.584 686.725 582.843 685.598 583.698C684.227 584.525 681.882 584.291 681.484 583.009C682.65 571.827 682.855 560.659 683.555 549.477Z" fill="#333333"/>
<path d="M721.246 517.216C721.246 517.216 717.421 517.133 716.036 515.258C714.651 513.383 711.375 507.551 711.375 507.551L710.854 507.675C710.854 507.675 713.116 511.921 713.417 512.39C713.94 514.025 714.999 515.433 716.422 516.382C717.844 517.332 719.546 517.767 721.246 517.616V517.216Z" fill="#636363"/>
<path d="M692.523 508.089C692.523 508.089 690.645 518.167 682.926 518.995V518.567C682.926 518.567 689.781 518.843 691.92 507.979L692.523 508.089Z" fill="#636363"/>
<path d="M707.236 583.271C709.217 583.115 711.21 583.194 713.173 583.506C714.696 584.578 716.345 585.458 718.081 586.125C718.582 586.288 719.048 586.545 719.452 586.884C719.637 587.057 719.755 587.29 719.785 587.543C719.816 587.795 719.756 588.05 719.617 588.263C719.428 588.421 719.209 588.538 718.973 588.607C718.737 588.675 718.489 588.694 718.246 588.662C714.571 588.696 710.9 588.401 707.277 587.78C707.062 587.76 706.857 587.679 706.687 587.546C706.568 587.425 706.487 587.271 706.454 587.104C706.3 586.447 706.289 585.763 706.424 585.101C706.559 584.439 706.836 583.815 707.236 583.271Z" fill="#7A4135"/>
<path d="M681.953 582.086C683.72 582.279 685.459 582.677 687.135 583.272C688.28 584.478 689.575 585.53 690.988 586.401C691.413 586.624 691.787 586.934 692.085 587.311C692.228 587.5 692.298 587.734 692.28 587.971C692.263 588.207 692.159 588.429 691.989 588.594C691.803 588.699 691.598 588.765 691.385 588.787C691.173 588.808 690.958 588.784 690.755 588.718C687.526 588.141 684.355 587.274 681.281 586.126C681.093 586.077 680.926 585.971 680.801 585.822C680.719 585.695 680.676 585.546 680.678 585.395C680.641 584.784 680.736 584.172 680.956 583.601C681.176 583.03 681.516 582.513 681.953 582.086Z" fill="#7A4135"/>
<path d="M693.634 459.888C693.332 459.336 692.907 458.826 692.578 458.274C692.249 457.723 691.207 456.317 690.617 457.171C690.464 457.623 690.488 458.116 690.686 458.55C690.855 458.99 691.134 459.38 691.495 459.681C691.49 459.704 691.49 459.727 691.495 459.75C691.851 460.232 692.756 461.721 693.565 460.894C693.671 460.75 693.734 460.579 693.746 460.401C693.758 460.223 693.719 460.044 693.634 459.888Z" fill="#A89288"/>
<path d="M695.402 458.879C694.264 457.114 693.564 455.046 692.358 453.364C692.321 453.309 692.268 453.267 692.207 453.242C692.146 453.218 692.079 453.212 692.015 453.226C691.247 453.364 690.287 453.226 690.041 454.136C689.998 454.873 690.206 455.602 690.63 456.204C690.725 456.453 690.849 456.689 691 456.908C691.658 458.038 694.264 464.367 696.361 461.595C697.019 460.699 695.881 459.624 695.402 458.879Z" fill="#191919"/>
<path d="M692.454 453.888C692.454 453.888 691.371 453.695 691.357 454.012C691.275 455.06 694.716 461.058 694.716 461.058C694.716 461.058 694.716 461.154 694.977 461.058C695.366 460.938 695.746 460.79 696.115 460.617C696.115 460.617 694.867 458.231 694.744 457.942C694.62 457.652 692.618 453.93 692.618 453.93C692.618 453.93 692.536 453.916 692.454 453.888Z" fill="white"/>
<path d="M695.552 461.127C695.519 461.167 695.483 461.204 695.443 461.237C695.42 461.257 695.401 461.281 695.388 461.308C695.376 461.336 695.369 461.366 695.369 461.396C695.369 461.426 695.376 461.456 695.388 461.483C695.401 461.511 695.42 461.535 695.443 461.554C695.46 461.58 695.484 461.601 695.511 461.615C695.539 461.63 695.569 461.637 695.6 461.637C695.631 461.637 695.662 461.63 695.689 461.615C695.717 461.601 695.74 461.58 695.758 461.554C696.142 461.416 695.84 460.837 695.552 461.127Z" fill="white"/>
<path d="M698.939 462.231C699.913 462.68 700.957 462.955 702.024 463.045C702.978 462.969 703.898 462.651 704.697 462.121C706.51 461.339 708.048 460.028 709.112 458.357C709.565 457.296 709.816 456.16 709.853 455.007C710.113 452.111 710.237 449.202 710.209 446.307C710.32 444.811 710.006 443.315 709.304 441.991C707.933 439.896 705.068 439.537 702.572 439.372C700.123 439.003 697.62 439.313 695.333 440.268C693.043 441.495 693.578 443.301 693.4 445.549C693.18 448.306 693.043 451.174 693.029 454C692.872 455.597 693.147 457.208 693.825 458.661C695.179 460.292 696.946 461.526 698.939 462.231Z" fill="#A89288"/>
<path d="M704.3 460.438C703.948 460.642 703.533 460.711 703.135 460.631C702.764 460.507 702.531 460.148 702.23 459.886C701.928 459.624 701.421 459.486 701.174 459.79C701.259 459.944 701.281 460.125 701.235 460.295C701.188 460.465 701.078 460.61 700.927 460.7C700.607 460.852 700.25 460.909 699.899 460.865C699.254 460.865 698.404 460.548 698.432 459.9H697.938C697.837 460.182 697.812 460.486 697.865 460.782C697.918 461.077 698.047 461.353 698.24 461.582C698.633 462.038 699.154 462.365 699.734 462.52C700.64 462.812 701.605 462.87 702.539 462.689C703.474 462.509 704.348 462.095 705.081 461.486C705.561 461.072 706 460.396 705.698 459.845L704.3 460.438Z" fill="#D7C68E"/>
<path d="M691.179 444.39C690.974 446.899 690.439 451.352 692.55 453.186C694.689 450.181 693.03 445.369 695.814 442.597C696.794 441.765 698.046 441.326 699.329 441.364C700.611 441.402 701.835 441.915 702.765 442.804C703.546 443.549 704.205 444.541 705.26 444.748C705.603 444.748 705.96 444.748 706.316 444.831C709.744 445.258 709.264 451.215 709.662 453.614C709.744 454.096 709.991 454.703 710.471 454.675C710.95 454.648 711.129 454.138 711.238 453.71C711.905 450.482 712.044 447.166 711.65 443.893C711.586 443.004 711.373 442.132 711.019 441.315C709.319 437.62 703.08 436.572 699.433 437.138C695.786 437.703 691.536 440.171 691.179 444.39Z" fill="#D7C68E"/>
<path d="M695.195 466.851C693.704 468.518 692.433 470.372 691.411 472.366C690.084 474.47 688.946 476.69 688.011 478.997C687.654 479.976 687.271 481.755 688.669 482.251C690.068 482.748 691.068 480.873 691.644 480.087C694.688 475.95 696.909 472.255 699.542 467.843C699.71 467.592 699.861 467.329 699.994 467.057C700.032 466.854 700.028 466.644 699.984 466.442C699.94 466.239 699.856 466.047 699.737 465.878C699.618 465.708 699.467 465.564 699.292 465.455C699.118 465.345 698.923 465.271 698.719 465.237C697.403 464.934 696.059 466.023 695.195 466.851Z" fill="#333333"/>
<path d="M723.989 514.885C723.995 514.872 723.998 514.858 723.998 514.844C723.998 514.829 723.995 514.815 723.989 514.802C722.207 505.647 723.4 496.244 722.344 487.034C721.878 482.518 720.62 478.121 718.628 474.046C717.106 470.986 715.886 466.808 712.445 465.36C708.235 463.554 703.176 463.651 698.734 464.064C692.591 464.574 689.301 471.344 686.97 476.418C685.297 479.975 684.721 484.18 683.857 488.013C682.545 493.021 681.886 498.18 681.897 503.359C681.897 504.641 680.169 515.96 680.388 515.96C683.473 515.96 686.531 516.153 689.657 516.264C692.495 516.36 695.374 516.346 698.213 516.264C708.331 516.071 714.213 517.119 723.688 515.202C723.989 515.175 724.099 515.009 723.989 514.885Z" fill="#F3F3F5"/>
<path d="M722.961 486.482C722.517 482.849 721.647 479.281 720.37 475.852C718.941 472.643 717.244 469.562 715.297 466.642C715.297 466.518 714.447 466.353 714.268 466.325C711.65 465.953 710.882 468.379 711.156 470.654C711.622 474.625 714.872 478.238 716.64 481.753C718.752 485.89 719.725 490.743 720.946 495.238C722.246 499.832 723.317 504.489 724.154 509.191C724.154 509.301 724.318 509.384 724.428 509.384H725.799C725.95 509.384 726.115 509.259 726.101 509.108C725.1 501.552 724.126 494.01 722.961 486.482Z" fill="#EBEBED"/>
<path d="M727.431 511.453C727.106 511.14 726.753 510.858 726.375 510.612C726.255 510.545 726.148 510.456 726.06 510.35C725.826 509.992 725.703 508.186 724.894 508.971C724.085 509.757 724.428 510.902 724.195 511.729C724.099 512.019 724.017 512.363 724.195 512.57C724.324 512.652 724.478 512.687 724.63 512.67C724.782 512.652 724.924 512.583 725.031 512.474C725.245 512.253 725.479 512.055 725.731 511.881C725.91 511.799 726.112 511.78 726.304 511.827C726.495 511.875 726.665 511.986 726.786 512.143C726.937 512.349 727.019 512.639 727.28 512.722C727.54 512.804 727.842 512.501 727.828 512.212C727.798 511.917 727.656 511.645 727.431 511.453Z" fill="#A89288"/>
<path d="M701.311 466.16C701.264 466.031 701.264 465.889 701.311 465.76C701.379 465.539 701.64 465.443 701.859 465.388C702.598 465.105 703.409 465.08 704.163 465.319C704.876 465.664 705.218 466.78 704.574 467.235C704.286 467.456 703.82 467.497 703.683 467.842C703.635 468.013 703.635 468.195 703.683 468.366C704.19 470.944 704.697 473.509 705.218 476.087C706.46 481.816 707.376 487.611 707.961 493.445C708.064 494.089 708.064 494.746 707.961 495.389C707.728 496.052 707.365 496.66 706.894 497.178C706.423 497.697 705.853 498.115 705.218 498.409C705.088 498.496 704.936 498.544 704.78 498.547C704.574 498.499 704.393 498.376 704.272 498.202L701.53 494.962C701.145 494.564 700.838 494.096 700.625 493.583C700.433 492.882 700.405 492.146 700.543 491.432C700.9 488.463 701.247 485.499 701.585 482.539C701.928 479.603 702.284 476.666 702.38 473.715C702.38 472.24 702.38 470.779 702.312 469.303C702.129 468.213 701.792 467.154 701.311 466.16Z" fill="#7A4135"/>
<path d="M696.8 464.575C696.892 464.682 696.958 464.808 696.994 464.944C697.029 465.08 697.034 465.223 697.006 465.361C697.006 466.064 696.937 466.74 697.006 467.443C697.11 469.486 697.736 471.469 698.824 473.198C699.912 474.927 701.425 476.345 703.217 477.315C703.551 477.528 703.933 477.651 704.328 477.673C705.452 477.673 706.096 476.418 706.48 475.357C707.68 472.526 708.438 469.527 708.729 466.464C708.677 465.659 708.838 464.855 709.195 464.134C709.634 463.458 710.758 463.196 711.211 463.858C711.413 464.288 711.461 464.775 711.348 465.237C710.929 468.15 711.519 471.12 713.02 473.647C714.392 475.95 716.544 477.783 718.176 479.907C721.864 484.815 722.837 491.212 723.66 497.32C724.661 502.891 725.065 508.553 724.867 514.21C724.855 514.707 724.693 515.188 724.4 515.589C724.016 515.925 723.537 516.132 723.029 516.182C718.816 517.101 714.565 517.822 710.278 518.346C706.228 518.968 702.124 519.158 698.034 518.912C695.45 518.652 692.882 518.247 690.343 517.698L678.441 515.423C679.127 507.785 679.808 500.151 680.484 492.522C680.841 488.593 681.225 484.553 683.021 481.065C683.926 479.3 685.16 477.728 686.174 476.032C687.669 473.468 688.67 470.641 690.288 468.132C691.261 466.602 694.47 462.521 696.8 464.575Z" fill="#97A8B2"/>
<path d="M692.234 460.77C691.85 459.819 691.59 459.474 690.712 459.97C690.1 460.394 689.623 460.988 689.341 461.68C686.388 466.324 683.728 471.15 681.375 476.129C680.83 477.07 680.552 478.144 680.571 479.233C680.591 480.322 680.907 481.385 681.485 482.306C681.994 482.975 682.742 483.419 683.57 483.546C684.399 483.672 685.244 483.469 685.927 482.982C687.094 481.663 687.922 480.077 688.34 478.363C689.122 475.826 689.478 473.179 690.177 470.628C690.877 468.077 691.288 465.582 692.028 463.072C692.347 462.349 692.419 461.539 692.234 460.77Z" fill="#EBEBED"/>
<path d="M709.5 453.5H693C693.833 456.167 696.8 461.5 702 461.5C707.2 461.5 709.167 456.167 709.5 453.5Z" fill="white"/>
</g>
</g>
<defs>
<linearGradient id="paint0_linear" x1="576" y1="-82" x2="576" y2="699" gradientUnits="userSpaceOnUse">
<stop stop-color="#FABC4D"/>
<stop offset="0.350501" stop-color="white" stop-opacity="0"/>
</linearGradient>
<linearGradient id="paint1_linear" x1="672.482" y1="586.068" x2="719.784" y2="588.681" gradientUnits="userSpaceOnUse">
<stop/>
<stop offset="1"/>
</linearGradient>
<clipPath id="clip0">
<rect width="1152" height="700" fill="white"/>
</clipPath>
<clipPath id="clip1">
<rect x="676" y="437" width="61" height="153" fill="white"/>
</clipPath>
</defs>
</svg>
