<svg width="1152" height="700" viewBox="0 0 1152 700" fill="none" xmlns="http://www.w3.org/2000/svg">
<g clip-path="url(#clip0)">
<rect width="1152" height="700" fill="white"/>
<rect width="1152" height="699" fill="#E6EEBB"/>
<rect width="1152" height="699" fill="url(#paint0_linear)"/>
<path d="M123.96 329.784C113.253 346.867 33.5256 410.454 -5 440.113V554H2.2996H1197V405.708C1192.13 405.708 1176.32 403.573 1151.99 395.031C1121.57 384.354 1106.97 363 1087.51 351.137C1068.04 339.274 931.781 440.113 898.933 419.944C866.085 399.776 824.721 398.59 804.039 405.708C783.356 412.826 717.66 387.913 704.277 383.168C690.895 378.423 664.13 351.137 643.447 351.137C622.765 351.137 621.549 323.852 603.3 317.92C585.051 311.987 533.953 345.205 479.206 373.677C424.46 402.149 404.994 381.982 372.146 373.677C339.298 365.373 304.016 342.833 294.283 351.137C284.551 359.441 266.302 370.118 259.002 363C251.702 355.882 228.587 346.392 205.472 323.852C182.356 301.312 137.342 308.43 123.96 329.784Z" fill="#1C7A3C"/>
<path d="M28 493C21.6 507.4 6.66667 517 0 520C0 615 12 561 49 578C86 595 122 587 211 567C300 547 669.5 571 896 602C1122.5 633 1148 501 1145 493C1142 485 1136 451 1136 439C1136 429.4 1127.33 410.333 1123 402C1124.33 409.667 1126.2 427.8 1123 439C1119 453 1128 462 1136 493C1144 523.999 1105 520 1096 520H1079C1073 520 1075 467 1079 462C1082.2 458.001 1084.33 455.667 1085 455C1088 446.667 1092.8 427.2 1088 416C1083.2 404.8 1086 386 1088 378C1086.33 382.667 1082.2 395.6 1079 410C1075 428 1064 430 1054 439C1044 448 1039 462 1030 482.999C1021 503.999 1013 462 1007 451C1001 440 1022 439 1039 416C1052.6 397.6 1054.67 383 1054 378C1042.67 386.333 1014.6 405.6 993 416C966 429 964 430 957 451C950 472 907 462 896 462C885 462 866 451 863 462C860.6 470.801 867.333 483 871 487.999C868 487.999 858.6 486.999 845 482.999C828 477.999 818 437 806 439C794 441 732 430 726 416C720 402 669.5 392 679 384C688.5 376.001 674.5 365 669.5 360.5C664.5 356 647 351 639.5 351C632 351 624 340 615 329C615 337.8 604.333 356.667 599 365C602.333 363.333 610.2 361 615 365C621 370 620 409 656 410C692 411 672 446 679 462C681 473 627.003 473 599.002 473H599C576.6 473 596.333 455 609 446C599.667 449.667 577.8 458 565 462C552.2 466.001 563.667 442.334 571 430C565 430 551.6 433.2 546 446C540.4 458.8 517 454.667 506 451C503 458.333 497 475 497 482.999C497 492.999 478 501 475 482.999C472.6 468.599 464.667 494.999 461 510C445 510 407.2 508.2 384 501C357 482 384 493 384 482.999C384 472.999 359 482.999 351 482.999C343 482.999 339 473 339 462C339 451 311 430 300 416C289 402 288 408 288 392C288 379.2 270.667 368.667 262 365C249.333 357.333 222.4 340.4 216 334C189.6 306 166.333 308.334 158 313C164.667 313.334 180.4 315.8 190 323C202 332 200 351 202 360C204 369 224 378 240 384C256 390 267 404 259 430C251 456 244 447 240 462C236.8 474 219.333 474.334 211 473C206.667 474.334 196.4 478.2 190 482.999C182 488.999 173 487.999 158 482.999C143 477.999 116 477.999 107 487.999C99.8 495.999 96 487.999 95 482.999C89.6667 482.999 78 484.999 74 493C69 503 28 512 34 510C40 508 36 475 28 493Z" fill="#085E31"/>
<path d="M397 506C248.2 478 69.6667 511 -1 531V701H1152V467C842 562 583 541 397 506Z" fill="#BD943A"/>
<path d="M-1 701.999V530.999C79 495.999 284.603 493.302 321 495.999C361.5 498.999 471 517.999 498 521.999C519.6 525.199 569 529.332 591 530.999C477.4 530.999 406.333 644.999 385 701.999H-1Z" fill="#859D3D"/>
<path d="M120.719 566.752C136.427 563.401 45.4513 572.059 -2 576.807V679.866C6.59031 682.38 26.2253 685.899 36.0428 679.866C48.3147 672.325 99.8566 679.866 87.5847 687.407C75.3128 694.948 120.719 684.056 144.035 679.866C167.352 675.677 161.216 687.407 234.847 679.866C308.478 672.325 323.205 668.974 341.613 636.296C360.02 603.619 266.754 616.187 240.983 601.105C215.212 586.023 225.03 595.24 207.849 601.105C190.668 606.97 178.397 595.24 184.533 576.807C190.668 558.374 92.4934 589.375 55.6778 584.348C18.8622 579.32 101.084 570.942 120.719 566.752Z" fill="#5F833D"/>
<path d="M124.389 615H-6V659.333C10.8244 659.333 46.7163 660.5 55.6893 665.167C66.9056 671 158.038 659.333 181.872 659.333C195.332 659.333 176.264 667.111 165.048 671C186.545 670.222 239.075 666.8 277.21 659.333C324.879 650 338.899 627.833 292.632 620.833C246.365 613.833 97.7502 623.167 107.564 620.833C115.416 618.967 122.052 616.167 124.389 615Z" fill="#537832"/>
<path d="M415 681C408.6 684.2 392.333 695 385 700H375C376.667 693.667 381 677.8 385 665C390 649 403 630 421 613C435.4 599.4 443.667 584.667 446 579L487 557L507 546C514 543.334 529 536.8 533 532C537 527.201 542 528.5 544 528.5L605 533.5C601.333 533.834 591.2 532.8 580 532C568.8 531.2 569.333 541 571 546H544C538 548.667 524.8 553.6 520 552C514 550 505 571 483 579C465.4 585.4 469 592.334 473 595C468 596.667 457.2 600.6 454 603C450.8 605.4 447.333 616.667 446 622C442.333 623.334 432.2 630 421 646C407 666 423 677 415 681Z" fill="#96C753"/>
<path d="M422 681C415.6 684.2 399.333 695 392 700H382C383.667 693.666 388 677.8 392 665C397 649 410 630 428 613C442.4 599.4 450.667 584.666 453 579L494 557L514 546C521 543.333 536 536.8 540 532C544 527.2 547.5 527.5 549.5 527.5L611.5 534C607.833 534.333 598.2 532.8 587 532C575.8 531.2 576.333 541 578 546H551C545 548.667 531.8 553.6 527 552C521 550 512 571 490 579C472.4 585.4 476 592.333 480 595C475 596.666 464.2 600.6 461 603C457.8 605.4 454.333 616.666 453 622C449.333 623.333 439.2 630 428 646C414 666 430 677 422 681Z" fill="#537832"/>
<path d="M406 681C399.6 684.2 383.333 695 376 700H366C367.667 693.667 372 677.8 376 665C381 649 394 630 412 613C426.4 599.4 434.667 584.667 437 579L478 557L498 546C505 543.333 520 536.8 524 532C528 527.2 533 526 535 526L596 532C592.333 532.334 582.2 532.8 571 532C559.8 531.2 560.333 541 562 546H535C529 548.667 515.8 553.6 511 552C505 550 496 571 474 579C456.4 585.4 460 592.333 464 595C459 596.667 448.2 600.6 445 603C441.8 605.4 438.333 616.667 437 622C433.333 623.333 423.2 630 412 646C398 666 414 677 406 681Z" fill="#859D3D"/>
<path d="M165.469 502.972C177.187 496.647 215.601 495.246 231 495.999L293 495.999L350 499L317.5 517.5C317.5 506.205 299.325 519.914 289.41 519.914C277.016 519.914 283.38 527.816 280 542.5C276.62 557.184 260.027 543.87 242 545C223.972 546.13 248 560.577 216.172 560.577C194.498 560.577 191.384 558.318 171.103 551.541C150.821 544.764 155.106 529.389 167.5 526C179.894 522.611 178.99 521.044 171.103 514.267C163.216 507.49 150.822 510.879 165.469 502.972Z" fill="#5F833D"/>
<path d="M177 502C187.4 496.4 217.333 496.334 231 497L339 498.5L319 512C319 502 295.8 517 287 517C276 517 280 521 277 534C274 547 253 538 237 539C221 540 241 556 222 553C203 550 200 551 182 545C164 539 166 532 177 529C188 526 189 518 182 512C175 506 164 509 177 502Z" fill="#99B449"/>
<path d="M383 684C379.8 691.6 365.333 697.167 358.5 699H383V696L409.5 679C409.5 677 407.5 672.9 407.5 670.5C406 642 428 628 437.5 623C436.3 619 442.333 608.667 445.5 604L465 595C464.167 591.333 461.8 583 471 581C480.2 579 502 561.833 511 553C519.4 552.2 531.833 547.334 536.5 545.5H561.5C563.5 528.986 578 534 589.5 531.5C573.667 530 543.6 527.2 550 528C558 529 539 533.5 528.5 537C518 540.5 505 541.5 499 545.5C493 549.5 492.5 551.5 483.5 556C474.5 560.5 468.5 568.5 465 573C461.5 577.5 454.5 584 443.5 586.5C432.5 589 431.5 592.5 431.5 602C431.5 611.5 414 625.5 401.5 641.5C389 657.5 386 654 386 658.5C386 663 387 674.5 383 684Z" fill="#63A448"/>
<path d="M350 662C350.401 659.909 352.289 656.354 356.625 658.863C360.961 661.373 354.015 662 350 662Z" fill="#F1FFC3"/>
<path d="M71 625C71.4015 622.909 73.2885 619.354 77.6246 621.863C81.9607 624.373 75.0149 625 71 625Z" fill="#F1FFC3"/>
<path d="M141 543C141.401 540.909 143.289 537.354 147.625 539.863C151.961 542.373 145.015 543 141 543Z" fill="#F1FFC3"/>
<path d="M348.538 647.439C346.704 646.358 343.991 643.385 347.812 640.145C351.634 636.906 349.889 643.658 348.538 647.439Z" fill="#F1FFC3"/>
<path d="M62.767 620.879C60.9326 619.797 58.2193 616.824 62.0409 613.585C65.8626 610.345 64.1173 617.098 62.767 620.879Z" fill="#F1FFC3"/>
<path d="M356.578 639.883C358.993 638.249 363.899 635.954 364.201 639.849C364.502 643.743 359.245 641.494 356.578 639.883Z" fill="#F1FFC3"/>
<path d="M393 528.433C395.415 526.8 400.321 524.505 400.623 528.399C400.924 532.294 395.667 530.045 393 528.433Z" fill="#F1FFC3"/>
<path d="M366 518.433C368.415 516.8 373.321 514.505 373.623 518.399C373.924 522.294 368.667 520.045 366 518.433Z" fill="#F1FFC3"/>
<path d="M157 535.433C159.415 533.8 164.321 531.505 164.623 535.399C164.924 539.294 159.667 537.045 157 535.433Z" fill="#F1FFC3"/>
<path d="M1050 701C1074.8 698.6 1129.33 694 1152 701V536L1145 554C1145 560.667 1128 572.4 1128 586C1128 599.6 1040.83 619 1030.5 622C1035.17 621 1108.4 615.6 1122 622C1139 630 1116 628 1122 654C1126.8 674.8 1090.67 674 1072 671L1002 689C990.001 701 1025.2 703.4 1050 701Z" fill="#B2782B"/>
<path d="M1152 685H1091.93C1090.86 685.1 1089.88 685.102 1089 685H1091.93C1101.36 684.117 1117.53 675.576 1131 663C1144.18 650.699 1133 637 1136 631C1138.4 626.2 1123.67 615 1116 610L1136 589C1137.33 589.667 1140.4 589.6 1142 584C1143.6 578.4 1149.33 572.333 1152 570V685Z" fill="#B65B24" fill-opacity="0.7"/>
<path d="M448.626 693.78C457.045 704.312 563.05 705.541 615 704.839L558.373 700.099C541.168 697.993 504.753 693.78 496.735 693.78C486.712 693.78 468.17 685.354 456.645 685.88C445.119 686.407 448.626 672.188 448.626 663.762C448.626 655.337 469.674 645.33 473.683 642.17C477.692 639.011 473.683 626.898 478.694 616.893C482.703 608.888 506.423 608.291 517.782 608.993L510.766 603.201C509.43 603.201 506.056 601.515 503.249 594.774C499.741 586.348 526.301 583.715 536.825 569.497C547.348 555.278 559.877 562.124 578.418 562.124C596.96 562.124 590.946 547.378 590.946 540.006C590.946 534.108 614.534 536 612.5 533C607.656 533.527 584.332 532.317 581.926 535.266C578.919 538.953 589.443 547.379 578.418 553.172C567.393 558.964 553.362 551.592 547.348 553.172C541.335 554.751 528.306 555.805 526.301 562.124C524.297 568.444 504.252 582.662 493.728 586.349C485.309 589.298 492.225 598.812 496.735 603.201C491.556 603.903 479.696 606.044 473.683 608.993C466.166 612.68 467.168 618.473 464.663 631.638C462.157 644.804 440.107 652.177 433.091 663.762C426.075 675.348 438.102 680.614 448.626 693.78Z" fill="#C77835"/>
<path d="M672.976 564.34C659.386 560.458 645.996 568.17 641 572.511C647.931 574.073 660.1 570.664 670.997 573.12C681.895 575.575 699.615 572.052 704.904 566.41C699.924 567.338 686.566 568.223 672.976 564.34Z" fill="#B56426"/>
<path d="M936.976 660.34C923.386 656.458 909.996 664.17 905 668.511C911.931 670.073 924.1 666.664 934.997 669.12C945.895 671.575 963.615 668.052 968.904 662.41C963.924 663.338 950.566 664.223 936.976 660.34Z" fill="#B56426"/>
<path d="M699.994 632.578C687.194 643.778 701.994 655.912 710.994 660.578L747.994 668.578L756.994 676.578H772.994C785.994 671.245 813.994 659.178 821.994 653.578C831.994 646.578 885.994 632.578 884.994 619.578C883.994 606.578 838.994 624.579 821.994 632.578C804.994 640.578 776.994 625.578 764.994 619.578C752.994 613.578 715.994 618.578 699.994 632.578Z" fill="#B4762D"/>
<path d="M927.661 606.386C919.585 606.343 912.845 607.941 910.485 608.746C910.326 611.581 910.983 618.066 914.889 621.317C919.771 625.382 923.01 612.996 926.049 611.137C929.088 609.278 932.242 612.757 942.778 611.516C953.313 610.274 937.757 606.441 927.661 606.386Z" fill="#EAAF63"/>
<path d="M563.122 651.215C547.367 650.899 538.819 643.239 528.317 636.736C513.177 628.407 528.183 599.553 540.078 611.197C551.973 622.841 566.691 606.164 574.198 611.624C581.705 617.084 591.841 610.012 607.922 618.2C619.738 618.437 597.572 653.389 591.172 650.9C584.773 648.412 582.816 651.61 563.122 651.215Z" fill="#B4762D"/>
<path d="M761.811 637.954C758 623.471 729.738 642.46 720.991 644.713C728.766 647.931 730.817 672.561 768.5 660C845 634.5 765.521 652.052 761.811 637.954Z" fill="#D8B358"/>
<path d="M727.794 591.609C713.021 598.561 744.317 599.655 761.811 599.333C776.39 599.333 810.212 597.788 828.872 591.609C852.198 583.885 803.603 579.057 761.811 576.161C720.019 573.264 746.261 582.919 727.794 591.609Z" fill="#D8B358"/>
<path d="M994.096 576.161C980.878 582.34 967.207 584.528 962.023 584.85C966.235 587.103 977.185 591.609 987.293 591.609C999.928 591.609 1007.7 584.85 1028.11 576.161C1048.52 567.471 1010.62 568.436 994.096 576.161Z" fill="#D8B358"/>
<path d="M586.868 637.954C571.318 637.954 539.569 642.46 525.638 644.713C499.397 637.954 525.638 628.299 561.599 623.471C597.559 618.644 606.306 637.954 586.868 637.954Z" fill="#D8B358"/>
<path d="M1003 518C991.001 516.4 998.001 509.333 1003 506L1109 480C1107.33 484.333 1106.8 498.8 1090 502C1069 506 1069 511 1064 524C1059 537 1047 530 1037 518C1027 506 1018 520 1003 518Z" fill="#BE8034"/>
<path d="M1055 493.499C1041.53 497.768 1010 500.499 1027 505.499C1034.1 505.673 1038.76 521.997 1049.93 522.27C1061.1 522.543 1076.12 496.623 1080.2 490.054C1075.5 487.999 1069.85 488.793 1055 493.499Z" fill="#B65B24" fill-opacity="0.8"/>
<path d="M423 677.5L391.5 700.5H466.5C461.667 699 452.6 693.3 449 690.5C444.5 687 431.5 679 431.5 670C431.5 661 453.5 645.5 460.5 640.5C467.5 635.5 465 618.5 469.5 612.5C473.1 607.7 490 604.5 498 603.5C497.667 603 498.3 600.657 495.5 598.657C486.5 588.657 491.5 586.657 504.5 581.657C517.5 576.657 526.5 566.5 531.5 560.5C536.5 554.5 546.5 554.5 551.5 554C555.5 553.6 566.167 555.167 571 556C576.833 554.833 587.4 550.4 583 542C578.6 533.6 588.833 532.167 594.5 532.5C593 532 588.4 531.3 582 532.5C575.6 533.7 576.667 541.667 578 545.5H551.5C549.333 547.5 540.288 550.868 534.5 550C524.5 548.5 523.5 551.5 515.5 561.5C507.5 571.5 488 578 480 582.5C473.6 586.1 477.333 593.834 480 596C475.5 594.5 464.1 599.8 460.5 601C456.9 602.2 453.333 616.334 452 622C448.833 624.5 441.6 630.4 438 634C420 648.4 419.667 669 423 677.5Z" fill="#A35D21" fill-opacity="0.7"/>
<path d="M117 414C71.4 426 23.3333 430.167 6 431.5C42.3333 402.833 118.5 337 126 326C134.864 313 150.667 311.333 158 311C159 316 163 331 175 347C190 367 177 366 180 388C183 410 208 421 196 433C184 445 174 399 117 414Z" fill="#2B9D58"/>
<path d="M282 392C284.4 384 272.333 372 266 367C265.5 366.667 264 365.8 262 365C264 365 268.5 365 272.5 364C279.3 362.8 290.667 354.5 295.5 350.5C309 346 335 361.5 342 364C349 366.5 372.5 374 379.5 376C386.5 378 405.5 386 426 389C446.5 392 468 378.5 473.5 377C479 375.5 544.5 339.5 563 329.5C577.8 321.5 587.167 319.167 590 319C592.333 320.333 596.8 326 596 338C595 353 574 367 581 360C586.6 354.4 583.333 343 581 338L568 347C553.667 359 521.8 383.6 509 386C493 389 457 392 433 408C409 424 380 418 365 413C353 409 340 418 335 423C336.333 425.667 340.8 433.8 348 445C357 459 322 448 312 436C302 424 279 402 282 392Z" fill="#2E9B58"/>
<path d="M693.5 378.5C694.486 378.955 695.81 379.638 697.372 380.535C705.068 383.913 721.575 389.569 730.5 392.5C749 398.667 789.3 410.1 802.5 406.5C819 402 824.5 401 848 403C871.5 405 887 414 893.5 417C900 420 899.5 426 924.5 420.5C949.5 415 1009.5 383.5 1031 371.5C1048.2 361.9 1069.17 354.167 1077.5 351.5V361.5C1077.5 367.5 1078.5 371.5 1077.5 383.5C1076.5 395.5 1075.5 392 1068.5 401C1062.9 408.2 1059.17 417 1058 420.5C1058.33 418.833 1058.8 413.7 1058 406.5C1057 397.5 1059.5 396.5 1063 383.5C1066.5 370.5 1056 368 1047.5 371.5C1039 375 1016.5 391.5 1009.5 396.5C1002.5 401.5 976 413.5 962 420.5C948 427.5 944 440.5 924.5 447C905 453.5 871.5 439 860.5 435.5C849.5 432 841 426 837.5 435.5C834 445 847.5 451.5 841 451.5C834.5 451.5 828 437 823 430.5C818 424 793 424.5 780 426C767 427.5 728.5 408.5 717.5 396.5C710.702 389.085 702.672 383.578 697.372 380.535C695.439 379.686 694.062 378.982 693.5 378.5Z" fill="#2E9B58"/>
<path d="M74 389.499C64 401.099 40.8333 413.999 30.5 418.999C38 417.999 58.7 413.599 81.5 403.999C110 391.999 95 385.999 103 375.999C111 365.999 127 374.999 135 371.999C143 368.999 143 356.999 138.5 349.499C134 341.999 147 328.999 147 319.499C147 311.899 141.333 320.999 138.5 326.499C134.667 331.333 125.4 342.699 119 349.499C111 357.999 86.5 374.999 74 389.499Z" fill="#34B771"/>
<path d="M313.001 431C315.401 437.4 324.334 437 328.501 436C332.5 435.451 328.501 420.5 324.501 407.5C320.501 394.5 344.001 395.5 362.001 395.5C380.001 395.5 379.001 401 402.001 401.5C425.001 402 422.501 395.5 409.501 395.5C396.501 395.5 383.501 389.5 369.001 382.5C354.501 375.5 351.001 380 328.501 380C306 380 309.501 365 295.001 363.5C280.501 362 279.501 368.5 283.501 376.5C287.501 384.5 292.501 385.5 292.501 395.5C292.501 405.5 298.501 401 306.001 414.5C313.501 428 310.001 423 313.001 431Z" fill="#34B771"/>
<path d="M540.5 350C531.3 359.6 493.333 376 475.5 383C459 396.001 493.5 383 505.5 379C517.5 375 516.5 376 521 370C525.5 364 546.5 356 556 350C565.5 344 552 338 540.5 350Z" fill="#34B771"/>
<path d="M779.001 417.5C767.401 418.3 746.168 407.833 737.001 402.5C717.652 393 768.501 406.5 783.001 412C797.501 417.5 816.501 412 825.501 412C834.501 412 845.501 413.5 873.501 421C901.501 428.5 895.501 430 904.501 431C913.501 432 929.001 429.5 949.001 417.5C965.001 407.9 993.001 397.5 1005 393.5C1001 396.5 991.801 402.5 987.001 402.5C981.001 402.5 953.501 423.5 944.501 426C935.501 428.5 923.001 438.5 912.001 442.5C901.001 446.5 848.001 423.5 835.501 423.5C823.001 423.5 833.001 431.5 825.501 423.5C818.001 415.5 793.501 416.5 779.001 417.5Z" fill="#34B771"/>
<path d="M690.08 202.885C684.08 206.02 673.437 207.466 660.991 208.639C654.954 208.351 642.161 205.615 639.288 196.975C635.612 185.92 635.825 180.478 654.487 171.586C671.319 163.566 685.607 175.856 688.61 171.289C691.614 166.721 683.312 164.077 690.811 161.656C698.309 159.236 698.469 160.935 699.691 155.678C700.912 150.422 703.036 136.513 715.239 129.365C725.002 123.647 734.924 122.654 738.665 122.873C738.973 113.99 743.65 93.7846 759.9 84.0276C780.213 71.8313 791.115 69.0903 819.095 83.5904C828.472 79.8505 850.699 74.6139 864.594 83.5867C881.962 94.8026 885.475 104.755 887.127 113.167C888.448 119.897 890.373 120.286 891.171 119.64C898.926 116.91 911.236 122.273 922.152 128.785C933.067 135.296 948.465 138.518 951.835 143.913C952.169 143.539 952.406 143.235 952.569 142.994C952.401 142.122 953.369 141.808 952.569 142.994C952.737 143.87 954.052 145.312 959.465 146.362C974.331 149.244 996.913 157.658 990.426 161.697C990.682 164.415 988.176 168.193 986.891 169.742C991.049 171.349 998.073 177.257 992.907 188.026C987.741 198.794 979.375 199.297 975.838 198.202C978.587 203.084 968.702 201.882 952.748 207.498C936.795 213.114 930.144 204.487 928.813 199.472C928.265 205.807 924.105 208.867 899.959 207.715C875.813 206.563 881.53 220.799 883.196 217.214C882.515 222.134 867.341 205.264 857.13 206.227C848.784 207.013 852.849 218.856 854.519 220.513C854.765 220.365 854.965 220.151 855.115 219.861C855.146 220.744 854.893 220.883 854.519 220.513C851.207 222.499 839.492 212.327 826.064 212.316C811.641 212.304 808.581 227.102 806.612 224.431C803.015 228.769 790.423 217.046 780.765 216.585C771.107 216.124 768.871 230.844 767.47 228.12C763.535 231.918 759.65 212.749 752.586 210.672C745.523 208.596 734.531 227.797 732.792 224.533C731.517 229.223 731.779 213.479 723.779 208.749C717.139 204.823 712.867 215.357 712.249 217.198C712.28 217.144 712.31 217.09 712.341 217.035C712.149 217.587 712.123 217.575 712.249 217.198C706.92 226.669 703.816 225.446 690.08 202.885Z" fill="white"/>
<path d="M690.863 216.488C684.863 219.624 671.522 222.595 666.157 209.391C660.12 209.103 647.329 206.367 644.454 197.727C640.861 186.927 645.537 172.777 666.199 173.4C686.862 174.023 690.825 179.648 693.829 175.081C696.832 170.513 695.261 162.95 702.759 160.53C710.257 158.109 710.417 159.808 711.639 154.552C712.861 149.296 714.984 135.386 727.188 128.238C736.951 122.52 746.873 121.528 750.613 121.747C750.921 112.863 755.599 92.658 771.849 82.901C792.162 70.7047 803.064 67.9637 831.043 82.4639C840.42 78.724 862.648 73.4874 876.542 82.4601C893.911 93.676 897.424 103.628 899.075 112.04C900.396 118.77 902.321 119.16 903.119 118.513C910.874 115.783 929.114 111.951 940.029 118.463C950.944 124.974 960.413 137.391 963.783 142.786C967.408 138.732 977.629 131.2 989.522 133.507C1004.39 136.389 1008.86 156.531 1002.37 160.57C1002.63 163.289 1000.12 167.066 998.84 168.615C1003 170.223 1010.02 176.131 1004.86 186.899C999.689 197.668 991.323 198.17 987.786 197.076C990.535 201.958 992.046 213.126 976.092 218.742C960.138 224.358 953.488 215.731 952.156 210.715C951.609 217.05 944.477 229.433 920.331 228.281C900.059 227.314 894.899 221.903 894.751 218.07C893.426 223.309 889.315 231.203 880.337 232.049C870.126 233.012 867.234 223.573 867.064 218.734C864.884 222.938 856.92 231.343 842.496 231.331C828.073 231.319 820.529 225.975 818.561 223.305C814.963 227.642 805.354 236.202 795.695 235.742C786.037 235.281 780.819 229.717 779.418 226.993C775.484 230.791 765.849 237.869 758.785 235.792C751.722 233.716 746.479 226.67 744.741 223.406C743.466 228.096 738.916 236.294 730.915 231.564C722.915 226.834 723.164 219.156 724.289 215.908C718.903 225.556 704.677 239.178 690.863 216.488Z" fill="#F8F7CB"/>
<path d="M437.918 148.347C436.09 149.302 432.848 149.743 429.056 150.1C427.217 150.012 423.32 149.179 422.445 146.547C421.325 143.179 421.39 141.521 427.075 138.812C432.203 136.369 436.555 140.113 437.47 138.722C438.385 137.33 435.856 136.525 438.14 135.787C440.425 135.05 440.473 135.568 440.846 133.966C441.218 132.365 441.865 128.128 445.582 125.95C448.556 124.208 451.579 123.906 452.719 123.973C452.812 121.267 454.237 115.111 459.188 112.139C465.376 108.423 468.697 107.588 477.22 112.006C480.077 110.866 486.848 109.271 491.081 112.005C496.372 115.421 497.442 118.453 497.945 121.016C498.348 123.066 498.934 123.185 499.177 122.988C501.54 122.156 505.29 123.79 508.615 125.774C511.941 127.757 516.631 128.739 517.658 130.382C517.76 130.268 517.832 130.176 517.881 130.102C517.83 129.837 518.125 129.741 517.881 130.102C517.933 130.369 518.333 130.808 519.982 131.128C524.511 132.006 531.39 134.569 529.414 135.8C529.492 136.628 528.729 137.779 528.337 138.251C529.604 138.74 531.744 140.54 530.17 143.821C528.596 147.101 526.048 147.254 524.97 146.921C525.808 148.408 522.796 148.042 517.936 149.753C513.076 151.463 511.05 148.835 510.645 147.307C510.478 149.237 509.21 150.17 501.855 149.819C494.499 149.468 496.241 153.804 496.748 152.712C496.54 154.211 491.918 149.072 488.807 149.365C486.265 149.605 487.503 153.213 488.012 153.717C488.087 153.672 488.148 153.607 488.194 153.519C488.203 153.788 488.126 153.83 488.012 153.717C487.003 154.322 483.434 151.224 479.344 151.22C474.95 151.217 474.017 155.725 473.418 154.911C472.322 156.232 468.486 152.661 465.544 152.521C462.601 152.38 461.92 156.865 461.494 156.035C460.295 157.192 459.111 151.352 456.959 150.72C454.808 150.087 451.459 155.936 450.93 154.942C450.541 156.371 450.621 151.574 448.184 150.134C446.161 148.938 444.86 152.147 444.671 152.708C444.681 152.691 444.69 152.675 444.699 152.658C444.641 152.826 444.633 152.822 444.671 152.708C443.048 155.593 442.102 155.22 437.918 148.347Z" fill="white"/>
<path d="M438.157 152.492C436.329 153.447 432.265 154.352 430.63 150.33C428.791 150.242 424.894 149.409 424.019 146.776C422.924 143.486 424.349 139.176 430.643 139.366C436.938 139.555 438.145 141.269 439.06 139.878C439.975 138.486 439.496 136.182 441.781 135.445C444.065 134.707 444.114 135.225 444.486 133.624C444.858 132.022 445.505 127.785 449.222 125.608C452.197 123.866 455.219 123.563 456.359 123.63C456.452 120.924 457.877 114.769 462.828 111.796C469.016 108.081 472.337 107.246 480.861 111.663C483.717 110.524 490.489 108.928 494.721 111.662C500.012 115.079 501.083 118.111 501.586 120.673C501.988 122.723 502.575 122.842 502.818 122.645C505.18 121.813 510.736 120.646 514.062 122.63C517.387 124.613 520.271 128.396 521.298 130.039C522.402 128.804 525.516 126.51 529.139 127.213C533.668 128.091 535.03 134.227 533.054 135.457C533.132 136.285 532.369 137.436 531.978 137.908C533.244 138.398 535.384 140.197 533.81 143.478C532.236 146.758 529.688 146.911 528.61 146.578C529.448 148.065 529.908 151.467 525.048 153.178C520.188 154.889 518.162 152.261 517.756 150.733C517.589 152.663 515.417 156.435 508.061 156.084C501.885 155.79 500.314 154.141 500.268 152.974C499.865 154.57 498.612 156.975 495.877 157.232C492.767 157.525 491.885 154.65 491.834 153.176C491.17 154.457 488.744 157.017 484.35 157.013C479.956 157.01 477.658 155.382 477.058 154.568C475.962 155.89 473.035 158.497 470.092 158.357C467.15 158.217 465.561 156.522 465.134 155.692C463.935 156.849 461 159.005 458.848 158.373C456.696 157.74 455.099 155.594 454.57 154.599C454.181 156.028 452.795 158.525 450.358 157.084C447.921 155.644 447.997 153.305 448.339 152.315C446.699 155.254 442.365 159.404 438.157 152.492Z" fill="#F8F7CB"/>
<path d="M731.313 338.454C728.191 340.086 722.653 340.838 716.177 341.449C713.036 341.299 706.379 339.875 704.884 335.379C702.971 329.627 703.082 326.795 712.792 322.168C721.551 317.995 728.985 324.39 730.548 322.014C732.111 319.637 727.792 318.261 731.693 317.002C735.595 315.742 735.678 316.626 736.314 313.891C736.95 311.156 738.054 303.918 744.404 300.199C749.485 297.223 754.647 296.707 756.594 296.821C756.754 292.199 759.188 281.685 767.644 276.608C778.213 270.262 783.886 268.836 798.445 276.381C803.324 274.435 814.89 271.71 822.12 276.379C831.157 282.215 832.986 287.393 833.845 291.771C834.532 295.272 835.534 295.475 835.949 295.139C839.984 293.718 846.39 296.509 852.07 299.897C857.749 303.285 865.762 304.962 867.515 307.769C867.689 307.574 867.812 307.416 867.897 307.291C867.81 306.837 868.313 306.674 867.897 307.291C867.984 307.747 868.669 308.497 871.486 309.043C879.221 310.543 890.971 314.921 887.596 317.023C887.729 318.437 886.425 320.403 885.757 321.209C887.92 322.045 891.575 325.119 888.887 330.723C886.198 336.326 881.845 336.588 880.005 336.018C881.436 338.558 876.292 337.933 867.99 340.855C859.689 343.777 856.228 339.288 855.536 336.678C855.251 339.975 853.086 341.567 840.522 340.968C827.958 340.368 830.933 347.776 831.799 345.911C831.445 348.471 823.55 339.693 818.236 340.193C813.893 340.603 816.009 346.765 816.878 347.627C817.006 347.55 817.109 347.439 817.188 347.288C817.204 347.748 817.072 347.82 816.878 347.627C815.154 348.661 809.058 343.368 802.071 343.362C794.566 343.356 792.974 351.056 791.95 349.666C790.078 351.923 783.526 345.823 778.5 345.583C773.475 345.343 772.311 353.003 771.582 351.585C769.535 353.562 767.513 343.587 763.838 342.507C760.162 341.426 754.443 351.417 753.538 349.719C752.875 352.159 753.011 343.967 748.848 341.506C745.393 339.463 743.17 344.944 742.849 345.902C742.864 345.874 742.88 345.846 742.896 345.817C742.797 346.105 742.783 346.099 742.849 345.902C740.075 350.831 738.46 350.194 731.313 338.454Z" fill="white"/>
<path d="M731.72 345.534C728.598 347.166 721.656 348.712 718.864 341.841C715.723 341.691 709.067 340.268 707.572 335.772C705.702 330.152 708.135 322.789 718.886 323.113C729.638 323.438 731.7 326.364 733.263 323.988C734.826 321.611 734.008 317.676 737.91 316.416C741.812 315.157 741.895 316.041 742.531 313.306C743.166 310.571 744.271 303.333 750.621 299.614C755.701 296.638 760.864 296.122 762.811 296.236C762.971 291.614 765.405 281.1 773.86 276.023C784.43 269.677 790.103 268.25 804.662 275.795C809.541 273.849 821.107 271.124 828.337 275.793C837.374 281.629 839.202 286.808 840.062 291.185C840.749 294.687 841.751 294.89 842.166 294.553C846.201 293.133 855.692 291.139 861.372 294.527C867.051 297.915 871.978 304.376 873.732 307.184C875.618 305.074 880.937 301.155 887.125 302.355C894.86 303.855 897.188 314.336 893.812 316.438C893.946 317.852 892.642 319.817 891.973 320.623C894.137 321.46 897.792 324.534 895.103 330.137C892.415 335.741 888.062 336.002 886.222 335.433C887.652 337.973 888.438 343.784 880.137 346.707C871.835 349.629 868.375 345.14 867.682 342.53C867.397 345.826 863.686 352.269 851.122 351.67C840.574 351.167 837.889 348.351 837.811 346.357C837.122 349.083 834.983 353.191 830.311 353.631C824.998 354.132 823.493 349.221 823.405 346.702C822.271 348.89 818.126 353.263 810.621 353.257C803.116 353.251 799.191 350.47 798.167 349.081C796.295 351.338 791.294 355.792 786.269 355.552C781.243 355.312 778.528 352.418 777.799 351C775.752 352.976 770.738 356.659 767.063 355.579C763.387 354.498 760.659 350.832 759.755 349.134C759.091 351.574 756.724 355.84 752.561 353.378C748.398 350.917 748.528 346.922 749.113 345.232C746.31 350.252 738.908 357.341 731.72 345.534Z" fill="#F8F7CB"/>
<path d="M-70.5607 107.243C-77.4632 110.85 -89.7062 112.513 -104.025 113.863C-110.969 113.532 -125.687 110.385 -128.992 100.444C-133.221 87.7266 -132.975 81.4658 -111.507 71.2366C-92.143 62.0101 -75.7066 76.1492 -72.2514 70.8948C-68.7961 65.6404 -78.3458 62.598 -69.7198 59.8137C-61.0937 57.0294 -60.9095 58.9834 -59.5041 52.9367C-58.0987 46.89 -55.6562 30.8885 -41.6171 22.6655C-30.3857 16.0871 -18.9712 14.9458 -14.6679 15.1974C-14.3141 4.97822 -8.93312 -18.2662 9.76121 -29.4907C33.1291 -43.5213 45.6708 -46.6746 77.8585 -29.9936C88.6459 -34.296 114.217 -40.3202 130.201 -29.9979C150.181 -17.0951 154.223 -5.64594 156.123 4.03142C157.643 11.7733 159.858 12.2215 160.775 11.4779C169.697 8.33721 183.858 14.5072 196.416 21.9982C208.973 29.4891 226.687 33.1953 230.564 39.4013C230.948 38.9713 231.22 38.622 231.407 38.3442C231.215 37.3412 232.328 36.9806 231.407 38.3442C231.601 39.3528 233.114 41.011 239.341 42.2186C256.443 45.5348 282.422 55.214 274.959 59.8606C275.253 62.9874 272.371 67.3331 270.893 69.1151C275.676 70.9647 283.756 77.7609 277.813 90.1491C271.87 102.537 262.246 103.116 258.176 101.856C261.339 107.472 249.967 106.089 231.614 112.55C213.261 119.011 205.61 109.087 204.079 103.317C203.449 110.605 198.663 114.125 170.885 112.8C143.107 111.475 149.685 127.851 151.601 123.728C150.817 129.387 133.361 109.981 121.615 111.088C112.013 111.992 116.69 125.617 118.611 127.522C118.894 127.353 119.124 127.106 119.297 126.772C119.332 127.789 119.041 127.948 118.611 127.522C114.801 129.808 101.323 118.106 85.8764 118.093C69.2834 118.079 65.7635 135.103 63.4987 132.03C59.3601 137.02 44.875 123.534 33.7639 123.004C22.6528 122.474 20.0811 139.407 18.469 136.274C13.9427 140.643 9.47282 118.591 1.34691 116.202C-6.77901 113.813 -19.4242 135.902 -21.424 132.147C-22.8907 137.543 -22.5897 119.43 -31.7934 113.989C-39.4315 109.473 -44.3457 121.592 -45.0568 123.709C-45.0219 123.647 -44.9868 123.585 -44.9517 123.522C-45.1718 124.157 -45.2026 124.143 -45.0568 123.709C-51.1881 134.605 -54.7591 133.198 -70.5607 107.243Z" fill="#EEFDFF"/>
<path d="M-69.6602 122.894C-76.5626 126.501 -91.9106 129.919 -98.0825 114.729C-105.027 114.398 -119.743 111.251 -123.049 101.311C-127.183 88.886 -121.804 72.6077 -98.0338 73.3249C-74.2637 74.042 -69.7042 80.5129 -66.249 75.2584C-62.7937 70.004 -64.6013 61.3032 -55.9752 58.5189C-47.3491 55.7346 -47.165 57.6887 -45.7596 51.642C-44.3542 45.5953 -41.9117 29.5937 -27.8725 21.3707C-16.6412 14.7923 -5.22672 13.651 -0.923393 13.9026C-0.569586 3.68344 4.8116 -19.561 23.5059 -30.7855C46.8739 -44.8161 59.4155 -47.9694 91.6032 -31.2884C102.391 -35.5908 127.962 -41.615 143.946 -31.2927C163.926 -18.3899 167.968 -6.94073 169.867 2.73663C171.387 10.4785 173.602 10.9268 174.52 10.1832C183.441 7.04244 204.424 2.63372 216.981 10.1247C229.538 17.6156 240.431 31.9005 244.308 38.1066C248.477 33.4427 260.236 24.7784 273.918 27.4313C291.02 30.7476 296.166 53.9192 288.703 58.5658C288.998 61.6927 286.115 66.0384 284.637 67.8204C289.42 69.6699 297.501 76.4661 291.557 88.8544C285.614 101.243 275.99 101.821 271.921 100.561C275.084 106.178 276.821 119.025 258.468 125.486C240.115 131.947 232.464 122.023 230.932 116.253C230.302 123.54 222.098 137.785 194.32 136.46C171 135.347 165.064 129.123 164.893 124.714C163.369 130.74 158.64 139.822 148.311 140.795C136.564 141.902 133.237 131.045 133.041 125.477C130.534 130.314 121.372 139.983 104.779 139.969C88.1859 139.956 79.5082 133.808 77.2435 130.735C73.1049 135.725 62.0499 145.573 50.9388 145.043C39.8277 144.513 33.8257 138.113 32.2136 134.979C27.6873 139.348 16.6033 147.49 8.47736 145.101C0.351443 142.713 -5.67964 134.607 -7.67945 130.853C-9.14623 136.248 -14.3807 145.678 -23.5844 140.237C-32.788 134.796 -32.5011 125.963 -31.2072 122.227C-37.4033 133.325 -53.7684 148.997 -69.6602 122.894Z" fill="#F9FADB"/>
<path d="M267.35 273.353C264.514 274.835 259.484 275.518 253.602 276.073C250.749 275.937 244.702 274.644 243.344 270.56C241.607 265.335 241.708 262.763 250.528 258.56C258.483 254.769 265.236 260.578 266.656 258.42C268.075 256.261 264.152 255.011 267.696 253.867C271.24 252.723 271.315 253.526 271.893 251.042C272.47 248.557 273.474 241.983 279.242 238.605C283.856 235.902 288.545 235.433 290.313 235.537C290.459 231.338 292.669 221.788 300.35 217.177C309.95 211.413 315.103 210.117 328.327 216.97C332.759 215.203 343.265 212.728 349.832 216.969C358.04 222.27 359.701 226.973 360.481 230.949C361.106 234.13 362.016 234.314 362.393 234.009C366.058 232.718 371.876 235.253 377.035 238.331C382.194 241.408 389.472 242.931 391.065 245.481C391.223 245.304 391.334 245.161 391.411 245.046C391.332 244.634 391.79 244.486 391.411 245.046C391.491 245.461 392.113 246.142 394.671 246.638C401.697 248.001 412.37 251.977 409.304 253.886C409.425 255.171 408.241 256.956 407.634 257.688C409.599 258.448 412.919 261.24 410.477 266.33C408.035 271.42 404.081 271.657 402.409 271.14C403.709 273.447 399.037 272.879 391.496 275.533C383.956 278.188 380.813 274.11 380.184 271.74C379.925 274.734 377.959 276.18 366.546 275.636C355.134 275.091 357.836 281.82 358.623 280.126C358.302 282.451 351.13 274.478 346.304 274.932C342.359 275.304 344.281 280.902 345.07 281.685C345.186 281.615 345.28 281.514 345.352 281.376C345.366 281.794 345.246 281.859 345.07 281.685C343.504 282.623 337.967 277.816 331.621 277.811C324.804 277.805 323.358 284.799 322.427 283.537C320.727 285.587 314.776 280.046 310.211 279.828C305.646 279.61 304.59 286.567 303.927 285.28C302.068 287.075 300.231 278.015 296.893 277.034C293.554 276.052 288.359 285.127 287.538 283.585C286.935 285.801 287.059 278.36 283.277 276.125C280.139 274.269 278.121 279.248 277.828 280.118C277.843 280.092 277.857 280.067 277.872 280.041C277.781 280.302 277.768 280.296 277.828 280.118C275.309 284.594 273.842 284.016 267.35 273.353Z" fill="white"/>
<path d="M267.721 279.784C264.885 281.266 258.58 282.67 256.044 276.429C253.191 276.293 247.145 275 245.787 270.916C244.088 265.812 246.298 259.124 256.064 259.419C265.83 259.713 267.703 262.372 269.123 260.213C270.542 258.054 269.8 254.48 273.344 253.336C276.888 252.192 276.963 252.995 277.541 250.51C278.118 248.026 279.121 241.452 284.889 238.074C289.504 235.371 294.193 234.902 295.961 235.005C296.107 230.807 298.317 221.257 305.998 216.646C315.598 210.881 320.751 209.586 333.975 216.439C338.407 214.672 348.912 212.197 355.48 216.437C363.688 221.738 365.349 226.442 366.129 230.418C366.754 233.599 367.664 233.783 368.041 233.477C371.706 232.187 380.326 230.376 385.485 233.453C390.644 236.531 395.12 242.4 396.713 244.949C398.425 243.033 403.257 239.474 408.877 240.564C415.904 241.926 418.018 251.446 414.952 253.355C415.073 254.64 413.889 256.425 413.281 257.157C415.246 257.917 418.566 260.709 416.124 265.799C413.683 270.888 409.729 271.126 408.057 270.609C409.356 272.916 410.07 278.194 402.53 280.849C394.99 283.503 391.846 279.426 391.217 277.055C390.958 280.049 387.588 285.902 376.175 285.357C366.594 284.9 364.156 282.343 364.085 280.531C363.459 283.007 361.516 286.739 357.273 287.138C352.447 287.593 351.08 283.132 351 280.845C349.97 282.832 346.205 286.804 339.388 286.799C332.571 286.793 329.006 284.268 328.075 283.005C326.375 285.055 321.833 289.101 317.268 288.883C312.703 288.666 310.238 286.036 309.575 284.749C307.716 286.544 303.162 289.889 299.823 288.907C296.485 287.926 294.007 284.596 293.186 283.053C292.583 285.27 290.432 289.144 286.651 286.909C282.87 284.673 282.988 281.045 283.519 279.51C280.974 284.069 274.25 290.508 267.721 279.784Z" fill="#F8F7CB"/>
<path d="M935.234 246.768C930.477 249.255 922.039 250.401 912.171 251.331C907.385 251.102 897.243 248.934 894.965 242.083C892.05 233.318 892.22 229.004 907.015 221.954C920.36 215.595 931.687 225.34 934.068 221.719C936.45 218.097 929.868 216.001 935.813 214.082C941.758 212.163 941.885 213.51 942.853 209.342C943.822 205.175 945.505 194.147 955.181 188.48C962.921 183.947 970.787 183.16 973.753 183.334C973.997 176.291 977.705 160.272 990.589 152.536C1006.69 142.867 1015.34 140.694 1037.52 152.19C1044.95 149.224 1062.58 145.073 1073.59 152.187C1087.36 161.079 1090.15 168.969 1091.46 175.638C1092.5 180.974 1094.03 181.283 1094.66 180.77C1100.81 178.606 1110.57 182.858 1119.22 188.021C1127.88 193.183 1140.09 195.737 1142.76 200.014C1143.02 199.718 1143.21 199.477 1143.34 199.286C1143.21 198.595 1143.97 198.346 1143.34 199.286C1143.47 199.981 1144.52 201.124 1148.81 201.956C1160.59 204.241 1178.5 210.912 1173.35 214.114C1173.56 216.269 1171.57 219.264 1170.55 220.492C1173.85 221.767 1179.42 226.45 1175.32 234.988C1171.23 243.526 1164.59 243.924 1161.79 243.056C1163.97 246.927 1156.13 245.973 1143.48 250.426C1130.83 254.879 1125.56 248.039 1124.51 244.063C1124.07 249.085 1120.77 251.511 1101.63 250.598C1082.49 249.685 1087.02 260.971 1088.34 258.129C1087.8 262.03 1075.77 248.655 1067.67 249.418C1061.06 250.042 1064.28 259.431 1065.6 260.744C1065.8 260.627 1065.96 260.458 1066.08 260.227C1066.1 260.928 1065.9 261.038 1065.6 260.744C1062.98 262.319 1053.69 254.255 1043.04 254.246C1031.61 254.237 1029.18 265.968 1027.62 263.851C1024.77 267.29 1014.79 257.996 1007.13 257.63C999.473 257.265 997.701 268.935 996.59 266.775C993.471 269.787 990.39 254.589 984.79 252.943C979.19 251.297 970.475 266.519 969.097 263.932C968.086 267.65 968.294 255.168 961.951 251.418C956.687 248.306 953.3 256.657 952.81 258.116C952.834 258.074 952.858 258.031 952.883 257.987C952.731 258.425 952.71 258.416 952.81 258.116C948.585 265.625 946.124 264.656 935.234 246.768Z" fill="white"/>
<path d="M935.855 257.556C931.098 260.042 920.521 262.397 916.267 251.929C911.481 251.701 901.34 249.532 899.061 242.681C896.212 234.119 899.919 222.9 916.301 223.394C932.682 223.889 935.824 228.348 938.206 224.727C940.587 221.106 939.341 215.11 945.286 213.191C951.231 211.272 951.358 212.619 952.326 208.451C953.295 204.284 954.978 193.256 964.653 187.589C972.394 183.056 980.26 182.269 983.226 182.443C983.47 175.4 987.178 159.381 1000.06 151.645C1016.17 141.976 1024.81 139.802 1046.99 151.298C1054.43 148.333 1072.05 144.182 1083.06 151.295C1096.83 160.188 1099.62 168.078 1100.93 174.747C1101.98 180.083 1103.5 180.392 1104.14 179.879C1110.28 177.715 1124.74 174.676 1133.4 179.839C1142.05 185.001 1149.56 194.846 1152.23 199.123C1155.1 195.909 1163.21 189.938 1172.64 191.766C1184.42 194.052 1187.97 210.021 1182.83 213.223C1183.03 215.378 1181.04 218.373 1180.02 219.601C1183.32 220.876 1188.89 225.559 1184.79 234.097C1180.7 242.634 1174.07 243.033 1171.26 242.165C1173.44 246.036 1174.64 254.89 1161.99 259.342C1149.34 263.795 1144.07 256.955 1143.01 252.979C1142.58 258.001 1136.92 267.818 1117.78 266.905C1101.71 266.138 1097.62 261.849 1097.5 258.81C1096.45 262.963 1093.19 269.222 1086.07 269.893C1077.98 270.656 1075.68 263.173 1075.55 259.336C1073.82 262.669 1067.51 269.333 1056.07 269.324C1044.64 269.314 1038.66 265.077 1037.1 262.96C1034.24 266.399 1026.63 273.185 1018.97 272.82C1011.31 272.455 1007.17 268.044 1006.06 265.884C1002.94 268.896 995.305 274.507 989.705 272.86C984.104 271.214 979.948 265.628 978.57 263.041C977.559 266.759 973.952 273.258 967.609 269.508C961.266 265.758 961.464 259.671 962.355 257.096C958.085 264.745 946.807 275.545 935.855 257.556Z" fill="#F8F7CB"/>
<path d="M280.168 404.164C260.743 420.212 251.327 402.432 249.047 391.536C247.74 404.09 240.202 425.408 220.502 410.257C200.802 395.106 212.168 374.394 220.313 365.931C211.827 373.524 192.341 383.826 182.286 364.29C169.717 339.87 218.214 343.425 211.103 342.451C205.415 341.672 199.434 338.75 197.154 337.386C181.671 328.408 188.354 309.231 202.354 302.987C213.554 297.992 222.493 312.397 225.563 320.224C227.16 310.316 234.173 292.614 249.453 301.07C264.732 309.527 258.559 328.102 253.563 336.333C261.754 327.351 280.956 315.054 292.238 337.72C303.521 360.387 280.877 371.024 268.145 373.51C280.246 377.041 299.593 388.117 280.168 404.164Z" fill="#A3CF2A"/>
<path d="M269.634 568.466L290.057 574.964L303.982 563.824L299.34 457.993L323.477 425.501V413.433L299.34 442.211L303.982 381.869L277.06 403.221V442.211H258.493L250.138 425.501L244.568 432.928L258.493 451.495L277.06 457.993L269.634 568.466Z" fill="#B07D56"/>
<path d="M178.579 432.568C170.732 408.625 190.722 406.351 201.698 408.207C190.489 402.407 173.395 387.604 194.693 374.797C215.991 361.99 216.717 366.553 229.25 373.051C229.25 358.265 229.579 358.232 251.145 356.034L251.441 356.004C278.764 353.22 257.746 397.071 261.249 390.806C264.051 385.795 268.955 381.294 271.057 379.67C285.069 368.533 300.482 381.758 301.183 397.071C301.743 409.321 285.069 412.384 276.662 412.384C285.303 417.488 299.221 430.48 285.77 441.617C272.318 452.754 257.279 440.225 251.441 432.568C256.812 443.473 261.249 465.839 236.028 468.067C210.806 470.294 207.42 459.615 209.755 446.854C202.048 456.831 186.425 456.512 178.579 432.568Z" fill="#93BA24"/>
<path d="M189.401 428.748C182.959 409.185 199.369 407.327 208.379 408.844C199.178 404.105 185.145 392.011 202.628 381.547C220.112 371.082 220.709 374.811 230.996 380.12C230.996 368.039 231.267 368.012 248.97 366.217L249.213 366.192C271.642 363.917 254.389 399.745 257.264 394.627C259.565 390.532 263.59 386.855 265.316 385.528C276.818 376.429 289.471 387.234 290.046 399.745C290.506 409.754 276.818 412.256 269.917 412.256C277.01 416.427 288.435 427.043 277.393 436.142C266.351 445.241 254.005 435.004 249.213 428.748C253.622 437.658 257.264 455.932 236.56 457.752C215.856 459.572 213.076 450.847 214.993 440.421C208.667 448.572 195.842 448.311 189.401 428.748Z" fill="#7DA314"/>
<path d="M253.774 360.156C245.927 336.212 265.918 333.939 276.894 335.795C265.684 329.995 248.59 315.192 269.888 302.385C291.186 289.578 306.319 307.721 311.223 318.394C307.253 307.722 304.777 285.82 326.636 283.592C353.959 280.808 332.941 324.659 336.444 318.394C339.247 313.383 344.151 308.882 346.253 307.258C360.264 296.121 375.677 309.346 376.378 324.659C376.939 336.909 360.264 339.971 351.857 339.971C360.498 345.076 374.416 358.068 360.965 369.205C347.514 380.342 332.474 367.813 326.636 360.156C332.007 371.061 336.444 393.427 311.223 395.654C286.002 397.882 284.367 372.917 286.702 360.156C278.996 370.133 261.621 384.1 253.774 360.156Z" fill="#93BA24"/>
<path d="M262.329 392.239C253.604 365.525 275.832 362.988 288.036 365.059C275.572 358.587 256.564 342.072 280.246 327.783C303.929 313.494 320.755 333.737 326.209 345.645C321.794 333.737 319.042 309.301 343.347 306.816C373.729 303.71 350.358 352.634 354.253 345.645C357.369 340.053 362.822 335.031 365.159 333.219C380.74 320.794 397.878 335.549 398.657 352.634C399.28 366.301 380.74 369.718 371.392 369.718C380.999 375.413 396.476 389.909 381.519 402.334C366.562 414.759 349.839 400.781 343.347 392.239C349.319 404.405 354.253 429.359 326.209 431.844C298.164 434.329 296.346 406.476 298.943 392.239C290.374 403.369 271.054 418.953 262.329 392.239Z" fill="#83A61E"/>
<path d="M290.909 433.496C283.062 409.552 303.052 407.279 314.028 409.135C302.819 403.334 285.725 388.532 307.023 375.725C328.321 362.918 343.454 381.061 348.358 391.734C344.388 381.061 341.912 359.159 363.771 356.932C391.094 354.148 370.076 397.998 373.579 391.734C376.381 386.722 381.286 382.221 383.387 380.597C397.399 369.461 412.812 382.686 413.513 397.998C414.073 410.249 397.399 413.311 388.992 413.311C397.633 418.416 411.551 431.408 398.1 442.545C384.648 453.681 369.609 441.153 363.771 433.496C369.142 444.401 373.579 466.767 348.358 468.994C323.136 471.222 321.502 446.257 323.837 433.496C316.13 443.473 298.755 457.44 290.909 433.496Z" fill="#A3CF2A"/>
<path d="M317.065 391.572C312.933 396.71 320.939 403.347 325.458 406.023C327.18 407.629 329.59 410.905 325.458 411.162C320.293 411.483 309.963 411.804 311.578 420.474C313.192 429.145 317.065 430.43 325.458 423.686C333.851 416.942 333.529 425.934 335.466 436.531C337.403 447.128 349.992 440.706 353.22 434.925C356.449 429.145 349.992 418.226 348.378 417.263C346.764 416.3 344.182 408.914 341.276 406.023C338.371 403.133 344.182 396.068 335.466 388.682C326.75 381.296 322.23 385.15 317.065 391.572Z" fill="#ABDE1F"/>
<path d="M308.159 374.908C329.325 363.768 343.126 380.014 347.149 389.297L348.077 390.69C340.706 384.191 321.659 373.98 310.015 383.263C298.371 392.547 311.972 406.627 320.227 412.506C312.182 412.095 296.647 415.047 298.875 430.145C301.103 445.243 318.371 435.507 326.726 428.752C327.499 439.556 333.131 461.088 349.47 460.78C365.809 460.472 366.18 443.013 364.323 434.322C365.251 436.642 366.902 441.957 367.108 443.605C367.572 447.318 369.429 458.459 364.323 462.172C359.218 465.886 354.111 471.919 338.794 468.67C325.078 465.761 321.155 448.247 323.476 434.322C319.763 439.427 310.572 446.854 303.517 446.854C294.698 446.854 286.343 429.68 290.52 417.612C293.862 407.957 306.766 407.4 313.265 408.792L310.015 406.936C300.577 401.057 286.993 386.048 308.159 374.908Z" fill="#597609" fill-opacity="0.7"/>
<path d="M202.329 307.139C184.876 320.135 193.2 330.502 199.544 334.06L204.185 336.845C202.174 334.525 197.78 328.676 196.294 323.849C194.809 319.021 202.793 308.84 206.97 304.354L202.329 307.139Z" fill="#ABDE1F"/>
<path d="M339.258 310.387C363.395 303.331 356.742 330.346 350.398 344.735C351.171 336.071 351.79 317.72 348.077 313.636C343.435 308.53 333.688 312.707 339.258 310.387Z" fill="#74980F"/>
<path d="M262.206 308.995C255.894 316.05 262.361 324.622 266.384 328.026L271.025 331.739C267.216 326.633 262.719 314.287 275.203 305.746C287.687 297.205 305.779 312.708 313.265 321.528C310.635 313.637 308.809 296.462 322.548 290.892C336.288 285.322 339.413 298.474 339.259 305.746C339.723 303.734 340.651 298.876 340.651 295.534C340.651 291.356 338.794 288.107 336.938 286.251C335.081 284.394 328.118 280.217 315.586 288.107C305.56 294.42 307.695 309.614 310.016 316.422C300.732 298.783 288.664 297.855 283.094 297.855C277.524 297.855 270.097 300.176 262.206 308.995Z" fill="#7DA314"/>
<path d="M299.34 457.53L305.374 449.639L291.449 458.458L290.057 463.564L300.268 480.274L299.34 457.53Z" fill="#855633"/>
<path d="M292.099 542.48C291.356 538.395 293.027 531.185 293.956 528.091C295.813 523.449 297.205 531.34 296.741 537.374C296.277 543.409 297.669 542.48 297.205 549.907C296.741 557.334 293.027 558.262 293.956 553.156C294.884 548.05 293.027 547.586 292.099 542.48Z" fill="#855633"/>
<path d="M284.951 534.582C283.094 540.524 275.204 545.413 271.49 547.115L277.06 460.779C277.679 462.017 280.124 465.235 284.951 468.206C290.985 471.919 290.985 483.988 289.129 486.773C287.272 489.558 289.593 495.592 289.129 503.483C288.665 511.374 293.306 512.302 290.985 517.408C288.665 522.514 287.272 527.156 284.951 534.582Z" fill="#9D5823"/>
<path d="M271.49 541.08L274.739 491.414L276.132 473.775C278.917 477.179 284.58 484.173 284.951 484.915C285.415 485.844 279.381 503.482 279.381 508.124C279.381 512.766 284.023 517.872 283.094 522.049C282.352 525.391 275.049 536.129 271.49 541.08Z" fill="#855633"/>
<path d="M88.168 428.164C68.7427 444.212 59.3267 426.432 57.0469 415.536C55.7402 428.09 48.2016 449.408 28.5019 434.257C8.8022 419.106 20.1676 398.394 28.3127 389.931C19.8266 397.524 0.340774 407.826 -9.71412 388.29C-22.2827 363.87 26.2144 367.425 19.1034 366.451C13.4147 365.672 7.43382 362.75 5.15449 361.386C-10.3294 352.408 -3.64571 333.231 10.354 326.987C21.5538 321.992 30.4933 336.397 33.563 344.224C35.1598 334.316 42.1733 316.614 57.4526 325.07C72.7318 333.527 66.5595 352.102 61.5634 360.333C69.7539 351.351 88.9557 339.054 100.238 361.72C111.521 384.387 88.8771 395.024 76.1447 397.51C88.2464 401.041 107.593 412.117 88.168 428.164Z" fill="#A3CF2A"/>
<path d="M77.6336 592.466L98.0571 598.964L111.982 587.824L107.34 481.993L131.477 449.501V437.433L107.34 466.211L111.982 405.869L85.0603 427.221V466.211H66.4935L58.1384 449.501L52.5684 456.928L66.4935 475.495L85.0603 481.993L77.6336 592.466Z" fill="#B07D56"/>
<path d="M-13.4212 456.568C-21.2679 432.625 -1.27764 430.351 9.69831 432.207C-1.51107 426.407 -18.6053 411.604 2.69267 398.797C23.9907 385.99 24.7175 390.553 37.2501 397.051C37.2501 382.265 37.5792 382.232 59.1446 380.034L59.4407 380.004C86.7638 377.22 65.746 421.071 69.249 414.806C72.0513 409.795 76.9555 405.294 79.0573 403.67C93.0691 392.533 108.482 405.758 109.183 421.071C109.743 433.321 93.0691 436.384 84.662 436.384C93.3027 441.488 107.221 454.48 93.7697 465.617C80.3183 476.754 65.2789 464.225 59.4407 456.568C64.8119 467.473 69.249 489.839 44.0276 492.067C18.8063 494.294 15.4196 483.615 17.7549 470.854C10.0483 480.831 -5.57461 480.512 -13.4212 456.568Z" fill="#93BA24"/>
<path d="M-2.59941 452.748C-9.04068 433.185 7.36922 431.327 16.3793 432.844C7.17759 428.105 -6.85501 416.011 10.6284 405.547C28.1119 395.082 28.7085 398.811 38.9965 404.12C38.9965 392.039 39.2666 392.012 56.9696 390.217L57.2126 390.192C79.642 387.917 62.3886 423.745 65.2642 418.627C67.5646 414.532 71.5904 410.855 73.3158 409.528C84.818 400.429 97.4705 411.234 98.0456 423.745C98.5057 433.754 84.818 436.256 77.9167 436.256C85.0098 440.427 96.4353 451.043 85.3932 460.142C74.351 469.241 62.0052 459.004 57.2126 452.748C61.6218 461.658 65.2642 479.932 44.5601 481.752C23.856 483.572 21.0759 474.847 22.993 464.421C16.6666 472.572 3.84186 472.311 -2.59941 452.748Z" fill="#7DA314"/>
<path d="M61.7741 384.156C53.9274 360.212 73.9177 357.939 84.8936 359.795C73.6842 353.995 56.59 339.192 77.888 326.385C99.186 313.578 114.319 331.721 119.223 342.394C115.253 331.722 112.777 309.82 134.636 307.592C161.959 304.808 140.941 348.659 144.444 342.394C147.247 337.383 152.151 332.882 154.253 331.258C168.264 320.121 183.677 333.346 184.378 348.659C184.939 360.909 168.264 363.971 159.857 363.971C168.498 369.076 182.416 382.068 168.965 393.205C155.514 404.342 140.474 391.813 134.636 384.156C140.007 395.061 144.444 417.427 119.223 419.654C94.0016 421.882 92.3669 396.917 94.7022 384.156C86.9956 394.133 69.6207 408.1 61.7741 384.156Z" fill="#93BA24"/>
<path d="M70.3288 416.239C61.6038 389.525 83.8317 386.988 96.0363 389.059C83.5722 382.587 64.5644 366.072 88.2465 351.783C111.929 337.494 128.755 357.737 134.209 369.645C129.794 357.737 127.042 333.301 151.347 330.816C181.729 327.71 158.358 376.634 162.253 369.645C165.369 364.053 170.822 359.031 173.159 357.219C188.74 344.794 205.878 359.549 206.657 376.634C207.28 390.301 188.74 393.718 179.392 393.718C188.999 399.413 204.476 413.909 189.519 426.334C174.562 438.759 157.839 424.781 151.347 416.239C157.319 428.405 162.253 453.359 134.209 455.844C106.164 458.329 104.346 430.476 106.943 416.239C98.3736 427.369 79.0538 442.953 70.3288 416.239Z" fill="#83A61E"/>
<path d="M98.9088 457.496C91.0622 433.552 111.052 431.279 122.028 433.135C110.819 427.334 93.7247 412.532 115.023 399.725C136.321 386.918 151.454 405.061 156.358 415.734C152.388 405.061 149.912 383.159 171.771 380.932C199.094 378.148 178.076 421.998 181.579 415.734C184.381 410.722 189.286 406.221 191.387 404.597C205.399 393.461 220.812 406.686 221.513 421.998C222.073 434.249 205.399 437.311 196.992 437.311C205.633 442.416 219.551 455.408 206.1 466.545C192.648 477.681 177.609 465.153 171.771 457.496C177.142 468.401 181.579 490.767 156.358 492.994C131.136 495.222 129.502 470.257 131.837 457.496C124.13 467.473 106.755 481.44 98.9088 457.496Z" fill="#A3CF2A"/>
<path d="M125.065 415.572C120.933 420.71 128.939 427.347 133.458 430.023C135.18 431.629 137.59 434.905 133.458 435.162C128.293 435.483 117.963 435.804 119.578 444.474C121.192 453.145 125.065 454.43 133.458 447.686C141.851 440.942 141.529 449.934 143.466 460.531C145.403 471.128 157.992 464.706 161.22 458.925C164.449 453.145 157.992 442.226 156.378 441.263C154.764 440.3 152.182 432.914 149.276 430.023C146.371 427.133 152.182 420.068 143.466 412.682C134.75 405.296 130.23 409.15 125.065 415.572Z" fill="#ABDE1F"/>
<path d="M116.159 398.908C137.325 387.768 151.126 404.014 155.149 413.297L156.077 414.69C148.706 408.191 129.659 397.98 118.015 407.263C106.371 416.547 119.972 430.627 128.227 436.506C120.182 436.095 104.647 439.047 106.875 454.145C109.103 469.243 126.371 459.507 134.726 452.752C135.499 463.556 141.131 485.088 157.47 484.78C173.809 484.472 174.18 467.013 172.323 458.322C173.251 460.642 174.902 465.957 175.108 467.605C175.572 471.318 177.429 482.459 172.323 486.172C167.218 489.886 162.111 495.919 146.794 492.67C133.078 489.761 129.155 472.247 131.476 458.322C127.763 463.427 118.572 470.854 111.517 470.854C102.698 470.854 94.3429 453.68 98.5205 441.612C101.862 431.957 114.766 431.4 121.265 432.792L118.015 430.936C108.577 425.057 94.9926 410.048 116.159 398.908Z" fill="#597609" fill-opacity="0.7"/>
<path d="M10.3286 331.139C-7.12424 344.135 1.19988 354.502 7.54355 358.06L12.1852 360.845C10.1738 358.525 5.77966 352.676 4.29432 347.849C2.80897 343.021 10.7927 332.84 14.9702 328.354L10.3286 331.139Z" fill="#ABDE1F"/>
<path d="M147.258 334.387C171.395 327.331 164.742 354.346 158.398 368.735C159.171 360.071 159.79 341.72 156.077 337.636C151.435 332.53 141.688 336.707 147.258 334.387Z" fill="#74980F"/>
<path d="M70.2063 332.995C63.8936 340.05 70.3611 348.622 74.3839 352.026L79.0255 355.739C75.2165 350.633 70.7193 338.287 83.203 329.746C95.6867 321.205 113.779 336.708 121.265 345.528C118.635 337.637 116.809 320.462 130.548 314.892C144.288 309.322 147.413 322.474 147.259 329.746C147.723 327.734 148.651 322.876 148.651 319.534C148.651 315.356 146.794 312.107 144.938 310.251C143.081 308.394 136.118 304.217 123.586 312.107C113.56 318.42 115.695 333.614 118.016 340.422C108.732 322.783 96.664 321.855 91.0939 321.855C85.5239 321.855 78.0972 324.176 70.2063 332.995Z" fill="#7DA314"/>
<path d="M107.34 481.53L113.374 473.639L99.4492 482.458L98.0566 487.564L108.268 504.274L107.34 481.53Z" fill="#855633"/>
<path d="M100.099 566.48C99.3565 562.395 101.027 555.185 101.956 552.091C103.813 547.449 105.205 555.34 104.741 561.374C104.277 567.409 105.669 566.48 105.205 573.907C104.741 581.334 101.027 582.262 101.956 577.156C102.884 572.05 101.027 571.586 100.099 566.48Z" fill="#855633"/>
<path d="M92.9512 558.582C91.0945 564.524 83.2036 569.413 79.4902 571.115L85.0603 484.779C85.6792 486.017 88.1238 489.235 92.9512 492.206C98.9854 495.919 98.9854 507.988 97.1287 510.773C95.272 513.558 97.5929 519.592 97.1287 527.483C96.6645 535.374 101.306 536.302 98.9854 541.408C96.6645 546.514 95.272 551.156 92.9512 558.582Z" fill="#9D5823"/>
<path d="M79.4902 565.08L82.7394 515.414L84.1319 497.775C86.917 501.179 92.5798 508.173 92.9512 508.915C93.4153 509.844 87.3811 527.482 87.3811 532.124C87.3811 536.766 92.0228 541.872 91.0945 546.049C90.3518 549.391 83.0489 560.129 79.4902 565.08Z" fill="#855633"/>
<path d="M224.168 482.164C204.743 498.212 195.327 480.432 193.047 469.536C191.74 482.09 184.202 503.408 164.502 488.257C144.802 473.106 156.168 452.394 164.313 443.931C155.827 451.524 136.341 461.826 126.286 442.29C113.717 417.87 162.214 421.425 155.103 420.451C149.415 419.672 143.434 416.75 141.154 415.386C125.671 406.408 132.354 387.231 146.354 380.987C157.554 375.992 166.493 390.397 169.563 398.224C171.16 388.316 178.173 370.614 193.453 379.07C208.732 387.527 202.559 406.102 197.563 414.333C205.754 405.351 224.956 393.054 236.238 415.72C247.521 438.387 224.877 449.024 212.145 451.51C224.246 455.041 243.593 466.117 224.168 482.164Z" fill="#A3CF2A"/>
<path d="M213.634 646.466L234.057 652.964L247.982 641.824L243.34 535.993L267.477 503.501V491.433L243.34 520.211L247.982 459.869L221.06 481.221V520.211H202.493L194.138 503.501L188.568 510.928L202.493 529.495L221.06 535.993L213.634 646.466Z" fill="#B07D56"/>
<path d="M122.579 510.568C114.732 486.625 134.722 484.351 145.698 486.207C134.489 480.407 117.395 465.604 138.693 452.797C159.991 439.99 160.717 444.553 173.25 451.051C173.25 436.265 173.579 436.232 195.145 434.034L195.441 434.004C222.764 431.22 201.746 475.071 205.249 468.806C208.051 463.795 212.955 459.294 215.057 457.67C229.069 446.533 244.482 459.758 245.183 475.071C245.743 487.321 229.069 490.384 220.662 490.384C229.303 495.488 243.221 508.48 229.77 519.617C216.318 530.754 201.279 518.225 195.441 510.568C200.812 521.473 205.249 543.839 180.028 546.067C154.806 548.294 151.42 537.615 153.755 524.854C146.048 534.831 130.425 534.512 122.579 510.568Z" fill="#93BA24"/>
<path d="M133.401 506.748C126.959 487.185 143.369 485.327 152.379 486.844C143.178 482.105 129.145 470.011 146.628 459.547C164.112 449.082 164.709 452.811 174.996 458.12C174.996 446.039 175.267 446.012 192.97 444.217L193.213 444.192C215.642 441.917 198.389 477.745 201.264 472.627C203.565 468.532 207.59 464.855 209.316 463.528C220.818 454.429 233.471 465.234 234.046 477.745C234.506 487.754 220.818 490.256 213.917 490.256C221.01 494.427 232.435 505.043 221.393 514.142C210.351 523.241 198.005 513.004 193.213 506.748C197.622 515.658 201.264 533.932 180.56 535.752C159.856 537.572 157.076 528.847 158.993 518.421C152.667 526.572 139.842 526.311 133.401 506.748Z" fill="#7DA314"/>
<path d="M197.774 438.156C189.927 414.212 209.918 411.939 220.894 413.795C209.684 407.995 192.59 393.192 213.888 380.385C235.186 367.578 250.319 385.721 255.223 396.394C251.253 385.722 248.777 363.82 270.636 361.592C297.959 358.808 276.941 402.659 280.444 396.394C283.247 391.383 288.151 386.882 290.253 385.258C304.264 374.121 319.677 387.346 320.378 402.659C320.939 414.909 304.264 417.971 295.857 417.971C304.498 423.076 318.416 436.068 304.965 447.205C291.514 458.342 276.474 445.813 270.636 438.156C276.007 449.061 280.444 471.427 255.223 473.654C230.002 475.882 228.367 450.917 230.702 438.156C222.996 448.133 205.621 462.1 197.774 438.156Z" fill="#93BA24"/>
<path d="M206.329 470.239C197.604 443.525 219.832 440.988 232.036 443.059C219.572 436.587 200.564 420.072 224.246 405.783C247.929 391.494 264.755 411.737 270.209 423.645C265.794 411.737 263.042 387.301 287.347 384.816C317.729 381.71 294.358 430.634 298.253 423.645C301.369 418.053 306.822 413.031 309.159 411.219C324.74 398.794 341.878 413.549 342.657 430.634C343.28 444.301 324.74 447.718 315.392 447.718C324.999 453.413 340.476 467.909 325.519 480.334C310.562 492.759 293.839 478.781 287.347 470.239C293.319 482.405 298.253 507.359 270.209 509.844C242.164 512.329 240.346 484.476 242.943 470.239C234.374 481.369 215.054 496.953 206.329 470.239Z" fill="#83A61E"/>
<path d="M234.909 511.496C227.062 487.552 247.052 485.279 258.028 487.135C246.819 481.334 229.725 466.532 251.023 453.725C272.321 440.918 287.454 459.061 292.358 469.734C288.388 459.061 285.912 437.159 307.771 434.932C335.094 432.148 314.076 475.998 317.579 469.734C320.381 464.722 325.286 460.221 327.387 458.597C341.399 447.461 356.812 460.686 357.513 475.998C358.073 488.249 341.399 491.311 332.992 491.311C341.633 496.416 355.551 509.408 342.1 520.545C328.648 531.681 313.609 519.153 307.771 511.496C313.142 522.401 317.579 544.767 292.358 546.994C267.136 549.222 265.502 524.257 267.837 511.496C260.13 521.473 242.755 535.44 234.909 511.496Z" fill="#95C01D"/>
<path d="M261.065 469.572C256.933 474.71 264.939 481.347 269.458 484.023C271.18 485.629 273.59 488.905 269.458 489.162C264.293 489.483 253.963 489.804 255.578 498.474C257.192 507.145 261.065 508.43 269.458 501.686C277.851 494.942 277.529 503.934 279.466 514.531C281.403 525.128 293.992 518.706 297.22 512.925C300.449 507.145 293.992 496.226 292.378 495.263C290.764 494.3 288.182 486.914 285.276 484.023C282.371 481.133 288.182 474.068 279.466 466.682C270.75 459.296 266.23 463.15 261.065 469.572Z" fill="#ABDE1F"/>
<path d="M252.159 452.908C273.325 441.768 287.126 458.014 291.149 467.297L292.077 468.69C284.706 462.191 265.659 451.98 254.015 461.263C242.371 470.547 255.972 484.627 264.227 490.506C256.182 490.095 240.647 493.047 242.875 508.145C245.103 523.243 262.371 513.507 270.726 506.752C271.499 517.556 277.131 539.088 293.47 538.78C309.809 538.472 310.18 521.013 308.323 512.322C309.251 514.642 310.902 519.957 311.108 521.605C311.572 525.318 313.429 536.459 308.323 540.172C303.218 543.886 298.111 549.919 282.794 546.67C269.078 543.761 265.155 526.247 267.476 512.322C263.763 517.427 254.572 524.854 247.517 524.854C238.698 524.854 230.343 507.68 234.52 495.612C237.862 485.957 250.766 485.4 257.265 486.792L254.015 484.936C244.577 479.057 230.993 464.048 252.159 452.908Z" fill="#597609" fill-opacity="0.7"/>
<path d="M146.329 385.139C128.876 398.135 137.2 408.502 143.544 412.06L148.185 414.845C146.174 412.525 141.78 406.676 140.294 401.849C138.809 397.021 146.793 386.84 150.97 382.354L146.329 385.139Z" fill="#ABDE1F"/>
<path d="M283.258 388.387C307.395 381.331 300.742 408.346 294.398 422.735C295.171 414.071 295.79 395.72 292.077 391.636C287.435 386.53 277.688 390.707 283.258 388.387Z" fill="#74980F"/>
<path d="M206.206 386.995C199.894 394.05 206.361 402.622 210.384 406.026L215.025 409.739C211.216 404.633 206.719 392.287 219.203 383.746C231.687 375.205 249.779 390.708 257.265 399.528C254.635 391.637 252.809 374.462 266.548 368.892C280.288 363.322 283.413 376.474 283.259 383.746C283.723 381.734 284.651 376.876 284.651 373.534C284.651 369.356 282.794 366.107 280.938 364.251C279.081 362.394 272.118 358.217 259.586 366.107C249.56 372.42 251.695 387.614 254.016 394.422C244.732 376.783 232.664 375.855 227.094 375.855C221.524 375.855 214.097 378.176 206.206 386.995Z" fill="#7DA314"/>
<path d="M243.34 535.53L249.374 527.639L235.449 536.458L234.057 541.564L244.268 558.274L243.34 535.53Z" fill="#855633"/>
<path d="M236.099 620.48C235.356 616.395 237.027 609.185 237.956 606.091C239.813 601.449 241.205 609.34 240.741 615.374C240.277 621.409 241.669 620.48 241.205 627.907C240.741 635.334 237.027 636.262 237.956 631.156C238.884 626.05 237.027 625.586 236.099 620.48Z" fill="#855633"/>
<path d="M228.951 612.582C227.094 618.524 219.204 623.413 215.49 625.115L221.06 538.779C221.679 540.017 224.124 543.235 228.951 546.206C234.985 549.919 234.985 561.988 233.129 564.773C231.272 567.558 233.593 573.592 233.129 581.483C232.665 589.374 237.306 590.302 234.985 595.408C232.665 600.514 231.272 605.156 228.951 612.582Z" fill="#9D5823"/>
<path d="M215.49 619.08L218.739 569.414L220.132 551.775C222.917 555.179 228.58 562.173 228.951 562.915C229.415 563.844 223.381 581.482 223.381 586.124C223.381 590.766 228.023 595.872 227.094 600.049C226.352 603.391 219.049 614.129 215.49 619.08Z" fill="#855633"/>
<path d="M852.049 584.9C852.049 584.9 860.228 590.208 862.851 592.9C862.851 592.9 872.925 596.054 873.594 596.322C874.263 596.591 873.253 598.74 873.253 598.74C873.253 598.74 863.656 598.064 860.721 596.762C857.786 595.46 847.967 591.485 847.344 588.163C846.721 584.841 852.049 584.9 852.049 584.9Z" fill="#EA9C68"/>
<path d="M842.42 646.735L840.588 656.485H837.262L836.402 644.586L842.42 646.735Z" fill="#FFB27D"/>
<path d="M857.404 645.859L859.484 656.604L856.569 656.725L851.025 646.25L857.404 645.859Z" fill="#FFB27D"/>
<path d="M840.655 656.115C840.655 656.115 841.44 657.547 842.939 657.871C843.83 658.043 844.627 658.533 845.183 659.25C845.279 659.381 845.336 659.535 845.35 659.696C845.363 659.857 845.331 660.019 845.258 660.163C845.185 660.307 845.074 660.428 844.936 660.513C844.798 660.598 844.64 660.643 844.478 660.643H836.907C836.755 660.643 836.604 660.611 836.465 660.55C836.326 660.488 836.201 660.398 836.099 660.285C835.997 660.172 835.92 660.039 835.873 659.895C835.825 659.75 835.809 659.598 835.824 659.446C835.879 658.885 835.938 658.232 835.964 657.732C836.02 656.634 837.199 655.65 837.199 655.65C837.199 655.65 838.243 656.24 838.643 656.309C839.517 656.457 840.655 656.115 840.655 656.115Z" fill="#B2443B"/>
<path d="M859.409 656.118C859.409 656.118 860.194 657.553 861.682 657.885C862.572 658.062 863.367 658.557 863.918 659.277C864.013 659.407 864.07 659.562 864.083 659.723C864.096 659.884 864.063 660.046 863.99 660.189C863.916 660.333 863.804 660.454 863.666 660.538C863.528 660.622 863.369 660.667 863.207 660.666L855.634 660.624C855.483 660.622 855.333 660.588 855.195 660.525C855.057 660.462 854.934 660.371 854.832 660.258C854.731 660.145 854.655 660.012 854.607 659.868C854.56 659.724 854.543 659.572 854.558 659.421C854.617 658.859 854.68 658.207 854.715 657.706C854.776 656.608 855.961 655.633 855.961 655.633C855.961 655.633 857 656.229 857.402 656.299C858.268 656.452 859.409 656.118 859.409 656.118Z" fill="#B2443B"/>
<path d="M859.131 646.304C856.968 646.941 854.75 647.374 852.506 647.597C849.233 647.895 845.672 647.597 844.17 645.333C843.735 644.678 843.49 643.539 843.385 642.066C842.757 633.055 847.522 611.541 847.522 611.541H853.082C853.082 611.991 859.131 646.304 859.131 646.304Z" fill="#F99746"/>
<path d="M852.505 647.596C849.233 647.894 845.672 647.596 844.17 645.333C843.735 644.677 843.49 643.539 843.385 642.066C843.385 642.05 843.385 642.034 843.397 642.017C844.284 638.715 846.703 618.254 846.703 618.254C846.703 618.254 855.016 640.144 852.505 647.596Z" fill="#ED7D2B"/>
<path d="M835.352 612.797C835.352 612.797 832.853 629.561 831.725 647.443C831.725 647.443 839.572 650.664 846.852 648.087L848.181 613.986L835.352 612.797Z" fill="#F99746"/>
<path d="M839.094 564.214C839.094 564.214 838.589 561.987 836.476 561.879C836.476 561.879 837.148 562.28 837.261 562.704C837.261 562.704 836.038 561.678 834.144 562.365C832.249 563.052 829.435 564.978 830.848 569.461C832.26 573.944 829.379 575.058 828.216 577.955C827.053 580.852 831.009 581.405 830.189 583.661C829.368 585.917 831.808 591.253 838.014 588.922C844.22 586.591 845.63 577.644 842.993 575.459C840.356 573.274 839.094 564.214 839.094 564.214Z" fill="#B2443B"/>
<path d="M840.983 564.092C840.983 564.092 838.202 563.72 836.476 565.524C835.542 566.498 836.506 567.899 836.506 567.899L840.983 564.092Z" fill="#F99F46"/>
<path d="M849.43 568.408C849.377 568.319 847.163 564.821 843.024 564.123C839.671 563.557 836.532 565.924 836.017 569.283C835.503 572.643 836.027 577.032 841.537 578.607L849.43 568.408Z" fill="#B2443B"/>
<path d="M848.415 583.445L842.179 587.147L840.609 582.755C840.609 582.755 841.331 581.156 841.542 578.598C841.642 577.369 841.608 576.134 841.441 574.912L846.864 577.265C846.795 577.667 846.75 578.073 846.731 578.481C846.664 579.425 846.752 580.375 846.991 581.291C847.237 582.13 847.671 582.919 848.415 583.445Z" fill="#FFB27D"/>
<path d="M846.991 581.292C844.009 581.406 841.535 578.608 841.535 578.608L846.724 578.49C846.661 579.432 846.751 580.378 846.991 581.292Z" fill="#EA9C68"/>
<path d="M848.335 579.537C848.335 579.537 842.479 581.486 840.123 576.884C837.581 571.917 839.776 568.039 841.784 567.66C845.785 566.904 848.219 568.287 849.038 569.871C849.858 571.456 851.568 578.489 848.335 579.537Z" fill="#FFB27D"/>
<path d="M845.807 577.02C845.807 577.02 846.095 577.619 847.645 577.177C847.645 577.177 848.944 576.805 848.751 576.12C848.751 576.117 847.364 575.914 845.807 577.02Z" fill="white"/>
<path d="M856.294 587.771L851.323 583.735C850.677 583.184 849.88 582.84 849.036 582.747C848.685 582.703 847.948 582.566 847.537 582.518C847.606 583.441 847.606 584.19 845.988 584.474C843.835 584.852 841.695 583.551 840.671 582.591C838.985 582.905 838.172 583.117 836.83 583.648C836.111 583.931 835.506 584.442 835.109 585.104C834.711 585.765 834.544 586.54 834.633 587.306L836.287 601.559C836.287 601.559 834.312 613.7 834.653 613.731C836.921 613.948 846.84 615.937 853.93 613.673C855.076 613.306 852.326 606.882 852.877 593.736C856.811 591.38 856.294 587.771 856.294 587.771Z" fill="#35488B"/>
<path d="M844.234 568.21C844.234 568.21 844.311 572.806 841.662 574.32C841.662 574.32 842.709 572.154 842.356 570.831C842.356 570.831 841.671 574.931 839.578 575.645C837.484 576.359 836.426 568.033 840.756 566.359C845.087 564.686 849.357 566.673 849.867 569.6C850.378 572.527 849.99 573.139 849.99 573.139C849.99 573.139 847.964 567.569 844.234 568.21Z" fill="#B2443B"/>
<path d="M834.655 613.733C834.314 613.702 836.293 601.565 836.293 601.565L834.639 587.312C834.555 586.582 834.703 585.845 835.063 585.205C835.187 585.226 835.304 585.28 835.4 585.362C838.87 588.289 842.06 600.15 842.06 600.15C842.06 600.15 843.731 609.756 834.655 613.733Z" fill="#2C3A64"/>
<path d="M834.14 588.912C834.14 588.912 831.185 600.06 831.726 602.11C832.268 604.16 838.02 608.905 838.979 609.215L839.671 607.391C839.671 607.391 835.294 601.357 835.666 600.706C836.466 599.294 839.671 591.078 839.671 591.078L834.14 588.912Z" fill="#FFB27D"/>
<path d="M838.83 593.238C838.83 593.238 835.435 593.831 832.123 590.415C832.123 590.415 834.936 582.187 838.444 583.854C841.951 585.521 841.107 591.254 838.83 593.238Z" fill="#35488B"/>
<path d="M839.669 607.391C839.669 607.391 842.568 607.958 842.69 608.895C842.787 609.643 841.469 610.868 840.761 610.611C840.053 610.354 838.977 609.215 838.977 609.215L839.669 607.391Z" fill="#FFB27D"/>
<path d="M873.593 596.325C873.593 596.325 877.854 594.129 878.232 594.913C878.61 595.698 877.708 598.027 876.805 598.317C875.903 598.607 873.252 598.745 873.252 598.745L873.593 596.325Z" fill="#EA9C68"/>
<path d="M878.89 522.727C878.325 523.724 878.616 542.647 878.055 544.233C876.271 549.316 877.61 562.293 876.643 563.515C875.676 564.736 874.634 567.354 875.158 568.576C875.682 569.798 875.844 571.367 877.029 571.324C878.214 571.282 885.233 529.567 885.311 528.483C885.39 527.399 878.89 522.727 878.89 522.727Z" fill="#FFB27D"/>
<path d="M908.585 552.576C908.585 552.576 910.098 554.438 909.981 555.311C909.865 556.185 908.585 558.279 908.585 558.279C908.585 558.279 905.323 551.704 905.557 551.18C905.791 550.656 907.768 550.248 907.768 550.248L908.585 552.576Z" fill="#FFB27D"/>
<path d="M872.451 655.075L875.581 656.238C875.581 656.238 889.173 637.404 890.848 620.823C891.146 617.863 891.047 614.996 890.4 612.353C890.4 612.353 890.534 611.593 890.766 610.254C890.873 609.627 891.006 608.875 891.157 608.011C891.598 605.481 892.207 602.019 892.902 598.076C894.501 589.004 896.573 577.407 898.182 568.881L897.339 568.611L888.215 565.67L886.332 559.685L879.538 557.896C879.538 557.896 878.018 560.859 876.657 574.874C876.406 576.713 876.187 578.741 876.008 580.938C875.384 589.122 875.602 597.349 876.657 605.489C876.971 607.925 877.362 610.441 877.85 613.018C878.208 614.912 878.263 617.494 878.111 620.459C877.428 634.016 872.451 655.075 872.451 655.075Z" fill="#2A4E96"/>
<path d="M876.01 580.933L890.763 610.244C890.87 609.617 891.003 608.865 891.154 608.001C891.595 605.471 892.204 602.009 892.899 598.066C894.499 588.994 896.571 577.398 898.179 568.871L897.336 568.601L888.213 565.66L886.329 559.675L879.535 557.887C879.535 557.887 878.016 560.856 876.655 574.871C876.408 576.709 876.184 578.737 876.01 580.933Z" fill="#1E3D70"/>
<path d="M882.5 561.652L882.842 558.725C888.563 560.245 903.85 554.49 903.85 554.49C903.85 554.49 909.394 559.353 908.666 571.03C908.311 576.727 907.661 600.936 906.985 608.099C906.74 610.695 906.525 612.543 906.437 613.275C906.436 613.278 906.436 613.281 906.437 613.283C906.423 613.505 906.481 613.725 906.603 613.911C907.588 615.588 908.425 617.347 909.105 619.168C915.755 636.88 908.08 658.695 908.08 658.695L906.088 657.894C906.088 657.894 901.72 633.618 898.172 622.894C897.569 621.074 896.991 619.645 896.461 618.79C894.918 616.301 893.487 612.234 892.187 607.398C889.728 598.254 887.752 586.358 886.435 577.171C886.253 577.184 882.5 561.652 882.5 561.652Z" fill="#2A4E96"/>
<path d="M906.89 519.219C906.882 519.239 906.873 519.258 906.863 519.277C905.125 523.315 901.823 528.574 896.283 529.134C894.596 529.305 892.703 529.04 890.582 528.174C888.149 527.179 886.285 525.934 884.861 524.566C886.357 521.838 888.111 519.259 890.099 516.865C890.099 516.865 890.463 516.84 891.066 516.807C891.306 516.595 891.493 515.902 891.637 514.995C891.734 514.396 891.811 513.703 891.872 512.995C891.94 512.231 891.99 511.447 892.029 510.746C892.1 509.366 892.119 508.297 892.119 508.297L899.919 507.471L900.382 507.424C900.178 509.408 900.218 511.41 900.502 513.384C900.632 514.323 900.872 515.242 901.217 516.124C901.369 516.525 901.589 516.897 901.867 517.222C902.457 517.351 903.17 517.52 903.842 517.712C904.941 517.995 905.969 518.501 906.864 519.199C906.864 519.199 906.883 519.211 906.89 519.219Z" fill="#FFB27D"/>
<path d="M900.063 512C900.063 512 896.265 515.211 891.643 514.981C891.74 514.381 891.817 513.688 891.878 512.981C891.945 512.217 891.996 511.433 892.035 510.731C894.033 510.681 896.706 511.017 900.063 512Z" fill="#ED985F"/>
<path d="M909.355 494.737C909.617 494.403 912.607 490.902 918.39 494.844C918.39 494.844 915.372 493.137 913.996 494.004C913.996 494.004 916.992 493.885 918.174 495.498C919.356 497.11 918.281 500.468 917.639 501.361C916.997 502.253 914.044 504.482 912.889 504.008C912.441 503.8 912.039 503.504 911.707 503.136C911.666 503.776 911.587 504.413 911.472 505.044C910.329 511.318 904.692 514.124 903.154 512.226C902.166 511.01 900.288 512.841 900.288 512.841L895.471 494.524C895.471 494.524 906.461 488.706 909.355 494.737Z" fill="#2C3A64"/>
<path d="M904.851 503.291C904.362 505.031 903.273 507.056 902.259 509.526C900.591 513.574 895.615 512.913 892.693 512.114C891.943 511.912 891.206 511.663 890.486 511.369C888.113 510.172 891.114 499.881 892.393 498.121C893.672 496.361 895.765 494.603 901.639 497.419C905.042 499.056 905.521 500.894 904.851 503.291Z" fill="#FFB27D"/>
<path d="M896.5 660.323H912.261C912.261 660.323 912.639 657.923 911.815 656.102C911.031 654.353 909.791 653.56 910.089 651.445C909.088 652.476 907.455 653.63 905.176 653.328C904.897 653.781 903.375 656.201 902.441 656.871C901.409 657.606 896.817 657.343 896.5 660.323Z" fill="#233862"/>
<path d="M862.656 660.324H878.419C878.419 660.324 879.008 657.815 877.973 656.103C877.057 654.59 877.408 653.729 878.086 652.477C877.25 652.839 876.343 653.01 875.432 652.976C874.647 652.932 873.816 652.576 873.087 652.152C872.409 652.926 869.504 656.215 868.597 656.867C867.567 657.608 862.973 657.344 862.656 660.324Z" fill="#233862"/>
<path d="M894.007 494.981C896.188 493.814 897.13 494.653 897.529 495.437C903.843 494.72 905.444 500.265 905.444 500.265C904.345 504.732 906.386 508.39 906.386 508.39C906.386 508.39 904.232 508.746 900.691 506.105C899.608 505.297 898.882 503.995 898.392 502.577C898.736 504.71 899.37 506.786 900.275 508.748C896.443 504.623 897.243 497.268 897.34 496.496C896.556 496.775 894.958 497.437 894.161 498.389C893.078 499.691 891.604 502.679 890.75 502.207C890.759 502.207 890.736 496.731 894.007 494.981Z" fill="#2C3A64"/>
<path d="M909.213 531.411C909.12 531.243 908.978 531.107 908.806 531.02C908.647 530.946 908.513 530.826 908.423 530.675C907.938 530.014 907.513 529.311 907.152 528.575C906.83 527.869 906.703 527.216 906.879 526.589C907.017 526.11 907.193 525.642 907.405 525.19C907.509 524.973 907.614 524.759 907.719 524.545C908.518 523.088 909.494 521.735 910.625 520.517C908.48 518.646 903.837 517.711 903.837 517.711C903.837 517.711 903.765 517.961 903.621 518.362C902.646 521.01 897.92 524.636 897.129 525.245C896.14 525.998 886.466 525.678 886.299 524.13C886.142 522.61 889.953 517.071 890.094 516.861C890.095 516.858 890.095 516.855 890.094 516.852C885.576 517.037 883.7 517.854 883.7 517.854C883.7 517.854 880.161 518.897 877.119 524.755C878.273 525.582 879.542 526.233 880.886 526.689C880.557 527.709 880.398 528.776 880.415 529.847C880.411 530.057 880.425 530.267 880.456 530.474C884.314 550.82 878.133 558.854 878.133 558.854C876.212 562.425 906.774 567.945 908.047 564.536C908.597 563.752 908.863 562.711 908.926 561.545C909.082 558.802 908.116 555.32 907.111 552.517C906.771 551.56 906.422 550.685 906.113 549.943C905.912 549.461 905.755 548.963 905.642 548.454C905.356 547.178 905.36 545.854 905.655 544.58C906.827 539.525 908.295 534.201 909.213 531.411Z" fill="#B5453C"/>
<path d="M919.504 544.232L907.764 550.246L908.58 552.574C908.58 552.574 925.962 550.397 926.995 546.132L919.504 544.232Z" fill="#FFB27D"/>
<path d="M906.107 549.946C906.421 550.688 906.765 551.563 907.106 552.52C907.093 552.557 907.088 552.575 907.088 552.575C896.74 544.661 907.153 528.576 907.153 528.576C907.514 529.312 907.939 530.015 908.424 530.676C908.514 530.827 908.648 530.947 908.807 531.022C908.979 531.108 909.12 531.244 909.213 531.412C908.295 534.202 906.828 539.532 905.652 544.588C905.358 545.862 905.353 547.186 905.64 548.462C905.752 548.969 905.908 549.466 906.107 549.946Z" fill="#9E3530"/>
<path d="M910.628 520.52C910.628 520.52 925.549 533.88 927 546.132C927 546.132 924.871 546.905 922.144 546.132C919.416 545.359 904.664 528.903 905.11 526.947C905.555 524.991 910.628 520.52 910.628 520.52Z" fill="#FFB27D"/>
<path d="M907.768 518.898C907.768 518.898 913.851 520.917 916.557 524.933C916.557 524.933 914.27 530.124 905.544 531.5C905.545 531.5 899.762 523.601 907.768 518.898Z" fill="#B5453C"/>
<path d="M296.383 621.159C294.279 618.854 294.18 614.466 292.174 611.594C290.168 608.722 285.861 610.251 285.861 610.251C284.674 610.438 283.564 610.959 282.661 611.754C283.619 610.54 284.82 609.539 286.187 608.818C287.555 608.096 289.057 607.669 290.599 607.563C291.054 607.563 291.51 607.563 291.928 607.563C292.706 607.548 293.476 607.718 294.176 608.059C294.875 608.4 295.484 608.901 295.953 609.523C303.201 618.903 313.047 637.664 313.047 637.664C313.047 637.664 310.204 643.05 309.97 643.198C309.826 643.242 309.677 643.267 309.527 643.272C307.706 640.462 308.124 639.057 306.893 636.456C305.183 632.684 298.488 623.464 296.383 621.159Z" fill="#52ACB8"/>
<path d="M265.715 629.889C266.622 630.981 267.605 632.006 268.657 632.958C268.866 632.958 277.358 619.769 282.047 612.608C282.237 612.314 282.442 612.03 282.662 611.757C283.565 610.962 284.674 610.441 285.862 610.254C285.862 610.254 290.169 608.676 292.126 611.597C294.083 614.518 294.23 618.857 296.335 621.162C298.439 623.467 305.184 632.687 306.894 636.459C308.125 639.06 307.694 640.465 309.516 643.275C308.654 643.362 306.156 638.776 306.156 638.776C306.156 638.776 296.089 625.575 294.07 622.235L292.052 618.179L278.441 638.702C276.722 641.298 274.389 643.428 271.649 644.901C268.909 646.375 265.847 647.146 262.737 647.146H262.589C260.419 647.144 258.332 646.311 256.756 644.816C256.941 642.104 262.22 634.561 265.715 629.889Z" fill="#3A8F9B"/>
<path d="M263.117 597.79C263.117 597.79 259.142 596.347 257.912 594.844C257.281 594.058 256.783 593.176 256.435 592.23L260.915 585.057L266.096 588.754L263.142 595.645L264.902 599.343C264.458 598.673 263.841 598.137 263.117 597.79Z" fill="#F9AF7D"/>
<path d="M264.435 599.516L262.946 600.095C260.637 599.203 258.373 598.195 256.165 597.075C255.803 596.771 255.506 596.395 255.294 595.97C255.083 595.546 254.96 595.083 254.935 594.61L256.165 591.467C256.165 591.467 256.251 591.75 256.411 592.194C256.767 593.141 257.274 594.024 257.913 594.807C259.143 596.249 263.119 597.753 263.119 597.753C263.833 598.104 264.441 598.64 264.878 599.306C265.46 600.16 265.905 601.1 266.195 602.092L264.435 600.662V599.516Z" fill="#FF573D"/>
<path d="M288.309 592.243L279.067 607.626L285.109 609.007L297.207 594.129L291.3 591.343C290.778 591.098 290.184 591.054 289.632 591.22C289.081 591.386 288.609 591.751 288.309 592.243Z" fill="#1574B3"/>
<path d="M256.977 579.548C257.074 576.597 258.313 573.799 260.432 571.746C262.55 569.693 265.383 568.545 268.33 568.545C271.278 568.545 274.111 569.693 276.229 571.746C278.348 573.799 279.587 576.597 279.684 579.548C279.684 582.518 277.222 589.408 273.259 592.921C272.607 593.426 271.815 593.716 270.991 593.754C270.167 593.791 269.352 593.574 268.657 593.131C268.657 593.131 265.137 590.727 263.549 589.852C261.628 588.888 260.002 587.421 258.845 585.607C257.688 583.793 257.043 581.699 256.977 579.548Z" fill="#FFD0B0"/>
<path d="M250.886 631.982L251.969 635.853C251.54 634.583 251.179 633.291 250.886 631.982Z" fill="#97CFC8"/>
<path d="M252.681 598.159L254.576 595.177L254.909 594.646C254.934 595.12 255.057 595.583 255.269 596.007C255.48 596.431 255.777 596.807 256.139 597.112C258.357 598.203 260.629 599.183 262.945 600.045L264.434 599.466V600.699L266.194 602.128L266.846 603.497C268.557 607.121 268.742 614.023 267.511 617.832L265.05 625.93C265.05 625.93 264.816 628.864 265.69 629.85C262.219 634.558 256.939 642.102 256.804 644.814C256.607 648.881 254.096 643.199 254.023 642.41C253.949 641.621 252.644 641.178 252.669 640.537C252.693 639.896 252.029 636.038 252.029 636.038L251.967 635.84L250.884 631.97C250.884 631.896 250.884 631.81 250.884 631.736C250.532 630.111 250.293 628.464 250.171 626.805L249.051 612.187C248.719 607.241 249.993 602.321 252.681 598.159Z" fill="#FF2626"/>
<path d="M305.774 645.887C306.585 646.065 307.425 646.065 308.235 645.887C310.241 645.418 319.004 645.887 321.588 646.294C324.173 646.7 328.086 645.418 328.973 644.519C329.089 644.766 329.135 645.041 329.104 645.313C329.074 645.586 328.968 645.844 328.8 646.059C328.013 646.959 324.21 647.908 321.625 647.514C319.041 647.119 310.278 646.639 308.272 647.107C307.462 647.285 306.622 647.285 305.811 647.107C305.413 647.035 305.06 646.808 304.829 646.475C304.598 646.142 304.509 645.731 304.58 645.332V644.1C304.74 644.617 305.22 645.776 305.774 645.887Z" fill="#FFD0B0"/>
<path d="M304.333 637.418L313.367 636.457C313.367 636.457 318.732 640.155 319.52 640.414C320.308 640.673 327.815 642.706 327.815 642.706C327.815 642.706 329.55 643.939 328.75 644.814C327.889 645.714 324.147 646.638 321.6 646.244C319.052 645.85 310.253 645.369 308.247 645.837C307.436 646.015 306.596 646.015 305.786 645.837C305.395 645.751 305.051 645.52 304.823 645.191C304.595 644.862 304.499 644.459 304.555 644.062L305.232 640.093L304.333 637.418Z" fill="#1574B3"/>
<path d="M255.487 602.905L254.674 603.928C254.143 604.583 253.788 605.362 253.644 606.193C253.5 607.024 253.57 607.878 253.85 608.674L261.431 630.861C261.713 631.705 262.198 632.467 262.841 633.081C263.484 633.696 264.268 634.143 265.123 634.386H265.184C265.966 634.604 266.786 634.646 267.586 634.509C268.386 634.373 269.146 634.062 269.812 633.597L269.972 633.56C273.5 631.091 276.213 627.623 277.762 623.601L280.531 616.316L284.469 613.308C285.332 612.658 285.976 611.759 286.315 610.732L288.137 605.247L279.313 606.911L281.306 603.854L280.74 604.027C279.909 604.302 279.148 604.755 278.51 605.356C277.873 605.956 277.374 606.689 277.048 607.503C276.558 608.713 276.48 610.052 276.827 611.312L277.54 613.974L267.067 624.92L264.36 605.346C264.245 604.443 263.883 603.59 263.314 602.88V602.819C262.848 602.221 262.25 601.739 261.568 601.41C260.885 601.081 260.136 600.914 259.379 600.922C258.621 600.931 257.876 601.114 257.201 601.458C256.526 601.802 255.939 602.297 255.487 602.905Z" fill="#FFC197"/>
<path d="M253.027 606.505C253.31 604.336 254.393 601.439 257.47 600.515C257.47 600.515 262.491 599.886 264.079 603.189C265.113 605.359 265.703 610.166 265.986 613.21C263.706 613.125 261.432 613.507 259.304 614.332C257.974 614.895 256.766 615.711 255.747 616.736C254.566 613.284 252.83 607.935 253.027 606.505Z" fill="#FF573D"/>
<path d="M259.303 614.331C261.432 613.505 263.706 613.123 265.986 613.209C266.134 614.787 266.195 615.908 266.195 615.908C264.288 615.712 262.361 615.93 260.546 616.549C259.105 617.335 257.846 618.419 256.854 619.73C256.854 619.73 256.399 618.497 255.796 616.734C256.8 615.715 257.991 614.899 259.303 614.331Z" fill="#FF573D"/>
<path d="M270.859 568.466C270.859 568.466 280.225 569.316 280.225 578.154C280.235 580.054 280.424 581.948 280.791 583.812C280.791 583.812 276.237 580.878 275.954 575.763C275.926 575.044 275.696 574.347 275.291 573.752C274.886 573.157 274.323 572.688 273.665 572.398C273.665 572.398 277.628 571.695 275.954 577.673C274.281 583.652 270.256 581.988 270.256 581.988C270.256 581.988 271.487 575.504 267.475 578.943C264.054 581.889 267.057 583.997 267.057 583.997C267.057 583.997 261.088 585.229 260.226 586.388C259.365 587.547 259.611 588.718 258.676 586.105C257.74 583.491 256.534 581.371 257.371 576.626C258.208 571.88 264.374 566.346 270.859 568.466Z" fill="#071E2B"/>
</g>
<defs>
<linearGradient id="paint0_linear" x1="576" y1="-49" x2="576" y2="699" gradientUnits="userSpaceOnUse">
<stop stop-color="#FDAF23"/>
<stop offset="0.350501" stop-color="white" stop-opacity="0"/>
</linearGradient>
<clipPath id="clip0">
<rect width="1152" height="700" fill="white"/>
</clipPath>
</defs>
</svg>
