<svg width="1152" height="700" viewBox="0 0 1152 700" fill="none" xmlns="http://www.w3.org/2000/svg">
<g clip-path="url(#clip0)">
<rect width="1152" height="700" fill="white"/>
<rect y="-22" width="1152" height="699" fill="#FED82D"/>
<rect y="-22" width="1152" height="699" fill="url(#paint0_linear)"/>
<circle cx="810.915" cy="354.102" r="126.102" fill="#F9982D"/>
<path d="M824.383 311.252L922.357 289.215L933.345 303.677L824.383 311.252Z" fill="#FCC02F"/>
<path d="M788.878 401.991L937.922 391.209L950.276 416.448L788.878 401.991Z" fill="#FCD22F"/>
<path d="M774.132 338.914L674.966 354.749L664.909 339.625L774.132 338.914Z" fill="#FCCA2F"/>
<circle cx="810.915" cy="354.102" r="111.411" fill="#EB891D" fill-opacity="0.4"/>
<path d="M123.96 329.784C113.253 346.867 33.5256 410.454 -5 440.113V554H2.2996H1197V405.708C1192.13 405.708 1176.32 403.573 1151.99 395.031C1121.57 384.354 1106.97 363 1087.51 351.137C1068.04 339.274 931.781 440.113 898.933 419.944C866.085 399.776 824.721 398.59 804.039 405.708C783.356 412.826 717.66 387.913 704.277 383.168C690.895 378.423 664.13 351.137 643.447 351.137C622.765 351.137 621.549 323.852 603.3 317.92C585.051 311.987 533.953 345.205 479.206 373.677C424.46 402.149 404.994 381.982 372.146 373.677C339.298 365.373 304.016 342.833 294.283 351.137C284.551 359.441 266.302 370.118 259.002 363C251.702 355.882 228.587 346.392 205.472 323.852C182.356 301.312 137.342 308.43 123.96 329.784Z" fill="#6F5B29"/>
<path d="M28 493C21.6 507.4 6.66667 517 0 520C0 615 12 561 49 578C86 595 122 587 211 567C300 547 669.5 571 896 602C1122.5 633 1148 501 1145 493C1142 485 1136 451 1136 439C1136 429.4 1127.33 410.333 1123 402C1124.33 409.667 1126.2 427.8 1123 439C1119 453 1128 462 1136 493C1144 523.999 1105 520 1096 520H1079C1073 520 1075 467 1079 462C1082.2 458.001 1084.33 455.667 1085 455C1088 446.667 1092.8 427.2 1088 416C1083.2 404.8 1086 386 1088 378C1086.33 382.667 1082.2 395.6 1079 410C1075 428 1064 430 1054 439C1044 448 1039 462 1030 482.999C1021 503.999 1013 462 1007 451C1001 440 1022 439 1039 416C1052.6 397.6 1054.67 383 1054 378C1042.67 386.333 1014.6 405.6 993 416C966 429 964 430 957 451C950 472 907 462 896 462C885 462 866 451 863 462C860.6 470.801 867.333 483 871 487.999C868 487.999 858.6 486.999 845 482.999C828 477.999 818 437 806 439C794 441 732 430 726 416C720 402 669.5 392 679 384C688.5 376.001 674.5 365 669.5 360.5C664.5 356 647 351 639.5 351C632 351 624 340 615 329C615 337.8 604.333 356.667 599 365C602.333 363.333 610.2 361 615 365C621 370 620 409 656 410C692 411 672 446 679 462C681 473 627.003 473 599.002 473H599C576.6 473 596.333 455 609 446C599.667 449.667 577.8 458 565 462C552.2 466.001 563.667 442.334 571 430C565 430 551.6 433.2 546 446C540.4 458.8 517 454.667 506 451C503 458.333 497 475 497 482.999C497 492.999 478 501 475 482.999C472.6 468.599 464.667 494.999 461 510C445 510 407.2 508.2 384 501C357 482 384 493 384 482.999C384 472.999 359 482.999 351 482.999C343 482.999 339 473 339 462C339 451 311 430 300 416C289 402 288 408 288 392C288 379.2 270.667 368.667 262 365C249.333 357.333 222.4 340.4 216 334C189.6 306 166.333 308.334 158 313C164.667 313.334 180.4 315.8 190 323C202 332 200 351 202 360C204 369 224 378 240 384C256 390 267 404 259 430C251 456 244 447 240 462C236.8 474 219.333 474.334 211 473C206.667 474.334 196.4 478.2 190 482.999C182 488.999 173 487.999 158 482.999C143 477.999 116 477.999 107 487.999C99.8 495.999 96 487.999 95 482.999C89.6667 482.999 78 484.999 74 493C69 503 28 512 34 510C40 508 36 475 28 493Z" fill="#5C4116"/>
<path d="M397 506C248.2 478 69.6667 511 -1 531V701H1152V467C842 562 583 541 397 506Z" fill="#D59045"/>
<path d="M-1 701.999V530.999C79 495.999 284.603 493.302 321 495.999C361.5 498.999 471 517.999 498 521.999C519.6 525.199 569 529.332 591 530.999C477.4 530.999 406.333 644.999 385 701.999H-1Z" fill="#99993E"/>
<path d="M120.719 566.752C136.427 563.401 45.4513 572.059 -2 576.807V679.866C6.59031 682.38 26.2253 685.899 36.0428 679.866C48.3147 672.325 99.8566 679.866 87.5847 687.407C75.3128 694.948 120.719 684.056 144.035 679.866C167.352 675.677 161.216 687.407 234.847 679.866C308.478 672.325 323.205 668.974 341.613 636.296C360.02 603.619 266.754 616.187 240.983 601.105C215.212 586.023 225.03 595.24 207.849 601.105C190.668 606.97 178.397 595.24 184.533 576.807C190.668 558.374 92.4934 589.375 55.6778 584.348C18.8622 579.32 101.084 570.942 120.719 566.752Z" fill="#838733"/>
<path d="M124.389 615H-6V659.333C10.8244 659.333 46.7163 660.5 55.6893 665.167C66.9056 671 158.038 659.333 181.872 659.333C195.332 659.333 176.264 667.111 165.048 671C186.545 670.222 239.075 666.8 277.21 659.333C324.879 650 338.899 627.833 292.632 620.833C246.365 613.833 97.7502 623.167 107.564 620.833C115.416 618.967 122.052 616.167 124.389 615Z" fill="#6E752F"/>
<path d="M415 681C408.6 684.2 392.333 695 385 700H375C376.667 693.667 381 677.8 385 665C390 649 403 630 421 613C435.4 599.4 443.667 584.667 446 579L487 557L507 546C514 543.334 529 536.8 533 532C537 527.201 542 528.5 544 528.5L605 533.5C601.333 533.834 591.2 532.8 580 532C568.8 531.2 569.333 541 571 546H544C538 548.667 524.8 553.6 520 552C514 550 505 571 483 579C465.4 585.4 469 592.334 473 595C468 596.667 457.2 600.6 454 603C450.8 605.4 447.333 616.667 446 622C442.333 623.334 432.2 630 421 646C407 666 423 677 415 681Z" fill="#96C753"/>
<path d="M422 681C415.6 684.2 399.333 695 392 700H382C383.667 693.666 388 677.8 392 665C397 649 410 630 428 613C442.4 599.4 450.667 584.666 453 579L494 557L514 546C521 543.333 536 536.8 540 532C544 527.2 547.5 527.5 549.5 527.5L611.5 534C607.833 534.333 598.2 532.8 587 532C575.8 531.2 576.333 541 578 546H551C545 548.667 531.8 553.6 527 552C521 550 512 571 490 579C472.4 585.4 476 592.333 480 595C475 596.666 464.2 600.6 461 603C457.8 605.4 454.333 616.666 453 622C449.333 623.333 439.2 630 428 646C414 666 430 677 422 681Z" fill="#5E752F"/>
<path d="M406 681C399.6 684.2 383.333 695 376 700H366C367.667 693.667 372 677.8 376 665C381 649 394 630 412 613C426.4 599.4 434.667 584.667 437 579L478 557L498 546C505 543.333 520 536.8 524 532C528 527.2 533 526 535 526L596 532C592.333 532.334 582.2 532.8 571 532C559.8 531.2 560.333 541 562 546H535C529 548.667 515.8 553.6 511 552C505 550 496 571 474 579C456.4 585.4 460 592.333 464 595C459 596.667 448.2 600.6 445 603C441.8 605.4 438.333 616.667 437 622C433.333 623.333 423.2 630 412 646C398 666 414 677 406 681Z" fill="#99993E"/>
<path d="M165.469 502.972C177.187 496.647 215.601 495.246 231 495.999L293 495.999L350 499L317.5 517.5C317.5 506.205 299.325 519.914 289.41 519.914C277.016 519.914 283.38 527.816 280 542.5C276.62 557.184 260.027 543.87 242 545C223.972 546.13 248 560.577 216.172 560.577C194.498 560.577 191.384 558.318 171.103 551.541C150.821 544.764 155.106 529.389 167.5 526C179.894 522.611 178.99 521.044 171.103 514.267C163.216 507.49 150.822 510.879 165.469 502.972Z" fill="#838733"/>
<path d="M177 502C187.4 496.4 217.333 496.334 231 497L339 498.5L319 512C319 502 295.8 517 287 517C276 517 280 521 277 534C274 547 253 538 237 539C221 540 241 556 222 553C203 550 200 551 182 545C164 539 166 532 177 529C188 526 189 518 182 512C175 506 164 509 177 502Z" fill="#AAB147"/>
<path d="M383 684C379.8 691.6 365.333 697.167 358.5 699H383V696L409.5 679C409.5 677 407.5 672.9 407.5 670.5C406 642 428 628 437.5 623C436.3 619 442.333 608.667 445.5 604L465 595C464.167 591.333 461.8 583 471 581C480.2 579 502 561.833 511 553C519.4 552.2 531.833 547.334 536.5 545.5H561.5C563.5 528.986 578 534 589.5 531.5C573.667 530 543.6 527.2 550 528C558 529 539 533.5 528.5 537C518 540.5 505 541.5 499 545.5C493 549.5 492.5 551.5 483.5 556C474.5 560.5 468.5 568.5 465 573C461.5 577.5 454.5 584 443.5 586.5C432.5 589 431.5 592.5 431.5 602C431.5 611.5 414 625.5 401.5 641.5C389 657.5 386 654 386 658.5C386 663 387 674.5 383 684Z" fill="#68792B"/>
<path d="M350 662C350.401 659.909 352.289 656.354 356.625 658.863C360.961 661.373 354.015 662 350 662Z" fill="#F1FFC3"/>
<path d="M71 625C71.4015 622.909 73.2885 619.354 77.6246 621.863C81.9607 624.373 75.0149 625 71 625Z" fill="#F1FFC3"/>
<path d="M141 543C141.401 540.909 143.289 537.354 147.625 539.863C151.961 542.373 145.015 543 141 543Z" fill="#F1FFC3"/>
<path d="M348.538 647.439C346.704 646.358 343.991 643.385 347.812 640.145C351.634 636.906 349.889 643.658 348.538 647.439Z" fill="#F1FFC3"/>
<path d="M62.767 620.879C60.9326 619.797 58.2193 616.824 62.0409 613.585C65.8626 610.345 64.1173 617.098 62.767 620.879Z" fill="#F1FFC3"/>
<path d="M356.578 639.883C358.993 638.249 363.899 635.954 364.201 639.849C364.502 643.743 359.245 641.494 356.578 639.883Z" fill="#F1FFC3"/>
<path d="M393 528.433C395.415 526.8 400.321 524.505 400.623 528.399C400.924 532.294 395.667 530.045 393 528.433Z" fill="#F1FFC3"/>
<path d="M366 518.433C368.415 516.8 373.321 514.505 373.623 518.399C373.924 522.294 368.667 520.045 366 518.433Z" fill="#F1FFC3"/>
<path d="M157 535.433C159.415 533.8 164.321 531.505 164.623 535.399C164.924 539.294 159.667 537.045 157 535.433Z" fill="#F1FFC3"/>
<path d="M1050 701C1074.8 698.6 1129.33 694 1152 701V536L1145 554C1145 560.667 1128 572.4 1128 586C1128 599.6 1040.83 619 1030.5 622C1035.17 621 1108.4 615.6 1122 622C1139 630 1116 628 1122 654C1126.8 674.8 1090.67 674 1072 671L1002 689C990 701 1025.2 703.4 1050 701Z" fill="#B2782B"/>
<path d="M1152 685H1091.93C1090.86 685.1 1089.88 685.102 1089 685H1091.93C1101.36 684.117 1117.53 675.576 1131 663C1144.18 650.699 1133 637 1136 631C1138.4 626.2 1123.67 615 1116 610L1136 589C1137.33 589.667 1140.4 589.6 1142 584C1143.6 578.4 1149.33 572.333 1152 570V685Z" fill="#A36F33"/>
<path d="M448.626 693.78C457.045 704.312 563.05 705.541 615 704.839L558.373 700.099C541.168 697.993 504.753 693.78 496.735 693.78C486.712 693.78 468.17 685.354 456.645 685.88C445.119 686.407 448.626 672.188 448.626 663.762C448.626 655.337 469.674 645.33 473.683 642.17C477.692 639.011 473.683 626.898 478.694 616.893C482.703 608.888 506.423 608.291 517.782 608.993L510.766 603.201C509.43 603.201 506.056 601.515 503.249 594.774C499.741 586.348 526.301 583.715 536.825 569.497C547.348 555.278 559.877 562.124 578.418 562.124C596.96 562.124 590.946 547.378 590.946 540.006C590.946 534.108 614.534 536 612.5 533C607.656 533.527 584.332 532.317 581.926 535.266C578.919 538.953 589.443 547.379 578.418 553.172C567.393 558.964 553.362 551.592 547.348 553.172C541.335 554.751 528.306 555.805 526.301 562.124C524.297 568.444 504.252 582.662 493.728 586.349C485.309 589.298 492.225 598.812 496.735 603.201C491.556 603.903 479.696 606.044 473.683 608.993C466.166 612.68 467.168 618.473 464.663 631.638C462.157 644.804 440.107 652.177 433.091 663.762C426.075 675.348 438.102 680.614 448.626 693.78Z" fill="#C77835"/>
<path d="M672.976 564.34C659.386 560.458 645.996 568.17 641 572.511C647.931 574.073 660.1 570.664 670.997 573.12C681.895 575.575 699.615 572.052 704.904 566.41C699.924 567.338 686.566 568.223 672.976 564.34Z" fill="#A36F33"/>
<path d="M936.976 660.34C923.386 656.458 909.996 664.17 905 668.511C911.931 670.073 924.1 666.664 934.997 669.12C945.895 671.575 963.615 668.052 968.904 662.41C963.924 663.338 950.566 664.223 936.976 660.34Z" fill="#A36F33"/>
<path d="M699.994 632.578C687.194 643.778 701.994 655.912 710.994 660.578L747.994 668.578L756.994 676.578H772.994C785.994 671.245 813.994 659.178 821.994 653.578C831.994 646.578 885.994 632.578 884.994 619.578C883.994 606.578 838.994 624.579 821.994 632.578C804.994 640.578 776.994 625.578 764.994 619.578C752.994 613.578 715.994 618.578 699.994 632.578Z" fill="#B2782B" fill-opacity="0.7"/>
<path d="M927.661 606.386C919.585 606.343 912.845 607.941 910.485 608.746C910.326 611.581 910.983 618.066 914.889 621.317C919.771 625.382 923.01 612.996 926.049 611.137C929.088 609.278 932.242 612.757 942.778 611.516C953.313 610.274 937.757 606.441 927.661 606.386Z" fill="#EAAF63"/>
<path d="M563.122 651.215C547.367 650.899 538.819 643.239 528.317 636.736C513.177 628.407 528.183 599.553 540.078 611.197C551.973 622.841 566.691 606.164 574.198 611.624C581.705 617.084 591.841 610.012 607.922 618.2C619.738 618.437 597.572 653.389 591.172 650.9C584.773 648.412 582.816 651.61 563.122 651.215Z" fill="#B2782B" fill-opacity="0.7"/>
<path d="M761.811 637.954C758 623.471 729.738 642.46 720.991 644.713C728.766 647.931 730.817 672.561 768.5 660C845 634.5 765.521 652.052 761.811 637.954Z" fill="#EAAF63"/>
<path d="M727.794 591.609C713.021 598.561 744.317 599.655 761.811 599.333C776.39 599.333 810.212 597.788 828.872 591.609C852.198 583.885 803.603 579.057 761.811 576.161C720.019 573.264 746.261 582.919 727.794 591.609Z" fill="#EAAF63"/>
<path d="M994.096 576.161C980.878 582.34 967.207 584.528 962.023 584.85C966.235 587.103 977.185 591.609 987.293 591.609C999.928 591.609 1007.7 584.85 1028.11 576.161C1048.52 567.471 1010.62 568.436 994.096 576.161Z" fill="#EAAF63"/>
<path d="M586.868 637.954C571.318 637.954 539.569 642.46 525.638 644.713C499.397 637.954 525.638 628.299 561.599 623.471C597.559 618.644 606.306 637.954 586.868 637.954Z" fill="#EAAF63"/>
<path d="M1003 518C991 516.4 998 509.333 1003 506L1109 480C1107.33 484.333 1106.8 498.8 1090 502C1069 506 1069 511 1064 524C1059 537 1047 530 1037 518C1027 506 1018 520 1003 518Z" fill="#BE8034"/>
<path d="M1055 493.499C1041.53 497.768 1010 500.499 1027 505.499C1034.1 505.673 1038.76 521.997 1049.93 522.27C1061.1 522.543 1076.12 496.623 1080.2 490.054C1075.5 487.999 1069.85 488.793 1055 493.499Z" fill="#B65B24" fill-opacity="0.8"/>
<path d="M423 677.5L391.5 700.5H466.5C461.667 699 452.6 693.3 449 690.5C444.5 687 431.5 679 431.5 670C431.5 661 453.5 645.5 460.5 640.5C467.5 635.5 465 618.5 469.5 612.5C473.1 607.7 490 604.5 498 603.5C497.667 603 498.3 600.657 495.5 598.657C486.5 588.657 491.5 586.657 504.5 581.657C517.5 576.657 526.5 566.5 531.5 560.5C536.5 554.5 546.5 554.5 551.5 554C555.5 553.6 566.167 555.167 571 556C576.833 554.833 587.4 550.4 583 542C578.6 533.6 588.833 532.167 594.5 532.5C593 532 588.4 531.3 582 532.5C575.6 533.7 576.667 541.667 578 545.5H551.5C549.333 547.5 540.288 550.868 534.5 550C524.5 548.5 523.5 551.5 515.5 561.5C507.5 571.5 488 578 480 582.5C473.6 586.1 477.333 593.834 480 596C475.5 594.5 464.1 599.8 460.5 601C456.9 602.2 453.333 616.334 452 622C448.833 624.5 441.6 630.4 438 634C420 648.4 419.667 669 423 677.5Z" fill="#A36F33"/>
<path d="M117 414C71.4 426 23.3333 430.167 6 431.5C42.3333 402.833 118.5 337 126 326C134.864 313 150.667 311.333 158 311C159 316 163 331 175 347C190 367 177 366 180 388C183 410 208 421 196 433C184 445 174 399 117 414Z" fill="#847F47"/>
<path d="M282 392C284.4 384 272.333 372 266 367C265.5 366.667 264 365.8 262 365C264 365 268.5 365 272.5 364C279.3 362.8 290.667 354.5 295.5 350.5C309 346 335 361.5 342 364C349 366.5 372.5 374 379.5 376C386.5 378 405.5 386 426 389C446.5 392 468 378.5 473.5 377C479 375.5 544.5 339.5 563 329.5C577.8 321.5 587.167 319.167 590 319C592.333 320.333 596.8 326 596 338C595 353 574 367 581 360C586.6 354.4 583.333 343 581 338L568 347C553.667 359 521.8 383.6 509 386C493 389 457 392 433 408C409 424 380 418 365 413C353 409 340 418 335 423C336.333 425.667 340.8 433.8 348 445C357 459 322 448 312 436C302 424 279 402 282 392Z" fill="#857E47"/>
<path d="M693.5 378.5C694.486 378.955 695.81 379.638 697.372 380.535C705.068 383.913 721.575 389.569 730.5 392.5C749 398.667 789.3 410.1 802.5 406.5C819 402 824.5 401 848 403C871.5 405 887 414 893.5 417C900 420 899.5 426 924.5 420.5C949.5 415 1009.5 383.5 1031 371.5C1048.2 361.9 1069.17 354.167 1077.5 351.5V361.5C1077.5 367.5 1078.5 371.5 1077.5 383.5C1076.5 395.5 1075.5 392 1068.5 401C1062.9 408.2 1059.17 417 1058 420.5C1058.33 418.833 1058.8 413.7 1058 406.5C1057 397.5 1059.5 396.5 1063 383.5C1066.5 370.5 1056 368 1047.5 371.5C1039 375 1016.5 391.5 1009.5 396.5C1002.5 401.5 976 413.5 962 420.5C948 427.5 944 440.5 924.5 447C905 453.5 871.5 439 860.5 435.5C849.5 432 841 426 837.5 435.5C834 445 847.5 451.5 841 451.5C834.5 451.5 828 437 823 430.5C818 424 793 424.5 780 426C767 427.5 728.5 408.5 717.5 396.5C710.702 389.085 702.672 383.578 697.372 380.535C695.439 379.686 694.062 378.982 693.5 378.5Z" fill="#857E47"/>
<path d="M74 389.499C64 401.099 40.8333 413.999 30.5 418.999C38 417.999 58.7 413.599 81.5 403.999C110 391.999 95 385.999 103 375.999C111 365.999 127 374.999 135 371.999C143 368.999 143 356.999 138.5 349.499C134 341.999 147 328.999 147 319.499C147 311.899 141.333 320.999 138.5 326.499C134.667 331.333 125.4 342.699 119 349.499C111 357.999 86.5 374.999 74 389.499Z" fill="#A3925C"/>
<path d="M313.001 431C315.401 437.4 324.334 437 328.501 436C332.5 435.451 328.501 420.5 324.501 407.5C320.501 394.5 344.001 395.5 362.001 395.5C380.001 395.5 379.001 401 402.001 401.5C425.001 402 422.501 395.5 409.501 395.5C396.501 395.5 383.501 389.5 369.001 382.5C354.501 375.5 351.001 380 328.501 380C306 380 309.501 365 295.001 363.5C280.501 362 279.501 368.5 283.501 376.5C287.501 384.5 292.501 385.5 292.501 395.5C292.501 405.5 298.501 401 306.001 414.5C313.501 428 310.001 423 313.001 431Z" fill="#A3925C"/>
<path d="M540.5 350C531.3 359.6 493.333 376 475.5 383C459 396.001 493.5 383 505.5 379C517.5 375 516.5 376 521 370C525.5 364 546.5 356 556 350C565.5 344 552 338 540.5 350Z" fill="#A3925C"/>
<path d="M779 417.5C767.4 418.3 746.167 407.833 737 402.5C717.651 393 768.5 406.5 783 412C797.5 417.5 816.5 412 825.5 412C834.5 412 845.5 413.5 873.5 421C901.5 428.5 895.5 430 904.5 431C913.5 432 929 429.5 949 417.5C965 407.9 993 397.5 1005 393.5C1001 396.5 991.8 402.5 987 402.5C981 402.5 953.5 423.5 944.5 426C935.5 428.5 923 438.5 912 442.5C901 446.5 848 423.5 835.5 423.5C823 423.5 833 431.5 825.5 423.5C818 415.5 793.5 416.5 779 417.5Z" fill="#A3925C"/>
<path d="M-70.5607 107.243C-77.4632 110.85 -89.7062 112.513 -104.025 113.863C-110.969 113.532 -125.687 110.385 -128.992 100.444C-133.221 87.7266 -132.975 81.4658 -111.507 71.2366C-92.143 62.0101 -75.7066 76.1492 -72.2514 70.8948C-68.7961 65.6404 -78.3458 62.598 -69.7198 59.8137C-61.0937 57.0294 -60.9095 58.9834 -59.5041 52.9367C-58.0987 46.89 -55.6562 30.8885 -41.6171 22.6655C-30.3857 16.0871 -18.9712 14.9458 -14.6679 15.1974C-14.3141 4.97822 -8.93312 -18.2662 9.76121 -29.4907C33.1291 -43.5213 45.6708 -46.6746 77.8585 -29.9936C88.6459 -34.296 114.217 -40.3202 130.201 -29.9979C150.181 -17.0951 154.223 -5.64594 156.123 4.03142C157.643 11.7733 159.858 12.2215 160.775 11.4779C169.697 8.33721 183.858 14.5072 196.416 21.9982C208.973 29.4891 226.687 33.1953 230.564 39.4013C230.948 38.9713 231.22 38.622 231.407 38.3442C231.215 37.3412 232.328 36.9806 231.407 38.3442C231.601 39.3528 233.114 41.011 239.341 42.2186C256.443 45.5348 282.422 55.214 274.959 59.8606C275.253 62.9874 272.371 67.3331 270.893 69.1151C275.676 70.9647 283.756 77.7609 277.813 90.1491C271.87 102.537 262.246 103.116 258.176 101.856C261.339 107.472 249.967 106.089 231.614 112.55C213.261 119.011 205.61 109.087 204.079 103.317C203.449 110.605 198.663 114.125 170.885 112.8C143.107 111.475 149.685 127.851 151.601 123.728C150.817 129.387 133.361 109.981 121.615 111.088C112.013 111.992 116.69 125.617 118.611 127.522C118.894 127.353 119.124 127.106 119.297 126.772C119.332 127.789 119.041 127.948 118.611 127.522C114.801 129.808 101.323 118.106 85.8764 118.093C69.2834 118.079 65.7635 135.103 63.4987 132.03C59.3601 137.02 44.875 123.534 33.7639 123.004C22.6528 122.474 20.0811 139.407 18.469 136.274C13.9427 140.643 9.47282 118.591 1.34691 116.202C-6.77901 113.813 -19.4242 135.902 -21.424 132.147C-22.8907 137.543 -22.5897 119.43 -31.7934 113.989C-39.4315 109.473 -44.3457 121.592 -45.0568 123.709C-45.0219 123.647 -44.9868 123.585 -44.9517 123.522C-45.1718 124.157 -45.2026 124.143 -45.0568 123.709C-51.1881 134.605 -54.7591 133.198 -70.5607 107.243Z" fill="#EEFDFF"/>
<path d="M-69.6602 122.894C-76.5626 126.501 -91.9106 129.919 -98.0825 114.729C-105.027 114.398 -119.743 111.251 -123.049 101.311C-127.183 88.886 -121.804 72.6077 -98.0338 73.3249C-74.2637 74.042 -69.7042 80.5129 -66.249 75.2584C-62.7937 70.004 -64.6013 61.3032 -55.9752 58.5189C-47.3491 55.7346 -47.165 57.6887 -45.7596 51.642C-44.3542 45.5953 -41.9117 29.5937 -27.8725 21.3707C-16.6412 14.7923 -5.22672 13.651 -0.923393 13.9026C-0.569586 3.68344 4.8116 -19.561 23.5059 -30.7855C46.8739 -44.8161 59.4155 -47.9694 91.6032 -31.2884C102.391 -35.5908 127.962 -41.615 143.946 -31.2927C163.926 -18.3899 167.968 -6.94073 169.867 2.73663C171.387 10.4785 173.602 10.9268 174.52 10.1832C183.441 7.04244 204.424 2.63372 216.981 10.1247C229.538 17.6156 240.431 31.9005 244.308 38.1066C248.477 33.4427 260.236 24.7784 273.918 27.4313C291.02 30.7476 296.166 53.9192 288.703 58.5658C288.998 61.6927 286.115 66.0384 284.637 67.8204C289.42 69.6699 297.501 76.4661 291.557 88.8544C285.614 101.243 275.99 101.821 271.921 100.561C275.084 106.178 276.821 119.025 258.468 125.486C240.115 131.947 232.464 122.023 230.932 116.253C230.302 123.54 222.098 137.785 194.32 136.46C171 135.347 165.064 129.123 164.893 124.714C163.369 130.74 158.64 139.822 148.311 140.795C136.564 141.902 133.237 131.045 133.041 125.477C130.534 130.314 121.372 139.983 104.779 139.969C88.1859 139.956 79.5082 133.808 77.2435 130.735C73.1049 135.725 62.0499 145.573 50.9388 145.043C39.8277 144.513 33.8257 138.113 32.2136 134.979C27.6873 139.348 16.6033 147.49 8.47736 145.101C0.351443 142.713 -5.67964 134.607 -7.67945 130.853C-9.14623 136.248 -14.3807 145.678 -23.5844 140.237C-32.788 134.796 -32.5011 125.963 -31.2072 122.227C-37.4033 133.325 -53.7684 148.997 -69.6602 122.894Z" fill="#E7D5A7"/>
<path d="M212.723 275.863C210.43 277.061 206.365 277.613 201.61 278.061C199.304 277.951 194.417 276.906 193.32 273.605C191.915 269.382 191.997 267.303 199.126 263.907C205.556 260.843 211.014 265.538 212.161 263.793C213.309 262.048 210.137 261.038 213.002 260.113C215.866 259.189 215.927 259.838 216.394 257.83C216.861 255.822 217.672 250.508 222.334 247.778C226.063 245.593 229.854 245.214 231.283 245.298C231.4 241.904 233.187 234.186 239.395 230.458C247.154 225.799 251.319 224.752 262.008 230.291C265.59 228.863 274.081 226.862 279.389 230.29C286.024 234.575 287.366 238.377 287.997 241.59C288.501 244.161 289.237 244.31 289.541 244.063C292.504 243.02 297.207 245.069 301.376 247.556C305.546 250.044 311.428 251.274 312.716 253.335C312.843 253.192 312.934 253.076 312.996 252.984C312.932 252.651 313.302 252.531 312.996 252.984C313.06 253.319 313.563 253.87 315.631 254.271C321.309 255.372 329.936 258.586 327.458 260.129C327.556 261.167 326.599 262.61 326.108 263.202C327.696 263.816 330.379 266.073 328.406 270.187C326.432 274.301 323.236 274.493 321.885 274.074C322.935 275.939 319.159 275.48 313.065 277.626C306.97 279.771 304.43 276.475 303.921 274.559C303.712 276.979 302.123 278.148 292.899 277.708C283.674 277.268 285.859 282.706 286.495 281.337C286.235 283.217 280.438 276.772 276.537 277.14C273.349 277.44 274.902 281.964 275.54 282.597C275.634 282.541 275.71 282.459 275.768 282.348C275.78 282.686 275.683 282.739 275.54 282.597C274.275 283.356 269.799 279.47 264.67 279.466C259.16 279.462 257.991 285.114 257.239 284.094C255.865 285.751 251.055 281.273 247.365 281.097C243.676 280.921 242.822 286.544 242.286 285.503C240.783 286.954 239.299 279.631 236.601 278.838C233.902 278.045 229.703 285.38 229.039 284.133C228.552 285.925 228.652 279.91 225.596 278.103C223.06 276.604 221.428 280.628 221.192 281.331C221.203 281.31 221.215 281.29 221.226 281.269C221.153 281.48 221.143 281.475 221.192 281.331C219.156 284.949 217.97 284.482 212.723 275.863Z" fill="#FFE1AD"/>
<path d="M213.023 281.06C210.731 282.258 205.635 283.393 203.585 278.349C201.279 278.239 196.393 277.194 195.294 273.893C193.922 269.767 195.708 264.362 203.601 264.6C211.495 264.838 213.009 266.987 214.156 265.242C215.303 263.497 214.703 260.608 217.568 259.683C220.432 258.759 220.493 259.408 220.96 257.4C221.427 255.392 222.238 250.078 226.9 247.348C230.629 245.163 234.419 244.784 235.848 244.868C235.966 241.474 237.753 233.756 243.961 230.028C251.72 225.369 255.885 224.322 266.573 229.861C270.155 228.433 278.647 226.432 283.955 229.86C290.589 234.145 291.931 237.946 292.562 241.16C293.067 243.731 293.802 243.88 294.107 243.633C297.07 242.59 304.037 241.126 308.207 243.613C312.377 246.101 315.994 250.844 317.281 252.905C318.666 251.356 322.571 248.479 327.114 249.36C332.793 250.461 334.502 258.156 332.024 259.699C332.121 260.737 331.164 262.18 330.673 262.772C332.262 263.386 334.945 265.643 332.971 269.757C330.998 273.87 327.802 274.063 326.451 273.644C327.501 275.509 328.078 279.776 321.983 281.921C315.889 284.066 313.348 280.771 312.84 278.855C312.631 281.275 309.906 286.005 300.682 285.565C292.938 285.195 290.967 283.129 290.91 281.664C290.404 283.666 288.834 286.681 285.404 287.005C281.503 287.372 280.398 283.767 280.334 281.918C279.501 283.524 276.459 286.735 270.949 286.73C265.439 286.726 262.557 284.684 261.805 283.664C260.431 285.321 256.76 288.591 253.07 288.415C249.38 288.239 247.387 286.114 246.852 285.073C245.349 286.524 241.668 289.228 238.97 288.435C236.272 287.641 234.269 284.95 233.605 283.703C233.118 285.495 231.38 288.626 228.323 286.819C225.267 285.012 225.363 282.079 225.792 280.839C223.735 284.524 218.3 289.728 213.023 281.06Z" fill="#E7E3A6"/>
<path d="M397.146 193.263C395.228 194.323 391.818 194.796 387.828 195.172C385.891 195.061 381.782 194.101 380.843 191.142C379.642 187.356 379.7 185.496 385.668 182.495C391.05 179.787 395.658 184.016 396.612 182.461C397.566 180.906 394.898 179.986 397.298 179.174C399.699 178.361 399.753 178.942 400.135 177.148C400.516 175.354 401.169 170.604 405.069 168.186C408.189 166.251 411.37 165.932 412.57 166.014C412.651 162.978 414.111 156.082 419.303 152.78C425.794 148.652 429.285 147.737 438.289 152.749C441.289 151.489 448.408 149.744 452.882 152.838C458.476 156.707 459.622 160.115 460.169 162.994C460.606 165.296 461.224 165.433 461.479 165.214C463.961 164.296 467.92 166.154 471.434 168.401C474.948 170.649 479.893 171.781 480.985 173.631C481.092 173.504 481.167 173.401 481.219 173.319C481.163 173.02 481.473 172.915 481.219 173.319C481.274 173.619 481.699 174.114 483.437 174.483C488.211 175.498 495.471 178.419 493.399 179.787C493.486 180.716 492.69 182.002 492.281 182.529C493.618 183.087 495.883 185.12 494.247 188.79C492.611 192.461 489.929 192.616 488.792 192.234C489.684 193.908 486.511 193.478 481.405 195.365C476.299 197.253 474.149 194.291 473.712 192.574C473.549 194.738 472.221 195.776 464.474 195.334C456.727 194.892 458.589 199.769 459.116 198.547C458.907 200.227 454.007 194.431 450.734 194.74C448.058 194.992 449.386 199.048 449.925 199.617C450.003 199.567 450.067 199.494 450.115 199.395C450.126 199.697 450.045 199.744 449.925 199.617C448.866 200.289 445.088 196.789 440.782 196.759C436.155 196.726 435.203 201.777 434.567 200.861C433.422 202.336 429.359 198.304 426.261 198.127C423.162 197.95 422.474 202.977 422.019 202.043C420.765 203.333 419.48 196.774 417.211 196.05C414.941 195.326 411.454 201.867 410.89 200.748C410.49 202.348 410.542 196.967 407.967 195.335C405.829 193.98 404.48 197.572 404.286 198.2C404.295 198.181 404.305 198.163 404.315 198.144C404.255 198.333 404.246 198.328 404.286 198.2C402.595 201.426 401.597 201.002 397.146 193.263Z" fill="#FFE1AD"/>
<path d="M397.426 197.915C395.508 198.975 391.235 199.964 389.487 195.44C387.551 195.33 383.442 194.369 382.503 191.41C381.329 187.712 382.8 182.885 389.429 183.139C396.058 183.394 397.34 185.324 398.294 183.769C399.249 182.214 398.729 179.626 401.13 178.814C403.53 178.001 403.585 178.582 403.966 176.788C404.347 174.994 405 170.244 408.9 167.826C412.02 165.891 415.201 165.572 416.401 165.654C416.482 162.618 417.942 155.722 423.135 152.42C429.625 148.292 433.117 147.377 442.12 152.389C445.12 151.129 452.239 149.384 456.714 152.478C462.307 156.347 463.454 159.755 464 162.633C464.437 164.936 465.056 165.073 465.31 164.854C467.792 163.936 473.635 162.663 477.149 164.91C480.663 167.158 483.725 171.421 484.816 173.271C485.971 171.893 489.234 169.339 493.053 170.151C497.827 171.166 499.302 178.059 497.23 179.427C497.317 180.356 496.521 181.642 496.112 182.169C497.449 182.727 499.714 184.76 498.078 188.43C496.443 192.101 493.76 192.256 492.624 191.874C493.515 193.548 494.022 197.368 488.916 199.256C483.81 201.144 481.66 198.182 481.223 196.465C481.06 198.629 478.797 202.847 471.05 202.405C464.546 202.034 462.88 200.174 462.825 198.864C462.411 200.652 461.108 203.342 458.23 203.613C454.957 203.921 454.01 200.69 453.946 199.035C453.255 200.468 450.718 203.325 446.091 203.292C441.465 203.259 439.035 201.417 438.398 200.5C437.253 201.976 434.188 204.882 431.089 204.705C427.99 204.529 426.305 202.617 425.851 201.683C424.596 202.973 421.52 205.373 419.25 204.649C416.981 203.925 415.285 201.507 414.721 200.388C414.321 201.988 412.878 204.781 410.303 203.148C407.727 201.515 407.792 198.892 408.146 197.784C406.438 201.071 401.902 205.698 397.426 197.915Z" fill="#E7E3A6"/>
<path d="M980.146 112.263C978.228 113.323 974.818 113.796 970.828 114.172C968.891 114.061 964.782 113.101 963.843 110.142C962.642 106.356 962.7 104.496 968.668 101.495C974.05 98.7872 978.658 103.016 979.612 101.461C980.566 99.9063 977.898 98.9858 980.298 98.1736C982.699 97.3614 982.753 97.9423 983.135 96.1482C983.516 94.3542 984.169 89.6045 988.069 87.1859C991.189 85.251 994.37 84.9317 995.57 85.014C995.651 81.9785 997.111 75.082 1002.3 71.7797C1008.79 67.6519 1012.29 66.7369 1021.29 71.7487C1024.29 70.4893 1031.41 68.7439 1035.88 71.8384C1041.48 75.7066 1042.62 79.1151 1043.17 81.9935C1043.61 84.2963 1044.22 84.4333 1044.48 84.214C1046.96 83.2964 1050.92 85.1541 1054.43 87.4014C1057.95 89.6488 1062.89 90.7807 1063.99 92.6312C1064.09 92.5042 1064.17 92.4008 1064.22 92.3186C1064.16 92.0203 1064.47 91.9151 1064.22 92.3186C1064.27 92.6186 1064.7 93.1139 1066.44 93.4835C1071.21 94.4985 1078.47 97.4193 1076.4 98.7868C1076.49 99.7163 1075.69 101.002 1075.28 101.529C1076.62 102.087 1078.88 104.12 1077.25 107.79C1075.61 111.461 1072.93 111.616 1071.79 111.234C1072.68 112.908 1069.51 112.478 1064.41 114.365C1059.3 116.253 1057.15 113.291 1056.71 111.574C1056.55 113.738 1055.22 114.776 1047.47 114.334C1039.73 113.892 1041.59 118.769 1042.12 117.547C1041.91 119.227 1037.01 113.431 1033.73 113.74C1031.06 113.992 1032.39 118.048 1032.92 118.617C1033 118.567 1033.07 118.494 1033.11 118.395C1033.13 118.697 1033.05 118.744 1032.92 118.617C1031.87 119.289 1028.09 115.789 1023.78 115.759C1019.16 115.726 1018.2 120.777 1017.57 119.861C1016.42 121.336 1012.36 117.304 1009.26 117.127C1006.16 116.95 1005.47 121.977 1005.02 121.043C1003.76 122.333 1002.48 115.774 1000.21 115.05C997.941 114.326 994.454 120.867 993.89 119.748C993.49 121.348 993.542 115.967 990.967 114.335C988.829 112.98 987.48 116.572 987.286 117.2C987.295 117.181 987.305 117.163 987.315 117.144C987.255 117.333 987.246 117.328 987.286 117.2C985.595 120.426 984.597 120.002 980.146 112.263Z" fill="#FFE1AD"/>
<path d="M980.426 116.915C978.508 117.975 974.235 118.964 972.487 114.44C970.551 114.33 966.442 113.369 965.503 110.41C964.329 106.712 965.8 101.885 972.429 102.139C979.058 102.394 980.34 104.324 981.294 102.769C982.249 101.214 981.729 98.6258 984.13 97.8136C986.53 97.0013 986.585 97.5822 986.966 95.7882C987.347 93.9942 988 89.2444 991.9 86.8258C995.02 84.8909 998.201 84.5717 999.401 84.6539C999.482 81.6184 1000.94 74.7219 1006.13 71.4197C1012.63 67.2919 1016.12 66.3768 1025.12 71.3887C1028.12 70.1292 1035.24 68.3839 1039.71 71.4784C1045.31 75.3465 1046.45 78.7551 1047 81.6335C1047.44 83.9362 1048.06 84.0732 1048.31 83.8539C1050.79 82.9363 1056.63 81.663 1060.15 83.9104C1063.66 86.1577 1066.72 90.4207 1067.82 92.2712C1068.97 90.8928 1072.23 88.3391 1076.05 89.1511C1080.83 90.1661 1082.3 97.0592 1080.23 98.4268C1080.32 99.3563 1079.52 100.642 1079.11 101.169C1080.45 101.727 1082.71 103.76 1081.08 107.43C1079.44 111.101 1076.76 111.256 1075.62 110.874C1076.52 112.548 1077.02 116.368 1071.92 118.256C1066.81 120.144 1064.66 117.182 1064.22 115.465C1064.06 117.629 1061.8 121.847 1054.05 121.405C1047.55 121.034 1045.88 119.174 1045.83 117.864C1045.41 119.652 1044.11 122.342 1041.23 122.613C1037.96 122.921 1037.01 119.69 1036.95 118.035C1036.26 119.468 1033.72 122.325 1029.09 122.292C1024.46 122.259 1022.03 120.417 1021.4 119.5C1020.25 120.976 1017.19 123.882 1014.09 123.705C1010.99 123.529 1009.31 121.617 1008.85 120.683C1007.6 121.973 1004.52 124.373 1002.25 123.649C999.981 122.925 998.285 120.507 997.721 119.388C997.321 120.988 995.878 123.781 993.303 122.148C990.727 120.515 990.792 117.892 991.146 116.784C989.438 120.071 984.902 124.698 980.426 116.915Z" fill="#E7E3A6"/>
<path d="M637.382 160.987C633.19 163.178 625.756 164.188 617.06 165.007C612.843 164.806 603.906 162.895 601.899 156.859C599.331 149.136 599.48 145.334 612.517 139.123C624.276 133.52 634.257 142.106 636.355 138.915C638.453 135.724 632.654 133.877 637.892 132.186C643.131 130.495 643.242 131.682 644.096 128.01C644.949 124.338 646.432 114.621 654.958 109.628C661.778 105.633 668.71 104.94 671.323 105.093C671.538 98.8869 674.805 84.7717 686.157 77.9556C700.348 69.4355 707.964 67.5206 727.51 77.6502C734.06 75.0376 749.588 71.3794 759.295 77.6476C771.428 85.4829 773.882 92.4354 775.036 98.312C775.959 103.013 777.304 103.285 777.861 102.834C783.279 100.927 791.878 104.673 799.504 109.222C807.129 113.771 817.886 116.022 820.24 119.79C820.474 119.529 820.639 119.317 820.753 119.149C820.636 118.539 821.311 118.32 820.753 119.149C820.87 119.761 821.789 120.768 825.571 121.501C835.956 123.515 851.731 129.393 847.199 132.214C847.378 134.113 845.628 136.752 844.73 137.834C847.635 138.957 852.542 143.084 848.932 150.607C845.323 158.13 839.479 158.481 837.008 157.716C838.929 161.127 832.023 160.287 820.878 164.21C809.733 168.134 805.087 162.107 804.157 158.603C803.775 163.029 800.868 165.167 784 164.362C767.132 163.557 771.126 173.502 772.29 170.998C771.814 174.435 761.214 162.65 754.081 163.322C748.25 163.872 751.09 172.145 752.257 173.302C752.429 173.199 752.568 173.049 752.673 172.847C752.695 173.464 752.518 173.561 752.257 173.302C749.943 174.69 741.759 167.584 732.379 167.576C722.302 167.568 720.165 177.905 718.79 176.04C716.276 179.07 707.48 170.88 700.733 170.558C693.986 170.236 692.424 180.519 691.445 178.616C688.697 181.27 685.982 167.878 681.048 166.428C676.113 164.977 668.434 178.391 667.22 176.111C666.329 179.387 666.512 168.388 660.923 165.084C656.285 162.342 653.301 169.701 652.869 170.987C652.89 170.949 652.912 170.911 652.933 170.873C652.799 171.259 652.78 171.25 652.869 170.987C649.146 177.603 646.977 176.748 637.382 160.987Z" fill="#FFE1AD"/>
<path d="M637.931 170.49C633.74 172.681 624.42 174.756 620.672 165.532C616.455 165.331 607.519 163.42 605.511 157.384C603 149.839 606.267 139.954 620.701 140.389C635.136 140.825 637.905 144.754 640.003 141.563C642.101 138.373 641.003 133.089 646.242 131.398C651.48 129.707 651.592 130.894 652.445 127.222C653.298 123.55 654.782 113.833 663.307 108.84C670.127 104.845 677.059 104.152 679.672 104.305C679.887 98.0992 683.154 83.984 694.507 77.1679C708.697 68.6477 716.313 66.7329 735.859 76.8625C742.41 74.2498 757.938 70.5916 767.644 76.8598C779.777 84.6951 782.232 91.6477 783.385 97.5243C784.308 102.226 785.653 102.498 786.21 102.046C791.628 100.139 804.37 97.4618 811.995 102.011C819.62 106.56 826.235 115.234 828.589 119.003C831.121 116.171 838.262 110.909 846.57 112.52C856.955 114.534 860.08 128.605 855.548 131.427C855.727 133.325 853.977 135.964 853.079 137.047C855.984 138.17 860.891 142.297 857.282 149.819C853.672 157.342 847.828 157.693 845.357 156.929C847.278 160.339 848.333 168.141 837.188 172.064C826.043 175.988 821.397 169.961 820.467 166.457C820.084 170.883 815.102 179.533 798.234 178.728C784.073 178.052 780.468 174.273 780.364 171.595C779.439 175.255 776.567 180.77 770.295 181.361C763.162 182.033 761.141 175.44 761.022 172.059C759.5 174.996 753.936 180.867 743.86 180.859C733.784 180.851 728.514 177.118 727.139 175.252C724.626 178.282 717.913 184.262 711.165 183.94C704.418 183.618 700.773 179.732 699.794 177.829C697.046 180.482 690.315 185.426 685.381 183.976C680.446 182.525 676.784 177.603 675.569 175.323C674.679 178.599 671.5 184.326 665.911 181.022C660.322 177.718 660.496 172.354 661.282 170.085C657.519 176.825 647.582 186.341 637.931 170.49Z" fill="#E7E3A6"/>
<path d="M1023.23 287.014C1018.48 289.501 1010.04 290.647 1000.17 291.577C995.385 291.348 985.243 289.18 982.965 282.329C980.05 273.565 980.22 269.25 995.015 262.2C1008.36 255.842 1019.69 265.586 1022.07 261.965C1024.45 258.343 1017.87 256.247 1023.81 254.328C1029.76 252.409 1029.88 253.756 1030.85 249.588C1031.82 245.421 1033.51 234.394 1043.18 228.727C1050.92 224.193 1058.79 223.406 1061.75 223.58C1062 216.537 1065.71 200.518 1078.59 192.782C1094.69 183.113 1103.34 180.94 1125.52 192.436C1132.95 189.471 1150.58 185.319 1161.59 192.433C1175.36 201.325 1178.15 209.215 1179.46 215.885C1180.5 221.22 1182.03 221.529 1182.66 221.016C1188.81 218.852 1198.57 223.104 1207.22 228.267C1215.88 233.429 1228.09 235.983 1230.76 240.26C1231.02 239.964 1231.21 239.723 1231.34 239.532C1231.21 238.841 1231.97 238.592 1231.34 239.532C1231.47 240.227 1232.52 241.37 1236.81 242.202C1248.59 244.487 1266.5 251.158 1261.35 254.36C1261.56 256.515 1259.57 259.51 1258.55 260.738C1261.85 262.013 1267.42 266.696 1263.32 275.234C1259.23 283.772 1252.59 284.17 1249.79 283.302C1251.97 287.173 1244.13 286.22 1231.48 290.672C1218.83 295.125 1213.56 288.285 1212.51 284.309C1212.07 289.331 1208.77 291.757 1189.63 290.844C1170.49 289.931 1175.02 301.217 1176.34 298.375C1175.8 302.276 1163.77 288.901 1155.67 289.664C1149.06 290.288 1152.28 299.677 1153.6 300.99C1153.8 300.874 1153.96 300.704 1154.08 300.473C1154.1 301.174 1153.9 301.284 1153.6 300.99C1150.98 302.565 1141.69 294.501 1131.04 294.492C1119.61 294.483 1117.18 306.214 1115.62 304.097C1112.77 307.536 1102.79 298.242 1095.13 297.876C1087.47 297.511 1085.7 309.181 1084.59 307.022C1081.47 310.033 1078.39 294.835 1072.79 293.189C1067.19 291.543 1058.48 306.765 1057.1 304.178C1056.09 307.896 1056.29 295.414 1049.95 291.664C1044.69 288.552 1041.3 296.903 1040.81 298.363C1040.83 298.32 1040.86 298.277 1040.88 298.233C1040.73 298.671 1040.71 298.662 1040.81 298.363C1036.58 305.871 1034.12 304.902 1023.23 287.014Z" fill="#FFE1AD"/>
<path d="M1023.85 297.802C1019.1 300.288 1008.52 302.643 1004.27 292.175C999.481 291.947 989.34 289.778 987.061 282.927C984.212 274.365 987.919 263.146 1004.3 263.641C1020.68 264.135 1023.82 268.594 1026.21 264.973C1028.59 261.352 1027.34 255.356 1033.29 253.437C1039.23 251.518 1039.36 252.865 1040.33 248.697C1041.29 244.53 1042.98 233.502 1052.65 227.835C1060.39 223.302 1068.26 222.515 1071.23 222.689C1071.47 215.646 1075.18 199.627 1088.06 191.891C1104.17 182.222 1112.81 180.049 1134.99 191.545C1142.43 188.579 1160.05 184.428 1171.06 191.542C1184.83 200.434 1187.62 208.324 1188.93 214.993C1189.98 220.329 1191.5 220.638 1192.14 220.125C1198.28 217.961 1212.74 214.923 1221.4 220.085C1230.05 225.248 1237.56 235.092 1240.23 239.369C1243.1 236.155 1251.21 230.184 1260.64 232.012C1272.42 234.298 1275.97 250.267 1270.83 253.469C1271.03 255.624 1269.04 258.619 1268.02 259.847C1271.32 261.122 1276.89 265.805 1272.79 274.343C1268.7 282.881 1262.07 283.279 1259.26 282.411C1261.44 286.282 1262.64 295.136 1249.99 299.588C1237.34 304.041 1232.07 297.201 1231.01 293.225C1230.58 298.248 1224.92 308.064 1205.78 307.151C1189.71 306.384 1185.62 302.095 1185.5 299.056C1184.45 303.209 1181.19 309.468 1174.07 310.139C1165.98 310.902 1163.68 303.419 1163.55 299.582C1161.82 302.915 1155.51 309.579 1144.07 309.57C1132.64 309.56 1126.66 305.323 1125.1 303.206C1122.24 306.645 1114.63 313.432 1106.97 313.066C1099.31 312.701 1095.17 308.29 1094.06 306.13C1090.94 309.142 1083.3 314.753 1077.7 313.107C1072.1 311.46 1067.95 305.874 1066.57 303.287C1065.56 307.005 1061.95 313.504 1055.61 309.754C1049.27 306.004 1049.46 299.917 1050.36 297.342C1046.09 304.991 1034.81 315.791 1023.85 297.802Z" fill="#E7E3A6"/>
<path d="M283.168 404.164C263.743 420.212 254.327 402.432 252.047 391.536C250.74 404.09 243.202 425.408 223.502 410.257C203.802 395.106 215.168 374.394 223.313 365.931C214.827 373.524 195.341 383.826 185.286 364.29C172.717 339.87 221.214 343.425 214.103 342.451C208.415 341.672 202.434 338.75 200.154 337.386C184.671 328.408 191.354 309.231 205.354 302.987C216.554 297.992 225.493 312.397 228.563 320.224C230.16 310.316 237.173 292.614 252.453 301.07C267.732 309.527 261.559 328.102 256.563 336.333C264.754 327.351 283.956 315.054 295.238 337.72C306.521 360.387 283.877 371.024 271.145 373.51C283.246 377.041 302.593 388.117 283.168 404.164Z" fill="#6B8C0E"/>
<path d="M272.634 568.466L293.057 574.964L306.982 563.824L302.34 457.993L326.477 425.501V413.433L302.34 442.211L306.982 381.869L280.06 403.221V442.211H261.493L253.138 425.501L247.568 432.928L261.493 451.495L280.06 457.993L272.634 568.466Z" fill="#B07D56"/>
<path d="M181.579 432.568C173.732 408.625 193.722 406.351 204.698 408.207C193.489 402.407 176.395 387.604 197.693 374.797C218.991 361.99 219.717 366.553 232.25 373.051C232.25 358.265 232.579 358.232 254.145 356.034L254.441 356.004C281.764 353.22 260.746 397.071 264.249 390.806C267.051 385.795 271.955 381.294 274.057 379.67C288.069 368.533 303.482 381.758 304.183 397.071C304.743 409.321 288.069 412.384 279.662 412.384C288.303 417.488 302.221 430.48 288.77 441.617C275.318 452.754 260.279 440.225 254.441 432.568C259.812 443.473 264.249 465.839 239.028 468.067C213.806 470.294 210.42 459.615 212.755 446.854C205.048 456.831 189.425 456.512 181.579 432.568Z" fill="#93BA24"/>
<path d="M192.401 428.748C185.959 409.185 202.369 407.327 211.379 408.844C202.178 404.105 188.145 392.011 205.628 381.547C223.112 371.082 223.709 374.811 233.996 380.12C233.996 368.039 234.267 368.012 251.97 366.217L252.213 366.192C274.642 363.917 257.389 399.745 260.264 394.627C262.565 390.532 266.59 386.855 268.316 385.528C279.818 376.429 292.471 387.234 293.046 399.745C293.506 409.754 279.818 412.256 272.917 412.256C280.01 416.427 291.435 427.043 280.393 436.142C269.351 445.241 257.005 435.004 252.213 428.748C256.622 437.658 260.264 455.932 239.56 457.752C218.856 459.572 216.076 450.847 217.993 440.421C211.667 448.572 198.842 448.311 192.401 428.748Z" fill="#7DA314"/>
<path d="M256.774 360.156C248.927 336.212 268.918 333.939 279.894 335.795C268.684 329.995 251.59 315.192 272.888 302.385C294.186 289.578 309.319 307.721 314.223 318.394C310.253 307.722 307.777 285.82 329.636 283.592C356.959 280.808 335.941 324.659 339.444 318.394C342.247 313.383 347.151 308.882 349.253 307.258C363.264 296.121 378.677 309.346 379.378 324.659C379.939 336.909 363.264 339.971 354.857 339.971C363.498 345.076 377.416 358.068 363.965 369.205C350.514 380.342 335.474 367.813 329.636 360.156C335.007 371.061 339.444 393.427 314.223 395.654C289.002 397.882 287.367 372.917 289.702 360.156C281.996 370.133 264.621 384.1 256.774 360.156Z" fill="#93BA24"/>
<path d="M265.329 392.239C256.604 365.525 278.832 362.988 291.036 365.059C278.572 358.587 259.564 342.072 283.246 327.783C306.929 313.494 323.755 333.737 329.209 345.645C324.794 333.737 322.042 309.301 346.347 306.816C376.729 303.71 353.358 352.634 357.253 345.645C360.369 340.053 365.822 335.031 368.159 333.219C383.74 320.794 400.878 335.549 401.657 352.634C402.28 366.301 383.74 369.718 374.392 369.718C383.999 375.413 399.476 389.909 384.519 402.334C369.562 414.759 352.839 400.781 346.347 392.239C352.319 404.405 357.253 429.359 329.209 431.844C301.164 434.329 299.346 406.476 301.943 392.239C293.374 403.369 274.054 418.953 265.329 392.239Z" fill="#83A61E"/>
<path d="M293.909 433.496C286.062 409.552 306.052 407.279 317.028 409.135C305.819 403.334 288.725 388.532 310.023 375.725C331.321 362.918 346.454 381.061 351.358 391.734C347.388 381.061 344.912 359.159 366.771 356.932C394.094 354.148 373.076 397.998 376.579 391.734C379.381 386.722 384.286 382.221 386.387 380.597C400.399 369.461 415.812 382.686 416.513 397.998C417.073 410.249 400.399 413.311 391.992 413.311C400.633 418.416 414.551 431.408 401.1 442.545C387.648 453.681 372.609 441.153 366.771 433.496C372.142 444.401 376.579 466.767 351.358 468.994C326.136 471.222 324.502 446.257 326.837 433.496C319.13 443.473 301.755 457.44 293.909 433.496Z" fill="#88AF1B"/>
<path d="M320.065 391.572C315.933 396.71 323.939 403.347 328.458 406.023C330.18 407.629 332.59 410.905 328.458 411.162C323.293 411.483 312.963 411.804 314.578 420.474C316.192 429.145 320.065 430.43 328.458 423.686C336.851 416.942 336.529 425.934 338.466 436.531C340.403 447.128 352.992 440.706 356.22 434.925C359.449 429.145 352.992 418.226 351.378 417.263C349.764 416.3 347.182 408.914 344.276 406.023C341.371 403.133 347.182 396.068 338.466 388.682C329.75 381.296 325.23 385.15 320.065 391.572Z" fill="#7DA708"/>
<path d="M311.159 374.908C332.325 363.768 346.126 380.014 350.149 389.297L351.077 390.69C343.706 384.191 324.659 373.98 313.015 383.263C301.371 392.547 314.972 406.627 323.227 412.506C315.182 412.095 299.647 415.047 301.875 430.145C304.103 445.243 321.371 435.507 329.726 428.752C330.499 439.556 336.131 461.088 352.47 460.78C368.809 460.472 369.18 443.013 367.323 434.322C368.251 436.642 369.902 441.957 370.108 443.605C370.572 447.318 372.429 458.459 367.323 462.172C362.218 465.886 357.111 471.919 341.794 468.67C328.078 465.761 324.155 448.247 326.476 434.322C322.763 439.427 313.572 446.854 306.517 446.854C297.698 446.854 289.343 429.68 293.52 417.612C296.862 407.957 309.766 407.4 316.265 408.792L313.015 406.936C303.577 401.057 289.993 386.048 311.159 374.908Z" fill="#597609" fill-opacity="0.7"/>
<path d="M205.329 307.139C187.876 320.135 196.2 330.502 202.544 334.06L207.185 336.845C205.174 334.525 200.78 328.676 199.294 323.849C197.809 319.021 205.793 308.84 209.97 304.354L205.329 307.139Z" fill="#7DA708"/>
<path d="M342.258 310.387C366.395 303.331 359.742 330.346 353.398 344.735C354.171 336.071 354.79 317.72 351.077 313.636C346.435 308.53 336.688 312.707 342.258 310.387Z" fill="#74980F"/>
<path d="M265.206 308.995C258.894 316.05 265.361 324.622 269.384 328.026L274.025 331.739C270.216 326.633 265.719 314.287 278.203 305.746C290.687 297.205 308.779 312.708 316.265 321.528C313.635 313.637 311.809 296.462 325.548 290.892C339.288 285.322 342.413 298.474 342.259 305.746C342.723 303.734 343.651 298.876 343.651 295.534C343.651 291.356 341.794 288.107 339.938 286.251C338.081 284.394 331.118 280.217 318.586 288.107C308.56 294.42 310.695 309.614 313.016 316.422C303.732 298.783 291.664 297.855 286.094 297.855C280.524 297.855 273.097 300.176 265.206 308.995Z" fill="#7DA314"/>
<path d="M302.34 457.53L308.374 449.639L294.449 458.458L293.057 463.564L303.268 480.274L302.34 457.53Z" fill="#855633"/>
<path d="M295.099 542.48C294.356 538.395 296.027 531.185 296.956 528.091C298.813 523.449 300.205 531.34 299.741 537.374C299.277 543.409 300.669 542.48 300.205 549.907C299.741 557.334 296.027 558.262 296.956 553.156C297.884 548.05 296.027 547.586 295.099 542.48Z" fill="#855633"/>
<path d="M287.951 534.582C286.094 540.524 278.204 545.413 274.49 547.115L280.06 460.779C280.679 462.017 283.124 465.235 287.951 468.206C293.985 471.919 293.985 483.988 292.129 486.773C290.272 489.558 292.593 495.592 292.129 503.483C291.665 511.374 296.306 512.302 293.985 517.408C291.665 522.514 290.272 527.156 287.951 534.582Z" fill="#9D5823"/>
<path d="M274.49 541.08L277.739 491.414L279.132 473.775C281.917 477.179 287.58 484.173 287.951 484.915C288.415 485.844 282.381 503.482 282.381 508.124C282.381 512.766 287.023 517.872 286.094 522.049C285.352 525.391 278.049 536.129 274.49 541.08Z" fill="#855633"/>
<path d="M91.168 428.164C71.7427 444.212 62.3267 426.432 60.0469 415.536C58.7402 428.09 51.2016 449.408 31.5019 434.257C11.8022 419.106 23.1676 398.394 31.3127 389.931C22.8266 397.524 3.34077 407.826 -6.71412 388.29C-19.2827 363.87 29.2144 367.425 22.1034 366.451C16.4147 365.672 10.4338 362.75 8.15449 361.386C-7.32943 352.408 -0.645714 333.231 13.354 326.987C24.5538 321.992 33.4933 336.397 36.563 344.224C38.1598 334.316 45.1733 316.614 60.4526 325.07C75.7318 333.527 69.5595 352.102 64.5634 360.333C72.7539 351.351 91.9557 339.054 103.238 361.72C114.521 384.387 91.8771 395.024 79.1447 397.51C91.2464 401.041 110.593 412.117 91.168 428.164Z" fill="#7AA011"/>
<path d="M80.6336 592.466L101.057 598.964L114.982 587.824L110.34 481.993L134.477 449.501V437.433L110.34 466.211L114.982 405.869L88.0603 427.221V466.211H69.4935L61.1384 449.501L55.5684 456.928L69.4935 475.495L88.0603 481.993L80.6336 592.466Z" fill="#B07D56"/>
<path d="M-10.4212 456.568C-18.2679 432.625 1.72236 430.351 12.6983 432.207C1.48893 426.407 -15.6053 411.604 5.69267 398.797C26.9907 385.99 27.7175 390.553 40.2501 397.051C40.2501 382.265 40.5792 382.232 62.1446 380.034L62.4407 380.004C89.7638 377.22 68.746 421.071 72.249 414.806C75.0513 409.795 79.9555 405.294 82.0573 403.67C96.0691 392.533 111.482 405.758 112.183 421.071C112.743 433.321 96.0691 436.384 87.662 436.384C96.3027 441.488 110.221 454.48 96.7697 465.617C83.3183 476.754 68.2789 464.225 62.4407 456.568C67.8119 467.473 72.249 489.839 47.0276 492.067C21.8063 494.294 18.4196 483.615 20.7549 470.854C13.0483 480.831 -2.57461 480.512 -10.4212 456.568Z" fill="#93BA24"/>
<path d="M0.400589 452.748C-6.04068 433.185 10.3692 431.327 19.3793 432.844C10.1776 428.105 -3.85501 416.011 13.6284 405.547C31.1119 395.082 31.7085 398.811 41.9965 404.12C41.9965 392.039 42.2666 392.012 59.9696 390.217L60.2126 390.192C82.642 387.917 65.3886 423.745 68.2642 418.627C70.5646 414.532 74.5904 410.855 76.3158 409.528C87.818 400.429 100.471 411.234 101.046 423.745C101.506 433.754 87.818 436.256 80.9167 436.256C88.0098 440.427 99.4353 451.043 88.3932 460.142C77.351 469.241 65.0052 459.004 60.2126 452.748C64.6218 461.658 68.2642 479.932 47.5601 481.752C26.856 483.572 24.0759 474.847 25.993 464.421C19.6666 472.572 6.84186 472.311 0.400589 452.748Z" fill="#6C8917"/>
<path d="M64.7741 384.156C56.9274 360.212 76.9177 357.939 87.8936 359.795C76.6842 353.995 59.59 339.192 80.888 326.385C102.186 313.578 117.319 331.721 122.223 342.394C118.253 331.722 115.777 309.82 137.636 307.592C164.959 304.808 143.941 348.659 147.444 342.394C150.247 337.383 155.151 332.882 157.253 331.258C171.264 320.121 186.677 333.346 187.378 348.659C187.939 360.909 171.264 363.971 162.857 363.971C171.498 369.076 185.416 382.068 171.965 393.205C158.514 404.342 143.474 391.813 137.636 384.156C143.007 395.061 147.444 417.427 122.223 419.654C97.0016 421.882 95.3669 396.917 97.7022 384.156C89.9956 394.133 72.6207 408.1 64.7741 384.156Z" fill="#93BA24"/>
<path d="M73.3288 416.239C64.6038 389.525 86.8317 386.988 99.0363 389.059C86.5722 382.587 67.5644 366.072 91.2465 351.783C114.929 337.494 131.755 357.737 137.209 369.645C132.794 357.737 130.042 333.301 154.347 330.816C184.729 327.71 161.358 376.634 165.253 369.645C168.369 364.053 173.822 359.031 176.159 357.219C191.74 344.794 208.878 359.549 209.657 376.634C210.28 390.301 191.74 393.718 182.392 393.718C191.999 399.413 207.476 413.909 192.519 426.334C177.562 438.759 160.839 424.781 154.347 416.239C160.319 428.405 165.253 453.359 137.209 455.844C109.164 458.329 107.346 430.476 109.943 416.239C101.374 427.369 82.0538 442.953 73.3288 416.239Z" fill="#83A61E"/>
<path d="M101.909 457.496C94.0622 433.552 114.052 431.279 125.028 433.135C113.819 427.334 96.7247 412.532 118.023 399.725C139.321 386.918 154.454 405.061 159.358 415.734C155.388 405.061 152.912 383.159 174.771 380.932C202.094 378.148 181.076 421.998 184.579 415.734C187.381 410.722 192.286 406.221 194.387 404.597C208.399 393.461 223.812 406.686 224.513 421.998C225.073 434.249 208.399 437.311 199.992 437.311C208.633 442.416 222.551 455.408 209.1 466.545C195.648 477.681 180.609 465.153 174.771 457.496C180.142 468.401 184.579 490.767 159.358 492.994C134.136 495.222 132.502 470.257 134.837 457.496C127.13 467.473 109.755 481.44 101.909 457.496Z" fill="#A3CF2A"/>
<path d="M128.065 415.572C123.933 420.71 131.939 427.347 136.458 430.023C138.18 431.629 140.59 434.905 136.458 435.162C131.293 435.483 120.963 435.804 122.578 444.474C124.192 453.145 128.065 454.43 136.458 447.686C144.851 440.942 144.529 449.934 146.466 460.531C148.403 471.128 160.992 464.706 164.22 458.925C167.449 453.145 160.992 442.226 159.378 441.263C157.764 440.3 155.182 432.914 152.276 430.023C149.371 427.133 155.182 420.068 146.466 412.682C137.75 405.296 133.23 409.15 128.065 415.572Z" fill="#7DA708"/>
<path d="M119.159 398.908C140.325 387.768 154.126 404.014 158.149 413.297L159.077 414.69C151.706 408.191 132.659 397.98 121.015 407.263C109.371 416.547 122.972 430.627 131.227 436.506C123.182 436.095 107.647 439.047 109.875 454.145C112.103 469.243 129.371 459.507 137.726 452.752C138.499 463.556 144.131 485.088 160.47 484.78C176.809 484.472 177.18 467.013 175.323 458.322C176.251 460.642 177.902 465.957 178.108 467.605C178.572 471.318 180.429 482.459 175.323 486.172C170.218 489.886 165.111 495.919 149.794 492.67C136.078 489.761 132.155 472.247 134.476 458.322C130.763 463.427 121.572 470.854 114.517 470.854C105.698 470.854 97.3429 453.68 101.52 441.612C104.862 431.957 117.766 431.4 124.265 432.792L121.015 430.936C111.577 425.057 97.9926 410.048 119.159 398.908Z" fill="#597609" fill-opacity="0.7"/>
<path d="M13.3286 331.139C-4.12424 344.135 4.19988 354.502 10.5435 358.06L15.1852 360.845C13.1738 358.525 8.77966 352.676 7.29432 347.849C5.80897 343.021 13.7927 332.84 17.9702 328.354L13.3286 331.139Z" fill="#93BA24"/>
<path d="M150.258 334.387C174.395 327.331 167.742 354.346 161.398 368.735C162.171 360.071 162.79 341.72 159.077 337.636C154.435 332.53 144.688 336.707 150.258 334.387Z" fill="#74980F"/>
<path d="M73.2063 332.995C66.8936 340.05 73.3611 348.622 77.3839 352.026L82.0255 355.739C78.2165 350.633 73.7193 338.287 86.203 329.746C98.6867 321.205 116.779 336.708 124.265 345.528C121.635 337.637 119.809 320.462 133.548 314.892C147.288 309.322 150.413 322.474 150.259 329.746C150.723 327.734 151.651 322.876 151.651 319.534C151.651 315.356 149.794 312.107 147.938 310.251C146.081 308.394 139.118 304.217 126.586 312.107C116.56 318.42 118.695 333.614 121.016 340.422C111.732 322.783 99.664 321.855 94.0939 321.855C88.5239 321.855 81.0972 324.176 73.2063 332.995Z" fill="#7DA314"/>
<path d="M110.34 481.53L116.374 473.639L102.449 482.458L101.057 487.564L111.268 504.274L110.34 481.53Z" fill="#855633"/>
<path d="M103.099 566.48C102.356 562.395 104.027 555.185 104.956 552.091C106.813 547.449 108.205 555.34 107.741 561.374C107.277 567.409 108.669 566.48 108.205 573.907C107.741 581.334 104.027 582.262 104.956 577.156C105.884 572.05 104.027 571.586 103.099 566.48Z" fill="#855633"/>
<path d="M95.9512 558.582C94.0945 564.524 86.2036 569.413 82.4902 571.115L88.0603 484.779C88.6792 486.017 91.1238 489.235 95.9512 492.206C101.985 495.919 101.985 507.988 100.129 510.773C98.272 513.558 100.593 519.592 100.129 527.483C99.6645 535.374 104.306 536.302 101.985 541.408C99.6645 546.514 98.272 551.156 95.9512 558.582Z" fill="#9D5823"/>
<path d="M82.4902 565.08L85.7394 515.414L87.1319 497.775C89.917 501.179 95.5798 508.173 95.9512 508.915C96.4153 509.844 90.3811 527.482 90.3811 532.124C90.3811 536.766 95.0228 541.872 94.0945 546.049C93.3518 549.391 86.0489 560.129 82.4902 565.08Z" fill="#855633"/>
<path d="M227.168 482.164C207.743 498.212 198.327 480.432 196.047 469.536C194.74 482.09 187.202 503.408 167.502 488.257C147.802 473.106 159.168 452.394 167.313 443.931C158.827 451.524 139.341 461.826 129.286 442.29C116.717 417.87 165.214 421.425 158.103 420.451C152.415 419.672 146.434 416.75 144.154 415.386C128.671 406.408 135.354 387.231 149.354 380.987C160.554 375.992 169.493 390.397 172.563 398.224C174.16 388.316 181.173 370.614 196.453 379.07C211.732 387.527 205.559 406.102 200.563 414.333C208.754 405.351 227.956 393.054 239.238 415.72C250.521 438.387 227.877 449.024 215.145 451.51C227.246 455.041 246.593 466.117 227.168 482.164Z" fill="#86B30B"/>
<path d="M216.634 646.466L237.057 652.964L250.982 641.824L246.34 535.993L270.477 503.501V491.433L246.34 520.211L250.982 459.869L224.06 481.221V520.211H205.493L197.138 503.501L191.568 510.928L205.493 529.495L224.06 535.993L216.634 646.466Z" fill="#B07D56"/>
<path d="M125.579 510.568C117.732 486.625 137.722 484.351 148.698 486.207C137.489 480.407 120.395 465.604 141.693 452.797C162.991 439.99 163.717 444.553 176.25 451.051C176.25 436.265 176.579 436.232 198.145 434.034L198.441 434.004C225.764 431.22 204.746 475.071 208.249 468.806C211.051 463.795 215.955 459.294 218.057 457.67C232.069 446.533 247.482 459.758 248.183 475.071C248.743 487.321 232.069 490.384 223.662 490.384C232.303 495.488 246.221 508.48 232.77 519.617C219.318 530.754 204.279 518.225 198.441 510.568C203.812 521.473 208.249 543.839 183.028 546.067C157.806 548.294 154.42 537.615 156.755 524.854C149.048 534.831 133.425 534.512 125.579 510.568Z" fill="#6B8818"/>
<path d="M136.401 506.748C129.959 487.185 146.369 485.327 155.379 486.844C146.178 482.105 132.145 470.011 149.628 459.547C167.112 449.082 167.709 452.811 177.996 458.12C177.996 446.039 178.267 446.012 195.97 444.217L196.213 444.192C218.642 441.917 201.389 477.745 204.264 472.627C206.565 468.532 210.59 464.855 212.316 463.528C223.818 454.429 236.471 465.234 237.046 477.745C237.506 487.754 223.818 490.256 216.917 490.256C224.01 494.427 235.435 505.043 224.393 514.142C213.351 523.241 201.005 513.004 196.213 506.748C200.622 515.658 204.264 533.932 183.56 535.752C162.856 537.572 160.076 528.847 161.993 518.421C155.667 526.572 142.842 526.311 136.401 506.748Z" fill="#7DA314"/>
<path d="M200.774 438.156C192.927 414.212 212.918 411.939 223.894 413.795C212.684 407.995 195.59 393.192 216.888 380.385C238.186 367.578 253.319 385.721 258.223 396.394C254.253 385.722 251.777 363.82 273.636 361.592C300.959 358.808 279.941 402.659 283.444 396.394C286.247 391.383 291.151 386.882 293.253 385.258C307.264 374.121 322.677 387.346 323.378 402.659C323.939 414.909 307.264 417.971 298.857 417.971C307.498 423.076 321.416 436.068 307.965 447.205C294.514 458.342 279.474 445.813 273.636 438.156C279.007 449.061 283.444 471.427 258.223 473.654C233.002 475.882 231.367 450.917 233.702 438.156C225.996 448.133 208.621 462.1 200.774 438.156Z" fill="#93BA24"/>
<path d="M209.329 470.239C200.604 443.525 222.832 440.988 235.036 443.059C222.572 436.587 203.564 420.072 227.246 405.783C250.929 391.494 267.755 411.737 273.209 423.645C268.794 411.737 266.042 387.301 290.347 384.816C320.729 381.71 297.358 430.634 301.253 423.645C304.369 418.053 309.822 413.031 312.159 411.219C327.74 398.794 344.878 413.549 345.657 430.634C346.28 444.301 327.74 447.718 318.392 447.718C327.999 453.413 343.476 467.909 328.519 480.334C313.562 492.759 296.839 478.781 290.347 470.239C296.319 482.405 301.253 507.359 273.209 509.844C245.164 512.329 243.346 484.476 245.943 470.239C237.374 481.369 218.054 496.953 209.329 470.239Z" fill="#6A8812"/>
<path d="M237.909 511.496C230.062 487.552 250.052 485.279 261.028 487.135C249.819 481.334 232.725 466.532 254.023 453.725C275.321 440.918 290.454 459.061 295.358 469.734C291.388 459.061 288.912 437.159 310.771 434.932C338.094 432.148 317.076 475.998 320.579 469.734C323.381 464.722 328.286 460.221 330.387 458.597C344.399 447.461 359.812 460.686 360.513 475.998C361.073 488.249 344.399 491.311 335.992 491.311C344.633 496.416 358.551 509.408 345.1 520.545C331.648 531.681 316.609 519.153 310.771 511.496C316.142 522.401 320.579 544.767 295.358 546.994C270.136 549.222 268.502 524.257 270.837 511.496C263.13 521.473 245.755 535.44 237.909 511.496Z" fill="#709608"/>
<path d="M264.065 469.572C259.933 474.71 267.939 481.347 272.458 484.023C274.18 485.629 276.59 488.905 272.458 489.162C267.293 489.483 256.963 489.804 258.578 498.474C260.192 507.145 264.065 508.43 272.458 501.686C280.851 494.942 280.529 503.934 282.466 514.531C284.403 525.128 296.992 518.706 300.22 512.925C303.449 507.145 296.992 496.226 295.378 495.263C293.764 494.3 291.182 486.914 288.276 484.023C285.371 481.133 291.182 474.068 282.466 466.682C273.75 459.296 269.23 463.15 264.065 469.572Z" fill="#7DA708"/>
<path d="M255.159 452.908C276.325 441.768 290.126 458.014 294.149 467.297L295.077 468.69C287.706 462.191 268.659 451.98 257.015 461.263C245.371 470.547 258.972 484.627 267.227 490.506C259.182 490.095 243.647 493.047 245.875 508.145C248.103 523.243 265.371 513.507 273.726 506.752C274.499 517.556 280.131 539.088 296.47 538.78C312.809 538.472 313.18 521.013 311.323 512.322C312.251 514.642 313.902 519.957 314.108 521.605C314.572 525.318 316.429 536.459 311.323 540.172C306.218 543.886 301.111 549.919 285.794 546.67C272.078 543.761 268.155 526.247 270.476 512.322C266.763 517.427 257.572 524.854 250.517 524.854C241.698 524.854 233.343 507.68 237.52 495.612C240.862 485.957 253.766 485.4 260.265 486.792L257.015 484.936C247.577 479.057 233.993 464.048 255.159 452.908Z" fill="#597609" fill-opacity="0.7"/>
<path d="M149.329 385.139C131.876 398.135 140.2 408.502 146.544 412.06L151.185 414.845C149.174 412.525 144.78 406.676 143.294 401.849C141.809 397.021 149.793 386.84 153.97 382.354L149.329 385.139Z" fill="#ABDE1F"/>
<path d="M286.258 388.387C310.395 381.331 303.742 408.346 297.398 422.735C298.171 414.071 298.79 395.72 295.077 391.636C290.435 386.53 280.688 390.707 286.258 388.387Z" fill="#74980F"/>
<path d="M209.206 386.995C202.894 394.05 209.361 402.622 213.384 406.026L218.025 409.739C214.216 404.633 209.719 392.287 222.203 383.746C234.687 375.205 252.779 390.708 260.265 399.528C257.635 391.637 255.809 374.462 269.548 368.892C283.288 363.322 286.413 376.474 286.259 383.746C286.723 381.734 287.651 376.876 287.651 373.534C287.651 369.356 285.794 366.107 283.938 364.251C282.081 362.394 275.118 358.217 262.586 366.107C252.56 372.42 254.695 387.614 257.016 394.422C247.732 376.783 235.664 375.855 230.094 375.855C224.524 375.855 217.097 378.176 209.206 386.995Z" fill="#7DA314"/>
<path d="M246.34 535.53L252.374 527.639L238.449 536.458L237.057 541.564L247.268 558.274L246.34 535.53Z" fill="#855633"/>
<path d="M239.099 620.48C238.356 616.395 240.027 609.185 240.956 606.091C242.813 601.449 244.205 609.34 243.741 615.374C243.277 621.409 244.669 620.48 244.205 627.907C243.741 635.334 240.027 636.262 240.956 631.156C241.884 626.05 240.027 625.586 239.099 620.48Z" fill="#855633"/>
<path d="M231.951 612.582C230.094 618.524 222.204 623.413 218.49 625.115L224.06 538.779C224.679 540.017 227.124 543.235 231.951 546.206C237.985 549.919 237.985 561.988 236.129 564.773C234.272 567.558 236.593 573.592 236.129 581.483C235.665 589.374 240.306 590.302 237.985 595.408C235.665 600.514 234.272 605.156 231.951 612.582Z" fill="#9D5823"/>
<path d="M218.49 619.08L221.739 569.414L223.132 551.775C225.917 555.179 231.58 562.173 231.951 562.915C232.415 563.844 226.381 581.482 226.381 586.124C226.381 590.766 231.023 595.872 230.094 600.049C229.352 603.391 222.049 614.129 218.49 619.08Z" fill="#855633"/>
<path style="mix-blend-mode:multiply" d="M532.014 631.566C531.206 631.147 530.305 630.935 529.394 630.951C511.218 629.897 493.042 632.254 474.837 632.62C457.652 632.955 440.479 631.522 423.59 628.345L420.809 627.847C414.723 627.444 408.645 628.748 403.266 631.61C402.706 631.903 402.118 632.283 402.015 632.898C401.853 633.894 403.06 634.509 404.046 634.758C414.819 637.482 426.122 636.105 437.263 636.325C438.075 636.248 438.888 636.472 439.544 636.954C440.133 637.511 440.059 638.741 439.265 638.902H471.967C481.769 638.902 491.6 638.902 501.402 638.463C511.293 638.074 521.137 636.889 530.837 634.919C531.233 634.892 531.618 634.78 531.966 634.591C532.314 634.401 532.617 634.138 532.853 633.821C532.998 633.407 532.994 632.955 532.841 632.544C532.687 632.132 532.395 631.786 532.014 631.566Z" fill="url(#paint1_linear)" fill-opacity="0.4"/>
<path d="M407.887 515.95C409.27 514.119 410.668 512.274 412.184 510.503C414.403 507.923 416.835 505.533 419.455 503.357C420.34 502.515 421.423 501.906 422.604 501.586C423.309 501.438 424.039 501.452 424.738 501.627C425.437 501.802 426.086 502.133 426.637 502.596C427.107 503.002 427.452 503.533 427.632 504.126C427.812 504.72 427.819 505.352 427.652 505.949C427.314 506.811 426.815 507.6 426.181 508.277L415.466 522.304C414.53 523.674 413.353 524.864 411.993 525.819C410.269 526.902 408.194 527.284 406.194 526.887C404.075 526.434 401.72 524.574 402.736 522.758C404.311 520.386 406.031 518.112 407.887 515.95Z" fill="#5B6C7F"/>
<path d="M422.104 621.843C424.194 621.023 423.575 617.758 423.311 615.547C422.329 608.548 421.348 601.554 420.367 594.565C419.687 590.916 419.504 587.193 419.823 583.495C420.661 577.243 424.238 571.781 427.431 566.305C430.911 560.22 433.865 553.852 436.262 547.27C436.893 545.928 437.133 544.436 436.954 542.965C436.824 542.451 436.621 541.958 436.35 541.501C435.356 539.956 433.999 538.675 432.397 537.767C430.794 536.859 428.995 536.352 427.152 536.288C424.444 536.01 418.189 535.937 416.158 538.236C414.127 540.535 414.568 546.377 414.142 549.115C412.778 557.9 411.1 566.588 409.108 575.178C408.746 576.563 408.486 577.973 408.328 579.395C408.245 581.23 408.339 583.069 408.608 584.886L417.276 620.511C417.276 620.511 418.41 623.308 422.104 621.843Z" fill="#4D4D4D"/>
<path d="M443.048 578.868C444.196 570.873 445.358 562.864 445.741 554.796C445.981 551.376 445.863 547.941 445.388 544.546C445.2 542.513 444.37 540.591 443.018 539.055C438.279 534.472 429.964 536.932 427.977 542.789C426.211 547.899 427.168 553.478 427.727 558.896C428.242 563.874 428.404 568.896 428.507 573.904C428.782 589.523 428.418 605.141 427.418 620.76C427.312 621.242 427.323 621.743 427.448 622.222C427.573 622.7 427.81 623.142 428.139 623.512C428.439 623.728 428.779 623.882 429.14 623.966C429.14 623.966 432.672 624.684 433.555 623.966C434.438 623.249 442.665 581.577 443.048 578.868Z" fill="#4D4D4D"/>
<path d="M423.532 627.86C424.062 627.67 424.65 627.626 425.18 627.406C426.828 626.747 427.505 624.844 427.976 623.145C428.01 622.933 428.114 622.737 428.271 622.589C428.439 622.475 428.642 622.423 428.845 622.443L431.288 622.325C431.543 622.274 431.806 622.277 432.06 622.335C432.314 622.393 432.553 622.505 432.76 622.662C433.009 623.022 433.124 623.457 433.083 623.892V626.967C433.116 627.525 433.051 628.085 432.892 628.622C432.544 629.351 432.071 630.015 431.494 630.584C430.891 631.513 430.185 632.373 429.389 633.146C428.646 633.668 427.805 634.037 426.917 634.23C425.092 634.713 421.795 634.918 421.03 632.575C420.822 631.622 420.96 630.627 421.417 629.764C421.875 628.902 422.624 628.228 423.532 627.86Z" fill="#3B3B3B"/>
<path d="M418.646 621.447C418.297 621.467 417.958 621.573 417.66 621.755C416.895 622.297 417.13 623.483 416.777 624.347C416.58 624.731 416.294 625.064 415.944 625.318C415.594 625.572 415.188 625.741 414.761 625.811C413.898 625.94 413.028 626.019 412.156 626.045C411.766 626.061 411.384 626.161 411.037 626.338C410.08 626.909 410.007 628.242 410.036 629.34C410.029 629.537 410.07 629.732 410.154 629.911C410.272 630.043 410.417 630.148 410.579 630.219C410.742 630.29 410.918 630.325 411.096 630.321C414.993 630.698 418.925 630.47 422.752 629.647C423.185 629.603 423.587 629.406 423.885 629.091C424.108 628.7 424.181 628.242 424.091 627.802C423.944 626.148 424.283 623.175 423.267 621.77C422.252 620.364 420.103 621.447 418.646 621.447Z" fill="#3B3B3B"/>
<path d="M433.598 500.443C434.217 500.219 434.876 500.128 435.533 500.176C436.19 500.224 436.83 500.41 437.409 500.721C437.894 501.169 438.271 501.72 438.513 502.332C440.183 505.661 441.657 509.083 442.928 512.582C444.971 518.643 446.169 524.954 446.49 531.338C446.696 534.97 447.182 538.586 447.3 542.218C447.194 545.158 446.928 548.091 446.505 551.003C439.146 551.223 431.684 550.608 424.311 550.666C422.493 550.6 420.675 550.787 418.91 551.223C417.217 551.735 415.495 552.687 413.788 552.262C412.792 547.436 412.747 542.463 413.655 537.62C414.421 534.223 415.686 530.914 416.128 527.37C416.739 523.248 417.594 519.166 418.689 515.144C419.336 512.626 419.969 510.092 420.602 507.574C421.102 505.583 421.279 502.683 422.456 500.956C423.634 499.228 425.106 500.253 426.725 500.619C429.003 501.041 431.344 500.981 433.598 500.443Z" fill="#F0F0F0"/>
<path d="M425.239 477.176C424.112 477.724 423.11 478.496 422.296 479.446C421.447 480.756 420.992 482.28 420.986 483.838C420.851 485.938 420.959 488.045 421.31 490.12C421.63 493.013 422.873 495.727 424.856 497.866C425.857 498.901 427.168 499.586 428.593 499.818C430.017 500.051 431.479 499.818 432.76 499.154C434.982 497.763 435.777 494.966 436.263 492.389C436.66 490.237 436.954 487.997 437.146 485.903C437.347 484.369 437.312 482.814 437.043 481.291C436.661 479.689 435.932 478.19 434.909 476.898C432.318 473.545 428.286 475.419 425.239 477.176Z" fill="#EDD5BE"/>
<path d="M430.464 484.045C431.126 484.499 431.935 484.719 432.583 485.143C433.382 485.677 433.945 486.494 434.158 487.427C434.158 487.618 434.29 487.867 434.481 487.852C434.673 487.837 434.746 487.588 434.894 487.471C435.041 487.354 435.526 487.471 435.644 487.735C435.732 488.031 435.732 488.346 435.644 488.643C435.144 490.619 434.643 492.596 434.172 494.5C435.851 492.438 437.22 490.145 438.234 487.691C438.433 487.199 438.557 486.681 438.602 486.154C438.584 484.93 438.172 483.744 437.425 482.771C436.771 481.534 435.741 480.535 434.481 479.916C433.699 479.641 432.863 479.545 432.038 479.638C430.993 479.711 429.389 480.121 428.977 481.263C428.565 482.405 429.684 483.518 430.464 484.045Z" fill="#D9AC7C"/>
<path d="M438.632 479.739C438.451 478.289 437.881 476.914 436.984 475.757C436.282 475.038 435.454 474.452 434.541 474.029C433.82 473.624 433.048 473.319 432.245 473.121C430.635 472.883 428.993 472.998 427.432 473.458C424.96 473.999 422.281 474.717 420.795 476.752C419.796 478.288 419.345 480.114 419.514 481.936C419.499 481.993 419.499 482.054 419.514 482.111C419.035 482.293 418.577 482.524 418.145 482.799C416.163 484.011 414.574 485.764 413.568 487.851C415.381 486.727 417.371 485.915 419.455 485.45C421.618 485.072 423.84 485.198 425.946 485.816C426.424 485.986 426.916 486.114 427.417 486.196C427.615 486.247 427.823 486.247 428.021 486.196C428.21 486.082 428.371 485.927 428.492 485.743C429.146 485.005 429.948 484.411 430.847 484L431.273 483.795C432.461 484.236 433.6 484.795 434.673 485.464C435.242 485.876 435.866 486.207 436.528 486.445C436.862 486.557 437.221 486.579 437.567 486.51C437.913 486.441 438.235 486.282 438.5 486.05C438.903 485.502 439.082 484.821 439 484.147C439.01 482.669 438.887 481.194 438.632 479.739Z" fill="#333333"/>
<path d="M439.294 603.012C439.606 604.384 439.794 605.78 439.853 607.185C439.801 607.543 439.821 607.907 439.912 608.256C440.003 608.606 440.163 608.934 440.383 609.221C440.898 609.718 442.076 609.221 441.855 608.576L443.488 611.153C443.282 611.08 443.488 610.729 443.68 610.758C443.871 610.787 444.004 611.007 444.107 611.197C444.474 611.988 444.857 612.779 445.225 613.555L451.112 615.766C453.761 616.747 455.307 618.518 458.25 619.28C461.782 620.104 465.384 620.594 469.008 620.744C475.797 621.394 482.647 620.818 489.23 619.046C493.263 617.801 497.045 615.883 501.004 614.653C504.374 613.628 507.936 613.101 511.086 611.519C514.235 609.938 516.973 606.907 516.973 603.393C516.903 602.104 516.567 600.843 515.987 599.688C512.631 592.514 504.213 588.824 496.353 588.209C488.494 587.594 480.503 589.468 472.644 590.229C470.053 590.478 467.257 590.566 465.094 589.131C464.2 588.385 463.256 587.7 462.268 587.081C461.763 586.789 461.164 586.703 460.597 586.839C460.029 586.975 459.537 587.325 459.221 587.813C459.516 586.92 458.324 586.203 457.382 586.232C456.44 586.261 455.395 586.627 454.556 586.232C454.129 586.012 453.776 585.602 453.29 585.588C452.422 585.588 451.907 586.832 451.038 586.774C450.17 586.715 449.935 585.749 449.214 585.646C448.824 585.629 448.439 585.731 448.11 585.939C447.166 586.351 446.134 586.523 445.107 586.442C444.08 586.36 443.089 586.026 442.223 585.471L441.737 587.813C440.501 586.964 438.661 587.975 438.131 589.395C436.542 593.758 438.308 598.488 439.294 603.012Z" fill="#BA9E80"/>
<path d="M426.8 588.721C426.02 589.849 425.799 591.298 424.946 592.367C423.724 593.919 421.399 594.373 420.354 596.057C419.953 596.794 419.802 597.639 419.924 598.468C420.046 599.297 420.434 600.064 421.031 600.655C421.648 601.225 422.394 601.64 423.206 601.864C424.018 602.088 424.872 602.115 425.696 601.943C426.461 601.797 427.168 601.504 427.977 601.431C431.789 601.05 434.998 605.648 438.692 604.696C439.563 604.403 440.344 603.892 440.96 603.213C441.575 602.534 442.006 601.708 442.209 600.816C442.597 599.028 442.736 597.195 442.621 595.369C442.621 593.085 442.754 590.654 441.591 588.677C441.021 587.798 440.262 587.056 439.369 586.504C438.475 585.952 437.47 585.604 436.425 585.485C434.332 585.261 432.215 585.568 430.273 586.379C428.905 586.793 427.694 587.61 426.8 588.721Z" fill="#BA9E80"/>
<path d="M477.279 625.812C477.345 625.15 477.167 624.487 476.776 623.948C476.386 623.409 475.811 623.03 475.159 622.883L476.94 622.18C474.379 621.243 473.511 618.183 471.833 616.045C470.594 614.639 469.139 613.438 467.521 612.487C467.103 612.189 466.641 611.957 466.152 611.799C464.254 611.286 462.458 613.263 462.414 615.254C462.576 617.21 463.325 619.072 464.563 620.599L470.582 629.648C471.86 631.21 472.616 633.129 472.746 635.139L470.406 635.49C470.262 635.614 470.147 635.767 470.068 635.939C469.99 636.11 469.949 636.297 469.949 636.486C469.949 636.675 469.99 636.861 470.068 637.033C470.147 637.205 470.262 637.358 470.406 637.481C470.998 637.979 471.725 638.29 472.496 638.375C473.137 638.609 473.824 638.697 474.504 638.631C475.184 638.565 475.841 638.347 476.425 637.994C477.061 637.352 477.447 636.506 477.514 635.607C477.92 632.859 477.358 630.055 475.925 627.671H477.293C477.511 627.273 477.608 626.82 477.573 626.368C477.085 626.32 476.623 626.126 476.248 625.812H477.279Z" fill="#BA9E80"/>
<path d="M497.517 619.046C499.151 621.199 501.932 622.106 504.611 622.604C507.313 622.878 509.949 623.6 512.411 624.742C514.334 625.886 515.78 627.679 516.488 629.794C516.859 630.862 517.043 631.987 517.032 633.117C517.032 633.776 516.179 636.046 516.502 636.339C516.718 636.529 516.994 636.637 517.282 636.646C518.754 636.807 519.858 636.646 520.329 635.182C520.766 633.875 520.98 632.504 520.962 631.126C520.966 628.345 520.085 625.633 518.445 623.38C517.356 621.916 515.899 620.598 515.619 618.797C515.257 618.787 514.908 618.66 514.624 618.436C514.34 618.211 514.137 617.902 514.045 617.553C513.927 616.85 514.707 616.088 515.354 616.396C515.708 616.118 515.531 615.532 515.178 615.254C514.825 614.976 514.368 614.902 513.986 614.668C513.117 614.17 512.823 613.087 512.426 612.179C512.028 611.271 511.16 610.319 510.189 610.568C510.385 610.381 510.529 610.146 510.608 609.886C510.686 609.627 510.695 609.352 510.634 609.088C510.573 608.824 510.444 608.58 510.261 608.38C510.077 608.18 509.844 608.031 509.585 607.947C510.718 608.123 511.381 606.483 510.807 605.487C510.074 604.575 509.023 603.969 507.863 603.789L503.978 602.647C502.684 602.176 501.305 601.982 499.931 602.076C498.698 602.361 497.578 603.003 496.712 603.92C495.845 604.837 495.27 605.989 495.059 607.23C494.687 609.723 494.893 612.267 495.663 614.668C495.977 616.237 496.608 617.726 497.517 619.046Z" fill="#BA9E80"/>
<path d="M450.302 611.681L449.448 611.418C447.977 613.848 448.948 616.938 448.757 619.749C448.507 623.175 446.564 626.221 444.68 629.091C443.911 630.597 442.642 631.792 441.089 632.473C440.382 632.693 439.529 632.722 439.028 633.279C438.898 633.471 438.808 633.686 438.761 633.913C438.715 634.141 438.715 634.374 438.76 634.602C438.805 634.829 438.895 635.045 439.024 635.238C439.154 635.43 439.32 635.595 439.514 635.724C440.346 636.191 441.328 636.318 442.252 636.075C444.632 635.402 446.83 634.206 448.683 632.576C449.281 632.128 449.847 631.639 450.376 631.111C451.431 629.902 452.285 628.533 452.907 627.056L454.202 624.405C454.614 623.541 455.674 622.531 456.336 623.146C455.954 623.146 456.13 622.502 456.498 622.414C456.866 622.326 457.352 622.414 457.528 622.033C457.531 621.664 457.43 621.302 457.238 620.987C457.046 620.671 456.769 620.415 456.439 620.247C456.926 620.271 457.409 620.155 457.832 619.914C458.255 619.672 458.599 619.315 458.823 618.885C459.261 618.021 459.497 617.07 459.515 616.103C459.801 614.217 459.388 612.291 458.352 610.685C457.511 609.74 456.375 609.103 455.127 608.874C453.878 608.646 452.589 608.84 451.465 609.426C449.213 610.612 450.935 609.236 450.302 611.681Z" fill="#BA9E80"/>
<path d="M528.188 613.643C528.459 614.165 528.865 614.605 529.365 614.917L526.245 616.205L527.614 617.113C525.935 617.853 524.145 618.313 522.316 618.475C521.408 618.555 520.494 618.414 519.653 618.065C518.812 617.715 518.069 617.168 517.488 616.469C516.811 615.503 516.576 614.287 516.016 613.262C514.994 611.953 513.893 610.706 512.72 609.529C511.698 607.948 510.914 606.226 510.394 604.418C508.564 599.632 505.48 595.421 501.461 592.221C502.927 591.456 504.547 591.029 506.201 590.973C507.856 590.917 509.502 591.233 511.017 591.897C512.531 592.561 513.876 593.557 514.951 594.809C516.025 596.062 516.802 597.54 517.223 599.133C517.724 601.036 517.709 603.042 518.047 604.989C518.149 605.97 518.453 606.919 518.939 607.778C519.425 608.637 520.083 609.387 520.873 609.983C521.465 610.315 522.12 610.519 522.796 610.582C523.472 610.645 524.154 610.566 524.797 610.349C525.44 610.132 526.03 609.782 526.528 609.323C527.026 608.864 527.421 608.305 527.687 607.684C528.49 607.773 529.233 608.151 529.775 608.747C530.317 609.343 530.622 610.116 530.631 610.92L528.261 611.125L530.69 612.984C530.351 613.276 529.949 613.488 529.515 613.602C529.082 613.716 528.628 613.73 528.188 613.643Z" fill="#BA9E80"/>
<path d="M491.275 634.641C492.394 636.223 494.999 635.93 496.441 634.641C497.759 633.192 498.761 631.487 499.385 629.633C500.106 627.987 501.009 626.425 502.078 624.977C503.097 623.733 504.031 622.422 504.874 621.053C505.682 619.668 505.914 618.023 505.522 616.47C505.199 615.619 504.681 614.854 504.009 614.236C503.337 613.618 502.53 613.165 501.651 612.912C499.878 612.411 498.03 612.217 496.191 612.341C495.456 612.306 494.723 612.431 494.042 612.707C493.707 612.856 493.427 613.105 493.243 613.42C493.058 613.736 492.977 614.101 493.012 614.464L495.573 620.321C496.161 621.508 496.568 622.777 496.78 624.084C496.86 625.531 496.58 626.975 495.964 628.289C495.348 629.602 494.414 630.743 493.247 631.61C492.188 632.401 490.922 633.411 491.275 634.641Z" fill="#BA9E80"/>
<path d="M448.139 564.723C448.426 564.468 448.613 564.121 448.668 563.742C448.85 562.917 448.85 562.063 448.668 561.238C448.521 560.638 448.271 560.066 448.094 559.466C447.785 558.241 447.637 556.981 447.653 555.718C447.554 551.121 447.766 546.523 448.286 541.954C448.418 540.68 448.286 539.025 447.02 538.689C446.635 538.65 446.248 538.738 445.919 538.939C445.589 539.14 445.335 539.443 445.195 539.801C444.924 540.526 444.829 541.303 444.915 542.071C445.107 547.518 445.666 553.009 444.768 558.397C444.419 559.746 444.354 561.152 444.577 562.526C445.173 562.518 445.766 562.439 446.343 562.292C446.256 562.907 446.337 563.535 446.578 564.108C446.639 564.251 446.728 564.38 446.84 564.489C446.952 564.598 447.084 564.683 447.229 564.74C447.374 564.797 447.529 564.825 447.686 564.822C447.842 564.819 447.996 564.786 448.139 564.723Z" fill="#E0D0C1"/>
<path d="M435.968 503.43C436.851 501.439 439.265 501.234 441.311 502.932C443.356 504.631 444.136 507.252 445.299 509.448C447.676 513.821 449.109 518.638 449.508 523.593C449.782 529.464 449.491 535.348 448.64 541.164C447.201 541.84 445.599 542.099 444.019 541.91C443.264 536.698 442.097 531.552 440.531 526.521C438.161 519.537 435.35 512.655 435.615 505.129C435.618 504.545 435.738 503.967 435.968 503.43Z" fill="#5B6C7F"/>
<path d="M446.315 568.648C446.502 567.513 446.629 566.37 446.698 565.222C449.303 564.504 452.217 562.162 452.688 559.365C452.699 559.326 452.701 559.285 452.694 559.245C452.687 559.205 452.67 559.167 452.646 559.135C452.622 559.102 452.591 559.076 452.554 559.057C452.518 559.039 452.478 559.029 452.438 559.028C451.106 559.011 449.79 559.307 448.595 559.892C447.401 560.477 446.362 561.335 445.564 562.396C445.5 562.381 445.434 562.382 445.37 562.397C445.306 562.412 445.247 562.442 445.197 562.484C444.974 562.669 444.807 562.912 444.713 563.185C444.619 563.459 444.602 563.752 444.665 564.035C444.727 564.317 444.866 564.577 445.066 564.786C445.266 564.995 445.52 565.146 445.8 565.222C445.645 570.059 445.074 574.875 444.093 579.615C444.065 579.714 444.077 579.82 444.127 579.91C444.176 580 444.259 580.068 444.358 580.098C447.007 580.728 445.152 583.422 444.358 584.945C443.649 586.366 443.21 587.905 443.062 589.484C443.062 589.997 443.828 589.997 443.887 589.484C444.265 587.208 445.101 585.032 446.344 583.085C446.655 582.598 446.849 582.047 446.913 581.473C446.977 580.9 446.908 580.319 446.712 579.776C446.688 579.694 446.637 579.621 446.569 579.568C446.5 579.516 446.416 579.486 446.33 579.483C444.166 579.615 445.55 575.852 445.712 574.739C445.932 572.675 446.153 570.669 446.315 568.648ZM448.111 560.653C448.258 560.551 452.261 558.735 452.07 559.907C451.724 560.978 451.037 561.908 450.112 562.557C449.026 563.334 447.879 564.024 446.683 564.621C446.68 563.882 446.396 563.17 445.888 562.63C446.515 561.854 447.266 561.187 448.111 560.653Z" fill="#444444"/>
<path d="M441.267 591.299C441.062 589.426 441.222 587.532 441.738 585.72C443.078 585.507 444.448 585.816 445.564 586.584C445.333 592.629 444.405 598.628 442.798 604.462C442.531 605.652 442.068 606.79 441.429 607.83C441.33 608.012 441.194 608.172 441.029 608.298C440.865 608.424 440.675 608.514 440.472 608.562C440.019 608.575 439.578 608.418 439.236 608.123C437.646 607.039 437.19 606.878 438.073 605.106C438.793 603.647 439.398 602.134 439.884 600.582C440.812 597.575 441.279 594.445 441.267 591.299Z" fill="#E2ECED"/>
<path d="M440.794 606.468L441.456 604.448C441.616 604.038 441.725 603.61 441.78 603.174C441.941 602.549 442.231 601.966 442.634 601.461C442.03 601.333 441.435 601.166 440.853 600.963C440.75 601.3 440.632 601.651 440.515 602.002C440.388 602.428 440.231 602.844 440.044 603.247C439.448 604.1 438.954 605.019 438.572 605.985C438.322 607.171 439.278 607.069 440.044 607.552C440.404 607.28 440.667 606.9 440.794 606.468Z" fill="white"/>
<path d="M443.709 586.994L443.915 587.155C443.857 587.089 443.787 587.035 443.709 586.994Z" fill="#BA8087"/>
<path d="M443.695 586.994C443.591 586.953 443.478 586.943 443.369 586.963C443.259 586.984 443.158 587.035 443.077 587.111C443.019 587.165 442.973 587.229 442.942 587.301C442.911 587.373 442.895 587.45 442.895 587.528C442.895 587.607 442.911 587.684 442.942 587.756C442.973 587.828 443.019 587.892 443.077 587.946C443.14 587.99 443.211 588.02 443.286 588.036C443.361 588.051 443.439 588.051 443.514 588.035C443.589 588.019 443.66 587.988 443.723 587.943C443.786 587.899 443.838 587.842 443.878 587.777C443.917 587.711 443.943 587.638 443.953 587.562C443.963 587.487 443.957 587.41 443.936 587.336C443.914 587.263 443.878 587.194 443.829 587.136C443.78 587.077 443.719 587.028 443.651 586.994H443.695Z" fill="#BA8087"/>
<path d="M443.298 588.723L443.504 588.869C443.44 588.824 443.365 588.795 443.287 588.785C443.208 588.776 443.129 588.786 443.056 588.816C442.982 588.845 442.918 588.892 442.867 588.952C442.817 589.013 442.783 589.085 442.768 589.162C442.764 589.253 442.785 589.343 442.828 589.424C442.871 589.504 442.935 589.571 443.013 589.619C443.091 589.667 443.18 589.693 443.271 589.695C443.363 589.697 443.453 589.675 443.533 589.63C443.617 589.57 443.681 589.487 443.718 589.39C443.754 589.294 443.762 589.189 443.739 589.089C443.707 588.993 443.649 588.908 443.571 588.843C443.493 588.778 443.398 588.737 443.298 588.723Z" fill="#80BAB7"/>
<path d="M443.209 599.499C443.257 599.52 443.31 599.532 443.363 599.532C443.417 599.532 443.469 599.52 443.518 599.499C443.65 599.426 443.65 599.25 443.65 599.089C443.65 598.928 443.65 598.913 443.562 598.869H443.43C442.964 598.861 442.501 598.807 442.046 598.708L441.457 598.518C441.266 598.518 440.265 597.991 440.118 598.123C439.971 598.254 440.251 598.65 440.354 598.738C440.772 598.958 441.225 599.106 441.693 599.177C442.184 599.341 442.693 599.449 443.209 599.499Z" fill="#444444"/>
<path d="M404.782 526.507C405.528 526.73 406.299 526.858 407.078 526.887L417.718 527.781C417.915 527.84 418.125 527.84 418.322 527.781C418.488 527.684 418.618 527.534 418.69 527.356C418.984 526.77 419.249 526.17 419.499 525.584C419.534 525.506 419.552 525.421 419.552 525.335C419.552 525.25 419.534 525.165 419.499 525.086C419.396 524.942 419.253 524.83 419.087 524.764C417.169 523.719 415.14 522.889 413.038 522.29C410.867 521.653 408.557 521.653 406.386 522.29C404.532 522.963 401.735 525.467 404.782 526.507Z" fill="#5B6C7F"/>
<path d="M423.134 528.089C423.474 528.12 423.809 528.189 424.134 528.294C424.751 528.577 425.346 528.905 425.915 529.275C426.532 529.576 427.216 529.718 427.903 529.687C428.589 529.657 429.257 529.454 429.845 529.099C430.324 528.78 430.751 528.39 431.11 527.942C431.27 527.758 431.39 527.544 431.464 527.313C431.505 527.129 431.499 526.937 431.448 526.756C431.396 526.575 431.301 526.409 431.169 526.273C430.906 525.995 430.591 525.771 430.242 525.614C429.51 525.165 428.657 524.95 427.799 524.999C427.338 525.084 426.889 525.222 426.46 525.409C424.18 526.233 421.671 526.165 419.439 525.219C419.323 525.164 419.199 525.13 419.072 525.116C418.748 525.116 418.571 525.468 418.468 525.76C418.365 526.053 418.056 526.873 418.218 527.225C418.38 527.576 419.145 527.561 419.528 527.62L423.134 528.089Z" fill="#E0D0C1"/>
<path d="M421.619 528.087C421.619 528.087 421.619 528.087 421.619 528.19H421.707C421.892 528.253 422.085 528.288 422.281 528.292H422.796C422.844 528.306 422.895 528.306 422.943 528.292C422.943 528.292 422.943 528.146 422.943 528.073C422.906 527.742 422.906 527.408 422.943 527.077C422.95 527.028 422.95 526.979 422.943 526.931C422.928 526.894 422.906 526.861 422.879 526.834C422.851 526.806 422.818 526.784 422.781 526.77C422.708 526.761 422.634 526.761 422.56 526.77C422.31 526.77 421.545 526.638 421.427 526.77C421.309 526.901 421.589 527.809 421.619 528.087Z" fill="#444444"/>
<path d="M422.149 524.808C422.202 524.689 422.289 524.587 422.399 524.515C422.524 524.462 422.66 524.437 422.796 524.442C423.269 524.44 423.74 524.504 424.194 524.632C424.288 524.644 424.376 524.685 424.445 524.75C424.562 524.881 424.445 525.086 424.445 525.247C424.202 525.808 423.912 526.347 423.576 526.858C423.52 526.963 423.445 527.057 423.356 527.136C423.195 527.244 423.004 527.296 422.811 527.283C422.522 527.311 422.231 527.311 421.943 527.283C420.28 526.961 421.678 525.526 422.149 524.808Z" fill="#444444"/>
<path d="M422.193 524.852C422.251 524.748 422.332 524.658 422.429 524.588C422.549 524.559 422.676 524.559 422.796 524.588C423.229 524.588 423.66 524.647 424.077 524.764C424.164 524.773 424.246 524.809 424.312 524.867C424.415 524.984 424.312 525.174 424.312 525.335C424.088 525.844 423.822 526.333 423.518 526.799C423.462 526.897 423.393 526.985 423.312 527.063C423.162 527.154 422.986 527.195 422.811 527.18C422.547 527.209 422.281 527.209 422.016 527.18C420.486 526.829 421.766 525.511 422.193 524.852Z" fill="#E2ECED"/>
<g clip-path="url(#clip1)">
<path style="mix-blend-mode:multiply" d="M726.425 652.701C727.3 653.416 728.422 653.755 729.546 653.644C754.263 654.472 779.007 653.914 803.662 651.973C804.66 651.902 805.957 651.502 805.957 650.545C805.957 649.588 804.532 649.117 803.463 649.117L771.251 649.717L739.082 650.374L730.173 650.545C729.276 650.531 724.002 650.045 726.425 652.701Z" fill="url(#paint2_linear)"/>
<path d="M796.763 639.607C797.19 640.489 797.525 641.412 797.761 642.363C798.078 643.337 798.182 644.367 798.066 645.385C797.951 646.402 797.618 647.383 797.091 648.26C795.999 649.596 794.495 650.53 792.815 650.916C790.889 651.635 788.769 651.635 786.843 650.916C785.909 650.415 785.086 649.728 784.424 648.899C783.763 648.069 783.276 647.113 782.995 646.09C782.313 644.242 782.344 642.205 783.08 640.378C783.532 639.465 784.183 638.665 784.985 638.038C785.786 637.41 786.718 636.97 787.712 636.752C789.68 636.361 791.715 636.474 793.627 637.08C794.389 637.239 795.102 637.577 795.708 638.065C796.16 638.503 796.518 639.028 796.763 639.607Z" fill="#333333"/>
<path d="M792.802 642.778C792.938 643.062 793.048 643.358 793.129 643.663C793.227 643.977 793.259 644.308 793.222 644.635C793.185 644.962 793.081 645.278 792.916 645.562C792.546 645.993 792.045 646.289 791.49 646.405C790.874 646.633 790.197 646.633 789.58 646.405C789.281 646.241 789.019 646.017 788.81 645.747C788.602 645.476 788.451 645.165 788.369 644.834C788.126 644.244 788.126 643.582 788.369 642.992C788.512 642.712 788.713 642.467 788.959 642.272C789.205 642.078 789.49 641.938 789.794 641.864C790.426 641.745 791.077 641.784 791.69 641.978C791.932 642.024 792.158 642.133 792.345 642.292C792.534 642.416 792.69 642.582 792.802 642.778Z" fill="#999999"/>
<path d="M735.047 643.449C748.901 643.606 762.727 643.377 776.581 643.077C776.937 638.351 778.533 633.811 783.536 632.297C789.85 630.384 795.295 631.569 800.54 636.238C801.125 636.752 800.54 637.966 799.813 637.566C795.537 635.067 792.031 633.482 787.114 634.239C781.498 635.096 779.902 639.75 779.987 644.862C779.973 645.319 779.782 645.753 779.455 646.072C779.128 646.392 778.691 646.572 778.234 646.576C763.853 647.218 749.429 647.275 735.033 647.147C734.572 647.104 734.143 646.89 733.831 646.547C733.52 646.203 733.348 645.755 733.35 645.291C733.351 644.827 733.527 644.38 733.841 644.039C734.155 643.698 734.586 643.487 735.047 643.449Z" fill="#E8E8E8"/>
<path d="M739.252 640.851C739.681 641.731 740.016 642.655 740.25 643.607C740.563 644.582 740.667 645.614 740.554 646.632C740.441 647.651 740.114 648.635 739.594 649.518C738.5 650.848 736.996 651.777 735.319 652.159C733.393 652.878 731.273 652.878 729.347 652.159C728.404 651.653 727.577 650.956 726.917 650.113C726.258 649.27 725.779 648.299 725.512 647.262C724.793 645.426 724.793 643.386 725.512 641.55C725.978 640.661 726.635 639.887 727.436 639.285C728.237 638.682 729.163 638.266 730.145 638.066C732.112 637.678 734.145 637.786 736.06 638.381C736.817 638.552 737.528 638.888 738.141 639.366C738.597 639.79 738.974 640.293 739.252 640.851Z" fill="#333333"/>
<path d="M734.819 643.777C734.957 644.054 735.062 644.346 735.133 644.648C735.236 644.949 735.275 645.268 735.248 645.585C735.221 645.902 735.129 646.21 734.976 646.49C734.613 646.926 734.108 647.219 733.551 647.318C732.949 647.546 732.285 647.546 731.683 647.318C731.142 646.974 730.732 646.457 730.52 645.85C730.308 645.244 730.306 644.584 730.515 643.977C730.66 643.703 730.862 643.465 731.108 643.277C731.354 643.09 731.638 642.958 731.94 642.891C732.556 642.767 733.194 642.802 733.793 642.991C734.035 643.038 734.261 643.146 734.448 643.305C734.601 643.437 734.727 643.597 734.819 643.777Z" fill="#999999"/>
<path d="M778.463 579.695C780.316 580.195 782.169 580.709 784.036 581.195C785.906 581.539 787.757 581.983 789.581 582.523C790.593 582.037 792.175 582.394 792.274 583.722C793.111 594.431 793.514 605.126 793.486 615.806C793.486 620.689 793.353 625.563 793.087 630.427C792.859 634.911 793.343 638.666 791.818 644.178C791.519 645.277 789.581 644.949 789.552 644.178C789.395 640.408 789.552 637.038 789.737 633.383C789.951 627.586 790.022 621.789 790.022 615.977C790.022 605.597 789.581 595.202 788.811 584.807H788.64C787.543 584.764 786.448 584.664 785.362 584.507C782.82 584.185 780.308 583.66 777.85 582.937C775.527 582.28 776.069 579.053 778.463 579.695Z" fill="#E8E8E8"/>
<path d="M746.764 618.048C747.395 617.275 747.847 616.374 748.09 615.406C748.077 614.906 747.945 614.416 747.705 613.978L742.702 603.255C742.531 602.884 747.548 601.827 748.004 601.741C749.943 601.527 751.909 601.656 753.848 601.37C754.007 601.327 754.174 601.327 754.333 601.37C754.603 601.484 754.689 601.813 754.746 602.113L756.969 614.192C757.245 615.484 757.392 616.799 757.411 618.119C757.455 619.223 757.199 620.319 756.67 621.289C756.114 622.117 754.846 622.317 753.919 622.717C751.567 623.645 749.216 624.559 746.864 625.572C742.097 627.438 737.43 629.549 732.882 631.898C731.143 632.812 731.727 634.482 732.126 636.181C732.225 636.51 732.254 636.855 732.212 637.195C732.189 637.363 732.108 637.518 731.983 637.633C731.858 637.748 731.697 637.815 731.528 637.824C731.383 637.789 731.247 637.724 731.129 637.633C731.011 637.542 730.914 637.427 730.844 637.295C729.511 635.44 728.361 633.461 727.409 631.384C727.34 631.262 727.306 631.124 727.309 630.984C727.332 630.88 727.387 630.785 727.466 630.713C727.921 630.139 728.561 629.741 729.276 629.585V629.499C729.105 629.256 730.017 628.614 730.159 628.514C732.967 626.418 735.909 624.51 738.968 622.802L744.313 619.575C745.148 619.199 745.934 618.72 746.65 618.148L746.764 618.048Z" fill="#6D9DBF"/>
<path d="M732.425 644.335C732.319 644.374 732.226 644.441 732.155 644.529C732.085 644.617 732.04 644.723 732.026 644.835C731.987 644.961 731.987 645.095 732.026 645.22C732.056 645.361 732.127 645.49 732.231 645.589C732.335 645.688 732.467 645.754 732.608 645.777C732.75 645.8 732.896 645.78 733.026 645.719C733.156 645.658 733.264 645.559 733.337 645.435C733.551 644.906 733.066 644.092 732.425 644.335Z" fill="white"/>
<path d="M790.179 643.506C790.125 643.602 790.11 643.714 790.137 643.82C790.163 643.927 790.229 644.019 790.322 644.077C790.388 644.151 790.475 644.204 790.571 644.229C790.667 644.255 790.769 644.252 790.863 644.22C791.818 643.892 790.564 642.55 790.179 643.506Z" fill="white"/>
<path d="M757.14 644.506H765.335C768.3 644.506 771.265 644.506 774.229 644.506C774.714 644.542 775.202 644.469 775.655 644.292C775.884 644.201 776.08 644.041 776.215 643.833C776.351 643.626 776.419 643.383 776.41 643.135C776.391 642.991 776.32 642.859 776.211 642.764C776.044 642.677 775.854 642.647 775.669 642.678C769.184 643.235 762.77 643.235 756.356 643.235C753.092 643.235 749.828 643.235 746.578 643.364C745.909 643.364 742.616 643.078 742.303 643.835C741.918 644.849 745.595 644.52 746.137 644.52L757.14 644.506Z" fill="#333333"/>
<path d="M754.09 621.016C753.406 614.876 752.066 608.922 751.24 602.811C751.111 601.869 750.969 600.912 750.826 599.955C751.843 599.955 752.855 599.998 753.862 600.084C755.758 599.727 757.668 599.413 759.563 599.141C760.219 599.041 761.744 609.236 761.715 610.322C761.373 620.002 760.49 629.712 761.074 639.393C761.188 641.349 762.956 641.506 764.637 641.849C764.975 641.879 765.302 641.986 765.592 642.163C765.739 642.254 765.848 642.395 765.9 642.56C765.952 642.725 765.944 642.903 765.877 643.062C765.785 643.18 765.668 643.276 765.535 643.345C765.403 643.414 765.257 643.454 765.108 643.462C762.874 643.917 760.602 644.151 758.323 644.162C758.194 644.204 758.054 644.204 757.924 644.162C757.839 644.095 757.775 644.006 757.739 643.905C757.413 643.235 757.338 642.47 757.525 641.749H757.425C755.768 635.211 754.68 628.542 754.176 621.816L754.09 621.016Z" fill="#6D9DBF"/>
<path d="M753.776 561.418C752.822 560.671 751.694 560.179 750.498 559.99C749.801 560.002 749.119 560.194 748.518 560.547C747.916 560.899 747.415 561.401 747.063 562.004C741.661 569.928 739.252 595.701 740.849 604.254C747.705 604.254 758.095 602.826 764.965 602.826C765.35 596.172 764.666 574.269 764.053 567.544C764.073 565.542 763.304 563.613 761.915 562.175C759.202 562.939 756.303 562.669 753.776 561.418Z" fill="#D3E4EA"/>
<path d="M753.177 549.211C753.361 548.491 753.619 547.792 753.947 547.126C755.116 544.798 758.522 541.8 761.245 543.542C761.859 543.972 762.386 544.514 762.798 545.141C763.268 545.758 763.678 546.417 764.024 547.112C764.677 548.438 764.921 549.929 764.722 551.395C764.433 552.759 763.902 554.06 763.155 555.236C762.435 556.901 761.125 558.239 759.477 558.991C758.306 559.284 757.069 559.158 755.98 558.637C754.89 558.116 754.015 557.232 753.505 556.136C752.546 553.947 752.43 551.48 753.177 549.211Z" fill="#E0CDB3"/>
<path d="M745.139 551.851C745.894 550.309 746.65 548.753 747.419 547.211C748.369 544.82 749.828 542.666 751.695 540.9C755.387 537.944 760.946 538.772 764.523 541.785C765.592 542.612 766.427 543.705 766.946 544.955C767.844 547.425 766.946 550.209 765.834 552.637C764.723 555.064 763.483 557.563 763.768 560.147C763.425 560.04 763.12 559.838 762.885 559.566C762.651 559.293 762.498 558.96 762.442 558.605C762.343 557.878 762.372 557.138 762.528 556.421C762.947 554.417 763.062 552.362 762.87 550.324C762.783 549.326 762.484 548.358 761.993 547.486C761.501 546.614 760.828 545.858 760.019 545.269C755.804 548.652 752.979 553.47 752.08 558.805C750.862 558.219 749.506 557.977 748.161 558.105C747.612 558.184 747.056 558.184 746.507 558.105C745.367 557.863 744.27 556.678 743.215 557.22C743.549 555.334 744.199 553.519 745.139 551.851Z" fill="#F4D787"/>
<path d="M754.275 572.526C754.464 572.332 754.7 572.19 754.959 572.112C755.999 571.84 756.869 572.897 757.425 573.811C759.373 576.888 761.148 580.073 762.741 583.349C763.053 583.209 763.385 583.117 763.725 583.078C767.587 582.492 770.851 582.107 775.056 581.65C775.215 581.63 775.372 581.597 775.526 581.55C776.456 581.214 777.327 580.732 778.106 580.122C778.27 579.965 778.457 579.835 778.662 579.736C778.758 579.684 778.866 579.656 778.975 579.656C779.085 579.656 779.193 579.684 779.289 579.736C779.331 579.773 779.365 579.818 779.388 579.868C779.411 579.919 779.423 579.974 779.423 580.029C779.423 580.085 779.411 580.14 779.388 580.19C779.365 580.241 779.331 580.286 779.289 580.322C779.771 580.139 780.284 580.051 780.8 580.065C781.058 580.08 781.307 580.165 781.52 580.311C781.733 580.457 781.903 580.658 782.011 580.893C782.07 581.234 782.024 581.585 781.879 581.898C781.734 582.212 781.497 582.474 781.199 582.649C779.753 583.632 778.057 584.182 776.31 584.234C775.526 584.563 774.614 584.791 774.086 584.962L766.789 587.176C765.663 587.582 764.479 587.809 763.283 587.847C762.633 587.834 761.993 587.688 761.401 587.418C757.781 585.833 755.173 580.122 754.018 576.952C753.505 575.481 753.149 573.625 754.275 572.526Z" fill="#E0CDB3"/>
<path d="M756.64 569.314L761.543 577.468C762.007 578.347 762.619 579.14 763.354 579.809C763.723 580.142 764.169 580.376 764.652 580.491C765.136 580.606 765.64 580.597 766.119 580.466C766.56 580.309 767.116 580.038 767.444 580.366C767.584 580.545 767.655 580.768 767.644 580.994C767.9 583.679 768.147 586.363 768.385 589.048L759.833 588.077C759.431 588.072 759.039 587.948 758.707 587.72C758.483 587.505 758.312 587.241 758.208 586.949L752.507 574.483C751.894 573.141 751.324 571.428 752.279 570.314C753.234 569.2 755.144 569.514 756.64 569.314Z" fill="#D3E4EA"/>
<path d="M778.121 647.632C778.036 647.763 777.93 647.879 777.807 647.975C777.643 648.074 777.457 648.133 777.266 648.146C773.902 648.66 770.524 649.189 767.117 649.403C764.937 649.531 762.742 649.546 760.561 649.546C759.483 649.635 758.399 649.488 757.383 649.117C756.653 648.726 755.953 648.282 755.287 647.789C753.708 646.92 751.984 646.344 750.199 646.09L747.591 645.562C752.651 644.919 757.782 645.49 762.884 645.69C765.535 645.79 768.201 645.805 770.852 645.69C772.192 645.69 773.531 645.562 774.871 645.462C776.133 645.242 777.41 645.128 778.691 645.119C780.202 645.29 778.563 646.99 778.121 647.632Z" fill="#E8E8E8"/>
</g>
</g>
<defs>
<linearGradient id="paint0_linear" x1="576" y1="-113" x2="576" y2="677" gradientUnits="userSpaceOnUse">
<stop offset="0.167382" stop-color="#F2722B"/>
<stop offset="0.394937" stop-color="#FBAD2F"/>
<stop offset="0.695279" stop-color="#FCE12E"/>
</linearGradient>
<linearGradient id="paint1_linear" x1="402" y1="633.367" x2="533" y2="633.367" gradientUnits="userSpaceOnUse">
<stop/>
<stop offset="1"/>
</linearGradient>
<linearGradient id="paint2_linear" x1="725.798" y1="651.573" x2="806" y2="651.573" gradientUnits="userSpaceOnUse">
<stop/>
<stop offset="1"/>
</linearGradient>
<clipPath id="clip0">
<rect width="1152" height="700" fill="white"/>
</clipPath>
<clipPath id="clip1">
<rect x="725" y="539" width="81" height="115" fill="white"/>
</clipPath>
</defs>
</svg>
