<svg width="1152" height="700" viewBox="0 0 1152 700" fill="none" xmlns="http://www.w3.org/2000/svg">
<g clip-path="url(#clip0)">
<rect width="1152" height="700" fill="white"/>
<rect width="1152" height="699" fill="#FED82D"/>
<rect width="1152" height="699" fill="url(#paint0_linear)"/>
<g opacity="0.3">
<circle cx="810.915" cy="354.102" r="126.102" fill="#F9982D"/>
<path d="M824.383 311.252L922.357 289.215L933.345 303.677L824.383 311.252Z" fill="#FCC02F"/>
<path d="M788.878 401.991L937.922 391.209L950.276 416.448L788.878 401.991Z" fill="#FCD22F"/>
<path d="M774.132 338.914L674.966 354.749L664.909 339.625L774.132 338.914Z" fill="#FCCA2F"/>
<circle cx="810.915" cy="354.102" r="111.411" fill="#EB891D" fill-opacity="0.4"/>
</g>
<path d="M123.96 329.784C113.253 346.867 33.5256 410.454 -5 440.113V554H2.2996H1197V405.708C1192.13 405.708 1176.32 403.573 1151.99 395.031C1121.57 384.354 1106.97 363 1087.51 351.137C1068.04 339.274 931.781 440.113 898.933 419.944C866.085 399.776 824.721 398.59 804.039 405.708C783.356 412.826 717.66 387.913 704.277 383.168C690.895 378.423 664.13 351.137 643.447 351.137C622.765 351.137 621.549 323.852 603.3 317.92C585.051 311.987 533.953 345.205 479.206 373.677C424.46 402.149 404.994 381.982 372.146 373.677C339.298 365.373 304.016 342.833 294.283 351.137C284.551 359.441 266.302 370.118 259.002 363C251.702 355.882 228.587 346.392 205.472 323.852C182.356 301.312 137.342 308.43 123.96 329.784Z" fill="#6F5B29"/>
<path d="M28 493C21.6 507.4 6.66667 517 0 520C0 615 12 561 49 578C86 595 122 587 211 567C300 547 669.5 571 896 602C1122.5 633 1148 501 1145 493C1142 485 1136 451 1136 439C1136 429.4 1127.33 410.333 1123 402C1124.33 409.667 1126.2 427.8 1123 439C1119 453 1128 462 1136 493C1144 523.999 1105 520 1096 520H1079C1073 520 1075 467 1079 462C1082.2 458.001 1084.33 455.667 1085 455C1088 446.667 1092.8 427.2 1088 416C1083.2 404.8 1086 386 1088 378C1086.33 382.667 1082.2 395.6 1079 410C1075 428 1064 430 1054 439C1044 448 1039 462 1030 482.999C1021 503.999 1013 462 1007 451C1001 440 1022 439 1039 416C1052.6 397.6 1054.67 383 1054 378C1042.67 386.333 1014.6 405.6 993 416C966 429 964 430 957 451C950 472 907 462 896 462C885 462 866 451 863 462C860.6 470.801 867.333 483 871 487.999C868 487.999 858.6 486.999 845 482.999C828 477.999 818 437 806 439C794 441 732 430 726 416C720 402 669.5 392 679 384C688.5 376.001 674.5 365 669.5 360.5C664.5 356 647 351 639.5 351C632 351 624 340 615 329C615 337.8 604.333 356.667 599 365C602.333 363.333 610.2 361 615 365C621 370 620 409 656 410C692 411 672 446 679 462C681 473 627.003 473 599.002 473H599C576.6 473 596.333 455 609 446C599.667 449.667 577.8 458 565 462C552.2 466.001 563.667 442.334 571 430C565 430 551.6 433.2 546 446C540.4 458.8 517 454.667 506 451C503 458.333 497 475 497 482.999C497 492.999 478 501 475 482.999C472.6 468.599 464.667 494.999 461 510C445 510 407.2 508.2 384 501C357 482 384 493 384 482.999C384 472.999 359 482.999 351 482.999C343 482.999 339 473 339 462C339 451 311 430 300 416C289 402 288 408 288 392C288 379.2 270.667 368.667 262 365C249.333 357.333 222.4 340.4 216 334C189.6 306 166.333 308.334 158 313C164.667 313.334 180.4 315.8 190 323C202 332 200 351 202 360C204 369 224 378 240 384C256 390 267 404 259 430C251 456 244 447 240 462C236.8 474 219.333 474.334 211 473C206.667 474.334 196.4 478.2 190 482.999C182 488.999 173 487.999 158 482.999C143 477.999 116 477.999 107 487.999C99.8 495.999 96 487.999 95 482.999C89.6667 482.999 78 484.999 74 493C69 503 28 512 34 510C40 508 36 475 28 493Z" fill="#5C4116"/>
<path d="M397 506C248.2 478 69.6667 511 -1 531V701H1152V467C842 562 583 541 397 506Z" fill="#D59045"/>
<path d="M-1 701.999V530.999C79 495.999 284.603 493.302 321 495.999C361.5 498.999 471 517.999 498 521.999C519.6 525.199 569 529.332 591 530.999C477.4 530.999 406.333 644.999 385 701.999H-1Z" fill="#99993E"/>
<path d="M120.719 566.752C136.427 563.401 45.4513 572.059 -2 576.807V679.866C6.59031 682.38 26.2253 685.899 36.0428 679.866C48.3147 672.325 99.8566 679.866 87.5847 687.407C75.3128 694.948 120.719 684.056 144.035 679.866C167.352 675.677 161.216 687.407 234.847 679.866C308.478 672.325 323.205 668.974 341.613 636.296C360.02 603.619 266.754 616.187 240.983 601.105C215.212 586.023 225.03 595.24 207.849 601.105C190.668 606.97 178.397 595.24 184.533 576.807C190.668 558.374 92.4934 589.375 55.6778 584.348C18.8622 579.32 101.084 570.942 120.719 566.752Z" fill="#838733"/>
<path d="M124.389 615H-6V659.333C10.8244 659.333 46.7163 660.5 55.6893 665.167C66.9056 671 158.038 659.333 181.872 659.333C195.332 659.333 176.264 667.111 165.048 671C186.545 670.222 239.075 666.8 277.21 659.333C324.879 650 338.899 627.833 292.632 620.833C246.365 613.833 97.7502 623.167 107.564 620.833C115.416 618.967 122.052 616.167 124.389 615Z" fill="#6E752F"/>
<path d="M415 681C408.6 684.2 392.333 695 385 700H375C376.667 693.667 381 677.8 385 665C390 649 403 630 421 613C435.4 599.4 443.667 584.667 446 579L487 557L507 546C514 543.334 529 536.8 533 532C537 527.201 542 528.5 544 528.5L605 533.5C601.333 533.834 591.2 532.8 580 532C568.8 531.2 569.333 541 571 546H544C538 548.667 524.8 553.6 520 552C514 550 505 571 483 579C465.4 585.4 469 592.334 473 595C468 596.667 457.2 600.6 454 603C450.8 605.4 447.333 616.667 446 622C442.333 623.334 432.2 630 421 646C407 666 423 677 415 681Z" fill="#96C753"/>
<path d="M422 681C415.6 684.2 399.333 695 392 700H382C383.667 693.666 388 677.8 392 665C397 649 410 630 428 613C442.4 599.4 450.667 584.666 453 579L494 557L514 546C521 543.333 536 536.8 540 532C544 527.2 547.5 527.5 549.5 527.5L611.5 534C607.833 534.333 598.2 532.8 587 532C575.8 531.2 576.333 541 578 546H551C545 548.667 531.8 553.6 527 552C521 550 512 571 490 579C472.4 585.4 476 592.333 480 595C475 596.666 464.2 600.6 461 603C457.8 605.4 454.333 616.666 453 622C449.333 623.333 439.2 630 428 646C414 666 430 677 422 681Z" fill="#5E752F"/>
<path d="M406 681C399.6 684.2 383.333 695 376 700H366C367.667 693.667 372 677.8 376 665C381 649 394 630 412 613C426.4 599.4 434.667 584.667 437 579L478 557L498 546C505 543.333 520 536.8 524 532C528 527.2 533 526 535 526L596 532C592.333 532.334 582.2 532.8 571 532C559.8 531.2 560.333 541 562 546H535C529 548.667 515.8 553.6 511 552C505 550 496 571 474 579C456.4 585.4 460 592.333 464 595C459 596.667 448.2 600.6 445 603C441.8 605.4 438.333 616.667 437 622C433.333 623.333 423.2 630 412 646C398 666 414 677 406 681Z" fill="#99993E"/>
<path d="M165.469 502.972C177.187 496.647 215.601 495.246 231 495.999L293 495.999L350 499L317.5 517.5C317.5 506.205 299.325 519.914 289.41 519.914C277.016 519.914 283.38 527.816 280 542.5C276.62 557.184 260.027 543.87 242 545C223.972 546.13 248 560.577 216.172 560.577C194.498 560.577 191.384 558.318 171.103 551.541C150.821 544.764 155.106 529.389 167.5 526C179.894 522.611 178.99 521.044 171.103 514.267C163.216 507.49 150.822 510.879 165.469 502.972Z" fill="#838733"/>
<path d="M177 502C187.4 496.4 217.333 496.334 231 497L339 498.5L319 512C319 502 295.8 517 287 517C276 517 280 521 277 534C274 547 253 538 237 539C221 540 241 556 222 553C203 550 200 551 182 545C164 539 166 532 177 529C188 526 189 518 182 512C175 506 164 509 177 502Z" fill="#AAB147"/>
<path d="M383 684C379.8 691.6 365.333 697.167 358.5 699H383V696L409.5 679C409.5 677 407.5 672.9 407.5 670.5C406 642 428 628 437.5 623C436.3 619 442.333 608.667 445.5 604L465 595C464.167 591.333 461.8 583 471 581C480.2 579 502 561.833 511 553C519.4 552.2 531.833 547.334 536.5 545.5H561.5C563.5 528.986 578 534 589.5 531.5C573.667 530 543.6 527.2 550 528C558 529 539 533.5 528.5 537C518 540.5 505 541.5 499 545.5C493 549.5 492.5 551.5 483.5 556C474.5 560.5 468.5 568.5 465 573C461.5 577.5 454.5 584 443.5 586.5C432.5 589 431.5 592.5 431.5 602C431.5 611.5 414 625.5 401.5 641.5C389 657.5 386 654 386 658.5C386 663 387 674.5 383 684Z" fill="#68792B"/>
<path d="M350 662C350.401 659.909 352.289 656.354 356.625 658.863C360.961 661.373 354.015 662 350 662Z" fill="#F1FFC3"/>
<path d="M71 625C71.4015 622.909 73.2885 619.354 77.6246 621.863C81.9607 624.373 75.0149 625 71 625Z" fill="#F1FFC3"/>
<path d="M141 543C141.401 540.909 143.289 537.354 147.625 539.863C151.961 542.373 145.015 543 141 543Z" fill="#F1FFC3"/>
<path d="M348.538 647.439C346.704 646.358 343.991 643.385 347.812 640.145C351.634 636.906 349.889 643.658 348.538 647.439Z" fill="#F1FFC3"/>
<path d="M62.767 620.879C60.9326 619.797 58.2193 616.824 62.0409 613.585C65.8626 610.345 64.1173 617.098 62.767 620.879Z" fill="#F1FFC3"/>
<path d="M356.578 639.883C358.993 638.249 363.899 635.954 364.201 639.849C364.502 643.743 359.245 641.494 356.578 639.883Z" fill="#F1FFC3"/>
<path d="M393 528.433C395.415 526.8 400.321 524.505 400.623 528.399C400.924 532.294 395.667 530.045 393 528.433Z" fill="#F1FFC3"/>
<path d="M366 518.433C368.415 516.8 373.321 514.505 373.623 518.399C373.924 522.294 368.667 520.045 366 518.433Z" fill="#F1FFC3"/>
<path d="M157 535.433C159.415 533.8 164.321 531.505 164.623 535.399C164.924 539.294 159.667 537.045 157 535.433Z" fill="#F1FFC3"/>
<path d="M1050 701C1074.8 698.6 1129.33 694 1152 701V536L1145 554C1145 560.667 1128 572.4 1128 586C1128 599.6 1040.83 619 1030.5 622C1035.17 621 1108.4 615.6 1122 622C1139 630 1116 628 1122 654C1126.8 674.8 1090.67 674 1072 671L1002 689C990 701 1025.2 703.4 1050 701Z" fill="#B2782B"/>
<path d="M1152 685H1091.93C1090.86 685.1 1089.88 685.102 1089 685H1091.93C1101.36 684.117 1117.53 675.576 1131 663C1144.18 650.699 1133 637 1136 631C1138.4 626.2 1123.67 615 1116 610L1136 589C1137.33 589.667 1140.4 589.6 1142 584C1143.6 578.4 1149.33 572.333 1152 570V685Z" fill="#A36F33"/>
<path d="M448.626 693.78C457.045 704.312 563.05 705.541 615 704.839L558.373 700.099C541.168 697.993 504.753 693.78 496.735 693.78C486.712 693.78 468.17 685.354 456.645 685.88C445.119 686.407 448.626 672.188 448.626 663.762C448.626 655.337 469.674 645.33 473.683 642.17C477.692 639.011 473.683 626.898 478.694 616.893C482.703 608.888 506.423 608.291 517.782 608.993L510.766 603.201C509.43 603.201 506.056 601.515 503.249 594.774C499.741 586.348 526.301 583.715 536.825 569.497C547.348 555.278 559.877 562.124 578.418 562.124C596.96 562.124 590.946 547.378 590.946 540.006C590.946 534.108 614.534 536 612.5 533C607.656 533.527 584.332 532.317 581.926 535.266C578.919 538.953 589.443 547.379 578.418 553.172C567.393 558.964 553.362 551.592 547.348 553.172C541.335 554.751 528.306 555.805 526.301 562.124C524.297 568.444 504.252 582.662 493.728 586.349C485.309 589.298 492.225 598.812 496.735 603.201C491.556 603.903 479.696 606.044 473.683 608.993C466.166 612.68 467.168 618.473 464.663 631.638C462.157 644.804 440.107 652.177 433.091 663.762C426.075 675.348 438.102 680.614 448.626 693.78Z" fill="#C77835"/>
<path d="M672.976 564.34C659.386 560.458 645.996 568.17 641 572.511C647.931 574.073 660.1 570.664 670.997 573.12C681.895 575.575 699.615 572.052 704.904 566.41C699.924 567.338 686.566 568.223 672.976 564.34Z" fill="#A36F33"/>
<path d="M936.976 660.34C923.386 656.458 909.996 664.17 905 668.511C911.931 670.073 924.1 666.664 934.997 669.12C945.895 671.575 963.615 668.052 968.904 662.41C963.924 663.338 950.566 664.223 936.976 660.34Z" fill="#A36F33"/>
<path d="M699.994 632.578C687.194 643.778 701.994 655.912 710.994 660.578L747.994 668.578L756.994 676.578H772.994C785.994 671.245 813.994 659.178 821.994 653.578C831.994 646.578 885.994 632.578 884.994 619.578C883.994 606.578 838.994 624.579 821.994 632.578C804.994 640.578 776.994 625.578 764.994 619.578C752.994 613.578 715.994 618.578 699.994 632.578Z" fill="#B2782B" fill-opacity="0.7"/>
<path d="M927.661 606.386C919.585 606.343 912.845 607.941 910.485 608.746C910.326 611.581 910.983 618.066 914.889 621.317C919.771 625.382 923.01 612.996 926.049 611.137C929.088 609.278 932.242 612.757 942.778 611.516C953.313 610.274 937.757 606.441 927.661 606.386Z" fill="#EAAF63"/>
<path d="M563.122 651.215C547.367 650.899 538.819 643.239 528.317 636.736C513.177 628.407 528.183 599.553 540.078 611.197C551.973 622.841 566.691 606.164 574.198 611.624C581.705 617.084 591.841 610.012 607.922 618.2C619.738 618.437 597.572 653.389 591.172 650.9C584.773 648.412 582.816 651.61 563.122 651.215Z" fill="#B2782B" fill-opacity="0.7"/>
<path d="M761.811 637.954C758 623.471 729.738 642.46 720.991 644.713C728.766 647.931 730.817 672.561 768.5 660C845 634.5 765.521 652.052 761.811 637.954Z" fill="#EAAF63"/>
<path d="M727.794 591.609C713.021 598.561 744.317 599.655 761.811 599.333C776.39 599.333 810.212 597.788 828.872 591.609C852.198 583.885 803.603 579.057 761.811 576.161C720.019 573.264 746.261 582.919 727.794 591.609Z" fill="#EAAF63"/>
<path d="M994.096 576.161C980.878 582.34 967.207 584.528 962.023 584.85C966.235 587.103 977.185 591.609 987.293 591.609C999.928 591.609 1007.7 584.85 1028.11 576.161C1048.52 567.471 1010.62 568.436 994.096 576.161Z" fill="#EAAF63"/>
<path d="M586.868 637.954C571.318 637.954 539.569 642.46 525.638 644.713C499.397 637.954 525.638 628.299 561.599 623.471C597.559 618.644 606.306 637.954 586.868 637.954Z" fill="#EAAF63"/>
<path d="M1003 518C991 516.4 998 509.333 1003 506L1109 480C1107.33 484.333 1106.8 498.8 1090 502C1069 506 1069 511 1064 524C1059 537 1047 530 1037 518C1027 506 1018 520 1003 518Z" fill="#BE8034"/>
<path d="M1055 493.499C1041.53 497.768 1010 500.499 1027 505.499C1034.1 505.673 1038.76 521.997 1049.93 522.27C1061.1 522.543 1076.12 496.623 1080.2 490.054C1075.5 487.999 1069.85 488.793 1055 493.499Z" fill="#B65B24" fill-opacity="0.8"/>
<path d="M423 677.5L391.5 700.5H466.5C461.667 699 452.6 693.3 449 690.5C444.5 687 431.5 679 431.5 670C431.5 661 453.5 645.5 460.5 640.5C467.5 635.5 465 618.5 469.5 612.5C473.1 607.7 490 604.5 498 603.5C497.667 603 498.3 600.657 495.5 598.657C486.5 588.657 491.5 586.657 504.5 581.657C517.5 576.657 526.5 566.5 531.5 560.5C536.5 554.5 546.5 554.5 551.5 554C555.5 553.6 566.167 555.167 571 556C576.833 554.833 587.4 550.4 583 542C578.6 533.6 588.833 532.167 594.5 532.5C593 532 588.4 531.3 582 532.5C575.6 533.7 576.667 541.667 578 545.5H551.5C549.333 547.5 540.288 550.868 534.5 550C524.5 548.5 523.5 551.5 515.5 561.5C507.5 571.5 488 578 480 582.5C473.6 586.1 477.333 593.834 480 596C475.5 594.5 464.1 599.8 460.5 601C456.9 602.2 453.333 616.334 452 622C448.833 624.5 441.6 630.4 438 634C420 648.4 419.667 669 423 677.5Z" fill="#A36F33"/>
<path d="M117 414C71.4 426 23.3333 430.167 6 431.5C42.3333 402.833 118.5 337 126 326C134.864 313 150.667 311.333 158 311C159 316 163 331 175 347C190 367 177 366 180 388C183 410 208 421 196 433C184 445 174 399 117 414Z" fill="#847F47"/>
<path d="M282 392C284.4 384 272.333 372 266 367C265.5 366.667 264 365.8 262 365C264 365 268.5 365 272.5 364C279.3 362.8 290.667 354.5 295.5 350.5C309 346 335 361.5 342 364C349 366.5 372.5 374 379.5 376C386.5 378 405.5 386 426 389C446.5 392 468 378.5 473.5 377C479 375.5 544.5 339.5 563 329.5C577.8 321.5 587.167 319.167 590 319C592.333 320.333 596.8 326 596 338C595 353 574 367 581 360C586.6 354.4 583.333 343 581 338L568 347C553.667 359 521.8 383.6 509 386C493 389 457 392 433 408C409 424 380 418 365 413C353 409 340 418 335 423C336.333 425.667 340.8 433.8 348 445C357 459 322 448 312 436C302 424 279 402 282 392Z" fill="#857E47"/>
<path d="M693.5 378.5C694.486 378.955 695.81 379.638 697.372 380.535C705.068 383.913 721.575 389.569 730.5 392.5C749 398.667 789.3 410.1 802.5 406.5C819 402 824.5 401 848 403C871.5 405 887 414 893.5 417C900 420 899.5 426 924.5 420.5C949.5 415 1009.5 383.5 1031 371.5C1048.2 361.9 1069.17 354.167 1077.5 351.5V361.5C1077.5 367.5 1078.5 371.5 1077.5 383.5C1076.5 395.5 1075.5 392 1068.5 401C1062.9 408.2 1059.17 417 1058 420.5C1058.33 418.833 1058.8 413.7 1058 406.5C1057 397.5 1059.5 396.5 1063 383.5C1066.5 370.5 1056 368 1047.5 371.5C1039 375 1016.5 391.5 1009.5 396.5C1002.5 401.5 976 413.5 962 420.5C948 427.5 944 440.5 924.5 447C905 453.5 871.5 439 860.5 435.5C849.5 432 841 426 837.5 435.5C834 445 847.5 451.5 841 451.5C834.5 451.5 828 437 823 430.5C818 424 793 424.5 780 426C767 427.5 728.5 408.5 717.5 396.5C710.702 389.085 702.672 383.578 697.372 380.535C695.439 379.686 694.062 378.982 693.5 378.5Z" fill="#857E47"/>
<path d="M74 389.499C64 401.099 40.8333 413.999 30.5 418.999C38 417.999 58.7 413.599 81.5 403.999C110 391.999 95 385.999 103 375.999C111 365.999 127 374.999 135 371.999C143 368.999 143 356.999 138.5 349.499C134 341.999 147 328.999 147 319.499C147 311.899 141.333 320.999 138.5 326.499C134.667 331.333 125.4 342.699 119 349.499C111 357.999 86.5 374.999 74 389.499Z" fill="#A3925C"/>
<path d="M313.001 431C315.401 437.4 324.334 437 328.501 436C332.5 435.451 328.501 420.5 324.501 407.5C320.501 394.5 344.001 395.5 362.001 395.5C380.001 395.5 379.001 401 402.001 401.5C425.001 402 422.501 395.5 409.501 395.5C396.501 395.5 383.501 389.5 369.001 382.5C354.501 375.5 351.001 380 328.501 380C306 380 309.501 365 295.001 363.5C280.501 362 279.501 368.5 283.501 376.5C287.501 384.5 292.501 385.5 292.501 395.5C292.501 405.5 298.501 401 306.001 414.5C313.501 428 310.001 423 313.001 431Z" fill="#A3925C"/>
<path d="M540.5 350C531.3 359.6 493.333 376 475.5 383C459 396.001 493.5 383 505.5 379C517.5 375 516.5 376 521 370C525.5 364 546.5 356 556 350C565.5 344 552 338 540.5 350Z" fill="#A3925C"/>
<path d="M779 417.5C767.4 418.3 746.167 407.833 737 402.5C717.651 393 768.5 406.5 783 412C797.5 417.5 816.5 412 825.5 412C834.5 412 845.5 413.5 873.5 421C901.5 428.5 895.5 430 904.5 431C913.5 432 929 429.5 949 417.5C965 407.9 993 397.5 1005 393.5C1001 396.5 991.8 402.5 987 402.5C981 402.5 953.5 423.5 944.5 426C935.5 428.5 923 438.5 912 442.5C901 446.5 848 423.5 835.5 423.5C823 423.5 833 431.5 825.5 423.5C818 415.5 793.5 416.5 779 417.5Z" fill="#A3925C"/>
<path d="M-70.5607 107.243C-77.4632 110.85 -89.7062 112.513 -104.025 113.863C-110.969 113.532 -125.687 110.385 -128.992 100.444C-133.221 87.7266 -132.975 81.4658 -111.507 71.2366C-92.143 62.0101 -75.7066 76.1492 -72.2514 70.8948C-68.7961 65.6404 -78.3458 62.598 -69.7198 59.8137C-61.0937 57.0294 -60.9095 58.9834 -59.5041 52.9367C-58.0987 46.89 -55.6562 30.8885 -41.6171 22.6655C-30.3857 16.0871 -18.9712 14.9458 -14.6679 15.1974C-14.3141 4.97822 -8.93312 -18.2662 9.76121 -29.4907C33.1291 -43.5213 45.6708 -46.6746 77.8585 -29.9936C88.6459 -34.296 114.217 -40.3202 130.201 -29.9979C150.181 -17.0951 154.223 -5.64594 156.123 4.03142C157.643 11.7733 159.858 12.2215 160.775 11.4779C169.697 8.33721 183.858 14.5072 196.416 21.9982C208.973 29.4891 226.687 33.1953 230.564 39.4013C230.948 38.9713 231.22 38.622 231.407 38.3442C231.215 37.3412 232.328 36.9806 231.407 38.3442C231.601 39.3528 233.114 41.011 239.341 42.2186C256.443 45.5348 282.422 55.214 274.959 59.8606C275.253 62.9874 272.371 67.3331 270.893 69.1151C275.676 70.9647 283.756 77.7609 277.813 90.1491C271.87 102.537 262.246 103.116 258.176 101.856C261.339 107.472 249.967 106.089 231.614 112.55C213.261 119.011 205.61 109.087 204.079 103.317C203.449 110.605 198.663 114.125 170.885 112.8C143.107 111.475 149.685 127.851 151.601 123.728C150.817 129.387 133.361 109.981 121.615 111.088C112.013 111.992 116.69 125.617 118.611 127.522C118.894 127.353 119.124 127.106 119.297 126.772C119.332 127.789 119.041 127.948 118.611 127.522C114.801 129.808 101.323 118.106 85.8764 118.093C69.2834 118.079 65.7635 135.103 63.4987 132.03C59.3601 137.02 44.875 123.534 33.7639 123.004C22.6528 122.474 20.0811 139.407 18.469 136.274C13.9427 140.643 9.47282 118.591 1.34691 116.202C-6.77901 113.813 -19.4242 135.902 -21.424 132.147C-22.8907 137.543 -22.5897 119.43 -31.7934 113.989C-39.4315 109.473 -44.3457 121.592 -45.0568 123.709C-45.0219 123.647 -44.9868 123.585 -44.9517 123.522C-45.1718 124.157 -45.2026 124.143 -45.0568 123.709C-51.1881 134.605 -54.7591 133.198 -70.5607 107.243Z" fill="#EEFDFF"/>
<path d="M-69.6602 122.894C-76.5626 126.501 -91.9106 129.919 -98.0825 114.729C-105.027 114.398 -119.743 111.251 -123.049 101.311C-127.183 88.886 -121.804 72.6077 -98.0338 73.3249C-74.2637 74.042 -69.7042 80.5129 -66.249 75.2584C-62.7937 70.004 -64.6013 61.3032 -55.9752 58.5189C-47.3491 55.7346 -47.165 57.6887 -45.7596 51.642C-44.3542 45.5953 -41.9117 29.5937 -27.8725 21.3707C-16.6412 14.7923 -5.22672 13.651 -0.923393 13.9026C-0.569586 3.68344 4.8116 -19.561 23.5059 -30.7855C46.8739 -44.8161 59.4155 -47.9694 91.6032 -31.2884C102.391 -35.5908 127.962 -41.615 143.946 -31.2927C163.926 -18.3899 167.968 -6.94073 169.867 2.73663C171.387 10.4785 173.602 10.9268 174.52 10.1832C183.441 7.04244 204.424 2.63372 216.981 10.1247C229.538 17.6156 240.431 31.9005 244.308 38.1066C248.477 33.4427 260.236 24.7784 273.918 27.4313C291.02 30.7476 296.166 53.9192 288.703 58.5658C288.998 61.6927 286.115 66.0384 284.637 67.8204C289.42 69.6699 297.501 76.4661 291.557 88.8544C285.614 101.243 275.99 101.821 271.921 100.561C275.084 106.178 276.821 119.025 258.468 125.486C240.115 131.947 232.464 122.023 230.932 116.253C230.302 123.54 222.098 137.785 194.32 136.46C171 135.347 165.064 129.123 164.893 124.714C163.369 130.74 158.64 139.822 148.311 140.795C136.564 141.902 133.237 131.045 133.041 125.477C130.534 130.314 121.372 139.983 104.779 139.969C88.1859 139.956 79.5082 133.808 77.2435 130.735C73.1049 135.725 62.0499 145.573 50.9388 145.043C39.8277 144.513 33.8257 138.113 32.2136 134.979C27.6873 139.348 16.6033 147.49 8.47736 145.101C0.351443 142.713 -5.67964 134.607 -7.67945 130.853C-9.14623 136.248 -14.3807 145.678 -23.5844 140.237C-32.788 134.796 -32.5011 125.963 -31.2072 122.227C-37.4033 133.325 -53.7684 148.997 -69.6602 122.894Z" fill="#E7D5A7"/>
<path d="M212.723 275.863C210.43 277.061 206.365 277.613 201.61 278.061C199.304 277.951 194.417 276.906 193.32 273.605C191.915 269.382 191.997 267.303 199.126 263.907C205.556 260.843 211.014 265.538 212.161 263.793C213.309 262.048 210.137 261.038 213.002 260.113C215.866 259.189 215.927 259.838 216.394 257.83C216.861 255.822 217.672 250.508 222.334 247.778C226.063 245.593 229.854 245.214 231.283 245.298C231.4 241.904 233.187 234.186 239.395 230.458C247.154 225.799 251.319 224.752 262.008 230.291C265.59 228.863 274.081 226.862 279.389 230.29C286.024 234.575 287.366 238.377 287.997 241.59C288.501 244.161 289.237 244.31 289.541 244.063C292.504 243.02 297.207 245.069 301.376 247.556C305.546 250.044 311.428 251.274 312.716 253.335C312.843 253.192 312.934 253.076 312.996 252.984C312.932 252.651 313.302 252.531 312.996 252.984C313.06 253.319 313.563 253.87 315.631 254.271C321.309 255.372 329.936 258.586 327.458 260.129C327.556 261.167 326.599 262.61 326.108 263.202C327.696 263.816 330.379 266.073 328.406 270.187C326.432 274.301 323.236 274.493 321.885 274.074C322.935 275.939 319.159 275.48 313.065 277.626C306.97 279.771 304.43 276.475 303.921 274.559C303.712 276.979 302.123 278.148 292.899 277.708C283.674 277.268 285.859 282.706 286.495 281.337C286.235 283.217 280.438 276.772 276.537 277.14C273.349 277.44 274.902 281.964 275.54 282.597C275.634 282.541 275.71 282.459 275.768 282.348C275.78 282.686 275.683 282.739 275.54 282.597C274.275 283.356 269.799 279.47 264.67 279.466C259.16 279.462 257.991 285.114 257.239 284.094C255.865 285.751 251.055 281.273 247.365 281.097C243.676 280.921 242.822 286.544 242.286 285.503C240.783 286.954 239.299 279.631 236.601 278.838C233.902 278.045 229.703 285.38 229.039 284.133C228.552 285.925 228.652 279.91 225.596 278.103C223.06 276.604 221.428 280.628 221.192 281.331C221.203 281.31 221.215 281.29 221.226 281.269C221.153 281.48 221.143 281.475 221.192 281.331C219.156 284.949 217.97 284.482 212.723 275.863Z" fill="#FFE1AD"/>
<path d="M213.023 281.06C210.731 282.258 205.635 283.393 203.585 278.349C201.279 278.239 196.393 277.194 195.294 273.893C193.922 269.767 195.708 264.362 203.601 264.6C211.495 264.838 213.009 266.987 214.156 265.242C215.303 263.497 214.703 260.608 217.568 259.683C220.432 258.759 220.493 259.408 220.96 257.4C221.427 255.392 222.238 250.078 226.9 247.348C230.629 245.163 234.419 244.784 235.848 244.868C235.966 241.474 237.753 233.756 243.961 230.028C251.72 225.369 255.885 224.322 266.573 229.861C270.155 228.433 278.647 226.432 283.955 229.86C290.589 234.145 291.931 237.946 292.562 241.16C293.067 243.731 293.802 243.88 294.107 243.633C297.07 242.59 304.037 241.126 308.207 243.613C312.377 246.101 315.994 250.844 317.281 252.905C318.666 251.356 322.571 248.479 327.114 249.36C332.793 250.461 334.502 258.156 332.024 259.699C332.121 260.737 331.164 262.18 330.673 262.772C332.262 263.386 334.945 265.643 332.971 269.757C330.998 273.87 327.802 274.063 326.451 273.644C327.501 275.509 328.078 279.776 321.983 281.921C315.889 284.066 313.348 280.771 312.84 278.855C312.631 281.275 309.906 286.005 300.682 285.565C292.938 285.195 290.967 283.129 290.91 281.664C290.404 283.666 288.834 286.681 285.404 287.005C281.503 287.372 280.398 283.767 280.334 281.918C279.501 283.524 276.459 286.735 270.949 286.73C265.439 286.726 262.557 284.684 261.805 283.664C260.431 285.321 256.76 288.591 253.07 288.415C249.38 288.239 247.387 286.114 246.852 285.073C245.349 286.524 241.668 289.228 238.97 288.435C236.272 287.641 234.269 284.95 233.605 283.703C233.118 285.495 231.38 288.626 228.323 286.819C225.267 285.012 225.363 282.079 225.792 280.839C223.735 284.524 218.3 289.728 213.023 281.06Z" fill="#E7E3A6"/>
<path d="M750.723 183.863C748.43 185.061 744.365 185.613 739.61 186.061C737.304 185.951 732.417 184.906 731.32 181.605C729.915 177.382 729.997 175.303 737.126 171.907C743.556 168.843 749.014 173.538 750.161 171.793C751.309 170.048 748.137 169.038 751.002 168.113C753.866 167.189 753.927 167.838 754.394 165.83C754.861 163.822 755.672 158.508 760.334 155.778C764.063 153.593 767.854 153.214 769.283 153.298C769.4 149.904 771.187 142.186 777.395 138.458C785.154 133.799 789.319 132.752 800.008 138.291C803.59 136.863 812.081 134.862 817.389 138.29C824.024 142.575 825.366 146.377 825.997 149.59C826.501 152.161 827.237 152.31 827.541 152.063C830.504 151.02 835.207 153.069 839.376 155.556C843.546 158.044 849.428 159.274 850.716 161.335C850.843 161.192 850.934 161.076 850.996 160.984C850.932 160.651 851.302 160.531 850.996 160.984C851.06 161.319 851.563 161.87 853.631 162.271C859.309 163.372 867.936 166.586 865.458 168.129C865.556 169.167 864.599 170.61 864.108 171.202C865.696 171.816 868.379 174.073 866.406 178.187C864.432 182.301 861.236 182.493 859.885 182.074C860.935 183.939 857.159 183.48 851.065 185.626C844.97 187.771 842.43 184.475 841.921 182.559C841.712 184.979 840.123 186.148 830.899 185.708C821.674 185.268 823.859 190.706 824.495 189.337C824.235 191.217 818.438 184.772 814.537 185.14C811.349 185.44 812.902 189.964 813.54 190.597C813.634 190.541 813.71 190.459 813.768 190.348C813.78 190.686 813.683 190.739 813.54 190.597C812.275 191.356 807.799 187.47 802.67 187.466C797.16 187.462 795.991 193.114 795.239 192.094C793.865 193.751 789.055 189.273 785.365 189.097C781.676 188.921 780.822 194.544 780.286 193.503C778.783 194.954 777.299 187.631 774.601 186.838C771.902 186.045 767.703 193.38 767.039 192.133C766.552 193.925 766.652 187.91 763.596 186.103C761.06 184.604 759.428 188.628 759.192 189.331C759.203 189.31 759.215 189.29 759.226 189.269C759.153 189.48 759.143 189.475 759.192 189.331C757.156 192.949 755.97 192.482 750.723 183.863Z" fill="#FFE1AD"/>
<path d="M751.022 189.06C748.73 190.258 743.634 191.393 741.584 186.349C739.278 186.239 734.392 185.194 733.293 181.893C731.921 177.767 733.707 172.362 741.6 172.6C749.494 172.838 751.008 174.987 752.155 173.242C753.302 171.497 752.702 168.608 755.567 167.683C758.431 166.759 758.492 167.408 758.959 165.4C759.426 163.392 760.237 158.078 764.899 155.348C768.628 153.163 772.418 152.784 773.847 152.868C773.965 149.474 775.752 141.756 781.96 138.028C789.719 133.369 793.884 132.322 804.572 137.861C808.155 136.433 816.646 134.432 821.954 137.86C828.588 142.145 829.931 145.946 830.561 149.16C831.066 151.731 831.801 151.88 832.106 151.633C835.069 150.59 842.036 149.126 846.206 151.613C850.376 154.101 853.993 158.844 855.281 160.905C856.665 159.356 860.57 156.479 865.113 157.36C870.792 158.461 872.501 166.156 870.023 167.699C870.12 168.737 869.163 170.18 868.672 170.772C870.261 171.386 872.944 173.643 870.97 177.757C868.997 181.87 865.801 182.063 864.45 181.644C865.5 183.509 866.077 187.776 859.983 189.921C853.888 192.066 851.347 188.771 850.839 186.855C850.63 189.275 847.905 194.005 838.681 193.565C830.937 193.195 828.966 191.129 828.909 189.664C828.403 191.666 826.833 194.681 823.403 195.005C819.502 195.372 818.398 191.767 818.333 189.918C817.5 191.524 814.458 194.735 808.948 194.73C803.438 194.726 800.556 192.684 799.804 191.664C798.43 193.321 794.759 196.591 791.069 196.415C787.379 196.239 785.386 194.114 784.851 193.073C783.348 194.524 779.667 197.228 776.969 196.435C774.271 195.641 772.268 192.95 771.604 191.703C771.117 193.495 769.379 196.626 766.322 194.819C763.266 193.012 763.362 190.079 763.791 188.839C761.734 192.524 756.299 197.728 751.022 189.06Z" fill="#E7E3A6"/>
<path d="M366.723 103.863C364.43 105.061 360.365 105.613 355.61 106.061C353.304 105.951 348.417 104.906 347.32 101.605C345.915 97.3824 345.997 95.3034 353.126 91.9066C359.556 88.8428 365.014 93.5379 366.161 91.7931C367.309 90.0483 364.137 89.038 367.002 88.1135C369.866 87.1889 369.927 87.8378 370.394 85.8299C370.861 83.822 371.672 78.5084 376.334 75.7778C380.063 73.5933 383.854 73.2143 385.283 73.2979C385.4 69.9045 387.187 62.1858 393.395 58.4585C401.154 53.7994 405.319 52.7523 416.008 58.2915C419.59 56.8628 428.081 54.8624 433.389 58.2901C440.024 62.5746 441.366 66.3765 441.997 69.5901C442.501 72.1609 443.237 72.3097 443.541 72.0628C446.504 71.0199 451.207 73.0687 455.376 75.5562C459.546 78.0437 465.428 79.2744 466.716 81.3352C466.843 81.1924 466.934 81.0764 466.996 80.9842C466.932 80.6511 467.302 80.5314 466.996 80.9842C467.06 81.3191 467.563 81.8697 469.631 82.2707C475.309 83.3719 483.936 86.586 481.458 88.129C481.556 89.1674 480.599 90.6104 480.108 91.2022C481.696 91.8163 484.379 94.0731 482.406 98.1868C480.432 102.301 477.236 102.493 475.885 102.074C476.935 103.939 473.159 103.48 467.065 105.626C460.97 107.771 458.43 104.475 457.921 102.559C457.712 104.979 456.123 106.148 446.899 105.708C437.674 105.268 439.859 110.706 440.495 109.337C440.235 111.217 434.438 104.772 430.537 105.14C427.349 105.44 428.902 109.964 429.54 110.597C429.634 110.541 429.71 110.459 429.768 110.348C429.78 110.686 429.683 110.739 429.54 110.597C428.275 111.356 423.799 107.47 418.67 107.466C413.16 107.462 411.991 113.114 411.239 112.094C409.865 113.751 405.055 109.273 401.365 109.097C397.676 108.921 396.822 114.544 396.286 113.503C394.783 114.954 393.299 107.631 390.601 106.838C387.902 106.045 383.703 113.38 383.039 112.133C382.552 113.925 382.652 107.91 379.596 106.103C377.06 104.604 375.428 108.628 375.192 109.331C375.203 109.31 375.215 109.29 375.226 109.269C375.153 109.48 375.143 109.475 375.192 109.331C373.156 112.949 371.97 112.482 366.723 103.863Z" fill="#FFE1AD"/>
<path d="M367.023 109.06C364.731 110.258 359.635 111.393 357.585 106.349C355.279 106.239 350.393 105.194 349.294 101.893C347.922 97.7673 349.708 92.3618 357.601 92.5999C365.495 92.8381 367.009 94.9868 368.156 93.242C369.303 91.4972 368.703 88.608 371.568 87.6834C374.432 86.7588 374.493 87.4077 374.96 85.3998C375.427 83.3919 376.238 78.0783 380.9 75.3477C384.629 73.1633 388.419 72.7843 389.848 72.8678C389.966 69.4744 391.753 61.7557 397.961 58.0284C405.72 53.3693 409.885 52.3222 420.573 57.8614C424.155 56.4327 432.647 54.4323 437.955 57.86C444.589 62.1446 445.931 65.9465 446.562 69.16C447.067 71.7308 447.802 71.8797 448.107 71.6327C451.07 70.5898 458.037 69.1258 462.207 71.6133C466.377 74.1008 469.994 78.8443 471.281 80.9051C472.666 79.3564 476.571 76.4793 481.114 77.3603C486.793 78.4615 488.502 86.156 486.024 87.699C486.121 88.7373 485.164 90.1803 484.673 90.7721C486.262 91.3863 488.945 93.6431 486.971 97.7568C484.998 101.87 481.802 102.063 480.451 101.644C481.501 103.509 482.078 107.776 475.983 109.921C469.889 112.066 467.348 108.771 466.84 106.855C466.631 109.275 463.906 114.005 454.682 113.565C446.938 113.195 444.967 111.129 444.91 109.664C444.404 111.666 442.834 114.681 439.404 115.005C435.503 115.372 434.398 111.767 434.334 109.918C433.501 111.524 430.459 114.735 424.949 114.73C419.439 114.726 416.557 112.684 415.805 111.664C414.431 113.321 410.76 116.591 407.07 116.415C403.38 116.239 401.387 114.114 400.852 113.073C399.349 114.524 395.668 117.228 392.97 116.435C390.272 115.641 388.269 112.95 387.605 111.703C387.118 113.495 385.38 116.626 382.323 114.819C379.267 113.012 379.363 110.079 379.792 108.839C377.735 112.524 372.3 117.728 367.023 109.06Z" fill="#E7E3A6"/>
<path d="M251.731 185.648C248.278 187.453 242.155 188.285 234.993 188.959C231.52 188.794 224.159 187.22 222.506 182.248C220.391 175.887 220.514 172.756 231.251 167.64C240.936 163.025 249.157 170.097 250.885 167.469C252.613 164.841 247.837 163.319 252.151 161.927C256.466 160.534 256.558 161.511 257.261 158.487C257.964 155.463 259.185 147.46 266.207 143.347C271.824 140.057 277.533 139.486 279.686 139.612C279.863 134.5 282.554 122.875 291.904 117.261C303.591 110.243 309.864 108.666 325.963 117.009C331.358 114.857 344.148 111.844 352.142 117.007C362.136 123.46 364.157 129.187 365.107 134.027C365.867 137.899 366.975 138.123 367.434 137.751C371.896 136.18 378.979 139.266 385.26 143.013C391.54 146.76 400.4 148.613 402.339 151.717C402.531 151.502 402.667 151.327 402.761 151.189C402.665 150.687 403.221 150.507 402.761 151.189C402.858 151.693 403.615 152.522 406.729 153.126C415.283 154.785 428.276 159.626 424.543 161.95C424.691 163.514 423.249 165.687 422.51 166.579C424.902 167.504 428.943 170.903 425.971 177.099C422.998 183.295 418.185 183.584 416.15 182.954C417.732 185.763 412.044 185.072 402.864 188.303C393.685 191.534 389.858 186.571 389.092 183.685C388.777 187.33 386.384 189.091 372.491 188.428C358.597 187.765 361.887 195.956 362.845 193.894C362.454 196.724 353.723 187.018 347.848 187.571C343.045 188.024 345.384 194.838 346.346 195.791C346.487 195.706 346.602 195.583 346.688 195.416C346.706 195.925 346.56 196.004 346.346 195.791C344.44 196.934 337.699 191.081 329.973 191.075C321.674 191.068 319.914 199.583 318.781 198.046C316.711 200.542 309.466 193.796 303.909 193.531C298.352 193.266 297.065 201.736 296.259 200.168C293.995 202.354 291.76 191.324 287.695 190.129C283.631 188.935 277.307 199.982 276.307 198.104C275.573 200.803 275.723 191.744 271.12 189.023C267.3 186.764 264.842 192.825 264.486 193.884C264.504 193.853 264.521 193.822 264.539 193.79C264.429 194.108 264.414 194.101 264.486 193.884C261.42 199.334 259.634 198.63 251.731 185.648Z" fill="#FFE1AD"/>
<path d="M252.184 193.476C248.732 195.281 241.055 196.99 237.968 189.393C234.495 189.227 227.135 187.653 225.481 182.682C223.414 176.467 226.104 168.326 237.993 168.684C249.881 169.043 252.162 172.279 253.89 169.651C255.618 167.023 254.714 162.672 259.029 161.279C263.343 159.886 263.435 160.864 264.138 157.84C264.841 154.815 266.062 146.812 273.084 142.699C278.702 139.409 284.411 138.838 286.563 138.964C286.74 133.853 289.431 122.227 298.781 116.613C310.469 109.596 316.742 108.019 332.84 116.362C338.236 114.21 351.025 111.197 359.02 116.359C369.013 122.813 371.034 128.539 371.985 133.379C372.745 137.251 373.852 137.476 374.311 137.104C378.773 135.533 389.268 133.328 395.549 137.075C401.829 140.821 407.277 147.966 409.216 151.07C411.302 148.737 417.183 144.404 424.026 145.731C432.579 147.389 435.153 158.979 431.421 161.303C431.568 162.866 430.126 165.04 429.387 165.931C431.779 166.856 435.821 170.255 432.848 176.451C429.875 182.647 425.062 182.937 423.027 182.307C424.609 185.116 425.478 191.542 416.298 194.773C407.119 198.004 403.292 193.041 402.526 190.155C402.211 193.8 398.108 200.924 384.215 200.261C372.551 199.705 369.582 196.592 369.496 194.387C368.734 197.401 366.369 201.943 361.203 202.43C355.328 202.984 353.664 197.553 353.566 194.769C352.312 197.187 347.729 202.023 339.43 202.017C331.131 202.01 326.791 198.935 325.658 197.398C323.588 199.894 318.059 204.819 312.502 204.554C306.945 204.289 303.943 201.088 303.136 199.521C300.873 201.706 295.329 205.778 291.265 204.584C287.2 203.389 284.184 199.335 283.184 197.457C282.45 200.155 279.832 204.872 275.229 202.151C270.626 199.429 270.769 195.011 271.416 193.143C268.317 198.694 260.132 206.532 252.184 193.476Z" fill="#E7E3A6"/>
<path d="M773.328 350.668C769.432 352.705 762.52 353.644 754.437 354.405C750.517 354.218 742.209 352.442 740.343 346.83C737.956 339.651 738.095 336.117 750.214 330.342C761.145 325.134 770.423 333.116 772.374 330.149C774.324 327.183 768.933 325.466 773.803 323.894C778.673 322.322 778.776 323.425 779.57 320.012C780.363 316.598 781.742 307.565 789.667 302.923C796.008 299.21 802.451 298.565 804.88 298.708C805.08 292.939 808.118 279.817 818.671 273.481C831.862 265.56 838.942 263.78 857.113 273.197C863.202 270.768 877.637 267.367 886.661 273.194C897.94 280.478 900.221 286.941 901.294 292.404C902.152 296.775 903.402 297.028 903.92 296.608C908.956 294.835 916.951 298.318 924.039 302.547C931.128 306.775 941.128 308.868 943.316 312.371C943.533 312.128 943.687 311.931 943.793 311.774C943.684 311.208 944.312 311.004 943.793 311.774C943.902 312.344 944.756 313.28 948.271 313.961C957.926 315.833 972.591 321.297 968.378 323.92C968.544 325.686 966.917 328.139 966.083 329.145C968.783 330.189 973.344 334.025 969.989 341.019C966.634 348.012 961.201 348.338 958.904 347.627C960.69 350.798 954.27 350.017 943.909 353.664C933.549 357.312 929.23 351.709 928.365 348.452C928.01 352.566 925.308 354.553 909.627 353.805C893.946 353.057 897.659 362.302 898.741 359.974C898.299 363.169 888.445 352.214 881.813 352.839C876.393 353.349 879.033 361.04 880.118 362.116C880.278 362.02 880.407 361.881 880.505 361.693C880.525 362.267 880.36 362.357 880.118 362.116C877.967 363.406 870.359 356.8 861.639 356.793C852.272 356.786 850.285 366.395 849.006 364.661C846.67 367.478 838.493 359.865 832.221 359.565C825.948 359.266 824.497 368.826 823.587 367.056C821.031 369.523 818.508 357.074 813.921 355.726C809.334 354.377 802.195 366.846 801.067 364.727C800.239 367.773 800.408 357.548 795.213 354.477C790.901 351.927 788.127 358.768 787.726 359.964C787.745 359.929 787.765 359.893 787.785 359.858C787.661 360.217 787.643 360.209 787.726 359.964C784.264 366.114 782.248 365.32 773.328 350.668Z" fill="#FFE1AD"/>
<path d="M773.84 359.503C769.943 361.54 761.279 363.469 757.795 354.894C753.875 354.707 745.568 352.931 743.701 347.319C741.367 340.306 744.404 331.116 757.823 331.521C771.241 331.926 773.815 335.579 775.765 332.613C777.716 329.646 776.696 324.735 781.565 323.163C786.435 321.591 786.539 322.694 787.332 319.281C788.125 315.867 789.504 306.834 797.429 302.192C803.77 298.479 810.213 297.835 812.643 297.977C812.842 292.208 815.88 279.086 826.433 272.75C839.625 264.829 846.705 263.049 864.875 272.466C870.964 270.037 885.399 266.636 894.423 272.463C905.702 279.747 907.984 286.21 909.056 291.673C909.914 296.044 911.164 296.297 911.682 295.877C916.718 294.104 928.563 291.615 935.652 295.844C942.741 300.073 948.89 308.137 951.078 311.64C953.432 309.007 960.07 304.116 967.793 305.614C977.448 307.486 980.353 320.566 976.14 323.189C976.306 324.955 974.679 327.408 973.845 328.414C976.545 329.458 981.106 333.294 977.751 340.288C974.396 347.281 968.963 347.607 966.666 346.897C968.452 350.067 969.432 357.32 959.072 360.967C948.711 364.614 944.392 359.012 943.528 355.754C943.172 359.868 938.541 367.91 922.86 367.162C909.695 366.534 906.344 363.02 906.248 360.531C905.387 363.933 902.718 369.06 896.887 369.609C890.256 370.234 888.377 364.105 888.267 360.962C886.852 363.692 881.68 369.15 872.313 369.143C862.946 369.135 858.047 365.664 856.769 363.93C854.432 366.747 848.192 372.306 841.919 372.007C835.647 371.708 832.259 368.095 831.349 366.326C828.794 368.792 822.537 373.388 817.949 372.04C813.362 370.691 809.958 366.116 808.829 363.996C808.001 367.042 805.046 372.365 799.85 369.294C794.655 366.222 794.817 361.236 795.547 359.127C792.049 365.392 782.811 374.239 773.84 359.503Z" fill="#E7E3A6"/>
<path d="M495.467 216.856C492.168 218.58 486.318 219.375 479.475 220.02C476.157 219.861 469.124 218.357 467.544 213.607C465.523 207.53 465.641 204.538 475.9 199.65C485.153 195.241 493.008 201.997 494.659 199.486C496.31 196.976 491.746 195.522 495.869 194.191C499.991 192.861 500.079 193.794 500.75 190.905C501.422 188.015 502.589 180.369 509.298 176.439C514.665 173.296 520.12 172.75 522.176 172.87C522.345 167.987 524.917 156.879 533.85 151.515C545.017 144.811 551.01 143.304 566.392 151.275C571.547 149.219 583.766 146.34 591.404 151.273C600.952 157.439 602.884 162.91 603.792 167.535C604.518 171.234 605.576 171.448 606.015 171.093C610.278 169.592 617.046 172.541 623.046 176.12C629.047 179.7 637.512 181.471 639.365 184.437C639.548 184.231 639.678 184.064 639.768 183.932C639.676 183.452 640.208 183.28 639.768 183.932C639.86 184.414 640.583 185.206 643.559 185.783C651.732 187.368 664.146 191.993 660.58 194.214C660.72 195.708 659.343 197.784 658.637 198.636C660.922 199.52 664.784 202.768 661.943 208.688C659.103 214.607 654.504 214.884 652.56 214.282C654.071 216.966 648.637 216.305 639.867 219.392C631.096 222.48 627.44 217.737 626.708 214.98C626.407 218.462 624.12 220.145 610.846 219.512C597.572 218.878 600.715 226.704 601.631 224.734C601.256 227.438 592.915 218.164 587.301 218.693C582.713 219.126 584.948 225.636 585.866 226.547C586.001 226.466 586.111 226.348 586.194 226.188C586.211 226.674 586.071 226.75 585.866 226.547C584.045 227.639 577.605 222.047 570.223 222.041C562.294 222.035 560.612 230.169 559.53 228.701C557.552 231.086 550.63 224.641 545.32 224.388C540.011 224.134 538.782 232.227 538.011 230.729C535.848 232.817 533.712 222.279 529.829 221.137C525.946 219.996 519.903 230.551 518.948 228.757C518.247 231.335 518.391 222.68 513.992 220.08C510.342 217.922 507.994 223.713 507.654 224.725C507.671 224.695 507.688 224.665 507.704 224.635C507.599 224.939 507.585 224.932 507.654 224.725C504.724 229.931 503.018 229.259 495.467 216.856Z" fill="#FFE1AD"/>
<path d="M495.899 224.335C492.6 226.059 485.266 227.693 482.317 220.434C478.998 220.276 471.966 218.771 470.386 214.022C468.41 208.084 470.981 200.305 482.34 200.648C493.699 200.991 495.878 204.083 497.529 201.572C499.18 199.061 498.316 194.903 502.438 193.573C506.56 192.242 506.648 193.176 507.32 190.286C507.992 187.397 509.159 179.75 515.868 175.821C521.235 172.677 526.689 172.132 528.746 172.252C528.915 167.369 531.486 156.261 540.42 150.897C551.587 144.192 557.58 142.685 572.961 150.657C578.116 148.601 590.336 145.722 597.974 150.655C607.522 156.82 609.454 162.292 610.361 166.916C611.088 170.616 612.146 170.83 612.585 170.475C616.848 168.974 626.875 166.867 632.876 170.447C638.876 174.026 644.082 180.853 645.934 183.818C647.927 181.59 653.546 177.449 660.084 178.717C668.256 180.302 670.716 191.375 667.149 193.595C667.29 195.089 665.913 197.166 665.206 198.018C667.492 198.901 671.353 202.149 668.513 208.069C665.673 213.989 661.074 214.265 659.13 213.663C660.641 216.347 661.471 222.487 652.701 225.574C643.93 228.662 640.274 223.919 639.543 221.162C639.241 224.644 635.321 231.451 622.047 230.818C610.903 230.287 608.066 227.312 607.984 225.205C607.256 228.085 604.996 232.425 600.06 232.89C594.447 233.419 592.857 228.23 592.763 225.57C591.565 227.881 587.187 232.502 579.258 232.495C571.328 232.489 567.182 229.551 566.099 228.083C564.122 230.467 558.839 235.173 553.529 234.92C548.22 234.666 545.351 231.608 544.581 230.111C542.418 232.198 537.121 236.089 533.238 234.948C529.355 233.806 526.473 229.933 525.517 228.139C524.816 230.717 522.315 235.223 517.917 232.623C513.519 230.023 513.656 225.802 514.274 224.017C511.313 229.32 503.493 236.809 495.899 224.335Z" fill="#E7E3A6"/>
<path d="M13.1386 260.833C9.84011 262.557 3.98956 263.351 -2.85292 263.996C-6.17145 263.838 -13.2044 262.334 -14.7839 257.584C-16.8047 251.506 -16.6874 248.515 -6.4283 243.626C2.82508 239.217 10.6795 245.974 12.3307 243.463C13.9818 240.952 9.41832 239.498 13.5404 238.168C17.6626 236.837 17.7506 237.771 18.4222 234.881C19.0938 231.992 20.261 224.345 26.9699 220.416C32.337 217.272 37.7916 216.727 39.848 216.847C40.0171 211.964 42.5885 200.856 51.5219 195.492C62.6887 188.787 68.682 187.28 84.0635 195.252C89.2184 193.196 101.438 190.317 109.076 195.25C118.624 201.415 120.556 206.887 121.464 211.511C122.19 215.211 123.248 215.425 123.687 215.07C127.95 213.569 134.718 216.517 140.718 220.097C146.719 223.677 155.184 225.448 157.036 228.413C157.22 228.208 157.35 228.041 157.44 227.908C157.348 227.429 157.879 227.257 157.44 227.908C157.532 228.39 158.255 229.183 161.231 229.76C169.403 231.344 181.818 235.97 178.251 238.19C178.392 239.684 177.015 241.761 176.308 242.613C178.594 243.496 182.456 246.744 179.615 252.664C176.775 258.584 172.176 258.86 170.232 258.259C171.743 260.942 166.309 260.281 157.538 263.369C148.768 266.456 145.112 261.714 144.38 258.956C144.079 262.439 141.792 264.121 128.518 263.488C115.244 262.855 118.387 270.681 119.303 268.71C118.928 271.415 110.587 262.141 104.973 262.67C100.385 263.102 102.62 269.613 103.538 270.524C103.673 270.443 103.783 270.325 103.865 270.165C103.883 270.651 103.743 270.727 103.538 270.524C101.717 271.616 95.2766 266.024 87.895 266.018C79.9657 266.011 78.2836 274.146 77.2014 272.678C75.2237 275.062 68.3017 268.618 62.9921 268.364C57.6824 268.111 56.4535 276.203 55.6831 274.706C53.5201 276.794 51.3841 266.255 47.501 265.114C43.6179 263.973 37.5751 274.528 36.6195 272.734C35.9186 275.312 36.0624 266.657 31.6643 264.056C28.0142 261.898 25.6659 267.689 25.3261 268.701C25.3428 268.672 25.3595 268.642 25.3763 268.612C25.2712 268.915 25.2564 268.909 25.3261 268.701C22.3961 273.908 20.6897 273.236 13.1386 260.833Z" fill="#FFE1AD"/>
<path d="M13.5706 268.312C10.2721 270.036 2.93784 271.669 -0.0115206 264.41C-3.33005 264.252 -10.3622 262.748 -11.9425 257.998C-13.9178 252.061 -11.3472 244.282 0.0117292 244.625C11.3707 244.967 13.5495 248.059 15.2007 245.549C16.8519 243.038 15.9881 238.88 20.1102 237.549C24.2323 236.219 24.3203 237.153 24.9919 234.263C25.6635 231.373 26.8307 223.727 33.5396 219.797C38.9067 216.654 44.3613 216.108 46.4178 216.229C46.5868 211.345 49.1583 200.237 58.0917 194.873C69.2585 188.169 75.2518 186.662 90.6333 194.633C95.7883 192.577 108.008 189.698 115.646 194.631C125.194 200.797 127.126 206.268 128.033 210.893C128.76 214.592 129.818 214.806 130.256 214.451C134.52 212.95 144.547 210.843 150.547 214.423C156.548 218.003 161.754 224.829 163.606 227.795C165.599 225.566 171.218 221.426 177.756 222.693C185.928 224.278 188.387 235.351 184.821 237.572C184.962 239.066 183.584 241.143 182.878 241.994C185.164 242.878 189.025 246.126 186.185 252.046C183.345 257.966 178.746 258.242 176.801 257.64C178.313 260.324 179.143 266.463 170.373 269.551C161.602 272.638 157.946 267.896 157.214 265.138C156.913 268.621 152.993 275.428 139.719 274.795C128.574 274.263 125.738 271.289 125.656 269.182C124.928 272.061 122.668 276.402 117.732 276.867C112.119 277.396 110.529 272.207 110.435 269.547C109.237 271.858 104.859 276.478 96.9296 276.472C89.0003 276.465 84.8535 273.527 83.7712 272.059C81.7935 274.444 76.5107 279.15 71.2011 278.896C65.8914 278.643 63.0232 275.585 62.2529 274.087C60.0899 276.175 54.7932 280.066 50.9101 278.924C47.027 277.783 44.1449 273.909 43.1892 272.115C42.4883 274.693 39.9869 279.2 35.5888 276.6C31.1906 274 31.3277 269.779 31.9461 267.993C28.9852 273.297 21.1648 280.786 13.5706 268.312Z" fill="#E7E3A6"/>
<path d="M433.754 325.733C431.266 327.034 426.852 327.634 421.69 328.12C419.187 328.001 413.881 326.866 412.689 323.282C411.165 318.698 411.253 316.441 418.993 312.753C425.974 309.427 431.899 314.524 433.145 312.63C434.39 310.735 430.948 309.639 434.057 308.635C437.167 307.631 437.234 308.336 437.74 306.156C438.247 303.976 439.127 298.207 444.189 295.243C448.238 292.871 452.353 292.46 453.904 292.55C454.032 288.866 455.971 280.487 462.711 276.44C471.135 271.382 475.656 270.245 487.26 276.259C491.149 274.708 500.368 272.536 506.13 276.257C513.333 280.909 514.79 285.036 515.475 288.525C516.023 291.316 516.822 291.478 517.152 291.21C520.369 290.077 525.474 292.302 530.001 295.002C534.528 297.703 540.914 299.039 542.311 301.276C542.45 301.121 542.548 300.995 542.616 300.895C542.546 300.533 542.947 300.403 542.616 300.895C542.685 301.259 543.231 301.856 545.476 302.292C551.641 303.487 561.007 306.977 558.316 308.652C558.422 309.779 557.383 311.346 556.85 311.988C558.575 312.655 561.488 315.105 559.345 319.571C557.203 324.037 553.733 324.246 552.266 323.792C553.406 325.816 549.307 325.318 542.69 327.647C536.074 329.976 533.316 326.398 532.763 324.318C532.536 326.945 530.811 328.215 520.797 327.737C510.783 327.259 513.154 333.163 513.845 331.676C513.562 333.717 507.27 326.72 503.035 327.12C499.573 327.446 501.259 332.357 501.952 333.044C502.054 332.983 502.137 332.894 502.199 332.774C502.212 333.14 502.107 333.198 501.952 333.044C500.578 333.868 495.72 329.65 490.151 329.645C484.169 329.64 482.9 335.777 482.084 334.669C480.592 336.468 475.37 331.606 471.364 331.415C467.358 331.224 466.431 337.329 465.85 336.199C464.218 337.774 462.607 329.824 459.677 328.963C456.748 328.102 452.189 336.065 451.468 334.712C450.94 336.657 451.048 330.127 447.73 328.165C444.977 326.538 443.205 330.906 442.949 331.67C442.961 331.647 442.974 331.625 442.987 331.602C442.907 331.831 442.896 331.826 442.949 331.67C440.738 335.598 439.451 335.09 433.754 325.733Z" fill="#FFE1AD"/>
<path d="M434.081 331.377C431.593 332.678 426.06 333.91 423.835 328.434C421.331 328.314 416.026 327.18 414.834 323.596C413.344 319.117 415.283 313.249 423.852 313.507C432.422 313.766 434.065 316.099 435.311 314.204C436.557 312.31 435.905 309.173 439.015 308.17C442.125 307.166 442.191 307.87 442.698 305.69C443.204 303.511 444.085 297.742 449.146 294.777C453.195 292.406 457.31 291.994 458.861 292.085C458.989 288.401 460.929 280.021 467.668 275.975C476.093 270.917 480.614 269.78 492.218 275.794C496.107 274.243 505.325 272.071 511.088 275.792C518.291 280.444 519.748 284.571 520.433 288.06C520.98 290.851 521.779 291.012 522.11 290.744C525.326 289.612 532.89 288.023 537.417 290.723C541.944 293.424 545.871 298.574 547.269 300.811C548.772 299.13 553.011 296.006 557.943 296.962C564.109 298.158 565.964 306.511 563.273 308.187C563.38 309.314 562.341 310.88 561.808 311.523C563.532 312.19 566.445 314.64 564.302 319.106C562.16 323.572 558.69 323.78 557.223 323.326C558.364 325.351 558.99 329.983 552.374 332.312C545.757 334.641 542.999 331.063 542.447 328.983C542.22 331.61 539.262 336.746 529.248 336.268C520.841 335.867 518.701 333.623 518.639 332.033C518.09 334.206 516.385 337.48 512.661 337.831C508.427 338.23 507.227 334.316 507.156 332.309C506.253 334.052 502.95 337.538 496.968 337.533C490.986 337.528 487.857 335.312 487.041 334.204C485.549 336.003 481.564 339.553 477.558 339.362C473.552 339.171 471.389 336.864 470.807 335.734C469.176 337.309 465.18 340.244 462.25 339.383C459.321 338.522 457.147 335.6 456.426 334.246C455.897 336.191 454.01 339.591 450.692 337.63C447.374 335.668 447.477 332.484 447.944 331.137C445.71 335.138 439.81 340.787 434.081 331.377Z" fill="#E7E3A6"/>
<path d="M579.715 90.9279C577.104 92.2315 572.481 92.8494 567.074 93.3588C564.454 93.2532 558.906 92.1546 557.677 88.604C556.105 84.0614 556.209 81.8208 564.33 78.1207C571.655 74.7834 577.831 79.8119 579.145 77.9254C580.459 76.0388 576.861 74.968 580.121 73.9557C583.382 72.9434 583.448 73.6423 583.989 71.4761C584.531 69.3099 585.482 63.5798 590.796 60.6115C595.046 58.2368 599.356 57.8071 600.98 57.8891C601.132 54.232 603.206 45.9049 610.282 41.8539C619.127 36.7901 623.866 35.6385 635.982 41.5472C640.061 39.9877 649.722 37.7846 655.735 41.4482C663.251 46.0278 664.755 50.1169 665.454 53.576C666.013 56.3433 666.848 56.4996 667.196 56.2318C670.569 55.0914 675.901 57.2727 680.626 59.9297C685.351 62.5867 692.029 63.8798 693.481 66.0932C693.627 65.9386 693.73 65.8131 693.801 65.7133C693.731 65.3548 694.151 65.2237 693.801 65.7133C693.872 66.0739 694.44 66.6644 696.788 67.0849C703.236 68.2396 713.022 71.6546 710.197 73.331C710.302 74.4493 709.206 76.0096 708.645 76.65C710.447 77.3029 713.483 79.7196 711.217 84.1633C708.951 88.6069 705.318 88.8318 703.785 88.3887C704.968 90.3924 700.679 89.9187 693.741 92.2646C686.803 94.6105 683.934 91.0736 683.367 89.0119C683.116 91.6208 681.303 92.8894 670.823 92.4669C660.342 92.0444 662.794 97.8919 663.525 96.413C663.218 98.4394 656.667 91.528 652.232 91.9459C648.607 92.2876 650.346 97.1537 651.068 97.832C651.175 97.7708 651.262 97.6822 651.328 97.5623C651.34 97.926 651.229 97.9835 651.068 97.832C649.626 98.6568 644.561 94.4948 638.732 94.519C632.47 94.5451 631.11 100.643 630.261 99.5476C628.69 101.341 623.249 96.5421 619.056 96.3731C614.864 96.2042 613.862 102.268 613.26 101.15C611.543 102.722 609.898 94.8392 606.836 93.9997C603.773 93.1602 598.96 101.087 598.213 99.7475C597.649 101.681 597.796 95.1994 594.333 93.2696C591.459 91.668 589.582 96.0132 589.31 96.7722C589.323 96.7499 589.336 96.7275 589.35 96.7049C589.265 96.9327 589.254 96.9278 589.31 96.7722C586.975 100.682 585.63 100.185 579.715 90.9279Z" fill="#FFE1AD"/>
<path d="M580.027 96.5263C577.416 97.83 571.617 99.0815 569.316 93.6579C566.696 93.5523 561.149 92.4535 559.919 88.9031C558.382 84.4651 560.443 78.6306 569.412 78.8429C578.381 79.0553 580.09 81.3622 581.403 79.4756C582.717 77.5891 582.051 74.4793 585.312 73.467C588.572 72.4547 588.638 73.1535 589.18 70.9873C589.721 68.8211 590.673 63.0911 595.986 60.1227C600.237 57.748 604.547 57.3184 606.17 57.4004C606.323 53.7432 608.397 45.4161 615.473 41.3651C624.317 36.3013 629.056 35.1497 641.172 41.0584C645.251 39.4989 654.913 37.2958 660.925 40.9595C668.442 45.539 669.946 49.6281 670.645 53.0872C671.204 55.8545 672.039 56.0108 672.386 55.743C675.759 54.6026 683.686 52.9861 688.411 55.6431C693.136 58.3 697.22 63.391 698.671 65.6044C700.253 63.9279 704.707 60.8058 709.865 61.7296C716.313 62.8843 718.212 71.1658 715.387 72.8423C715.493 73.9605 714.397 75.5208 713.835 76.1612C715.637 76.8141 718.674 79.2308 716.408 83.6745C714.142 88.1182 710.509 88.343 708.976 87.8999C710.159 89.9036 710.791 94.4974 703.852 96.8433C696.914 99.1892 694.045 95.6523 693.478 93.5906C693.227 96.1995 690.104 101.312 679.624 100.889C670.825 100.534 668.596 98.3183 668.54 96.7411C667.954 98.9001 666.152 102.159 662.253 102.526C657.818 102.944 656.582 99.0652 656.519 97.0735C655.563 98.8087 652.088 102.285 645.826 102.311C639.564 102.338 636.301 100.154 635.452 99.0588C633.881 100.852 629.69 104.396 625.498 104.227C621.306 104.058 619.053 101.779 618.45 100.661C616.734 102.233 612.536 105.167 609.474 104.327C606.412 103.487 604.151 100.598 603.403 99.2587C602.839 101.192 600.846 104.576 597.383 102.646C593.92 100.716 594.045 97.5554 594.54 96.2161C592.181 100.199 585.976 105.837 580.027 96.5263Z" fill="#E7E3A6"/>
<path d="M212.723 275.863C210.43 277.061 206.365 277.613 201.61 278.061C199.304 277.951 194.417 276.906 193.32 273.605C191.915 269.382 191.997 267.303 199.126 263.907C205.556 260.843 211.014 265.538 212.161 263.793C213.309 262.048 210.137 261.038 213.002 260.113C215.866 259.189 215.927 259.838 216.394 257.83C216.861 255.822 217.672 250.508 222.334 247.778C226.063 245.593 229.854 245.214 231.283 245.298C231.4 241.904 233.187 234.186 239.395 230.458C247.154 225.799 251.319 224.752 262.008 230.291C265.59 228.863 274.081 226.862 279.389 230.29C286.024 234.575 287.366 238.377 287.997 241.59C288.501 244.161 289.237 244.31 289.541 244.063C292.504 243.02 297.207 245.069 301.376 247.556C305.546 250.044 311.428 251.274 312.716 253.335C312.843 253.192 312.934 253.076 312.996 252.984C312.932 252.651 313.302 252.531 312.996 252.984C313.06 253.319 313.563 253.87 315.631 254.271C321.309 255.372 329.936 258.586 327.458 260.129C327.556 261.167 326.599 262.61 326.108 263.202C327.696 263.816 330.379 266.073 328.406 270.187C326.432 274.301 323.236 274.493 321.885 274.074C322.935 275.939 319.159 275.48 313.065 277.626C306.97 279.771 304.43 276.475 303.921 274.559C303.712 276.979 302.123 278.148 292.899 277.708C283.674 277.268 285.859 282.706 286.495 281.337C286.235 283.217 280.438 276.772 276.537 277.14C273.349 277.44 274.902 281.964 275.54 282.597C275.634 282.541 275.71 282.459 275.768 282.348C275.78 282.686 275.683 282.739 275.54 282.597C274.275 283.356 269.799 279.47 264.67 279.466C259.16 279.462 257.991 285.114 257.239 284.094C255.865 285.751 251.055 281.273 247.365 281.097C243.676 280.921 242.822 286.544 242.286 285.503C240.783 286.954 239.299 279.631 236.601 278.838C233.902 278.045 229.703 285.38 229.039 284.133C228.552 285.925 228.652 279.91 225.596 278.103C223.06 276.604 221.428 280.628 221.192 281.331C221.203 281.31 221.215 281.29 221.226 281.269C221.153 281.48 221.143 281.475 221.192 281.331C219.156 284.949 217.97 284.482 212.723 275.863Z" fill="#FFE1AD"/>
<path d="M864.637 91.8483C860.433 94.0458 851.084 96.1277 847.324 86.8749C843.094 86.6731 834.13 84.7557 832.115 78.7009C829.597 71.1324 832.874 61.2165 847.354 61.6533C861.833 62.0902 864.611 66.0319 866.715 62.8312C868.82 59.6304 867.719 54.3303 872.974 52.6343C878.228 50.9382 878.34 52.1285 879.197 48.4452C880.053 44.7618 881.54 35.0145 890.092 30.0054C896.934 25.9982 903.887 25.303 906.508 25.4562C906.724 19.2312 910.002 5.07187 921.39 -1.76554C935.624 -10.3123 943.264 -12.2331 962.871 -2.07188C969.442 -4.69268 985.019 -8.36232 994.756 -2.07452C1006.93 5.78524 1009.39 12.7595 1010.55 18.6545C1011.47 23.3705 1012.82 23.6435 1013.38 23.1905C1018.81 21.2774 1031.6 18.5918 1039.25 23.1549C1046.89 27.718 1053.53 36.4197 1055.89 40.2001C1058.43 37.3591 1065.59 32.0812 1073.93 33.6973C1084.35 35.7173 1087.48 49.8324 1082.93 52.6628C1083.11 54.5676 1081.36 57.2148 1080.46 58.3003C1083.37 59.4269 1088.29 63.5668 1084.67 71.1131C1081.05 78.6594 1075.19 79.0117 1072.71 78.2445C1074.64 81.6656 1075.7 89.4918 1064.52 93.4275C1053.34 97.3632 1048.68 91.3175 1047.74 87.8027C1047.36 92.2422 1042.36 100.919 1025.44 100.112C1011.24 99.4343 1007.62 95.6426 1007.52 92.957C1006.59 96.6277 1003.71 102.16 997.415 102.753C990.259 103.427 988.232 96.8133 988.113 93.422C986.586 96.368 981.005 102.258 970.897 102.25C960.789 102.242 955.503 98.4965 954.124 96.625C951.603 99.6647 944.869 105.663 938.1 105.34C931.332 105.017 927.676 101.119 926.694 99.2099C923.937 101.872 917.185 106.831 912.235 105.376C907.285 103.921 903.611 98.9833 902.393 96.6963C901.5 99.9829 898.311 105.727 892.705 102.413C887.098 99.0984 887.273 93.7179 888.061 91.442C884.287 98.2026 874.318 107.749 864.637 91.8483Z" fill="#E7E3A6"/>
<path d="M1023.23 287.014C1018.48 289.501 1010.04 290.647 1000.17 291.577C995.385 291.348 985.243 289.18 982.965 282.329C980.05 273.565 980.22 269.25 995.015 262.2C1008.36 255.842 1019.69 265.586 1022.07 261.965C1024.45 258.343 1017.87 256.247 1023.81 254.328C1029.76 252.409 1029.88 253.756 1030.85 249.588C1031.82 245.421 1033.51 234.394 1043.18 228.727C1050.92 224.193 1058.79 223.406 1061.75 223.58C1062 216.537 1065.71 200.518 1078.59 192.782C1094.69 183.113 1103.34 180.94 1125.52 192.436C1132.95 189.471 1150.58 185.319 1161.59 192.433C1175.36 201.325 1178.15 209.215 1179.46 215.885C1180.5 221.22 1182.03 221.529 1182.66 221.016C1188.81 218.852 1198.57 223.104 1207.22 228.267C1215.88 233.429 1228.09 235.983 1230.76 240.26C1231.02 239.964 1231.21 239.723 1231.34 239.532C1231.21 238.841 1231.97 238.592 1231.34 239.532C1231.47 240.227 1232.52 241.37 1236.81 242.202C1248.59 244.487 1266.5 251.158 1261.35 254.36C1261.56 256.515 1259.57 259.51 1258.55 260.738C1261.85 262.013 1267.42 266.696 1263.32 275.234C1259.23 283.772 1252.59 284.17 1249.79 283.302C1251.97 287.173 1244.13 286.22 1231.48 290.672C1218.83 295.125 1213.56 288.285 1212.51 284.309C1212.07 289.331 1208.77 291.757 1189.63 290.844C1170.49 289.931 1175.02 301.217 1176.34 298.375C1175.8 302.276 1163.77 288.901 1155.67 289.664C1149.06 290.288 1152.28 299.677 1153.6 300.99C1153.8 300.874 1153.96 300.704 1154.08 300.473C1154.1 301.174 1153.9 301.284 1153.6 300.99C1150.98 302.565 1141.69 294.501 1131.04 294.492C1119.61 294.483 1117.18 306.214 1115.62 304.097C1112.77 307.536 1102.79 298.242 1095.13 297.876C1087.47 297.511 1085.7 309.181 1084.59 307.022C1081.47 310.033 1078.39 294.835 1072.79 293.189C1067.19 291.543 1058.48 306.765 1057.1 304.178C1056.09 307.896 1056.29 295.414 1049.95 291.664C1044.69 288.552 1041.3 296.903 1040.81 298.363C1040.83 298.32 1040.86 298.277 1040.88 298.233C1040.73 298.671 1040.71 298.662 1040.81 298.363C1036.58 305.871 1034.12 304.902 1023.23 287.014Z" fill="#FFE1AD"/>
<path d="M1023.85 297.802C1019.1 300.288 1008.52 302.643 1004.27 292.175C999.481 291.947 989.34 289.778 987.061 282.927C984.212 274.365 987.919 263.146 1004.3 263.641C1020.68 264.135 1023.82 268.594 1026.21 264.973C1028.59 261.352 1027.34 255.356 1033.29 253.437C1039.23 251.518 1039.36 252.865 1040.33 248.697C1041.29 244.53 1042.98 233.502 1052.65 227.835C1060.39 223.302 1068.26 222.515 1071.23 222.689C1071.47 215.646 1075.18 199.627 1088.06 191.891C1104.17 182.222 1112.81 180.049 1134.99 191.545C1142.43 188.579 1160.05 184.428 1171.06 191.542C1184.83 200.434 1187.62 208.324 1188.93 214.993C1189.98 220.329 1191.5 220.638 1192.14 220.125C1198.28 217.961 1212.74 214.923 1221.4 220.085C1230.05 225.248 1237.56 235.092 1240.23 239.369C1243.1 236.155 1251.21 230.184 1260.64 232.012C1272.42 234.298 1275.97 250.267 1270.83 253.469C1271.03 255.624 1269.04 258.619 1268.02 259.847C1271.32 261.122 1276.89 265.805 1272.79 274.343C1268.7 282.881 1262.07 283.279 1259.26 282.411C1261.44 286.282 1262.64 295.136 1249.99 299.588C1237.34 304.041 1232.07 297.201 1231.01 293.225C1230.58 298.248 1224.92 308.064 1205.78 307.151C1189.71 306.384 1185.62 302.095 1185.5 299.056C1184.45 303.209 1181.19 309.468 1174.07 310.139C1165.98 310.902 1163.68 303.419 1163.55 299.582C1161.82 302.915 1155.51 309.579 1144.07 309.57C1132.64 309.56 1126.66 305.323 1125.1 303.206C1122.24 306.645 1114.63 313.432 1106.97 313.066C1099.31 312.701 1095.17 308.29 1094.06 306.13C1090.94 309.142 1083.3 314.753 1077.7 313.107C1072.1 311.46 1067.95 305.874 1066.57 303.287C1065.56 307.005 1061.95 313.504 1055.61 309.754C1049.27 306.004 1049.46 299.917 1050.36 297.342C1046.09 304.991 1034.81 315.791 1023.85 297.802Z" fill="#E7E3A6"/>
<path d="M283.168 404.164C263.743 420.212 254.327 402.432 252.047 391.536C250.74 404.09 243.202 425.408 223.502 410.257C203.802 395.106 215.168 374.394 223.313 365.931C214.827 373.524 195.341 383.826 185.286 364.29C172.717 339.87 221.214 343.425 214.103 342.451C208.415 341.672 202.434 338.75 200.154 337.386C184.671 328.408 191.354 309.231 205.354 302.987C216.554 297.992 225.493 312.397 228.563 320.224C230.16 310.316 237.173 292.614 252.453 301.07C267.732 309.527 261.559 328.102 256.563 336.333C264.754 327.351 283.956 315.054 295.238 337.72C306.521 360.387 283.877 371.024 271.145 373.51C283.246 377.041 302.593 388.117 283.168 404.164Z" fill="#6B8C0E"/>
<path d="M272.634 568.466L293.057 574.964L306.982 563.824L302.34 457.993L326.477 425.501V413.433L302.34 442.211L306.982 381.869L280.06 403.221V442.211H261.493L253.138 425.501L247.568 432.928L261.493 451.495L280.06 457.993L272.634 568.466Z" fill="#B07D56"/>
<path d="M181.579 432.568C173.732 408.625 193.722 406.351 204.698 408.207C193.489 402.407 176.395 387.604 197.693 374.797C218.991 361.99 219.717 366.553 232.25 373.051C232.25 358.265 232.579 358.232 254.145 356.034L254.441 356.004C281.764 353.22 260.746 397.071 264.249 390.806C267.051 385.795 271.955 381.294 274.057 379.67C288.069 368.533 303.482 381.758 304.183 397.071C304.743 409.321 288.069 412.384 279.662 412.384C288.303 417.488 302.221 430.48 288.77 441.617C275.318 452.754 260.279 440.225 254.441 432.568C259.812 443.473 264.249 465.839 239.028 468.067C213.806 470.294 210.42 459.615 212.755 446.854C205.048 456.831 189.425 456.512 181.579 432.568Z" fill="#93BA24"/>
<path d="M192.401 428.748C185.959 409.185 202.369 407.327 211.379 408.844C202.178 404.105 188.145 392.011 205.628 381.547C223.112 371.082 223.709 374.811 233.996 380.12C233.996 368.039 234.267 368.012 251.97 366.217L252.213 366.192C274.642 363.917 257.389 399.745 260.264 394.627C262.565 390.532 266.59 386.855 268.316 385.528C279.818 376.429 292.471 387.234 293.046 399.745C293.506 409.754 279.818 412.256 272.917 412.256C280.01 416.427 291.435 427.043 280.393 436.142C269.351 445.241 257.005 435.004 252.213 428.748C256.622 437.658 260.264 455.932 239.56 457.752C218.856 459.572 216.076 450.847 217.993 440.421C211.667 448.572 198.842 448.311 192.401 428.748Z" fill="#7DA314"/>
<path d="M256.774 360.156C248.927 336.212 268.918 333.939 279.894 335.795C268.684 329.995 251.59 315.192 272.888 302.385C294.186 289.578 309.319 307.721 314.223 318.394C310.253 307.722 307.777 285.82 329.636 283.592C356.959 280.808 335.941 324.659 339.444 318.394C342.247 313.383 347.151 308.882 349.253 307.258C363.264 296.121 378.677 309.346 379.378 324.659C379.939 336.909 363.264 339.971 354.857 339.971C363.498 345.076 377.416 358.068 363.965 369.205C350.514 380.342 335.474 367.813 329.636 360.156C335.007 371.061 339.444 393.427 314.223 395.654C289.002 397.882 287.367 372.917 289.702 360.156C281.996 370.133 264.621 384.1 256.774 360.156Z" fill="#93BA24"/>
<path d="M265.329 392.239C256.604 365.525 278.832 362.988 291.036 365.059C278.572 358.587 259.564 342.072 283.246 327.783C306.929 313.494 323.755 333.737 329.209 345.645C324.794 333.737 322.042 309.301 346.347 306.816C376.729 303.71 353.358 352.634 357.253 345.645C360.369 340.053 365.822 335.031 368.159 333.219C383.74 320.794 400.878 335.549 401.657 352.634C402.28 366.301 383.74 369.718 374.392 369.718C383.999 375.413 399.476 389.909 384.519 402.334C369.562 414.759 352.839 400.781 346.347 392.239C352.319 404.405 357.253 429.359 329.209 431.844C301.164 434.329 299.346 406.476 301.943 392.239C293.374 403.369 274.054 418.953 265.329 392.239Z" fill="#83A61E"/>
<path d="M293.909 433.496C286.062 409.552 306.052 407.279 317.028 409.135C305.819 403.334 288.725 388.532 310.023 375.725C331.321 362.918 346.454 381.061 351.358 391.734C347.388 381.061 344.912 359.159 366.771 356.932C394.094 354.148 373.076 397.998 376.579 391.734C379.381 386.722 384.286 382.221 386.387 380.597C400.399 369.461 415.812 382.686 416.513 397.998C417.073 410.249 400.399 413.311 391.992 413.311C400.633 418.416 414.551 431.408 401.1 442.545C387.648 453.681 372.609 441.153 366.771 433.496C372.142 444.401 376.579 466.767 351.358 468.994C326.136 471.222 324.502 446.257 326.837 433.496C319.13 443.473 301.755 457.44 293.909 433.496Z" fill="#88AF1B"/>
<path d="M320.065 391.572C315.933 396.71 323.939 403.347 328.458 406.023C330.18 407.629 332.59 410.905 328.458 411.162C323.293 411.483 312.963 411.804 314.578 420.474C316.192 429.145 320.065 430.43 328.458 423.686C336.851 416.942 336.529 425.934 338.466 436.531C340.403 447.128 352.992 440.706 356.22 434.925C359.449 429.145 352.992 418.226 351.378 417.263C349.764 416.3 347.182 408.914 344.276 406.023C341.371 403.133 347.182 396.068 338.466 388.682C329.75 381.296 325.23 385.15 320.065 391.572Z" fill="#7DA708"/>
<path d="M311.159 374.908C332.325 363.768 346.126 380.014 350.149 389.297L351.077 390.69C343.706 384.191 324.659 373.98 313.015 383.263C301.371 392.547 314.972 406.627 323.227 412.506C315.182 412.095 299.647 415.047 301.875 430.145C304.103 445.243 321.371 435.507 329.726 428.752C330.499 439.556 336.131 461.088 352.47 460.78C368.809 460.472 369.18 443.013 367.323 434.322C368.251 436.642 369.902 441.957 370.108 443.605C370.572 447.318 372.429 458.459 367.323 462.172C362.218 465.886 357.111 471.919 341.794 468.67C328.078 465.761 324.155 448.247 326.476 434.322C322.763 439.427 313.572 446.854 306.517 446.854C297.698 446.854 289.343 429.68 293.52 417.612C296.862 407.957 309.766 407.4 316.265 408.792L313.015 406.936C303.577 401.057 289.993 386.048 311.159 374.908Z" fill="#597609" fill-opacity="0.7"/>
<path d="M205.329 307.139C187.876 320.135 196.2 330.502 202.544 334.06L207.185 336.845C205.174 334.525 200.78 328.676 199.294 323.849C197.809 319.021 205.793 308.84 209.97 304.354L205.329 307.139Z" fill="#7DA708"/>
<path d="M342.258 310.387C366.395 303.331 359.742 330.346 353.398 344.735C354.171 336.071 354.79 317.72 351.077 313.636C346.435 308.53 336.688 312.707 342.258 310.387Z" fill="#74980F"/>
<path d="M265.206 308.995C258.894 316.05 265.361 324.622 269.384 328.026L274.025 331.739C270.216 326.633 265.719 314.287 278.203 305.746C290.687 297.205 308.779 312.708 316.265 321.528C313.635 313.637 311.809 296.462 325.548 290.892C339.288 285.322 342.413 298.474 342.259 305.746C342.723 303.734 343.651 298.876 343.651 295.534C343.651 291.356 341.794 288.107 339.938 286.251C338.081 284.394 331.118 280.217 318.586 288.107C308.56 294.42 310.695 309.614 313.016 316.422C303.732 298.783 291.664 297.855 286.094 297.855C280.524 297.855 273.097 300.176 265.206 308.995Z" fill="#7DA314"/>
<path d="M302.34 457.53L308.374 449.639L294.449 458.458L293.057 463.564L303.268 480.274L302.34 457.53Z" fill="#855633"/>
<path d="M295.099 542.48C294.356 538.395 296.027 531.185 296.956 528.091C298.813 523.449 300.205 531.34 299.741 537.374C299.277 543.409 300.669 542.48 300.205 549.907C299.741 557.334 296.027 558.262 296.956 553.156C297.884 548.05 296.027 547.586 295.099 542.48Z" fill="#855633"/>
<path d="M287.951 534.582C286.094 540.524 278.204 545.413 274.49 547.115L280.06 460.779C280.679 462.017 283.124 465.235 287.951 468.206C293.985 471.919 293.985 483.988 292.129 486.773C290.272 489.558 292.593 495.592 292.129 503.483C291.665 511.374 296.306 512.302 293.985 517.408C291.665 522.514 290.272 527.156 287.951 534.582Z" fill="#9D5823"/>
<path d="M274.49 541.08L277.739 491.414L279.132 473.775C281.917 477.179 287.58 484.173 287.951 484.915C288.415 485.844 282.381 503.482 282.381 508.124C282.381 512.766 287.023 517.872 286.094 522.049C285.352 525.391 278.049 536.129 274.49 541.08Z" fill="#855633"/>
<path d="M91.168 428.164C71.7427 444.212 62.3267 426.432 60.0469 415.536C58.7402 428.09 51.2016 449.408 31.5019 434.257C11.8022 419.106 23.1676 398.394 31.3127 389.931C22.8266 397.524 3.34077 407.826 -6.71412 388.29C-19.2827 363.87 29.2144 367.425 22.1034 366.451C16.4147 365.672 10.4338 362.75 8.15449 361.386C-7.32943 352.408 -0.645714 333.231 13.354 326.987C24.5538 321.992 33.4933 336.397 36.563 344.224C38.1598 334.316 45.1733 316.614 60.4526 325.07C75.7318 333.527 69.5595 352.102 64.5634 360.333C72.7539 351.351 91.9557 339.054 103.238 361.72C114.521 384.387 91.8771 395.024 79.1447 397.51C91.2464 401.041 110.593 412.117 91.168 428.164Z" fill="#7AA011"/>
<path d="M80.6336 592.466L101.057 598.964L114.982 587.824L110.34 481.993L134.477 449.501V437.433L110.34 466.211L114.982 405.869L88.0603 427.221V466.211H69.4935L61.1384 449.501L55.5684 456.928L69.4935 475.495L88.0603 481.993L80.6336 592.466Z" fill="#B07D56"/>
<path d="M-10.4212 456.568C-18.2679 432.625 1.72236 430.351 12.6983 432.207C1.48893 426.407 -15.6053 411.604 5.69267 398.797C26.9907 385.99 27.7175 390.553 40.2501 397.051C40.2501 382.265 40.5792 382.232 62.1446 380.034L62.4407 380.004C89.7638 377.22 68.746 421.071 72.249 414.806C75.0513 409.795 79.9555 405.294 82.0573 403.67C96.0691 392.533 111.482 405.758 112.183 421.071C112.743 433.321 96.0691 436.384 87.662 436.384C96.3027 441.488 110.221 454.48 96.7697 465.617C83.3183 476.754 68.2789 464.225 62.4407 456.568C67.8119 467.473 72.249 489.839 47.0276 492.067C21.8063 494.294 18.4196 483.615 20.7549 470.854C13.0483 480.831 -2.57461 480.512 -10.4212 456.568Z" fill="#93BA24"/>
<path d="M0.400589 452.748C-6.04068 433.185 10.3692 431.327 19.3793 432.844C10.1776 428.105 -3.85501 416.011 13.6284 405.547C31.1119 395.082 31.7085 398.811 41.9965 404.12C41.9965 392.039 42.2666 392.012 59.9696 390.217L60.2126 390.192C82.642 387.917 65.3886 423.745 68.2642 418.627C70.5646 414.532 74.5904 410.855 76.3158 409.528C87.818 400.429 100.471 411.234 101.046 423.745C101.506 433.754 87.818 436.256 80.9167 436.256C88.0098 440.427 99.4353 451.043 88.3932 460.142C77.351 469.241 65.0052 459.004 60.2126 452.748C64.6218 461.658 68.2642 479.932 47.5601 481.752C26.856 483.572 24.0759 474.847 25.993 464.421C19.6666 472.572 6.84186 472.311 0.400589 452.748Z" fill="#6C8917"/>
<path d="M64.7741 384.156C56.9274 360.212 76.9177 357.939 87.8936 359.795C76.6842 353.995 59.59 339.192 80.888 326.385C102.186 313.578 117.319 331.721 122.223 342.394C118.253 331.722 115.777 309.82 137.636 307.592C164.959 304.808 143.941 348.659 147.444 342.394C150.247 337.383 155.151 332.882 157.253 331.258C171.264 320.121 186.677 333.346 187.378 348.659C187.939 360.909 171.264 363.971 162.857 363.971C171.498 369.076 185.416 382.068 171.965 393.205C158.514 404.342 143.474 391.813 137.636 384.156C143.007 395.061 147.444 417.427 122.223 419.654C97.0016 421.882 95.3669 396.917 97.7022 384.156C89.9956 394.133 72.6207 408.1 64.7741 384.156Z" fill="#93BA24"/>
<path d="M73.3288 416.239C64.6038 389.525 86.8317 386.988 99.0363 389.059C86.5722 382.587 67.5644 366.072 91.2465 351.783C114.929 337.494 131.755 357.737 137.209 369.645C132.794 357.737 130.042 333.301 154.347 330.816C184.729 327.71 161.358 376.634 165.253 369.645C168.369 364.053 173.822 359.031 176.159 357.219C191.74 344.794 208.878 359.549 209.657 376.634C210.28 390.301 191.74 393.718 182.392 393.718C191.999 399.413 207.476 413.909 192.519 426.334C177.562 438.759 160.839 424.781 154.347 416.239C160.319 428.405 165.253 453.359 137.209 455.844C109.164 458.329 107.346 430.476 109.943 416.239C101.374 427.369 82.0538 442.953 73.3288 416.239Z" fill="#83A61E"/>
<path d="M101.909 457.496C94.0622 433.552 114.052 431.279 125.028 433.135C113.819 427.334 96.7247 412.532 118.023 399.725C139.321 386.918 154.454 405.061 159.358 415.734C155.388 405.061 152.912 383.159 174.771 380.932C202.094 378.148 181.076 421.998 184.579 415.734C187.381 410.722 192.286 406.221 194.387 404.597C208.399 393.461 223.812 406.686 224.513 421.998C225.073 434.249 208.399 437.311 199.992 437.311C208.633 442.416 222.551 455.408 209.1 466.545C195.648 477.681 180.609 465.153 174.771 457.496C180.142 468.401 184.579 490.767 159.358 492.994C134.136 495.222 132.502 470.257 134.837 457.496C127.13 467.473 109.755 481.44 101.909 457.496Z" fill="#A3CF2A"/>
<path d="M128.065 415.572C123.933 420.71 131.939 427.347 136.458 430.023C138.18 431.629 140.59 434.905 136.458 435.162C131.293 435.483 120.963 435.804 122.578 444.474C124.192 453.145 128.065 454.43 136.458 447.686C144.851 440.942 144.529 449.934 146.466 460.531C148.403 471.128 160.992 464.706 164.22 458.925C167.449 453.145 160.992 442.226 159.378 441.263C157.764 440.3 155.182 432.914 152.276 430.023C149.371 427.133 155.182 420.068 146.466 412.682C137.75 405.296 133.23 409.15 128.065 415.572Z" fill="#7DA708"/>
<path d="M119.159 398.908C140.325 387.768 154.126 404.014 158.149 413.297L159.077 414.69C151.706 408.191 132.659 397.98 121.015 407.263C109.371 416.547 122.972 430.627 131.227 436.506C123.182 436.095 107.647 439.047 109.875 454.145C112.103 469.243 129.371 459.507 137.726 452.752C138.499 463.556 144.131 485.088 160.47 484.78C176.809 484.472 177.18 467.013 175.323 458.322C176.251 460.642 177.902 465.957 178.108 467.605C178.572 471.318 180.429 482.459 175.323 486.172C170.218 489.886 165.111 495.919 149.794 492.67C136.078 489.761 132.155 472.247 134.476 458.322C130.763 463.427 121.572 470.854 114.517 470.854C105.698 470.854 97.3429 453.68 101.52 441.612C104.862 431.957 117.766 431.4 124.265 432.792L121.015 430.936C111.577 425.057 97.9926 410.048 119.159 398.908Z" fill="#597609" fill-opacity="0.7"/>
<path d="M13.3286 331.139C-4.12424 344.135 4.19988 354.502 10.5435 358.06L15.1852 360.845C13.1738 358.525 8.77966 352.676 7.29432 347.849C5.80897 343.021 13.7927 332.84 17.9702 328.354L13.3286 331.139Z" fill="#93BA24"/>
<path d="M150.258 334.387C174.395 327.331 167.742 354.346 161.398 368.735C162.171 360.071 162.79 341.72 159.077 337.636C154.435 332.53 144.688 336.707 150.258 334.387Z" fill="#74980F"/>
<path d="M73.2063 332.995C66.8936 340.05 73.3611 348.622 77.3839 352.026L82.0255 355.739C78.2165 350.633 73.7193 338.287 86.203 329.746C98.6867 321.205 116.779 336.708 124.265 345.528C121.635 337.637 119.809 320.462 133.548 314.892C147.288 309.322 150.413 322.474 150.259 329.746C150.723 327.734 151.651 322.876 151.651 319.534C151.651 315.356 149.794 312.107 147.938 310.251C146.081 308.394 139.118 304.217 126.586 312.107C116.56 318.42 118.695 333.614 121.016 340.422C111.732 322.783 99.664 321.855 94.0939 321.855C88.5239 321.855 81.0972 324.176 73.2063 332.995Z" fill="#7DA314"/>
<path d="M110.34 481.53L116.374 473.639L102.449 482.458L101.057 487.564L111.268 504.274L110.34 481.53Z" fill="#855633"/>
<path d="M103.099 566.48C102.356 562.395 104.027 555.185 104.956 552.091C106.813 547.449 108.205 555.34 107.741 561.374C107.277 567.409 108.669 566.48 108.205 573.907C107.741 581.334 104.027 582.262 104.956 577.156C105.884 572.05 104.027 571.586 103.099 566.48Z" fill="#855633"/>
<path d="M95.9512 558.582C94.0945 564.524 86.2036 569.413 82.4902 571.115L88.0603 484.779C88.6792 486.017 91.1238 489.235 95.9512 492.206C101.985 495.919 101.985 507.988 100.129 510.773C98.272 513.558 100.593 519.592 100.129 527.483C99.6645 535.374 104.306 536.302 101.985 541.408C99.6645 546.514 98.272 551.156 95.9512 558.582Z" fill="#9D5823"/>
<path d="M82.4902 565.08L85.7394 515.414L87.1319 497.775C89.917 501.179 95.5798 508.173 95.9512 508.915C96.4153 509.844 90.3811 527.482 90.3811 532.124C90.3811 536.766 95.0228 541.872 94.0945 546.049C93.3518 549.391 86.0489 560.129 82.4902 565.08Z" fill="#855633"/>
<path d="M227.168 482.164C207.743 498.212 198.327 480.432 196.047 469.536C194.74 482.09 187.202 503.408 167.502 488.257C147.802 473.106 159.168 452.394 167.313 443.931C158.827 451.524 139.341 461.826 129.286 442.29C116.717 417.87 165.214 421.425 158.103 420.451C152.415 419.672 146.434 416.75 144.154 415.386C128.671 406.408 135.354 387.231 149.354 380.987C160.554 375.992 169.493 390.397 172.563 398.224C174.16 388.316 181.173 370.614 196.453 379.07C211.732 387.527 205.559 406.102 200.563 414.333C208.754 405.351 227.956 393.054 239.238 415.72C250.521 438.387 227.877 449.024 215.145 451.51C227.246 455.041 246.593 466.117 227.168 482.164Z" fill="#86B30B"/>
<path d="M216.634 646.466L237.057 652.964L250.982 641.824L246.34 535.993L270.477 503.501V491.433L246.34 520.211L250.982 459.869L224.06 481.221V520.211H205.493L197.138 503.501L191.568 510.928L205.493 529.495L224.06 535.993L216.634 646.466Z" fill="#B07D56"/>
<path d="M125.579 510.568C117.732 486.625 137.722 484.351 148.698 486.207C137.489 480.407 120.395 465.604 141.693 452.797C162.991 439.99 163.717 444.553 176.25 451.051C176.25 436.265 176.579 436.232 198.145 434.034L198.441 434.004C225.764 431.22 204.746 475.071 208.249 468.806C211.051 463.795 215.955 459.294 218.057 457.67C232.069 446.533 247.482 459.758 248.183 475.071C248.743 487.321 232.069 490.384 223.662 490.384C232.303 495.488 246.221 508.48 232.77 519.617C219.318 530.754 204.279 518.225 198.441 510.568C203.812 521.473 208.249 543.839 183.028 546.067C157.806 548.294 154.42 537.615 156.755 524.854C149.048 534.831 133.425 534.512 125.579 510.568Z" fill="#6B8818"/>
<path d="M136.401 506.748C129.959 487.185 146.369 485.327 155.379 486.844C146.178 482.105 132.145 470.011 149.628 459.547C167.112 449.082 167.709 452.811 177.996 458.12C177.996 446.039 178.267 446.012 195.97 444.217L196.213 444.192C218.642 441.917 201.389 477.745 204.264 472.627C206.565 468.532 210.59 464.855 212.316 463.528C223.818 454.429 236.471 465.234 237.046 477.745C237.506 487.754 223.818 490.256 216.917 490.256C224.01 494.427 235.435 505.043 224.393 514.142C213.351 523.241 201.005 513.004 196.213 506.748C200.622 515.658 204.264 533.932 183.56 535.752C162.856 537.572 160.076 528.847 161.993 518.421C155.667 526.572 142.842 526.311 136.401 506.748Z" fill="#7DA314"/>
<path d="M200.774 438.156C192.927 414.212 212.918 411.939 223.894 413.795C212.684 407.995 195.59 393.192 216.888 380.385C238.186 367.578 253.319 385.721 258.223 396.394C254.253 385.722 251.777 363.82 273.636 361.592C300.959 358.808 279.941 402.659 283.444 396.394C286.247 391.383 291.151 386.882 293.253 385.258C307.264 374.121 322.677 387.346 323.378 402.659C323.939 414.909 307.264 417.971 298.857 417.971C307.498 423.076 321.416 436.068 307.965 447.205C294.514 458.342 279.474 445.813 273.636 438.156C279.007 449.061 283.444 471.427 258.223 473.654C233.002 475.882 231.367 450.917 233.702 438.156C225.996 448.133 208.621 462.1 200.774 438.156Z" fill="#93BA24"/>
<path d="M209.329 470.239C200.604 443.525 222.832 440.988 235.036 443.059C222.572 436.587 203.564 420.072 227.246 405.783C250.929 391.494 267.755 411.737 273.209 423.645C268.794 411.737 266.042 387.301 290.347 384.816C320.729 381.71 297.358 430.634 301.253 423.645C304.369 418.053 309.822 413.031 312.159 411.219C327.74 398.794 344.878 413.549 345.657 430.634C346.28 444.301 327.74 447.718 318.392 447.718C327.999 453.413 343.476 467.909 328.519 480.334C313.562 492.759 296.839 478.781 290.347 470.239C296.319 482.405 301.253 507.359 273.209 509.844C245.164 512.329 243.346 484.476 245.943 470.239C237.374 481.369 218.054 496.953 209.329 470.239Z" fill="#6A8812"/>
<path d="M237.909 511.496C230.062 487.552 250.052 485.279 261.028 487.135C249.819 481.334 232.725 466.532 254.023 453.725C275.321 440.918 290.454 459.061 295.358 469.734C291.388 459.061 288.912 437.159 310.771 434.932C338.094 432.148 317.076 475.998 320.579 469.734C323.381 464.722 328.286 460.221 330.387 458.597C344.399 447.461 359.812 460.686 360.513 475.998C361.073 488.249 344.399 491.311 335.992 491.311C344.633 496.416 358.551 509.408 345.1 520.545C331.648 531.681 316.609 519.153 310.771 511.496C316.142 522.401 320.579 544.767 295.358 546.994C270.136 549.222 268.502 524.257 270.837 511.496C263.13 521.473 245.755 535.44 237.909 511.496Z" fill="#709608"/>
<path d="M264.065 469.572C259.933 474.71 267.939 481.347 272.458 484.023C274.18 485.629 276.59 488.905 272.458 489.162C267.293 489.483 256.963 489.804 258.578 498.474C260.192 507.145 264.065 508.43 272.458 501.686C280.851 494.942 280.529 503.934 282.466 514.531C284.403 525.128 296.992 518.706 300.22 512.925C303.449 507.145 296.992 496.226 295.378 495.263C293.764 494.3 291.182 486.914 288.276 484.023C285.371 481.133 291.182 474.068 282.466 466.682C273.75 459.296 269.23 463.15 264.065 469.572Z" fill="#7DA708"/>
<path d="M255.159 452.908C276.325 441.768 290.126 458.014 294.149 467.297L295.077 468.69C287.706 462.191 268.659 451.98 257.015 461.263C245.371 470.547 258.972 484.627 267.227 490.506C259.182 490.095 243.647 493.047 245.875 508.145C248.103 523.243 265.371 513.507 273.726 506.752C274.499 517.556 280.131 539.088 296.47 538.78C312.809 538.472 313.18 521.013 311.323 512.322C312.251 514.642 313.902 519.957 314.108 521.605C314.572 525.318 316.429 536.459 311.323 540.172C306.218 543.886 301.111 549.919 285.794 546.67C272.078 543.761 268.155 526.247 270.476 512.322C266.763 517.427 257.572 524.854 250.517 524.854C241.698 524.854 233.343 507.68 237.52 495.612C240.862 485.957 253.766 485.4 260.265 486.792L257.015 484.936C247.577 479.057 233.993 464.048 255.159 452.908Z" fill="#597609" fill-opacity="0.7"/>
<path d="M149.329 385.139C131.876 398.135 140.2 408.502 146.544 412.06L151.185 414.845C149.174 412.525 144.78 406.676 143.294 401.849C141.809 397.021 149.793 386.84 153.97 382.354L149.329 385.139Z" fill="#ABDE1F"/>
<path d="M286.258 388.387C310.395 381.331 303.742 408.346 297.398 422.735C298.171 414.071 298.79 395.72 295.077 391.636C290.435 386.53 280.688 390.707 286.258 388.387Z" fill="#74980F"/>
<path d="M209.206 386.995C202.894 394.05 209.361 402.622 213.384 406.026L218.025 409.739C214.216 404.633 209.719 392.287 222.203 383.746C234.687 375.205 252.779 390.708 260.265 399.528C257.635 391.637 255.809 374.462 269.548 368.892C283.288 363.322 286.413 376.474 286.259 383.746C286.723 381.734 287.651 376.876 287.651 373.534C287.651 369.356 285.794 366.107 283.938 364.251C282.081 362.394 275.118 358.217 262.586 366.107C252.56 372.42 254.695 387.614 257.016 394.422C247.732 376.783 235.664 375.855 230.094 375.855C224.524 375.855 217.097 378.176 209.206 386.995Z" fill="#7DA314"/>
<path d="M246.34 535.53L252.374 527.639L238.449 536.458L237.057 541.564L247.268 558.274L246.34 535.53Z" fill="#855633"/>
<path d="M239.099 620.48C238.356 616.395 240.027 609.185 240.956 606.091C242.813 601.449 244.205 609.34 243.741 615.374C243.277 621.409 244.669 620.48 244.205 627.907C243.741 635.334 240.027 636.262 240.956 631.156C241.884 626.05 240.027 625.586 239.099 620.48Z" fill="#855633"/>
<path d="M231.951 612.582C230.094 618.524 222.204 623.413 218.49 625.115L224.06 538.779C224.679 540.017 227.124 543.235 231.951 546.206C237.985 549.919 237.985 561.988 236.129 564.773C234.272 567.558 236.593 573.592 236.129 581.483C235.665 589.374 240.306 590.302 237.985 595.408C235.665 600.514 234.272 605.156 231.951 612.582Z" fill="#9D5823"/>
<path d="M218.49 619.08L221.739 569.414L223.132 551.775C225.917 555.179 231.58 562.173 231.951 562.915C232.415 563.844 226.381 581.482 226.381 586.124C226.381 590.766 231.023 595.872 230.094 600.049C229.352 603.391 222.049 614.129 218.49 619.08Z" fill="#855633"/>
</g>
<defs>
<linearGradient id="paint0_linear" x1="576" y1="-91" x2="576" y2="699" gradientUnits="userSpaceOnUse">
<stop offset="0.0240506" stop-color="#EF996A"/>
<stop offset="0.287342" stop-color="#EEC179"/>
<stop offset="0.695279" stop-color="#F9E877"/>
</linearGradient>
<clipPath id="clip0">
<rect width="1152" height="700" fill="white"/>
</clipPath>
</defs>
</svg>
