<svg width="66" height="82" viewBox="0 0 66 82" fill="none" xmlns="http://www.w3.org/2000/svg">
<rect width="66" height="82" rx="3" fill="#E3AF2A"/>
<path d="M34.5743 59.9226C33.9015 59.9226 33.2566 59.5701 32.9022 58.9606L31.0806 55.8273L27.6787 54.5777C26.802 54.2555 26.2808 53.3529 26.4403 52.4326L27.059 48.8615L25.2563 45.7174C24.7917 44.9071 24.9727 43.8805 25.6864 43.2781L28.4558 40.9403L29.0957 37.3731C29.2606 36.4537 30.0592 35.7837 30.9932 35.7808L34.6174 35.7701L37.4007 33.4488C38.1179 32.8504 39.1602 32.8504 39.8776 33.4488L42.6609 35.7701L46.285 35.7808C47.2191 35.7835 48.0175 36.4536 48.1825 37.373L48.8225 40.9403L51.5918 43.2781C52.3056 43.8807 52.4865 44.9071 52.022 45.7174L50.2192 48.8616L50.838 52.4326C50.9974 53.3528 50.4763 54.2557 49.5996 54.5777L46.1975 55.8274L44.376 58.9606C43.9067 59.7682 42.927 60.1249 42.0485 59.8078L38.6389 58.5784L35.2297 59.8078C35.0143 59.8854 34.7928 59.9226 34.5743 59.9226Z" fill="#FF8856"/>
<path d="M38.6387 52.2617C35.4401 52.2617 32.8379 49.6595 32.8379 46.4609C32.8379 43.2624 35.4401 40.6602 38.6387 40.6602C41.8372 40.6602 44.4395 43.2624 44.4395 46.4609C44.4396 49.6595 41.8374 52.2617 38.6387 52.2617Z" fill="#FFCD00"/>
<path d="M1.93359 80.7106C1.59973 80.7106 1.26573 80.6243 0.966668 80.4515C0.368543 80.1061 0 79.4678 0 78.777V44.3789C0 43.8366 0.227777 43.3193 0.627645 42.953C1.02764 42.5867 1.56312 42.4055 2.10311 42.4527C9.56085 43.1088 16.788 44.5009 23.5842 46.5903C30.1434 48.6069 36.3366 51.2828 41.9917 54.5434C42.5904 54.8886 42.9593 55.5271 42.9594 56.2182C42.9596 56.9092 42.5909 57.5479 41.9922 57.8932L2.9 80.4518C2.60107 80.6244 2.26733 80.7106 1.93359 80.7106Z" fill="#037108"/>
<path d="M1.93359 81.9997C1.4208 81.9997 0.929026 81.7959 0.566413 81.4333C0.2038 81.0707 0 80.5789 0 80.0661V77.8362C0 77.3615 0.174539 76.9034 0.490487 76.5492C7.03015 69.2164 16.2415 63.0144 27.1287 58.614C38.2482 54.1195 51.0038 51.5676 64.0168 51.2341C64.5374 51.22 65.0426 51.4184 65.4159 51.7823C65.7892 52.1462 65.9999 52.6456 65.9999 53.167V80.0655C65.9999 81.1333 65.1341 81.9991 64.0663 81.9991L1.93359 81.9997Z" fill="#12941F"/>
</svg>
