<svg width="66" height="82" viewBox="0 0 66 82" fill="none" xmlns="http://www.w3.org/2000/svg">
<rect width="66" height="82" rx="3" fill="#38038D"/>
<path d="M36.6699 30.3398C30.2351 30.3398 25 25.1047 25 18.6699C25 12.2351 30.2351 7 36.6699 7C43.1047 7 48.3398 12.2351 48.3398 18.6699C48.3401 25.1047 43.105 30.3398 36.6699 30.3398Z" fill="#FAF5E3"/>
<path d="M28.3613 24C27.6279 24 27.0312 23.4033 27.0312 22.6699C27.0312 21.9365 27.6279 21.3398 28.3613 21.3398C29.0947 21.3398 29.6914 21.9365 29.6914 22.6699C29.6914 23.4033 29.0948 24 28.3613 24Z" fill="#D2D2D1"/>
<path d="M37.8613 30C36.8522 30 36.0312 29.179 36.0312 28.1699C36.0312 27.1608 36.8522 26.3398 37.8613 26.3398C38.8704 26.3398 39.6914 27.1608 39.6914 28.1699C39.6914 29.179 38.8705 30 37.8613 30Z" fill="#D2D2D1"/>
<path d="M30.5312 24.3398C30.2556 24.3398 30.0312 24.1155 30.0312 23.8398C30.0312 23.5641 30.2556 23.3398 30.5312 23.3398C30.807 23.3398 31.0312 23.5641 31.0312 23.8398C31.0313 24.1155 30.807 24.3398 30.5312 24.3398Z" fill="#D2D2D1"/>
<path d="M46.5312 16.3398C46.2556 16.3398 46.0312 16.1155 46.0312 15.8398C46.0312 15.5641 46.2556 15.3398 46.5312 15.3398C46.807 15.3398 47.0312 15.5641 47.0312 15.8398C47.0313 16.1155 46.807 16.3398 46.5312 16.3398Z" fill="#D2D2D1"/>
<path d="M26.5312 19.3398C26.2556 19.3398 26.0312 19.1155 26.0312 18.8398C26.0312 18.5641 26.2556 18.3398 26.5312 18.3398C26.807 18.3398 27.0312 18.5641 27.0312 18.8398C27.0313 19.1155 26.807 19.3398 26.5312 19.3398Z" fill="#D2D2D1"/>
<path d="M33.5312 29.3398C33.2556 29.3398 33.0312 29.1155 33.0312 28.8398C33.0312 28.5641 33.2556 28.3398 33.5312 28.3398C33.807 28.3398 34.0312 28.5641 34.0312 28.8398C34.0313 29.1155 33.807 29.3398 33.5312 29.3398Z" fill="#D2D2D1"/>
<path d="M46.0312 19.3398C45.4799 19.3398 45.0312 18.8912 45.0312 18.3398C45.0312 17.7884 45.4799 17.3398 46.0312 17.3398C46.5827 17.3398 47.0312 17.7884 47.0312 18.3398C47.0313 18.8912 46.5827 19.3398 46.0312 19.3398Z" fill="#D2D2D1"/>
<path d="M28.5312 16.3398C28.2556 16.3398 28.0312 16.1155 28.0312 15.8398C28.0312 15.5641 28.2556 15.3398 28.5312 15.3398C28.807 15.3398 29.0312 15.5641 29.0312 15.8398C29.0313 16.1155 28.807 16.3398 28.5312 16.3398Z" fill="#D2D2D1"/>
<path d="M47.5312 20.3398C47.2556 20.3398 47.0312 20.1155 47.0312 19.8398C47.0312 19.5641 47.2556 19.3398 47.5312 19.3398C47.807 19.3398 48.0312 19.5641 48.0312 19.8398C48.0313 20.1155 47.807 20.3398 47.5312 20.3398Z" fill="#D2D2D1"/>
<path d="M44.5312 17.3398C44.2556 17.3398 44.0312 17.1155 44.0312 16.8398C44.0312 16.5641 44.2556 16.3398 44.5312 16.3398C44.807 16.3398 45.0312 16.5641 45.0312 16.8398C45.0313 17.1155 44.807 17.3398 44.5312 17.3398Z" fill="#D2D2D1"/>
<path d="M34.0312 27.3398C33.4799 27.3398 33.0312 26.8912 33.0312 26.3398C33.0312 25.7884 33.4799 25.3398 34.0312 25.3398C34.5827 25.3398 35.0312 25.7884 35.0312 26.3398C35.0313 26.8912 34.5827 27.3398 34.0312 27.3398Z" fill="#D2D2D1"/>
<path d="M30.0312 27.3398C29.4799 27.3398 29.0312 26.8912 29.0312 26.3398C29.0312 25.7884 29.4799 25.3398 30.0312 25.3398C30.5827 25.3398 31.0312 25.7884 31.0312 26.3398C31.0313 26.8912 30.5827 27.3398 30.0312 27.3398Z" fill="#D2D2D1"/>
<path d="M1.93359 80.7106C1.59973 80.7106 1.26573 80.6243 0.966668 80.4515C0.368543 80.1061 0 79.4678 0 78.777V44.3789C0 43.8366 0.227777 43.3193 0.627645 42.953C1.02764 42.5867 1.56312 42.4055 2.10311 42.4527C9.56085 43.1088 16.788 44.5009 23.5842 46.5903C30.1434 48.6069 36.3366 51.2828 41.9917 54.5434C42.5904 54.8886 42.9593 55.5271 42.9594 56.2182C42.9596 56.9092 42.5909 57.5479 41.9922 57.8932L2.9 80.4518C2.60107 80.6244 2.26733 80.7106 1.93359 80.7106Z" fill="#043406"/>
<path d="M1.93359 81.9997C1.4208 81.9997 0.929026 81.7959 0.566413 81.4333C0.2038 81.0707 0 80.5789 0 80.0661V77.8362C0 77.3615 0.174539 76.9034 0.490487 76.5492C7.03015 69.2164 16.2415 63.0144 27.1287 58.614C38.2482 54.1195 51.0038 51.5676 64.0168 51.2341C64.5374 51.22 65.0426 51.4184 65.4159 51.7823C65.7892 52.1462 65.9999 52.6456 65.9999 53.167V80.0655C65.9999 81.1333 65.1341 81.9991 64.0663 81.9991L1.93359 81.9997Z" fill="#254A07"/>
<g filter="url(#filter0_f)">
<circle cx="10.5" cy="8.5" r="0.5" fill="white"/>
</g>
<g filter="url(#filter1_f)">
<circle cx="21.5" cy="25.5" r="0.5" fill="white"/>
</g>
<g filter="url(#filter2_f)">
<circle cx="30.5" cy="2.5" r="0.5" fill="white"/>
</g>
<g filter="url(#filter3_f)">
<circle cx="59.5" cy="15.5" r="0.5" fill="white"/>
</g>
<g filter="url(#filter4_f)">
<circle cx="46.5" cy="4.5" r="0.5" fill="white"/>
</g>
<g filter="url(#filter5_f)">
<circle cx="4.5" cy="36.5" r="0.5" fill="white"/>
</g>
<g filter="url(#filter6_f)">
<circle cx="41.5" cy="49.5" r="0.5" fill="white"/>
</g>
<g filter="url(#filter7_f)">
<circle cx="42.5" cy="34.5" r="0.5" fill="white"/>
</g>
<g filter="url(#filter8_f)">
<circle cx="55.5" cy="43.5" r="0.5" fill="white"/>
</g>
<g filter="url(#filter9_f)">
<circle cx="22.5" cy="42.5" r="0.5" fill="white"/>
</g>
<g filter="url(#filter10_f)">
<circle cx="59.5" cy="30.5" r="0.5" fill="white"/>
</g>
<defs>
<filter id="filter0_f" x="9" y="7" width="3" height="3" filterUnits="userSpaceOnUse" color-interpolation-filters="sRGB">
<feFlood flood-opacity="0" result="BackgroundImageFix"/>
<feBlend mode="normal" in="SourceGraphic" in2="BackgroundImageFix" result="shape"/>
<feGaussianBlur stdDeviation="0.5" result="effect1_foregroundBlur"/>
</filter>
<filter id="filter1_f" x="20" y="24" width="3" height="3" filterUnits="userSpaceOnUse" color-interpolation-filters="sRGB">
<feFlood flood-opacity="0" result="BackgroundImageFix"/>
<feBlend mode="normal" in="SourceGraphic" in2="BackgroundImageFix" result="shape"/>
<feGaussianBlur stdDeviation="0.5" result="effect1_foregroundBlur"/>
</filter>
<filter id="filter2_f" x="29" y="1" width="3" height="3" filterUnits="userSpaceOnUse" color-interpolation-filters="sRGB">
<feFlood flood-opacity="0" result="BackgroundImageFix"/>
<feBlend mode="normal" in="SourceGraphic" in2="BackgroundImageFix" result="shape"/>
<feGaussianBlur stdDeviation="0.5" result="effect1_foregroundBlur"/>
</filter>
<filter id="filter3_f" x="58" y="14" width="3" height="3" filterUnits="userSpaceOnUse" color-interpolation-filters="sRGB">
<feFlood flood-opacity="0" result="BackgroundImageFix"/>
<feBlend mode="normal" in="SourceGraphic" in2="BackgroundImageFix" result="shape"/>
<feGaussianBlur stdDeviation="0.5" result="effect1_foregroundBlur"/>
</filter>
<filter id="filter4_f" x="45" y="3" width="3" height="3" filterUnits="userSpaceOnUse" color-interpolation-filters="sRGB">
<feFlood flood-opacity="0" result="BackgroundImageFix"/>
<feBlend mode="normal" in="SourceGraphic" in2="BackgroundImageFix" result="shape"/>
<feGaussianBlur stdDeviation="0.5" result="effect1_foregroundBlur"/>
</filter>
<filter id="filter5_f" x="3" y="35" width="3" height="3" filterUnits="userSpaceOnUse" color-interpolation-filters="sRGB">
<feFlood flood-opacity="0" result="BackgroundImageFix"/>
<feBlend mode="normal" in="SourceGraphic" in2="BackgroundImageFix" result="shape"/>
<feGaussianBlur stdDeviation="0.5" result="effect1_foregroundBlur"/>
</filter>
<filter id="filter6_f" x="40" y="48" width="3" height="3" filterUnits="userSpaceOnUse" color-interpolation-filters="sRGB">
<feFlood flood-opacity="0" result="BackgroundImageFix"/>
<feBlend mode="normal" in="SourceGraphic" in2="BackgroundImageFix" result="shape"/>
<feGaussianBlur stdDeviation="0.5" result="effect1_foregroundBlur"/>
</filter>
<filter id="filter7_f" x="41" y="33" width="3" height="3" filterUnits="userSpaceOnUse" color-interpolation-filters="sRGB">
<feFlood flood-opacity="0" result="BackgroundImageFix"/>
<feBlend mode="normal" in="SourceGraphic" in2="BackgroundImageFix" result="shape"/>
<feGaussianBlur stdDeviation="0.5" result="effect1_foregroundBlur"/>
</filter>
<filter id="filter8_f" x="54" y="42" width="3" height="3" filterUnits="userSpaceOnUse" color-interpolation-filters="sRGB">
<feFlood flood-opacity="0" result="BackgroundImageFix"/>
<feBlend mode="normal" in="SourceGraphic" in2="BackgroundImageFix" result="shape"/>
<feGaussianBlur stdDeviation="0.5" result="effect1_foregroundBlur"/>
</filter>
<filter id="filter9_f" x="21" y="41" width="3" height="3" filterUnits="userSpaceOnUse" color-interpolation-filters="sRGB">
<feFlood flood-opacity="0" result="BackgroundImageFix"/>
<feBlend mode="normal" in="SourceGraphic" in2="BackgroundImageFix" result="shape"/>
<feGaussianBlur stdDeviation="0.5" result="effect1_foregroundBlur"/>
</filter>
<filter id="filter10_f" x="58" y="29" width="3" height="3" filterUnits="userSpaceOnUse" color-interpolation-filters="sRGB">
<feFlood flood-opacity="0" result="BackgroundImageFix"/>
<feBlend mode="normal" in="SourceGraphic" in2="BackgroundImageFix" result="shape"/>
<feGaussianBlur stdDeviation="0.5" result="effect1_foregroundBlur"/>
</filter>
</defs>
</svg>
