<svg width="66" height="82" viewBox="0 0 66 82" fill="none" xmlns="http://www.w3.org/2000/svg">
<rect width="66" height="82" rx="3" fill="#2BD6E1"/>
<path d="M1.93359 80.7106C1.59973 80.7106 1.26573 80.6243 0.966668 80.4515C0.368543 80.1061 0 79.4678 0 78.777V44.3789C0 43.8366 0.227777 43.3193 0.627645 42.953C1.02764 42.5867 1.56312 42.4055 2.10311 42.4527C9.56085 43.1088 16.788 44.5009 23.5842 46.5903C30.1434 48.6069 36.3366 51.2828 41.9917 54.5434C42.5904 54.8886 42.9593 55.5271 42.9594 56.2182C42.9596 56.9092 42.5909 57.5479 41.9922 57.8932L2.9 80.4518C2.60107 80.6244 2.26733 80.7106 1.93359 80.7106Z" fill="#00CB75"/>
<path d="M1.93359 80.7106C1.59973 80.7106 1.26573 80.6243 0.966668 80.4515C0.368543 80.1061 0 79.4678 0 78.777V44.3789C0 43.8366 0.227777 43.3193 0.627645 42.953C1.02764 42.5867 1.56312 42.4055 2.10311 42.4527C9.56085 43.1088 16.788 44.5009 23.5842 46.5903C30.1434 48.6069 36.3366 51.2828 41.9917 54.5434C42.5904 54.8886 42.9593 55.5271 42.9594 56.2182C42.9596 56.9092 42.5909 57.5479 41.9922 57.8932L2.9 80.4518C2.60107 80.6244 2.26733 80.7106 1.93359 80.7106Z" fill="#119B30"/>
<path d="M34.5743 42.9226C33.9015 42.9226 33.2566 42.5701 32.9022 41.9606L31.0806 38.8273L27.6787 37.5777C26.802 37.2555 26.2808 36.3529 26.4403 35.4326L27.059 31.8615L25.2563 28.7174C24.7917 27.9071 24.9727 26.8805 25.6864 26.2781L28.4558 23.9403L29.0957 20.3731C29.2606 19.4537 30.0592 18.7837 30.9932 18.7808L34.6174 18.7701L37.4007 16.4488C38.1179 15.8504 39.1602 15.8504 39.8776 16.4488L42.6609 18.7701L46.285 18.7808C47.2191 18.7835 48.0175 19.4536 48.1825 20.373L48.8225 23.9403L51.5918 26.2781C52.3056 26.8807 52.4865 27.9071 52.022 28.7174L50.2192 31.8616L50.838 35.4326C50.9974 36.3528 50.4763 37.2557 49.5996 37.5777L46.1975 38.8274L44.376 41.9606C43.9067 42.7682 42.927 43.1249 42.0485 42.8078L38.6389 41.5784L35.2297 42.8078C35.0143 42.8854 34.7928 42.9226 34.5743 42.9226Z" fill="#FF8856"/>
<path d="M38.6387 35.2617C35.4401 35.2617 32.8379 32.6595 32.8379 29.4609C32.8379 26.2624 35.4401 23.6602 38.6387 23.6602C41.8372 23.6602 44.4395 26.2624 44.4395 29.4609C44.4396 32.6595 41.8374 35.2617 38.6387 35.2617Z" fill="#FFCD00"/>
<path d="M1.93359 81.9997C1.4208 81.9997 0.929026 81.7959 0.566413 81.4333C0.2038 81.0707 0 80.5789 0 80.0661V77.8362C0 77.3615 0.174539 76.9034 0.490487 76.5492C7.03015 69.2164 16.2415 63.0144 27.1287 58.614C38.2482 54.1195 51.0038 51.5676 64.0168 51.2341C64.5374 51.22 65.0426 51.4184 65.4159 51.7823C65.7892 52.1462 65.9999 52.6456 65.9999 53.167V80.0655C65.9999 81.1333 65.1341 81.9991 64.0663 81.9991L1.93359 81.9997Z" fill="#BEE75E"/>
<path d="M1.93359 81.9997C1.4208 81.9997 0.929026 81.7959 0.566413 81.4333C0.2038 81.0707 0 80.5789 0 80.0661V77.8362C0 77.3615 0.174539 76.9034 0.490487 76.5492C7.03015 69.2164 16.2415 63.0144 27.1287 58.614C38.2482 54.1195 51.0038 51.5676 64.0168 51.2341C64.5374 51.22 65.0426 51.4184 65.4159 51.7823C65.7892 52.1462 65.9999 52.6456 65.9999 53.167V80.0655C65.9999 81.1333 65.1341 81.9991 64.0663 81.9991L1.93359 81.9997Z" fill="#10BB21"/>
</svg>
