<svg width="1152" height="700" viewBox="0 0 1152 700" fill="none" xmlns="http://www.w3.org/2000/svg">
<g clip-path="url(#clip0)">
<rect width="1152" height="700" fill="white"/>
<rect width="1152" height="699" fill="#F69463"/>
<rect width="1152" height="699" fill="url(#paint0_linear)"/>
<rect width="1152" height="699" fill="#949494" fill-opacity="0.3"/>
<path d="M123.96 329.784C113.253 346.867 33.5256 410.454 -5 440.113V554H2.2996H1197V405.708C1192.13 405.708 1176.32 403.573 1151.99 395.031C1121.57 384.354 1106.97 363 1087.51 351.137C1068.04 339.274 931.781 440.113 898.933 419.944C866.085 399.776 824.721 398.59 804.039 405.708C783.356 412.826 717.66 387.913 704.277 383.168C690.895 378.423 664.13 351.137 643.447 351.137C622.765 351.137 621.549 323.852 603.3 317.92C585.051 311.987 533.953 345.205 479.206 373.677C424.46 402.149 404.994 381.982 372.146 373.677C339.298 365.373 304.016 342.833 294.283 351.137C284.551 359.441 266.302 370.118 259.002 363C251.702 355.882 228.587 346.392 205.472 323.852C182.356 301.312 137.342 308.43 123.96 329.784Z" fill="#0D4832"/>
<path d="M28 493C21.6 507.4 6.66667 517 0 520C0 615 12 561 49 578C86 595 122 587 211 567C300 547 669.5 571 896 602C1122.5 633 1148 501 1145 493C1142 485 1136 451 1136 439C1136 429.4 1127.33 410.333 1123 402C1124.33 409.667 1126.2 427.8 1123 439C1119 453 1128 462 1136 493C1144 523.999 1105 520 1096 520H1079C1073 520 1075 467 1079 462C1082.2 458.001 1084.33 455.667 1085 455C1088 446.667 1092.8 427.2 1088 416C1083.2 404.8 1086 386 1088 378C1086.33 382.667 1082.2 395.6 1079 410C1075 428 1064 430 1054 439C1044 448 1039 462 1030 482.999C1021 503.999 1013 462 1007 451C1001 440 1022 439 1039 416C1052.6 397.6 1054.67 383 1054 378C1042.67 386.333 1014.6 405.6 993 416C966 429 964 430 957 451C950 472 907 462 896 462C885 462 866 451 863 462C860.6 470.801 867.333 483 871 487.999C868 487.999 858.6 486.999 845 482.999C828 477.999 818 437 806 439C794 441 732 430 726 416C720 402 669.5 392 679 384C688.5 376.001 674.5 365 669.5 360.5C664.5 356 647 351 639.5 351C632 351 624 340 615 329C615 337.8 604.333 356.667 599 365C602.333 363.333 610.2 361 615 365C621 370 620 409 656 410C692 411 672 446 679 462C681 473 627.003 473 599.002 473H599C576.6 473 596.333 455 609 446C599.667 449.667 577.8 458 565 462C552.2 466.001 563.667 442.334 571 430C565 430 551.6 433.2 546 446C540.4 458.8 517 454.667 506 451C503 458.333 497 475 497 482.999C497 492.999 478 501 475 482.999C472.6 468.599 464.667 494.999 461 510C445 510 407.2 508.2 384 501C357 482 384 493 384 482.999C384 472.999 359 482.999 351 482.999C343 482.999 339 473 339 462C339 451 311 430 300 416C289 402 288 408 288 392C288 379.2 270.667 368.667 262 365C249.333 357.333 222.4 340.4 216 334C189.6 306 166.333 308.334 158 313C164.667 313.334 180.4 315.8 190 323C202 332 200 351 202 360C204 369 224 378 240 384C256 390 267 404 259 430C251 456 244 447 240 462C236.8 474 219.333 474.334 211 473C206.667 474.334 196.4 478.2 190 482.999C182 488.999 173 487.999 158 482.999C143 477.999 116 477.999 107 487.999C99.8 495.999 96 487.999 95 482.999C89.6667 482.999 78 484.999 74 493C69 503 28 512 34 510C40 508 36 475 28 493Z" fill="#00381D"/>
<path d="M397 506C248.2 478 69.6667 511 -1 531V701H1152V467C842 562 583 541 397 506Z" fill="#805F1C"/>
<path d="M-1 701.999V530.999C79 495.999 284.603 493.302 321 495.999C361.5 498.999 471 517.999 498 521.999C519.6 525.199 569 529.332 591 530.999C477.4 530.999 406.333 644.999 385 701.999H-1Z" fill="#3E7033"/>
<path d="M120.719 566.752C136.427 563.401 45.4513 572.059 -2 576.807V679.866C6.59031 682.38 26.2253 685.899 36.0428 679.866C48.3147 672.325 99.8566 679.866 87.5847 687.407C75.3128 694.948 120.719 684.056 144.035 679.866C167.352 675.677 161.216 687.407 234.847 679.866C308.478 672.325 323.205 668.974 341.613 636.296C360.02 603.619 266.754 616.187 240.983 601.105C215.212 586.023 225.03 595.24 207.849 601.105C190.668 606.97 178.397 595.24 184.533 576.807C190.668 558.374 92.4934 589.375 55.6778 584.348C18.8622 579.32 101.084 570.942 120.719 566.752Z" fill="#30622D"/>
<path d="M124.389 615H-6V659.333C10.8244 659.333 46.7163 660.5 55.6893 665.167C66.9056 671 158.038 659.333 181.872 659.333C195.332 659.333 176.264 667.111 165.048 671C186.545 670.222 239.075 666.8 277.21 659.333C324.879 650 338.899 627.833 292.632 620.833C246.365 613.833 97.7502 623.167 107.564 620.833C115.416 618.967 122.052 616.167 124.389 615Z" fill="#5E924A"/>
<path d="M415 681C408.6 684.2 392.333 695 385 700H375C376.667 693.667 381 677.8 385 665C390 649 403 630 421 613C435.4 599.4 443.667 584.667 446 579L487 557L507 546C514 543.334 529 536.8 533 532C537 527.201 542 528.5 544 528.5L605 533.5C601.333 533.834 591.2 532.8 580 532C568.8 531.2 569.333 541 571 546H544C538 548.667 524.8 553.6 520 552C514 550 505 571 483 579C465.4 585.4 469 592.334 473 595C468 596.667 457.2 600.6 454 603C450.8 605.4 447.333 616.667 446 622C442.333 623.334 432.2 630 421 646C407 666 423 677 415 681Z" fill="#96C753"/>
<path d="M422 681C415.6 684.2 399.333 695 392 700H382C383.667 693.666 388 677.8 392 665C397 649 410 630 428 613C442.4 599.4 450.667 584.666 453 579L494 557L514 546C521 543.333 536 536.8 540 532C544 527.2 547.5 527.5 549.5 527.5L611.5 534C607.833 534.333 598.2 532.8 587 532C575.8 531.2 576.333 541 578 546H551C545 548.667 531.8 553.6 527 552C521 550 512 571 490 579C472.4 585.4 476 592.333 480 595C475 596.666 464.2 600.6 461 603C457.8 605.4 454.333 616.666 453 622C449.333 623.333 439.2 630 428 646C414 666 430 677 422 681Z" fill="#205424"/>
<path d="M406 681C399.6 684.2 383.333 695 376 700H366C367.667 693.667 372 677.8 376 665C381 649 394 630 412 613C426.4 599.4 434.667 584.667 437 579L478 557L498 546C505 543.333 520 536.8 524 532C528 527.2 533 526 535 526L596 532C592.333 532.334 582.2 532.8 571 532C559.8 531.2 560.333 541 562 546H535C529 548.667 515.8 553.6 511 552C505 550 496 571 474 579C456.4 585.4 460 592.333 464 595C459 596.667 448.2 600.6 445 603C441.8 605.4 438.333 616.667 437 622C433.333 623.333 423.2 630 412 646C398 666 414 677 406 681Z" fill="#3E7033"/>
<path d="M165.469 502.972C177.187 496.647 215.601 495.246 231 495.999L293 495.999L350 499L317.5 517.5C317.5 506.205 299.325 519.914 289.41 519.914C277.016 519.914 283.38 527.816 280 542.5C276.62 557.184 260.027 543.87 242 545C223.972 546.13 248 560.577 216.172 560.577C194.498 560.577 191.384 558.318 171.103 551.541C150.821 544.764 155.106 529.389 167.5 526C179.894 522.611 178.99 521.044 171.103 514.267C163.216 507.49 150.822 510.879 165.469 502.972Z" fill="#2E602D"/>
<path d="M177 502C187.4 496.4 217.333 496.334 231 497L339 498.5L319 512C319 502 295.8 517 287 517C276 517 280 521 277 534C274 547 253 538 237 539C221 540 241 556 222 553C203 550 200 551 182 545C164 539 166 532 177 529C188 526 189 518 182 512C175 506 164 509 177 502Z" fill="#5E9144"/>
<path d="M383 684C379.8 691.6 365.333 697.167 358.5 699H383V696L409.5 679C409.5 677 407.5 672.9 407.5 670.5C406 642 428 628 437.5 623C436.3 619 442.333 608.667 445.5 604L465 595C464.167 591.333 461.8 583 471 581C480.2 579 502 561.833 511 553C519.4 552.2 531.833 547.334 536.5 545.5H561.5C563.5 528.986 578 534 589.5 531.5C573.667 530 543.6 527.2 550 528C558 529 539 533.5 528.5 537C518 540.5 505 541.5 499 545.5C493 549.5 492.5 551.5 483.5 556C474.5 560.5 468.5 568.5 465 573C461.5 577.5 454.5 584 443.5 586.5C432.5 589 431.5 592.5 431.5 602C431.5 611.5 414 625.5 401.5 641.5C389 657.5 386 654 386 658.5C386 663 387 674.5 383 684Z" fill="#3E7033"/>
<path d="M350 662C350.401 659.909 352.289 656.354 356.625 658.863C360.961 661.373 354.015 662 350 662Z" fill="#F1FFC3"/>
<path d="M71 625C71.4015 622.909 73.2885 619.354 77.6246 621.863C81.9607 624.373 75.0149 625 71 625Z" fill="#F1FFC3"/>
<path d="M141 543C141.401 540.909 143.289 537.354 147.625 539.863C151.961 542.373 145.015 543 141 543Z" fill="#F1FFC3"/>
<path d="M348.538 647.439C346.704 646.358 343.991 643.385 347.812 640.145C351.634 636.906 349.889 643.658 348.538 647.439Z" fill="#F1FFC3"/>
<path d="M62.767 620.879C60.9326 619.797 58.2193 616.824 62.0409 613.585C65.8626 610.345 64.1173 617.098 62.767 620.879Z" fill="#F1FFC3"/>
<path d="M356.577 639.883C358.992 638.249 363.898 635.954 364.2 639.849C364.501 643.743 359.244 641.494 356.577 639.883Z" fill="#F1FFC3"/>
<path d="M393 528.433C395.415 526.8 400.321 524.505 400.623 528.399C400.924 532.294 395.667 530.045 393 528.433Z" fill="#F1FFC3"/>
<path d="M366 518.433C368.415 516.8 373.321 514.505 373.623 518.399C373.924 522.294 368.667 520.045 366 518.433Z" fill="#F1FFC3"/>
<path d="M157 535.433C159.415 533.8 164.321 531.505 164.623 535.399C164.924 539.294 159.667 537.045 157 535.433Z" fill="#F1FFC3"/>
<path d="M1050 701C1074.8 698.6 1129.33 694 1152 701V536L1145 554C1145 560.667 1128 572.4 1128 586C1128 599.6 1040.83 619 1030.5 622C1035.17 621 1108.4 615.6 1122 622C1139 630 1116 628 1122 654C1126.8 674.8 1090.67 674 1072 671L1002 689C990 701 1025.2 703.4 1050 701Z" fill="#744B17"/>
<path d="M1152 685H1091.93C1090.86 685.1 1089.88 685.102 1089 685H1091.93C1101.36 684.117 1117.53 675.576 1131 663C1144.18 650.699 1133 637 1136 631C1138.4 626.2 1123.67 615 1116 610L1136 589C1137.33 589.667 1140.4 589.6 1142 584C1143.6 578.4 1149.33 572.333 1152 570V685Z" fill="#6D3914"/>
<path d="M448.626 693.78C457.045 704.312 563.05 705.541 615 704.839L558.373 700.099C541.168 697.993 504.753 693.78 496.735 693.78C486.712 693.78 468.17 685.354 456.645 685.88C445.119 686.407 448.626 672.188 448.626 663.762C448.626 655.337 469.674 645.33 473.683 642.17C477.692 639.011 473.683 626.898 478.694 616.893C482.703 608.888 506.423 608.291 517.782 608.993L510.766 603.201C509.43 603.201 506.056 601.515 503.249 594.774C499.741 586.348 526.301 583.715 536.825 569.497C547.348 555.278 559.877 562.124 578.418 562.124C596.96 562.124 590.946 547.378 590.946 540.006C590.946 534.108 614.534 536 612.5 533C607.656 533.527 584.332 532.317 581.926 535.266C578.919 538.953 589.443 547.379 578.418 553.172C567.393 558.964 553.362 551.592 547.348 553.172C541.335 554.751 528.306 555.805 526.301 562.124C524.297 568.444 504.252 582.662 493.728 586.349C485.309 589.298 492.225 598.812 496.735 603.201C491.556 603.903 479.696 606.044 473.683 608.993C466.166 612.68 467.168 618.473 464.663 631.638C462.157 644.804 440.107 652.177 433.091 663.762C426.075 675.348 438.102 680.614 448.626 693.78Z" fill="#6C3811"/>
<path d="M672.976 564.34C659.386 560.458 645.996 568.17 641 572.511C647.931 574.073 660.1 570.664 670.997 573.12C681.895 575.575 699.615 572.052 704.904 566.41C699.924 567.338 686.566 568.223 672.976 564.34Z" fill="#977224" fill-opacity="0.79"/>
<path d="M936.976 660.34C923.386 656.458 909.996 664.17 905 668.511C911.931 670.073 924.1 666.664 934.997 669.12C945.895 671.575 963.615 668.052 968.904 662.41C963.924 663.338 950.566 664.223 936.976 660.34Z" fill="#977224" fill-opacity="0.79"/>
<path d="M699.994 632.578C687.194 643.778 701.994 655.912 710.994 660.578L747.994 668.578L756.994 676.578H772.994C785.994 671.245 813.994 659.178 821.994 653.578C831.994 646.578 885.994 632.578 884.994 619.578C883.994 606.578 838.994 624.579 821.994 632.578C804.994 640.578 776.994 625.578 764.994 619.578C752.994 613.578 715.994 618.578 699.994 632.578Z" fill="#B2782B" fill-opacity="0.7"/>
<path d="M927.661 606.386C919.585 606.343 912.845 607.941 910.485 608.746C910.326 611.581 910.983 618.066 914.889 621.317C919.771 625.382 923.01 612.996 926.049 611.137C929.088 609.278 932.242 612.757 942.778 611.516C953.313 610.274 937.757 606.441 927.661 606.386Z" fill="#AC883C"/>
<path d="M563.122 651.215C547.367 650.899 538.819 643.239 528.317 636.736C513.177 628.407 528.183 599.553 540.078 611.197C551.973 622.841 566.691 606.164 574.198 611.624C581.705 617.084 591.841 610.012 607.922 618.2C619.738 618.437 597.572 653.389 591.172 650.9C584.773 648.412 582.816 651.61 563.122 651.215Z" fill="#B2782B" fill-opacity="0.7"/>
<path d="M761.811 637.954C758 623.471 729.738 642.46 720.991 644.713C728.766 647.931 730.817 672.561 768.5 660C845 634.5 765.521 652.052 761.811 637.954Z" fill="#AC883C"/>
<path d="M727.794 591.609C713.021 598.561 744.317 599.655 761.811 599.333C776.39 599.333 810.212 597.788 828.872 591.609C852.198 583.885 803.603 579.057 761.811 576.161C720.019 573.264 746.261 582.919 727.794 591.609Z" fill="#AC883C"/>
<path d="M994.096 576.161C980.878 582.34 967.207 584.528 962.023 584.85C966.235 587.103 977.185 591.609 987.293 591.609C999.928 591.609 1007.7 584.85 1028.11 576.161C1048.52 567.471 1010.62 568.436 994.096 576.161Z" fill="#AC883C"/>
<path d="M586.868 637.954C571.318 637.954 539.569 642.46 525.638 644.713C499.397 637.954 525.638 628.299 561.599 623.471C597.559 618.644 606.306 637.954 586.868 637.954Z" fill="#AC883C"/>
<path d="M1003 518C991 516.4 998 509.333 1003 506L1109 480C1107.33 484.333 1106.8 498.8 1090 502C1069 506 1069 511 1064 524C1059 537 1047 530 1037 518C1027 506 1018 520 1003 518Z" fill="#744B17"/>
<path d="M1055 493.499C1041.53 497.768 1010 500.499 1027 505.499C1034.1 505.673 1038.76 521.997 1049.93 522.27C1061.1 522.543 1076.12 496.623 1080.2 490.054C1075.5 487.999 1069.85 488.793 1055 493.499Z" fill="#A47A28"/>
<path d="M423 677.5L391.5 700.5H466.5C461.667 699 452.6 693.3 449 690.5C444.5 687 431.5 679 431.5 670C431.5 661 453.5 645.5 460.5 640.5C467.5 635.5 465 618.5 469.5 612.5C473.1 607.7 490 604.5 498 603.5C497.667 603 498.3 600.657 495.5 598.657C486.5 588.657 491.5 586.657 504.5 581.657C517.5 576.657 526.5 566.5 531.5 560.5C536.5 554.5 546.5 554.5 551.5 554C555.5 553.6 566.167 555.167 571 556C576.833 554.833 587.4 550.4 583 542C578.6 533.6 588.833 532.167 594.5 532.5C593 532 588.4 531.3 582 532.5C575.6 533.7 576.667 541.667 578 545.5H551.5C549.333 547.5 540.288 550.868 534.5 550C524.5 548.5 523.5 551.5 515.5 561.5C507.5 571.5 488 578 480 582.5C473.6 586.1 477.333 593.834 480 596C475.5 594.5 464.1 599.8 460.5 601C456.9 602.2 453.333 616.334 452 622C448.833 624.5 441.6 630.4 438 634C420 648.4 419.667 669 423 677.5Z" fill="#744B17"/>
<path d="M117 414C71.4 426 23.3333 430.167 6 431.5C42.3333 402.833 118.5 337 126 326C134.864 313 150.667 311.333 158 311C159 316 163 331 175 347C190 367 177 366 180 388C183 410 208 421 196 433C184 445 174 399 117 414Z" fill="#285E4E"/>
<path d="M282 392C284.4 384 272.333 372 266 367C265.5 366.667 264 365.8 262 365C264 365 268.5 365 272.5 364C279.3 362.8 290.667 354.5 295.5 350.5C309 346 335 361.5 342 364C349 366.5 372.5 374 379.5 376C386.5 378 405.5 386 426 389C446.5 392 468 378.5 473.5 377C479 375.5 544.5 339.5 563 329.5C577.8 321.5 587.167 319.167 590 319C592.333 320.333 596.8 326 596 338C595 353 574 367 581 360C586.6 354.4 583.333 343 581 338L568 347C553.667 359 521.8 383.6 509 386C493 389 457 392 433 408C409 424 380 418 365 413C353 409 340 418 335 423C336.333 425.667 340.8 433.8 348 445C357 459 322 448 312 436C302 424 279 402 282 392Z" fill="#285E4E"/>
<path d="M693.5 378.5C694.486 378.955 695.81 379.638 697.372 380.535C705.068 383.913 721.575 389.569 730.5 392.5C749 398.667 789.3 410.1 802.5 406.5C819 402 824.5 401 848 403C871.5 405 887 414 893.5 417C900 420 899.5 426 924.5 420.5C949.5 415 1009.5 383.5 1031 371.5C1048.2 361.9 1069.17 354.167 1077.5 351.5V361.5C1077.5 367.5 1078.5 371.5 1077.5 383.5C1076.5 395.5 1075.5 392 1068.5 401C1062.9 408.2 1059.17 417 1058 420.5C1058.33 418.833 1058.8 413.7 1058 406.5C1057 397.5 1059.5 396.5 1063 383.5C1066.5 370.5 1056 368 1047.5 371.5C1039 375 1016.5 391.5 1009.5 396.5C1002.5 401.5 976 413.5 962 420.5C948 427.5 944 440.5 924.5 447C905 453.5 871.5 439 860.5 435.5C849.5 432 841 426 837.5 435.5C834 445 847.5 451.5 841 451.5C834.5 451.5 828 437 823 430.5C818 424 793 424.5 780 426C767 427.5 728.5 408.5 717.5 396.5C710.702 389.085 702.672 383.578 697.372 380.535C695.439 379.686 694.062 378.982 693.5 378.5Z" fill="#285E4E"/>
<path d="M74 389.499C64 401.099 40.8333 413.999 30.5 418.999C38 417.999 58.7 413.599 81.5 403.999C110 391.999 95 385.999 103 375.999C111 365.999 127 374.999 135 371.999C143 368.999 143 356.999 138.5 349.499C134 341.999 147 328.999 147 319.499C147 311.899 141.333 320.999 138.5 326.499C134.667 331.333 125.4 342.699 119 349.499C111 357.999 86.5 374.999 74 389.499Z" fill="#388768"/>
<path d="M313 431C315.4 437.4 324.333 437 328.5 436C332.499 435.451 328.5 420.5 324.5 407.5C320.5 394.5 344 395.5 362 395.5C380 395.5 379 401 402 401.5C425 402 422.5 395.5 409.5 395.5C396.5 395.5 383.5 389.5 369 382.5C354.5 375.5 351 380 328.5 380C305.999 380 309.5 365 295 363.5C280.5 362 279.5 368.5 283.5 376.5C287.5 384.5 292.5 385.5 292.5 395.5C292.5 405.5 298.5 401 306 414.5C313.5 428 310 423 313 431Z" fill="#388768"/>
<path d="M540.5 350C531.3 359.6 493.333 376 475.5 383C459 396.001 493.5 383 505.5 379C517.5 375 516.5 376 521 370C525.5 364 546.5 356 556 350C565.5 344 552 338 540.5 350Z" fill="#388768"/>
<path d="M779 417.5C767.4 418.3 746.167 407.833 737 402.5C717.651 393 768.5 406.5 783 412C797.5 417.5 816.5 412 825.5 412C834.5 412 845.5 413.5 873.5 421C901.5 428.5 895.5 430 904.5 431C913.5 432 929 429.5 949 417.5C965 407.9 993 397.5 1005 393.5C1001 396.5 991.8 402.5 987 402.5C981 402.5 953.5 423.5 944.5 426C935.5 428.5 923 438.5 912 442.5C901 446.5 848 423.5 835.5 423.5C823 423.5 833 431.5 825.5 423.5C818 415.5 793.5 416.5 779 417.5Z" fill="#388768"/>
<g opacity="0.5">
<g filter="url(#filter0_f)">
<circle cx="1049.5" cy="86.5" r="180.5" fill="white" fill-opacity="0.7"/>
</g>
<circle cx="1049.94" cy="90.4626" r="151.004" fill="#E8EFF5"/>
<g filter="url(#filter1_f)">
<circle cx="1049.06" cy="71.9724" r="132.513" fill="#F4F9FD" fill-opacity="0.6"/>
</g>
<g filter="url(#filter2_f)">
<circle cx="1053.46" cy="54.3634" r="113.143" fill="white"/>
</g>
<ellipse cx="974.579" cy="180.026" rx="22.1438" ry="13.2073" transform="rotate(21.6521 974.579 180.026)" fill="#D5DFE9"/>
<ellipse cx="1013.21" cy="216.813" rx="6.9873" ry="5.75215" transform="rotate(21.6521 1013.21 216.813)" fill="#D5DFE9"/>
<ellipse cx="1058.12" cy="197.442" rx="6.9873" ry="5.75215" transform="rotate(21.6521 1058.12 197.442)" fill="#D5DFE9"/>
<ellipse cx="1000" cy="128.764" rx="6.9873" ry="5.75215" transform="rotate(21.6521 1000 128.764)" fill="#D5DFE9" fill-opacity="0.2"/>
<ellipse cx="1144.41" cy="24.8658" rx="6.9873" ry="5.75215" transform="rotate(21.6521 1144.41 24.8658)" fill="#D5DFE9" fill-opacity="0.2"/>
<ellipse cx="1094.73" cy="212.95" rx="3.58096" ry="2.94795" transform="rotate(21.6521 1094.73 212.95)" fill="#D5DFE9"/>
<ellipse cx="935.931" cy="140.749" rx="3.58096" ry="2.94795" transform="rotate(21.6521 935.931 140.749)" fill="#D5DFE9"/>
<ellipse cx="951.78" cy="111.694" rx="3.58096" ry="2.94795" transform="rotate(21.6521 951.78 111.694)" fill="#D5DFE9"/>
<ellipse cx="912.158" cy="90.5612" rx="3.58096" ry="2.94795" transform="rotate(21.6521 912.158 90.5612)" fill="white"/>
<ellipse cx="1149.01" cy="94.9636" rx="3.58096" ry="2.94795" transform="rotate(21.6521 1149.01 94.9636)" fill="#D5DFE9"/>
<ellipse cx="1129.82" cy="183.197" rx="22.1438" ry="13.2073" transform="rotate(-9.18361 1129.82 183.197)" fill="#D5DFE9"/>
</g>
<g filter="url(#filter3_f)">
<ellipse cx="536" cy="209.5" rx="2" ry="2.5" fill="white" fill-opacity="0.6"/>
</g>
<g filter="url(#filter4_f)">
<circle cx="651" cy="159" r="2" fill="white" fill-opacity="0.6"/>
</g>
<g filter="url(#filter5_f)">
<ellipse cx="879" cy="246.5" rx="2" ry="2.5" fill="white" fill-opacity="0.6"/>
</g>
<path d="M277.168 405.164C257.743 421.212 248.327 403.432 246.047 392.536C244.74 405.09 237.202 426.408 217.502 411.257C197.802 396.106 209.168 375.394 217.313 366.931C208.827 374.524 189.341 384.826 179.286 365.29C166.717 340.87 215.214 344.425 208.103 343.451C202.415 342.672 196.434 339.75 194.154 338.386C178.671 329.408 185.354 310.231 199.354 303.987C210.554 298.992 219.493 313.397 222.563 321.224C224.16 311.316 231.173 293.614 246.453 302.07C261.732 310.527 255.559 329.102 250.563 337.333C258.754 328.351 277.956 316.054 289.238 338.72C300.521 361.387 277.877 372.024 265.145 374.51C277.246 378.041 296.593 389.117 277.168 405.164Z" fill="#33810F"/>
<path d="M266.633 569.466L287.056 575.964L300.981 564.824L296.34 458.993L320.476 426.501V414.433L296.34 443.211L300.981 382.869L274.059 404.221V443.211H255.492L247.137 426.501L241.567 433.928L255.492 452.495L274.059 458.993L266.633 569.466Z" fill="#B07D56"/>
<path d="M175.579 433.568C167.732 409.625 187.722 407.351 198.698 409.207C187.489 403.407 170.395 388.604 191.693 375.797C212.991 362.99 213.717 367.553 226.25 374.051C226.25 359.265 226.579 359.232 248.145 357.034L248.441 357.004C275.764 354.22 254.746 398.071 258.249 391.806C261.051 386.795 265.955 382.294 268.057 380.67C282.069 369.533 297.482 382.758 298.183 398.071C298.743 410.321 282.069 413.384 273.662 413.384C282.303 418.488 296.221 431.48 282.77 442.617C269.318 453.754 254.279 441.225 248.441 433.568C253.812 444.473 258.249 466.839 233.028 469.067C207.806 471.294 204.42 460.615 206.755 447.854C199.048 457.831 183.425 457.512 175.579 433.568Z" fill="#1C490D"/>
<path d="M186.401 429.748C179.959 410.185 196.369 408.327 205.379 409.844C196.178 405.105 182.145 393.011 199.628 382.547C217.112 372.082 217.709 375.811 227.996 381.12C227.996 369.039 228.267 369.012 245.97 367.217L246.213 367.192C268.642 364.917 251.389 400.745 254.264 395.627C256.565 391.532 260.59 387.855 262.316 386.528C273.818 377.429 286.471 388.234 287.046 400.745C287.506 410.754 273.818 413.256 266.917 413.256C274.01 417.427 285.435 428.043 274.393 437.142C263.351 446.241 251.005 436.004 246.213 429.748C250.622 438.658 254.264 456.932 233.56 458.752C212.856 460.572 210.076 451.847 211.993 441.421C205.667 449.572 192.842 449.311 186.401 429.748Z" fill="#377407"/>
<path d="M250.774 361.156C242.927 337.212 262.918 334.939 273.894 336.795C262.684 330.995 245.59 316.192 266.888 303.385C288.186 290.578 303.319 308.721 308.223 319.394C304.253 308.722 301.777 286.82 323.636 284.592C350.959 281.808 329.941 325.659 333.444 319.394C336.247 314.383 341.151 309.882 343.253 308.258C357.264 297.121 372.677 310.346 373.378 325.659C373.939 337.909 357.264 340.971 348.857 340.971C357.498 346.076 371.416 359.068 357.965 370.205C344.514 381.342 329.474 368.813 323.636 361.156C329.007 372.061 333.444 394.427 308.223 396.654C283.002 398.882 281.367 373.917 283.702 361.156C275.996 371.133 258.621 385.1 250.774 361.156Z" fill="#14670C"/>
<path d="M259.329 393.239C250.604 366.525 272.832 363.988 285.036 366.059C272.572 359.587 253.564 343.072 277.246 328.783C300.929 314.494 317.755 334.737 323.209 346.645C318.794 334.737 316.042 310.301 340.347 307.816C370.729 304.71 347.358 353.634 351.253 346.645C354.369 341.053 359.822 336.031 362.159 334.219C377.74 321.794 394.878 336.549 395.657 353.634C396.28 367.301 377.74 370.718 368.392 370.718C377.999 376.413 393.476 390.909 378.519 403.334C363.562 415.759 346.839 401.781 340.347 393.239C346.319 405.405 351.253 430.359 323.209 432.844C295.164 435.329 293.346 407.476 295.943 393.239C287.374 404.369 268.054 419.953 259.329 393.239Z" fill="#506908"/>
<path d="M287.908 434.496C280.061 410.552 300.051 408.279 311.027 410.135C299.818 404.334 282.724 389.532 304.022 376.725C325.32 363.918 340.453 382.061 345.357 392.734C341.387 382.061 338.911 360.159 360.77 357.932C388.093 355.148 367.075 398.998 370.578 392.734C373.38 387.722 378.285 383.221 380.386 381.597C394.398 370.461 409.811 383.686 410.512 398.998C411.072 411.249 394.398 414.311 385.991 414.311C394.632 419.416 408.55 432.408 395.099 443.545C381.647 454.681 366.608 442.153 360.77 434.496C366.141 445.401 370.578 467.767 345.357 469.994C320.135 472.222 318.501 447.257 320.836 434.496C313.129 444.473 295.754 458.44 287.908 434.496Z" fill="#489C07"/>
<path d="M314.065 392.572C309.933 397.71 317.939 404.347 322.458 407.023C324.18 408.629 326.59 411.905 322.458 412.162C317.293 412.483 306.963 412.804 308.578 421.474C310.192 430.145 314.065 431.43 322.458 424.686C330.851 417.942 330.529 426.934 332.466 437.531C334.403 448.128 346.992 441.706 350.22 435.925C353.449 430.145 346.992 419.226 345.378 418.263C343.764 417.3 341.182 409.914 338.276 407.023C335.371 404.133 341.182 397.068 332.466 389.682C323.75 382.296 319.23 386.15 314.065 392.572Z" fill="#7EAA04"/>
<path d="M305.16 375.908C326.326 364.768 340.127 381.014 344.15 390.297L345.078 391.69C337.707 385.191 318.66 374.98 307.016 384.263C295.372 393.547 308.973 407.627 317.228 413.506C309.183 413.095 293.648 416.047 295.876 431.145C298.104 446.243 315.372 436.507 323.727 429.752C324.5 440.556 330.132 462.088 346.471 461.78C362.81 461.472 363.181 444.013 361.324 435.322C362.252 437.642 363.903 442.957 364.109 444.605C364.573 448.318 366.43 459.459 361.324 463.172C356.219 466.886 351.112 472.919 335.795 469.67C322.079 466.761 318.156 449.247 320.477 435.322C316.764 440.427 307.573 447.854 300.518 447.854C291.698 447.854 283.344 430.68 287.521 418.612C290.863 408.957 303.767 408.4 310.266 409.792L307.016 407.936C297.578 402.057 283.994 387.048 305.16 375.908Z" fill="#597609" fill-opacity="0.7"/>
<path d="M199.329 308.139C181.876 321.135 190.2 331.502 196.544 335.06L201.185 337.845C199.174 335.525 194.78 329.676 193.294 324.849C191.809 320.021 199.793 309.84 203.97 305.354L199.329 308.139Z" fill="#ABDE1F"/>
<path d="M336.259 311.387C360.396 304.331 353.743 331.346 347.399 345.735C348.172 337.071 348.791 318.72 345.078 314.636C340.436 309.53 330.689 313.707 336.259 311.387Z" fill="#74980F"/>
<path d="M259.206 309.995C252.894 317.05 259.361 325.622 263.384 329.026L268.025 332.739C264.216 327.633 259.719 315.287 272.203 306.746C284.687 298.205 302.779 313.708 310.265 322.528C307.635 314.637 305.809 297.462 319.548 291.892C333.288 286.322 336.413 299.474 336.259 306.746C336.723 304.734 337.651 299.876 337.651 296.534C337.651 292.356 335.794 289.107 333.938 287.251C332.081 285.394 325.118 281.217 312.586 289.107C302.56 295.42 304.695 310.614 307.016 317.422C297.732 299.783 285.664 298.855 280.094 298.855C274.524 298.855 267.097 301.176 259.206 309.995Z" fill="#7DA314"/>
<path d="M296.34 458.53L302.374 450.639L288.449 459.458L287.057 464.564L297.268 481.274L296.34 458.53Z" fill="#855633"/>
<path d="M289.098 543.48C288.355 539.395 290.027 532.185 290.955 529.091C292.812 524.449 294.204 532.34 293.74 538.374C293.276 544.409 294.668 543.48 294.204 550.907C293.74 558.334 290.026 559.262 290.955 554.156C291.883 549.05 290.027 548.586 289.098 543.48Z" fill="#855633"/>
<path d="M281.95 535.582C280.094 541.524 272.203 546.413 268.489 548.115L274.059 461.779C274.678 463.017 277.123 466.235 281.95 469.206C287.984 472.919 287.984 484.988 286.128 487.773C284.271 490.558 286.592 496.592 286.128 504.483C285.664 512.374 290.305 513.302 287.984 518.408C285.664 523.514 284.271 528.156 281.95 535.582Z" fill="#9D5823"/>
<path d="M268.489 542.08L271.738 492.414L273.131 474.775C275.916 478.179 281.579 485.173 281.95 485.915C282.414 486.844 276.38 504.482 276.38 509.124C276.38 513.766 281.022 518.872 280.094 523.049C279.351 526.391 272.048 537.129 268.489 542.08Z" fill="#855633"/>
<path d="M85.168 429.164C65.7427 445.212 56.3267 427.432 54.0469 416.536C52.7402 429.09 45.2016 450.408 25.5019 435.257C5.8022 420.106 17.1676 399.394 25.3127 390.931C16.8266 398.524 -2.65923 408.826 -12.7141 389.29C-25.2827 364.87 23.2144 368.425 16.1034 367.451C10.4147 366.672 4.43382 363.75 2.15449 362.386C-13.3294 353.408 -6.64571 334.231 7.35401 327.987C18.5538 322.992 27.4933 337.397 30.563 345.224C32.1598 335.316 39.1733 317.614 54.4526 326.07C69.7318 334.527 63.5595 353.102 58.5634 361.333C66.7539 352.351 85.9557 340.054 97.2385 362.72C108.521 385.387 85.8771 396.024 73.1447 398.51C85.2464 402.041 104.593 413.117 85.168 429.164Z" fill="#33810F"/>
<path d="M74.6326 593.466L95.0561 599.964L108.981 588.824L104.34 482.993L128.476 450.501V438.433L104.34 467.211L108.981 406.869L82.0593 428.221V467.211H63.4925L55.1374 450.501L49.5674 457.928L63.4925 476.495L82.0593 482.993L74.6326 593.466Z" fill="#B07D56"/>
<path d="M-16.4212 457.568C-24.2679 433.625 -4.27764 431.351 6.69831 433.207C-4.51107 427.407 -21.6053 412.604 -0.307325 399.797C20.9907 386.99 21.7175 391.553 34.2501 398.051C34.2501 383.265 34.5792 383.232 56.1446 381.034L56.4407 381.004C83.7638 378.22 62.746 422.071 66.249 415.806C69.0513 410.795 73.9555 406.294 76.0573 404.67C90.0691 393.533 105.482 406.758 106.183 422.071C106.743 434.321 90.0691 437.384 81.662 437.384C90.3027 442.488 104.221 455.48 90.7697 466.617C77.3183 477.754 62.2789 465.225 56.4407 457.568C61.8119 468.473 66.249 490.839 41.0276 493.067C15.8063 495.294 12.4196 484.615 14.7549 471.854C7.04832 481.831 -8.57461 481.512 -16.4212 457.568Z" fill="#1C490D"/>
<path d="M-5.59941 453.748C-12.0407 434.185 4.36922 432.327 13.3793 433.844C4.17759 429.105 -9.85501 417.011 7.62843 406.547C25.1119 396.082 25.7085 399.811 35.9965 405.12C35.9965 393.039 36.2666 393.012 53.9696 391.217L54.2126 391.192C76.642 388.917 59.3886 424.745 62.2642 419.627C64.5646 415.532 68.5904 411.855 70.3158 410.528C81.818 401.429 94.4705 412.234 95.0456 424.745C95.5057 434.754 81.818 437.256 74.9167 437.256C82.0098 441.427 93.4353 452.043 82.3932 461.142C71.351 470.241 59.0052 460.004 54.2126 453.748C58.6218 462.658 62.2642 480.932 41.5601 482.752C20.856 484.572 18.0759 475.847 19.993 465.421C13.6666 473.572 0.841857 473.311 -5.59941 453.748Z" fill="#377407"/>
<path d="M58.7741 385.156C50.9274 361.212 70.9177 358.939 81.8936 360.795C70.6842 354.995 53.59 340.192 74.888 327.385C96.186 314.578 111.319 332.721 116.223 343.394C112.253 332.722 109.777 310.82 131.636 308.592C158.959 305.808 137.941 349.659 141.444 343.394C144.247 338.383 149.151 333.882 151.253 332.258C165.264 321.121 180.677 334.346 181.378 349.659C181.939 361.909 165.264 364.971 156.857 364.971C165.498 370.076 179.416 383.068 165.965 394.205C152.514 405.342 137.474 392.813 131.636 385.156C137.007 396.061 141.444 418.427 116.223 420.654C91.0016 422.882 89.3669 397.917 91.7022 385.156C83.9956 395.133 66.6207 409.1 58.7741 385.156Z" fill="#14670C"/>
<path d="M67.3288 417.239C58.6038 390.525 80.8317 387.988 93.0363 390.059C80.5722 383.587 61.5644 367.072 85.2465 352.783C108.929 338.494 125.755 358.737 131.209 370.645C126.794 358.737 124.042 334.301 148.347 331.816C178.729 328.71 155.358 377.634 159.253 370.645C162.369 365.053 167.822 360.031 170.159 358.219C185.74 345.794 202.878 360.549 203.657 377.634C204.28 391.301 185.74 394.718 176.392 394.718C185.999 400.413 201.476 414.909 186.519 427.334C171.562 439.759 154.839 425.781 148.347 417.239C154.319 429.405 159.253 454.359 131.209 456.844C103.164 459.329 101.346 431.476 103.943 417.239C95.3736 428.369 76.0538 443.953 67.3288 417.239Z" fill="#506908"/>
<path d="M95.9079 458.496C88.0612 434.552 108.051 432.279 119.027 434.135C107.818 428.334 90.7238 413.532 112.022 400.725C133.32 387.918 148.453 406.061 153.357 416.734C149.387 406.061 146.911 384.159 168.77 381.932C196.093 379.148 175.075 422.998 178.578 416.734C181.38 411.722 186.285 407.221 188.386 405.597C202.398 394.461 217.811 407.686 218.512 422.998C219.072 435.249 202.398 438.311 193.991 438.311C202.632 443.416 216.55 456.408 203.099 467.545C189.647 478.681 174.608 466.153 168.77 458.496C174.141 469.401 178.578 491.767 153.357 493.994C128.135 496.222 126.501 471.257 128.836 458.496C121.129 468.473 103.754 482.44 95.9079 458.496Z" fill="#489C07"/>
<path d="M122.065 416.572C117.933 421.71 125.939 428.347 130.458 431.023C132.18 432.629 134.59 435.905 130.458 436.162C125.293 436.483 114.963 436.804 116.578 445.474C118.192 454.145 122.065 455.43 130.458 448.686C138.851 441.942 138.529 450.934 140.466 461.531C142.403 472.128 154.992 465.706 158.22 459.925C161.449 454.145 154.992 443.226 153.378 442.263C151.764 441.3 149.182 433.914 146.276 431.023C143.371 428.133 149.182 421.068 140.466 413.682C131.75 406.296 127.23 410.15 122.065 416.572Z" fill="#7EAA04"/>
<path d="M113.16 399.908C134.326 388.768 148.127 405.014 152.15 414.297L153.078 415.69C145.707 409.191 126.66 398.98 115.016 408.263C103.372 417.547 116.973 431.627 125.228 437.506C117.183 437.095 101.648 440.047 103.876 455.145C106.104 470.243 123.372 460.507 131.727 453.752C132.5 464.556 138.132 486.088 154.471 485.78C170.81 485.472 171.181 468.013 169.324 459.322C170.252 461.642 171.903 466.957 172.109 468.605C172.573 472.318 174.43 483.459 169.324 487.172C164.219 490.886 159.112 496.919 143.795 493.67C130.079 490.761 126.156 473.247 128.477 459.322C124.764 464.427 115.573 471.854 108.518 471.854C99.6985 471.854 91.3439 454.68 95.5214 442.612C98.8635 432.957 111.767 432.4 118.266 433.792L115.016 431.936C105.578 426.057 91.9936 411.048 113.16 399.908Z" fill="#597609" fill-opacity="0.7"/>
<path d="M7.32857 332.139C-10.1242 345.135 -1.80012 355.502 4.54355 359.06L9.18522 361.845C7.17381 359.525 2.77966 353.676 1.29432 348.849C-0.191027 344.021 7.79271 333.84 11.9702 329.354L7.32857 332.139Z" fill="#ABDE1F"/>
<path d="M144.259 335.387C168.396 328.331 161.743 355.346 155.399 369.735C156.172 361.071 156.791 342.72 153.078 338.636C148.436 333.53 138.689 337.707 144.259 335.387Z" fill="#74980F"/>
<path d="M67.2063 333.995C60.8936 341.05 67.3611 349.622 71.3839 353.026L76.0255 356.739C72.2165 351.633 67.7193 339.287 80.203 330.746C92.6867 322.205 110.779 337.708 118.265 346.528C115.635 338.637 113.809 321.462 127.548 315.892C141.288 310.322 144.413 323.474 144.259 330.746C144.723 328.734 145.651 323.876 145.651 320.534C145.651 316.356 143.794 313.107 141.938 311.251C140.081 309.394 133.118 305.217 120.586 313.107C110.56 319.42 112.695 334.614 115.016 341.422C105.732 323.783 93.664 322.855 88.0939 322.855C82.5239 322.855 75.0972 325.176 67.2063 333.995Z" fill="#7DA314"/>
<path d="M104.34 482.53L110.374 474.639L96.4492 483.458L95.0566 488.564L105.268 505.274L104.34 482.53Z" fill="#855633"/>
<path d="M97.0982 567.48C96.3555 563.395 98.0265 556.185 98.9548 553.091C100.812 548.449 102.204 556.34 101.74 562.374C101.276 568.409 102.668 567.48 102.204 574.907C101.74 582.334 98.0264 583.262 98.9548 578.156C99.8833 573.05 98.0265 572.586 97.0982 567.48Z" fill="#855633"/>
<path d="M89.9502 559.582C88.0935 565.524 80.2026 570.413 76.4893 572.115L82.0593 485.779C82.6782 487.017 85.1228 490.235 89.9502 493.206C95.9844 496.919 95.9844 508.988 94.1277 511.773C92.2711 514.558 94.5919 520.592 94.1277 528.483C93.6636 536.374 98.3053 537.302 95.9844 542.408C93.6636 547.514 92.2711 552.156 89.9502 559.582Z" fill="#9D5823"/>
<path d="M76.4893 566.08L79.7385 516.414L81.131 498.775C83.916 502.179 89.5789 509.173 89.9502 509.915C90.4144 510.844 84.3802 528.482 84.3802 533.124C84.3802 537.766 89.0219 542.872 88.0935 547.049C87.3508 550.391 80.0479 561.129 76.4893 566.08Z" fill="#855633"/>
<path d="M202.168 463.164C182.743 479.212 173.327 461.432 171.047 450.536C169.74 463.09 162.202 484.408 142.502 469.257C122.802 454.106 134.168 433.394 142.313 424.931C133.827 432.524 114.341 442.826 104.286 423.29C91.7173 398.87 140.214 402.425 133.103 401.451C127.415 400.672 121.434 397.75 119.154 396.386C103.671 387.408 110.354 368.231 124.354 361.987C135.554 356.992 144.493 371.397 147.563 379.224C149.16 369.316 156.173 351.614 171.453 360.07C186.732 368.527 180.559 387.102 175.563 395.333C183.754 386.351 202.956 374.054 214.238 396.72C225.521 419.387 202.877 430.024 190.145 432.51C202.246 436.041 221.593 447.117 202.168 463.164Z" fill="#33810F"/>
<path d="M191.633 627.466L212.056 633.964L225.981 622.824L221.34 516.993L245.476 484.501V472.433L221.34 501.211L225.981 440.869L199.059 462.221V501.211H180.492L172.137 484.501L166.567 491.928L180.492 510.495L199.059 516.993L191.633 627.466Z" fill="#B07D56"/>
<path d="M100.579 491.568C92.7321 467.625 112.722 465.351 123.698 467.207C112.489 461.407 95.3947 446.604 116.693 433.797C137.991 420.99 138.717 425.553 151.25 432.051C151.25 417.265 151.579 417.232 173.145 415.034L173.441 415.004C200.764 412.22 179.746 456.071 183.249 449.806C186.051 444.795 190.955 440.294 193.057 438.67C207.069 427.533 222.482 440.758 223.183 456.071C223.743 468.321 207.069 471.384 198.662 471.384C207.303 476.488 221.221 489.48 207.77 500.617C194.318 511.754 179.279 499.225 173.441 491.568C178.812 502.473 183.249 524.839 158.028 527.067C132.806 529.294 129.42 518.615 131.755 505.854C124.048 515.831 108.425 515.512 100.579 491.568Z" fill="#1C490D"/>
<path d="M111.401 487.748C104.959 468.185 121.369 466.327 130.379 467.844C121.178 463.105 107.145 451.011 124.628 440.547C142.112 430.082 142.709 433.811 152.996 439.12C152.996 427.039 153.267 427.012 170.97 425.217L171.213 425.192C193.642 422.917 176.389 458.745 179.264 453.627C181.565 449.532 185.59 445.855 187.316 444.528C198.818 435.429 211.471 446.234 212.046 458.745C212.506 468.754 198.818 471.256 191.917 471.256C199.01 475.427 210.435 486.043 199.393 495.142C188.351 504.241 176.005 494.004 171.213 487.748C175.622 496.658 179.264 514.932 158.56 516.752C137.856 518.572 135.076 509.847 136.993 499.421C130.667 507.572 117.842 507.311 111.401 487.748Z" fill="#377407"/>
<path d="M175.774 419.156C167.927 395.212 187.918 392.939 198.894 394.795C187.684 388.995 170.59 374.192 191.888 361.385C213.186 348.578 228.319 366.721 233.223 377.394C229.253 366.722 226.777 344.82 248.636 342.592C275.959 339.808 254.941 383.659 258.444 377.394C261.247 372.383 266.151 367.882 268.253 366.258C282.264 355.121 297.677 368.346 298.378 383.659C298.939 395.909 282.264 398.971 273.857 398.971C282.498 404.076 296.416 417.068 282.965 428.205C269.514 439.342 254.474 426.813 248.636 419.156C254.007 430.061 258.444 452.427 233.223 454.654C208.002 456.882 206.367 431.917 208.702 419.156C200.996 429.133 183.621 443.1 175.774 419.156Z" fill="#14670C"/>
<path d="M184.329 451.239C175.604 424.525 197.832 421.988 210.036 424.059C197.572 417.587 178.564 401.072 202.246 386.783C225.929 372.494 242.755 392.737 248.209 404.645C243.794 392.737 241.042 368.301 265.347 365.816C295.729 362.71 272.358 411.634 276.253 404.645C279.369 399.053 284.822 394.031 287.159 392.219C302.74 379.794 319.878 394.549 320.657 411.634C321.28 425.301 302.74 428.718 293.392 428.718C302.999 434.413 318.476 448.909 303.519 461.334C288.562 473.759 271.839 459.781 265.347 451.239C271.319 463.405 276.253 488.359 248.209 490.844C220.164 493.329 218.346 465.476 220.943 451.239C212.374 462.369 193.054 477.953 184.329 451.239Z" fill="#506908"/>
<path d="M212.908 492.496C205.061 468.552 225.051 466.279 236.027 468.135C224.818 462.334 207.724 447.532 229.022 434.725C250.32 421.918 265.453 440.061 270.357 450.734C266.387 440.061 263.911 418.159 285.77 415.932C313.093 413.148 292.075 456.998 295.578 450.734C298.38 445.722 303.285 441.221 305.386 439.597C319.398 428.461 334.811 441.686 335.512 456.998C336.072 469.249 319.398 472.311 310.991 472.311C319.632 477.416 333.55 490.408 320.099 501.545C306.647 512.681 291.608 500.153 285.77 492.496C291.141 503.401 295.578 525.767 270.357 527.994C245.135 530.222 243.501 505.257 245.836 492.496C238.129 502.473 220.754 516.44 212.908 492.496Z" fill="#489C07"/>
<path d="M239.065 450.572C234.933 455.71 242.939 462.347 247.458 465.023C249.18 466.629 251.59 469.905 247.458 470.162C242.293 470.483 231.963 470.804 233.578 479.474C235.192 488.145 239.065 489.43 247.458 482.686C255.851 475.942 255.529 484.934 257.466 495.531C259.403 506.128 271.992 499.706 275.22 493.925C278.449 488.145 271.992 477.226 270.378 476.263C268.764 475.3 266.182 467.914 263.276 465.023C260.371 462.133 266.182 455.068 257.466 447.682C248.75 440.296 244.23 444.15 239.065 450.572Z" fill="#7EAA04"/>
<path d="M230.16 433.908C251.326 422.768 265.127 439.014 269.15 448.297L270.078 449.69C262.707 443.191 243.66 432.98 232.016 442.263C220.372 451.547 233.973 465.627 242.228 471.506C234.183 471.095 218.648 474.047 220.876 489.145C223.104 504.243 240.372 494.507 248.727 487.752C249.5 498.556 255.132 520.088 271.471 519.78C287.81 519.472 288.181 502.013 286.324 493.322C287.252 495.642 288.903 500.957 289.109 502.605C289.573 506.318 291.43 517.459 286.324 521.172C281.219 524.886 276.112 530.919 260.795 527.67C247.079 524.761 243.156 507.247 245.477 493.322C241.764 498.427 232.573 505.854 225.518 505.854C216.698 505.854 208.344 488.68 212.521 476.612C215.863 466.957 228.767 466.4 235.266 467.792L232.016 465.936C222.578 460.057 208.994 445.048 230.16 433.908Z" fill="#597609" fill-opacity="0.7"/>
<path d="M124.329 366.139C106.876 379.135 115.2 389.502 121.544 393.06L126.185 395.845C124.174 393.525 119.78 387.676 118.294 382.849C116.809 378.021 124.793 367.84 128.97 363.354L124.329 366.139Z" fill="#ABDE1F"/>
<path d="M261.259 369.387C285.396 362.331 278.743 389.346 272.399 403.735C273.172 395.071 273.791 376.72 270.078 372.636C265.436 367.53 255.689 371.707 261.259 369.387Z" fill="#74980F"/>
<path d="M184.206 367.995C177.894 375.05 184.361 383.622 188.384 387.026L193.025 390.739C189.216 385.633 184.719 373.287 197.203 364.746C209.687 356.205 227.779 371.708 235.265 380.528C232.635 372.637 230.809 355.462 244.548 349.892C258.288 344.322 261.413 357.474 261.259 364.746C261.723 362.734 262.651 357.876 262.651 354.534C262.651 350.356 260.794 347.107 258.938 345.251C257.081 343.394 250.118 339.217 237.586 347.107C227.56 353.42 229.695 368.614 232.016 375.422C222.732 357.783 210.664 356.855 205.094 356.855C199.524 356.855 192.097 359.176 184.206 367.995Z" fill="#7DA314"/>
<path d="M221.34 516.53L227.374 508.639L213.449 517.458L212.057 522.564L222.268 539.274L221.34 516.53Z" fill="#855633"/>
<path d="M214.098 601.48C213.355 597.395 215.027 590.185 215.955 587.091C217.812 582.449 219.204 590.34 218.74 596.374C218.276 602.409 219.668 601.48 219.204 608.907C218.74 616.334 215.026 617.262 215.955 612.156C216.883 607.05 215.027 606.586 214.098 601.48Z" fill="#855633"/>
<path d="M206.95 593.582C205.094 599.524 197.203 604.413 193.489 606.115L199.059 519.779C199.678 521.017 202.123 524.235 206.95 527.206C212.984 530.919 212.984 542.988 211.128 545.773C209.271 548.558 211.592 554.592 211.128 562.483C210.664 570.374 215.305 571.302 212.984 576.408C210.664 581.514 209.271 586.156 206.95 593.582Z" fill="#9D5823"/>
<path d="M193.489 600.08L196.738 550.414L198.131 532.775C200.916 536.179 206.579 543.173 206.95 543.915C207.414 544.844 201.38 562.482 201.38 567.124C201.38 571.766 206.022 576.872 205.094 581.049C204.351 584.391 197.048 595.129 193.489 600.08Z" fill="#855633"/>
<path d="M72.9955 150.444C68.2616 152.918 59.8649 154.059 50.0446 154.984C45.2819 154.757 35.1882 152.599 32.9214 145.781C30.0211 137.059 30.1894 132.765 44.9132 125.75C58.1936 119.422 69.4663 129.119 71.836 125.515C74.2058 121.912 67.6562 119.825 73.5723 117.915C79.4883 116.006 79.6147 117.346 80.5785 113.199C81.5424 109.052 83.2176 98.0775 92.8461 92.4379C100.549 87.9262 108.377 87.1434 111.329 87.316C111.571 80.3073 115.262 64.3655 128.083 56.6673C144.11 47.0446 152.711 44.882 174.787 56.3224C182.185 53.3717 199.722 49.2401 210.685 56.3195C224.388 65.1687 227.16 73.0209 228.463 79.658C229.505 84.9676 231.024 85.275 231.654 84.7651C237.773 82.611 247.485 86.8427 256.097 91.9802C264.709 97.1177 276.858 99.6595 279.517 103.916C279.781 103.621 279.967 103.381 280.096 103.191C279.964 102.503 280.727 102.256 280.096 103.191C280.228 103.883 281.266 105.02 285.537 105.848C297.266 108.122 315.083 114.761 309.965 117.948C310.167 120.092 308.19 123.072 307.176 124.295C310.457 125.563 315.998 130.224 311.922 138.72C307.846 147.217 301.246 147.613 298.455 146.75C300.624 150.601 292.825 149.653 280.238 154.084C267.65 158.515 262.403 151.708 261.353 147.751C260.921 152.75 257.638 155.164 238.587 154.255C219.536 153.346 224.048 164.578 225.362 161.75C224.824 165.632 212.852 152.322 204.796 153.081C198.211 153.701 201.418 163.045 202.736 164.352C202.93 164.236 203.088 164.067 203.206 163.838C203.231 164.535 203.031 164.644 202.736 164.352C200.123 165.92 190.88 157.894 180.286 157.885C168.906 157.876 166.491 169.551 164.938 167.444C162.1 170.866 152.165 161.617 144.545 161.253C136.925 160.89 135.161 172.504 134.055 170.354C130.951 173.351 127.885 158.227 122.312 156.588C116.739 154.95 108.067 170.099 106.695 167.524C105.689 171.225 105.896 158.803 99.5835 155.071C94.345 151.974 90.9747 160.285 90.487 161.737C90.511 161.695 90.535 161.652 90.5591 161.608C90.4081 162.044 90.387 162.035 90.487 161.737C86.2819 169.21 83.8329 168.245 72.9955 150.444Z" fill="#EEFDFF"/>
<path d="M73.6136 161.179C68.8797 163.653 58.3535 165.997 54.1206 155.58C49.3579 155.352 39.2654 153.194 36.9974 146.377C34.1624 137.855 37.8516 126.691 54.154 127.183C70.4563 127.675 73.5834 132.113 75.9531 128.509C78.3229 124.905 77.0832 118.938 82.9993 117.029C88.9153 115.119 89.0416 116.459 90.0055 112.312C90.9693 108.165 92.6445 97.1907 102.273 91.5511C109.976 87.0394 117.804 86.2566 120.756 86.4292C120.998 79.4205 124.689 63.4787 137.51 55.7805C153.537 46.1578 162.138 43.9952 184.214 55.4356C191.612 52.4849 209.149 48.3533 220.112 55.4326C233.815 64.2818 236.587 72.1341 237.89 78.7711C238.932 84.0808 240.451 84.3882 241.081 83.8782C247.199 81.7242 261.59 78.7006 270.202 83.8381C278.814 88.9757 286.285 98.7727 288.944 103.029C291.803 99.8305 299.868 93.8881 309.251 95.7076C320.98 97.982 324.51 113.874 319.392 117.061C319.594 119.205 317.617 122.186 316.603 123.408C319.883 124.676 325.425 129.337 321.349 137.834C317.273 146.33 310.672 146.727 307.882 145.863C310.051 149.715 311.243 158.526 298.655 162.957C286.068 167.388 280.821 160.582 279.771 156.624C279.338 161.623 273.711 171.392 254.661 170.483C238.667 169.72 234.595 165.451 234.478 162.427C233.433 166.56 230.19 172.789 223.106 173.457C215.05 174.216 212.767 166.769 212.633 162.951C210.914 166.268 204.63 172.899 193.25 172.89C181.87 172.881 175.918 168.664 174.365 166.557C171.527 169.98 163.945 176.733 156.325 176.37C148.704 176.006 144.588 171.617 143.482 169.467C140.378 172.464 132.776 178.048 127.203 176.41C121.63 174.772 117.494 169.212 116.122 166.637C115.116 170.338 111.526 176.805 105.214 173.074C98.9018 169.342 99.0986 163.284 99.986 160.722C95.7365 168.333 84.5128 179.081 73.6136 161.179Z" fill="#F3EEE1"/>
<path d="M267.281 266.09C265.709 266.911 262.921 267.29 259.66 267.597C258.079 267.522 254.727 266.805 253.974 264.541C253.011 261.645 253.067 260.219 257.956 257.89C262.366 255.788 266.11 259.008 266.896 257.812C267.683 256.615 265.508 255.922 267.473 255.288C269.438 254.654 269.479 255.099 269.8 253.722C270.12 252.345 270.676 248.701 273.873 246.828C276.431 245.33 279.031 245.07 280.011 245.127C280.091 242.8 281.317 237.506 285.574 234.95C290.896 231.754 293.752 231.036 301.083 234.835C303.54 233.855 309.363 232.483 313.003 234.834C317.554 237.773 318.474 240.38 318.907 242.584C319.253 244.347 319.758 244.449 319.967 244.28C321.998 243.565 325.224 244.97 328.083 246.676C330.943 248.382 334.977 249.226 335.86 250.639C335.948 250.541 336.01 250.462 336.052 250.399C336.009 250.17 336.262 250.088 336.052 250.399C336.097 250.628 336.441 251.006 337.859 251.281C341.754 252.036 347.671 254.241 345.971 255.299C346.038 256.011 345.382 257.001 345.045 257.407C346.134 257.828 347.975 259.376 346.621 262.197C345.267 265.018 343.076 265.15 342.149 264.863C342.869 266.142 340.279 265.827 336.1 267.299C331.92 268.77 330.177 266.51 329.829 265.196C329.685 266.855 328.595 267.657 322.269 267.355C315.943 267.054 317.441 270.783 317.877 269.844C317.699 271.133 313.723 266.713 311.048 266.965C308.861 267.172 309.926 270.274 310.364 270.708C310.428 270.67 310.481 270.614 310.52 270.537C310.528 270.769 310.462 270.805 310.364 270.708C309.496 271.229 306.427 268.564 302.909 268.561C299.13 268.558 298.328 272.435 297.813 271.735C296.87 272.871 293.571 269.8 291.041 269.679C288.51 269.559 287.924 273.415 287.557 272.701C286.527 273.696 285.509 268.674 283.658 268.13C281.807 267.586 278.927 272.617 278.472 271.762C278.138 272.99 278.207 268.865 276.11 267.626C274.371 266.598 273.252 269.358 273.09 269.84C273.098 269.826 273.106 269.812 273.114 269.797C273.064 269.942 273.057 269.939 273.09 269.84C271.693 272.321 270.88 272.001 267.281 266.09Z" fill="#FFFEEE"/>
<path d="M267.486 269.653C265.914 270.475 262.419 271.253 261.013 267.794C259.432 267.719 256.08 267.002 255.327 264.738C254.386 261.908 255.611 258.201 261.024 258.364C266.438 258.528 267.476 260.001 268.263 258.805C269.05 257.608 268.638 255.627 270.603 254.993C272.567 254.358 272.609 254.803 272.929 253.426C273.249 252.049 273.806 248.405 277.003 246.532C279.561 245.034 282.16 244.774 283.14 244.831C283.221 242.504 284.447 237.21 288.704 234.654C294.026 231.459 296.882 230.741 304.213 234.54C306.669 233.56 312.493 232.188 316.133 234.539C320.684 237.477 321.604 240.085 322.037 242.289C322.383 244.052 322.887 244.154 323.096 243.984C325.128 243.269 329.907 242.265 332.767 243.971C335.626 245.677 338.107 248.93 338.99 250.344C339.94 249.282 342.618 247.308 345.733 247.913C349.628 248.668 350.8 253.945 349.101 255.003C349.168 255.715 348.511 256.705 348.175 257.111C349.264 257.532 351.104 259.08 349.751 261.901C348.397 264.723 346.205 264.854 345.279 264.567C345.999 265.846 346.395 268.772 342.215 270.244C338.035 271.715 336.293 269.455 335.944 268.141C335.8 269.801 333.932 273.045 327.606 272.743C322.295 272.49 320.943 271.072 320.904 270.068C320.557 271.44 319.48 273.509 317.128 273.73C314.452 273.983 313.694 271.51 313.65 270.242C313.079 271.343 310.992 273.545 307.213 273.542C303.434 273.539 301.458 272.139 300.942 271.439C300 272.576 297.482 274.818 294.952 274.698C292.421 274.577 291.054 273.119 290.687 272.406C289.656 273.401 287.132 275.255 285.281 274.711C283.431 274.167 282.057 272.321 281.602 271.466C281.268 272.695 280.076 274.842 277.98 273.603C275.883 272.364 275.949 270.352 276.244 269.502C274.832 272.029 271.105 275.598 267.486 269.653Z" fill="#FFFEEE"/>
<path d="M-6.6072 290.29C-9.35051 291.724 -14.2164 292.385 -19.9072 292.921C-22.6672 292.789 -28.5164 291.538 -29.8301 287.588C-31.5108 282.533 -31.4132 280.045 -22.8808 275.979C-15.1849 272.312 -8.65239 277.932 -7.27913 275.844C-5.90587 273.755 -9.70131 272.546 -6.27297 271.44C-2.84464 270.333 -2.77143 271.11 -2.21287 268.706C-1.65431 266.303 -0.683552 259.943 4.89617 256.675C9.35995 254.061 13.8965 253.607 15.6068 253.707C15.7474 249.646 17.8861 240.407 25.3159 235.946C34.6033 230.37 39.5878 229.117 52.3805 235.747C56.6678 234.037 66.8307 231.642 73.1835 235.745C81.1245 240.873 82.7309 245.423 83.4859 249.269C84.0898 252.346 84.9702 252.525 85.3349 252.229C88.8807 250.981 94.5091 253.433 99.4998 256.41C104.491 259.387 111.531 260.86 113.072 263.327C113.224 263.156 113.332 263.017 113.407 262.907C113.331 262.508 113.773 262.365 113.407 262.907C113.484 263.308 114.085 263.967 116.56 264.447C123.357 265.765 133.682 269.611 130.716 271.458C130.833 272.701 129.687 274.428 129.1 275.136C131.001 275.871 134.212 278.572 131.85 283.496C129.488 288.42 125.663 288.649 124.046 288.149C125.303 290.381 120.783 289.831 113.489 292.399C106.195 294.967 103.154 291.023 102.545 288.729C102.295 291.626 100.393 293.025 89.3529 292.498C78.3129 291.972 80.9271 298.48 81.6886 296.842C81.3772 299.091 74.4396 291.378 69.7709 291.818C65.9548 292.177 67.8135 297.592 68.5773 298.35C68.6896 298.282 68.7809 298.184 68.8497 298.051C68.8639 298.456 68.7479 298.519 68.5773 298.35C67.0628 299.258 61.7064 294.607 55.5671 294.602C48.9724 294.597 47.5734 301.362 46.6734 300.141C45.0285 302.124 39.2716 296.764 34.8556 296.554C30.4396 296.343 29.4175 303.073 28.7768 301.828C26.9778 303.564 25.2013 294.8 21.9718 293.85C18.7422 292.901 13.7165 301.68 12.9217 300.188C12.3388 302.332 12.4584 295.134 8.80048 292.971C5.76477 291.176 3.81171 295.993 3.52907 296.834C3.54296 296.809 3.55689 296.785 3.57085 296.76C3.48338 297.012 3.47114 297.007 3.52907 296.834C1.09225 301.165 -0.326975 300.605 -6.6072 290.29Z" fill="#FFFEEE"/>
<path d="M-6.25001 296.509C-8.99332 297.942 -15.0932 299.301 -17.5462 293.264C-20.3062 293.132 -26.1547 291.881 -27.469 287.931C-29.1119 282.992 -26.974 276.523 -17.5268 276.808C-8.07965 277.093 -6.26752 279.665 -4.89426 277.576C-3.521 275.488 -4.23939 272.03 -0.811051 270.923C2.61729 269.817 2.69047 270.593 3.24903 268.19C3.80759 265.787 4.77834 259.427 10.3581 256.159C14.8218 253.545 19.3584 253.091 21.0687 253.191C21.2093 249.13 23.348 239.891 30.7779 235.43C40.0652 229.854 45.0498 228.601 57.8425 235.23C62.1298 233.52 72.2927 231.126 78.6455 235.229C86.5865 240.357 88.1928 244.907 88.9478 248.753C89.5518 251.83 90.4321 252.008 90.7967 251.713C94.3426 250.465 102.682 248.712 107.673 251.69C112.663 254.667 116.993 260.344 118.533 262.811C120.191 260.957 124.864 257.514 130.302 258.568C137.098 259.886 139.144 269.095 136.178 270.942C136.295 272.185 135.149 273.912 134.562 274.62C136.463 275.355 139.674 278.056 137.312 282.98C134.95 287.903 131.125 288.133 129.508 287.633C130.765 289.865 131.455 294.971 124.161 297.539C116.867 300.107 113.826 296.162 113.217 293.869C112.967 296.766 109.706 302.427 98.6663 301.9C89.3978 301.458 87.0386 298.984 86.9706 297.232C86.365 299.627 84.4855 303.237 80.3805 303.623C75.7118 304.063 74.3893 299.748 74.3116 297.535C73.3152 299.457 69.6737 303.3 63.079 303.295C56.4843 303.29 53.0354 300.846 52.1353 299.625C50.4905 301.608 46.0968 305.522 41.6808 305.311C37.2648 305.101 34.8794 302.557 34.2387 301.312C32.4397 303.048 28.0345 306.284 24.805 305.335C21.5754 304.385 19.1784 301.164 18.3836 299.672C17.8006 301.816 15.7203 305.564 12.0624 303.401C8.40445 301.239 8.51848 297.728 9.03274 296.243C6.57017 300.654 0.0660187 306.883 -6.25001 296.509Z" fill="#FFFEEE"/>
<path d="M403.27 90C401.698 90.8216 398.91 91.2003 395.649 91.5076C394.067 91.4322 390.715 90.7155 389.962 88.4516C388.999 85.5553 389.055 84.1295 393.945 81.7998C398.355 79.6986 402.098 82.9186 402.885 81.722C403.672 80.5253 401.497 79.8324 403.461 79.1983C405.426 78.5642 405.468 79.0093 405.788 77.6322C406.108 76.2551 406.664 72.6108 409.861 70.7381C412.419 69.2399 415.019 68.98 415.999 69.0373C416.08 66.71 417.305 61.4162 421.562 58.8599C426.884 55.6646 429.741 54.9464 437.071 58.7454C439.528 57.7656 445.351 56.3936 448.992 58.7444C453.542 61.6829 454.463 64.2904 454.895 66.4943C455.241 68.2575 455.746 68.3596 455.955 68.1902C457.987 67.475 461.212 68.8801 464.072 70.5861C466.931 72.2922 470.966 73.1362 471.849 74.5496C471.936 74.4516 471.998 74.3721 472.041 74.3088C471.997 74.0804 472.25 73.9983 472.041 74.3088C472.085 74.5385 472.429 74.9162 473.848 75.1912C477.742 75.9464 483.659 78.1508 481.959 79.209C482.026 79.9211 481.37 80.9108 481.033 81.3167C482.123 81.7379 483.963 83.2857 482.609 86.107C481.256 88.9283 479.064 89.06 478.137 88.7732C478.857 90.0523 476.268 89.7373 472.088 91.2087C467.908 92.6802 466.166 90.4199 465.817 89.1058C465.673 90.7656 464.583 91.5674 458.257 91.2656C451.931 90.9637 453.429 94.6934 453.865 93.7543C453.687 95.0433 449.712 90.6235 447.036 90.8756C444.85 91.0817 445.915 94.1845 446.352 94.6185C446.417 94.5799 446.469 94.5237 446.508 94.4476C446.516 94.6792 446.45 94.7154 446.352 94.6185C445.484 95.1389 442.415 92.4739 438.897 92.471C435.118 92.4679 434.317 96.3448 433.801 95.6451C432.858 96.7816 429.559 93.7101 427.029 93.5894C424.498 93.4687 423.913 97.3252 423.546 96.6115C422.515 97.6066 421.497 92.5843 419.646 92.0404C417.796 91.4964 414.916 96.5268 414.46 95.6718C414.126 96.9005 414.195 92.7756 412.099 91.5364C410.359 90.508 409.24 93.2678 409.078 93.7501C409.086 93.7359 409.094 93.7217 409.102 93.7073C409.052 93.8521 409.045 93.8489 409.078 93.7501C407.682 96.2315 406.868 95.911 403.27 90Z" fill="#FFFEEE"/>
<path d="M403.474 93.5636C401.902 94.3852 398.407 95.1636 397.001 91.7042C395.42 91.6287 392.069 90.9119 391.315 88.6482C390.374 85.8186 391.599 82.1113 397.013 82.2746C402.426 82.438 403.464 83.9117 404.251 82.715C405.038 81.5183 404.627 79.5368 406.591 78.9027C408.556 78.2686 408.598 78.7136 408.918 77.3365C409.238 75.9594 409.794 72.3152 412.991 70.4425C415.549 68.9443 418.149 68.6844 419.129 68.7417C419.209 66.4143 420.435 61.1206 424.692 58.5643C430.014 55.3689 432.87 54.6508 440.201 58.4497C442.658 57.4699 448.481 56.0979 452.122 58.4488C456.672 61.3873 457.592 63.9947 458.025 66.1987C458.371 67.9618 458.876 68.0639 459.085 67.8946C461.116 67.1793 465.895 66.1753 468.755 67.8813C471.615 69.5873 474.095 72.8405 474.978 74.2539C475.928 73.1918 478.606 71.2185 481.722 71.8227C485.617 72.578 486.789 77.8551 485.089 78.9134C485.156 79.6255 484.5 80.6152 484.163 81.021C485.252 81.4422 487.093 82.99 485.739 85.8114C484.385 88.6327 482.194 88.7644 481.267 88.4776C481.987 89.7566 482.383 92.6826 478.203 94.154C474.023 95.6254 472.281 93.3652 471.932 92.0511C471.789 93.7109 469.92 96.955 463.594 96.6532C458.283 96.3998 456.931 94.9822 456.892 93.9781C456.545 95.3505 455.468 97.4189 453.116 97.6406C450.441 97.8927 449.683 95.4199 449.638 94.152C449.067 95.2534 446.981 97.4555 443.202 97.4524C439.423 97.4493 437.446 96.0492 436.931 95.3495C435.988 96.4859 433.47 98.7286 430.94 98.6079C428.409 98.4871 427.043 97.0296 426.675 96.3159C425.645 97.311 423.12 99.1652 421.27 98.6212C419.419 98.0772 418.045 96.2312 417.59 95.3761C417.256 96.6049 416.064 98.7526 413.968 97.5134C411.872 96.2742 411.937 94.2626 412.232 93.4117C410.821 95.9393 407.094 99.5083 403.474 93.5636Z" fill="#FFFEEE"/>
<path d="M420.93 318.744C418.038 320.256 412.909 320.952 406.91 321.518C404 321.379 397.834 320.06 396.45 315.896C394.678 310.568 394.781 307.945 403.775 303.659C411.888 299.794 418.774 305.717 420.221 303.516C421.669 301.315 417.668 300.04 421.282 298.874C424.896 297.707 424.973 298.526 425.562 295.993C426.151 293.459 427.174 286.755 433.056 283.31C437.761 280.554 442.543 280.076 444.346 280.182C444.494 275.9 446.748 266.162 454.581 261.46C464.371 255.581 469.625 254.26 483.11 261.249C487.629 259.446 498.342 256.922 505.039 261.247C513.41 266.653 515.103 271.449 515.899 275.504C516.536 278.747 517.464 278.935 517.848 278.623C521.586 277.308 527.519 279.893 532.78 283.031C538.04 286.169 545.462 287.722 547.086 290.322C547.247 290.142 547.361 289.995 547.439 289.879C547.359 289.459 547.825 289.308 547.439 289.879C547.52 290.302 548.154 290.996 550.763 291.502C557.928 292.892 568.812 296.947 565.685 298.893C565.809 300.203 564.601 302.024 563.982 302.771C565.986 303.545 569.371 306.393 566.881 311.583C564.391 316.773 560.359 317.015 558.654 316.487C559.979 318.84 555.215 318.261 547.526 320.968C539.837 323.675 536.632 319.517 535.99 317.099C535.726 320.153 533.721 321.627 522.084 321.072C510.446 320.517 513.202 327.378 514.004 325.651C513.676 328.022 506.363 319.891 501.442 320.355C497.419 320.734 499.378 326.442 500.183 327.24C500.302 327.169 500.398 327.066 500.471 326.926C500.485 327.352 500.363 327.419 500.183 327.24C498.587 328.198 492.941 323.295 486.469 323.29C479.517 323.284 478.043 330.416 477.094 329.129C475.36 331.219 469.291 325.569 464.636 325.347C459.981 325.125 458.904 332.22 458.229 330.907C456.332 332.737 454.46 323.498 451.055 322.498C447.651 321.497 442.353 330.751 441.515 329.178C440.901 331.438 441.027 323.85 437.171 321.571C433.971 319.679 431.912 324.756 431.614 325.643C431.629 325.617 431.644 325.591 431.658 325.564C431.566 325.83 431.553 325.825 431.614 325.643C429.046 330.208 427.55 329.618 420.93 318.744Z" fill="#FFFEEE"/>
<path d="M421.306 325.299C418.415 326.81 411.985 328.242 409.399 321.878C406.49 321.74 400.324 320.421 398.939 316.257C397.207 311.051 399.461 304.232 409.419 304.532C419.378 304.832 421.288 307.543 422.736 305.342C424.183 303.141 423.426 299.496 427.04 298.329C430.654 297.163 430.731 297.981 431.32 295.448C431.908 292.915 432.932 286.211 438.813 282.766C443.519 280.01 448.301 279.532 450.104 279.637C450.252 275.356 452.507 265.617 460.339 260.915C470.129 255.037 475.383 253.716 488.868 260.704C493.387 258.902 504.1 256.378 510.797 260.702C519.168 266.108 520.861 270.905 521.657 274.959C522.293 278.202 523.221 278.39 523.606 278.079C527.344 276.763 536.134 274.916 541.395 278.054C546.656 281.193 551.22 287.177 552.844 289.777C554.591 287.823 559.517 284.193 565.249 285.305C572.414 286.694 574.57 296.402 571.443 298.349C571.567 299.659 570.359 301.479 569.74 302.226C571.744 303.001 575.129 305.848 572.639 311.038C570.149 316.228 566.117 316.47 564.412 315.943C565.737 318.296 566.465 323.678 558.776 326.385C551.087 329.092 547.882 324.934 547.24 322.517C546.976 325.57 543.539 331.538 531.901 330.982C522.131 330.516 519.644 327.909 519.573 326.061C518.934 328.586 516.953 332.391 512.626 332.799C507.704 333.263 506.31 328.714 506.229 326.381C505.178 328.407 501.34 332.458 494.388 332.453C487.436 332.447 483.801 329.871 482.852 328.584C481.118 330.675 476.487 334.8 471.832 334.578C467.177 334.356 464.662 331.675 463.987 330.362C462.09 332.193 457.447 335.604 454.042 334.603C450.638 333.602 448.111 330.206 447.273 328.633C446.659 330.894 444.466 334.845 440.61 332.565C436.754 330.285 436.874 326.585 437.416 325.02C434.821 329.669 427.964 336.235 421.306 325.299Z" fill="#FFFEEE"/>
<path d="M404.93 202.744C402.038 204.256 396.909 204.952 390.91 205.518C388 205.379 381.834 204.06 380.45 199.896C378.678 194.568 378.781 191.945 387.775 187.659C395.888 183.794 402.774 189.717 404.221 187.516C405.669 185.315 401.668 184.04 405.282 182.874C408.896 181.707 408.973 182.526 409.562 179.993C410.151 177.459 411.174 170.755 417.056 167.31C421.761 164.554 426.543 164.076 428.346 164.182C428.494 159.9 430.748 150.162 438.581 145.46C448.371 139.581 453.625 138.26 467.11 145.249C471.629 143.446 482.342 140.922 489.039 145.247C497.41 150.653 499.103 155.449 499.899 159.504C500.536 162.747 501.464 162.935 501.848 162.623C505.586 161.308 511.519 163.893 516.78 167.031C522.04 170.169 529.462 171.722 531.086 174.322C531.247 174.142 531.361 173.995 531.439 173.879C531.359 173.459 531.825 173.308 531.439 173.879C531.52 174.302 532.154 174.996 534.763 175.502C541.928 176.892 552.812 180.947 549.685 182.893C549.809 184.203 548.601 186.024 547.982 186.771C549.986 187.545 553.371 190.393 550.881 195.583C548.391 200.773 544.359 201.015 542.654 200.487C543.979 202.84 539.215 202.261 531.526 204.968C523.837 207.675 520.632 203.517 519.99 201.099C519.726 204.153 517.721 205.627 506.084 205.072C494.446 204.517 497.202 211.378 498.004 209.651C497.676 212.022 490.363 203.891 485.442 204.355C481.419 204.734 483.378 210.442 484.183 211.24C484.302 211.169 484.398 211.066 484.471 210.926C484.485 211.352 484.363 211.419 484.183 211.24C482.587 212.198 476.941 207.295 470.469 207.29C463.517 207.284 462.043 214.416 461.094 213.129C459.36 215.219 453.291 209.569 448.636 209.347C443.981 209.125 442.904 216.22 442.229 214.907C440.332 216.737 438.46 207.498 435.055 206.498C431.651 205.497 426.353 214.751 425.515 213.178C424.901 215.438 425.027 207.85 421.171 205.571C417.971 203.679 415.912 208.756 415.614 209.643C415.629 209.617 415.644 209.591 415.658 209.564C415.566 209.83 415.553 209.825 415.614 209.643C413.046 214.208 411.55 213.618 404.93 202.744Z" fill="#FFFEEE"/>
<path d="M405.306 209.299C402.415 210.81 395.985 212.242 393.399 205.878C390.49 205.74 384.324 204.421 382.939 200.257C381.207 195.051 383.461 188.232 393.419 188.532C403.378 188.832 405.288 191.543 406.736 189.342C408.183 187.141 407.426 183.496 411.04 182.329C414.654 181.163 414.731 181.981 415.32 179.448C415.908 176.915 416.932 170.211 422.813 166.766C427.519 164.01 432.301 163.532 434.104 163.637C434.252 159.356 436.507 149.617 444.339 144.915C454.129 139.037 459.383 137.716 472.868 144.704C477.387 142.902 488.1 140.378 494.797 144.702C503.168 150.108 504.861 154.905 505.657 158.959C506.293 162.202 507.221 162.39 507.606 162.079C511.344 160.763 520.134 158.916 525.395 162.054C530.656 165.193 535.22 171.177 536.844 173.777C538.591 171.823 543.517 168.193 549.249 169.305C556.414 170.694 558.57 180.402 555.443 182.349C555.567 183.659 554.359 185.479 553.74 186.226C555.744 187.001 559.129 189.848 556.639 195.038C554.149 200.228 550.117 200.47 548.412 199.943C549.737 202.296 550.465 207.678 542.776 210.385C535.087 213.092 531.882 208.934 531.24 206.517C530.976 209.57 527.539 215.538 515.901 214.982C506.131 214.516 503.644 211.909 503.573 210.061C502.934 212.586 500.953 216.391 496.626 216.799C491.704 217.263 490.31 212.714 490.229 210.381C489.178 212.407 485.34 216.458 478.388 216.453C471.436 216.447 467.801 213.871 466.852 212.584C465.118 214.675 460.487 218.8 455.832 218.578C451.177 218.356 448.662 215.675 447.987 214.362C446.09 216.193 441.447 219.604 438.042 218.603C434.638 217.602 432.111 214.206 431.273 212.633C430.659 214.894 428.466 218.845 424.61 216.565C420.754 214.285 420.874 210.585 421.416 209.02C418.821 213.669 411.964 220.235 405.306 209.299Z" fill="#FFFEEE"/>
<path d="M618.867 164.591C615.981 166.099 610.862 166.795 604.876 167.359C601.973 167.22 595.82 165.905 594.438 161.749C592.67 156.432 592.773 153.815 601.748 149.538C609.844 145.681 616.715 151.592 618.16 149.395C619.604 147.198 615.612 145.927 619.218 144.763C622.824 143.599 622.901 144.415 623.489 141.888C624.077 139.36 625.098 132.67 630.967 129.232C635.662 126.482 640.435 126.005 642.234 126.11C642.382 121.838 644.631 112.12 652.447 107.427C662.216 101.561 667.459 100.243 680.916 107.217C685.426 105.418 696.116 102.9 702.799 107.215C711.152 112.609 712.842 117.396 713.636 121.442C714.271 124.678 715.197 124.866 715.581 124.555C719.311 123.242 725.231 125.821 730.481 128.953C735.731 132.085 743.136 133.634 744.757 136.229C744.918 136.049 745.032 135.903 745.11 135.787C745.03 135.368 745.495 135.217 745.11 135.787C745.191 136.208 745.823 136.902 748.427 137.407C755.577 138.793 766.437 142.84 763.317 144.782C763.441 146.089 762.236 147.906 761.618 148.651C763.617 149.424 766.995 152.266 764.511 157.445C762.026 162.624 758.002 162.866 756.301 162.339C757.624 164.687 752.869 164.109 745.196 166.81C737.524 169.511 734.325 165.362 733.685 162.95C733.421 165.997 731.421 167.468 719.808 166.914C708.194 166.36 710.944 173.207 711.745 171.483C711.418 173.849 704.12 165.736 699.209 166.199C695.195 166.577 697.15 172.273 697.953 173.069C698.072 172.999 698.168 172.895 698.24 172.756C698.255 173.181 698.133 173.247 697.953 173.069C696.36 174.025 690.726 169.133 684.268 169.127C677.331 169.122 675.859 176.238 674.913 174.954C673.182 177.04 667.127 171.402 662.481 171.18C657.836 170.959 656.761 178.038 656.087 176.728C654.195 178.555 652.326 169.335 648.929 168.337C645.532 167.338 640.245 176.573 639.409 175.003C638.796 177.259 638.922 169.686 635.074 167.412C631.881 165.524 629.826 170.59 629.529 171.475C629.544 171.449 629.558 171.423 629.573 171.397C629.481 171.663 629.468 171.657 629.529 171.475C626.966 176.03 625.473 175.442 618.867 164.591Z" fill="#FFFEEE"/>
<path d="M619.245 171.136C616.36 172.644 609.943 174.073 607.363 167.722C604.46 167.584 598.308 166.268 596.925 162.112C595.197 156.918 597.446 150.112 607.383 150.412C617.321 150.712 619.227 153.417 620.672 151.221C622.116 149.024 621.36 145.386 624.967 144.222C628.573 143.058 628.65 143.875 629.237 141.347C629.825 138.819 630.846 132.13 636.716 128.692C641.411 125.942 646.183 125.465 647.982 125.57C648.13 121.297 650.38 111.58 658.195 106.887C667.965 101.021 673.208 99.7029 686.665 106.677C691.174 104.878 701.865 102.36 708.547 106.675C716.901 112.069 718.59 116.856 719.384 120.902C720.02 124.138 720.946 124.326 721.329 124.015C725.059 122.702 733.831 120.859 739.081 123.99C744.331 127.122 748.885 133.094 750.506 135.689C752.249 133.739 757.165 130.117 762.885 131.226C770.034 132.612 772.186 142.299 769.066 144.242C769.189 145.549 767.984 147.366 767.366 148.111C769.366 148.884 772.744 151.726 770.259 156.905C767.774 162.084 763.751 162.326 762.05 161.799C763.372 164.147 764.098 169.518 756.426 172.219C748.753 174.92 745.554 170.771 744.914 168.359C744.65 171.406 741.22 177.361 729.607 176.807C719.858 176.342 717.376 173.74 717.305 171.896C716.668 174.416 714.691 178.213 710.373 178.62C705.461 179.082 704.07 174.543 703.989 172.216C702.94 174.238 699.11 178.28 692.173 178.274C685.236 178.269 681.608 175.698 680.661 174.414C678.931 176.5 674.309 180.617 669.664 180.395C665.019 180.174 662.51 177.498 661.836 176.188C659.943 178.015 655.309 181.418 651.912 180.42C648.515 179.421 645.994 176.032 645.158 174.463C644.544 176.718 642.356 180.661 638.508 178.386C634.661 176.111 634.78 172.419 635.321 170.857C632.731 175.497 625.889 182.048 619.245 171.136Z" fill="#FFFEEE"/>
<path d="M780.867 90.5912C777.981 92.0994 772.862 92.7947 766.876 93.3588C763.973 93.2203 757.82 91.9046 756.438 87.7489C754.67 82.4321 754.773 79.8146 763.748 75.5381C771.844 71.6808 778.715 77.5919 780.16 75.3952C781.604 73.1985 777.612 71.9266 781.218 70.7625C784.824 69.5985 784.901 70.4154 785.489 67.8875C786.077 65.3596 787.098 58.6698 792.967 55.232C797.662 52.4818 802.435 52.0047 804.234 52.1099C804.382 47.8375 806.631 38.1198 814.447 33.4272C824.216 27.5614 829.459 26.2431 842.916 33.2169C847.426 31.4182 858.116 28.8997 864.799 33.2151C873.152 38.6094 874.842 43.3959 875.636 47.4417C876.271 50.6784 877.197 50.8658 877.581 50.5549C881.311 49.2418 887.231 51.8213 892.481 54.9531C897.731 58.0848 905.136 59.6342 906.757 62.2288C906.918 62.049 907.032 61.9029 907.11 61.7868C907.03 61.3675 907.495 61.2168 907.11 61.7868C907.191 62.2085 907.823 62.9017 910.427 63.4066C917.577 64.793 928.437 68.8395 925.317 70.7821C925.441 72.0894 924.236 73.9062 923.618 74.6512C925.617 75.4244 928.995 78.2657 926.511 83.4448C924.026 88.624 920.002 88.8657 918.301 88.3392C919.624 90.6872 914.869 90.109 907.196 92.8101C899.524 95.5112 896.325 91.362 895.685 88.9498C895.421 91.9966 893.421 93.4684 881.808 92.9144C870.194 92.3604 872.944 99.207 873.745 97.4831C873.418 99.8492 866.12 91.7358 861.209 92.1986C857.195 92.5769 859.15 98.2727 859.953 99.0694C860.072 98.9985 860.168 98.8954 860.24 98.7558C860.255 99.1808 860.133 99.2474 859.953 99.0694C858.36 100.025 852.726 95.1325 846.268 95.1273C839.331 95.1217 837.859 102.238 836.913 100.954C835.182 103.04 829.127 97.402 824.481 97.1804C819.836 96.9588 818.761 104.038 818.087 102.728C816.195 104.555 814.326 95.3353 810.929 94.3367C807.532 93.3382 802.245 102.573 801.409 101.003C800.796 103.259 800.922 95.6864 797.074 93.4116C793.881 91.5237 791.826 96.5899 791.529 97.4753C791.544 97.4493 791.558 97.4231 791.573 97.3968C791.481 97.6625 791.468 97.6567 791.529 97.4753C788.966 102.03 787.473 101.442 780.867 90.5912Z" fill="#FFFEEE"/>
<path d="M781.245 97.1355C778.36 98.6438 771.943 100.073 769.363 93.7222C766.46 93.5837 760.308 92.2678 758.925 88.1123C757.197 82.9179 759.446 76.1125 769.383 76.4123C779.321 76.7121 781.227 79.4174 782.672 77.2207C784.116 75.024 783.36 71.3864 786.967 70.2224C790.573 69.0584 790.65 69.8753 791.237 67.3474C791.825 64.8194 792.846 58.1297 798.716 54.6919C803.411 51.9417 808.183 51.4645 809.982 51.5697C810.13 47.2974 812.38 37.5796 820.195 32.887C829.965 27.0212 835.208 25.7029 848.665 32.6768C853.174 30.8781 863.865 28.3595 870.547 32.675C878.901 38.0692 880.59 42.8558 881.384 46.9016C882.02 50.1382 882.946 50.3256 883.329 50.0147C887.059 48.7017 895.831 46.8585 901.081 49.9903C906.331 53.122 910.885 59.0941 912.506 61.6886C914.249 59.7388 919.165 56.1165 924.885 57.2257C932.034 58.6121 934.186 68.2994 931.066 70.242C931.189 71.5493 929.984 73.3661 929.366 74.1111C931.366 74.8843 934.744 77.7256 932.259 82.9047C929.774 88.0839 925.751 88.3256 924.05 87.7991C925.372 90.1471 926.098 95.5183 918.426 98.2194C910.753 100.92 907.554 96.7713 906.914 94.359C906.65 97.4059 903.22 103.361 891.607 102.807C881.858 102.342 879.376 99.7397 879.305 97.8965C878.668 100.416 876.691 104.213 872.373 104.62C867.461 105.082 866.07 100.543 865.989 98.2156C864.94 100.238 861.11 104.28 854.173 104.274C847.236 104.269 843.608 101.698 842.661 100.414C840.931 102.5 836.309 106.617 831.664 106.395C827.019 106.174 824.51 103.498 823.836 102.188C821.943 104.015 817.309 107.418 813.912 106.42C810.515 105.421 807.994 102.032 807.158 100.463C806.544 102.718 804.356 106.661 800.508 104.386C796.661 102.111 796.78 98.4187 797.321 96.8567C794.731 101.497 787.889 108.048 781.245 97.1355Z" fill="#FFFEEE"/>
<path d="M884.867 154.591C881.981 156.099 876.862 156.795 870.876 157.359C867.973 157.22 861.82 155.905 860.438 151.749C858.67 146.432 858.773 143.815 867.748 139.538C875.844 135.681 882.715 141.592 884.16 139.395C885.604 137.198 881.612 135.927 885.218 134.763C888.824 133.599 888.901 134.415 889.489 131.888C890.077 129.36 891.098 122.67 896.967 119.232C901.662 116.482 906.435 116.005 908.234 116.11C908.382 111.838 910.631 102.12 918.447 97.4272C928.216 91.5614 933.459 90.2431 946.916 97.2169C951.426 95.4182 962.116 92.8997 968.799 97.2151C977.152 102.609 978.842 107.396 979.636 111.442C980.271 114.678 981.197 114.866 981.581 114.555C985.311 113.242 991.231 115.821 996.481 118.953C1001.73 122.085 1009.14 123.634 1010.76 126.229C1010.92 126.049 1011.03 125.903 1011.11 125.787C1011.03 125.368 1011.49 125.217 1011.11 125.787C1011.19 126.208 1011.82 126.902 1014.43 127.407C1021.58 128.793 1032.44 132.84 1029.32 134.782C1029.44 136.089 1028.24 137.906 1027.62 138.651C1029.62 139.424 1033 142.266 1030.51 147.445C1028.03 152.624 1024 152.866 1022.3 152.339C1023.62 154.687 1018.87 154.109 1011.2 156.81C1003.52 159.511 1000.32 155.362 999.685 152.95C999.421 155.997 997.421 157.468 985.808 156.914C974.194 156.36 976.944 163.207 977.745 161.483C977.418 163.849 970.12 155.736 965.209 156.199C961.195 156.577 963.15 162.273 963.953 163.069C964.072 162.999 964.168 162.895 964.24 162.756C964.255 163.181 964.133 163.247 963.953 163.069C962.36 164.025 956.726 159.133 950.268 159.127C943.331 159.122 941.859 166.238 940.913 164.954C939.182 167.04 933.127 161.402 928.481 161.18C923.836 160.959 922.761 168.038 922.087 166.728C920.195 168.555 918.326 159.335 914.929 158.337C911.532 157.338 906.245 166.573 905.409 165.003C904.796 167.259 904.922 159.686 901.074 157.412C897.881 155.524 895.826 160.59 895.529 161.475C895.544 161.449 895.558 161.423 895.573 161.397C895.481 161.663 895.468 161.657 895.529 161.475C892.966 166.03 891.473 165.442 884.867 154.591Z" fill="#FFFEEE"/>
<path d="M885.245 161.136C882.36 162.644 875.943 164.073 873.363 157.722C870.46 157.584 864.308 156.268 862.925 152.112C861.197 146.918 863.446 140.112 873.383 140.412C883.321 140.712 885.227 143.417 886.672 141.221C888.116 139.024 887.36 135.386 890.967 134.222C894.573 133.058 894.65 133.875 895.237 131.347C895.825 128.819 896.846 122.13 902.716 118.692C907.411 115.942 912.183 115.465 913.982 115.57C914.13 111.297 916.38 101.58 924.195 96.887C933.965 91.0212 939.208 89.7029 952.665 96.6768C957.174 94.8781 967.865 92.3595 974.547 96.675C982.901 102.069 984.59 106.856 985.384 110.902C986.02 114.138 986.946 114.326 987.329 114.015C991.059 112.702 999.831 110.859 1005.08 113.99C1010.33 117.122 1014.88 123.094 1016.51 125.689C1018.25 123.739 1023.16 120.117 1028.88 121.226C1036.03 122.612 1038.19 132.299 1035.07 134.242C1035.19 135.549 1033.98 137.366 1033.37 138.111C1035.37 138.884 1038.74 141.726 1036.26 146.905C1033.77 152.084 1029.75 152.326 1028.05 151.799C1029.37 154.147 1030.1 159.518 1022.43 162.219C1014.75 164.92 1011.55 160.771 1010.91 158.359C1010.65 161.406 1007.22 167.361 995.607 166.807C985.858 166.342 983.376 163.74 983.305 161.896C982.668 164.416 980.691 168.213 976.373 168.62C971.461 169.082 970.07 164.543 969.989 162.216C968.94 164.238 965.11 168.28 958.173 168.274C951.236 168.269 947.608 165.698 946.661 164.414C944.931 166.5 940.309 170.617 935.664 170.395C931.019 170.174 928.51 167.498 927.836 166.188C925.943 168.015 921.309 171.418 917.912 170.42C914.515 169.421 911.994 166.032 911.158 164.463C910.544 166.718 908.356 170.661 904.508 168.386C900.661 166.111 900.78 162.419 901.321 160.857C898.731 165.497 891.889 172.048 885.245 161.136Z" fill="#FFFEEE"/>
<path d="M823.158 273.738C819.895 275.443 814.109 276.229 807.341 276.867C804.058 276.71 797.102 275.223 795.54 270.524C793.541 264.513 793.657 261.554 803.804 256.719C812.957 252.358 820.725 259.041 822.359 256.558C823.992 254.074 819.478 252.636 823.555 251.32C827.632 250.004 827.719 250.928 828.384 248.07C829.048 245.212 830.202 237.648 836.838 233.762C842.147 230.652 847.542 230.113 849.576 230.232C849.743 225.402 852.286 214.415 861.122 209.11C872.167 202.478 878.095 200.988 893.309 208.872C898.407 206.839 910.494 203.991 918.049 208.87C927.493 214.969 929.403 220.38 930.301 224.954C931.019 228.613 932.066 228.825 932.5 228.474C936.717 226.989 943.41 229.906 949.345 233.446C955.281 236.987 963.653 238.739 965.486 241.672C965.667 241.469 965.796 241.304 965.884 241.172C965.794 240.698 966.319 240.528 965.884 241.172C965.976 241.649 966.691 242.433 969.634 243.004C977.718 244.571 989.996 249.146 986.469 251.342C986.608 252.82 985.246 254.874 984.547 255.716C986.808 256.591 990.627 259.803 987.818 265.658C985.009 271.514 980.46 271.787 978.537 271.192C980.032 273.846 974.657 273.192 965.982 276.246C957.307 279.3 953.691 274.609 952.967 271.882C952.67 275.327 950.408 276.991 937.278 276.364C924.149 275.738 927.258 283.478 928.163 281.529C927.793 284.204 919.543 275.032 913.99 275.555C909.452 275.983 911.662 282.422 912.571 283.323C912.704 283.243 912.813 283.126 912.895 282.968C912.912 283.449 912.774 283.524 912.571 283.323C910.77 284.403 904.4 278.872 897.098 278.866C889.256 278.86 887.592 286.906 886.522 285.454C884.565 287.812 877.719 281.438 872.467 281.187C867.216 280.937 866 288.94 865.238 287.459C863.099 289.524 860.986 279.101 857.145 277.972C853.304 276.843 847.328 287.283 846.382 285.509C845.689 288.059 845.831 279.498 841.481 276.926C837.871 274.792 835.548 280.52 835.212 281.521C835.229 281.491 835.245 281.462 835.262 281.432C835.158 281.732 835.143 281.726 835.212 281.521C832.314 286.67 830.626 286.005 823.158 273.738Z" fill="#FFFEEE"/>
<path d="M823.583 281.136C820.321 282.841 813.067 284.457 810.149 277.277C806.867 277.121 799.912 275.633 798.349 270.935C796.395 265.062 798.937 257.368 810.172 257.707C821.408 258.046 823.563 261.105 825.196 258.621C826.829 256.138 825.975 252.025 830.052 250.709C834.129 249.393 834.216 250.317 834.88 247.459C835.544 244.601 836.699 237.037 843.335 233.151C848.643 230.041 854.038 229.502 856.072 229.621C856.239 224.791 858.783 213.804 867.619 208.499C878.664 201.867 884.592 200.377 899.805 208.261C904.904 206.228 916.99 203.38 924.545 208.259C933.989 214.358 935.899 219.769 936.797 224.343C937.516 228.003 938.562 228.214 938.996 227.863C943.213 226.378 953.131 224.295 959.066 227.835C965.001 231.376 970.15 238.128 971.982 241.061C973.953 238.857 979.511 234.761 985.977 236.015C994.06 237.583 996.493 248.535 992.965 250.731C993.105 252.209 991.742 254.263 991.044 255.105C993.304 255.98 997.124 259.192 994.315 265.047C991.505 270.903 986.957 271.176 985.033 270.581C986.528 273.235 987.349 279.308 978.675 282.361C970 285.415 966.384 280.724 965.66 277.997C965.362 281.442 961.484 288.175 948.355 287.548C937.332 287.022 934.527 284.08 934.446 281.996C933.726 284.845 931.491 289.137 926.609 289.597C921.056 290.121 919.484 284.989 919.391 282.357C918.206 284.643 913.876 289.213 906.033 289.207C898.19 289.201 894.089 286.295 893.018 284.843C891.062 287.201 885.837 291.856 880.585 291.605C875.333 291.354 872.496 288.329 871.735 286.848C869.595 288.913 864.356 292.762 860.515 291.633C856.675 290.504 853.824 286.672 852.879 284.898C852.186 287.448 849.712 291.905 845.361 289.334C841.011 286.762 841.147 282.587 841.758 280.821C838.83 286.067 831.095 293.474 823.583 281.136Z" fill="#FFFEEE"/>
<path d="M636.433 288.157C633.686 289.593 628.813 290.255 623.114 290.792C620.35 290.66 614.493 289.407 613.177 285.451C611.494 280.389 611.592 277.898 620.136 273.826C627.843 270.154 634.385 275.782 635.76 273.69C637.136 271.599 633.335 270.388 636.768 269.28C640.201 268.172 640.274 268.949 640.834 266.543C641.393 264.136 642.365 257.768 647.953 254.495C652.423 251.877 656.966 251.422 658.679 251.522C658.82 247.455 660.961 238.204 668.402 233.736C677.702 228.152 682.694 226.897 695.505 233.536C699.798 231.824 709.976 229.426 716.337 233.534C724.29 238.67 725.898 243.227 726.654 247.078C727.259 250.16 728.141 250.338 728.506 250.042C732.057 248.792 737.693 251.248 742.691 254.229C747.689 257.211 754.739 258.686 756.282 261.156C756.435 260.985 756.543 260.846 756.618 260.735C756.541 260.336 756.984 260.192 756.618 260.735C756.695 261.136 757.297 261.796 759.776 262.277C766.582 263.597 776.922 267.449 773.952 269.299C774.069 270.543 772.922 272.273 772.333 272.982C774.237 273.718 777.453 276.423 775.088 281.354C772.722 286.284 768.892 286.514 767.272 286.013C768.531 288.248 764.005 287.698 756.7 290.269C749.396 292.841 746.351 288.891 745.741 286.594C745.49 289.495 743.586 290.896 732.53 290.369C721.474 289.841 724.092 296.359 724.855 294.718C724.543 296.971 717.595 289.247 712.92 289.687C709.098 290.047 710.96 295.47 711.725 296.228C711.837 296.161 711.928 296.063 711.997 295.93C712.012 296.334 711.895 296.398 711.725 296.228C710.208 297.138 704.844 292.48 698.696 292.475C692.092 292.47 690.691 299.245 689.79 298.022C688.142 300.009 682.377 294.641 677.955 294.43C673.533 294.219 672.509 300.959 671.867 299.711C670.066 301.45 668.287 292.673 665.053 291.723C661.819 290.772 656.786 299.563 655.99 298.069C655.406 300.216 655.526 293.008 651.863 290.842C648.823 289.045 646.867 293.868 646.584 294.711C646.598 294.686 646.612 294.661 646.626 294.636C646.538 294.889 646.526 294.883 646.584 294.711C644.144 299.047 642.722 298.487 636.433 288.157Z" fill="#FFFEEE"/>
<path d="M636.791 294.385C634.044 295.821 627.935 297.181 625.479 291.135C622.715 291.004 616.858 289.751 615.542 285.795C613.897 280.85 616.038 274.371 625.498 274.656C634.959 274.942 636.774 277.517 638.149 275.426C639.524 273.335 638.805 269.872 642.238 268.763C645.671 267.655 645.744 268.433 646.304 266.026C646.863 263.62 647.835 257.251 653.423 253.978C657.893 251.36 662.436 250.906 664.149 251.006C664.29 246.939 666.431 237.687 673.872 233.22C683.172 227.636 688.164 226.381 700.975 233.02C705.268 231.307 715.446 228.91 721.807 233.018C729.76 238.153 731.368 242.71 732.124 246.562C732.729 249.643 733.611 249.821 733.976 249.526C737.527 248.276 745.878 246.521 750.876 249.502C755.874 252.484 760.209 258.169 761.752 260.639C763.411 258.783 768.092 255.334 773.537 256.39C780.343 257.71 782.392 266.933 779.422 268.782C779.539 270.027 778.392 271.756 777.803 272.465C779.707 273.202 782.923 275.906 780.558 280.837C778.192 285.768 774.362 285.998 772.742 285.497C774.001 287.732 774.692 292.845 767.388 295.417C760.083 297.988 757.038 294.038 756.429 291.742C756.178 294.642 752.912 300.312 741.857 299.784C732.575 299.341 730.212 296.864 730.144 295.109C729.538 297.508 727.656 301.122 723.545 301.51C718.87 301.95 717.545 297.629 717.467 295.413C716.47 297.338 712.823 301.186 706.219 301.181C699.615 301.176 696.161 298.729 695.26 297.506C693.612 299.492 689.212 303.411 684.79 303.2C680.368 302.989 677.979 300.442 677.337 299.195C675.536 300.934 671.124 304.174 667.89 303.224C664.656 302.273 662.256 299.047 661.46 297.553C660.876 299.7 658.793 303.453 655.13 301.288C651.466 299.122 651.581 295.606 652.096 294.119C649.63 298.537 643.116 304.774 636.791 294.385Z" fill="#FFFEEE"/>
<path d="M998.766 273.939C995.504 275.644 989.717 276.43 982.949 277.068C979.667 276.911 972.711 275.424 971.148 270.725C969.15 264.714 969.266 261.755 979.413 256.92C988.565 252.559 996.334 259.242 997.967 256.759C999.6 254.275 995.086 252.837 999.164 251.521C1003.24 250.205 1003.33 251.129 1003.99 248.271C1004.66 245.413 1005.81 237.85 1012.45 233.963C1017.76 230.854 1023.15 230.314 1025.18 230.433C1025.35 225.603 1027.89 214.616 1036.73 209.311C1047.78 202.679 1053.7 201.189 1068.92 209.073C1074.02 207.04 1086.1 204.192 1093.66 209.071C1103.1 215.17 1105.01 220.581 1105.91 225.155C1106.63 228.815 1107.67 229.027 1108.11 228.675C1112.33 227.191 1119.02 230.107 1124.95 233.648C1130.89 237.188 1139.26 238.94 1141.09 241.873C1141.28 241.67 1141.4 241.505 1141.49 241.374C1141.4 240.899 1141.93 240.729 1141.49 241.374C1141.58 241.85 1142.3 242.634 1145.24 243.205C1153.33 244.772 1165.6 249.347 1162.08 251.543C1162.22 253.021 1160.85 255.075 1160.16 255.918C1162.42 256.792 1166.24 260.004 1163.43 265.859C1160.62 271.715 1156.07 271.988 1154.15 271.393C1155.64 274.047 1150.27 273.394 1141.59 276.447C1132.92 279.501 1129.3 274.81 1128.58 272.083C1128.28 275.528 1126.02 277.192 1112.89 276.565C1099.76 275.939 1102.87 283.68 1103.77 281.731C1103.4 284.406 1095.15 275.233 1089.6 275.756C1085.06 276.184 1087.27 282.623 1088.18 283.524C1088.31 283.444 1088.42 283.327 1088.5 283.169C1088.52 283.65 1088.38 283.725 1088.18 283.524C1086.38 284.604 1080.01 279.073 1072.71 279.067C1064.86 279.061 1063.2 287.107 1062.13 285.655C1060.17 288.013 1053.33 281.639 1048.08 281.388C1042.82 281.138 1041.61 289.142 1040.85 287.66C1038.71 289.726 1036.59 279.302 1032.75 278.173C1028.91 277.044 1022.94 287.485 1021.99 285.71C1021.3 288.26 1021.44 279.699 1017.09 277.127C1013.48 274.993 1011.16 280.721 1010.82 281.722C1010.84 281.692 1010.85 281.663 1010.87 281.633C1010.77 281.933 1010.75 281.927 1010.82 281.722C1007.92 286.872 1006.23 286.206 998.766 273.939Z" fill="#FFFEEE"/>
<path d="M999.192 281.337C995.929 283.042 988.675 284.658 985.758 277.478C982.476 277.322 975.52 275.834 973.957 271.136C972.003 265.263 974.546 257.569 985.781 257.908C997.016 258.247 999.171 261.306 1000.8 258.822C1002.44 256.339 1001.58 252.226 1005.66 250.91C1009.74 249.594 1009.82 250.518 1010.49 247.66C1011.15 244.802 1012.31 237.239 1018.94 233.352C1024.25 230.243 1029.65 229.703 1031.68 229.822C1031.85 224.992 1034.39 214.005 1043.23 208.7C1054.27 202.068 1060.2 200.578 1075.41 208.462C1080.51 206.429 1092.6 203.581 1100.15 208.46C1109.6 214.559 1111.51 219.97 1112.41 224.544C1113.12 228.204 1114.17 228.416 1114.6 228.064C1118.82 226.58 1128.74 224.496 1134.67 228.036C1140.61 231.577 1145.76 238.329 1147.59 241.262C1149.56 239.058 1155.12 234.963 1161.59 236.217C1169.67 237.784 1172.1 248.736 1168.57 250.932C1168.71 252.41 1167.35 254.464 1166.65 255.307C1168.91 256.181 1172.73 259.393 1169.92 265.248C1167.11 271.104 1162.56 271.377 1160.64 270.782C1162.14 273.436 1162.96 279.509 1154.28 282.563C1145.61 285.616 1141.99 280.925 1141.27 278.198C1140.97 281.643 1137.09 288.376 1123.96 287.749C1112.94 287.224 1110.14 284.281 1110.05 282.198C1109.33 285.046 1107.1 289.339 1102.22 289.799C1096.66 290.322 1095.09 285.19 1095 282.558C1093.81 284.844 1089.48 289.414 1081.64 289.408C1073.8 289.402 1069.7 286.496 1068.63 285.044C1066.67 287.402 1061.45 292.057 1056.19 291.806C1050.94 291.556 1048.1 288.531 1047.34 287.049C1045.2 289.115 1039.96 292.963 1036.12 291.834C1032.28 290.705 1029.43 286.874 1028.49 285.099C1027.79 287.649 1025.32 292.107 1020.97 289.535C1016.62 286.963 1016.76 282.788 1017.37 281.022C1014.44 286.268 1006.7 293.675 999.192 281.337Z" fill="#FFFEEE"/>
</g>
<defs>
<filter id="filter0_f" x="819" y="-144" width="461" height="461" filterUnits="userSpaceOnUse" color-interpolation-filters="sRGB">
<feFlood flood-opacity="0" result="BackgroundImageFix"/>
<feBlend mode="normal" in="SourceGraphic" in2="BackgroundImageFix" result="shape"/>
<feGaussianBlur stdDeviation="25" result="effect1_foregroundBlur"/>
</filter>
<filter id="filter1_f" x="906.546" y="-70.541" width="285.027" height="285.027" filterUnits="userSpaceOnUse" color-interpolation-filters="sRGB">
<feFlood flood-opacity="0" result="BackgroundImageFix"/>
<feBlend mode="normal" in="SourceGraphic" in2="BackgroundImageFix" result="shape"/>
<feGaussianBlur stdDeviation="5" result="effect1_foregroundBlur"/>
</filter>
<filter id="filter2_f" x="925.319" y="-73.7793" width="256.285" height="256.285" filterUnits="userSpaceOnUse" color-interpolation-filters="sRGB">
<feFlood flood-opacity="0" result="BackgroundImageFix"/>
<feBlend mode="normal" in="SourceGraphic" in2="BackgroundImageFix" result="shape"/>
<feGaussianBlur stdDeviation="7.5" result="effect1_foregroundBlur"/>
</filter>
<filter id="filter3_f" x="530" y="203" width="12" height="13" filterUnits="userSpaceOnUse" color-interpolation-filters="sRGB">
<feFlood flood-opacity="0" result="BackgroundImageFix"/>
<feBlend mode="normal" in="SourceGraphic" in2="BackgroundImageFix" result="shape"/>
<feGaussianBlur stdDeviation="2" result="effect1_foregroundBlur"/>
</filter>
<filter id="filter4_f" x="645" y="153" width="12" height="12" filterUnits="userSpaceOnUse" color-interpolation-filters="sRGB">
<feFlood flood-opacity="0" result="BackgroundImageFix"/>
<feBlend mode="normal" in="SourceGraphic" in2="BackgroundImageFix" result="shape"/>
<feGaussianBlur stdDeviation="2" result="effect1_foregroundBlur"/>
</filter>
<filter id="filter5_f" x="873" y="240" width="12" height="13" filterUnits="userSpaceOnUse" color-interpolation-filters="sRGB">
<feFlood flood-opacity="0" result="BackgroundImageFix"/>
<feBlend mode="normal" in="SourceGraphic" in2="BackgroundImageFix" result="shape"/>
<feGaussianBlur stdDeviation="2" result="effect1_foregroundBlur"/>
</filter>
<linearGradient id="paint0_linear" x1="576" y1="-141" x2="576" y2="1169" gradientUnits="userSpaceOnUse">
<stop offset="0.101266" stop-color="#48255D"/>
<stop offset="0.456489" stop-color="#B36B5D"/>
<stop offset="0.587786" stop-color="#FE8248"/>
</linearGradient>
<clipPath id="clip0">
<rect width="1152" height="700" fill="white"/>
</clipPath>
</defs>
</svg>
