<svg width="1152" height="700" viewBox="0 0 1152 700" fill="none" xmlns="http://www.w3.org/2000/svg">
<g clip-path="url(#clip0)">
<rect width="1152" height="700" fill="white"/>
<rect y="-22" width="1152" height="699" fill="#FED82D"/>
<rect y="-22" width="1152" height="699" fill="url(#paint0_linear)"/>
<circle cx="810.915" cy="354.102" r="126.102" fill="#F9982D"/>
<path d="M824.383 311.252L922.357 289.215L933.345 303.677L824.383 311.252Z" fill="#FCC02F"/>
<path d="M788.878 401.99L937.922 391.208L950.276 416.447L788.878 401.99Z" fill="#FCD22F"/>
<path d="M774.132 338.915L674.966 354.75L664.909 339.626L774.132 338.915Z" fill="#FCCA2F"/>
<circle cx="810.915" cy="354.102" r="111.411" fill="#EB891D" fill-opacity="0.4"/>
<path d="M123.96 329.784C113.253 346.867 33.5256 410.454 -5 440.113V554H2.2996H1197V405.708C1192.13 405.708 1176.32 403.573 1151.99 395.031C1121.57 384.354 1106.97 363 1087.51 351.137C1068.04 339.274 931.781 440.113 898.933 419.944C866.085 399.776 824.721 398.59 804.039 405.708C783.356 412.826 717.66 387.913 704.277 383.168C690.895 378.423 664.13 351.137 643.447 351.137C622.765 351.137 621.549 323.852 603.3 317.92C585.051 311.987 533.953 345.205 479.206 373.677C424.46 402.149 404.994 381.982 372.146 373.677C339.298 365.373 304.016 342.833 294.283 351.137C284.551 359.441 266.302 370.118 259.002 363C251.702 355.882 228.587 346.392 205.472 323.852C182.356 301.312 137.342 308.43 123.96 329.784Z" fill="#6F5B29"/>
<path d="M28 493C21.6 507.4 6.66667 517 0 520C0 615 12 561 49 578C86 595 122 587 211 567C300 547 669.5 571 896 602C1122.5 633 1148 501 1145 493C1142 485 1136 451 1136 439C1136 429.4 1127.33 410.333 1123 402C1124.33 409.667 1126.2 427.8 1123 439C1119 453 1128 462 1136 493C1144 523.999 1105 520 1096 520H1079C1073 520 1075 467 1079 462C1082.2 458.001 1084.33 455.667 1085 455C1088 446.667 1092.8 427.2 1088 416C1083.2 404.8 1086 386 1088 378C1086.33 382.667 1082.2 395.6 1079 410C1075 428 1064 430 1054 439C1044 448 1039 462 1030 482.999C1021 503.999 1013 462 1007 451C1001 440 1022 439 1039 416C1052.6 397.6 1054.67 383 1054 378C1042.67 386.333 1014.6 405.6 993 416C966 429 964 430 957 451C950 472 907 462 896 462C885 462 866 451 863 462C860.6 470.801 867.333 483 871 487.999C868 487.999 858.6 486.999 845 482.999C828 477.999 818 437 806 439C794 441 732 430 726 416C720 402 669.5 392 679 384C688.5 376.001 674.5 365 669.5 360.5C664.5 356 647 351 639.5 351C632 351 624 340 615 329C615 337.8 604.333 356.667 599 365C602.333 363.333 610.2 361 615 365C621 370 620 409 656 410C692 411 672 446 679 462C681 473 627.003 473 599.002 473H599C576.6 473 596.333 455 609 446C599.667 449.667 577.8 458 565 462C552.2 466.001 563.667 442.334 571 430C565 430 551.6 433.2 546 446C540.4 458.8 517 454.667 506 451C503 458.333 497 475 497 482.999C497 492.999 478 501 475 482.999C472.6 468.599 464.667 494.999 461 510C445 510 407.2 508.2 384 501C357 482 384 493 384 482.999C384 472.999 359 482.999 351 482.999C343 482.999 339 473 339 462C339 451 311 430 300 416C289 402 288 408 288 392C288 379.2 270.667 368.667 262 365C249.333 357.333 222.4 340.4 216 334C189.6 306 166.333 308.334 158 313C164.667 313.334 180.4 315.8 190 323C202 332 200 351 202 360C204 369 224 378 240 384C256 390 267 404 259 430C251 456 244 447 240 462C236.8 474 219.333 474.334 211 473C206.667 474.334 196.4 478.2 190 482.999C182 488.999 173 487.999 158 482.999C143 477.999 116 477.999 107 487.999C99.8 495.999 96 487.999 95 482.999C89.6667 482.999 78 484.999 74 493C69 503 28 512 34 510C40 508 36 475 28 493Z" fill="#5C4116"/>
<path d="M397 506C248.2 478 69.6667 511 -1 531V701H1152V467C842 562 583 541 397 506Z" fill="#D59045"/>
<path d="M-1 702V531C79 496 284.603 493.303 321 496C361.5 499 471 518 498 522C519.6 525.2 569 529.333 591 531C477.4 531 406.333 645 385 702H-1Z" fill="#99993E"/>
<path d="M120.719 566.752C136.427 563.401 45.4513 572.059 -2 576.807V679.866C6.59031 682.38 26.2253 685.899 36.0428 679.866C48.3147 672.325 99.8566 679.866 87.5847 687.407C75.3128 694.948 120.719 684.056 144.035 679.866C167.352 675.677 161.216 687.407 234.847 679.866C308.478 672.325 323.205 668.974 341.613 636.296C360.02 603.619 266.754 616.187 240.983 601.105C215.212 586.023 225.03 595.24 207.849 601.105C190.668 606.97 178.397 595.24 184.533 576.807C190.668 558.374 92.4934 589.375 55.6778 584.348C18.8622 579.32 101.084 570.942 120.719 566.752Z" fill="#838733"/>
<path d="M124.389 615H-6V659.333C10.8244 659.333 46.7163 660.5 55.6893 665.167C66.9056 671 158.038 659.333 181.872 659.333C195.332 659.333 176.264 667.111 165.048 671C186.545 670.222 239.075 666.8 277.21 659.333C324.879 650 338.899 627.833 292.632 620.833C246.365 613.833 97.7502 623.167 107.564 620.833C115.416 618.967 122.052 616.167 124.389 615Z" fill="#6E752F"/>
<path d="M415 681C408.6 684.2 392.333 695 385 700H375C376.667 693.667 381 677.8 385 665C390 649 403 630 421 613C435.4 599.4 443.667 584.667 446 579L487 557L507 546C514 543.334 529 536.8 533 532C537 527.201 542 528.5 544 528.5L605 533.5C601.333 533.834 591.2 532.8 580 532C568.8 531.2 569.333 541 571 546H544C538 548.667 524.8 553.6 520 552C514 550 505 571 483 579C465.4 585.4 469 592.334 473 595C468 596.667 457.2 600.6 454 603C450.8 605.4 447.333 616.667 446 622C442.333 623.334 432.2 630 421 646C407 666 423 677 415 681Z" fill="#96C753"/>
<path d="M422 681C415.6 684.2 399.333 695 392 700H382C383.667 693.666 388 677.8 392 665C397 649 410 630 428 613C442.4 599.4 450.667 584.666 453 579L494 557L514 546C521 543.333 536 536.8 540 532C544 527.2 547.5 527.5 549.5 527.5L611.5 534C607.833 534.333 598.2 532.8 587 532C575.8 531.2 576.333 541 578 546H551C545 548.667 531.8 553.6 527 552C521 550 512 571 490 579C472.4 585.4 476 592.333 480 595C475 596.666 464.2 600.6 461 603C457.8 605.4 454.333 616.666 453 622C449.333 623.333 439.2 630 428 646C414 666 430 677 422 681Z" fill="#5E752F"/>
<path d="M406 681C399.6 684.2 383.333 695 376 700H366C367.667 693.667 372 677.8 376 665C381 649 394 630 412 613C426.4 599.4 434.667 584.667 437 579L478 557L498 546C505 543.333 520 536.8 524 532C528 527.2 533 526 535 526L596 532C592.333 532.334 582.2 532.8 571 532C559.8 531.2 560.333 541 562 546H535C529 548.667 515.8 553.6 511 552C505 550 496 571 474 579C456.4 585.4 460 592.333 464 595C459 596.667 448.2 600.6 445 603C441.8 605.4 438.333 616.667 437 622C433.333 623.333 423.2 630 412 646C398 666 414 677 406 681Z" fill="#99993E"/>
<path d="M165.469 502.972C177.187 496.647 215.601 495.246 231 495.999L293 495.999L350 499L317.5 517.5C317.5 506.205 299.325 519.914 289.41 519.914C277.016 519.914 283.38 527.816 280 542.5C276.62 557.184 260.027 543.87 242 545C223.972 546.13 248 560.577 216.172 560.577C194.498 560.577 191.384 558.318 171.103 551.541C150.821 544.764 155.106 529.389 167.5 526C179.894 522.611 178.99 521.044 171.103 514.267C163.216 507.49 150.822 510.879 165.469 502.972Z" fill="#838733"/>
<path d="M177 502C187.4 496.4 217.333 496.334 231 497L339 498.5L319 512C319 502 295.8 517 287 517C276 517 280 521 277 534C274 547 253 538 237 539C221 540 241 556 222 553C203 550 200 551 182 545C164 539 166 532 177 529C188 526 189 518 182 512C175 506 164 509 177 502Z" fill="#AAB147"/>
<path d="M383 684C379.8 691.6 365.333 697.167 358.5 699H383V696L409.5 679C409.5 677 407.5 672.9 407.5 670.5C406 642 428 628 437.5 623C436.3 619 442.333 608.667 445.5 604L465 595C464.167 591.333 461.8 583 471 581C480.2 579 502 561.833 511 553C519.4 552.2 531.833 547.334 536.5 545.5H561.5C563.5 528.986 578 534 589.5 531.5C573.667 530 543.6 527.2 550 528C558 529 539 533.5 528.5 537C518 540.5 505 541.5 499 545.5C493 549.5 492.5 551.5 483.5 556C474.5 560.5 468.5 568.5 465 573C461.5 577.5 454.5 584 443.5 586.5C432.5 589 431.5 592.5 431.5 602C431.5 611.5 414 625.5 401.5 641.5C389 657.5 386 654 386 658.5C386 663 387 674.5 383 684Z" fill="#68792B"/>
<path d="M350 662C350.401 659.909 352.289 656.354 356.625 658.863C360.961 661.373 354.015 662 350 662Z" fill="#F1FFC3"/>
<path d="M71 625C71.4015 622.909 73.2885 619.354 77.6246 621.863C81.9607 624.373 75.0149 625 71 625Z" fill="#F1FFC3"/>
<path d="M141 543C141.401 540.909 143.289 537.354 147.625 539.863C151.961 542.373 145.015 543 141 543Z" fill="#F1FFC3"/>
<path d="M348.538 647.44C346.704 646.359 343.991 643.386 347.812 640.146C351.634 636.907 349.889 643.659 348.538 647.44Z" fill="#F1FFC3"/>
<path d="M62.767 620.88C60.9326 619.798 58.2193 616.825 62.0409 613.586C65.8626 610.346 64.1173 617.099 62.767 620.88Z" fill="#F1FFC3"/>
<path d="M356.577 639.883C358.992 638.249 363.898 635.954 364.2 639.849C364.501 643.743 359.244 641.494 356.577 639.883Z" fill="#F1FFC3"/>
<path d="M393 528.433C395.415 526.8 400.321 524.505 400.623 528.399C400.924 532.294 395.667 530.045 393 528.433Z" fill="#F1FFC3"/>
<path d="M366 518.433C368.415 516.8 373.321 514.505 373.623 518.399C373.924 522.294 368.667 520.045 366 518.433Z" fill="#F1FFC3"/>
<path d="M157 535.433C159.415 533.8 164.321 531.505 164.623 535.399C164.924 539.294 159.667 537.045 157 535.433Z" fill="#F1FFC3"/>
<path d="M1050 701C1074.8 698.6 1129.33 694 1152 701V536L1145 554C1145 560.667 1128 572.4 1128 586C1128 599.6 1040.83 619 1030.5 622C1035.17 621 1108.4 615.6 1122 622C1139 630 1116 628 1122 654C1126.8 674.8 1090.67 674 1072 671L1002 689C990 701 1025.2 703.4 1050 701Z" fill="#B2782B"/>
<path d="M1152 685H1091.93C1090.86 685.1 1089.88 685.102 1089 685H1091.93C1101.36 684.117 1117.53 675.576 1131 663C1144.18 650.699 1133 637 1136 631C1138.4 626.2 1123.67 615 1116 610L1136 589C1137.33 589.667 1140.4 589.6 1142 584C1143.6 578.4 1149.33 572.333 1152 570V685Z" fill="#A36F33"/>
<path d="M448.626 693.78C457.045 704.312 563.05 705.541 615 704.839L558.373 700.099C541.168 697.993 504.753 693.78 496.735 693.78C486.712 693.78 468.17 685.354 456.645 685.88C445.119 686.407 448.626 672.188 448.626 663.762C448.626 655.337 469.674 645.33 473.683 642.17C477.692 639.011 473.683 626.898 478.694 616.893C482.703 608.888 506.423 608.291 517.782 608.993L510.766 603.201C509.43 603.201 506.056 601.515 503.249 594.774C499.741 586.348 526.301 583.715 536.825 569.497C547.348 555.278 559.877 562.124 578.418 562.124C596.96 562.124 590.946 547.378 590.946 540.006C590.946 534.108 614.534 536 612.5 533C607.656 533.527 584.332 532.317 581.926 535.266C578.919 538.953 589.443 547.379 578.418 553.172C567.393 558.964 553.362 551.592 547.348 553.172C541.335 554.751 528.306 555.805 526.301 562.124C524.297 568.444 504.252 582.662 493.728 586.349C485.309 589.298 492.225 598.812 496.735 603.201C491.556 603.903 479.696 606.044 473.683 608.993C466.166 612.68 467.168 618.473 464.663 631.638C462.157 644.804 440.107 652.177 433.091 663.762C426.075 675.348 438.102 680.614 448.626 693.78Z" fill="#C77835"/>
<path d="M672.976 564.34C659.386 560.458 645.996 568.17 641 572.511C647.931 574.073 660.1 570.664 670.997 573.12C681.895 575.575 699.615 572.052 704.904 566.41C699.924 567.338 686.566 568.223 672.976 564.34Z" fill="#A36F33"/>
<path d="M936.976 660.34C923.386 656.458 909.996 664.17 905 668.511C911.931 670.073 924.1 666.664 934.997 669.12C945.895 671.575 963.615 668.052 968.904 662.41C963.924 663.338 950.566 664.223 936.976 660.34Z" fill="#A36F33"/>
<path d="M699.994 632.578C687.194 643.778 701.994 655.912 710.994 660.578L747.994 668.578L756.994 676.578H772.994C785.994 671.245 813.994 659.178 821.994 653.578C831.994 646.578 885.994 632.578 884.994 619.578C883.994 606.578 838.994 624.579 821.994 632.578C804.994 640.578 776.994 625.578 764.994 619.578C752.994 613.578 715.994 618.578 699.994 632.578Z" fill="#B2782B" fill-opacity="0.7"/>
<path d="M927.661 606.387C919.585 606.344 912.845 607.942 910.485 608.747C910.326 611.582 910.983 618.067 914.889 621.318C919.771 625.383 923.01 612.997 926.049 611.138C929.088 609.279 932.242 612.758 942.778 611.517C953.313 610.275 937.757 606.441 927.661 606.387Z" fill="#EAAF63"/>
<path d="M563.122 651.215C547.367 650.899 538.819 643.239 528.317 636.736C513.177 628.407 528.183 599.553 540.078 611.197C551.973 622.841 566.691 606.164 574.198 611.624C581.705 617.084 591.841 610.012 607.922 618.2C619.738 618.437 597.572 653.389 591.172 650.9C584.773 648.412 582.816 651.61 563.122 651.215Z" fill="#B2782B" fill-opacity="0.7"/>
<path d="M761.811 637.954C758 623.471 729.738 642.46 720.991 644.713C728.766 647.931 730.817 672.561 768.5 660C845 634.5 765.521 652.052 761.811 637.954Z" fill="#EAAF63"/>
<path d="M727.794 591.609C713.021 598.561 744.317 599.655 761.811 599.333C776.39 599.333 810.212 597.788 828.872 591.609C852.198 583.885 803.603 579.057 761.811 576.161C720.019 573.264 746.261 582.919 727.794 591.609Z" fill="#EAAF63"/>
<path d="M994.096 576.161C980.878 582.34 967.207 584.528 962.023 584.85C966.235 587.103 977.185 591.609 987.293 591.609C999.928 591.609 1007.7 584.85 1028.11 576.161C1048.52 567.471 1010.62 568.436 994.096 576.161Z" fill="#EAAF63"/>
<path d="M586.868 637.954C571.318 637.954 539.569 642.46 525.638 644.713C499.397 637.954 525.638 628.299 561.599 623.471C597.559 618.644 606.306 637.954 586.868 637.954Z" fill="#EAAF63"/>
<path d="M1003 518C991 516.4 998 509.333 1003 506L1109 480C1107.33 484.333 1106.8 498.8 1090 502C1069 506 1069 511 1064 524C1059 537 1047 530 1037 518C1027 506 1018 520 1003 518Z" fill="#BE8034"/>
<path d="M1055 493.5C1041.53 497.769 1010 500.5 1027 505.5C1034.1 505.674 1038.76 521.998 1049.93 522.271C1061.1 522.544 1076.12 496.624 1080.2 490.055C1075.5 488 1069.85 488.794 1055 493.5Z" fill="#B65B24" fill-opacity="0.8"/>
<path d="M423 677.5L391.5 700.5H466.5C461.667 699 452.6 693.3 449 690.5C444.5 687 431.5 679 431.5 670C431.5 661 453.5 645.5 460.5 640.5C467.5 635.5 465 618.5 469.5 612.5C473.1 607.7 490 604.5 498 603.5C497.667 603 498.3 600.657 495.5 598.657C486.5 588.657 491.5 586.657 504.5 581.657C517.5 576.657 526.5 566.5 531.5 560.5C536.5 554.5 546.5 554.5 551.5 554C555.5 553.6 566.167 555.167 571 556C576.833 554.833 587.4 550.4 583 542C578.6 533.6 588.833 532.167 594.5 532.5C593 532 588.4 531.3 582 532.5C575.6 533.7 576.667 541.667 578 545.5H551.5C549.333 547.5 540.288 550.868 534.5 550C524.5 548.5 523.5 551.5 515.5 561.5C507.5 571.5 488 578 480 582.5C473.6 586.1 477.333 593.834 480 596C475.5 594.5 464.1 599.8 460.5 601C456.9 602.2 453.333 616.334 452 622C448.833 624.5 441.6 630.4 438 634C420 648.4 419.667 669 423 677.5Z" fill="#A36F33"/>
<path d="M117 414C71.4 426 23.3333 430.167 6 431.5C42.3333 402.833 118.5 337 126 326C134.864 313 150.667 311.333 158 311C159 316 163 331 175 347C190 367 177 366 180 388C183 410 208 421 196 433C184 445 174 399 117 414Z" fill="#847F47"/>
<path d="M282 392C284.4 384 272.333 372 266 367C265.5 366.667 264 365.8 262 365C264 365 268.5 365 272.5 364C279.3 362.8 290.667 354.5 295.5 350.5C309 346 335 361.5 342 364C349 366.5 372.5 374 379.5 376C386.5 378 405.5 386 426 389C446.5 392 468 378.5 473.5 377C479 375.5 544.5 339.5 563 329.5C577.8 321.5 587.167 319.167 590 319C592.333 320.333 596.8 326 596 338C595 353 574 367 581 360C586.6 354.4 583.333 343 581 338L568 347C553.667 359 521.8 383.6 509 386C493 389 457 392 433 408C409 424 380 418 365 413C353 409 340 418 335 423C336.333 425.667 340.8 433.8 348 445C357 459 322 448 312 436C302 424 279 402 282 392Z" fill="#857E47"/>
<path d="M693.5 378.5C694.486 378.955 695.81 379.638 697.372 380.535C705.068 383.913 721.575 389.569 730.5 392.5C749 398.667 789.3 410.1 802.5 406.5C819 402 824.5 401 848 403C871.5 405 887 414 893.5 417C900 420 899.5 426 924.5 420.5C949.5 415 1009.5 383.5 1031 371.5C1048.2 361.9 1069.17 354.167 1077.5 351.5V361.5C1077.5 367.5 1078.5 371.5 1077.5 383.5C1076.5 395.5 1075.5 392 1068.5 401C1062.9 408.2 1059.17 417 1058 420.5C1058.33 418.833 1058.8 413.7 1058 406.5C1057 397.5 1059.5 396.5 1063 383.5C1066.5 370.5 1056 368 1047.5 371.5C1039 375 1016.5 391.5 1009.5 396.5C1002.5 401.5 976 413.5 962 420.5C948 427.5 944 440.5 924.5 447C905 453.5 871.5 439 860.5 435.5C849.5 432 841 426 837.5 435.5C834 445 847.5 451.5 841 451.5C834.5 451.5 828 437 823 430.5C818 424 793 424.5 780 426C767 427.5 728.5 408.5 717.5 396.5C710.702 389.085 702.672 383.578 697.372 380.535C695.439 379.686 694.062 378.982 693.5 378.5Z" fill="#857E47"/>
<path d="M74 389.5C64 401.1 40.8333 414 30.5 419C38 418 58.7 413.6 81.5 404C110 392 95 386 103 376C111 366 127 375 135 372C143 369 143 357 138.5 349.5C134 342 147 329 147 319.5C147 311.9 141.333 321 138.5 326.5C134.667 331.334 125.4 342.7 119 349.5C111 358 86.5 375 74 389.5Z" fill="#A3925C"/>
<path d="M313 431C315.4 437.4 324.333 437 328.5 436C332.499 435.451 328.5 420.5 324.5 407.5C320.5 394.5 344 395.5 362 395.5C380 395.5 379 401 402 401.5C425 402 422.5 395.5 409.5 395.5C396.5 395.5 383.5 389.5 369 382.5C354.5 375.5 351 380 328.5 380C305.999 380 309.5 365 295 363.5C280.5 362 279.5 368.5 283.5 376.5C287.5 384.5 292.5 385.5 292.5 395.5C292.5 405.5 298.5 401 306 414.5C313.5 428 310 423 313 431Z" fill="#A3925C"/>
<path d="M540.5 350C531.3 359.6 493.333 376 475.5 383C459 396.001 493.5 383 505.5 379C517.5 375 516.5 376 521 370C525.5 364 546.5 356 556 350C565.5 344 552 338 540.5 350Z" fill="#A3925C"/>
<path d="M779 417.5C767.4 418.3 746.167 407.833 737 402.5C717.651 393 768.5 406.5 783 412C797.5 417.5 816.5 412 825.5 412C834.5 412 845.5 413.5 873.5 421C901.5 428.5 895.5 430 904.5 431C913.5 432 929 429.5 949 417.5C965 407.9 993 397.5 1005 393.5C1001 396.5 991.8 402.5 987 402.5C981 402.5 953.5 423.5 944.5 426C935.5 428.5 923 438.5 912 442.5C901 446.5 848 423.5 835.5 423.5C823 423.5 833 431.5 825.5 423.5C818 415.5 793.5 416.5 779 417.5Z" fill="#A3925C"/>
<path d="M-70.5607 107.243C-77.4632 110.85 -89.7062 112.513 -104.025 113.863C-110.969 113.532 -125.687 110.385 -128.992 100.444C-133.221 87.7266 -132.975 81.4658 -111.507 71.2366C-92.143 62.0101 -75.7066 76.1492 -72.2514 70.8948C-68.7961 65.6404 -78.3458 62.598 -69.7198 59.8137C-61.0937 57.0294 -60.9095 58.9834 -59.5041 52.9367C-58.0987 46.89 -55.6562 30.8885 -41.6171 22.6655C-30.3857 16.0871 -18.9712 14.9458 -14.6679 15.1974C-14.3141 4.97822 -8.93312 -18.2662 9.76121 -29.4907C33.1291 -43.5213 45.6708 -46.6746 77.8585 -29.9936C88.6459 -34.296 114.217 -40.3202 130.201 -29.9979C150.181 -17.0951 154.223 -5.64594 156.123 4.03142C157.643 11.7733 159.858 12.2215 160.775 11.4779C169.697 8.33721 183.858 14.5072 196.416 21.9982C208.973 29.4891 226.687 33.1953 230.564 39.4013C230.948 38.9713 231.22 38.622 231.407 38.3442C231.215 37.3412 232.328 36.9806 231.407 38.3442C231.601 39.3528 233.114 41.011 239.341 42.2186C256.443 45.5348 282.422 55.214 274.959 59.8606C275.253 62.9874 272.371 67.3331 270.893 69.1151C275.676 70.9647 283.756 77.7609 277.813 90.1491C271.87 102.537 262.246 103.116 258.176 101.856C261.339 107.472 249.967 106.089 231.614 112.55C213.261 119.011 205.61 109.087 204.079 103.317C203.449 110.605 198.663 114.125 170.885 112.8C143.107 111.475 149.685 127.851 151.601 123.728C150.817 129.387 133.361 109.981 121.615 111.088C112.013 111.992 116.69 125.617 118.611 127.522C118.894 127.353 119.124 127.106 119.297 126.772C119.332 127.789 119.041 127.948 118.611 127.522C114.801 129.808 101.323 118.106 85.8764 118.093C69.2834 118.079 65.7635 135.103 63.4987 132.03C59.3601 137.02 44.875 123.534 33.7639 123.004C22.6528 122.474 20.0811 139.407 18.469 136.274C13.9427 140.643 9.47282 118.591 1.34691 116.202C-6.77901 113.813 -19.4242 135.902 -21.424 132.147C-22.8907 137.543 -22.5897 119.43 -31.7934 113.989C-39.4315 109.473 -44.3457 121.592 -45.0568 123.709C-45.0219 123.647 -44.9868 123.585 -44.9517 123.522C-45.1718 124.157 -45.2026 124.143 -45.0568 123.709C-51.1881 134.605 -54.7591 133.198 -70.5607 107.243Z" fill="#EEFDFF"/>
<path d="M-69.6592 122.894C-76.5617 126.501 -91.9096 129.919 -98.0815 114.729C-105.026 114.398 -119.742 111.251 -123.048 101.311C-127.182 88.886 -121.803 72.6077 -98.0328 73.3249C-74.2628 74.042 -69.7033 80.5129 -66.248 75.2584C-62.7928 70.004 -64.6003 61.3032 -55.9742 58.5189C-47.3482 55.7346 -47.164 57.6887 -45.7586 51.642C-44.3532 45.5953 -41.9107 29.5937 -27.8716 21.3707C-16.6402 14.7923 -5.22574 13.651 -0.922417 13.9026C-0.56861 3.68344 4.81258 -19.561 23.5069 -30.7855C46.8748 -44.8161 59.4165 -47.9694 91.6042 -31.2884C102.392 -35.5908 127.962 -41.615 143.947 -31.2927C163.927 -18.3899 167.969 -6.94073 169.868 2.73663C171.388 10.4785 173.603 10.9268 174.521 10.1832C183.442 7.04244 204.425 2.63372 216.982 10.1247C229.539 17.6156 240.432 31.9005 244.309 38.1066C248.478 33.4427 260.237 24.7784 273.919 27.4313C291.021 30.7476 296.167 53.9192 288.704 58.5658C288.999 61.6927 286.116 66.0384 284.638 67.8204C289.421 69.6699 297.502 76.4661 291.558 88.8544C285.615 101.243 275.991 101.821 271.922 100.561C275.085 106.178 276.822 119.025 258.469 125.486C240.116 131.947 232.465 122.023 230.933 116.253C230.303 123.54 222.099 137.785 194.321 136.46C171.001 135.347 165.065 129.123 164.894 124.714C163.37 130.74 158.641 139.822 148.312 140.795C136.565 141.902 133.238 131.045 133.042 125.477C130.535 130.314 121.373 139.983 104.78 139.969C88.1869 139.956 79.5092 133.808 77.2444 130.735C73.1059 135.725 62.0509 145.573 50.9398 145.043C39.8287 144.513 33.8267 138.113 32.2145 134.979C27.6883 139.348 16.6042 147.49 8.47833 145.101C0.352419 142.713 -5.67867 134.607 -7.67847 130.853C-9.14525 136.248 -14.3797 145.678 -23.5834 140.237C-32.7871 134.796 -32.5001 125.963 -31.2062 122.227C-37.4023 133.325 -53.7674 148.997 -69.6592 122.894Z" fill="#E7D5A7"/>
<path d="M212.723 275.864C210.43 277.062 206.365 277.614 201.61 278.062C199.304 277.952 194.417 276.907 193.32 273.606C191.915 269.383 191.997 267.304 199.126 263.908C205.556 260.844 211.014 265.539 212.161 263.794C213.309 262.049 210.137 261.039 213.002 260.114C215.866 259.19 215.927 259.839 216.394 257.831C216.861 255.823 217.672 250.509 222.334 247.779C226.063 245.594 229.854 245.215 231.283 245.299C231.4 241.905 233.187 234.187 239.395 230.459C247.154 225.8 251.319 224.753 262.008 230.292C265.59 228.864 274.081 226.863 279.389 230.291C286.024 234.576 287.366 238.378 287.997 241.591C288.501 244.162 289.237 244.311 289.541 244.064C292.504 243.021 297.207 245.07 301.376 247.557C305.546 250.045 311.428 251.275 312.716 253.336C312.843 253.193 312.934 253.077 312.996 252.985C312.932 252.652 313.302 252.532 312.996 252.985C313.06 253.32 313.563 253.871 315.631 254.272C321.309 255.373 329.936 258.587 327.458 260.13C327.556 261.168 326.599 262.611 326.108 263.203C327.696 263.817 330.379 266.074 328.406 270.188C326.432 274.302 323.236 274.494 321.885 274.075C322.935 275.94 319.159 275.481 313.065 277.626C306.97 279.772 304.43 276.476 303.921 274.56C303.712 276.98 302.123 278.149 292.899 277.709C283.674 277.269 285.859 282.707 286.495 281.338C286.235 283.218 280.438 276.773 276.537 277.141C273.349 277.441 274.902 281.965 275.54 282.598C275.634 282.542 275.71 282.46 275.768 282.349C275.78 282.687 275.683 282.74 275.54 282.598C274.275 283.357 269.799 279.471 264.67 279.467C259.16 279.463 257.991 285.115 257.239 284.095C255.865 285.752 251.055 281.274 247.365 281.098C243.676 280.922 242.822 286.545 242.286 285.504C240.783 286.955 239.299 279.632 236.601 278.839C233.902 278.046 229.703 285.381 229.039 284.134C228.552 285.926 228.652 279.911 225.596 278.104C223.06 276.605 221.428 280.629 221.192 281.332C221.203 281.311 221.215 281.291 221.226 281.27C221.153 281.481 221.143 281.476 221.192 281.332C219.156 284.95 217.97 284.483 212.723 275.864Z" fill="#FFE1AD"/>
<path d="M213.022 281.061C210.73 282.259 205.634 283.394 203.584 278.35C201.278 278.24 196.392 277.195 195.293 273.894C193.921 269.768 195.707 264.363 203.6 264.601C211.494 264.839 213.008 266.988 214.155 265.243C215.302 263.498 214.702 260.609 217.567 259.684C220.431 258.76 220.492 259.409 220.959 257.401C221.426 255.393 222.237 250.079 226.899 247.349C230.628 245.164 234.418 244.785 235.847 244.869C235.965 241.475 237.752 233.757 243.96 230.029C251.719 225.37 255.884 224.323 266.572 229.862C270.155 228.434 278.646 226.433 283.954 229.861C290.588 234.146 291.931 237.947 292.561 241.161C293.066 243.732 293.801 243.881 294.106 243.634C297.069 242.591 304.036 241.127 308.206 243.614C312.376 246.102 315.993 250.845 317.281 252.906C318.665 251.357 322.57 248.48 327.113 249.361C332.792 250.462 334.501 258.157 332.023 259.7C332.12 260.738 331.163 262.181 330.672 262.773C332.261 263.387 334.944 265.644 332.97 269.758C330.997 273.871 327.801 274.063 326.45 273.645C327.5 275.51 328.077 279.777 321.983 281.922C315.888 284.067 313.347 280.772 312.839 278.856C312.63 281.276 309.905 286.006 300.681 285.566C292.937 285.196 290.966 283.13 290.909 281.665C290.403 283.667 288.833 286.682 285.403 287.006C281.502 287.373 280.398 283.768 280.333 281.919C279.5 283.525 276.458 286.736 270.948 286.731C265.438 286.727 262.556 284.685 261.804 283.665C260.43 285.322 256.759 288.592 253.069 288.416C249.379 288.24 247.386 286.115 246.851 285.074C245.348 286.525 241.667 289.229 238.969 288.435C236.271 287.642 234.268 284.951 233.604 283.704C233.117 285.496 231.379 288.627 228.322 286.82C225.266 285.013 225.362 282.08 225.791 280.84C223.734 284.525 218.299 289.729 213.022 281.061Z" fill="#E7E3A6"/>
<path d="M1023.23 287.015C1018.48 289.502 1010.04 290.648 1000.17 291.578C995.385 291.349 985.243 289.181 982.965 282.33C980.05 273.565 980.22 269.251 995.015 262.201C1008.36 255.843 1019.69 265.587 1022.07 261.966C1024.45 258.344 1017.87 256.248 1023.81 254.329C1029.76 252.41 1029.88 253.757 1030.85 249.589C1031.82 245.422 1033.51 234.395 1043.18 228.728C1050.92 224.194 1058.79 223.407 1061.75 223.581C1062 216.538 1065.71 200.519 1078.59 192.783C1094.69 183.114 1103.34 180.941 1125.52 192.437C1132.95 189.472 1150.58 185.32 1161.59 192.434C1175.36 201.326 1178.15 209.216 1179.46 215.886C1180.5 221.221 1182.03 221.53 1182.66 221.017C1188.81 218.853 1198.57 223.105 1207.22 228.268C1215.88 233.43 1228.09 235.984 1230.76 240.261C1231.02 239.965 1231.21 239.724 1231.34 239.533C1231.21 238.842 1231.97 238.593 1231.34 239.533C1231.47 240.228 1232.52 241.371 1236.81 242.203C1248.59 244.488 1266.5 251.159 1261.35 254.361C1261.56 256.516 1259.57 259.511 1258.55 260.739C1261.85 262.014 1267.42 266.697 1263.32 275.235C1259.23 283.773 1252.59 284.171 1249.79 283.303C1251.97 287.174 1244.13 286.221 1231.48 290.673C1218.83 295.126 1213.56 288.286 1212.51 284.31C1212.07 289.332 1208.77 291.758 1189.63 290.845C1170.49 289.932 1175.02 301.218 1176.34 298.376C1175.8 302.277 1163.77 288.902 1155.67 289.665C1149.06 290.289 1152.28 299.678 1153.6 300.991C1153.8 300.875 1153.96 300.705 1154.08 300.474C1154.1 301.175 1153.9 301.285 1153.6 300.991C1150.98 302.566 1141.69 294.502 1131.04 294.493C1119.61 294.484 1117.18 306.215 1115.62 304.098C1112.77 307.537 1102.79 298.243 1095.13 297.877C1087.47 297.512 1085.7 309.182 1084.59 307.023C1081.47 310.034 1078.39 294.836 1072.79 293.19C1067.19 291.544 1058.48 306.766 1057.1 304.179C1056.09 307.897 1056.29 295.415 1049.95 291.665C1044.69 288.553 1041.3 296.904 1040.81 298.364C1040.83 298.321 1040.86 298.278 1040.88 298.234C1040.73 298.672 1040.71 298.663 1040.81 298.364C1036.58 305.872 1034.12 304.903 1023.23 287.015Z" fill="#FFE1AD"/>
<path d="M1023.85 297.802C1019.1 300.288 1008.52 302.643 1004.27 292.175C999.481 291.947 989.34 289.778 987.061 282.927C984.212 274.365 987.919 263.146 1004.3 263.641C1020.68 264.135 1023.82 268.594 1026.21 264.973C1028.59 261.352 1027.34 255.356 1033.29 253.437C1039.23 251.518 1039.36 252.865 1040.33 248.697C1041.29 244.53 1042.98 233.502 1052.65 227.835C1060.39 223.302 1068.26 222.515 1071.23 222.689C1071.47 215.646 1075.18 199.627 1088.06 191.891C1104.17 182.222 1112.81 180.049 1134.99 191.545C1142.43 188.579 1160.05 184.428 1171.06 191.542C1184.83 200.434 1187.62 208.324 1188.93 214.993C1189.98 220.329 1191.5 220.638 1192.14 220.125C1198.28 217.961 1212.74 214.923 1221.4 220.085C1230.05 225.248 1237.56 235.092 1240.23 239.369C1243.1 236.155 1251.21 230.184 1260.64 232.012C1272.42 234.298 1275.97 250.267 1270.83 253.469C1271.03 255.624 1269.04 258.619 1268.02 259.847C1271.32 261.122 1276.89 265.805 1272.79 274.343C1268.7 282.881 1262.07 283.279 1259.26 282.411C1261.44 286.282 1262.64 295.136 1249.99 299.588C1237.34 304.041 1232.07 297.201 1231.01 293.225C1230.58 298.248 1224.92 308.064 1205.78 307.151C1189.71 306.384 1185.62 302.095 1185.5 299.056C1184.45 303.209 1181.19 309.468 1174.07 310.139C1165.98 310.902 1163.68 303.419 1163.55 299.582C1161.82 302.915 1155.51 309.579 1144.07 309.57C1132.64 309.56 1126.66 305.323 1125.1 303.206C1122.24 306.645 1114.63 313.432 1106.97 313.066C1099.31 312.701 1095.17 308.29 1094.06 306.13C1090.94 309.142 1083.3 314.753 1077.7 313.107C1072.1 311.46 1067.95 305.874 1066.57 303.287C1065.56 307.005 1061.95 313.504 1055.61 309.754C1049.27 306.004 1049.46 299.917 1050.36 297.342C1046.09 304.991 1034.81 315.791 1023.85 297.802Z" fill="#E7E3A6"/>
<path d="M283.168 404.164C263.743 420.212 254.327 402.432 252.047 391.536C250.74 404.09 243.202 425.408 223.502 410.257C203.802 395.106 215.168 374.394 223.313 365.931C214.827 373.524 195.341 383.826 185.286 364.29C172.717 339.87 221.214 343.425 214.103 342.451C208.415 341.672 202.434 338.75 200.154 337.386C184.671 328.408 191.354 309.231 205.354 302.987C216.554 297.992 225.493 312.397 228.563 320.224C230.16 310.316 237.173 292.614 252.453 301.07C267.732 309.527 261.559 328.102 256.563 336.333C264.754 327.351 283.956 315.054 295.238 337.72C306.521 360.387 283.877 371.024 271.145 373.51C283.246 377.041 302.593 388.117 283.168 404.164Z" fill="#6B8C0E"/>
<path d="M272.633 568.467L293.056 574.965L306.981 563.825L302.34 457.994L326.476 425.502V413.434L302.34 442.212L306.981 381.87L280.059 403.222V442.212H261.492L253.137 425.502L247.567 432.929L261.492 451.496L280.059 457.994L272.633 568.467Z" fill="#B07D56"/>
<path d="M181.579 432.567C173.732 408.624 193.722 406.35 204.698 408.206C193.489 402.406 176.395 387.603 197.693 374.796C218.991 361.989 219.717 366.552 232.25 373.05C232.25 358.264 232.579 358.231 254.145 356.034L254.441 356.003C281.764 353.219 260.746 397.07 264.249 390.805C267.051 385.794 271.955 381.293 274.057 379.669C288.069 368.532 303.482 381.757 304.183 397.07C304.743 409.32 288.069 412.383 279.662 412.383C288.303 417.487 302.221 430.48 288.77 441.616C275.318 452.753 260.279 440.224 254.441 432.567C259.812 443.472 264.249 465.838 239.028 468.066C213.806 470.293 210.42 459.614 212.755 446.853C205.048 456.83 189.425 456.511 181.579 432.567Z" fill="#93BA24"/>
<path d="M192.401 428.748C185.959 409.185 202.369 407.327 211.379 408.844C202.178 404.105 188.145 392.011 205.628 381.547C223.112 371.082 223.709 374.811 233.996 380.12C233.996 368.039 234.267 368.012 251.97 366.217L252.213 366.192C274.642 363.917 257.389 399.745 260.264 394.627C262.565 390.532 266.59 386.855 268.316 385.528C279.818 376.429 292.471 387.234 293.046 399.745C293.506 409.754 279.818 412.256 272.917 412.256C280.01 416.427 291.435 427.043 280.393 436.142C269.351 445.241 257.005 435.004 252.213 428.748C256.622 437.658 260.264 455.932 239.56 457.752C218.856 459.572 216.076 450.847 217.993 440.421C211.667 448.572 198.842 448.311 192.401 428.748Z" fill="#7DA314"/>
<path d="M256.774 360.157C248.927 336.213 268.918 333.94 279.894 335.796C268.684 329.996 251.59 315.193 272.888 302.386C294.186 289.579 309.319 307.722 314.223 318.395C310.253 307.723 307.777 285.821 329.636 283.593C356.959 280.809 335.941 324.66 339.444 318.395C342.247 313.384 347.151 308.883 349.253 307.259C363.264 296.122 378.677 309.347 379.378 324.66C379.939 336.91 363.264 339.972 354.857 339.972C363.498 345.077 377.416 358.069 363.965 369.206C350.514 380.343 335.474 367.814 329.636 360.157C335.007 371.062 339.444 393.428 314.223 395.655C289.002 397.883 287.367 372.918 289.702 360.157C281.996 370.134 264.621 384.101 256.774 360.157Z" fill="#93BA24"/>
<path d="M265.329 392.239C256.604 365.525 278.832 362.988 291.036 365.059C278.572 358.587 259.564 342.072 283.246 327.783C306.929 313.494 323.755 333.737 329.209 345.645C324.794 333.737 322.042 309.301 346.347 306.816C376.729 303.71 353.358 352.634 357.253 345.645C360.369 340.053 365.822 335.031 368.159 333.219C383.74 320.794 400.878 335.549 401.657 352.634C402.28 366.301 383.74 369.718 374.392 369.718C383.999 375.413 399.476 389.909 384.519 402.334C369.562 414.759 352.839 400.781 346.347 392.239C352.319 404.405 357.253 429.359 329.209 431.844C301.164 434.329 299.346 406.476 301.943 392.239C293.374 403.369 274.054 418.953 265.329 392.239Z" fill="#83A61E"/>
<path d="M293.908 433.496C286.061 409.552 306.051 407.279 317.027 409.135C305.818 403.334 288.724 388.532 310.022 375.725C331.32 362.918 346.453 381.061 351.357 391.734C347.387 381.061 344.911 359.159 366.77 356.932C394.093 354.148 373.075 397.998 376.578 391.734C379.38 386.722 384.285 382.221 386.386 380.597C400.398 369.461 415.811 382.686 416.512 397.998C417.072 410.249 400.398 413.311 391.991 413.311C400.632 418.416 414.55 431.408 401.099 442.545C387.647 453.681 372.608 441.153 366.77 433.496C372.141 444.401 376.578 466.767 351.357 468.994C326.135 471.222 324.501 446.257 326.836 433.496C319.129 443.473 301.754 457.44 293.908 433.496Z" fill="#88AF1B"/>
<path d="M320.065 391.572C315.933 396.71 323.939 403.347 328.458 406.023C330.18 407.629 332.59 410.905 328.458 411.162C323.293 411.483 312.963 411.804 314.578 420.474C316.192 429.145 320.065 430.43 328.458 423.686C336.851 416.942 336.529 425.934 338.466 436.531C340.403 447.128 352.992 440.706 356.22 434.925C359.449 429.145 352.992 418.226 351.378 417.263C349.764 416.3 347.182 408.914 344.276 406.023C341.371 403.133 347.182 396.068 338.466 388.682C329.75 381.296 325.23 385.15 320.065 391.572Z" fill="#7DA708"/>
<path d="M311.16 374.907C332.326 363.767 346.127 380.013 350.15 389.296L351.078 390.689C343.707 384.19 324.66 373.979 313.016 383.262C301.372 392.546 314.973 406.626 323.228 412.505C315.183 412.094 299.648 415.046 301.876 430.144C304.104 445.242 321.372 435.506 329.727 428.751C330.5 439.555 336.132 461.087 352.471 460.779C368.81 460.471 369.181 443.012 367.324 434.321C368.252 436.641 369.903 441.956 370.109 443.604C370.573 447.317 372.43 458.458 367.324 462.171C362.219 465.885 357.112 471.918 341.795 468.669C328.079 465.76 324.156 448.246 326.477 434.321C322.764 439.426 313.573 446.853 306.518 446.853C297.698 446.853 289.344 429.68 293.521 417.611C296.863 407.956 309.767 407.399 316.266 408.791L313.016 406.935C303.578 401.056 289.994 386.047 311.16 374.907Z" fill="#597609" fill-opacity="0.7"/>
<path d="M205.329 307.139C187.876 320.135 196.2 330.502 202.544 334.06L207.185 336.845C205.174 334.525 200.78 328.676 199.294 323.849C197.809 319.021 205.793 308.84 209.97 304.354L205.329 307.139Z" fill="#7DA708"/>
<path d="M342.259 310.387C366.396 303.332 359.743 330.347 353.399 344.736C354.172 336.072 354.791 317.721 351.078 313.637C346.436 308.531 336.689 312.708 342.259 310.387Z" fill="#74980F"/>
<path d="M265.206 308.995C258.894 316.05 265.361 324.622 269.384 328.026L274.025 331.739C270.216 326.633 265.719 314.287 278.203 305.746C290.687 297.205 308.779 312.708 316.265 321.528C313.635 313.637 311.809 296.462 325.548 290.892C339.288 285.322 342.413 298.474 342.259 305.746C342.723 303.734 343.651 298.876 343.651 295.534C343.651 291.356 341.794 288.107 339.938 286.251C338.081 284.394 331.118 280.217 318.586 288.107C308.56 294.42 310.695 309.614 313.016 316.422C303.732 298.783 291.664 297.855 286.094 297.855C280.524 297.855 273.097 300.176 265.206 308.995Z" fill="#7DA314"/>
<path d="M302.34 457.53L308.374 449.639L294.449 458.458L293.057 463.564L303.268 480.274L302.34 457.53Z" fill="#855633"/>
<path d="M295.098 542.479C294.355 538.394 296.027 531.184 296.955 528.09C298.812 523.448 300.204 531.339 299.74 537.373C299.276 543.408 300.668 542.479 300.204 549.906C299.74 557.333 296.026 558.261 296.955 553.155C297.883 548.049 296.027 547.585 295.098 542.479Z" fill="#855633"/>
<path d="M287.95 534.581C286.094 540.523 278.203 545.412 274.489 547.114L280.059 460.778C280.678 462.016 283.123 465.234 287.95 468.205C293.984 471.918 293.984 483.987 292.128 486.772C290.271 489.557 292.592 495.591 292.128 503.482C291.664 511.373 296.305 512.301 293.984 517.407C291.664 522.513 290.271 527.155 287.95 534.581Z" fill="#9D5823"/>
<path d="M274.489 541.08L277.738 491.414L279.131 473.775C281.916 477.179 287.579 484.173 287.95 484.915C288.414 485.844 282.38 503.482 282.38 508.124C282.38 512.766 287.022 517.872 286.094 522.049C285.351 525.391 278.048 536.129 274.489 541.08Z" fill="#855633"/>
<path d="M91.168 428.164C71.7427 444.212 62.3267 426.432 60.0469 415.536C58.7402 428.09 51.2016 449.408 31.5019 434.257C11.8022 419.106 23.1676 398.394 31.3127 389.931C22.8266 397.524 3.34077 407.826 -6.71412 388.29C-19.2827 363.87 29.2144 367.425 22.1034 366.451C16.4147 365.672 10.4338 362.75 8.15449 361.386C-7.32943 352.408 -0.645714 333.231 13.354 326.987C24.5538 321.992 33.4933 336.397 36.563 344.224C38.1598 334.316 45.1733 316.614 60.4526 325.07C75.7318 333.527 69.5595 352.102 64.5634 360.333C72.7539 351.351 91.9557 339.054 103.238 361.72C114.521 384.387 91.8771 395.024 79.1447 397.51C91.2464 401.041 110.593 412.117 91.168 428.164Z" fill="#7AA011"/>
<path d="M80.6326 592.467L101.056 598.965L114.981 587.825L110.34 481.994L134.476 449.502V437.434L110.34 466.212L114.981 405.87L88.0593 427.222V466.212H69.4925L61.1374 449.502L55.5674 456.929L69.4925 475.496L88.0593 481.994L80.6326 592.467Z" fill="#B07D56"/>
<path d="M-10.4212 456.567C-18.2679 432.624 1.72236 430.35 12.6983 432.206C1.48893 426.406 -15.6053 411.603 5.69267 398.796C26.9907 385.989 27.7175 390.552 40.2501 397.05C40.2501 382.264 40.5792 382.231 62.1446 380.034L62.4407 380.003C89.7638 377.219 68.746 421.07 72.249 414.805C75.0513 409.794 79.9555 405.293 82.0573 403.669C96.0691 392.532 111.482 405.757 112.183 421.07C112.743 433.32 96.0691 436.383 87.662 436.383C96.3027 441.487 110.221 454.48 96.7697 465.616C83.3183 476.753 68.2789 464.224 62.4407 456.567C67.8119 467.472 72.249 489.838 47.0276 492.066C21.8063 494.293 18.4196 483.614 20.7549 470.853C13.0483 480.83 -2.57461 480.511 -10.4212 456.567Z" fill="#93BA24"/>
<path d="M0.400589 452.748C-6.04068 433.185 10.3692 431.327 19.3793 432.844C10.1776 428.105 -3.85501 416.011 13.6284 405.547C31.1119 395.082 31.7085 398.811 41.9965 404.12C41.9965 392.039 42.2666 392.012 59.9696 390.217L60.2126 390.192C82.642 387.917 65.3886 423.745 68.2642 418.627C70.5646 414.532 74.5904 410.855 76.3158 409.528C87.818 400.429 100.471 411.234 101.046 423.745C101.506 433.754 87.818 436.256 80.9167 436.256C88.0098 440.427 99.4353 451.043 88.3932 460.142C77.351 469.241 65.0052 459.004 60.2126 452.748C64.6218 461.658 68.2642 479.932 47.5601 481.752C26.856 483.572 24.0759 474.847 25.993 464.421C19.6666 472.572 6.84186 472.311 0.400589 452.748Z" fill="#6C8917"/>
<path d="M64.7741 384.157C56.9274 360.213 76.9177 357.94 87.8936 359.796C76.6842 353.996 59.59 339.193 80.888 326.386C102.186 313.579 117.319 331.722 122.223 342.395C118.253 331.723 115.777 309.821 137.636 307.593C164.959 304.809 143.941 348.66 147.444 342.395C150.247 337.384 155.151 332.883 157.253 331.259C171.264 320.122 186.677 333.347 187.378 348.66C187.939 360.91 171.264 363.972 162.857 363.972C171.498 369.077 185.416 382.069 171.965 393.206C158.514 404.343 143.474 391.814 137.636 384.157C143.007 395.062 147.444 417.428 122.223 419.655C97.0016 421.883 95.3669 396.918 97.7022 384.157C89.9956 394.134 72.6207 408.101 64.7741 384.157Z" fill="#93BA24"/>
<path d="M73.3288 416.239C64.6038 389.525 86.8317 386.988 99.0363 389.059C86.5722 382.587 67.5644 366.072 91.2465 351.783C114.929 337.494 131.755 357.737 137.209 369.645C132.794 357.737 130.042 333.301 154.347 330.816C184.729 327.71 161.358 376.634 165.253 369.645C168.369 364.053 173.822 359.031 176.159 357.219C191.74 344.794 208.878 359.549 209.657 376.634C210.28 390.301 191.74 393.718 182.392 393.718C191.999 399.413 207.476 413.909 192.519 426.334C177.562 438.759 160.839 424.781 154.347 416.239C160.319 428.405 165.253 453.359 137.209 455.844C109.164 458.329 107.346 430.476 109.943 416.239C101.374 427.369 82.0538 442.953 73.3288 416.239Z" fill="#83A61E"/>
<path d="M101.908 457.496C94.0612 433.552 114.051 431.279 125.027 433.135C113.818 427.334 96.7238 412.532 118.022 399.725C139.32 386.918 154.453 405.061 159.357 415.734C155.387 405.061 152.911 383.159 174.77 380.932C202.093 378.148 181.075 421.998 184.578 415.734C187.38 410.722 192.285 406.221 194.386 404.597C208.398 393.461 223.811 406.686 224.512 421.998C225.072 434.249 208.398 437.311 199.991 437.311C208.632 442.416 222.55 455.408 209.099 466.545C195.647 477.681 180.608 465.153 174.77 457.496C180.141 468.401 184.578 490.767 159.357 492.994C134.135 495.222 132.501 470.257 134.836 457.496C127.129 467.473 109.754 481.44 101.908 457.496Z" fill="#A3CF2A"/>
<path d="M128.065 415.572C123.933 420.71 131.939 427.347 136.458 430.023C138.18 431.629 140.59 434.905 136.458 435.162C131.293 435.483 120.963 435.804 122.578 444.474C124.192 453.145 128.065 454.43 136.458 447.686C144.851 440.942 144.529 449.934 146.466 460.531C148.403 471.128 160.992 464.706 164.22 458.925C167.449 453.145 160.992 442.226 159.378 441.263C157.764 440.3 155.182 432.914 152.276 430.023C149.371 427.133 155.182 420.068 146.466 412.682C137.75 405.296 133.23 409.15 128.065 415.572Z" fill="#7DA708"/>
<path d="M119.16 398.907C140.326 387.767 154.127 404.013 158.15 413.296L159.078 414.689C151.707 408.19 132.66 397.979 121.016 407.262C109.372 416.546 122.973 430.626 131.228 436.505C123.183 436.094 107.648 439.046 109.876 454.144C112.104 469.242 129.372 459.506 137.727 452.751C138.5 463.555 144.132 485.087 160.471 484.779C176.81 484.471 177.181 467.012 175.324 458.321C176.252 460.641 177.903 465.956 178.109 467.604C178.573 471.317 180.43 482.458 175.324 486.171C170.219 489.885 165.112 495.918 149.795 492.669C136.079 489.76 132.156 472.246 134.477 458.321C130.764 463.426 121.573 470.853 114.518 470.853C105.698 470.853 97.3439 453.68 101.521 441.611C104.863 431.956 117.767 431.399 124.266 432.791L121.016 430.935C111.578 425.056 97.9936 410.047 119.16 398.907Z" fill="#597609" fill-opacity="0.7"/>
<path d="M13.3286 331.139C-4.12424 344.135 4.19988 354.502 10.5435 358.06L15.1852 360.845C13.1738 358.525 8.77966 352.676 7.29432 347.849C5.80897 343.021 13.7927 332.84 17.9702 328.354L13.3286 331.139Z" fill="#93BA24"/>
<path d="M150.259 334.387C174.396 327.332 167.743 354.347 161.399 368.736C162.172 360.072 162.791 341.721 159.078 337.637C154.436 332.531 144.689 336.708 150.259 334.387Z" fill="#74980F"/>
<path d="M73.2063 332.995C66.8936 340.05 73.3611 348.622 77.3839 352.026L82.0255 355.739C78.2165 350.633 73.7193 338.287 86.203 329.746C98.6867 321.205 116.779 336.708 124.265 345.528C121.635 337.637 119.809 320.462 133.548 314.892C147.288 309.322 150.413 322.474 150.259 329.746C150.723 327.734 151.651 322.876 151.651 319.534C151.651 315.356 149.794 312.107 147.938 310.251C146.081 308.394 139.118 304.217 126.586 312.107C116.56 318.42 118.695 333.614 121.016 340.422C111.732 322.783 99.664 321.855 94.0939 321.855C88.5239 321.855 81.0972 324.176 73.2063 332.995Z" fill="#7DA314"/>
<path d="M110.34 481.53L116.374 473.639L102.449 482.458L101.057 487.564L111.268 504.274L110.34 481.53Z" fill="#855633"/>
<path d="M103.098 566.479C102.355 562.394 104.027 555.184 104.955 552.09C106.812 547.448 108.204 555.339 107.74 561.373C107.276 567.408 108.668 566.479 108.204 573.906C107.74 581.333 104.026 582.261 104.955 577.155C105.883 572.049 104.027 571.585 103.098 566.479Z" fill="#855633"/>
<path d="M95.9502 558.581C94.0935 564.523 86.2026 569.412 82.4893 571.114L88.0593 484.778C88.6782 486.016 91.1228 489.234 95.9502 492.205C101.984 495.918 101.984 507.987 100.128 510.772C98.2711 513.557 100.592 519.591 100.128 527.482C99.6636 535.373 104.305 536.301 101.984 541.407C99.6636 546.513 98.2711 551.155 95.9502 558.581Z" fill="#9D5823"/>
<path d="M82.4893 565.08L85.7385 515.414L87.131 497.775C89.916 501.179 95.5789 508.173 95.9502 508.915C96.4144 509.844 90.3802 527.482 90.3802 532.124C90.3802 536.766 95.0219 541.872 94.0935 546.049C93.3508 549.391 86.0479 560.129 82.4893 565.08Z" fill="#855633"/>
<path d="M227.168 482.164C207.743 498.212 198.327 480.432 196.047 469.536C194.74 482.09 187.202 503.408 167.502 488.257C147.802 473.106 159.168 452.394 167.313 443.931C158.827 451.524 139.341 461.826 129.286 442.29C116.717 417.87 165.214 421.425 158.103 420.451C152.415 419.672 146.434 416.75 144.154 415.386C128.671 406.408 135.354 387.231 149.354 380.987C160.554 375.992 169.493 390.397 172.563 398.224C174.16 388.316 181.173 370.614 196.453 379.07C211.732 387.527 205.559 406.102 200.563 414.333C208.754 405.351 227.956 393.054 239.238 415.72C250.521 438.387 227.877 449.024 215.145 451.51C227.246 455.041 246.593 466.117 227.168 482.164Z" fill="#86B30B"/>
<path d="M216.633 646.467L237.056 652.965L250.981 641.825L246.34 535.994L270.476 503.502V491.434L246.34 520.212L250.981 459.87L224.059 481.222V520.212H205.492L197.137 503.502L191.567 510.929L205.492 529.496L224.059 535.994L216.633 646.467Z" fill="#B07D56"/>
<path d="M125.579 510.567C117.732 486.624 137.722 484.35 148.698 486.206C137.489 480.406 120.395 465.603 141.693 452.796C162.991 439.989 163.717 444.552 176.25 451.05C176.25 436.264 176.579 436.231 198.145 434.034L198.441 434.003C225.764 431.219 204.746 475.07 208.249 468.805C211.051 463.794 215.955 459.293 218.057 457.669C232.069 446.532 247.482 459.757 248.183 475.07C248.743 487.32 232.069 490.383 223.662 490.383C232.303 495.487 246.221 508.48 232.77 519.616C219.318 530.753 204.279 518.224 198.441 510.567C203.812 521.472 208.249 543.838 183.028 546.066C157.806 548.293 154.42 537.614 156.755 524.853C149.048 534.83 133.425 534.511 125.579 510.567Z" fill="#6B8818"/>
<path d="M136.401 506.748C129.959 487.185 146.369 485.327 155.379 486.844C146.178 482.105 132.145 470.011 149.628 459.547C167.112 449.082 167.709 452.811 177.996 458.12C177.996 446.039 178.267 446.012 195.97 444.217L196.213 444.192C218.642 441.917 201.389 477.745 204.264 472.627C206.565 468.532 210.59 464.855 212.316 463.528C223.818 454.429 236.471 465.234 237.046 477.745C237.506 487.754 223.818 490.256 216.917 490.256C224.01 494.427 235.435 505.043 224.393 514.142C213.351 523.241 201.005 513.004 196.213 506.748C200.622 515.658 204.264 533.932 183.56 535.752C162.856 537.572 160.076 528.847 161.993 518.421C155.667 526.572 142.842 526.311 136.401 506.748Z" fill="#7DA314"/>
<path d="M200.774 438.157C192.927 414.213 212.918 411.94 223.894 413.796C212.684 407.996 195.59 393.193 216.888 380.386C238.186 367.579 253.319 385.722 258.223 396.395C254.253 385.723 251.777 363.821 273.636 361.593C300.959 358.809 279.941 402.66 283.444 396.395C286.247 391.384 291.151 386.883 293.253 385.259C307.264 374.122 322.677 387.347 323.378 402.66C323.939 414.91 307.264 417.972 298.857 417.972C307.498 423.077 321.416 436.069 307.965 447.206C294.514 458.343 279.474 445.814 273.636 438.157C279.007 449.062 283.444 471.428 258.223 473.655C233.002 475.883 231.367 450.918 233.702 438.157C225.996 448.134 208.621 462.101 200.774 438.157Z" fill="#93BA24"/>
<path d="M209.329 470.239C200.604 443.525 222.832 440.988 235.036 443.059C222.572 436.587 203.564 420.072 227.246 405.783C250.929 391.494 267.755 411.737 273.209 423.645C268.794 411.737 266.042 387.301 290.347 384.816C320.729 381.71 297.358 430.634 301.253 423.645C304.369 418.053 309.822 413.031 312.159 411.219C327.74 398.794 344.878 413.549 345.657 430.634C346.28 444.301 327.74 447.718 318.392 447.718C327.999 453.413 343.476 467.909 328.519 480.334C313.562 492.759 296.839 478.781 290.347 470.239C296.319 482.405 301.253 507.359 273.209 509.844C245.164 512.329 243.346 484.476 245.943 470.239C237.374 481.369 218.054 496.953 209.329 470.239Z" fill="#6A8812"/>
<path d="M237.908 511.496C230.061 487.552 250.051 485.279 261.027 487.135C249.818 481.334 232.724 466.532 254.022 453.725C275.32 440.918 290.453 459.061 295.357 469.734C291.387 459.061 288.911 437.159 310.77 434.932C338.093 432.148 317.075 475.998 320.578 469.734C323.38 464.722 328.285 460.221 330.386 458.597C344.398 447.461 359.811 460.686 360.512 475.998C361.072 488.249 344.398 491.311 335.991 491.311C344.632 496.416 358.55 509.408 345.099 520.545C331.647 531.681 316.608 519.153 310.77 511.496C316.141 522.401 320.578 544.767 295.357 546.994C270.135 549.222 268.501 524.257 270.836 511.496C263.129 521.473 245.754 535.44 237.908 511.496Z" fill="#709608"/>
<path d="M264.065 469.572C259.933 474.71 267.939 481.347 272.458 484.023C274.18 485.629 276.59 488.905 272.458 489.162C267.293 489.483 256.963 489.804 258.578 498.474C260.192 507.145 264.065 508.43 272.458 501.686C280.851 494.942 280.529 503.934 282.466 514.531C284.403 525.128 296.992 518.706 300.22 512.925C303.449 507.145 296.992 496.226 295.378 495.263C293.764 494.3 291.182 486.914 288.276 484.023C285.371 481.133 291.182 474.068 282.466 466.682C273.75 459.296 269.23 463.15 264.065 469.572Z" fill="#7DA708"/>
<path d="M255.16 452.907C276.326 441.767 290.127 458.013 294.15 467.296L295.078 468.689C287.707 462.19 268.66 451.979 257.016 461.262C245.372 470.546 258.973 484.626 267.228 490.505C259.183 490.094 243.648 493.046 245.876 508.144C248.104 523.242 265.372 513.506 273.727 506.751C274.5 517.555 280.132 539.087 296.471 538.779C312.81 538.471 313.181 521.012 311.324 512.321C312.252 514.641 313.903 519.956 314.109 521.604C314.573 525.317 316.43 536.458 311.324 540.171C306.219 543.885 301.112 549.918 285.795 546.669C272.079 543.76 268.156 526.246 270.477 512.321C266.764 517.426 257.573 524.853 250.518 524.853C241.698 524.853 233.344 507.68 237.521 495.611C240.863 485.956 253.767 485.399 260.266 486.791L257.016 484.935C247.578 479.056 233.994 464.047 255.16 452.907Z" fill="#597609" fill-opacity="0.7"/>
<path d="M149.329 385.139C131.876 398.135 140.2 408.502 146.544 412.06L151.185 414.845C149.174 412.525 144.78 406.676 143.294 401.849C141.809 397.021 149.793 386.84 153.97 382.354L149.329 385.139Z" fill="#ABDE1F"/>
<path d="M286.259 388.387C310.396 381.332 303.743 408.347 297.399 422.736C298.172 414.072 298.791 395.721 295.078 391.637C290.436 386.531 280.689 390.708 286.259 388.387Z" fill="#74980F"/>
<path d="M209.206 386.995C202.894 394.05 209.361 402.622 213.384 406.026L218.025 409.739C214.216 404.633 209.719 392.287 222.203 383.746C234.687 375.205 252.779 390.708 260.265 399.528C257.635 391.637 255.809 374.462 269.548 368.892C283.288 363.322 286.413 376.474 286.259 383.746C286.723 381.734 287.651 376.876 287.651 373.534C287.651 369.356 285.794 366.107 283.938 364.251C282.081 362.394 275.118 358.217 262.586 366.107C252.56 372.42 254.695 387.614 257.016 394.422C247.732 376.783 235.664 375.855 230.094 375.855C224.524 375.855 217.097 378.176 209.206 386.995Z" fill="#7DA314"/>
<path d="M246.34 535.53L252.374 527.639L238.449 536.458L237.057 541.564L247.268 558.274L246.34 535.53Z" fill="#855633"/>
<path d="M239.098 620.479C238.355 616.394 240.027 609.184 240.955 606.09C242.812 601.448 244.204 609.339 243.74 615.373C243.276 621.408 244.668 620.479 244.204 627.906C243.74 635.333 240.026 636.261 240.955 631.155C241.883 626.049 240.027 625.585 239.098 620.479Z" fill="#855633"/>
<path d="M231.95 612.581C230.094 618.523 222.203 623.412 218.489 625.114L224.059 538.778C224.678 540.016 227.123 543.234 231.95 546.205C237.984 549.918 237.984 561.987 236.128 564.772C234.271 567.557 236.592 573.591 236.128 581.482C235.664 589.373 240.305 590.301 237.984 595.407C235.664 600.513 234.271 605.155 231.95 612.581Z" fill="#9D5823"/>
<path d="M218.489 619.08L221.738 569.414L223.131 551.775C225.916 555.179 231.579 562.173 231.95 562.915C232.414 563.844 226.38 581.482 226.38 586.124C226.38 590.766 231.022 595.872 230.094 600.049C229.351 603.391 222.048 614.129 218.489 619.08Z" fill="#855633"/>
</g>
<defs>
<linearGradient id="paint0_linear" x1="576" y1="-113" x2="576" y2="677" gradientUnits="userSpaceOnUse">
<stop offset="0.167382" stop-color="#F2722B"/>
<stop offset="0.394937" stop-color="#FBAD2F"/>
<stop offset="0.695279" stop-color="#FCE12E"/>
</linearGradient>
<clipPath id="clip0">
<rect width="1152" height="700" fill="white"/>
</clipPath>
</defs>
</svg>
