<svg width="1152" height="700" viewBox="0 0 1152 700" fill="none" xmlns="http://www.w3.org/2000/svg">
<g clip-path="url(#clip0)">
<rect width="1152" height="700" fill="white"/>
<rect width="1152" height="699" fill="#F69463"/>
<rect width="1152" height="699" fill="url(#paint0_linear)"/>
<path d="M123.96 329.784C113.253 346.867 33.5256 410.454 -5 440.113V554H2.2996H1197V405.708C1192.13 405.708 1176.32 403.573 1151.99 395.031C1121.57 384.354 1106.97 363 1087.51 351.137C1068.04 339.274 931.781 440.113 898.933 419.944C866.085 399.776 824.721 398.59 804.039 405.708C783.356 412.826 717.66 387.913 704.277 383.168C690.895 378.423 664.13 351.137 643.447 351.137C622.765 351.137 621.549 323.852 603.3 317.92C585.051 311.987 533.953 345.205 479.206 373.677C424.46 402.149 404.994 381.982 372.146 373.677C339.298 365.373 304.016 342.833 294.283 351.137C284.551 359.441 266.302 370.118 259.002 363C251.702 355.882 228.587 346.392 205.472 323.852C182.356 301.312 137.342 308.43 123.96 329.784Z" fill="#0D4832"/>
<path d="M28 493C21.6 507.4 6.66667 517 0 520C0 615 12 561 49 578C86 595 122 587 211 567C300 547 669.5 571 896 602C1122.5 633 1148 501 1145 493C1142 485 1136 451 1136 439C1136 429.4 1127.33 410.333 1123 402C1124.33 409.667 1126.2 427.8 1123 439C1119 453 1128 462 1136 493C1144 523.999 1105 520 1096 520H1079C1073 520 1075 467 1079 462C1082.2 458.001 1084.33 455.667 1085 455C1088 446.667 1092.8 427.2 1088 416C1083.2 404.8 1086 386 1088 378C1086.33 382.667 1082.2 395.6 1079 410C1075 428 1064 430 1054 439C1044 448 1039 462 1030 482.999C1021 503.999 1013 462 1007 451C1001 440 1022 439 1039 416C1052.6 397.6 1054.67 383 1054 378C1042.67 386.333 1014.6 405.6 993 416C966 429 964 430 957 451C950 472 907 462 896 462C885 462 866 451 863 462C860.6 470.801 867.333 483 871 487.999C868 487.999 858.6 486.999 845 482.999C828 477.999 818 437 806 439C794 441 732 430 726 416C720 402 669.5 392 679 384C688.5 376.001 674.5 365 669.5 360.5C664.5 356 647 351 639.5 351C632 351 624 340 615 329C615 337.8 604.333 356.667 599 365C602.333 363.333 610.2 361 615 365C621 370 620 409 656 410C692 411 672 446 679 462C681 473 627.003 473 599.002 473H599C576.6 473 596.333 455 609 446C599.667 449.667 577.8 458 565 462C552.2 466.001 563.667 442.334 571 430C565 430 551.6 433.2 546 446C540.4 458.8 517 454.667 506 451C503 458.333 497 475 497 482.999C497 492.999 478 501 475 482.999C472.6 468.599 464.667 494.999 461 510C445 510 407.2 508.2 384 501C357 482 384 493 384 482.999C384 472.999 359 482.999 351 482.999C343 482.999 339 473 339 462C339 451 311 430 300 416C289 402 288 408 288 392C288 379.2 270.667 368.667 262 365C249.333 357.333 222.4 340.4 216 334C189.6 306 166.333 308.334 158 313C164.667 313.334 180.4 315.8 190 323C202 332 200 351 202 360C204 369 224 378 240 384C256 390 267 404 259 430C251 456 244 447 240 462C236.8 474 219.333 474.334 211 473C206.667 474.334 196.4 478.2 190 482.999C182 488.999 173 487.999 158 482.999C143 477.999 116 477.999 107 487.999C99.8 495.999 96 487.999 95 482.999C89.6667 482.999 78 484.999 74 493C69 503 28 512 34 510C40 508 36 475 28 493Z" fill="#00381D"/>
<path d="M397 506C248.2 478 69.6667 511 -1 531V701H1152V467C842 562 583 541 397 506Z" fill="#805F1C"/>
<path d="M-1 702V531C79 496 284.603 493.303 321 496C361.5 499 471 518 498 522C519.6 525.2 569 529.333 591 531C477.4 531 406.333 645 385 702H-1Z" fill="#3E7033"/>
<path d="M120.719 566.752C136.427 563.401 45.4513 572.059 -2 576.807V679.866C6.59031 682.38 26.2253 685.899 36.0428 679.866C48.3147 672.325 99.8566 679.866 87.5847 687.407C75.3128 694.948 120.719 684.056 144.035 679.866C167.352 675.677 161.216 687.407 234.847 679.866C308.478 672.325 323.205 668.974 341.613 636.296C360.02 603.619 266.754 616.187 240.983 601.105C215.212 586.023 225.03 595.24 207.849 601.105C190.668 606.97 178.397 595.24 184.533 576.807C190.668 558.374 92.4934 589.375 55.6778 584.348C18.8622 579.32 101.084 570.942 120.719 566.752Z" fill="#30622D"/>
<path d="M124.389 615H-6V659.333C10.8244 659.333 46.7163 660.5 55.6893 665.167C66.9056 671 158.038 659.333 181.872 659.333C195.332 659.333 176.264 667.111 165.048 671C186.545 670.222 239.075 666.8 277.21 659.333C324.879 650 338.899 627.833 292.632 620.833C246.365 613.833 97.7502 623.167 107.564 620.833C115.416 618.967 122.052 616.167 124.389 615Z" fill="#5E924A"/>
<path d="M415 681C408.6 684.2 392.333 695 385 700H375C376.667 693.667 381 677.8 385 665C390 649 403 630 421 613C435.4 599.4 443.667 584.667 446 579L487 557L507 546C514 543.334 529 536.8 533 532C537 527.201 542 528.5 544 528.5L605 533.5C601.333 533.834 591.2 532.8 580 532C568.8 531.2 569.333 541 571 546H544C538 548.667 524.8 553.6 520 552C514 550 505 571 483 579C465.4 585.4 469 592.334 473 595C468 596.667 457.2 600.6 454 603C450.8 605.4 447.333 616.667 446 622C442.333 623.334 432.2 630 421 646C407 666 423 677 415 681Z" fill="#96C753"/>
<path d="M422 681C415.6 684.2 399.333 695 392 700H382C383.667 693.666 388 677.8 392 665C397 649 410 630 428 613C442.4 599.4 450.667 584.666 453 579L494 557L514 546C521 543.333 536 536.8 540 532C544 527.2 547.5 527.5 549.5 527.5L611.5 534C607.833 534.333 598.2 532.8 587 532C575.8 531.2 576.333 541 578 546H551C545 548.667 531.8 553.6 527 552C521 550 512 571 490 579C472.4 585.4 476 592.333 480 595C475 596.666 464.2 600.6 461 603C457.8 605.4 454.333 616.666 453 622C449.333 623.333 439.2 630 428 646C414 666 430 677 422 681Z" fill="#205424"/>
<path d="M406 681C399.6 684.2 383.333 695 376 700H366C367.667 693.667 372 677.8 376 665C381 649 394 630 412 613C426.4 599.4 434.667 584.667 437 579L478 557L498 546C505 543.333 520 536.8 524 532C528 527.2 533 526 535 526L596 532C592.333 532.334 582.2 532.8 571 532C559.8 531.2 560.333 541 562 546H535C529 548.667 515.8 553.6 511 552C505 550 496 571 474 579C456.4 585.4 460 592.333 464 595C459 596.667 448.2 600.6 445 603C441.8 605.4 438.333 616.667 437 622C433.333 623.333 423.2 630 412 646C398 666 414 677 406 681Z" fill="#3E7033"/>
<path d="M165.469 502.972C177.187 496.647 215.601 495.246 231 495.999L293 495.999L350 499L317.5 517.5C317.5 506.205 299.325 519.914 289.41 519.914C277.016 519.914 283.38 527.816 280 542.5C276.62 557.184 260.027 543.87 242 545C223.972 546.13 248 560.577 216.172 560.577C194.498 560.577 191.384 558.318 171.103 551.541C150.821 544.764 155.106 529.389 167.5 526C179.894 522.611 178.99 521.044 171.103 514.267C163.216 507.49 150.822 510.879 165.469 502.972Z" fill="#2E602D"/>
<path d="M177 502C187.4 496.4 217.333 496.334 231 497L339 498.5L319 512C319 502 295.8 517 287 517C276 517 280 521 277 534C274 547 253 538 237 539C221 540 241 556 222 553C203 550 200 551 182 545C164 539 166 532 177 529C188 526 189 518 182 512C175 506 164 509 177 502Z" fill="#5E9144"/>
<path d="M383 684C379.8 691.6 365.333 697.167 358.5 699H383V696L409.5 679C409.5 677 407.5 672.9 407.5 670.5C406 642 428 628 437.5 623C436.3 619 442.333 608.667 445.5 604L465 595C464.167 591.333 461.8 583 471 581C480.2 579 502 561.833 511 553C519.4 552.2 531.833 547.334 536.5 545.5H561.5C563.5 528.986 578 534 589.5 531.5C573.667 530 543.6 527.2 550 528C558 529 539 533.5 528.5 537C518 540.5 505 541.5 499 545.5C493 549.5 492.5 551.5 483.5 556C474.5 560.5 468.5 568.5 465 573C461.5 577.5 454.5 584 443.5 586.5C432.5 589 431.5 592.5 431.5 602C431.5 611.5 414 625.5 401.5 641.5C389 657.5 386 654 386 658.5C386 663 387 674.5 383 684Z" fill="#3E7033"/>
<path d="M350 662C350.401 659.909 352.289 656.354 356.625 658.863C360.961 661.373 354.015 662 350 662Z" fill="#F1FFC3"/>
<path d="M71 625C71.4015 622.909 73.2885 619.354 77.6246 621.863C81.9607 624.373 75.0149 625 71 625Z" fill="#F1FFC3"/>
<path d="M141 543C141.401 540.909 143.289 537.354 147.625 539.863C151.961 542.373 145.015 543 141 543Z" fill="#F1FFC3"/>
<path d="M348.538 647.44C346.704 646.359 343.991 643.386 347.812 640.146C351.634 636.907 349.889 643.659 348.538 647.44Z" fill="#F1FFC3"/>
<path d="M62.767 620.88C60.9326 619.798 58.2193 616.825 62.0409 613.586C65.8626 610.346 64.1173 617.099 62.767 620.88Z" fill="#F1FFC3"/>
<path d="M356.577 639.883C358.992 638.249 363.898 635.954 364.2 639.849C364.501 643.743 359.244 641.494 356.577 639.883Z" fill="#F1FFC3"/>
<path d="M393 528.433C395.415 526.8 400.321 524.505 400.623 528.399C400.924 532.294 395.667 530.045 393 528.433Z" fill="#F1FFC3"/>
<path d="M366 518.433C368.415 516.8 373.321 514.505 373.623 518.399C373.924 522.294 368.667 520.045 366 518.433Z" fill="#F1FFC3"/>
<path d="M157 535.433C159.415 533.8 164.321 531.505 164.623 535.399C164.924 539.294 159.667 537.045 157 535.433Z" fill="#F1FFC3"/>
<path d="M1050 701C1074.8 698.6 1129.33 694 1152 701V536L1145 554C1145 560.667 1128 572.4 1128 586C1128 599.6 1040.83 619 1030.5 622C1035.17 621 1108.4 615.6 1122 622C1139 630 1116 628 1122 654C1126.8 674.8 1090.67 674 1072 671L1002 689C990 701 1025.2 703.4 1050 701Z" fill="#744B17"/>
<path d="M1152 685H1091.93C1090.86 685.1 1089.88 685.102 1089 685H1091.93C1101.36 684.117 1117.53 675.576 1131 663C1144.18 650.699 1133 637 1136 631C1138.4 626.2 1123.67 615 1116 610L1136 589C1137.33 589.667 1140.4 589.6 1142 584C1143.6 578.4 1149.33 572.333 1152 570V685Z" fill="#6D3914"/>
<path d="M448.626 693.78C457.045 704.312 563.05 705.541 615 704.839L558.373 700.099C541.168 697.993 504.753 693.78 496.735 693.78C486.712 693.78 468.17 685.354 456.645 685.88C445.119 686.407 448.626 672.188 448.626 663.762C448.626 655.337 469.674 645.33 473.683 642.17C477.692 639.011 473.683 626.898 478.694 616.893C482.703 608.888 506.423 608.291 517.782 608.993L510.766 603.201C509.43 603.201 506.056 601.515 503.249 594.774C499.741 586.348 526.301 583.715 536.825 569.497C547.348 555.278 559.877 562.124 578.418 562.124C596.96 562.124 590.946 547.378 590.946 540.006C590.946 534.108 614.534 536 612.5 533C607.656 533.527 584.332 532.317 581.926 535.266C578.919 538.953 589.443 547.379 578.418 553.172C567.393 558.964 553.362 551.592 547.348 553.172C541.335 554.751 528.306 555.805 526.301 562.124C524.297 568.444 504.252 582.662 493.728 586.349C485.309 589.298 492.225 598.812 496.735 603.201C491.556 603.903 479.696 606.044 473.683 608.993C466.166 612.68 467.168 618.473 464.663 631.638C462.157 644.804 440.107 652.177 433.091 663.762C426.075 675.348 438.102 680.614 448.626 693.78Z" fill="#6C3811"/>
<path d="M672.976 564.34C659.386 560.458 645.996 568.17 641 572.511C647.931 574.073 660.1 570.664 670.997 573.12C681.895 575.575 699.615 572.052 704.904 566.41C699.924 567.338 686.566 568.223 672.976 564.34Z" fill="#977224" fill-opacity="0.79"/>
<path d="M936.976 660.34C923.386 656.458 909.996 664.17 905 668.511C911.931 670.073 924.1 666.664 934.997 669.12C945.895 671.575 963.615 668.052 968.904 662.41C963.924 663.338 950.566 664.223 936.976 660.34Z" fill="#977224" fill-opacity="0.79"/>
<path d="M699.994 632.578C687.194 643.778 701.994 655.912 710.994 660.578L747.994 668.578L756.994 676.578H772.994C785.994 671.245 813.994 659.178 821.994 653.578C831.994 646.578 885.994 632.578 884.994 619.578C883.994 606.578 838.994 624.579 821.994 632.578C804.994 640.578 776.994 625.578 764.994 619.578C752.994 613.578 715.994 618.578 699.994 632.578Z" fill="#B2782B" fill-opacity="0.7"/>
<path d="M927.661 606.387C919.585 606.344 912.845 607.942 910.485 608.747C910.326 611.582 910.983 618.067 914.889 621.318C919.771 625.383 923.01 612.997 926.049 611.138C929.088 609.279 932.242 612.758 942.778 611.517C953.313 610.275 937.757 606.441 927.661 606.387Z" fill="#AC883C"/>
<path d="M563.122 651.215C547.367 650.899 538.819 643.239 528.317 636.736C513.177 628.407 528.183 599.553 540.078 611.197C551.973 622.841 566.691 606.164 574.198 611.624C581.705 617.084 591.841 610.012 607.922 618.2C619.738 618.437 597.572 653.389 591.172 650.9C584.773 648.412 582.816 651.61 563.122 651.215Z" fill="#B2782B" fill-opacity="0.7"/>
<path d="M761.811 637.954C758 623.471 729.738 642.46 720.991 644.713C728.766 647.931 730.817 672.561 768.5 660C845 634.5 765.521 652.052 761.811 637.954Z" fill="#AC883C"/>
<path d="M727.794 591.609C713.021 598.561 744.317 599.655 761.811 599.333C776.39 599.333 810.212 597.788 828.872 591.609C852.198 583.885 803.603 579.057 761.811 576.161C720.019 573.264 746.261 582.919 727.794 591.609Z" fill="#AC883C"/>
<path d="M994.096 576.161C980.878 582.34 967.207 584.528 962.023 584.85C966.235 587.103 977.185 591.609 987.293 591.609C999.928 591.609 1007.7 584.85 1028.11 576.161C1048.52 567.471 1010.62 568.436 994.096 576.161Z" fill="#AC883C"/>
<path d="M586.868 637.954C571.318 637.954 539.569 642.46 525.638 644.713C499.397 637.954 525.638 628.299 561.599 623.471C597.559 618.644 606.306 637.954 586.868 637.954Z" fill="#AC883C"/>
<path d="M1003 518C991 516.4 998 509.333 1003 506L1109 480C1107.33 484.333 1106.8 498.8 1090 502C1069 506 1069 511 1064 524C1059 537 1047 530 1037 518C1027 506 1018 520 1003 518Z" fill="#744B17"/>
<path d="M1055 493.5C1041.53 497.769 1010 500.5 1027 505.5C1034.1 505.674 1038.76 521.998 1049.93 522.271C1061.1 522.544 1076.12 496.624 1080.2 490.055C1075.5 488 1069.85 488.794 1055 493.5Z" fill="#A47A28"/>
<path d="M423 677.5L391.5 700.5H466.5C461.667 699 452.6 693.3 449 690.5C444.5 687 431.5 679 431.5 670C431.5 661 453.5 645.5 460.5 640.5C467.5 635.5 465 618.5 469.5 612.5C473.1 607.7 490 604.5 498 603.5C497.667 603 498.3 600.657 495.5 598.657C486.5 588.657 491.5 586.657 504.5 581.657C517.5 576.657 526.5 566.5 531.5 560.5C536.5 554.5 546.5 554.5 551.5 554C555.5 553.6 566.167 555.167 571 556C576.833 554.833 587.4 550.4 583 542C578.6 533.6 588.833 532.167 594.5 532.5C593 532 588.4 531.3 582 532.5C575.6 533.7 576.667 541.667 578 545.5H551.5C549.333 547.5 540.288 550.868 534.5 550C524.5 548.5 523.5 551.5 515.5 561.5C507.5 571.5 488 578 480 582.5C473.6 586.1 477.333 593.834 480 596C475.5 594.5 464.1 599.8 460.5 601C456.9 602.2 453.333 616.334 452 622C448.833 624.5 441.6 630.4 438 634C420 648.4 419.667 669 423 677.5Z" fill="#744B17"/>
<path d="M117 414C71.4 426 23.3333 430.167 6 431.5C42.3333 402.833 118.5 337 126 326C134.864 313 150.667 311.333 158 311C159 316 163 331 175 347C190 367 177 366 180 388C183 410 208 421 196 433C184 445 174 399 117 414Z" fill="#285E4E"/>
<path d="M282 392C284.4 384 272.333 372 266 367C265.5 366.667 264 365.8 262 365C264 365 268.5 365 272.5 364C279.3 362.8 290.667 354.5 295.5 350.5C309 346 335 361.5 342 364C349 366.5 372.5 374 379.5 376C386.5 378 405.5 386 426 389C446.5 392 468 378.5 473.5 377C479 375.5 544.5 339.5 563 329.5C577.8 321.5 587.167 319.167 590 319C592.333 320.333 596.8 326 596 338C595 353 574 367 581 360C586.6 354.4 583.333 343 581 338L568 347C553.667 359 521.8 383.6 509 386C493 389 457 392 433 408C409 424 380 418 365 413C353 409 340 418 335 423C336.333 425.667 340.8 433.8 348 445C357 459 322 448 312 436C302 424 279 402 282 392Z" fill="#285E4E"/>
<path d="M693.5 378.5C694.486 378.955 695.81 379.638 697.372 380.535C705.068 383.913 721.575 389.569 730.5 392.5C749 398.667 789.3 410.1 802.5 406.5C819 402 824.5 401 848 403C871.5 405 887 414 893.5 417C900 420 899.5 426 924.5 420.5C949.5 415 1009.5 383.5 1031 371.5C1048.2 361.9 1069.17 354.167 1077.5 351.5V361.5C1077.5 367.5 1078.5 371.5 1077.5 383.5C1076.5 395.5 1075.5 392 1068.5 401C1062.9 408.2 1059.17 417 1058 420.5C1058.33 418.833 1058.8 413.7 1058 406.5C1057 397.5 1059.5 396.5 1063 383.5C1066.5 370.5 1056 368 1047.5 371.5C1039 375 1016.5 391.5 1009.5 396.5C1002.5 401.5 976 413.5 962 420.5C948 427.5 944 440.5 924.5 447C905 453.5 871.5 439 860.5 435.5C849.5 432 841 426 837.5 435.5C834 445 847.5 451.5 841 451.5C834.5 451.5 828 437 823 430.5C818 424 793 424.5 780 426C767 427.5 728.5 408.5 717.5 396.5C710.702 389.085 702.672 383.578 697.372 380.535C695.439 379.686 694.062 378.982 693.5 378.5Z" fill="#285E4E"/>
<path d="M74 389.5C64 401.1 40.8333 414 30.5 419C38 418 58.7 413.6 81.5 404C110 392 95 386 103 376C111 366 127 375 135 372C143 369 143 357 138.5 349.5C134 342 147 329 147 319.5C147 311.9 141.333 321 138.5 326.5C134.667 331.334 125.4 342.7 119 349.5C111 358 86.5 375 74 389.5Z" fill="#388768"/>
<path d="M313 431C315.4 437.4 324.333 437 328.5 436C332.499 435.451 328.5 420.5 324.5 407.5C320.5 394.5 344 395.5 362 395.5C380 395.5 379 401 402 401.5C425 402 422.5 395.5 409.5 395.5C396.5 395.5 383.5 389.5 369 382.5C354.5 375.5 351 380 328.5 380C305.999 380 309.5 365 295 363.5C280.5 362 279.5 368.5 283.5 376.5C287.5 384.5 292.5 385.5 292.5 395.5C292.5 405.5 298.5 401 306 414.5C313.5 428 310 423 313 431Z" fill="#388768"/>
<path d="M540.5 350C531.3 359.6 493.333 376 475.5 383C459 396.001 493.5 383 505.5 379C517.5 375 516.5 376 521 370C525.5 364 546.5 356 556 350C565.5 344 552 338 540.5 350Z" fill="#388768"/>
<path d="M779 417.5C767.4 418.3 746.167 407.833 737 402.5C717.651 393 768.5 406.5 783 412C797.5 417.5 816.5 412 825.5 412C834.5 412 845.5 413.5 873.5 421C901.5 428.5 895.5 430 904.5 431C913.5 432 929 429.5 949 417.5C965 407.9 993 397.5 1005 393.5C1001 396.5 991.8 402.5 987 402.5C981 402.5 953.5 423.5 944.5 426C935.5 428.5 923 438.5 912 442.5C901 446.5 848 423.5 835.5 423.5C823 423.5 833 431.5 825.5 423.5C818 415.5 793.5 416.5 779 417.5Z" fill="#388768"/>
<g filter="url(#filter0_f)">
<circle cx="1049.5" cy="86.5" r="180.5" fill="white" fill-opacity="0.7"/>
</g>
<circle cx="1049.94" cy="90.4617" r="151.004" fill="#E8EFF5"/>
<g filter="url(#filter1_f)">
<circle cx="1049.06" cy="71.9714" r="132.513" fill="#F4F9FD" fill-opacity="0.6"/>
</g>
<g filter="url(#filter2_f)">
<circle cx="1053.46" cy="54.3614" r="113.143" fill="white"/>
</g>
<ellipse cx="974.579" cy="180.026" rx="22.1438" ry="13.2073" transform="rotate(21.6521 974.579 180.026)" fill="#D5DFE9"/>
<ellipse cx="1013.21" cy="216.812" rx="6.9873" ry="5.75215" transform="rotate(21.6521 1013.21 216.812)" fill="#D5DFE9"/>
<ellipse cx="1058.12" cy="197.441" rx="6.9873" ry="5.75215" transform="rotate(21.6521 1058.12 197.441)" fill="#D5DFE9"/>
<ellipse cx="1000" cy="128.763" rx="6.9873" ry="5.75215" transform="rotate(21.6521 1000 128.763)" fill="#D5DFE9" fill-opacity="0.2"/>
<ellipse cx="1144.41" cy="24.8658" rx="6.9873" ry="5.75215" transform="rotate(21.6521 1144.41 24.8658)" fill="#D5DFE9" fill-opacity="0.2"/>
<ellipse cx="1094.73" cy="212.949" rx="3.58096" ry="2.94795" transform="rotate(21.6521 1094.73 212.949)" fill="#D5DFE9"/>
<ellipse cx="935.931" cy="140.749" rx="3.58096" ry="2.94795" transform="rotate(21.6521 935.931 140.749)" fill="#D5DFE9"/>
<ellipse cx="951.78" cy="111.692" rx="3.58096" ry="2.94795" transform="rotate(21.6521 951.78 111.692)" fill="#D5DFE9"/>
<ellipse cx="912.158" cy="90.5602" rx="3.58096" ry="2.94795" transform="rotate(21.6521 912.158 90.5602)" fill="white"/>
<ellipse cx="1149.01" cy="94.9636" rx="3.58096" ry="2.94795" transform="rotate(21.6521 1149.01 94.9636)" fill="#D5DFE9"/>
<ellipse cx="1129.82" cy="183.195" rx="22.1438" ry="13.2073" transform="rotate(-9.18361 1129.82 183.195)" fill="#D5DFE9"/>
<g filter="url(#filter3_f)">
<circle cx="319" cy="91" r="2" fill="white" fill-opacity="0.6"/>
</g>
<g filter="url(#filter4_f)">
<circle cx="405" cy="153" r="2" fill="white" fill-opacity="0.6"/>
</g>
<g filter="url(#filter5_f)">
<circle cx="324" cy="215" r="2" fill="white" fill-opacity="0.6"/>
</g>
<g filter="url(#filter6_f)">
<ellipse cx="279" cy="148.5" rx="2" ry="2.5" fill="white" fill-opacity="0.6"/>
</g>
<g filter="url(#filter7_f)">
<circle cx="166" cy="24" r="2" fill="white" fill-opacity="0.6"/>
</g>
<g filter="url(#filter8_f)">
<circle cx="364" cy="26" r="2" fill="white" fill-opacity="0.6"/>
</g>
<g filter="url(#filter9_f)">
<circle cx="49" cy="59" r="2" fill="white" fill-opacity="0.6"/>
</g>
<g filter="url(#filter10_f)">
<circle cx="214" cy="200" r="2" fill="white" fill-opacity="0.6"/>
</g>
<g filter="url(#filter11_f)">
<circle cx="149" cy="265" r="2" fill="white" fill-opacity="0.6"/>
</g>
<g filter="url(#filter12_f)">
<circle cx="214" cy="106" r="2" fill="white" fill-opacity="0.6"/>
</g>
<g filter="url(#filter13_f)">
<ellipse cx="122.5" cy="196" rx="2.5" ry="2" fill="white" fill-opacity="0.6"/>
</g>
<g filter="url(#filter14_f)">
<ellipse cx="49.5" cy="277" rx="2.5" ry="2" fill="white" fill-opacity="0.6"/>
</g>
<g filter="url(#filter15_f)">
<ellipse cx="46.5" cy="352" rx="2.5" ry="2" fill="white" fill-opacity="0.6"/>
</g>
<g filter="url(#filter16_f)">
<circle cx="170" cy="127" r="2" fill="white" fill-opacity="0.6"/>
</g>
<g filter="url(#filter17_f)">
<ellipse cx="122.5" cy="96" rx="2.5" ry="2" fill="white" fill-opacity="0.6"/>
</g>
<g filter="url(#filter18_f)">
<circle cx="32" cy="179" r="2" fill="white" fill-opacity="0.6"/>
</g>
<g filter="url(#filter19_f)">
<circle cx="489" cy="146" r="2" fill="white" fill-opacity="0.6"/>
</g>
<g filter="url(#filter20_f)">
<circle cx="790" cy="233" r="2" fill="white" fill-opacity="0.6"/>
</g>
<g filter="url(#filter21_f)">
<ellipse cx="536" cy="209.5" rx="2" ry="2.5" fill="white" fill-opacity="0.6"/>
</g>
<g filter="url(#filter22_f)">
<ellipse cx="837" cy="296.5" rx="2" ry="2.5" fill="white" fill-opacity="0.6"/>
</g>
<g filter="url(#filter23_f)">
<ellipse cx="993" cy="333.5" rx="2" ry="2.5" fill="white" fill-opacity="0.6"/>
</g>
<g filter="url(#filter24_f)">
<ellipse cx="886" cy="319.5" rx="2" ry="2.5" fill="white" fill-opacity="0.6"/>
</g>
<g filter="url(#filter25_f)">
<circle cx="470" cy="227" r="2" fill="white" fill-opacity="0.6"/>
</g>
<g filter="url(#filter26_f)">
<circle cx="364" cy="292" r="2" fill="white" fill-opacity="0.6"/>
</g>
<g filter="url(#filter27_f)">
<circle cx="771" cy="314" r="2" fill="white" fill-opacity="0.6"/>
</g>
<g filter="url(#filter28_f)">
<circle cx="661" cy="320" r="2" fill="white" fill-opacity="0.6"/>
</g>
<g filter="url(#filter29_f)">
<circle cx="855" cy="384" r="2" fill="white" fill-opacity="0.6"/>
</g>
<g filter="url(#filter30_f)">
<circle cx="684" cy="238" r="2" fill="white" fill-opacity="0.6"/>
</g>
<g filter="url(#filter31_f)">
<circle cx="651" cy="159" r="2" fill="white" fill-opacity="0.6"/>
</g>
<g filter="url(#filter32_f)">
<circle cx="655" cy="89" r="2" fill="white" fill-opacity="0.6"/>
</g>
<g filter="url(#filter33_f)">
<circle cx="506" cy="85" r="2" fill="white" fill-opacity="0.6"/>
</g>
<g filter="url(#filter34_f)">
<circle cx="558.5" cy="111.5" r="2.5" fill="white" fill-opacity="0.6"/>
</g>
<g filter="url(#filter35_f)">
<circle cx="859.5" cy="198.5" r="2.5" fill="white" fill-opacity="0.6"/>
</g>
<g filter="url(#filter36_f)">
<circle cx="785.5" cy="150.5" r="2.5" fill="white" fill-opacity="0.6"/>
</g>
<g filter="url(#filter37_f)">
<circle cx="744.5" cy="69.5" r="2.5" fill="white" fill-opacity="0.6"/>
</g>
<g filter="url(#filter38_f)">
<circle cx="716.5" cy="179.5" r="2.5" fill="white" fill-opacity="0.6"/>
</g>
<g filter="url(#filter39_f)">
<ellipse cx="290.5" cy="51" rx="2.5" ry="2" fill="white" fill-opacity="0.6"/>
</g>
<g filter="url(#filter40_f)">
<circle cx="441" cy="51" r="2" fill="white" fill-opacity="0.6"/>
</g>
<g filter="url(#filter41_f)">
<circle cx="540" cy="11" r="2" fill="white" fill-opacity="0.6"/>
</g>
<g filter="url(#filter42_f)">
<circle cx="407" cy="95" r="2" fill="white" fill-opacity="0.6"/>
</g>
<g filter="url(#filter43_f)">
<circle cx="342" cy="140" r="2" fill="white" fill-opacity="0.6"/>
</g>
<g filter="url(#filter44_f)">
<circle cx="252" cy="329" r="2" fill="white" fill-opacity="0.6"/>
</g>
<g filter="url(#filter45_f)">
<ellipse cx="578" cy="159.5" rx="2" ry="2.5" fill="white" fill-opacity="0.6"/>
</g>
<g filter="url(#filter46_f)">
<ellipse cx="794" cy="22.5" rx="2" ry="2.5" fill="white" fill-opacity="0.6"/>
</g>
<g filter="url(#filter47_f)">
<ellipse cx="607" cy="52.5" rx="2" ry="2.5" fill="white" fill-opacity="0.6"/>
</g>
<g filter="url(#filter48_f)">
<ellipse cx="879" cy="246.5" rx="2" ry="2.5" fill="white" fill-opacity="0.6"/>
</g>
<g filter="url(#filter49_f)">
<ellipse cx="934" cy="386.5" rx="2" ry="2.5" fill="white" fill-opacity="0.6"/>
</g>
<g filter="url(#filter50_f)">
<ellipse cx="1143" cy="330.5" rx="2" ry="2.5" fill="white" fill-opacity="0.6"/>
</g>
<g filter="url(#filter51_f)">
<circle cx="597" cy="250" r="2" fill="white" fill-opacity="0.6"/>
</g>
<g filter="url(#filter52_f)">
<circle cx="466" cy="352" r="2" fill="white" fill-opacity="0.6"/>
</g>
<path d="M277.168 405.164C257.743 421.212 248.327 403.432 246.047 392.536C244.74 405.09 237.202 426.408 217.502 411.257C197.802 396.106 209.168 375.394 217.313 366.931C208.827 374.524 189.341 384.826 179.286 365.29C166.717 340.87 215.214 344.425 208.103 343.451C202.415 342.672 196.434 339.75 194.154 338.386C178.671 329.408 185.354 310.231 199.354 303.987C210.554 298.992 219.493 313.397 222.563 321.224C224.16 311.316 231.173 293.614 246.453 302.07C261.732 310.527 255.559 329.102 250.563 337.333C258.754 328.351 277.956 316.054 289.238 338.72C300.521 361.387 277.877 372.024 265.145 374.51C277.246 378.041 296.593 389.117 277.168 405.164Z" fill="#33810F"/>
<path d="M266.633 569.467L287.056 575.965L300.981 564.825L296.34 458.994L320.476 426.502V414.434L296.34 443.212L300.981 382.87L274.059 404.222V443.212H255.492L247.137 426.502L241.567 433.929L255.492 452.496L274.059 458.994L266.633 569.467Z" fill="#B07D56"/>
<path d="M175.579 433.567C167.732 409.624 187.722 407.35 198.698 409.206C187.489 403.406 170.395 388.603 191.693 375.796C212.991 362.989 213.717 367.552 226.25 374.05C226.25 359.264 226.579 359.231 248.145 357.034L248.441 357.003C275.764 354.219 254.746 398.07 258.249 391.805C261.051 386.794 265.955 382.293 268.057 380.669C282.069 369.532 297.482 382.757 298.183 398.07C298.743 410.32 282.069 413.383 273.662 413.383C282.303 418.487 296.221 431.48 282.77 442.616C269.318 453.753 254.279 441.224 248.441 433.567C253.812 444.472 258.249 466.838 233.028 469.066C207.806 471.293 204.42 460.614 206.755 447.853C199.048 457.83 183.425 457.511 175.579 433.567Z" fill="#1C490D"/>
<path d="M186.401 429.748C179.959 410.185 196.369 408.327 205.379 409.844C196.178 405.105 182.145 393.011 199.628 382.547C217.112 372.082 217.709 375.811 227.996 381.12C227.996 369.039 228.267 369.012 245.97 367.217L246.213 367.192C268.642 364.917 251.389 400.745 254.264 395.627C256.565 391.532 260.59 387.855 262.316 386.528C273.818 377.429 286.471 388.234 287.046 400.745C287.506 410.754 273.818 413.256 266.917 413.256C274.01 417.427 285.435 428.043 274.393 437.142C263.351 446.241 251.005 436.004 246.213 429.748C250.622 438.658 254.264 456.932 233.56 458.752C212.856 460.572 210.076 451.847 211.993 441.421C205.667 449.572 192.842 449.311 186.401 429.748Z" fill="#377407"/>
<path d="M250.774 361.157C242.927 337.213 262.918 334.94 273.894 336.796C262.684 330.996 245.59 316.193 266.888 303.386C288.186 290.579 303.319 308.722 308.223 319.395C304.253 308.723 301.777 286.821 323.636 284.593C350.959 281.809 329.941 325.66 333.444 319.395C336.247 314.384 341.151 309.883 343.253 308.259C357.264 297.122 372.677 310.347 373.378 325.66C373.939 337.91 357.264 340.972 348.857 340.972C357.498 346.077 371.416 359.069 357.965 370.206C344.514 381.343 329.474 368.814 323.636 361.157C329.007 372.062 333.444 394.428 308.223 396.655C283.002 398.883 281.367 373.918 283.702 361.157C275.996 371.134 258.621 385.101 250.774 361.157Z" fill="#14670C"/>
<path d="M259.329 393.239C250.604 366.525 272.832 363.988 285.036 366.059C272.572 359.587 253.564 343.072 277.246 328.783C300.929 314.494 317.755 334.737 323.209 346.645C318.794 334.737 316.042 310.301 340.347 307.816C370.729 304.71 347.358 353.634 351.253 346.645C354.369 341.053 359.822 336.031 362.159 334.219C377.74 321.794 394.878 336.549 395.657 353.634C396.28 367.301 377.74 370.718 368.392 370.718C377.999 376.413 393.476 390.909 378.519 403.334C363.562 415.759 346.839 401.781 340.347 393.239C346.319 405.405 351.253 430.359 323.209 432.844C295.164 435.329 293.346 407.476 295.943 393.239C287.374 404.369 268.054 419.953 259.329 393.239Z" fill="#506908"/>
<path d="M287.908 434.496C280.061 410.552 300.051 408.279 311.027 410.135C299.818 404.334 282.724 389.532 304.022 376.725C325.32 363.918 340.453 382.061 345.357 392.734C341.387 382.061 338.911 360.159 360.77 357.932C388.093 355.148 367.075 398.998 370.578 392.734C373.38 387.722 378.285 383.221 380.386 381.597C394.398 370.461 409.811 383.686 410.512 398.998C411.072 411.249 394.398 414.311 385.991 414.311C394.632 419.416 408.55 432.408 395.099 443.545C381.647 454.681 366.608 442.153 360.77 434.496C366.141 445.401 370.578 467.767 345.357 469.994C320.135 472.222 318.501 447.257 320.836 434.496C313.129 444.473 295.754 458.44 287.908 434.496Z" fill="#489C07"/>
<path d="M314.065 392.572C309.933 397.71 317.939 404.347 322.458 407.023C324.18 408.629 326.59 411.905 322.458 412.162C317.293 412.483 306.963 412.804 308.578 421.474C310.192 430.145 314.065 431.43 322.458 424.686C330.851 417.942 330.529 426.934 332.466 437.531C334.403 448.128 346.992 441.706 350.22 435.925C353.449 430.145 346.992 419.226 345.378 418.263C343.764 417.3 341.182 409.914 338.276 407.023C335.371 404.133 341.182 397.068 332.466 389.682C323.75 382.296 319.23 386.15 314.065 392.572Z" fill="#7EAA04"/>
<path d="M305.16 375.907C326.326 364.767 340.127 381.013 344.15 390.296L345.078 391.689C337.707 385.19 318.66 374.979 307.016 384.262C295.372 393.546 308.973 407.626 317.228 413.505C309.183 413.094 293.648 416.046 295.876 431.144C298.104 446.242 315.372 436.506 323.727 429.751C324.5 440.555 330.132 462.087 346.471 461.779C362.81 461.471 363.181 444.012 361.324 435.321C362.252 437.641 363.903 442.956 364.109 444.604C364.573 448.317 366.43 459.458 361.324 463.171C356.219 466.885 351.112 472.918 335.795 469.669C322.079 466.76 318.156 449.246 320.477 435.321C316.764 440.426 307.573 447.853 300.518 447.853C291.698 447.853 283.344 430.68 287.521 418.611C290.863 408.956 303.767 408.399 310.266 409.791L307.016 407.935C297.578 402.056 283.994 387.047 305.16 375.907Z" fill="#597609" fill-opacity="0.7"/>
<path d="M199.329 308.139C181.876 321.135 190.2 331.502 196.544 335.06L201.185 337.845C199.174 335.525 194.78 329.676 193.294 324.849C191.809 320.021 199.793 309.84 203.97 305.354L199.329 308.139Z" fill="#ABDE1F"/>
<path d="M336.259 311.387C360.396 304.332 353.743 331.347 347.399 345.736C348.172 337.072 348.791 318.721 345.078 314.637C340.436 309.531 330.689 313.708 336.259 311.387Z" fill="#74980F"/>
<path d="M259.206 309.995C252.894 317.05 259.361 325.622 263.384 329.026L268.025 332.739C264.216 327.633 259.719 315.287 272.203 306.746C284.687 298.205 302.779 313.708 310.265 322.528C307.635 314.637 305.809 297.462 319.548 291.892C333.288 286.322 336.413 299.474 336.259 306.746C336.723 304.734 337.651 299.876 337.651 296.534C337.651 292.356 335.794 289.107 333.938 287.251C332.081 285.394 325.118 281.217 312.586 289.107C302.56 295.42 304.695 310.614 307.016 317.422C297.732 299.783 285.664 298.855 280.094 298.855C274.524 298.855 267.097 301.176 259.206 309.995Z" fill="#7DA314"/>
<path d="M296.34 458.53L302.374 450.639L288.449 459.458L287.057 464.564L297.268 481.274L296.34 458.53Z" fill="#855633"/>
<path d="M289.098 543.479C288.355 539.394 290.027 532.184 290.955 529.09C292.812 524.448 294.204 532.339 293.74 538.373C293.276 544.408 294.668 543.479 294.204 550.906C293.74 558.333 290.026 559.261 290.955 554.155C291.883 549.049 290.027 548.585 289.098 543.479Z" fill="#855633"/>
<path d="M281.95 535.581C280.094 541.523 272.203 546.412 268.489 548.114L274.059 461.778C274.678 463.016 277.123 466.234 281.95 469.205C287.984 472.918 287.984 484.987 286.128 487.772C284.271 490.557 286.592 496.591 286.128 504.482C285.664 512.373 290.305 513.301 287.984 518.407C285.664 523.513 284.271 528.155 281.95 535.581Z" fill="#9D5823"/>
<path d="M268.489 542.08L271.738 492.414L273.131 474.775C275.916 478.179 281.579 485.173 281.95 485.915C282.414 486.844 276.38 504.482 276.38 509.124C276.38 513.766 281.022 518.872 280.094 523.049C279.351 526.391 272.048 537.129 268.489 542.08Z" fill="#855633"/>
<path d="M85.168 429.164C65.7427 445.212 56.3267 427.432 54.0469 416.536C52.7402 429.09 45.2016 450.408 25.5019 435.257C5.8022 420.106 17.1676 399.394 25.3127 390.931C16.8266 398.524 -2.65923 408.826 -12.7141 389.29C-25.2827 364.87 23.2144 368.425 16.1034 367.451C10.4147 366.672 4.43382 363.75 2.15449 362.386C-13.3294 353.408 -6.64571 334.231 7.35401 327.987C18.5538 322.992 27.4933 337.397 30.563 345.224C32.1598 335.316 39.1733 317.614 54.4526 326.07C69.7318 334.527 63.5595 353.102 58.5634 361.333C66.7539 352.351 85.9557 340.054 97.2385 362.72C108.521 385.387 85.8771 396.024 73.1447 398.51C85.2464 402.041 104.593 413.117 85.168 429.164Z" fill="#33810F"/>
<path d="M74.6326 593.467L95.0561 599.965L108.981 588.825L104.34 482.994L128.476 450.502V438.434L104.34 467.212L108.981 406.87L82.0593 428.222V467.212H63.4925L55.1374 450.502L49.5674 457.929L63.4925 476.496L82.0593 482.994L74.6326 593.467Z" fill="#B07D56"/>
<path d="M-16.4212 457.567C-24.2679 433.624 -4.27764 431.35 6.69831 433.206C-4.51107 427.406 -21.6053 412.603 -0.307325 399.796C20.9907 386.989 21.7175 391.552 34.2501 398.05C34.2501 383.264 34.5792 383.231 56.1446 381.034L56.4407 381.003C83.7638 378.219 62.746 422.07 66.249 415.805C69.0513 410.794 73.9555 406.293 76.0573 404.669C90.0691 393.532 105.482 406.757 106.183 422.07C106.743 434.32 90.0691 437.383 81.662 437.383C90.3027 442.487 104.221 455.48 90.7697 466.616C77.3183 477.753 62.2789 465.224 56.4407 457.567C61.8119 468.472 66.249 490.838 41.0276 493.066C15.8063 495.293 12.4196 484.614 14.7549 471.853C7.04832 481.83 -8.57461 481.511 -16.4212 457.567Z" fill="#1C490D"/>
<path d="M-5.59941 453.748C-12.0407 434.185 4.36922 432.327 13.3793 433.844C4.17759 429.105 -9.85501 417.011 7.62843 406.547C25.1119 396.082 25.7085 399.811 35.9965 405.12C35.9965 393.039 36.2666 393.012 53.9696 391.217L54.2126 391.192C76.642 388.917 59.3886 424.745 62.2642 419.627C64.5646 415.532 68.5904 411.855 70.3158 410.528C81.818 401.429 94.4705 412.234 95.0456 424.745C95.5057 434.754 81.818 437.256 74.9167 437.256C82.0098 441.427 93.4353 452.043 82.3932 461.142C71.351 470.241 59.0052 460.004 54.2126 453.748C58.6218 462.658 62.2642 480.932 41.5601 482.752C20.856 484.572 18.0759 475.847 19.993 465.421C13.6666 473.572 0.841857 473.311 -5.59941 453.748Z" fill="#377407"/>
<path d="M58.7741 385.157C50.9274 361.213 70.9177 358.94 81.8936 360.796C70.6842 354.996 53.59 340.193 74.888 327.386C96.186 314.579 111.319 332.722 116.223 343.395C112.253 332.723 109.777 310.821 131.636 308.593C158.959 305.809 137.941 349.66 141.444 343.395C144.247 338.384 149.151 333.883 151.253 332.259C165.264 321.122 180.677 334.347 181.378 349.66C181.939 361.91 165.264 364.972 156.857 364.972C165.498 370.077 179.416 383.069 165.965 394.206C152.514 405.343 137.474 392.814 131.636 385.157C137.007 396.062 141.444 418.428 116.223 420.655C91.0016 422.883 89.3669 397.918 91.7022 385.157C83.9956 395.134 66.6207 409.101 58.7741 385.157Z" fill="#14670C"/>
<path d="M67.3288 417.239C58.6038 390.525 80.8317 387.988 93.0363 390.059C80.5722 383.587 61.5644 367.072 85.2465 352.783C108.929 338.494 125.755 358.737 131.209 370.645C126.794 358.737 124.042 334.301 148.347 331.816C178.729 328.71 155.358 377.634 159.253 370.645C162.369 365.053 167.822 360.031 170.159 358.219C185.74 345.794 202.878 360.549 203.657 377.634C204.28 391.301 185.74 394.718 176.392 394.718C185.999 400.413 201.476 414.909 186.519 427.334C171.562 439.759 154.839 425.781 148.347 417.239C154.319 429.405 159.253 454.359 131.209 456.844C103.164 459.329 101.346 431.476 103.943 417.239C95.3736 428.369 76.0538 443.953 67.3288 417.239Z" fill="#506908"/>
<path d="M95.9079 458.496C88.0612 434.552 108.051 432.279 119.027 434.135C107.818 428.334 90.7238 413.532 112.022 400.725C133.32 387.918 148.453 406.061 153.357 416.734C149.387 406.061 146.911 384.159 168.77 381.932C196.093 379.148 175.075 422.998 178.578 416.734C181.38 411.722 186.285 407.221 188.386 405.597C202.398 394.461 217.811 407.686 218.512 422.998C219.072 435.249 202.398 438.311 193.991 438.311C202.632 443.416 216.55 456.408 203.099 467.545C189.647 478.681 174.608 466.153 168.77 458.496C174.141 469.401 178.578 491.767 153.357 493.994C128.135 496.222 126.501 471.257 128.836 458.496C121.129 468.473 103.754 482.44 95.9079 458.496Z" fill="#489C07"/>
<path d="M122.065 416.572C117.933 421.71 125.939 428.347 130.458 431.023C132.18 432.629 134.59 435.905 130.458 436.162C125.293 436.483 114.963 436.804 116.578 445.474C118.192 454.145 122.065 455.43 130.458 448.686C138.851 441.942 138.529 450.934 140.466 461.531C142.403 472.128 154.992 465.706 158.22 459.925C161.449 454.145 154.992 443.226 153.378 442.263C151.764 441.3 149.182 433.914 146.276 431.023C143.371 428.133 149.182 421.068 140.466 413.682C131.75 406.296 127.23 410.15 122.065 416.572Z" fill="#7EAA04"/>
<path d="M113.16 399.907C134.326 388.767 148.127 405.013 152.15 414.296L153.078 415.689C145.707 409.19 126.66 398.979 115.016 408.262C103.372 417.546 116.973 431.626 125.228 437.505C117.183 437.094 101.648 440.046 103.876 455.144C106.104 470.242 123.372 460.506 131.727 453.751C132.5 464.555 138.132 486.087 154.471 485.779C170.81 485.471 171.181 468.012 169.324 459.321C170.252 461.641 171.903 466.956 172.109 468.604C172.573 472.317 174.43 483.458 169.324 487.171C164.219 490.885 159.112 496.918 143.795 493.669C130.079 490.76 126.156 473.246 128.477 459.321C124.764 464.426 115.573 471.853 108.518 471.853C99.6985 471.853 91.3439 454.68 95.5214 442.611C98.8635 432.956 111.767 432.399 118.266 433.791L115.016 431.935C105.578 426.056 91.9936 411.047 113.16 399.907Z" fill="#597609" fill-opacity="0.7"/>
<path d="M7.32857 332.139C-10.1242 345.135 -1.80012 355.502 4.54355 359.06L9.18522 361.845C7.17381 359.525 2.77966 353.676 1.29432 348.849C-0.191027 344.021 7.79271 333.84 11.9702 329.354L7.32857 332.139Z" fill="#ABDE1F"/>
<path d="M144.259 335.387C168.396 328.332 161.743 355.347 155.399 369.736C156.172 361.072 156.791 342.721 153.078 338.637C148.436 333.531 138.689 337.708 144.259 335.387Z" fill="#74980F"/>
<path d="M67.2063 333.995C60.8936 341.05 67.3611 349.622 71.3839 353.026L76.0255 356.739C72.2165 351.633 67.7193 339.287 80.203 330.746C92.6867 322.205 110.779 337.708 118.265 346.528C115.635 338.637 113.809 321.462 127.548 315.892C141.288 310.322 144.413 323.474 144.259 330.746C144.723 328.734 145.651 323.876 145.651 320.534C145.651 316.356 143.794 313.107 141.938 311.251C140.081 309.394 133.118 305.217 120.586 313.107C110.56 319.42 112.695 334.614 115.016 341.422C105.732 323.783 93.664 322.855 88.0939 322.855C82.5239 322.855 75.0972 325.176 67.2063 333.995Z" fill="#7DA314"/>
<path d="M104.34 482.53L110.374 474.639L96.4492 483.458L95.0566 488.564L105.268 505.274L104.34 482.53Z" fill="#855633"/>
<path d="M97.0982 567.479C96.3555 563.394 98.0265 556.184 98.9548 553.09C100.812 548.448 102.204 556.339 101.74 562.373C101.276 568.408 102.668 567.479 102.204 574.906C101.74 582.333 98.0264 583.261 98.9548 578.155C99.8833 573.049 98.0265 572.585 97.0982 567.479Z" fill="#855633"/>
<path d="M89.9502 559.581C88.0935 565.523 80.2026 570.412 76.4893 572.114L82.0593 485.778C82.6782 487.016 85.1228 490.234 89.9502 493.205C95.9844 496.918 95.9844 508.987 94.1277 511.772C92.2711 514.557 94.5919 520.591 94.1277 528.482C93.6636 536.373 98.3053 537.301 95.9844 542.407C93.6636 547.513 92.2711 552.155 89.9502 559.581Z" fill="#9D5823"/>
<path d="M76.4893 566.08L79.7385 516.414L81.131 498.775C83.916 502.179 89.5789 509.173 89.9502 509.915C90.4144 510.844 84.3802 528.482 84.3802 533.124C84.3802 537.766 89.0219 542.872 88.0935 547.049C87.3508 550.391 80.0479 561.129 76.4893 566.08Z" fill="#855633"/>
<path d="M202.168 463.164C182.743 479.212 173.327 461.432 171.047 450.536C169.74 463.09 162.202 484.408 142.502 469.257C122.802 454.106 134.168 433.394 142.313 424.931C133.827 432.524 114.341 442.826 104.286 423.29C91.7173 398.87 140.214 402.425 133.103 401.451C127.415 400.672 121.434 397.75 119.154 396.386C103.671 387.408 110.354 368.231 124.354 361.987C135.554 356.992 144.493 371.397 147.563 379.224C149.16 369.316 156.173 351.614 171.453 360.07C186.732 368.527 180.559 387.102 175.563 395.333C183.754 386.351 202.956 374.054 214.238 396.72C225.521 419.387 202.877 430.024 190.145 432.51C202.246 436.041 221.593 447.117 202.168 463.164Z" fill="#33810F"/>
<path d="M191.633 627.467L212.056 633.965L225.981 622.825L221.34 516.994L245.476 484.502V472.434L221.34 501.212L225.981 440.87L199.059 462.222V501.212H180.492L172.137 484.502L166.567 491.929L180.492 510.496L199.059 516.994L191.633 627.467Z" fill="#B07D56"/>
<path d="M100.579 491.567C92.7321 467.624 112.722 465.35 123.698 467.206C112.489 461.406 95.3947 446.603 116.693 433.796C137.991 420.989 138.717 425.552 151.25 432.05C151.25 417.264 151.579 417.231 173.145 415.034L173.441 415.003C200.764 412.219 179.746 456.07 183.249 449.805C186.051 444.794 190.955 440.293 193.057 438.669C207.069 427.532 222.482 440.757 223.183 456.07C223.743 468.32 207.069 471.383 198.662 471.383C207.303 476.487 221.221 489.48 207.77 500.616C194.318 511.753 179.279 499.224 173.441 491.567C178.812 502.472 183.249 524.838 158.028 527.066C132.806 529.293 129.42 518.614 131.755 505.853C124.048 515.83 108.425 515.511 100.579 491.567Z" fill="#1C490D"/>
<path d="M111.401 487.748C104.959 468.185 121.369 466.327 130.379 467.844C121.178 463.105 107.145 451.011 124.628 440.547C142.112 430.082 142.709 433.811 152.996 439.12C152.996 427.039 153.267 427.012 170.97 425.217L171.213 425.192C193.642 422.917 176.389 458.745 179.264 453.627C181.565 449.532 185.59 445.855 187.316 444.528C198.818 435.429 211.471 446.234 212.046 458.745C212.506 468.754 198.818 471.256 191.917 471.256C199.01 475.427 210.435 486.043 199.393 495.142C188.351 504.241 176.005 494.004 171.213 487.748C175.622 496.658 179.264 514.932 158.56 516.752C137.856 518.572 135.076 509.847 136.993 499.421C130.667 507.572 117.842 507.311 111.401 487.748Z" fill="#377407"/>
<path d="M175.774 419.157C167.927 395.213 187.918 392.94 198.894 394.796C187.684 388.996 170.59 374.193 191.888 361.386C213.186 348.579 228.319 366.722 233.223 377.395C229.253 366.723 226.777 344.821 248.636 342.593C275.959 339.809 254.941 383.66 258.444 377.395C261.247 372.384 266.151 367.883 268.253 366.259C282.264 355.122 297.677 368.347 298.378 383.66C298.939 395.91 282.264 398.972 273.857 398.972C282.498 404.077 296.416 417.069 282.965 428.206C269.514 439.343 254.474 426.814 248.636 419.157C254.007 430.062 258.444 452.428 233.223 454.655C208.002 456.883 206.367 431.918 208.702 419.157C200.996 429.134 183.621 443.101 175.774 419.157Z" fill="#14670C"/>
<path d="M184.329 451.239C175.604 424.525 197.832 421.988 210.036 424.059C197.572 417.587 178.564 401.072 202.246 386.783C225.929 372.494 242.755 392.737 248.209 404.645C243.794 392.737 241.042 368.301 265.347 365.816C295.729 362.71 272.358 411.634 276.253 404.645C279.369 399.053 284.822 394.031 287.159 392.219C302.74 379.794 319.878 394.549 320.657 411.634C321.28 425.301 302.74 428.718 293.392 428.718C302.999 434.413 318.476 448.909 303.519 461.334C288.562 473.759 271.839 459.781 265.347 451.239C271.319 463.405 276.253 488.359 248.209 490.844C220.164 493.329 218.346 465.476 220.943 451.239C212.374 462.369 193.054 477.953 184.329 451.239Z" fill="#506908"/>
<path d="M212.908 492.496C205.061 468.552 225.051 466.279 236.027 468.135C224.818 462.334 207.724 447.532 229.022 434.725C250.32 421.918 265.453 440.061 270.357 450.734C266.387 440.061 263.911 418.159 285.77 415.932C313.093 413.148 292.075 456.998 295.578 450.734C298.38 445.722 303.285 441.221 305.386 439.597C319.398 428.461 334.811 441.686 335.512 456.998C336.072 469.249 319.398 472.311 310.991 472.311C319.632 477.416 333.55 490.408 320.099 501.545C306.647 512.681 291.608 500.153 285.77 492.496C291.141 503.401 295.578 525.767 270.357 527.994C245.135 530.222 243.501 505.257 245.836 492.496C238.129 502.473 220.754 516.44 212.908 492.496Z" fill="#489C07"/>
<path d="M239.065 450.572C234.933 455.71 242.939 462.347 247.458 465.023C249.18 466.629 251.59 469.905 247.458 470.162C242.293 470.483 231.963 470.804 233.578 479.474C235.192 488.145 239.065 489.43 247.458 482.686C255.851 475.942 255.529 484.934 257.466 495.531C259.403 506.128 271.992 499.706 275.22 493.925C278.449 488.145 271.992 477.226 270.378 476.263C268.764 475.3 266.182 467.914 263.276 465.023C260.371 462.133 266.182 455.068 257.466 447.682C248.75 440.296 244.23 444.15 239.065 450.572Z" fill="#7EAA04"/>
<path d="M230.16 433.907C251.326 422.767 265.127 439.013 269.15 448.296L270.078 449.689C262.707 443.19 243.66 432.979 232.016 442.262C220.372 451.546 233.973 465.626 242.228 471.505C234.183 471.094 218.648 474.046 220.876 489.144C223.104 504.242 240.372 494.506 248.727 487.751C249.5 498.555 255.132 520.087 271.471 519.779C287.81 519.471 288.181 502.012 286.324 493.321C287.252 495.641 288.903 500.956 289.109 502.604C289.573 506.317 291.43 517.458 286.324 521.171C281.219 524.885 276.112 530.918 260.795 527.669C247.079 524.76 243.156 507.246 245.477 493.321C241.764 498.426 232.573 505.853 225.518 505.853C216.698 505.853 208.344 488.68 212.521 476.611C215.863 466.956 228.767 466.399 235.266 467.791L232.016 465.935C222.578 460.056 208.994 445.047 230.16 433.907Z" fill="#597609" fill-opacity="0.7"/>
<path d="M124.329 366.139C106.876 379.135 115.2 389.502 121.544 393.06L126.185 395.845C124.174 393.525 119.78 387.676 118.294 382.849C116.809 378.021 124.793 367.84 128.97 363.354L124.329 366.139Z" fill="#ABDE1F"/>
<path d="M261.259 369.387C285.396 362.332 278.743 389.347 272.399 403.736C273.172 395.072 273.791 376.721 270.078 372.637C265.436 367.531 255.689 371.708 261.259 369.387Z" fill="#74980F"/>
<path d="M184.206 367.995C177.894 375.05 184.361 383.622 188.384 387.026L193.025 390.739C189.216 385.633 184.719 373.287 197.203 364.746C209.687 356.205 227.779 371.708 235.265 380.528C232.635 372.637 230.809 355.462 244.548 349.892C258.288 344.322 261.413 357.474 261.259 364.746C261.723 362.734 262.651 357.876 262.651 354.534C262.651 350.356 260.794 347.107 258.938 345.251C257.081 343.394 250.118 339.217 237.586 347.107C227.56 353.42 229.695 368.614 232.016 375.422C222.732 357.783 210.664 356.855 205.094 356.855C199.524 356.855 192.097 359.176 184.206 367.995Z" fill="#7DA314"/>
<path d="M221.34 516.53L227.374 508.639L213.449 517.458L212.057 522.564L222.268 539.274L221.34 516.53Z" fill="#855633"/>
<path d="M214.098 601.479C213.355 597.394 215.027 590.184 215.955 587.09C217.812 582.448 219.204 590.339 218.74 596.373C218.276 602.408 219.668 601.479 219.204 608.906C218.74 616.333 215.026 617.261 215.955 612.155C216.883 607.049 215.027 606.585 214.098 601.479Z" fill="#855633"/>
<path d="M206.95 593.581C205.094 599.523 197.203 604.412 193.489 606.114L199.059 519.778C199.678 521.016 202.123 524.234 206.95 527.205C212.984 530.918 212.984 542.987 211.128 545.772C209.271 548.557 211.592 554.591 211.128 562.482C210.664 570.373 215.305 571.301 212.984 576.407C210.664 581.513 209.271 586.155 206.95 593.581Z" fill="#9D5823"/>
<path d="M193.489 600.08L196.738 550.414L198.131 532.775C200.916 536.179 206.579 543.173 206.95 543.915C207.414 544.844 201.38 562.482 201.38 567.124C201.38 571.766 206.022 576.872 205.094 581.049C204.351 584.391 197.048 595.129 193.489 600.08Z" fill="#855633"/>
</g>
<defs>
<filter id="filter0_f" x="819" y="-144" width="461" height="461" filterUnits="userSpaceOnUse" color-interpolation-filters="sRGB">
<feFlood flood-opacity="0" result="BackgroundImageFix"/>
<feBlend mode="normal" in="SourceGraphic" in2="BackgroundImageFix" result="shape"/>
<feGaussianBlur stdDeviation="25" result="effect1_foregroundBlur"/>
</filter>
<filter id="filter1_f" x="906.546" y="-70.542" width="285.027" height="285.027" filterUnits="userSpaceOnUse" color-interpolation-filters="sRGB">
<feFlood flood-opacity="0" result="BackgroundImageFix"/>
<feBlend mode="normal" in="SourceGraphic" in2="BackgroundImageFix" result="shape"/>
<feGaussianBlur stdDeviation="5" result="effect1_foregroundBlur"/>
</filter>
<filter id="filter2_f" x="925.319" y="-73.7812" width="256.285" height="256.285" filterUnits="userSpaceOnUse" color-interpolation-filters="sRGB">
<feFlood flood-opacity="0" result="BackgroundImageFix"/>
<feBlend mode="normal" in="SourceGraphic" in2="BackgroundImageFix" result="shape"/>
<feGaussianBlur stdDeviation="7.5" result="effect1_foregroundBlur"/>
</filter>
<filter id="filter3_f" x="313" y="85" width="12" height="12" filterUnits="userSpaceOnUse" color-interpolation-filters="sRGB">
<feFlood flood-opacity="0" result="BackgroundImageFix"/>
<feBlend mode="normal" in="SourceGraphic" in2="BackgroundImageFix" result="shape"/>
<feGaussianBlur stdDeviation="2" result="effect1_foregroundBlur"/>
</filter>
<filter id="filter4_f" x="399" y="147" width="12" height="12" filterUnits="userSpaceOnUse" color-interpolation-filters="sRGB">
<feFlood flood-opacity="0" result="BackgroundImageFix"/>
<feBlend mode="normal" in="SourceGraphic" in2="BackgroundImageFix" result="shape"/>
<feGaussianBlur stdDeviation="2" result="effect1_foregroundBlur"/>
</filter>
<filter id="filter5_f" x="318" y="209" width="12" height="12" filterUnits="userSpaceOnUse" color-interpolation-filters="sRGB">
<feFlood flood-opacity="0" result="BackgroundImageFix"/>
<feBlend mode="normal" in="SourceGraphic" in2="BackgroundImageFix" result="shape"/>
<feGaussianBlur stdDeviation="2" result="effect1_foregroundBlur"/>
</filter>
<filter id="filter6_f" x="273" y="142" width="12" height="13" filterUnits="userSpaceOnUse" color-interpolation-filters="sRGB">
<feFlood flood-opacity="0" result="BackgroundImageFix"/>
<feBlend mode="normal" in="SourceGraphic" in2="BackgroundImageFix" result="shape"/>
<feGaussianBlur stdDeviation="2" result="effect1_foregroundBlur"/>
</filter>
<filter id="filter7_f" x="160" y="18" width="12" height="12" filterUnits="userSpaceOnUse" color-interpolation-filters="sRGB">
<feFlood flood-opacity="0" result="BackgroundImageFix"/>
<feBlend mode="normal" in="SourceGraphic" in2="BackgroundImageFix" result="shape"/>
<feGaussianBlur stdDeviation="2" result="effect1_foregroundBlur"/>
</filter>
<filter id="filter8_f" x="358" y="20" width="12" height="12" filterUnits="userSpaceOnUse" color-interpolation-filters="sRGB">
<feFlood flood-opacity="0" result="BackgroundImageFix"/>
<feBlend mode="normal" in="SourceGraphic" in2="BackgroundImageFix" result="shape"/>
<feGaussianBlur stdDeviation="2" result="effect1_foregroundBlur"/>
</filter>
<filter id="filter9_f" x="43" y="53" width="12" height="12" filterUnits="userSpaceOnUse" color-interpolation-filters="sRGB">
<feFlood flood-opacity="0" result="BackgroundImageFix"/>
<feBlend mode="normal" in="SourceGraphic" in2="BackgroundImageFix" result="shape"/>
<feGaussianBlur stdDeviation="2" result="effect1_foregroundBlur"/>
</filter>
<filter id="filter10_f" x="208" y="194" width="12" height="12" filterUnits="userSpaceOnUse" color-interpolation-filters="sRGB">
<feFlood flood-opacity="0" result="BackgroundImageFix"/>
<feBlend mode="normal" in="SourceGraphic" in2="BackgroundImageFix" result="shape"/>
<feGaussianBlur stdDeviation="2" result="effect1_foregroundBlur"/>
</filter>
<filter id="filter11_f" x="143" y="259" width="12" height="12" filterUnits="userSpaceOnUse" color-interpolation-filters="sRGB">
<feFlood flood-opacity="0" result="BackgroundImageFix"/>
<feBlend mode="normal" in="SourceGraphic" in2="BackgroundImageFix" result="shape"/>
<feGaussianBlur stdDeviation="2" result="effect1_foregroundBlur"/>
</filter>
<filter id="filter12_f" x="208" y="100" width="12" height="12" filterUnits="userSpaceOnUse" color-interpolation-filters="sRGB">
<feFlood flood-opacity="0" result="BackgroundImageFix"/>
<feBlend mode="normal" in="SourceGraphic" in2="BackgroundImageFix" result="shape"/>
<feGaussianBlur stdDeviation="2" result="effect1_foregroundBlur"/>
</filter>
<filter id="filter13_f" x="116" y="190" width="13" height="12" filterUnits="userSpaceOnUse" color-interpolation-filters="sRGB">
<feFlood flood-opacity="0" result="BackgroundImageFix"/>
<feBlend mode="normal" in="SourceGraphic" in2="BackgroundImageFix" result="shape"/>
<feGaussianBlur stdDeviation="2" result="effect1_foregroundBlur"/>
</filter>
<filter id="filter14_f" x="43" y="271" width="13" height="12" filterUnits="userSpaceOnUse" color-interpolation-filters="sRGB">
<feFlood flood-opacity="0" result="BackgroundImageFix"/>
<feBlend mode="normal" in="SourceGraphic" in2="BackgroundImageFix" result="shape"/>
<feGaussianBlur stdDeviation="2" result="effect1_foregroundBlur"/>
</filter>
<filter id="filter15_f" x="40" y="346" width="13" height="12" filterUnits="userSpaceOnUse" color-interpolation-filters="sRGB">
<feFlood flood-opacity="0" result="BackgroundImageFix"/>
<feBlend mode="normal" in="SourceGraphic" in2="BackgroundImageFix" result="shape"/>
<feGaussianBlur stdDeviation="2" result="effect1_foregroundBlur"/>
</filter>
<filter id="filter16_f" x="164" y="121" width="12" height="12" filterUnits="userSpaceOnUse" color-interpolation-filters="sRGB">
<feFlood flood-opacity="0" result="BackgroundImageFix"/>
<feBlend mode="normal" in="SourceGraphic" in2="BackgroundImageFix" result="shape"/>
<feGaussianBlur stdDeviation="2" result="effect1_foregroundBlur"/>
</filter>
<filter id="filter17_f" x="116" y="90" width="13" height="12" filterUnits="userSpaceOnUse" color-interpolation-filters="sRGB">
<feFlood flood-opacity="0" result="BackgroundImageFix"/>
<feBlend mode="normal" in="SourceGraphic" in2="BackgroundImageFix" result="shape"/>
<feGaussianBlur stdDeviation="2" result="effect1_foregroundBlur"/>
</filter>
<filter id="filter18_f" x="26" y="173" width="12" height="12" filterUnits="userSpaceOnUse" color-interpolation-filters="sRGB">
<feFlood flood-opacity="0" result="BackgroundImageFix"/>
<feBlend mode="normal" in="SourceGraphic" in2="BackgroundImageFix" result="shape"/>
<feGaussianBlur stdDeviation="2" result="effect1_foregroundBlur"/>
</filter>
<filter id="filter19_f" x="483" y="140" width="12" height="12" filterUnits="userSpaceOnUse" color-interpolation-filters="sRGB">
<feFlood flood-opacity="0" result="BackgroundImageFix"/>
<feBlend mode="normal" in="SourceGraphic" in2="BackgroundImageFix" result="shape"/>
<feGaussianBlur stdDeviation="2" result="effect1_foregroundBlur"/>
</filter>
<filter id="filter20_f" x="784" y="227" width="12" height="12" filterUnits="userSpaceOnUse" color-interpolation-filters="sRGB">
<feFlood flood-opacity="0" result="BackgroundImageFix"/>
<feBlend mode="normal" in="SourceGraphic" in2="BackgroundImageFix" result="shape"/>
<feGaussianBlur stdDeviation="2" result="effect1_foregroundBlur"/>
</filter>
<filter id="filter21_f" x="530" y="203" width="12" height="13" filterUnits="userSpaceOnUse" color-interpolation-filters="sRGB">
<feFlood flood-opacity="0" result="BackgroundImageFix"/>
<feBlend mode="normal" in="SourceGraphic" in2="BackgroundImageFix" result="shape"/>
<feGaussianBlur stdDeviation="2" result="effect1_foregroundBlur"/>
</filter>
<filter id="filter22_f" x="831" y="290" width="12" height="13" filterUnits="userSpaceOnUse" color-interpolation-filters="sRGB">
<feFlood flood-opacity="0" result="BackgroundImageFix"/>
<feBlend mode="normal" in="SourceGraphic" in2="BackgroundImageFix" result="shape"/>
<feGaussianBlur stdDeviation="2" result="effect1_foregroundBlur"/>
</filter>
<filter id="filter23_f" x="987" y="327" width="12" height="13" filterUnits="userSpaceOnUse" color-interpolation-filters="sRGB">
<feFlood flood-opacity="0" result="BackgroundImageFix"/>
<feBlend mode="normal" in="SourceGraphic" in2="BackgroundImageFix" result="shape"/>
<feGaussianBlur stdDeviation="2" result="effect1_foregroundBlur"/>
</filter>
<filter id="filter24_f" x="880" y="313" width="12" height="13" filterUnits="userSpaceOnUse" color-interpolation-filters="sRGB">
<feFlood flood-opacity="0" result="BackgroundImageFix"/>
<feBlend mode="normal" in="SourceGraphic" in2="BackgroundImageFix" result="shape"/>
<feGaussianBlur stdDeviation="2" result="effect1_foregroundBlur"/>
</filter>
<filter id="filter25_f" x="464" y="221" width="12" height="12" filterUnits="userSpaceOnUse" color-interpolation-filters="sRGB">
<feFlood flood-opacity="0" result="BackgroundImageFix"/>
<feBlend mode="normal" in="SourceGraphic" in2="BackgroundImageFix" result="shape"/>
<feGaussianBlur stdDeviation="2" result="effect1_foregroundBlur"/>
</filter>
<filter id="filter26_f" x="358" y="286" width="12" height="12" filterUnits="userSpaceOnUse" color-interpolation-filters="sRGB">
<feFlood flood-opacity="0" result="BackgroundImageFix"/>
<feBlend mode="normal" in="SourceGraphic" in2="BackgroundImageFix" result="shape"/>
<feGaussianBlur stdDeviation="2" result="effect1_foregroundBlur"/>
</filter>
<filter id="filter27_f" x="765" y="308" width="12" height="12" filterUnits="userSpaceOnUse" color-interpolation-filters="sRGB">
<feFlood flood-opacity="0" result="BackgroundImageFix"/>
<feBlend mode="normal" in="SourceGraphic" in2="BackgroundImageFix" result="shape"/>
<feGaussianBlur stdDeviation="2" result="effect1_foregroundBlur"/>
</filter>
<filter id="filter28_f" x="655" y="314" width="12" height="12" filterUnits="userSpaceOnUse" color-interpolation-filters="sRGB">
<feFlood flood-opacity="0" result="BackgroundImageFix"/>
<feBlend mode="normal" in="SourceGraphic" in2="BackgroundImageFix" result="shape"/>
<feGaussianBlur stdDeviation="2" result="effect1_foregroundBlur"/>
</filter>
<filter id="filter29_f" x="849" y="378" width="12" height="12" filterUnits="userSpaceOnUse" color-interpolation-filters="sRGB">
<feFlood flood-opacity="0" result="BackgroundImageFix"/>
<feBlend mode="normal" in="SourceGraphic" in2="BackgroundImageFix" result="shape"/>
<feGaussianBlur stdDeviation="2" result="effect1_foregroundBlur"/>
</filter>
<filter id="filter30_f" x="678" y="232" width="12" height="12" filterUnits="userSpaceOnUse" color-interpolation-filters="sRGB">
<feFlood flood-opacity="0" result="BackgroundImageFix"/>
<feBlend mode="normal" in="SourceGraphic" in2="BackgroundImageFix" result="shape"/>
<feGaussianBlur stdDeviation="2" result="effect1_foregroundBlur"/>
</filter>
<filter id="filter31_f" x="645" y="153" width="12" height="12" filterUnits="userSpaceOnUse" color-interpolation-filters="sRGB">
<feFlood flood-opacity="0" result="BackgroundImageFix"/>
<feBlend mode="normal" in="SourceGraphic" in2="BackgroundImageFix" result="shape"/>
<feGaussianBlur stdDeviation="2" result="effect1_foregroundBlur"/>
</filter>
<filter id="filter32_f" x="649" y="83" width="12" height="12" filterUnits="userSpaceOnUse" color-interpolation-filters="sRGB">
<feFlood flood-opacity="0" result="BackgroundImageFix"/>
<feBlend mode="normal" in="SourceGraphic" in2="BackgroundImageFix" result="shape"/>
<feGaussianBlur stdDeviation="2" result="effect1_foregroundBlur"/>
</filter>
<filter id="filter33_f" x="500" y="79" width="12" height="12" filterUnits="userSpaceOnUse" color-interpolation-filters="sRGB">
<feFlood flood-opacity="0" result="BackgroundImageFix"/>
<feBlend mode="normal" in="SourceGraphic" in2="BackgroundImageFix" result="shape"/>
<feGaussianBlur stdDeviation="2" result="effect1_foregroundBlur"/>
</filter>
<filter id="filter34_f" x="552" y="105" width="13" height="13" filterUnits="userSpaceOnUse" color-interpolation-filters="sRGB">
<feFlood flood-opacity="0" result="BackgroundImageFix"/>
<feBlend mode="normal" in="SourceGraphic" in2="BackgroundImageFix" result="shape"/>
<feGaussianBlur stdDeviation="2" result="effect1_foregroundBlur"/>
</filter>
<filter id="filter35_f" x="853" y="192" width="13" height="13" filterUnits="userSpaceOnUse" color-interpolation-filters="sRGB">
<feFlood flood-opacity="0" result="BackgroundImageFix"/>
<feBlend mode="normal" in="SourceGraphic" in2="BackgroundImageFix" result="shape"/>
<feGaussianBlur stdDeviation="2" result="effect1_foregroundBlur"/>
</filter>
<filter id="filter36_f" x="779" y="144" width="13" height="13" filterUnits="userSpaceOnUse" color-interpolation-filters="sRGB">
<feFlood flood-opacity="0" result="BackgroundImageFix"/>
<feBlend mode="normal" in="SourceGraphic" in2="BackgroundImageFix" result="shape"/>
<feGaussianBlur stdDeviation="2" result="effect1_foregroundBlur"/>
</filter>
<filter id="filter37_f" x="738" y="63" width="13" height="13" filterUnits="userSpaceOnUse" color-interpolation-filters="sRGB">
<feFlood flood-opacity="0" result="BackgroundImageFix"/>
<feBlend mode="normal" in="SourceGraphic" in2="BackgroundImageFix" result="shape"/>
<feGaussianBlur stdDeviation="2" result="effect1_foregroundBlur"/>
</filter>
<filter id="filter38_f" x="710" y="173" width="13" height="13" filterUnits="userSpaceOnUse" color-interpolation-filters="sRGB">
<feFlood flood-opacity="0" result="BackgroundImageFix"/>
<feBlend mode="normal" in="SourceGraphic" in2="BackgroundImageFix" result="shape"/>
<feGaussianBlur stdDeviation="2" result="effect1_foregroundBlur"/>
</filter>
<filter id="filter39_f" x="284" y="45" width="13" height="12" filterUnits="userSpaceOnUse" color-interpolation-filters="sRGB">
<feFlood flood-opacity="0" result="BackgroundImageFix"/>
<feBlend mode="normal" in="SourceGraphic" in2="BackgroundImageFix" result="shape"/>
<feGaussianBlur stdDeviation="2" result="effect1_foregroundBlur"/>
</filter>
<filter id="filter40_f" x="435" y="45" width="12" height="12" filterUnits="userSpaceOnUse" color-interpolation-filters="sRGB">
<feFlood flood-opacity="0" result="BackgroundImageFix"/>
<feBlend mode="normal" in="SourceGraphic" in2="BackgroundImageFix" result="shape"/>
<feGaussianBlur stdDeviation="2" result="effect1_foregroundBlur"/>
</filter>
<filter id="filter41_f" x="534" y="5" width="12" height="12" filterUnits="userSpaceOnUse" color-interpolation-filters="sRGB">
<feFlood flood-opacity="0" result="BackgroundImageFix"/>
<feBlend mode="normal" in="SourceGraphic" in2="BackgroundImageFix" result="shape"/>
<feGaussianBlur stdDeviation="2" result="effect1_foregroundBlur"/>
</filter>
<filter id="filter42_f" x="401" y="89" width="12" height="12" filterUnits="userSpaceOnUse" color-interpolation-filters="sRGB">
<feFlood flood-opacity="0" result="BackgroundImageFix"/>
<feBlend mode="normal" in="SourceGraphic" in2="BackgroundImageFix" result="shape"/>
<feGaussianBlur stdDeviation="2" result="effect1_foregroundBlur"/>
</filter>
<filter id="filter43_f" x="336" y="134" width="12" height="12" filterUnits="userSpaceOnUse" color-interpolation-filters="sRGB">
<feFlood flood-opacity="0" result="BackgroundImageFix"/>
<feBlend mode="normal" in="SourceGraphic" in2="BackgroundImageFix" result="shape"/>
<feGaussianBlur stdDeviation="2" result="effect1_foregroundBlur"/>
</filter>
<filter id="filter44_f" x="246" y="323" width="12" height="12" filterUnits="userSpaceOnUse" color-interpolation-filters="sRGB">
<feFlood flood-opacity="0" result="BackgroundImageFix"/>
<feBlend mode="normal" in="SourceGraphic" in2="BackgroundImageFix" result="shape"/>
<feGaussianBlur stdDeviation="2" result="effect1_foregroundBlur"/>
</filter>
<filter id="filter45_f" x="572" y="153" width="12" height="13" filterUnits="userSpaceOnUse" color-interpolation-filters="sRGB">
<feFlood flood-opacity="0" result="BackgroundImageFix"/>
<feBlend mode="normal" in="SourceGraphic" in2="BackgroundImageFix" result="shape"/>
<feGaussianBlur stdDeviation="2" result="effect1_foregroundBlur"/>
</filter>
<filter id="filter46_f" x="788" y="16" width="12" height="13" filterUnits="userSpaceOnUse" color-interpolation-filters="sRGB">
<feFlood flood-opacity="0" result="BackgroundImageFix"/>
<feBlend mode="normal" in="SourceGraphic" in2="BackgroundImageFix" result="shape"/>
<feGaussianBlur stdDeviation="2" result="effect1_foregroundBlur"/>
</filter>
<filter id="filter47_f" x="601" y="46" width="12" height="13" filterUnits="userSpaceOnUse" color-interpolation-filters="sRGB">
<feFlood flood-opacity="0" result="BackgroundImageFix"/>
<feBlend mode="normal" in="SourceGraphic" in2="BackgroundImageFix" result="shape"/>
<feGaussianBlur stdDeviation="2" result="effect1_foregroundBlur"/>
</filter>
<filter id="filter48_f" x="873" y="240" width="12" height="13" filterUnits="userSpaceOnUse" color-interpolation-filters="sRGB">
<feFlood flood-opacity="0" result="BackgroundImageFix"/>
<feBlend mode="normal" in="SourceGraphic" in2="BackgroundImageFix" result="shape"/>
<feGaussianBlur stdDeviation="2" result="effect1_foregroundBlur"/>
</filter>
<filter id="filter49_f" x="928" y="380" width="12" height="13" filterUnits="userSpaceOnUse" color-interpolation-filters="sRGB">
<feFlood flood-opacity="0" result="BackgroundImageFix"/>
<feBlend mode="normal" in="SourceGraphic" in2="BackgroundImageFix" result="shape"/>
<feGaussianBlur stdDeviation="2" result="effect1_foregroundBlur"/>
</filter>
<filter id="filter50_f" x="1137" y="324" width="12" height="13" filterUnits="userSpaceOnUse" color-interpolation-filters="sRGB">
<feFlood flood-opacity="0" result="BackgroundImageFix"/>
<feBlend mode="normal" in="SourceGraphic" in2="BackgroundImageFix" result="shape"/>
<feGaussianBlur stdDeviation="2" result="effect1_foregroundBlur"/>
</filter>
<filter id="filter51_f" x="591" y="244" width="12" height="12" filterUnits="userSpaceOnUse" color-interpolation-filters="sRGB">
<feFlood flood-opacity="0" result="BackgroundImageFix"/>
<feBlend mode="normal" in="SourceGraphic" in2="BackgroundImageFix" result="shape"/>
<feGaussianBlur stdDeviation="2" result="effect1_foregroundBlur"/>
</filter>
<filter id="filter52_f" x="460" y="346" width="12" height="12" filterUnits="userSpaceOnUse" color-interpolation-filters="sRGB">
<feFlood flood-opacity="0" result="BackgroundImageFix"/>
<feBlend mode="normal" in="SourceGraphic" in2="BackgroundImageFix" result="shape"/>
<feGaussianBlur stdDeviation="2" result="effect1_foregroundBlur"/>
</filter>
<linearGradient id="paint0_linear" x1="576" y1="-141" x2="576" y2="1169" gradientUnits="userSpaceOnUse">
<stop offset="0.101266" stop-color="#48255D"/>
<stop offset="0.456489" stop-color="#B36B5D"/>
<stop offset="0.587786" stop-color="#FE8248"/>
</linearGradient>
<clipPath id="clip0">
<rect width="1152" height="700" fill="white"/>
</clipPath>
</defs>
</svg>
