<svg width="66" height="82" viewBox="0 0 66 82" fill="none" xmlns="http://www.w3.org/2000/svg">
<rect width="66" height="82" rx="3" fill="#19D0F9"/>
<path d="M11.5743 48.9226C10.9015 48.9226 10.2566 48.5701 9.90221 47.9606L8.08064 44.8273L4.67867 43.5777C3.80198 43.2555 3.28082 42.3529 3.44027 41.4326L4.05902 37.8615L2.25627 34.7174C1.79169 33.9071 1.97268 32.8805 2.68643 32.2781L5.45585 29.9403L6.09574 26.3731C6.26061 25.4537 7.05919 24.7837 7.99324 24.7808L11.6174 24.7701L14.4007 22.4488C15.1179 21.8504 16.1602 21.8504 16.8776 22.4488L19.6609 24.7701L23.285 24.7808C24.2191 24.7835 25.0175 25.4536 25.1825 26.373L25.8225 29.9403L28.5918 32.2781C29.3056 32.8807 29.4865 33.9071 29.022 34.7174L27.2192 37.8616L27.838 41.4326C27.9974 42.3528 27.4763 43.2557 26.5996 43.5777L23.1975 44.8274L21.376 47.9606C20.9067 48.7682 19.927 49.1249 19.0485 48.8078L15.6389 47.5784L12.2297 48.8078C12.0143 48.8854 11.7928 48.9226 11.5743 48.9226Z" fill="#FF8856"/>
<path d="M15.6387 41.2617C12.4401 41.2617 9.83789 38.6595 9.83789 35.4609C9.83789 32.2624 12.4401 29.6602 15.6387 29.6602C18.8372 29.6602 21.4395 32.2624 21.4395 35.4609C21.4396 38.6595 18.8374 41.2617 15.6387 41.2617Z" fill="#FFCD00"/>
<path d="M1.93359 80.7106C1.59973 80.7106 1.26573 80.6243 0.966668 80.4515C0.368543 80.1061 0 79.4678 0 78.777V44.3789C0 43.8366 0.227777 43.3193 0.627645 42.953C1.02764 42.5867 1.56312 42.4055 2.10311 42.4527C9.56085 43.1088 16.788 44.5009 23.5842 46.5903C30.1434 48.6069 36.3366 51.2828 41.9917 54.5434C42.5904 54.8886 42.9593 55.5271 42.9594 56.2182C42.9596 56.9092 42.5909 57.5479 41.9922 57.8932L2.9 80.4518C2.60107 80.6244 2.26733 80.7106 1.93359 80.7106Z" fill="#10BB35"/>
<path d="M1.93359 81.9997C1.4208 81.9997 0.929026 81.7959 0.566413 81.4333C0.2038 81.0707 0 80.5789 0 80.0661V77.8362C0 77.3615 0.174539 76.9034 0.490487 76.5492C7.03015 69.2164 16.2415 63.0144 27.1287 58.614C38.2482 54.1195 51.0038 51.5676 64.0168 51.2341C64.5374 51.22 65.0426 51.4184 65.4159 51.7823C65.7892 52.1462 65.9999 52.6456 65.9999 53.167V80.0655C65.9999 81.1333 65.1341 81.9991 64.0663 81.9991L1.93359 81.9997Z" fill="#65D110"/>
</svg>
