<svg width="1152" height="700" viewBox="0 0 1152 700" fill="none" xmlns="http://www.w3.org/2000/svg">
<g clip-path="url(#clip0)">
<rect width="1152" height="700" fill="white"/>
<rect y="-22" width="1152" height="699" fill="#FED82D"/>
<rect y="-22" width="1152" height="699" fill="url(#paint0_linear)"/>
<circle cx="810.915" cy="354.102" r="126.102" fill="#F9982D"/>
<path d="M824.383 311.252L922.357 289.215L933.345 303.677L824.383 311.252Z" fill="#FCC02F"/>
<path d="M788.878 401.991L937.922 391.209L950.276 416.448L788.878 401.991Z" fill="#FCD22F"/>
<path d="M774.132 338.914L674.966 354.749L664.909 339.625L774.132 338.914Z" fill="#FCCA2F"/>
<circle cx="810.915" cy="354.102" r="111.411" fill="#EB891D" fill-opacity="0.4"/>
<path d="M123.96 329.784C113.253 346.867 33.5256 410.454 -5 440.113V554H2.2996H1197V405.708C1192.13 405.708 1176.32 403.573 1151.99 395.031C1121.57 384.354 1106.97 363 1087.51 351.137C1068.04 339.274 931.781 440.113 898.933 419.944C866.085 399.776 824.721 398.59 804.039 405.708C783.356 412.826 717.66 387.913 704.277 383.168C690.895 378.423 664.13 351.137 643.447 351.137C622.765 351.137 621.549 323.852 603.3 317.92C585.051 311.987 533.953 345.205 479.206 373.677C424.46 402.149 404.994 381.982 372.146 373.677C339.298 365.373 304.016 342.833 294.283 351.137C284.551 359.441 266.302 370.118 259.002 363C251.702 355.882 228.587 346.392 205.472 323.852C182.356 301.312 137.342 308.43 123.96 329.784Z" fill="#6F5B29"/>
<path d="M28 493C21.6 507.4 6.66667 517 0 520C0 615 12 561 49 578C86 595 122 587 211 567C300 547 669.5 571 896 602C1122.5 633 1148 501 1145 493C1142 485 1136 451 1136 439C1136 429.4 1127.33 410.333 1123 402C1124.33 409.667 1126.2 427.8 1123 439C1119 453 1128 462 1136 493C1144 523.999 1105 520 1096 520H1079C1073 520 1075 467 1079 462C1082.2 458.001 1084.33 455.667 1085 455C1088 446.667 1092.8 427.2 1088 416C1083.2 404.8 1086 386 1088 378C1086.33 382.667 1082.2 395.6 1079 410C1075 428 1064 430 1054 439C1044 448 1039 462 1030 482.999C1021 503.999 1013 462 1007 451C1001 440 1022 439 1039 416C1052.6 397.6 1054.67 383 1054 378C1042.67 386.333 1014.6 405.6 993 416C966 429 964 430 957 451C950 472 907 462 896 462C885 462 866 451 863 462C860.6 470.801 867.333 483 871 487.999C868 487.999 858.6 486.999 845 482.999C828 477.999 818 437 806 439C794 441 732 430 726 416C720 402 669.5 392 679 384C688.5 376.001 674.5 365 669.5 360.5C664.5 356 647 351 639.5 351C632 351 624 340 615 329C615 337.8 604.333 356.667 599 365C602.333 363.333 610.2 361 615 365C621 370 620 409 656 410C692 411 672 446 679 462C681 473 627.003 473 599.002 473H599C576.6 473 596.333 455 609 446C599.667 449.667 577.8 458 565 462C552.2 466.001 563.667 442.334 571 430C565 430 551.6 433.2 546 446C540.4 458.8 517 454.667 506 451C503 458.333 497 475 497 482.999C497 492.999 478 501 475 482.999C472.6 468.599 464.667 494.999 461 510C445 510 407.2 508.2 384 501C357 482 384 493 384 482.999C384 472.999 359 482.999 351 482.999C343 482.999 339 473 339 462C339 451 311 430 300 416C289 402 288 408 288 392C288 379.2 270.667 368.667 262 365C249.333 357.333 222.4 340.4 216 334C189.6 306 166.333 308.334 158 313C164.667 313.334 180.4 315.8 190 323C202 332 200 351 202 360C204 369 224 378 240 384C256 390 267 404 259 430C251 456 244 447 240 462C236.8 474 219.333 474.334 211 473C206.667 474.334 196.4 478.2 190 482.999C182 488.999 173 487.999 158 482.999C143 477.999 116 477.999 107 487.999C99.8 495.999 96 487.999 95 482.999C89.6667 482.999 78 484.999 74 493C69 503 28 512 34 510C40 508 36 475 28 493Z" fill="#5C4116"/>
<path d="M397 506C248.2 478 69.6667 511 -1 531V701H1152V467C842 562 583 541 397 506Z" fill="#D59045"/>
<path d="M-1 701.999V530.999C79 495.999 284.603 493.302 321 495.999C361.5 498.999 471 517.999 498 521.999C519.6 525.199 569 529.332 591 530.999C477.4 530.999 406.333 644.999 385 701.999H-1Z" fill="#99993E"/>
<path d="M120.719 566.752C136.427 563.401 45.4513 572.059 -2 576.807V679.866C6.59031 682.38 26.2253 685.899 36.0428 679.866C48.3147 672.325 99.8566 679.866 87.5847 687.407C75.3128 694.948 120.719 684.056 144.035 679.866C167.352 675.677 161.216 687.407 234.847 679.866C308.478 672.325 323.205 668.974 341.613 636.296C360.02 603.619 266.754 616.187 240.983 601.105C215.212 586.023 225.03 595.24 207.849 601.105C190.668 606.97 178.397 595.24 184.533 576.807C190.668 558.374 92.4934 589.375 55.6778 584.348C18.8622 579.32 101.084 570.942 120.719 566.752Z" fill="#838733"/>
<path d="M124.389 615H-6V659.333C10.8244 659.333 46.7163 660.5 55.6893 665.167C66.9056 671 158.038 659.333 181.872 659.333C195.332 659.333 176.264 667.111 165.048 671C186.545 670.222 239.075 666.8 277.21 659.333C324.879 650 338.899 627.833 292.632 620.833C246.365 613.833 97.7502 623.167 107.564 620.833C115.416 618.967 122.052 616.167 124.389 615Z" fill="#6E752F"/>
<path d="M415 681C408.6 684.2 392.333 695 385 700H375C376.667 693.667 381 677.8 385 665C390 649 403 630 421 613C435.4 599.4 443.667 584.667 446 579L487 557L507 546C514 543.334 529 536.8 533 532C537 527.201 542 528.5 544 528.5L605 533.5C601.333 533.834 591.2 532.8 580 532C568.8 531.2 569.333 541 571 546H544C538 548.667 524.8 553.6 520 552C514 550 505 571 483 579C465.4 585.4 469 592.334 473 595C468 596.667 457.2 600.6 454 603C450.8 605.4 447.333 616.667 446 622C442.333 623.334 432.2 630 421 646C407 666 423 677 415 681Z" fill="#96C753"/>
<path d="M422 681C415.6 684.2 399.333 695 392 700H382C383.667 693.666 388 677.8 392 665C397 649 410 630 428 613C442.4 599.4 450.667 584.666 453 579L494 557L514 546C521 543.333 536 536.8 540 532C544 527.2 547.5 527.5 549.5 527.5L611.5 534C607.833 534.333 598.2 532.8 587 532C575.8 531.2 576.333 541 578 546H551C545 548.667 531.8 553.6 527 552C521 550 512 571 490 579C472.4 585.4 476 592.333 480 595C475 596.666 464.2 600.6 461 603C457.8 605.4 454.333 616.666 453 622C449.333 623.333 439.2 630 428 646C414 666 430 677 422 681Z" fill="#5E752F"/>
<path d="M406 681C399.6 684.2 383.333 695 376 700H366C367.667 693.667 372 677.8 376 665C381 649 394 630 412 613C426.4 599.4 434.667 584.667 437 579L478 557L498 546C505 543.333 520 536.8 524 532C528 527.2 533 526 535 526L596 532C592.333 532.334 582.2 532.8 571 532C559.8 531.2 560.333 541 562 546H535C529 548.667 515.8 553.6 511 552C505 550 496 571 474 579C456.4 585.4 460 592.333 464 595C459 596.667 448.2 600.6 445 603C441.8 605.4 438.333 616.667 437 622C433.333 623.333 423.2 630 412 646C398 666 414 677 406 681Z" fill="#99993E"/>
<path d="M165.469 502.972C177.187 496.647 215.601 495.246 231 495.999L293 495.999L350 499L317.5 517.5C317.5 506.205 299.325 519.914 289.41 519.914C277.016 519.914 283.38 527.816 280 542.5C276.62 557.184 260.027 543.87 242 545C223.972 546.13 248 560.577 216.172 560.577C194.498 560.577 191.384 558.318 171.103 551.541C150.821 544.764 155.106 529.389 167.5 526C179.894 522.611 178.99 521.044 171.103 514.267C163.216 507.49 150.822 510.879 165.469 502.972Z" fill="#838733"/>
<path d="M177 502C187.4 496.4 217.333 496.334 231 497L339 498.5L319 512C319 502 295.8 517 287 517C276 517 280 521 277 534C274 547 253 538 237 539C221 540 241 556 222 553C203 550 200 551 182 545C164 539 166 532 177 529C188 526 189 518 182 512C175 506 164 509 177 502Z" fill="#AAB147"/>
<path d="M383 684C379.8 691.6 365.333 697.167 358.5 699H383V696L409.5 679C409.5 677 407.5 672.9 407.5 670.5C406 642 428 628 437.5 623C436.3 619 442.333 608.667 445.5 604L465 595C464.167 591.333 461.8 583 471 581C480.2 579 502 561.833 511 553C519.4 552.2 531.833 547.334 536.5 545.5H561.5C563.5 528.986 578 534 589.5 531.5C573.667 530 543.6 527.2 550 528C558 529 539 533.5 528.5 537C518 540.5 505 541.5 499 545.5C493 549.5 492.5 551.5 483.5 556C474.5 560.5 468.5 568.5 465 573C461.5 577.5 454.5 584 443.5 586.5C432.5 589 431.5 592.5 431.5 602C431.5 611.5 414 625.5 401.5 641.5C389 657.5 386 654 386 658.5C386 663 387 674.5 383 684Z" fill="#68792B"/>
<path d="M350 662C350.401 659.909 352.289 656.354 356.625 658.863C360.961 661.373 354.015 662 350 662Z" fill="#F1FFC3"/>
<path d="M71 625C71.4015 622.909 73.2885 619.354 77.6246 621.863C81.9607 624.373 75.0149 625 71 625Z" fill="#F1FFC3"/>
<path d="M141 543C141.401 540.909 143.289 537.354 147.625 539.863C151.961 542.373 145.015 543 141 543Z" fill="#F1FFC3"/>
<path d="M348.538 647.439C346.704 646.358 343.991 643.385 347.812 640.145C351.634 636.906 349.889 643.658 348.538 647.439Z" fill="#F1FFC3"/>
<path d="M62.767 620.879C60.9326 619.797 58.2193 616.824 62.0409 613.585C65.8626 610.345 64.1173 617.098 62.767 620.879Z" fill="#F1FFC3"/>
<path d="M356.578 639.883C358.993 638.249 363.899 635.954 364.201 639.849C364.502 643.743 359.245 641.494 356.578 639.883Z" fill="#F1FFC3"/>
<path d="M393 528.433C395.415 526.8 400.321 524.505 400.623 528.399C400.924 532.294 395.667 530.045 393 528.433Z" fill="#F1FFC3"/>
<path d="M366 518.433C368.415 516.8 373.321 514.505 373.623 518.399C373.924 522.294 368.667 520.045 366 518.433Z" fill="#F1FFC3"/>
<path d="M157 535.433C159.415 533.8 164.321 531.505 164.623 535.399C164.924 539.294 159.667 537.045 157 535.433Z" fill="#F1FFC3"/>
<path d="M1050 701C1074.8 698.6 1129.33 694 1152 701V536L1145 554C1145 560.667 1128 572.4 1128 586C1128 599.6 1040.83 619 1030.5 622C1035.17 621 1108.4 615.6 1122 622C1139 630 1116 628 1122 654C1126.8 674.8 1090.67 674 1072 671L1002 689C990 701 1025.2 703.4 1050 701Z" fill="#B2782B"/>
<path d="M1152 685H1091.93C1090.86 685.1 1089.88 685.102 1089 685H1091.93C1101.36 684.117 1117.53 675.576 1131 663C1144.18 650.699 1133 637 1136 631C1138.4 626.2 1123.67 615 1116 610L1136 589C1137.33 589.667 1140.4 589.6 1142 584C1143.6 578.4 1149.33 572.333 1152 570V685Z" fill="#A36F33"/>
<path d="M448.626 693.78C457.045 704.312 563.05 705.541 615 704.839L558.373 700.099C541.168 697.993 504.753 693.78 496.735 693.78C486.712 693.78 468.17 685.354 456.645 685.88C445.119 686.407 448.626 672.188 448.626 663.762C448.626 655.337 469.674 645.33 473.683 642.17C477.692 639.011 473.683 626.898 478.694 616.893C482.703 608.888 506.423 608.291 517.782 608.993L510.766 603.201C509.43 603.201 506.056 601.515 503.249 594.774C499.741 586.348 526.301 583.715 536.825 569.497C547.348 555.278 559.877 562.124 578.418 562.124C596.96 562.124 590.946 547.378 590.946 540.006C590.946 534.108 614.534 536 612.5 533C607.656 533.527 584.332 532.317 581.926 535.266C578.919 538.953 589.443 547.379 578.418 553.172C567.393 558.964 553.362 551.592 547.348 553.172C541.335 554.751 528.306 555.805 526.301 562.124C524.297 568.444 504.252 582.662 493.728 586.349C485.309 589.298 492.225 598.812 496.735 603.201C491.556 603.903 479.696 606.044 473.683 608.993C466.166 612.68 467.168 618.473 464.663 631.638C462.157 644.804 440.107 652.177 433.091 663.762C426.075 675.348 438.102 680.614 448.626 693.78Z" fill="#C77835"/>
<path d="M672.976 564.34C659.386 560.458 645.996 568.17 641 572.511C647.931 574.073 660.1 570.664 670.997 573.12C681.895 575.575 699.615 572.052 704.904 566.41C699.924 567.338 686.566 568.223 672.976 564.34Z" fill="#A36F33"/>
<path d="M936.976 660.34C923.386 656.458 909.996 664.17 905 668.511C911.931 670.073 924.1 666.664 934.997 669.12C945.895 671.575 963.615 668.052 968.904 662.41C963.924 663.338 950.566 664.223 936.976 660.34Z" fill="#A36F33"/>
<path d="M699.994 632.578C687.194 643.778 701.994 655.912 710.994 660.578L747.994 668.578L756.994 676.578H772.994C785.994 671.245 813.994 659.178 821.994 653.578C831.994 646.578 885.994 632.578 884.994 619.578C883.994 606.578 838.994 624.579 821.994 632.578C804.994 640.578 776.994 625.578 764.994 619.578C752.994 613.578 715.994 618.578 699.994 632.578Z" fill="#B2782B" fill-opacity="0.7"/>
<path d="M927.661 606.386C919.585 606.343 912.845 607.941 910.485 608.746C910.326 611.581 910.983 618.066 914.889 621.317C919.771 625.382 923.01 612.996 926.049 611.137C929.088 609.278 932.242 612.757 942.778 611.516C953.313 610.274 937.757 606.441 927.661 606.386Z" fill="#EAAF63"/>
<path d="M563.122 651.215C547.367 650.899 538.819 643.239 528.317 636.736C513.177 628.407 528.183 599.553 540.078 611.197C551.973 622.841 566.691 606.164 574.198 611.624C581.705 617.084 591.841 610.012 607.922 618.2C619.738 618.437 597.572 653.389 591.172 650.9C584.773 648.412 582.816 651.61 563.122 651.215Z" fill="#B2782B" fill-opacity="0.7"/>
<path d="M761.811 637.954C758 623.471 729.738 642.46 720.991 644.713C728.766 647.931 730.817 672.561 768.5 660C845 634.5 765.521 652.052 761.811 637.954Z" fill="#EAAF63"/>
<path d="M727.794 591.609C713.021 598.561 744.317 599.655 761.811 599.333C776.39 599.333 810.212 597.788 828.872 591.609C852.198 583.885 803.603 579.057 761.811 576.161C720.019 573.264 746.261 582.919 727.794 591.609Z" fill="#EAAF63"/>
<path d="M994.096 576.161C980.878 582.34 967.207 584.528 962.023 584.85C966.235 587.103 977.185 591.609 987.293 591.609C999.928 591.609 1007.7 584.85 1028.11 576.161C1048.52 567.471 1010.62 568.436 994.096 576.161Z" fill="#EAAF63"/>
<path d="M586.868 637.954C571.318 637.954 539.569 642.46 525.638 644.713C499.397 637.954 525.638 628.299 561.599 623.471C597.559 618.644 606.306 637.954 586.868 637.954Z" fill="#EAAF63"/>
<path d="M1003 518C991 516.4 998 509.333 1003 506L1109 480C1107.33 484.333 1106.8 498.8 1090 502C1069 506 1069 511 1064 524C1059 537 1047 530 1037 518C1027 506 1018 520 1003 518Z" fill="#BE8034"/>
<path d="M1055 493.499C1041.53 497.768 1010 500.499 1027 505.499C1034.1 505.673 1038.76 521.997 1049.93 522.27C1061.1 522.543 1076.12 496.623 1080.2 490.054C1075.5 487.999 1069.85 488.793 1055 493.499Z" fill="#B65B24" fill-opacity="0.8"/>
<path d="M423 677.5L391.5 700.5H466.5C461.667 699 452.6 693.3 449 690.5C444.5 687 431.5 679 431.5 670C431.5 661 453.5 645.5 460.5 640.5C467.5 635.5 465 618.5 469.5 612.5C473.1 607.7 490 604.5 498 603.5C497.667 603 498.3 600.657 495.5 598.657C486.5 588.657 491.5 586.657 504.5 581.657C517.5 576.657 526.5 566.5 531.5 560.5C536.5 554.5 546.5 554.5 551.5 554C555.5 553.6 566.167 555.167 571 556C576.833 554.833 587.4 550.4 583 542C578.6 533.6 588.833 532.167 594.5 532.5C593 532 588.4 531.3 582 532.5C575.6 533.7 576.667 541.667 578 545.5H551.5C549.333 547.5 540.288 550.868 534.5 550C524.5 548.5 523.5 551.5 515.5 561.5C507.5 571.5 488 578 480 582.5C473.6 586.1 477.333 593.834 480 596C475.5 594.5 464.1 599.8 460.5 601C456.9 602.2 453.333 616.334 452 622C448.833 624.5 441.6 630.4 438 634C420 648.4 419.667 669 423 677.5Z" fill="#A36F33"/>
<path d="M117 414C71.4 426 23.3333 430.167 6 431.5C42.3333 402.833 118.5 337 126 326C134.864 313 150.667 311.333 158 311C159 316 163 331 175 347C190 367 177 366 180 388C183 410 208 421 196 433C184 445 174 399 117 414Z" fill="#847F47"/>
<path d="M282 392C284.4 384 272.333 372 266 367C265.5 366.667 264 365.8 262 365C264 365 268.5 365 272.5 364C279.3 362.8 290.667 354.5 295.5 350.5C309 346 335 361.5 342 364C349 366.5 372.5 374 379.5 376C386.5 378 405.5 386 426 389C446.5 392 468 378.5 473.5 377C479 375.5 544.5 339.5 563 329.5C577.8 321.5 587.167 319.167 590 319C592.333 320.333 596.8 326 596 338C595 353 574 367 581 360C586.6 354.4 583.333 343 581 338L568 347C553.667 359 521.8 383.6 509 386C493 389 457 392 433 408C409 424 380 418 365 413C353 409 340 418 335 423C336.333 425.667 340.8 433.8 348 445C357 459 322 448 312 436C302 424 279 402 282 392Z" fill="#857E47"/>
<path d="M693.5 378.5C694.486 378.955 695.81 379.638 697.372 380.535C705.068 383.913 721.575 389.569 730.5 392.5C749 398.667 789.3 410.1 802.5 406.5C819 402 824.5 401 848 403C871.5 405 887 414 893.5 417C900 420 899.5 426 924.5 420.5C949.5 415 1009.5 383.5 1031 371.5C1048.2 361.9 1069.17 354.167 1077.5 351.5V361.5C1077.5 367.5 1078.5 371.5 1077.5 383.5C1076.5 395.5 1075.5 392 1068.5 401C1062.9 408.2 1059.17 417 1058 420.5C1058.33 418.833 1058.8 413.7 1058 406.5C1057 397.5 1059.5 396.5 1063 383.5C1066.5 370.5 1056 368 1047.5 371.5C1039 375 1016.5 391.5 1009.5 396.5C1002.5 401.5 976 413.5 962 420.5C948 427.5 944 440.5 924.5 447C905 453.5 871.5 439 860.5 435.5C849.5 432 841 426 837.5 435.5C834 445 847.5 451.5 841 451.5C834.5 451.5 828 437 823 430.5C818 424 793 424.5 780 426C767 427.5 728.5 408.5 717.5 396.5C710.702 389.085 702.672 383.578 697.372 380.535C695.439 379.686 694.062 378.982 693.5 378.5Z" fill="#857E47"/>
<path d="M74 389.499C64 401.099 40.8333 413.999 30.5 418.999C38 417.999 58.7 413.599 81.5 403.999C110 391.999 95 385.999 103 375.999C111 365.999 127 374.999 135 371.999C143 368.999 143 356.999 138.5 349.499C134 341.999 147 328.999 147 319.499C147 311.899 141.333 320.999 138.5 326.499C134.667 331.333 125.4 342.699 119 349.499C111 357.999 86.5 374.999 74 389.499Z" fill="#A3925C"/>
<path d="M313.001 431C315.401 437.4 324.334 437 328.501 436C332.5 435.451 328.501 420.5 324.501 407.5C320.501 394.5 344.001 395.5 362.001 395.5C380.001 395.5 379.001 401 402.001 401.5C425.001 402 422.501 395.5 409.501 395.5C396.501 395.5 383.501 389.5 369.001 382.5C354.501 375.5 351.001 380 328.501 380C306 380 309.501 365 295.001 363.5C280.501 362 279.501 368.5 283.501 376.5C287.501 384.5 292.501 385.5 292.501 395.5C292.501 405.5 298.501 401 306.001 414.5C313.501 428 310.001 423 313.001 431Z" fill="#A3925C"/>
<path d="M540.5 350C531.3 359.6 493.333 376 475.5 383C459 396.001 493.5 383 505.5 379C517.5 375 516.5 376 521 370C525.5 364 546.5 356 556 350C565.5 344 552 338 540.5 350Z" fill="#A3925C"/>
<path d="M779 417.5C767.4 418.3 746.167 407.833 737 402.5C717.651 393 768.5 406.5 783 412C797.5 417.5 816.5 412 825.5 412C834.5 412 845.5 413.5 873.5 421C901.5 428.5 895.5 430 904.5 431C913.5 432 929 429.5 949 417.5C965 407.9 993 397.5 1005 393.5C1001 396.5 991.8 402.5 987 402.5C981 402.5 953.5 423.5 944.5 426C935.5 428.5 923 438.5 912 442.5C901 446.5 848 423.5 835.5 423.5C823 423.5 833 431.5 825.5 423.5C818 415.5 793.5 416.5 779 417.5Z" fill="#A3925C"/>
<path d="M-70.5607 107.243C-77.4632 110.85 -89.7062 112.513 -104.025 113.863C-110.969 113.532 -125.687 110.385 -128.992 100.444C-133.221 87.7266 -132.975 81.4658 -111.507 71.2366C-92.143 62.0101 -75.7066 76.1492 -72.2514 70.8948C-68.7961 65.6404 -78.3458 62.598 -69.7198 59.8137C-61.0937 57.0294 -60.9095 58.9834 -59.5041 52.9367C-58.0987 46.89 -55.6562 30.8885 -41.6171 22.6655C-30.3857 16.0871 -18.9712 14.9458 -14.6679 15.1974C-14.3141 4.97822 -8.93312 -18.2662 9.76121 -29.4907C33.1291 -43.5213 45.6708 -46.6746 77.8585 -29.9936C88.6459 -34.296 114.217 -40.3202 130.201 -29.9979C150.181 -17.0951 154.223 -5.64594 156.123 4.03142C157.643 11.7733 159.858 12.2215 160.775 11.4779C169.697 8.33721 183.858 14.5072 196.416 21.9982C208.973 29.4891 226.687 33.1953 230.564 39.4013C230.948 38.9713 231.22 38.622 231.407 38.3442C231.215 37.3412 232.328 36.9806 231.407 38.3442C231.601 39.3528 233.114 41.011 239.341 42.2186C256.443 45.5348 282.422 55.214 274.959 59.8606C275.253 62.9874 272.371 67.3331 270.893 69.1151C275.676 70.9647 283.756 77.7609 277.813 90.1491C271.87 102.537 262.246 103.116 258.176 101.856C261.339 107.472 249.967 106.089 231.614 112.55C213.261 119.011 205.61 109.087 204.079 103.317C203.449 110.605 198.663 114.125 170.885 112.8C143.107 111.475 149.685 127.851 151.601 123.728C150.817 129.387 133.361 109.981 121.615 111.088C112.013 111.992 116.69 125.617 118.611 127.522C118.894 127.353 119.124 127.106 119.297 126.772C119.332 127.789 119.041 127.948 118.611 127.522C114.801 129.808 101.323 118.106 85.8764 118.093C69.2834 118.079 65.7635 135.103 63.4987 132.03C59.3601 137.02 44.875 123.534 33.7639 123.004C22.6528 122.474 20.0811 139.407 18.469 136.274C13.9427 140.643 9.47282 118.591 1.34691 116.202C-6.77901 113.813 -19.4242 135.902 -21.424 132.147C-22.8907 137.543 -22.5897 119.43 -31.7934 113.989C-39.4315 109.473 -44.3457 121.592 -45.0568 123.709C-45.0219 123.647 -44.9868 123.585 -44.9517 123.522C-45.1718 124.157 -45.2026 124.143 -45.0568 123.709C-51.1881 134.605 -54.7591 133.198 -70.5607 107.243Z" fill="#EEFDFF"/>
<path d="M-69.6602 122.894C-76.5626 126.501 -91.9106 129.919 -98.0825 114.729C-105.027 114.398 -119.743 111.251 -123.049 101.311C-127.183 88.886 -121.804 72.6077 -98.0338 73.3249C-74.2637 74.042 -69.7042 80.5129 -66.249 75.2584C-62.7937 70.004 -64.6013 61.3032 -55.9752 58.5189C-47.3491 55.7346 -47.165 57.6887 -45.7596 51.642C-44.3542 45.5953 -41.9117 29.5937 -27.8725 21.3707C-16.6412 14.7923 -5.22672 13.651 -0.923393 13.9026C-0.569586 3.68344 4.8116 -19.561 23.5059 -30.7855C46.8739 -44.8161 59.4155 -47.9694 91.6032 -31.2884C102.391 -35.5908 127.962 -41.615 143.946 -31.2927C163.926 -18.3899 167.968 -6.94073 169.867 2.73663C171.387 10.4785 173.602 10.9268 174.52 10.1832C183.441 7.04244 204.424 2.63372 216.981 10.1247C229.538 17.6156 240.431 31.9005 244.308 38.1066C248.477 33.4427 260.236 24.7784 273.918 27.4313C291.02 30.7476 296.166 53.9192 288.703 58.5658C288.998 61.6927 286.115 66.0384 284.637 67.8204C289.42 69.6699 297.501 76.4661 291.557 88.8544C285.614 101.243 275.99 101.821 271.921 100.561C275.084 106.178 276.821 119.025 258.468 125.486C240.115 131.947 232.464 122.023 230.932 116.253C230.302 123.54 222.098 137.785 194.32 136.46C171 135.347 165.064 129.123 164.893 124.714C163.369 130.74 158.64 139.822 148.311 140.795C136.564 141.902 133.237 131.045 133.041 125.477C130.534 130.314 121.372 139.983 104.779 139.969C88.1859 139.956 79.5082 133.808 77.2435 130.735C73.1049 135.725 62.0499 145.573 50.9388 145.043C39.8277 144.513 33.8257 138.113 32.2136 134.979C27.6873 139.348 16.6033 147.49 8.47736 145.101C0.351443 142.713 -5.67964 134.607 -7.67945 130.853C-9.14623 136.248 -14.3807 145.678 -23.5844 140.237C-32.788 134.796 -32.5011 125.963 -31.2072 122.227C-37.4033 133.325 -53.7684 148.997 -69.6602 122.894Z" fill="#E7D5A7"/>
<path d="M212.723 275.863C210.43 277.061 206.365 277.613 201.61 278.061C199.304 277.951 194.417 276.906 193.32 273.605C191.915 269.382 191.997 267.303 199.126 263.907C205.556 260.843 211.014 265.538 212.161 263.793C213.309 262.048 210.137 261.038 213.002 260.113C215.866 259.189 215.927 259.838 216.394 257.83C216.861 255.822 217.672 250.508 222.334 247.778C226.063 245.593 229.854 245.214 231.283 245.298C231.4 241.904 233.187 234.186 239.395 230.458C247.154 225.799 251.319 224.752 262.008 230.291C265.59 228.863 274.081 226.862 279.389 230.29C286.024 234.575 287.366 238.377 287.997 241.59C288.501 244.161 289.237 244.31 289.541 244.063C292.504 243.02 297.207 245.069 301.376 247.556C305.546 250.044 311.428 251.274 312.716 253.335C312.843 253.192 312.934 253.076 312.996 252.984C312.932 252.651 313.302 252.531 312.996 252.984C313.06 253.319 313.563 253.87 315.631 254.271C321.309 255.372 329.936 258.586 327.458 260.129C327.556 261.167 326.599 262.61 326.108 263.202C327.696 263.816 330.379 266.073 328.406 270.187C326.432 274.301 323.236 274.493 321.885 274.074C322.935 275.939 319.159 275.48 313.065 277.626C306.97 279.771 304.43 276.475 303.921 274.559C303.712 276.979 302.123 278.148 292.899 277.708C283.674 277.268 285.859 282.706 286.495 281.337C286.235 283.217 280.438 276.772 276.537 277.14C273.349 277.44 274.902 281.964 275.54 282.597C275.634 282.541 275.71 282.459 275.768 282.348C275.78 282.686 275.683 282.739 275.54 282.597C274.275 283.356 269.799 279.47 264.67 279.466C259.16 279.462 257.991 285.114 257.239 284.094C255.865 285.751 251.055 281.273 247.365 281.097C243.676 280.921 242.822 286.544 242.286 285.503C240.783 286.954 239.299 279.631 236.601 278.838C233.902 278.045 229.703 285.38 229.039 284.133C228.552 285.925 228.652 279.91 225.596 278.103C223.06 276.604 221.428 280.628 221.192 281.331C221.203 281.31 221.215 281.29 221.226 281.269C221.153 281.48 221.143 281.475 221.192 281.331C219.156 284.949 217.97 284.482 212.723 275.863Z" fill="#FFE1AD"/>
<path d="M213.023 281.06C210.731 282.258 205.635 283.393 203.585 278.349C201.279 278.239 196.393 277.194 195.294 273.893C193.922 269.767 195.708 264.362 203.601 264.6C211.495 264.838 213.009 266.987 214.156 265.242C215.303 263.497 214.703 260.608 217.568 259.683C220.432 258.759 220.493 259.408 220.96 257.4C221.427 255.392 222.238 250.078 226.9 247.348C230.629 245.163 234.419 244.784 235.848 244.868C235.966 241.474 237.753 233.756 243.961 230.028C251.72 225.369 255.885 224.322 266.573 229.861C270.155 228.433 278.647 226.432 283.955 229.86C290.589 234.145 291.931 237.946 292.562 241.16C293.067 243.731 293.802 243.88 294.107 243.633C297.07 242.59 304.037 241.126 308.207 243.613C312.377 246.101 315.994 250.844 317.281 252.905C318.666 251.356 322.571 248.479 327.114 249.36C332.793 250.461 334.502 258.156 332.024 259.699C332.121 260.737 331.164 262.18 330.673 262.772C332.262 263.386 334.945 265.643 332.971 269.757C330.998 273.87 327.802 274.063 326.451 273.644C327.501 275.509 328.078 279.776 321.983 281.921C315.889 284.066 313.348 280.771 312.84 278.855C312.631 281.275 309.906 286.005 300.682 285.565C292.938 285.195 290.967 283.129 290.91 281.664C290.404 283.666 288.834 286.681 285.404 287.005C281.503 287.372 280.398 283.767 280.334 281.918C279.501 283.524 276.459 286.735 270.949 286.73C265.439 286.726 262.557 284.684 261.805 283.664C260.431 285.321 256.76 288.591 253.07 288.415C249.38 288.239 247.387 286.114 246.852 285.073C245.349 286.524 241.668 289.228 238.97 288.435C236.272 287.641 234.269 284.95 233.605 283.703C233.118 285.495 231.38 288.626 228.323 286.819C225.267 285.012 225.363 282.079 225.792 280.839C223.735 284.524 218.3 289.728 213.023 281.06Z" fill="#E7E3A6"/>
<path d="M585.548 148.386C581.34 150.586 573.877 151.599 565.149 152.422C560.916 152.22 551.944 150.302 549.929 144.242C547.352 136.49 547.501 132.673 560.588 126.438C572.392 120.814 582.411 129.432 584.517 126.23C586.623 123.027 580.802 121.172 586.06 119.475C591.319 117.777 591.431 118.969 592.288 115.283C593.144 111.597 594.633 101.843 603.191 96.83C610.037 92.82 616.995 92.1243 619.619 92.2777C619.834 86.0483 623.114 71.879 634.51 65.0368C648.755 56.4841 656.4 54.5619 676.021 64.7303C682.596 62.1076 698.184 58.4354 707.927 64.7276C720.107 72.5929 722.571 79.572 723.729 85.4711C724.655 90.1904 726.005 90.4637 726.565 90.0104C732.003 88.0959 740.636 91.857 748.29 96.4233C755.945 100.99 766.743 103.249 769.106 107.032C769.34 106.77 769.506 106.557 769.62 106.387C769.503 105.776 770.181 105.556 769.62 106.387C769.738 107.002 770.661 108.013 774.457 108.749C784.882 110.771 800.718 116.671 796.168 119.503C796.348 121.409 794.591 124.058 793.69 125.145C796.605 126.272 801.531 130.415 797.908 137.966C794.285 145.518 788.419 145.871 785.938 145.103C787.866 148.526 780.934 147.683 769.746 151.622C758.559 155.56 753.895 149.51 752.961 145.993C752.577 150.436 749.66 152.582 732.727 151.774C715.795 150.966 719.804 160.949 720.972 158.435C720.495 161.885 709.854 150.055 702.693 150.73C696.84 151.282 699.691 159.587 700.863 160.748C701.035 160.645 701.175 160.495 701.28 160.291C701.302 160.911 701.124 161.008 700.863 160.748C698.54 162.141 690.324 155.008 680.908 155C670.793 154.992 668.648 165.369 667.267 163.496C664.744 166.538 655.915 158.317 649.142 157.994C642.369 157.671 640.801 167.993 639.818 166.083C637.059 168.746 634.334 155.304 629.381 153.848C624.428 152.392 616.719 165.856 615.5 163.568C614.606 166.856 614.79 155.816 609.179 152.499C604.523 149.746 601.528 157.133 601.094 158.424C601.116 158.386 601.137 158.348 601.158 158.31C601.024 158.697 601.005 158.688 601.094 158.424C597.357 165.066 595.18 164.208 585.548 148.386Z" fill="#FFE1AD"/>
<path d="M586.1 157.927C581.893 160.126 572.537 162.209 568.775 152.95C564.541 152.748 555.571 150.829 553.555 144.77C551.035 137.196 554.315 127.274 568.804 127.711C583.294 128.148 586.073 132.092 588.18 128.889C590.286 125.686 589.184 120.383 594.442 118.685C599.7 116.988 599.813 118.179 600.669 114.493C601.526 110.807 603.015 101.053 611.573 96.0407C618.419 92.0307 625.377 91.3349 628 91.4883C628.216 85.259 631.496 71.0897 642.892 64.2475C657.137 55.6947 664.782 53.7726 684.403 63.9409C690.978 61.3183 706.566 57.6461 716.309 63.9383C728.489 71.8036 730.953 78.7827 732.111 84.6818C733.037 89.4011 734.387 89.6743 734.946 89.2211C740.385 87.3065 753.175 84.6191 760.83 89.1854C768.485 93.7517 775.125 102.459 777.488 106.242C780.029 103.4 787.197 98.1179 795.537 99.7351C805.962 101.757 809.099 115.882 804.55 118.714C804.73 120.62 802.972 123.269 802.072 124.355C804.987 125.483 809.913 129.626 806.29 137.177C802.667 144.729 796.8 145.081 794.32 144.314C796.248 147.737 797.307 155.569 786.119 159.507C774.932 163.446 770.268 157.396 769.334 153.878C768.95 158.321 763.949 167.004 747.016 166.196C732.801 165.518 729.182 161.724 729.078 159.036C728.149 162.71 725.267 168.246 718.971 168.839C711.81 169.514 709.781 162.895 709.662 159.502C708.134 162.45 702.549 168.344 692.434 168.336C682.319 168.327 677.03 164.58 675.649 162.707C673.126 165.749 666.388 171.751 659.614 171.428C652.841 171.105 649.183 167.204 648.2 165.294C645.441 167.957 638.684 172.92 633.731 171.464C628.778 170.008 625.101 165.067 623.882 162.778C622.988 166.067 619.797 171.816 614.187 168.499C608.577 165.182 608.751 159.798 609.54 157.52C605.763 164.286 595.787 173.838 586.1 157.927Z" fill="#E7E3A6"/>
<path d="M1023.23 287.014C1018.48 289.501 1010.04 290.647 1000.17 291.577C995.385 291.348 985.243 289.18 982.965 282.329C980.05 273.565 980.22 269.25 995.015 262.2C1008.36 255.842 1019.69 265.586 1022.07 261.965C1024.45 258.343 1017.87 256.247 1023.81 254.328C1029.76 252.409 1029.88 253.756 1030.85 249.588C1031.82 245.421 1033.51 234.394 1043.18 228.727C1050.92 224.193 1058.79 223.406 1061.75 223.58C1062 216.537 1065.71 200.518 1078.59 192.782C1094.69 183.113 1103.34 180.94 1125.52 192.436C1132.95 189.471 1150.58 185.319 1161.59 192.433C1175.36 201.325 1178.15 209.215 1179.46 215.885C1180.5 221.22 1182.03 221.529 1182.66 221.016C1188.81 218.852 1198.57 223.104 1207.22 228.267C1215.88 233.429 1228.09 235.983 1230.76 240.26C1231.02 239.964 1231.21 239.723 1231.34 239.532C1231.21 238.841 1231.97 238.592 1231.34 239.532C1231.47 240.227 1232.52 241.37 1236.81 242.202C1248.59 244.487 1266.5 251.158 1261.35 254.36C1261.56 256.515 1259.57 259.51 1258.55 260.738C1261.85 262.013 1267.42 266.696 1263.32 275.234C1259.23 283.772 1252.59 284.17 1249.79 283.302C1251.97 287.173 1244.13 286.22 1231.48 290.672C1218.83 295.125 1213.56 288.285 1212.51 284.309C1212.07 289.331 1208.77 291.757 1189.63 290.844C1170.49 289.931 1175.02 301.217 1176.34 298.375C1175.8 302.276 1163.77 288.901 1155.67 289.664C1149.06 290.288 1152.28 299.677 1153.6 300.99C1153.8 300.874 1153.96 300.704 1154.08 300.473C1154.1 301.174 1153.9 301.284 1153.6 300.99C1150.98 302.565 1141.69 294.501 1131.04 294.492C1119.61 294.483 1117.18 306.214 1115.62 304.097C1112.77 307.536 1102.79 298.242 1095.13 297.876C1087.47 297.511 1085.7 309.181 1084.59 307.022C1081.47 310.033 1078.39 294.835 1072.79 293.189C1067.19 291.543 1058.48 306.765 1057.1 304.178C1056.09 307.896 1056.29 295.414 1049.95 291.664C1044.69 288.552 1041.3 296.903 1040.81 298.363C1040.83 298.32 1040.86 298.277 1040.88 298.233C1040.73 298.671 1040.71 298.662 1040.81 298.363C1036.58 305.871 1034.12 304.902 1023.23 287.014Z" fill="#FFE1AD"/>
<path d="M1023.85 297.802C1019.1 300.288 1008.52 302.643 1004.27 292.175C999.481 291.947 989.34 289.778 987.061 282.927C984.212 274.365 987.919 263.146 1004.3 263.641C1020.68 264.135 1023.82 268.594 1026.21 264.973C1028.59 261.352 1027.34 255.356 1033.29 253.437C1039.23 251.518 1039.36 252.865 1040.33 248.697C1041.29 244.53 1042.98 233.502 1052.65 227.835C1060.39 223.302 1068.26 222.515 1071.23 222.689C1071.47 215.646 1075.18 199.627 1088.06 191.891C1104.17 182.222 1112.81 180.049 1134.99 191.545C1142.43 188.579 1160.05 184.428 1171.06 191.542C1184.83 200.434 1187.62 208.324 1188.93 214.993C1189.98 220.329 1191.5 220.638 1192.14 220.125C1198.28 217.961 1212.74 214.923 1221.4 220.085C1230.05 225.248 1237.56 235.092 1240.23 239.369C1243.1 236.155 1251.21 230.184 1260.64 232.012C1272.42 234.298 1275.97 250.267 1270.83 253.469C1271.03 255.624 1269.04 258.619 1268.02 259.847C1271.32 261.122 1276.89 265.805 1272.79 274.343C1268.7 282.881 1262.07 283.279 1259.26 282.411C1261.44 286.282 1262.64 295.136 1249.99 299.588C1237.34 304.041 1232.07 297.201 1231.01 293.225C1230.58 298.248 1224.92 308.064 1205.78 307.151C1189.71 306.384 1185.62 302.095 1185.5 299.056C1184.45 303.209 1181.19 309.468 1174.07 310.139C1165.98 310.902 1163.68 303.419 1163.55 299.582C1161.82 302.915 1155.51 309.579 1144.07 309.57C1132.64 309.56 1126.66 305.323 1125.1 303.206C1122.24 306.645 1114.63 313.432 1106.97 313.066C1099.31 312.701 1095.17 308.29 1094.06 306.13C1090.94 309.142 1083.3 314.753 1077.7 313.107C1072.1 311.46 1067.95 305.874 1066.57 303.287C1065.56 307.005 1061.95 313.504 1055.61 309.754C1049.27 306.004 1049.46 299.917 1050.36 297.342C1046.09 304.991 1034.81 315.791 1023.85 297.802Z" fill="#E7E3A6"/>
<path d="M283.168 404.164C263.743 420.212 254.327 402.432 252.047 391.536C250.74 404.09 243.202 425.408 223.502 410.257C203.802 395.106 215.168 374.394 223.313 365.931C214.827 373.524 195.341 383.826 185.286 364.29C172.717 339.87 221.214 343.425 214.103 342.451C208.415 341.672 202.434 338.75 200.154 337.386C184.671 328.408 191.354 309.231 205.354 302.987C216.554 297.992 225.493 312.397 228.563 320.224C230.16 310.316 237.173 292.614 252.453 301.07C267.732 309.527 261.559 328.102 256.563 336.333C264.754 327.351 283.956 315.054 295.238 337.72C306.521 360.387 283.877 371.024 271.145 373.51C283.246 377.041 302.593 388.117 283.168 404.164Z" fill="#6B8C0E"/>
<path d="M272.634 568.466L293.057 574.964L306.982 563.824L302.34 457.993L326.477 425.501V413.433L302.34 442.211L306.982 381.869L280.06 403.221V442.211H261.493L253.138 425.501L247.568 432.928L261.493 451.495L280.06 457.993L272.634 568.466Z" fill="#B07D56"/>
<path d="M181.579 432.568C173.732 408.625 193.722 406.351 204.698 408.207C193.489 402.407 176.395 387.604 197.693 374.797C218.991 361.99 219.717 366.553 232.25 373.051C232.25 358.265 232.579 358.232 254.145 356.034L254.441 356.004C281.764 353.22 260.746 397.071 264.249 390.806C267.051 385.795 271.955 381.294 274.057 379.67C288.069 368.533 303.482 381.758 304.183 397.071C304.743 409.321 288.069 412.384 279.662 412.384C288.303 417.488 302.221 430.48 288.77 441.617C275.318 452.754 260.279 440.225 254.441 432.568C259.812 443.473 264.249 465.839 239.028 468.067C213.806 470.294 210.42 459.615 212.755 446.854C205.048 456.831 189.425 456.512 181.579 432.568Z" fill="#93BA24"/>
<path d="M192.401 428.748C185.959 409.185 202.369 407.327 211.379 408.844C202.178 404.105 188.145 392.011 205.628 381.547C223.112 371.082 223.709 374.811 233.996 380.12C233.996 368.039 234.267 368.012 251.97 366.217L252.213 366.192C274.642 363.917 257.389 399.745 260.264 394.627C262.565 390.532 266.59 386.855 268.316 385.528C279.818 376.429 292.471 387.234 293.046 399.745C293.506 409.754 279.818 412.256 272.917 412.256C280.01 416.427 291.435 427.043 280.393 436.142C269.351 445.241 257.005 435.004 252.213 428.748C256.622 437.658 260.264 455.932 239.56 457.752C218.856 459.572 216.076 450.847 217.993 440.421C211.667 448.572 198.842 448.311 192.401 428.748Z" fill="#7DA314"/>
<path d="M256.774 360.156C248.927 336.212 268.918 333.939 279.894 335.795C268.684 329.995 251.59 315.192 272.888 302.385C294.186 289.578 309.319 307.721 314.223 318.394C310.253 307.722 307.777 285.82 329.636 283.592C356.959 280.808 335.941 324.659 339.444 318.394C342.247 313.383 347.151 308.882 349.253 307.258C363.264 296.121 378.677 309.346 379.378 324.659C379.939 336.909 363.264 339.971 354.857 339.971C363.498 345.076 377.416 358.068 363.965 369.205C350.514 380.342 335.474 367.813 329.636 360.156C335.007 371.061 339.444 393.427 314.223 395.654C289.002 397.882 287.367 372.917 289.702 360.156C281.996 370.133 264.621 384.1 256.774 360.156Z" fill="#93BA24"/>
<path d="M265.329 392.239C256.604 365.525 278.832 362.988 291.036 365.059C278.572 358.587 259.564 342.072 283.246 327.783C306.929 313.494 323.755 333.737 329.209 345.645C324.794 333.737 322.042 309.301 346.347 306.816C376.729 303.71 353.358 352.634 357.253 345.645C360.369 340.053 365.822 335.031 368.159 333.219C383.74 320.794 400.878 335.549 401.657 352.634C402.28 366.301 383.74 369.718 374.392 369.718C383.999 375.413 399.476 389.909 384.519 402.334C369.562 414.759 352.839 400.781 346.347 392.239C352.319 404.405 357.253 429.359 329.209 431.844C301.164 434.329 299.346 406.476 301.943 392.239C293.374 403.369 274.054 418.953 265.329 392.239Z" fill="#83A61E"/>
<path d="M293.909 433.496C286.062 409.552 306.052 407.279 317.028 409.135C305.819 403.334 288.725 388.532 310.023 375.725C331.321 362.918 346.454 381.061 351.358 391.734C347.388 381.061 344.912 359.159 366.771 356.932C394.094 354.148 373.076 397.998 376.579 391.734C379.381 386.722 384.286 382.221 386.387 380.597C400.399 369.461 415.812 382.686 416.513 397.998C417.073 410.249 400.399 413.311 391.992 413.311C400.633 418.416 414.551 431.408 401.1 442.545C387.648 453.681 372.609 441.153 366.771 433.496C372.142 444.401 376.579 466.767 351.358 468.994C326.136 471.222 324.502 446.257 326.837 433.496C319.13 443.473 301.755 457.44 293.909 433.496Z" fill="#88AF1B"/>
<path d="M320.065 391.572C315.933 396.71 323.939 403.347 328.458 406.023C330.18 407.629 332.59 410.905 328.458 411.162C323.293 411.483 312.963 411.804 314.578 420.474C316.192 429.145 320.065 430.43 328.458 423.686C336.851 416.942 336.529 425.934 338.466 436.531C340.403 447.128 352.992 440.706 356.22 434.925C359.449 429.145 352.992 418.226 351.378 417.263C349.764 416.3 347.182 408.914 344.276 406.023C341.371 403.133 347.182 396.068 338.466 388.682C329.75 381.296 325.23 385.15 320.065 391.572Z" fill="#7DA708"/>
<path d="M311.159 374.908C332.325 363.768 346.126 380.014 350.149 389.297L351.077 390.69C343.706 384.191 324.659 373.98 313.015 383.263C301.371 392.547 314.972 406.627 323.227 412.506C315.182 412.095 299.647 415.047 301.875 430.145C304.103 445.243 321.371 435.507 329.726 428.752C330.499 439.556 336.131 461.088 352.47 460.78C368.809 460.472 369.18 443.013 367.323 434.322C368.251 436.642 369.902 441.957 370.108 443.605C370.572 447.318 372.429 458.459 367.323 462.172C362.218 465.886 357.111 471.919 341.794 468.67C328.078 465.761 324.155 448.247 326.476 434.322C322.763 439.427 313.572 446.854 306.517 446.854C297.698 446.854 289.343 429.68 293.52 417.612C296.862 407.957 309.766 407.4 316.265 408.792L313.015 406.936C303.577 401.057 289.993 386.048 311.159 374.908Z" fill="#597609" fill-opacity="0.7"/>
<path d="M205.329 307.139C187.876 320.135 196.2 330.502 202.544 334.06L207.185 336.845C205.174 334.525 200.78 328.676 199.294 323.849C197.809 319.021 205.793 308.84 209.97 304.354L205.329 307.139Z" fill="#7DA708"/>
<path d="M342.258 310.387C366.395 303.331 359.742 330.346 353.398 344.735C354.171 336.071 354.79 317.72 351.077 313.636C346.435 308.53 336.688 312.707 342.258 310.387Z" fill="#74980F"/>
<path d="M265.206 308.995C258.894 316.05 265.361 324.622 269.384 328.026L274.025 331.739C270.216 326.633 265.719 314.287 278.203 305.746C290.687 297.205 308.779 312.708 316.265 321.528C313.635 313.637 311.809 296.462 325.548 290.892C339.288 285.322 342.413 298.474 342.259 305.746C342.723 303.734 343.651 298.876 343.651 295.534C343.651 291.356 341.794 288.107 339.938 286.251C338.081 284.394 331.118 280.217 318.586 288.107C308.56 294.42 310.695 309.614 313.016 316.422C303.732 298.783 291.664 297.855 286.094 297.855C280.524 297.855 273.097 300.176 265.206 308.995Z" fill="#7DA314"/>
<path d="M302.34 457.53L308.374 449.639L294.449 458.458L293.057 463.564L303.268 480.274L302.34 457.53Z" fill="#855633"/>
<path d="M295.099 542.48C294.356 538.395 296.027 531.185 296.956 528.091C298.813 523.449 300.205 531.34 299.741 537.374C299.277 543.409 300.669 542.48 300.205 549.907C299.741 557.334 296.027 558.262 296.956 553.156C297.884 548.05 296.027 547.586 295.099 542.48Z" fill="#855633"/>
<path d="M287.951 534.582C286.094 540.524 278.204 545.413 274.49 547.115L280.06 460.779C280.679 462.017 283.124 465.235 287.951 468.206C293.985 471.919 293.985 483.988 292.129 486.773C290.272 489.558 292.593 495.592 292.129 503.483C291.665 511.374 296.306 512.302 293.985 517.408C291.665 522.514 290.272 527.156 287.951 534.582Z" fill="#9D5823"/>
<path d="M274.49 541.08L277.739 491.414L279.132 473.775C281.917 477.179 287.58 484.173 287.951 484.915C288.415 485.844 282.381 503.482 282.381 508.124C282.381 512.766 287.023 517.872 286.094 522.049C285.352 525.391 278.049 536.129 274.49 541.08Z" fill="#855633"/>
<path d="M91.168 428.164C71.7427 444.212 62.3267 426.432 60.0469 415.536C58.7402 428.09 51.2016 449.408 31.5019 434.257C11.8022 419.106 23.1676 398.394 31.3127 389.931C22.8266 397.524 3.34077 407.826 -6.71412 388.29C-19.2827 363.87 29.2144 367.425 22.1034 366.451C16.4147 365.672 10.4338 362.75 8.15449 361.386C-7.32943 352.408 -0.645714 333.231 13.354 326.987C24.5538 321.992 33.4933 336.397 36.563 344.224C38.1598 334.316 45.1733 316.614 60.4526 325.07C75.7318 333.527 69.5595 352.102 64.5634 360.333C72.7539 351.351 91.9557 339.054 103.238 361.72C114.521 384.387 91.8771 395.024 79.1447 397.51C91.2464 401.041 110.593 412.117 91.168 428.164Z" fill="#7AA011"/>
<path d="M80.6336 592.466L101.057 598.964L114.982 587.824L110.34 481.993L134.477 449.501V437.433L110.34 466.211L114.982 405.869L88.0603 427.221V466.211H69.4935L61.1384 449.501L55.5684 456.928L69.4935 475.495L88.0603 481.993L80.6336 592.466Z" fill="#B07D56"/>
<path d="M-10.4212 456.568C-18.2679 432.625 1.72236 430.351 12.6983 432.207C1.48893 426.407 -15.6053 411.604 5.69267 398.797C26.9907 385.99 27.7175 390.553 40.2501 397.051C40.2501 382.265 40.5792 382.232 62.1446 380.034L62.4407 380.004C89.7638 377.22 68.746 421.071 72.249 414.806C75.0513 409.795 79.9555 405.294 82.0573 403.67C96.0691 392.533 111.482 405.758 112.183 421.071C112.743 433.321 96.0691 436.384 87.662 436.384C96.3027 441.488 110.221 454.48 96.7697 465.617C83.3183 476.754 68.2789 464.225 62.4407 456.568C67.8119 467.473 72.249 489.839 47.0276 492.067C21.8063 494.294 18.4196 483.615 20.7549 470.854C13.0483 480.831 -2.57461 480.512 -10.4212 456.568Z" fill="#93BA24"/>
<path d="M0.400589 452.748C-6.04068 433.185 10.3692 431.327 19.3793 432.844C10.1776 428.105 -3.85501 416.011 13.6284 405.547C31.1119 395.082 31.7085 398.811 41.9965 404.12C41.9965 392.039 42.2666 392.012 59.9696 390.217L60.2126 390.192C82.642 387.917 65.3886 423.745 68.2642 418.627C70.5646 414.532 74.5904 410.855 76.3158 409.528C87.818 400.429 100.471 411.234 101.046 423.745C101.506 433.754 87.818 436.256 80.9167 436.256C88.0098 440.427 99.4353 451.043 88.3932 460.142C77.351 469.241 65.0052 459.004 60.2126 452.748C64.6218 461.658 68.2642 479.932 47.5601 481.752C26.856 483.572 24.0759 474.847 25.993 464.421C19.6666 472.572 6.84186 472.311 0.400589 452.748Z" fill="#6C8917"/>
<path d="M64.7741 384.156C56.9274 360.212 76.9177 357.939 87.8936 359.795C76.6842 353.995 59.59 339.192 80.888 326.385C102.186 313.578 117.319 331.721 122.223 342.394C118.253 331.722 115.777 309.82 137.636 307.592C164.959 304.808 143.941 348.659 147.444 342.394C150.247 337.383 155.151 332.882 157.253 331.258C171.264 320.121 186.677 333.346 187.378 348.659C187.939 360.909 171.264 363.971 162.857 363.971C171.498 369.076 185.416 382.068 171.965 393.205C158.514 404.342 143.474 391.813 137.636 384.156C143.007 395.061 147.444 417.427 122.223 419.654C97.0016 421.882 95.3669 396.917 97.7022 384.156C89.9956 394.133 72.6207 408.1 64.7741 384.156Z" fill="#93BA24"/>
<path d="M73.3288 416.239C64.6038 389.525 86.8317 386.988 99.0363 389.059C86.5722 382.587 67.5644 366.072 91.2465 351.783C114.929 337.494 131.755 357.737 137.209 369.645C132.794 357.737 130.042 333.301 154.347 330.816C184.729 327.71 161.358 376.634 165.253 369.645C168.369 364.053 173.822 359.031 176.159 357.219C191.74 344.794 208.878 359.549 209.657 376.634C210.28 390.301 191.74 393.718 182.392 393.718C191.999 399.413 207.476 413.909 192.519 426.334C177.562 438.759 160.839 424.781 154.347 416.239C160.319 428.405 165.253 453.359 137.209 455.844C109.164 458.329 107.346 430.476 109.943 416.239C101.374 427.369 82.0538 442.953 73.3288 416.239Z" fill="#83A61E"/>
<path d="M101.909 457.496C94.0622 433.552 114.052 431.279 125.028 433.135C113.819 427.334 96.7247 412.532 118.023 399.725C139.321 386.918 154.454 405.061 159.358 415.734C155.388 405.061 152.912 383.159 174.771 380.932C202.094 378.148 181.076 421.998 184.579 415.734C187.381 410.722 192.286 406.221 194.387 404.597C208.399 393.461 223.812 406.686 224.513 421.998C225.073 434.249 208.399 437.311 199.992 437.311C208.633 442.416 222.551 455.408 209.1 466.545C195.648 477.681 180.609 465.153 174.771 457.496C180.142 468.401 184.579 490.767 159.358 492.994C134.136 495.222 132.502 470.257 134.837 457.496C127.13 467.473 109.755 481.44 101.909 457.496Z" fill="#A3CF2A"/>
<path d="M128.065 415.572C123.933 420.71 131.939 427.347 136.458 430.023C138.18 431.629 140.59 434.905 136.458 435.162C131.293 435.483 120.963 435.804 122.578 444.474C124.192 453.145 128.065 454.43 136.458 447.686C144.851 440.942 144.529 449.934 146.466 460.531C148.403 471.128 160.992 464.706 164.22 458.925C167.449 453.145 160.992 442.226 159.378 441.263C157.764 440.3 155.182 432.914 152.276 430.023C149.371 427.133 155.182 420.068 146.466 412.682C137.75 405.296 133.23 409.15 128.065 415.572Z" fill="#7DA708"/>
<path d="M119.159 398.908C140.325 387.768 154.126 404.014 158.149 413.297L159.077 414.69C151.706 408.191 132.659 397.98 121.015 407.263C109.371 416.547 122.972 430.627 131.227 436.506C123.182 436.095 107.647 439.047 109.875 454.145C112.103 469.243 129.371 459.507 137.726 452.752C138.499 463.556 144.131 485.088 160.47 484.78C176.809 484.472 177.18 467.013 175.323 458.322C176.251 460.642 177.902 465.957 178.108 467.605C178.572 471.318 180.429 482.459 175.323 486.172C170.218 489.886 165.111 495.919 149.794 492.67C136.078 489.761 132.155 472.247 134.476 458.322C130.763 463.427 121.572 470.854 114.517 470.854C105.698 470.854 97.3429 453.68 101.52 441.612C104.862 431.957 117.766 431.4 124.265 432.792L121.015 430.936C111.577 425.057 97.9926 410.048 119.159 398.908Z" fill="#597609" fill-opacity="0.7"/>
<path d="M13.3286 331.139C-4.12424 344.135 4.19988 354.502 10.5435 358.06L15.1852 360.845C13.1738 358.525 8.77966 352.676 7.29432 347.849C5.80897 343.021 13.7927 332.84 17.9702 328.354L13.3286 331.139Z" fill="#93BA24"/>
<path d="M150.258 334.387C174.395 327.331 167.742 354.346 161.398 368.735C162.171 360.071 162.79 341.72 159.077 337.636C154.435 332.53 144.688 336.707 150.258 334.387Z" fill="#74980F"/>
<path d="M73.2063 332.995C66.8936 340.05 73.3611 348.622 77.3839 352.026L82.0255 355.739C78.2165 350.633 73.7193 338.287 86.203 329.746C98.6867 321.205 116.779 336.708 124.265 345.528C121.635 337.637 119.809 320.462 133.548 314.892C147.288 309.322 150.413 322.474 150.259 329.746C150.723 327.734 151.651 322.876 151.651 319.534C151.651 315.356 149.794 312.107 147.938 310.251C146.081 308.394 139.118 304.217 126.586 312.107C116.56 318.42 118.695 333.614 121.016 340.422C111.732 322.783 99.664 321.855 94.0939 321.855C88.5239 321.855 81.0972 324.176 73.2063 332.995Z" fill="#7DA314"/>
<path d="M110.34 481.53L116.374 473.639L102.449 482.458L101.057 487.564L111.268 504.274L110.34 481.53Z" fill="#855633"/>
<path d="M103.099 566.48C102.356 562.395 104.027 555.185 104.956 552.091C106.813 547.449 108.205 555.34 107.741 561.374C107.277 567.409 108.669 566.48 108.205 573.907C107.741 581.334 104.027 582.262 104.956 577.156C105.884 572.05 104.027 571.586 103.099 566.48Z" fill="#855633"/>
<path d="M95.9512 558.582C94.0945 564.524 86.2036 569.413 82.4902 571.115L88.0603 484.779C88.6792 486.017 91.1238 489.235 95.9512 492.206C101.985 495.919 101.985 507.988 100.129 510.773C98.272 513.558 100.593 519.592 100.129 527.483C99.6645 535.374 104.306 536.302 101.985 541.408C99.6645 546.514 98.272 551.156 95.9512 558.582Z" fill="#9D5823"/>
<path d="M82.4902 565.08L85.7394 515.414L87.1319 497.775C89.917 501.179 95.5798 508.173 95.9512 508.915C96.4153 509.844 90.3811 527.482 90.3811 532.124C90.3811 536.766 95.0228 541.872 94.0945 546.049C93.3518 549.391 86.0489 560.129 82.4902 565.08Z" fill="#855633"/>
<path d="M227.168 482.164C207.743 498.212 198.327 480.432 196.047 469.536C194.74 482.09 187.202 503.408 167.502 488.257C147.802 473.106 159.168 452.394 167.313 443.931C158.827 451.524 139.341 461.826 129.286 442.29C116.717 417.87 165.214 421.425 158.103 420.451C152.415 419.672 146.434 416.75 144.154 415.386C128.671 406.408 135.354 387.231 149.354 380.987C160.554 375.992 169.493 390.397 172.563 398.224C174.16 388.316 181.173 370.614 196.453 379.07C211.732 387.527 205.559 406.102 200.563 414.333C208.754 405.351 227.956 393.054 239.238 415.72C250.521 438.387 227.877 449.024 215.145 451.51C227.246 455.041 246.593 466.117 227.168 482.164Z" fill="#86B30B"/>
<path d="M216.634 646.466L237.057 652.964L250.982 641.824L246.34 535.993L270.477 503.501V491.433L246.34 520.211L250.982 459.869L224.06 481.221V520.211H205.493L197.138 503.501L191.568 510.928L205.493 529.495L224.06 535.993L216.634 646.466Z" fill="#B07D56"/>
<path d="M125.579 510.568C117.732 486.625 137.722 484.351 148.698 486.207C137.489 480.407 120.395 465.604 141.693 452.797C162.991 439.99 163.717 444.553 176.25 451.051C176.25 436.265 176.579 436.232 198.145 434.034L198.441 434.004C225.764 431.22 204.746 475.071 208.249 468.806C211.051 463.795 215.955 459.294 218.057 457.67C232.069 446.533 247.482 459.758 248.183 475.071C248.743 487.321 232.069 490.384 223.662 490.384C232.303 495.488 246.221 508.48 232.77 519.617C219.318 530.754 204.279 518.225 198.441 510.568C203.812 521.473 208.249 543.839 183.028 546.067C157.806 548.294 154.42 537.615 156.755 524.854C149.048 534.831 133.425 534.512 125.579 510.568Z" fill="#6B8818"/>
<path d="M136.401 506.748C129.959 487.185 146.369 485.327 155.379 486.844C146.178 482.105 132.145 470.011 149.628 459.547C167.112 449.082 167.709 452.811 177.996 458.12C177.996 446.039 178.267 446.012 195.97 444.217L196.213 444.192C218.642 441.917 201.389 477.745 204.264 472.627C206.565 468.532 210.59 464.855 212.316 463.528C223.818 454.429 236.471 465.234 237.046 477.745C237.506 487.754 223.818 490.256 216.917 490.256C224.01 494.427 235.435 505.043 224.393 514.142C213.351 523.241 201.005 513.004 196.213 506.748C200.622 515.658 204.264 533.932 183.56 535.752C162.856 537.572 160.076 528.847 161.993 518.421C155.667 526.572 142.842 526.311 136.401 506.748Z" fill="#7DA314"/>
<path d="M200.774 438.156C192.927 414.212 212.918 411.939 223.894 413.795C212.684 407.995 195.59 393.192 216.888 380.385C238.186 367.578 253.319 385.721 258.223 396.394C254.253 385.722 251.777 363.82 273.636 361.592C300.959 358.808 279.941 402.659 283.444 396.394C286.247 391.383 291.151 386.882 293.253 385.258C307.264 374.121 322.677 387.346 323.378 402.659C323.939 414.909 307.264 417.971 298.857 417.971C307.498 423.076 321.416 436.068 307.965 447.205C294.514 458.342 279.474 445.813 273.636 438.156C279.007 449.061 283.444 471.427 258.223 473.654C233.002 475.882 231.367 450.917 233.702 438.156C225.996 448.133 208.621 462.1 200.774 438.156Z" fill="#93BA24"/>
<path d="M209.329 470.239C200.604 443.525 222.832 440.988 235.036 443.059C222.572 436.587 203.564 420.072 227.246 405.783C250.929 391.494 267.755 411.737 273.209 423.645C268.794 411.737 266.042 387.301 290.347 384.816C320.729 381.71 297.358 430.634 301.253 423.645C304.369 418.053 309.822 413.031 312.159 411.219C327.74 398.794 344.878 413.549 345.657 430.634C346.28 444.301 327.74 447.718 318.392 447.718C327.999 453.413 343.476 467.909 328.519 480.334C313.562 492.759 296.839 478.781 290.347 470.239C296.319 482.405 301.253 507.359 273.209 509.844C245.164 512.329 243.346 484.476 245.943 470.239C237.374 481.369 218.054 496.953 209.329 470.239Z" fill="#6A8812"/>
<path d="M237.909 511.496C230.062 487.552 250.052 485.279 261.028 487.135C249.819 481.334 232.725 466.532 254.023 453.725C275.321 440.918 290.454 459.061 295.358 469.734C291.388 459.061 288.912 437.159 310.771 434.932C338.094 432.148 317.076 475.998 320.579 469.734C323.381 464.722 328.286 460.221 330.387 458.597C344.399 447.461 359.812 460.686 360.513 475.998C361.073 488.249 344.399 491.311 335.992 491.311C344.633 496.416 358.551 509.408 345.1 520.545C331.648 531.681 316.609 519.153 310.771 511.496C316.142 522.401 320.579 544.767 295.358 546.994C270.136 549.222 268.502 524.257 270.837 511.496C263.13 521.473 245.755 535.44 237.909 511.496Z" fill="#709608"/>
<path d="M264.065 469.572C259.933 474.71 267.939 481.347 272.458 484.023C274.18 485.629 276.59 488.905 272.458 489.162C267.293 489.483 256.963 489.804 258.578 498.474C260.192 507.145 264.065 508.43 272.458 501.686C280.851 494.942 280.529 503.934 282.466 514.531C284.403 525.128 296.992 518.706 300.22 512.925C303.449 507.145 296.992 496.226 295.378 495.263C293.764 494.3 291.182 486.914 288.276 484.023C285.371 481.133 291.182 474.068 282.466 466.682C273.75 459.296 269.23 463.15 264.065 469.572Z" fill="#7DA708"/>
<path d="M255.159 452.908C276.325 441.768 290.126 458.014 294.149 467.297L295.077 468.69C287.706 462.191 268.659 451.98 257.015 461.263C245.371 470.547 258.972 484.627 267.227 490.506C259.182 490.095 243.647 493.047 245.875 508.145C248.103 523.243 265.371 513.507 273.726 506.752C274.499 517.556 280.131 539.088 296.47 538.78C312.809 538.472 313.18 521.013 311.323 512.322C312.251 514.642 313.902 519.957 314.108 521.605C314.572 525.318 316.429 536.459 311.323 540.172C306.218 543.886 301.111 549.919 285.794 546.67C272.078 543.761 268.155 526.247 270.476 512.322C266.763 517.427 257.572 524.854 250.517 524.854C241.698 524.854 233.343 507.68 237.52 495.612C240.862 485.957 253.766 485.4 260.265 486.792L257.015 484.936C247.577 479.057 233.993 464.048 255.159 452.908Z" fill="#597609" fill-opacity="0.7"/>
<path d="M149.329 385.139C131.876 398.135 140.2 408.502 146.544 412.06L151.185 414.845C149.174 412.525 144.78 406.676 143.294 401.849C141.809 397.021 149.793 386.84 153.97 382.354L149.329 385.139Z" fill="#ABDE1F"/>
<path d="M286.258 388.387C310.395 381.331 303.742 408.346 297.398 422.735C298.171 414.071 298.79 395.72 295.077 391.636C290.435 386.53 280.688 390.707 286.258 388.387Z" fill="#74980F"/>
<path d="M209.206 386.995C202.894 394.05 209.361 402.622 213.384 406.026L218.025 409.739C214.216 404.633 209.719 392.287 222.203 383.746C234.687 375.205 252.779 390.708 260.265 399.528C257.635 391.637 255.809 374.462 269.548 368.892C283.288 363.322 286.413 376.474 286.259 383.746C286.723 381.734 287.651 376.876 287.651 373.534C287.651 369.356 285.794 366.107 283.938 364.251C282.081 362.394 275.118 358.217 262.586 366.107C252.56 372.42 254.695 387.614 257.016 394.422C247.732 376.783 235.664 375.855 230.094 375.855C224.524 375.855 217.097 378.176 209.206 386.995Z" fill="#7DA314"/>
<path d="M246.34 535.53L252.374 527.639L238.449 536.458L237.057 541.564L247.268 558.274L246.34 535.53Z" fill="#855633"/>
<path d="M239.099 620.48C238.356 616.395 240.027 609.185 240.956 606.091C242.813 601.449 244.205 609.34 243.741 615.374C243.277 621.409 244.669 620.48 244.205 627.907C243.741 635.334 240.027 636.262 240.956 631.156C241.884 626.05 240.027 625.586 239.099 620.48Z" fill="#855633"/>
<path d="M231.951 612.582C230.094 618.524 222.204 623.413 218.49 625.115L224.06 538.779C224.679 540.017 227.124 543.235 231.951 546.206C237.985 549.919 237.985 561.988 236.129 564.773C234.272 567.558 236.593 573.592 236.129 581.483C235.665 589.374 240.306 590.302 237.985 595.408C235.665 600.514 234.272 605.156 231.951 612.582Z" fill="#9D5823"/>
<path d="M218.49 619.08L221.739 569.414L223.132 551.775C225.917 555.179 231.58 562.173 231.951 562.915C232.415 563.844 226.381 581.482 226.381 586.124C226.381 590.766 231.023 595.872 230.094 600.049C229.352 603.391 222.049 614.129 218.49 619.08Z" fill="#855633"/>
<path style="mix-blend-mode:multiply" d="M738.014 617.566C737.206 617.147 736.305 616.935 735.394 616.951C717.218 615.897 699.042 618.254 680.837 618.62C663.652 618.955 646.479 617.522 629.59 614.345L626.809 613.847C620.723 613.444 614.645 614.748 609.266 617.61C608.706 617.903 608.118 618.283 608.015 618.898C607.853 619.894 609.06 620.509 610.046 620.758C620.819 623.482 632.122 622.105 643.263 622.325C644.075 622.248 644.888 622.472 645.544 622.954C646.133 623.511 646.059 624.741 645.265 624.902H677.967C687.769 624.902 697.6 624.902 707.402 624.463C717.293 624.074 727.137 622.889 736.837 620.919C737.233 620.892 737.618 620.78 737.966 620.591C738.314 620.401 738.617 620.138 738.853 619.821C738.998 619.407 738.994 618.955 738.841 618.544C738.687 618.132 738.395 617.786 738.014 617.566Z" fill="url(#paint1_linear)" fill-opacity="0.4"/>
<path d="M613.887 501.95C615.27 500.119 616.668 498.274 618.184 496.503C620.403 493.923 622.835 491.533 625.455 489.357C626.34 488.515 627.423 487.906 628.604 487.586C629.309 487.438 630.039 487.452 630.738 487.627C631.437 487.802 632.086 488.133 632.637 488.596C633.107 489.002 633.452 489.533 633.632 490.126C633.812 490.72 633.819 491.352 633.652 491.949C633.314 492.811 632.815 493.6 632.181 494.277L621.466 508.304C620.53 509.674 619.353 510.864 617.993 511.819C616.269 512.902 614.194 513.284 612.194 512.887C610.075 512.434 607.72 510.574 608.736 508.758C610.311 506.386 612.031 504.112 613.887 501.95Z" fill="#5B6C7F"/>
<path d="M628.104 607.843C630.194 607.023 629.575 603.758 629.311 601.547C628.329 594.548 627.348 587.554 626.367 580.565C625.687 576.916 625.504 573.193 625.823 569.495C626.661 563.243 630.238 557.781 633.431 552.305C636.911 546.22 639.865 539.852 642.262 533.27C642.893 531.928 643.133 530.436 642.954 528.965C642.824 528.451 642.621 527.958 642.35 527.501C641.356 525.956 639.999 524.675 638.397 523.767C636.794 522.859 634.995 522.352 633.152 522.288C630.444 522.01 624.189 521.937 622.158 524.236C620.127 526.535 620.568 532.377 620.142 535.115C618.778 543.9 617.1 552.588 615.108 561.178C614.746 562.563 614.486 563.973 614.328 565.395C614.245 567.23 614.339 569.069 614.608 570.886L623.276 606.511C623.276 606.511 624.41 609.308 628.104 607.843Z" fill="#4D4D4D"/>
<path d="M649.047 564.868C650.195 556.873 651.357 548.864 651.74 540.796C651.98 537.376 651.862 533.941 651.387 530.546C651.199 528.513 650.369 526.591 649.017 525.055C644.278 520.472 635.963 522.932 633.976 528.789C632.21 533.899 633.167 539.478 633.726 544.896C634.241 549.874 634.403 554.896 634.506 559.904C634.781 575.523 634.418 591.141 633.417 606.76C633.311 607.242 633.322 607.743 633.447 608.222C633.572 608.7 633.809 609.142 634.138 609.512C634.438 609.728 634.778 609.882 635.139 609.966C635.139 609.966 638.671 610.684 639.554 609.966C640.437 609.249 648.664 567.577 649.047 564.868Z" fill="#4D4D4D"/>
<path d="M629.532 613.86C630.062 613.67 630.65 613.626 631.18 613.406C632.828 612.747 633.505 610.844 633.976 609.145C634.01 608.933 634.114 608.737 634.271 608.589C634.439 608.475 634.642 608.423 634.845 608.443L637.288 608.325C637.543 608.274 637.806 608.277 638.06 608.335C638.314 608.393 638.553 608.505 638.76 608.662C639.009 609.022 639.124 609.457 639.083 609.892V612.967C639.116 613.525 639.051 614.085 638.892 614.622C638.544 615.351 638.071 616.015 637.494 616.584C636.891 617.513 636.185 618.373 635.389 619.146C634.646 619.668 633.805 620.037 632.917 620.23C631.092 620.713 627.795 620.918 627.03 618.575C626.822 617.622 626.96 616.627 627.417 615.764C627.875 614.902 628.624 614.228 629.532 613.86Z" fill="#3B3B3B"/>
<path d="M624.646 607.447C624.297 607.467 623.958 607.573 623.66 607.755C622.895 608.297 623.13 609.483 622.777 610.347C622.58 610.731 622.294 611.064 621.944 611.318C621.594 611.572 621.188 611.741 620.761 611.811C619.898 611.94 619.028 612.019 618.156 612.045C617.766 612.061 617.384 612.161 617.037 612.338C616.08 612.909 616.007 614.242 616.036 615.34C616.029 615.537 616.07 615.732 616.154 615.911C616.272 616.043 616.417 616.148 616.579 616.219C616.742 616.29 616.918 616.325 617.096 616.321C620.993 616.698 624.925 616.47 628.752 615.647C629.185 615.603 629.587 615.406 629.885 615.091C630.108 614.7 630.181 614.242 630.091 613.802C629.944 612.148 630.283 609.175 629.267 607.77C628.252 606.364 626.103 607.447 624.646 607.447Z" fill="#3B3B3B"/>
<path d="M639.599 486.443C640.218 486.219 640.877 486.128 641.534 486.176C642.191 486.224 642.831 486.41 643.41 486.721C643.895 487.169 644.272 487.72 644.514 488.332C646.184 491.661 647.658 495.083 648.929 498.582C650.972 504.643 652.17 510.954 652.491 517.338C652.697 520.97 653.183 524.586 653.301 528.218C653.194 531.158 652.929 534.091 652.506 537.003C645.147 537.223 637.685 536.608 630.312 536.666C628.494 536.6 626.676 536.787 624.911 537.223C623.218 537.735 621.496 538.687 619.789 538.262C618.793 533.436 618.748 528.463 619.656 523.62C620.422 520.223 621.687 516.914 622.129 513.37C622.74 509.248 623.595 505.166 624.69 501.144C625.337 498.626 625.97 496.092 626.603 493.574C627.103 491.583 627.28 488.683 628.457 486.956C629.635 485.228 631.107 486.253 632.726 486.619C635.004 487.041 637.345 486.981 639.599 486.443Z" fill="#F0F0F0"/>
<path d="M631.239 463.176C630.112 463.724 629.11 464.496 628.296 465.446C627.447 466.756 626.992 468.28 626.986 469.838C626.851 471.938 626.959 474.045 627.31 476.12C627.63 479.013 628.873 481.727 630.856 483.866C631.857 484.901 633.168 485.586 634.593 485.818C636.017 486.051 637.479 485.818 638.76 485.154C640.982 483.763 641.777 480.966 642.263 478.389C642.66 476.237 642.954 473.997 643.146 471.903C643.347 470.369 643.312 468.814 643.043 467.291C642.661 465.689 641.932 464.19 640.909 462.898C638.318 459.545 634.286 461.419 631.239 463.176Z" fill="#EDD5BE"/>
<path d="M636.464 470.045C637.126 470.499 637.935 470.719 638.583 471.143C639.382 471.677 639.945 472.494 640.158 473.427C640.158 473.618 640.29 473.867 640.481 473.852C640.673 473.837 640.746 473.588 640.894 473.471C641.041 473.354 641.526 473.471 641.644 473.735C641.732 474.031 641.732 474.346 641.644 474.643C641.144 476.619 640.643 478.596 640.172 480.5C641.851 478.438 643.22 476.145 644.234 473.691C644.433 473.199 644.557 472.681 644.602 472.154C644.584 470.93 644.172 469.744 643.425 468.771C642.771 467.534 641.741 466.535 640.481 465.916C639.699 465.641 638.863 465.545 638.038 465.638C636.993 465.711 635.389 466.121 634.977 467.263C634.565 468.405 635.684 469.518 636.464 470.045Z" fill="#D9AC7C"/>
<path d="M644.632 465.739C644.451 464.289 643.881 462.914 642.984 461.757C642.282 461.038 641.454 460.452 640.541 460.029C639.82 459.624 639.048 459.319 638.245 459.121C636.635 458.883 634.993 458.998 633.432 459.458C630.96 459.999 628.281 460.717 626.795 462.752C625.796 464.288 625.345 466.114 625.514 467.936C625.499 467.993 625.499 468.054 625.514 468.111C625.035 468.293 624.577 468.524 624.145 468.799C622.163 470.011 620.574 471.764 619.568 473.851C621.381 472.727 623.371 471.915 625.455 471.45C627.618 471.072 629.84 471.198 631.946 471.816C632.424 471.986 632.916 472.114 633.417 472.196C633.615 472.247 633.823 472.247 634.021 472.196C634.21 472.082 634.371 471.927 634.492 471.743C635.146 471.005 635.948 470.411 636.847 470L637.273 469.795C638.461 470.236 639.6 470.795 640.673 471.464C641.242 471.876 641.866 472.207 642.528 472.445C642.862 472.557 643.221 472.579 643.567 472.51C643.913 472.441 644.235 472.282 644.5 472.05C644.903 471.502 645.082 470.821 645 470.147C645.01 468.669 644.887 467.194 644.632 465.739Z" fill="#333333"/>
<path d="M645.294 589.012C645.606 590.384 645.794 591.78 645.853 593.185C645.801 593.543 645.821 593.907 645.912 594.256C646.003 594.606 646.163 594.934 646.383 595.221C646.898 595.718 648.076 595.221 647.855 594.576L649.488 597.153C649.282 597.08 649.488 596.729 649.68 596.758C649.871 596.787 650.004 597.007 650.107 597.197C650.474 597.988 650.857 598.779 651.225 599.555L657.112 601.766C659.761 602.747 661.307 604.518 664.25 605.28C667.782 606.104 671.384 606.594 675.008 606.744C681.797 607.394 688.647 606.818 695.23 605.046C699.263 603.801 703.045 601.883 707.004 600.653C710.374 599.628 713.936 599.101 717.086 597.519C720.235 595.938 722.973 592.907 722.973 589.393C722.903 588.104 722.567 586.843 721.987 585.688C718.631 578.514 710.213 574.824 702.353 574.209C694.494 573.594 686.503 575.468 678.644 576.229C676.053 576.478 673.257 576.566 671.094 575.131C670.2 574.385 669.256 573.7 668.268 573.081C667.763 572.789 667.164 572.703 666.597 572.839C666.029 572.975 665.537 573.325 665.221 573.813C665.516 572.92 664.324 572.203 663.382 572.232C662.44 572.261 661.395 572.627 660.556 572.232C660.129 572.012 659.776 571.602 659.29 571.588C658.422 571.588 657.907 572.832 657.038 572.774C656.17 572.715 655.935 571.749 655.214 571.646C654.824 571.629 654.439 571.731 654.11 571.939C653.166 572.351 652.134 572.523 651.107 572.442C650.08 572.36 649.089 572.026 648.223 571.471L647.737 573.813C646.501 572.964 644.661 573.975 644.131 575.395C642.542 579.758 644.308 584.488 645.294 589.012Z" fill="#BA9E80"/>
<path d="M632.799 574.721C632.019 575.849 631.798 577.298 630.945 578.367C629.723 579.919 627.398 580.373 626.353 582.057C625.952 582.794 625.801 583.639 625.923 584.468C626.045 585.297 626.433 586.064 627.03 586.655C627.647 587.225 628.393 587.64 629.205 587.864C630.017 588.088 630.871 588.115 631.695 587.943C632.461 587.797 633.167 587.504 633.976 587.431C637.788 587.05 640.997 591.648 644.691 590.696C645.562 590.403 646.343 589.892 646.959 589.213C647.574 588.534 648.005 587.708 648.208 586.816C648.596 585.028 648.735 583.195 648.62 581.369C648.62 579.085 648.753 576.654 647.59 574.677C647.02 573.798 646.261 573.056 645.368 572.504C644.474 571.952 643.469 571.604 642.424 571.485C640.331 571.261 638.214 571.568 636.272 572.379C634.904 572.793 633.693 573.61 632.799 574.721Z" fill="#BA9E80"/>
<path d="M683.28 611.812C683.346 611.15 683.168 610.487 682.777 609.948C682.387 609.409 681.812 609.03 681.16 608.883L682.941 608.18C680.38 607.243 679.512 604.183 677.834 602.045C676.595 600.639 675.14 599.438 673.522 598.487C673.104 598.189 672.642 597.957 672.153 597.799C670.255 597.286 668.459 599.263 668.415 601.254C668.577 603.21 669.326 605.072 670.564 606.599L676.583 615.648C677.861 617.21 678.617 619.129 678.747 621.139L676.407 621.49C676.263 621.614 676.148 621.767 676.069 621.939C675.991 622.11 675.95 622.297 675.95 622.486C675.95 622.675 675.991 622.861 676.069 623.033C676.148 623.205 676.263 623.358 676.407 623.481C676.999 623.979 677.726 624.29 678.496 624.375C679.138 624.609 679.825 624.697 680.505 624.631C681.185 624.565 681.842 624.347 682.426 623.994C683.062 623.352 683.448 622.506 683.515 621.607C683.921 618.859 683.359 616.055 681.926 613.671H683.294C683.512 613.273 683.609 612.82 683.574 612.368C683.086 612.32 682.624 612.126 682.249 611.812H683.28Z" fill="#BA9E80"/>
<path d="M703.516 605.046C705.15 607.199 707.931 608.106 710.61 608.604C713.312 608.878 715.948 609.6 718.41 610.742C720.333 611.886 721.779 613.679 722.487 615.794C722.858 616.862 723.042 617.987 723.031 619.117C723.031 619.776 722.178 622.046 722.501 622.339C722.718 622.529 722.993 622.637 723.281 622.646C724.753 622.807 725.857 622.646 726.328 621.182C726.765 619.875 726.979 618.504 726.961 617.126C726.965 614.345 726.084 611.633 724.444 609.38C723.355 607.916 721.898 606.598 721.618 604.797C721.256 604.787 720.907 604.66 720.623 604.436C720.339 604.211 720.136 603.902 720.044 603.553C719.926 602.85 720.706 602.088 721.354 602.396C721.707 602.118 721.53 601.532 721.177 601.254C720.824 600.976 720.367 600.902 719.985 600.668C719.116 600.17 718.822 599.087 718.425 598.179C718.027 597.271 717.159 596.319 716.188 596.568C716.384 596.381 716.529 596.146 716.607 595.886C716.685 595.627 716.694 595.352 716.633 595.088C716.572 594.824 716.443 594.58 716.26 594.38C716.076 594.18 715.843 594.031 715.584 593.947C716.718 594.123 717.38 592.483 716.806 591.487C716.073 590.575 715.022 589.969 713.862 589.789L709.977 588.647C708.683 588.176 707.304 587.982 705.93 588.076C704.697 588.361 703.577 589.003 702.711 589.92C701.844 590.837 701.269 591.989 701.058 593.23C700.686 595.723 700.892 598.267 701.662 600.668C701.976 602.237 702.607 603.726 703.516 605.046Z" fill="#BA9E80"/>
<path d="M656.303 597.681L655.449 597.418C653.978 599.848 654.949 602.938 654.758 605.749C654.507 609.175 652.565 612.221 650.681 615.091C649.912 616.597 648.643 617.792 647.09 618.473C646.383 618.693 645.53 618.722 645.029 619.279C644.899 619.471 644.809 619.686 644.762 619.913C644.716 620.141 644.716 620.374 644.761 620.602C644.806 620.829 644.896 621.045 645.025 621.238C645.155 621.43 645.321 621.595 645.515 621.724C646.347 622.191 647.329 622.318 648.253 622.075C650.633 621.402 652.831 620.206 654.684 618.576C655.282 618.128 655.848 617.639 656.377 617.111C657.432 615.902 658.286 614.533 658.908 613.056L660.203 610.405C660.615 609.541 661.675 608.531 662.337 609.146C661.955 609.146 662.131 608.502 662.499 608.414C662.867 608.326 663.353 608.414 663.529 608.033C663.532 607.664 663.431 607.302 663.239 606.987C663.047 606.671 662.77 606.415 662.44 606.247C662.927 606.271 663.41 606.155 663.833 605.914C664.256 605.672 664.6 605.315 664.824 604.885C665.262 604.021 665.498 603.07 665.516 602.103C665.802 600.217 665.389 598.291 664.353 596.685C663.512 595.74 662.376 595.103 661.128 594.874C659.879 594.646 658.59 594.84 657.466 595.426C655.214 596.612 656.936 595.236 656.303 597.681Z" fill="#BA9E80"/>
<path d="M734.188 599.643C734.459 600.165 734.865 600.605 735.365 600.917L732.245 602.205L733.614 603.113C731.935 603.853 730.145 604.313 728.316 604.475C727.408 604.555 726.494 604.414 725.653 604.065C724.812 603.715 724.069 603.168 723.488 602.469C722.811 601.503 722.576 600.287 722.016 599.262C720.994 597.953 719.893 596.706 718.72 595.529C717.698 593.948 716.914 592.226 716.394 590.418C714.564 585.632 711.48 581.421 707.461 578.221C708.927 577.456 710.547 577.029 712.201 576.973C713.856 576.917 715.502 577.233 717.017 577.897C718.531 578.561 719.876 579.557 720.951 580.809C722.025 582.062 722.802 583.54 723.223 585.133C723.724 587.036 723.709 589.042 724.047 590.989C724.149 591.97 724.453 592.919 724.939 593.778C725.425 594.637 726.083 595.387 726.873 595.983C727.465 596.315 728.12 596.519 728.796 596.582C729.472 596.645 730.154 596.566 730.797 596.349C731.44 596.132 732.03 595.782 732.528 595.323C733.026 594.864 733.421 594.305 733.687 593.684C734.49 593.773 735.233 594.151 735.775 594.747C736.317 595.343 736.622 596.116 736.631 596.92L734.261 597.125L736.69 598.984C736.351 599.276 735.949 599.488 735.515 599.602C735.082 599.716 734.628 599.73 734.188 599.643Z" fill="#BA9E80"/>
<path d="M697.276 620.641C698.395 622.223 701 621.93 702.442 620.641C703.76 619.192 704.762 617.487 705.386 615.633C706.107 613.987 707.01 612.425 708.079 610.977C709.098 609.733 710.032 608.422 710.875 607.053C711.683 605.668 711.915 604.023 711.523 602.47C711.2 601.619 710.682 600.854 710.01 600.236C709.338 599.618 708.531 599.165 707.652 598.912C705.879 598.411 704.031 598.217 702.192 598.341C701.457 598.306 700.724 598.431 700.043 598.707C699.708 598.856 699.428 599.105 699.244 599.42C699.059 599.736 698.978 600.101 699.013 600.464L701.574 606.321C702.162 607.508 702.569 608.777 702.781 610.084C702.861 611.531 702.581 612.975 701.965 614.289C701.349 615.602 700.415 616.743 699.248 617.61C698.189 618.401 696.923 619.411 697.276 620.641Z" fill="#BA9E80"/>
<path d="M654.139 550.723C654.427 550.468 654.614 550.121 654.669 549.742C654.851 548.917 654.851 548.063 654.669 547.238C654.522 546.638 654.272 546.066 654.095 545.466C653.786 544.241 653.638 542.981 653.654 541.718C653.555 537.121 653.767 532.523 654.287 527.954C654.419 526.68 654.287 525.025 653.021 524.689C652.636 524.65 652.249 524.738 651.92 524.939C651.59 525.14 651.336 525.443 651.196 525.801C650.925 526.526 650.83 527.303 650.916 528.071C651.108 533.518 651.667 539.009 650.769 544.397C650.42 545.746 650.355 547.152 650.578 548.526C651.174 548.518 651.767 548.439 652.344 548.292C652.257 548.907 652.338 549.535 652.579 550.108C652.64 550.251 652.729 550.38 652.841 550.489C652.953 550.598 653.085 550.683 653.23 550.74C653.375 550.797 653.53 550.825 653.687 550.822C653.843 550.819 653.997 550.786 654.139 550.723Z" fill="#E0D0C1"/>
<path d="M641.968 489.43C642.851 487.439 645.265 487.234 647.311 488.932C649.356 490.631 650.136 493.252 651.299 495.448C653.676 499.821 655.109 504.638 655.508 509.593C655.782 515.464 655.491 521.348 654.64 527.164C653.201 527.84 651.599 528.099 650.019 527.91C649.264 522.698 648.097 517.552 646.531 512.521C644.161 505.537 641.35 498.655 641.615 491.129C641.618 490.545 641.738 489.967 641.968 489.43Z" fill="#5B6C7F"/>
<path d="M652.314 554.648C652.501 553.513 652.628 552.37 652.697 551.222C655.302 550.504 658.216 548.162 658.687 545.365C658.698 545.326 658.7 545.285 658.693 545.245C658.686 545.205 658.669 545.167 658.645 545.135C658.621 545.102 658.59 545.076 658.553 545.057C658.517 545.039 658.477 545.029 658.437 545.028C657.105 545.011 655.789 545.307 654.594 545.892C653.4 546.477 652.361 547.335 651.563 548.396C651.5 548.381 651.433 548.382 651.369 548.397C651.305 548.412 651.246 548.442 651.196 548.484C650.973 548.669 650.806 548.912 650.712 549.185C650.618 549.459 650.601 549.752 650.664 550.035C650.726 550.317 650.865 550.577 651.065 550.786C651.265 550.995 651.519 551.146 651.799 551.222C651.644 556.059 651.073 560.875 650.092 565.615C650.064 565.714 650.076 565.82 650.126 565.91C650.175 566 650.258 566.068 650.357 566.098C653.006 566.728 651.151 569.422 650.357 570.945C649.648 572.366 649.209 573.905 649.062 575.484C649.062 575.997 649.827 575.997 649.886 575.484C650.264 573.208 651.1 571.032 652.344 569.085C652.654 568.598 652.848 568.047 652.912 567.473C652.976 566.9 652.907 566.319 652.711 565.776C652.687 565.694 652.636 565.621 652.568 565.568C652.499 565.516 652.415 565.486 652.329 565.483C650.165 565.615 651.549 561.852 651.711 560.739C651.931 558.675 652.152 556.669 652.314 554.648ZM654.11 546.653C654.257 546.551 658.26 544.735 658.069 545.907C657.723 546.978 657.036 547.908 656.111 548.557C655.025 549.334 653.878 550.024 652.682 550.621C652.679 549.882 652.396 549.17 651.887 548.63C652.514 547.854 653.265 547.187 654.11 546.653Z" fill="#444444"/>
<path d="M647.266 577.299C647.061 575.426 647.221 573.532 647.737 571.72C649.077 571.507 650.447 571.816 651.563 572.584C651.332 578.629 650.404 584.628 648.797 590.462C648.53 591.652 648.067 592.79 647.428 593.83C647.329 594.012 647.193 594.172 647.028 594.298C646.864 594.424 646.674 594.514 646.471 594.562C646.018 594.575 645.577 594.418 645.235 594.123C643.645 593.039 643.189 592.878 644.072 591.106C644.792 589.647 645.397 588.134 645.883 586.582C646.811 583.575 647.278 580.445 647.266 577.299Z" fill="#E2ECED"/>
<path d="M646.795 592.468L647.457 590.448C647.617 590.038 647.726 589.61 647.781 589.174C647.942 588.549 648.232 587.966 648.635 587.461C648.031 587.333 647.436 587.166 646.854 586.963C646.751 587.3 646.633 587.651 646.516 588.002C646.389 588.428 646.232 588.844 646.045 589.247C645.449 590.1 644.955 591.019 644.573 591.985C644.323 593.171 645.279 593.069 646.045 593.552C646.405 593.28 646.668 592.9 646.795 592.468Z" fill="white"/>
<path d="M649.709 572.994L649.915 573.155C649.857 573.089 649.787 573.035 649.709 572.994Z" fill="#BA8087"/>
<path d="M649.695 572.994C649.591 572.953 649.478 572.943 649.369 572.963C649.259 572.984 649.158 573.035 649.077 573.111C649.019 573.165 648.973 573.229 648.942 573.301C648.911 573.373 648.895 573.45 648.895 573.528C648.895 573.607 648.911 573.684 648.942 573.756C648.973 573.828 649.019 573.892 649.077 573.946C649.14 573.99 649.211 574.02 649.286 574.036C649.361 574.051 649.439 574.051 649.514 574.035C649.589 574.019 649.66 573.988 649.723 573.943C649.786 573.899 649.838 573.842 649.878 573.777C649.917 573.711 649.943 573.638 649.953 573.562C649.963 573.487 649.957 573.41 649.936 573.336C649.914 573.263 649.878 573.194 649.829 573.136C649.78 573.077 649.719 573.028 649.651 572.994H649.695Z" fill="#BA8087"/>
<path d="M649.297 574.723L649.503 574.869C649.439 574.824 649.364 574.795 649.286 574.785C649.207 574.776 649.128 574.786 649.055 574.816C648.981 574.845 648.917 574.892 648.866 574.952C648.816 575.013 648.782 575.085 648.767 575.162C648.763 575.253 648.784 575.343 648.827 575.424C648.87 575.504 648.934 575.571 649.012 575.619C649.09 575.667 649.179 575.693 649.27 575.695C649.362 575.697 649.452 575.675 649.532 575.63C649.616 575.57 649.68 575.487 649.717 575.39C649.753 575.294 649.761 575.189 649.738 575.089C649.706 574.993 649.648 574.908 649.57 574.843C649.492 574.778 649.397 574.737 649.297 574.723Z" fill="#80BAB7"/>
<path d="M649.209 585.499C649.257 585.52 649.31 585.532 649.363 585.532C649.417 585.532 649.469 585.52 649.518 585.499C649.65 585.426 649.65 585.25 649.65 585.089C649.65 584.928 649.65 584.913 649.562 584.869H649.43C648.964 584.861 648.501 584.807 648.046 584.708L647.457 584.518C647.266 584.518 646.265 583.991 646.118 584.123C645.971 584.254 646.251 584.65 646.354 584.738C646.772 584.958 647.225 585.106 647.693 585.177C648.184 585.341 648.693 585.449 649.209 585.499Z" fill="#444444"/>
<path d="M610.782 512.507C611.528 512.73 612.299 512.858 613.078 512.887L623.718 513.781C623.915 513.84 624.125 513.84 624.322 513.781C624.488 513.684 624.618 513.534 624.69 513.356C624.984 512.77 625.249 512.17 625.499 511.584C625.534 511.506 625.552 511.421 625.552 511.335C625.552 511.25 625.534 511.165 625.499 511.086C625.396 510.942 625.253 510.83 625.087 510.764C623.169 509.719 621.14 508.889 619.038 508.29C616.867 507.653 614.557 507.653 612.386 508.29C610.532 508.963 607.735 511.467 610.782 512.507Z" fill="#5B6C7F"/>
<path d="M629.135 514.089C629.475 514.12 629.81 514.189 630.135 514.294C630.752 514.577 631.347 514.905 631.916 515.275C632.533 515.576 633.217 515.718 633.904 515.687C634.59 515.657 635.258 515.454 635.846 515.099C636.325 514.78 636.752 514.39 637.111 513.942C637.271 513.758 637.391 513.544 637.465 513.313C637.506 513.129 637.5 512.937 637.449 512.756C637.397 512.575 637.302 512.409 637.17 512.273C636.907 511.995 636.592 511.771 636.243 511.614C635.511 511.165 634.658 510.95 633.8 510.999C633.339 511.084 632.89 511.222 632.461 511.409C630.181 512.233 627.672 512.165 625.44 511.219C625.324 511.164 625.2 511.13 625.073 511.116C624.749 511.116 624.572 511.468 624.469 511.76C624.366 512.053 624.057 512.873 624.219 513.225C624.381 513.576 625.146 513.561 625.529 513.62L629.135 514.089Z" fill="#E0D0C1"/>
<path d="M627.619 514.087C627.619 514.087 627.619 514.087 627.619 514.19H627.707C627.892 514.253 628.085 514.288 628.281 514.292H628.796C628.844 514.306 628.895 514.306 628.943 514.292C628.943 514.292 628.943 514.146 628.943 514.073C628.906 513.742 628.906 513.408 628.943 513.077C628.95 513.028 628.95 512.979 628.943 512.931C628.928 512.894 628.906 512.861 628.879 512.834C628.851 512.806 628.818 512.784 628.781 512.77C628.708 512.761 628.634 512.761 628.56 512.77C628.31 512.77 627.545 512.638 627.427 512.77C627.309 512.901 627.589 513.809 627.619 514.087Z" fill="#444444"/>
<path d="M628.148 510.808C628.201 510.689 628.288 510.587 628.398 510.515C628.523 510.462 628.659 510.437 628.795 510.442C629.268 510.44 629.739 510.504 630.193 510.632C630.287 510.644 630.375 510.685 630.444 510.75C630.561 510.881 630.444 511.086 630.444 511.247C630.201 511.808 629.911 512.347 629.575 512.858C629.519 512.963 629.444 513.057 629.355 513.136C629.194 513.244 629.003 513.296 628.81 513.283C628.521 513.311 628.23 513.311 627.942 513.283C626.279 512.961 627.677 511.526 628.148 510.808Z" fill="#444444"/>
<path d="M628.192 510.852C628.25 510.748 628.331 510.658 628.428 510.588C628.548 510.559 628.675 510.559 628.795 510.588C629.228 510.588 629.659 510.647 630.076 510.764C630.163 510.773 630.245 510.809 630.311 510.867C630.414 510.984 630.311 511.174 630.311 511.335C630.087 511.844 629.821 512.333 629.517 512.799C629.461 512.897 629.392 512.985 629.311 513.063C629.161 513.154 628.985 513.195 628.81 513.18C628.546 513.209 628.28 513.209 628.015 513.18C626.485 512.829 627.765 511.511 628.192 510.852Z" fill="#E2ECED"/>
</g>
<defs>
<linearGradient id="paint0_linear" x1="576" y1="-113" x2="576" y2="677" gradientUnits="userSpaceOnUse">
<stop offset="0.167382" stop-color="#F2722B"/>
<stop offset="0.394937" stop-color="#FBAD2F"/>
<stop offset="0.695279" stop-color="#FCE12E"/>
</linearGradient>
<linearGradient id="paint1_linear" x1="608" y1="619.367" x2="739" y2="619.367" gradientUnits="userSpaceOnUse">
<stop/>
<stop offset="1"/>
</linearGradient>
<clipPath id="clip0">
<rect width="1152" height="700" fill="white"/>
</clipPath>
</defs>
</svg>
