<svg width="1152" height="700" viewBox="0 0 1152 700" fill="none" xmlns="http://www.w3.org/2000/svg">
<g clip-path="url(#clip0)">
<rect width="1152" height="700" fill="white"/>
<rect width="1152" height="699" fill="#E6EEBB"/>
<rect width="1152" height="699" fill="url(#paint0_linear)"/>
<path d="M123.96 329.784C113.253 346.867 33.5256 410.454 -5 440.113V554H2.2996H1197V405.708C1192.13 405.708 1176.32 403.573 1151.99 395.031C1121.57 384.354 1106.97 363 1087.51 351.137C1068.04 339.274 931.781 440.113 898.933 419.944C866.085 399.776 824.721 398.59 804.039 405.708C783.356 412.826 717.66 387.913 704.277 383.168C690.895 378.423 664.13 351.137 643.447 351.137C622.765 351.137 621.549 323.852 603.3 317.92C585.051 311.987 533.953 345.205 479.206 373.677C424.46 402.149 404.994 381.982 372.146 373.677C339.298 365.373 304.016 342.833 294.283 351.137C284.551 359.441 266.302 370.118 259.002 363C251.702 355.882 228.587 346.392 205.472 323.852C182.356 301.312 137.342 308.43 123.96 329.784Z" fill="#1C7A3C"/>
<path d="M28 493C21.6 507.4 6.66667 517 0 520C0 615 12 561 49 578C86 595 122 587 211 567C300 547 669.5 571 896 602C1122.5 633 1148 501 1145 493C1142 485 1136 451 1136 439C1136 429.4 1127.33 410.333 1123 402C1124.33 409.667 1126.2 427.8 1123 439C1119 453 1128 462 1136 493C1144 523.999 1105 520 1096 520H1079C1073 520 1075 467 1079 462C1082.2 458.001 1084.33 455.667 1085 455C1088 446.667 1092.8 427.2 1088 416C1083.2 404.8 1086 386 1088 378C1086.33 382.667 1082.2 395.6 1079 410C1075 428 1064 430 1054 439C1044 448 1039 462 1030 482.999C1021 503.999 1013 462 1007 451C1001 440 1022 439 1039 416C1052.6 397.6 1054.67 383 1054 378C1042.67 386.333 1014.6 405.6 993 416C966 429 964 430 957 451C950 472 907 462 896 462C885 462 866 451 863 462C860.6 470.801 867.333 483 871 487.999C868 487.999 858.6 486.999 845 482.999C828 477.999 818 437 806 439C794 441 732 430 726 416C720 402 669.5 392 679 384C688.5 376.001 674.5 365 669.5 360.5C664.5 356 647 351 639.5 351C632 351 624 340 615 329C615 337.8 604.333 356.667 599 365C602.333 363.333 610.2 361 615 365C621 370 620 409 656 410C692 411 672 446 679 462C681 473 627.003 473 599.002 473H599C576.6 473 596.333 455 609 446C599.667 449.667 577.8 458 565 462C552.2 466.001 563.667 442.334 571 430C565 430 551.6 433.2 546 446C540.4 458.8 517 454.667 506 451C503 458.333 497 475 497 482.999C497 492.999 478 501 475 482.999C472.6 468.599 464.667 494.999 461 510C445 510 407.2 508.2 384 501C357 482 384 493 384 482.999C384 472.999 359 482.999 351 482.999C343 482.999 339 473 339 462C339 451 311 430 300 416C289 402 288 408 288 392C288 379.2 270.667 368.667 262 365C249.333 357.333 222.4 340.4 216 334C189.6 306 166.333 308.334 158 313C164.667 313.334 180.4 315.8 190 323C202 332 200 351 202 360C204 369 224 378 240 384C256 390 267 404 259 430C251 456 244 447 240 462C236.8 474 219.333 474.334 211 473C206.667 474.334 196.4 478.2 190 482.999C182 488.999 173 487.999 158 482.999C143 477.999 116 477.999 107 487.999C99.8 495.999 96 487.999 95 482.999C89.6667 482.999 78 484.999 74 493C69 503 28 512 34 510C40 508 36 475 28 493Z" fill="#085E31"/>
<path d="M397 506C248.2 478 69.6667 511 -1 531V701H1152V467C842 562 583 541 397 506Z" fill="#BD943A"/>
<path d="M-1 702V531C79 496 284.603 493.303 321 496C361.5 499 471 518 498 522C519.6 525.2 569 529.333 591 531C477.4 531 406.333 645 385 702H-1Z" fill="#859D3D"/>
<path d="M120.719 566.752C136.427 563.401 45.4513 572.059 -2 576.807V679.866C6.59031 682.38 26.2253 685.899 36.0428 679.866C48.3147 672.325 99.8566 679.866 87.5847 687.407C75.3128 694.948 120.719 684.056 144.035 679.866C167.352 675.677 161.216 687.407 234.847 679.866C308.478 672.325 323.205 668.974 341.613 636.296C360.02 603.619 266.754 616.187 240.983 601.105C215.212 586.023 225.03 595.24 207.849 601.105C190.668 606.97 178.397 595.24 184.533 576.807C190.668 558.374 92.4934 589.375 55.6778 584.348C18.8622 579.32 101.084 570.942 120.719 566.752Z" fill="#5F833D"/>
<path d="M124.389 615H-6V659.333C10.8244 659.333 46.7163 660.5 55.6893 665.167C66.9056 671 158.038 659.333 181.872 659.333C195.332 659.333 176.264 667.111 165.048 671C186.545 670.222 239.075 666.8 277.21 659.333C324.879 650 338.899 627.833 292.632 620.833C246.365 613.833 97.7502 623.167 107.564 620.833C115.416 618.967 122.052 616.167 124.389 615Z" fill="#537832"/>
<path d="M415 681C408.6 684.2 392.333 695 385 700H375C376.667 693.667 381 677.8 385 665C390 649 403 630 421 613C435.4 599.4 443.667 584.667 446 579L487 557L507 546C514 543.334 529 536.8 533 532C537 527.201 542 528.5 544 528.5L605 533.5C601.333 533.834 591.2 532.8 580 532C568.8 531.2 569.333 541 571 546H544C538 548.667 524.8 553.6 520 552C514 550 505 571 483 579C465.4 585.4 469 592.334 473 595C468 596.667 457.2 600.6 454 603C450.8 605.4 447.333 616.667 446 622C442.333 623.334 432.2 630 421 646C407 666 423 677 415 681Z" fill="#96C753"/>
<path d="M422 681C415.6 684.2 399.333 695 392 700H382C383.667 693.666 388 677.8 392 665C397 649 410 630 428 613C442.4 599.4 450.667 584.666 453 579L494 557L514 546C521 543.333 536 536.8 540 532C544 527.2 547.5 527.5 549.5 527.5L611.5 534C607.833 534.333 598.2 532.8 587 532C575.8 531.2 576.333 541 578 546H551C545 548.667 531.8 553.6 527 552C521 550 512 571 490 579C472.4 585.4 476 592.333 480 595C475 596.666 464.2 600.6 461 603C457.8 605.4 454.333 616.666 453 622C449.333 623.333 439.2 630 428 646C414 666 430 677 422 681Z" fill="#537832"/>
<path d="M406 681C399.6 684.2 383.333 695 376 700H366C367.667 693.667 372 677.8 376 665C381 649 394 630 412 613C426.4 599.4 434.667 584.667 437 579L478 557L498 546C505 543.333 520 536.8 524 532C528 527.2 533 526 535 526L596 532C592.333 532.334 582.2 532.8 571 532C559.8 531.2 560.333 541 562 546H535C529 548.667 515.8 553.6 511 552C505 550 496 571 474 579C456.4 585.4 460 592.333 464 595C459 596.667 448.2 600.6 445 603C441.8 605.4 438.333 616.667 437 622C433.333 623.333 423.2 630 412 646C398 666 414 677 406 681Z" fill="#859D3D"/>
<path d="M165.469 502.972C177.187 496.647 215.601 495.246 231 495.999L293 495.999L350 499L317.5 517.5C317.5 506.205 299.325 519.914 289.41 519.914C277.016 519.914 283.38 527.816 280 542.5C276.62 557.184 260.027 543.87 242 545C223.972 546.13 248 560.577 216.172 560.577C194.498 560.577 191.384 558.318 171.103 551.541C150.821 544.764 155.106 529.389 167.5 526C179.894 522.611 178.99 521.044 171.103 514.267C163.216 507.49 150.822 510.879 165.469 502.972Z" fill="#5F833D"/>
<path d="M177 502C187.4 496.4 217.333 496.334 231 497L339 498.5L319 512C319 502 295.8 517 287 517C276 517 280 521 277 534C274 547 253 538 237 539C221 540 241 556 222 553C203 550 200 551 182 545C164 539 166 532 177 529C188 526 189 518 182 512C175 506 164 509 177 502Z" fill="#99B449"/>
<path d="M383 684C379.8 691.6 365.333 697.167 358.5 699H383V696L409.5 679C409.5 677 407.5 672.9 407.5 670.5C406 642 428 628 437.5 623C436.3 619 442.333 608.667 445.5 604L465 595C464.167 591.333 461.8 583 471 581C480.2 579 502 561.833 511 553C519.4 552.2 531.833 547.334 536.5 545.5H561.5C563.5 528.986 578 534 589.5 531.5C573.667 530 543.6 527.2 550 528C558 529 539 533.5 528.5 537C518 540.5 505 541.5 499 545.5C493 549.5 492.5 551.5 483.5 556C474.5 560.5 468.5 568.5 465 573C461.5 577.5 454.5 584 443.5 586.5C432.5 589 431.5 592.5 431.5 602C431.5 611.5 414 625.5 401.5 641.5C389 657.5 386 654 386 658.5C386 663 387 674.5 383 684Z" fill="#63A448"/>
<path d="M350 662C350.401 659.909 352.289 656.354 356.625 658.863C360.961 661.373 354.015 662 350 662Z" fill="#F1FFC3"/>
<path d="M71 625C71.4015 622.909 73.2885 619.354 77.6246 621.863C81.9607 624.373 75.0149 625 71 625Z" fill="#F1FFC3"/>
<path d="M141 543C141.401 540.909 143.289 537.354 147.625 539.863C151.961 542.373 145.015 543 141 543Z" fill="#F1FFC3"/>
<path d="M348.538 647.44C346.704 646.359 343.991 643.386 347.812 640.146C351.634 636.907 349.889 643.659 348.538 647.44Z" fill="#F1FFC3"/>
<path d="M62.767 620.88C60.9326 619.798 58.2193 616.825 62.0409 613.586C65.8626 610.346 64.1173 617.099 62.767 620.88Z" fill="#F1FFC3"/>
<path d="M356.577 639.883C358.992 638.249 363.898 635.954 364.2 639.849C364.501 643.743 359.244 641.494 356.577 639.883Z" fill="#F1FFC3"/>
<path d="M393 528.433C395.415 526.8 400.321 524.505 400.623 528.399C400.924 532.294 395.667 530.045 393 528.433Z" fill="#F1FFC3"/>
<path d="M366 518.433C368.415 516.8 373.321 514.505 373.623 518.399C373.924 522.294 368.667 520.045 366 518.433Z" fill="#F1FFC3"/>
<path d="M157 535.433C159.415 533.8 164.321 531.505 164.623 535.399C164.924 539.294 159.667 537.045 157 535.433Z" fill="#F1FFC3"/>
<path d="M1050 701C1074.8 698.6 1129.33 694 1152 701V536L1145 554C1145 560.667 1128 572.4 1128 586C1128 599.6 1040.83 619 1030.5 622C1035.17 621 1108.4 615.6 1122 622C1139 630 1116 628 1122 654C1126.8 674.8 1090.67 674 1072 671L1002 689C990 701 1025.2 703.4 1050 701Z" fill="#B2782B"/>
<path d="M1152 685H1091.93C1090.86 685.1 1089.88 685.102 1089 685H1091.93C1101.36 684.117 1117.53 675.576 1131 663C1144.18 650.699 1133 637 1136 631C1138.4 626.2 1123.67 615 1116 610L1136 589C1137.33 589.667 1140.4 589.6 1142 584C1143.6 578.4 1149.33 572.333 1152 570V685Z" fill="#B65B24" fill-opacity="0.7"/>
<path d="M448.626 693.78C457.045 704.312 563.05 705.541 615 704.839L558.373 700.099C541.168 697.993 504.753 693.78 496.735 693.78C486.712 693.78 468.17 685.354 456.645 685.88C445.119 686.407 448.626 672.188 448.626 663.762C448.626 655.337 469.674 645.33 473.683 642.17C477.692 639.011 473.683 626.898 478.694 616.893C482.703 608.888 506.423 608.291 517.782 608.993L510.766 603.201C509.43 603.201 506.056 601.515 503.249 594.774C499.741 586.348 526.301 583.715 536.825 569.497C547.348 555.278 559.877 562.124 578.418 562.124C596.96 562.124 590.946 547.378 590.946 540.006C590.946 534.108 614.534 536 612.5 533C607.656 533.527 584.332 532.317 581.926 535.266C578.919 538.953 589.443 547.379 578.418 553.172C567.393 558.964 553.362 551.592 547.348 553.172C541.335 554.751 528.306 555.805 526.301 562.124C524.297 568.444 504.252 582.662 493.728 586.349C485.309 589.298 492.225 598.812 496.735 603.201C491.556 603.903 479.696 606.044 473.683 608.993C466.166 612.68 467.168 618.473 464.663 631.638C462.157 644.804 440.107 652.177 433.091 663.762C426.075 675.348 438.102 680.614 448.626 693.78Z" fill="#C77835"/>
<path d="M672.976 564.34C659.386 560.458 645.996 568.17 641 572.511C647.931 574.073 660.1 570.664 670.997 573.12C681.895 575.575 699.615 572.052 704.904 566.41C699.924 567.338 686.566 568.223 672.976 564.34Z" fill="#B56426"/>
<path d="M936.976 660.34C923.386 656.458 909.996 664.17 905 668.511C911.931 670.073 924.1 666.664 934.997 669.12C945.895 671.575 963.615 668.052 968.904 662.41C963.924 663.338 950.566 664.223 936.976 660.34Z" fill="#B56426"/>
<path d="M699.994 632.578C687.194 643.778 701.994 655.912 710.994 660.578L747.994 668.578L756.994 676.578H772.994C785.994 671.245 813.994 659.178 821.994 653.578C831.994 646.578 885.994 632.578 884.994 619.578C883.994 606.578 838.994 624.579 821.994 632.578C804.994 640.578 776.994 625.578 764.994 619.578C752.994 613.578 715.994 618.578 699.994 632.578Z" fill="#B4762D"/>
<path d="M927.661 606.387C919.585 606.344 912.845 607.942 910.485 608.747C910.326 611.582 910.983 618.067 914.889 621.318C919.771 625.383 923.01 612.997 926.049 611.138C929.088 609.279 932.242 612.758 942.778 611.517C953.313 610.275 937.757 606.441 927.661 606.387Z" fill="#EAAF63"/>
<path d="M563.122 651.215C547.367 650.899 538.819 643.239 528.317 636.736C513.177 628.407 528.183 599.553 540.078 611.197C551.973 622.841 566.691 606.164 574.198 611.624C581.705 617.084 591.841 610.012 607.922 618.2C619.738 618.437 597.572 653.389 591.172 650.9C584.773 648.412 582.816 651.61 563.122 651.215Z" fill="#B4762D"/>
<path d="M761.811 637.954C758 623.471 729.738 642.46 720.991 644.713C728.766 647.931 730.817 672.561 768.5 660C845 634.5 765.521 652.052 761.811 637.954Z" fill="#D8B358"/>
<path d="M727.794 591.609C713.021 598.561 744.317 599.655 761.811 599.333C776.39 599.333 810.212 597.788 828.872 591.609C852.198 583.885 803.603 579.057 761.811 576.161C720.019 573.264 746.261 582.919 727.794 591.609Z" fill="#D8B358"/>
<path d="M994.096 576.161C980.878 582.34 967.207 584.528 962.023 584.85C966.235 587.103 977.185 591.609 987.293 591.609C999.928 591.609 1007.7 584.85 1028.11 576.161C1048.52 567.471 1010.62 568.436 994.096 576.161Z" fill="#D8B358"/>
<path d="M586.868 637.954C571.318 637.954 539.569 642.46 525.638 644.713C499.397 637.954 525.638 628.299 561.599 623.471C597.559 618.644 606.306 637.954 586.868 637.954Z" fill="#D8B358"/>
<path d="M1003 518C991 516.4 998 509.333 1003 506L1109 480C1107.33 484.333 1106.8 498.8 1090 502C1069 506 1069 511 1064 524C1059 537 1047 530 1037 518C1027 506 1018 520 1003 518Z" fill="#BE8034"/>
<path d="M1055 493.5C1041.53 497.769 1010 500.5 1027 505.5C1034.1 505.674 1038.76 521.998 1049.93 522.271C1061.1 522.544 1076.12 496.624 1080.2 490.055C1075.5 488 1069.85 488.794 1055 493.5Z" fill="#B65B24" fill-opacity="0.8"/>
<path d="M423 677.5L391.5 700.5H466.5C461.667 699 452.6 693.3 449 690.5C444.5 687 431.5 679 431.5 670C431.5 661 453.5 645.5 460.5 640.5C467.5 635.5 465 618.5 469.5 612.5C473.1 607.7 490 604.5 498 603.5C497.667 603 498.3 600.657 495.5 598.657C486.5 588.657 491.5 586.657 504.5 581.657C517.5 576.657 526.5 566.5 531.5 560.5C536.5 554.5 546.5 554.5 551.5 554C555.5 553.6 566.167 555.167 571 556C576.833 554.833 587.4 550.4 583 542C578.6 533.6 588.833 532.167 594.5 532.5C593 532 588.4 531.3 582 532.5C575.6 533.7 576.667 541.667 578 545.5H551.5C549.333 547.5 540.288 550.868 534.5 550C524.5 548.5 523.5 551.5 515.5 561.5C507.5 571.5 488 578 480 582.5C473.6 586.1 477.333 593.834 480 596C475.5 594.5 464.1 599.8 460.5 601C456.9 602.2 453.333 616.334 452 622C448.833 624.5 441.6 630.4 438 634C420 648.4 419.667 669 423 677.5Z" fill="#A35D21" fill-opacity="0.7"/>
<path d="M117 414C71.4 426 23.3333 430.167 6 431.5C42.3333 402.833 118.5 337 126 326C134.864 313 150.667 311.333 158 311C159 316 163 331 175 347C190 367 177 366 180 388C183 410 208 421 196 433C184 445 174 399 117 414Z" fill="#2B9D58"/>
<path d="M282 392C284.4 384 272.333 372 266 367C265.5 366.667 264 365.8 262 365C264 365 268.5 365 272.5 364C279.3 362.8 290.667 354.5 295.5 350.5C309 346 335 361.5 342 364C349 366.5 372.5 374 379.5 376C386.5 378 405.5 386 426 389C446.5 392 468 378.5 473.5 377C479 375.5 544.5 339.5 563 329.5C577.8 321.5 587.167 319.167 590 319C592.333 320.333 596.8 326 596 338C595 353 574 367 581 360C586.6 354.4 583.333 343 581 338L568 347C553.667 359 521.8 383.6 509 386C493 389 457 392 433 408C409 424 380 418 365 413C353 409 340 418 335 423C336.333 425.667 340.8 433.8 348 445C357 459 322 448 312 436C302 424 279 402 282 392Z" fill="#2E9B58"/>
<path d="M693.5 378.5C694.486 378.955 695.81 379.638 697.372 380.535C705.068 383.913 721.575 389.569 730.5 392.5C749 398.667 789.3 410.1 802.5 406.5C819 402 824.5 401 848 403C871.5 405 887 414 893.5 417C900 420 899.5 426 924.5 420.5C949.5 415 1009.5 383.5 1031 371.5C1048.2 361.9 1069.17 354.167 1077.5 351.5V361.5C1077.5 367.5 1078.5 371.5 1077.5 383.5C1076.5 395.5 1075.5 392 1068.5 401C1062.9 408.2 1059.17 417 1058 420.5C1058.33 418.833 1058.8 413.7 1058 406.5C1057 397.5 1059.5 396.5 1063 383.5C1066.5 370.5 1056 368 1047.5 371.5C1039 375 1016.5 391.5 1009.5 396.5C1002.5 401.5 976 413.5 962 420.5C948 427.5 944 440.5 924.5 447C905 453.5 871.5 439 860.5 435.5C849.5 432 841 426 837.5 435.5C834 445 847.5 451.5 841 451.5C834.5 451.5 828 437 823 430.5C818 424 793 424.5 780 426C767 427.5 728.5 408.5 717.5 396.5C710.702 389.085 702.672 383.578 697.372 380.535C695.439 379.686 694.062 378.982 693.5 378.5Z" fill="#2E9B58"/>
<path d="M74 389.5C64 401.1 40.8333 414 30.5 419C38 418 58.7 413.6 81.5 404C110 392 95 386 103 376C111 366 127 375 135 372C143 369 143 357 138.5 349.5C134 342 147 329 147 319.5C147 311.9 141.333 321 138.5 326.5C134.667 331.334 125.4 342.7 119 349.5C111 358 86.5 375 74 389.5Z" fill="#34B771"/>
<path d="M313 431C315.4 437.4 324.333 437 328.5 436C332.499 435.451 328.5 420.5 324.5 407.5C320.5 394.5 344 395.5 362 395.5C380 395.5 379 401 402 401.5C425 402 422.5 395.5 409.5 395.5C396.5 395.5 383.5 389.5 369 382.5C354.5 375.5 351 380 328.5 380C305.999 380 309.5 365 295 363.5C280.5 362 279.5 368.5 283.5 376.5C287.5 384.5 292.5 385.5 292.5 395.5C292.5 405.5 298.5 401 306 414.5C313.5 428 310 423 313 431Z" fill="#34B771"/>
<path d="M540.5 350C531.3 359.6 493.333 376 475.5 383C459 396.001 493.5 383 505.5 379C517.5 375 516.5 376 521 370C525.5 364 546.5 356 556 350C565.5 344 552 338 540.5 350Z" fill="#34B771"/>
<path d="M779 417.5C767.4 418.3 746.167 407.833 737 402.5C717.651 393 768.5 406.5 783 412C797.5 417.5 816.5 412 825.5 412C834.5 412 845.5 413.5 873.5 421C901.5 428.5 895.5 430 904.5 431C913.5 432 929 429.5 949 417.5C965 407.9 993 397.5 1005 393.5C1001 396.5 991.8 402.5 987 402.5C981 402.5 953.5 423.5 944.5 426C935.5 428.5 923 438.5 912 442.5C901 446.5 848 423.5 835.5 423.5C823 423.5 833 431.5 825.5 423.5C818 415.5 793.5 416.5 779 417.5Z" fill="#34B771"/>
<path d="M690.081 202.885C684.081 206.02 673.438 207.466 660.992 208.639C654.955 208.351 642.162 205.615 639.289 196.975C635.613 185.92 635.826 180.478 654.488 171.586C671.32 163.566 685.608 175.856 688.611 171.289C691.615 166.721 683.313 164.077 690.812 161.656C698.31 159.236 698.47 160.935 699.692 155.678C700.913 150.422 703.037 136.513 715.24 129.365C725.003 123.647 734.925 122.654 738.666 122.873C738.974 113.99 743.651 93.7846 759.901 84.0276C780.214 71.8313 791.116 69.0903 819.096 83.5904C828.473 79.8505 850.7 74.6139 864.595 83.5867C881.963 94.8026 885.476 104.755 887.128 113.167C888.449 119.897 890.374 120.286 891.172 119.64C898.927 116.91 911.237 122.273 922.153 128.785C933.068 135.296 948.466 138.518 951.836 143.913C952.17 143.539 952.407 143.235 952.57 142.994C952.402 142.122 953.37 141.808 952.57 142.994C952.738 143.87 954.053 145.312 959.466 146.362C974.332 149.244 996.914 157.658 990.427 161.697C990.683 164.415 988.177 168.193 986.892 169.742C991.05 171.349 998.074 177.257 992.908 188.026C987.742 198.794 979.376 199.297 975.839 198.202C978.588 203.084 968.703 201.882 952.749 207.498C936.796 213.114 930.145 204.487 928.814 199.472C928.266 205.807 924.106 208.867 899.96 207.715C875.814 206.563 881.531 220.799 883.197 217.214C882.516 222.134 867.342 205.264 857.131 206.227C848.785 207.013 852.85 218.856 854.52 220.513C854.766 220.365 854.966 220.151 855.116 219.861C855.147 220.744 854.894 220.883 854.52 220.513C851.208 222.499 839.493 212.327 826.065 212.316C811.642 212.304 808.582 227.102 806.613 224.431C803.016 228.769 790.424 217.046 780.766 216.585C771.108 216.124 768.872 230.844 767.471 228.12C763.536 231.918 759.651 212.749 752.587 210.672C745.524 208.596 734.532 227.797 732.793 224.533C731.518 229.223 731.78 213.479 723.78 208.749C717.14 204.823 712.868 215.357 712.25 217.198C712.281 217.144 712.311 217.09 712.342 217.035C712.15 217.587 712.124 217.575 712.25 217.198C706.921 226.669 703.816 225.446 690.081 202.885Z" fill="white"/>
<path d="M690.864 216.489C684.864 219.625 671.523 222.596 666.158 209.392C660.121 209.104 647.33 206.368 644.455 197.728C640.862 186.928 645.538 172.778 666.2 173.401C686.863 174.024 690.826 179.649 693.83 175.082C696.833 170.514 695.262 162.951 702.76 160.531C710.258 158.11 710.418 159.809 711.64 154.553C712.862 149.297 714.985 135.387 727.189 128.239C736.952 122.521 746.874 121.529 750.614 121.748C750.922 112.864 755.6 92.659 771.85 82.902C792.163 70.7057 803.065 67.9647 831.044 82.4648C840.421 78.7249 862.649 73.4883 876.543 82.4611C893.912 93.677 897.425 103.629 899.076 112.041C900.397 118.771 902.322 119.161 903.12 118.514C910.875 115.784 929.115 111.952 940.03 118.464C950.945 124.975 960.414 137.392 963.784 142.787C967.408 138.733 977.63 131.201 989.523 133.508C1004.39 136.39 1008.86 156.532 1002.38 160.571C1002.63 163.29 1000.13 167.067 998.841 168.616C1003 170.224 1010.02 176.132 1004.86 186.9C999.69 197.669 991.324 198.171 987.787 197.077C990.536 201.959 992.047 213.127 976.093 218.743C960.139 224.359 953.489 215.732 952.157 210.716C951.61 217.051 944.478 229.434 920.332 228.282C900.06 227.315 894.9 221.904 894.752 218.071C893.427 223.31 889.316 231.204 880.338 232.05C870.127 233.013 867.235 223.574 867.065 218.735C864.885 222.939 856.921 231.344 842.497 231.332C828.074 231.32 820.53 225.976 818.562 223.306C814.964 227.643 805.355 236.203 795.696 235.743C786.038 235.282 780.82 229.718 779.419 226.994C775.485 230.792 765.85 237.87 758.786 235.793C751.723 233.717 746.48 226.671 744.742 223.407C743.467 228.097 738.917 236.295 730.916 231.565C722.916 226.835 723.165 219.157 724.29 215.909C718.904 225.557 704.678 239.179 690.864 216.489Z" fill="#F8F7CB"/>
<path d="M-70.5607 107.243C-77.4632 110.85 -89.7062 112.513 -104.025 113.863C-110.969 113.532 -125.687 110.385 -128.992 100.444C-133.221 87.7266 -132.975 81.4658 -111.507 71.2366C-92.143 62.0101 -75.7066 76.1492 -72.2514 70.8948C-68.7961 65.6404 -78.3458 62.598 -69.7198 59.8137C-61.0937 57.0294 -60.9095 58.9834 -59.5041 52.9367C-58.0987 46.89 -55.6562 30.8885 -41.6171 22.6655C-30.3857 16.0871 -18.9712 14.9458 -14.6679 15.1974C-14.3141 4.97822 -8.93312 -18.2662 9.76121 -29.4907C33.1291 -43.5213 45.6708 -46.6746 77.8585 -29.9936C88.6459 -34.296 114.217 -40.3202 130.201 -29.9979C150.181 -17.0951 154.223 -5.64594 156.123 4.03142C157.643 11.7733 159.858 12.2215 160.775 11.4779C169.697 8.33721 183.858 14.5072 196.416 21.9982C208.973 29.4891 226.687 33.1953 230.564 39.4013C230.948 38.9713 231.22 38.622 231.407 38.3442C231.215 37.3412 232.328 36.9806 231.407 38.3442C231.601 39.3528 233.114 41.011 239.341 42.2186C256.443 45.5348 282.422 55.214 274.959 59.8606C275.253 62.9874 272.371 67.3331 270.893 69.1151C275.676 70.9647 283.756 77.7609 277.813 90.1491C271.87 102.537 262.246 103.116 258.176 101.856C261.339 107.472 249.967 106.089 231.614 112.55C213.261 119.011 205.61 109.087 204.079 103.317C203.449 110.605 198.663 114.125 170.885 112.8C143.107 111.475 149.685 127.851 151.601 123.728C150.817 129.387 133.361 109.981 121.615 111.088C112.013 111.992 116.69 125.617 118.611 127.522C118.894 127.353 119.124 127.106 119.297 126.772C119.332 127.789 119.041 127.948 118.611 127.522C114.801 129.808 101.323 118.106 85.8764 118.093C69.2834 118.079 65.7635 135.103 63.4987 132.03C59.3601 137.02 44.875 123.534 33.7639 123.004C22.6528 122.474 20.0811 139.407 18.469 136.274C13.9427 140.643 9.47282 118.591 1.34691 116.202C-6.77901 113.813 -19.4242 135.902 -21.424 132.147C-22.8907 137.543 -22.5897 119.43 -31.7934 113.989C-39.4315 109.473 -44.3457 121.592 -45.0568 123.709C-45.0219 123.647 -44.9868 123.585 -44.9517 123.522C-45.1718 124.157 -45.2026 124.143 -45.0568 123.709C-51.1881 134.605 -54.7591 133.198 -70.5607 107.243Z" fill="#EEFDFF"/>
<path d="M-69.6592 122.894C-76.5617 126.501 -91.9096 129.919 -98.0815 114.729C-105.026 114.398 -119.742 111.251 -123.048 101.311C-127.182 88.886 -121.803 72.6077 -98.0328 73.3249C-74.2628 74.042 -69.7033 80.5129 -66.248 75.2584C-62.7928 70.004 -64.6003 61.3032 -55.9742 58.5189C-47.3482 55.7346 -47.164 57.6887 -45.7586 51.642C-44.3532 45.5953 -41.9107 29.5937 -27.8716 21.3707C-16.6402 14.7923 -5.22574 13.651 -0.922417 13.9026C-0.56861 3.68344 4.81258 -19.561 23.5069 -30.7855C46.8748 -44.8161 59.4165 -47.9694 91.6042 -31.2884C102.392 -35.5908 127.962 -41.615 143.947 -31.2927C163.927 -18.3899 167.969 -6.94073 169.868 2.73663C171.388 10.4785 173.603 10.9268 174.521 10.1832C183.442 7.04244 204.425 2.63372 216.982 10.1247C229.539 17.6156 240.432 31.9005 244.309 38.1066C248.478 33.4427 260.237 24.7784 273.919 27.4313C291.021 30.7476 296.167 53.9192 288.704 58.5658C288.999 61.6927 286.116 66.0384 284.638 67.8204C289.421 69.6699 297.502 76.4661 291.558 88.8544C285.615 101.243 275.991 101.821 271.922 100.561C275.085 106.178 276.822 119.025 258.469 125.486C240.116 131.947 232.465 122.023 230.933 116.253C230.303 123.54 222.099 137.785 194.321 136.46C171.001 135.347 165.065 129.123 164.894 124.714C163.37 130.74 158.641 139.822 148.312 140.795C136.565 141.902 133.238 131.045 133.042 125.477C130.535 130.314 121.373 139.983 104.78 139.969C88.1869 139.956 79.5092 133.808 77.2444 130.735C73.1059 135.725 62.0509 145.573 50.9398 145.043C39.8287 144.513 33.8267 138.113 32.2145 134.979C27.6883 139.348 16.6042 147.49 8.47833 145.101C0.352419 142.713 -5.67867 134.607 -7.67847 130.853C-9.14525 136.248 -14.3797 145.678 -23.5834 140.237C-32.7871 134.796 -32.5001 125.963 -31.2062 122.227C-37.4023 133.325 -53.7674 148.997 -69.6592 122.894Z" fill="#F9FADB"/>
<path d="M267.35 273.354C264.514 274.836 259.484 275.519 253.602 276.074C250.749 275.937 244.702 274.645 243.344 270.561C241.607 265.336 241.708 262.764 250.528 258.561C258.483 254.77 265.236 260.579 266.656 258.421C268.075 256.262 264.152 255.012 267.696 253.868C271.24 252.724 271.315 253.527 271.893 251.043C272.47 248.558 273.474 241.984 279.242 238.606C283.856 235.903 288.545 235.434 290.313 235.538C290.459 231.339 292.669 221.789 300.35 217.178C309.95 211.414 315.103 210.118 328.327 216.971C332.759 215.204 343.265 212.729 349.832 216.97C358.04 222.271 359.701 226.974 360.481 230.95C361.106 234.131 362.016 234.315 362.393 234.01C366.058 232.719 371.876 235.254 377.035 238.332C382.194 241.409 389.472 242.932 391.065 245.482C391.223 245.305 391.334 245.162 391.411 245.047C391.332 244.635 391.79 244.487 391.411 245.047C391.491 245.462 392.113 246.143 394.671 246.639C401.697 248.002 412.37 251.978 409.304 253.887C409.425 255.172 408.241 256.957 407.634 257.689C409.599 258.449 412.919 261.241 410.477 266.331C408.035 271.421 404.081 271.658 402.409 271.141C403.709 273.448 399.037 272.88 391.496 275.534C383.956 278.189 380.813 274.111 380.184 271.741C379.925 274.735 377.959 276.181 366.546 275.637C355.134 275.092 357.836 281.821 358.623 280.127C358.302 282.452 351.13 274.479 346.304 274.933C342.359 275.305 344.281 280.903 345.07 281.685C345.186 281.616 345.28 281.515 345.352 281.377C345.366 281.795 345.246 281.86 345.07 281.685C343.504 282.624 337.967 277.817 331.621 277.812C324.804 277.806 323.358 284.8 322.427 283.538C320.727 285.588 314.776 280.047 310.211 279.829C305.646 279.611 304.59 286.568 303.927 285.281C302.068 287.076 300.231 278.016 296.893 277.035C293.554 276.053 288.359 285.128 287.538 283.586C286.935 285.802 287.059 278.361 283.277 276.125C280.139 274.27 278.121 279.249 277.828 280.119C277.843 280.093 277.857 280.068 277.872 280.042C277.781 280.303 277.768 280.297 277.828 280.119C275.309 284.595 273.842 284.017 267.35 273.354Z" fill="white"/>
<path d="M267.721 279.784C264.885 281.266 258.58 282.67 256.044 276.429C253.191 276.293 247.145 275 245.787 270.916C244.088 265.812 246.298 259.124 256.064 259.419C265.83 259.713 267.703 262.372 269.123 260.213C270.542 258.054 269.8 254.48 273.344 253.336C276.888 252.192 276.963 252.995 277.541 250.51C278.118 248.026 279.121 241.452 284.889 238.074C289.504 235.371 294.193 234.902 295.961 235.005C296.107 230.807 298.317 221.257 305.998 216.646C315.598 210.881 320.751 209.586 333.975 216.439C338.407 214.672 348.912 212.197 355.48 216.437C363.688 221.738 365.349 226.442 366.129 230.418C366.754 233.599 367.664 233.783 368.041 233.477C371.706 232.187 380.326 230.376 385.485 233.453C390.644 236.531 395.12 242.4 396.713 244.949C398.425 243.033 403.257 239.474 408.877 240.564C415.904 241.926 418.018 251.446 414.952 253.355C415.073 254.64 413.889 256.425 413.281 257.157C415.246 257.917 418.566 260.709 416.124 265.799C413.683 270.888 409.729 271.126 408.057 270.609C409.356 272.916 410.07 278.194 402.53 280.849C394.99 283.503 391.846 279.426 391.217 277.055C390.958 280.049 387.588 285.902 376.175 285.357C366.594 284.9 364.156 282.343 364.085 280.531C363.459 283.007 361.516 286.739 357.273 287.138C352.447 287.593 351.08 283.132 351 280.845C349.97 282.832 346.205 286.804 339.388 286.799C332.571 286.793 329.006 284.268 328.075 283.005C326.375 285.055 321.833 289.101 317.268 288.883C312.703 288.666 310.238 286.036 309.575 284.749C307.716 286.544 303.162 289.889 299.823 288.907C296.485 287.926 294.007 284.596 293.186 283.053C292.583 285.27 290.432 289.144 286.651 286.909C282.87 284.673 282.988 281.045 283.519 279.51C280.974 284.069 274.25 290.508 267.721 279.784Z" fill="#F8F7CB"/>
<path d="M935.234 246.768C930.477 249.255 922.039 250.401 912.171 251.331C907.385 251.102 897.243 248.934 894.965 242.083C892.05 233.318 892.22 229.004 907.015 221.954C920.36 215.595 931.687 225.34 934.068 221.719C936.45 218.097 929.868 216.001 935.813 214.082C941.758 212.163 941.885 213.51 942.853 209.342C943.822 205.175 945.505 194.147 955.181 188.48C962.921 183.947 970.787 183.16 973.753 183.334C973.997 176.291 977.705 160.272 990.589 152.536C1006.69 142.867 1015.34 140.694 1037.52 152.19C1044.95 149.224 1062.58 145.073 1073.59 152.187C1087.36 161.079 1090.15 168.969 1091.46 175.638C1092.5 180.974 1094.03 181.283 1094.66 180.77C1100.81 178.606 1110.57 182.858 1119.22 188.021C1127.88 193.183 1140.09 195.737 1142.76 200.014C1143.02 199.718 1143.21 199.477 1143.34 199.286C1143.21 198.595 1143.97 198.346 1143.34 199.286C1143.47 199.981 1144.52 201.124 1148.81 201.956C1160.59 204.241 1178.5 210.912 1173.35 214.114C1173.56 216.269 1171.57 219.264 1170.55 220.492C1173.85 221.767 1179.42 226.45 1175.32 234.988C1171.23 243.526 1164.59 243.924 1161.79 243.056C1163.97 246.927 1156.13 245.973 1143.48 250.426C1130.83 254.879 1125.56 248.039 1124.51 244.063C1124.07 249.085 1120.77 251.511 1101.63 250.598C1082.49 249.685 1087.02 260.971 1088.34 258.129C1087.8 262.03 1075.77 248.655 1067.67 249.418C1061.06 250.042 1064.28 259.431 1065.6 260.744C1065.8 260.627 1065.96 260.458 1066.08 260.227C1066.1 260.928 1065.9 261.038 1065.6 260.744C1062.98 262.319 1053.69 254.255 1043.04 254.246C1031.61 254.237 1029.18 265.968 1027.62 263.851C1024.77 267.29 1014.79 257.996 1007.13 257.63C999.473 257.265 997.701 268.935 996.59 266.775C993.471 269.787 990.39 254.589 984.79 252.943C979.19 251.297 970.475 266.519 969.097 263.932C968.086 267.65 968.294 255.168 961.951 251.418C956.687 248.306 953.3 256.657 952.81 258.116C952.834 258.074 952.858 258.031 952.883 257.987C952.731 258.425 952.71 258.416 952.81 258.116C948.585 265.625 946.124 264.656 935.234 246.768Z" fill="white"/>
<path d="M935.855 257.555C931.098 260.041 920.521 262.396 916.267 251.928C911.481 251.7 901.34 249.531 899.061 242.68C896.212 234.118 899.919 222.899 916.301 223.393C932.682 223.888 935.824 228.347 938.206 224.726C940.587 221.105 939.341 215.109 945.286 213.19C951.231 211.271 951.358 212.618 952.326 208.45C953.295 204.283 954.978 193.255 964.653 187.588C972.394 183.055 980.26 182.268 983.226 182.442C983.47 175.399 987.178 159.38 1000.06 151.644C1016.17 141.975 1024.81 139.801 1046.99 151.297C1054.43 148.332 1072.05 144.181 1083.06 151.294C1096.83 160.187 1099.62 168.077 1100.93 174.746C1101.98 180.082 1103.5 180.391 1104.14 179.878C1110.28 177.714 1124.74 174.675 1133.4 179.838C1142.05 185.001 1149.56 194.845 1152.23 199.122C1155.1 195.908 1163.21 189.937 1172.64 191.765C1184.42 194.051 1187.97 210.02 1182.83 213.222C1183.03 215.377 1181.04 218.372 1180.02 219.6C1183.32 220.875 1188.89 225.558 1184.79 234.096C1180.7 242.633 1174.07 243.032 1171.26 242.164C1173.44 246.035 1174.64 254.889 1161.99 259.341C1149.34 263.794 1144.07 256.954 1143.01 252.978C1142.58 258 1136.92 267.817 1117.78 266.904C1101.71 266.137 1097.62 261.848 1097.5 258.809C1096.45 262.962 1093.19 269.221 1086.07 269.892C1077.98 270.655 1075.68 263.172 1075.55 259.335C1073.82 262.668 1067.51 269.332 1056.07 269.323C1044.64 269.313 1038.66 265.076 1037.1 262.959C1034.24 266.398 1026.63 273.184 1018.97 272.819C1011.31 272.454 1007.17 268.043 1006.06 265.883C1002.94 268.895 995.305 274.506 989.705 272.86C984.104 271.213 979.948 265.627 978.57 263.04C977.559 266.758 973.952 273.257 967.609 269.507C961.266 265.757 961.464 259.67 962.355 257.095C958.085 264.744 946.807 275.544 935.855 257.555Z" fill="#F8F7CB"/>
<path d="M280.168 404.164C260.743 420.212 251.327 402.432 249.047 391.536C247.74 404.09 240.202 425.408 220.502 410.257C200.802 395.106 212.168 374.394 220.313 365.931C211.827 373.524 192.341 383.826 182.286 364.29C169.717 339.87 218.214 343.425 211.103 342.451C205.415 341.672 199.434 338.75 197.154 337.386C181.671 328.408 188.354 309.231 202.354 302.987C213.554 297.992 222.493 312.397 225.563 320.224C227.16 310.316 234.173 292.614 249.453 301.07C264.732 309.527 258.559 328.102 253.563 336.333C261.754 327.351 280.956 315.054 292.238 337.72C303.521 360.387 280.877 371.024 268.145 373.51C280.246 377.041 299.593 388.117 280.168 404.164Z" fill="#A3CF2A"/>
<path d="M269.633 568.467L290.056 574.965L303.981 563.825L299.34 457.994L323.476 425.502V413.434L299.34 442.212L303.981 381.87L277.059 403.222V442.212H258.492L250.137 425.502L244.567 432.929L258.492 451.496L277.059 457.994L269.633 568.467Z" fill="#B07D56"/>
<path d="M178.579 432.567C170.732 408.624 190.722 406.35 201.698 408.206C190.489 402.406 173.395 387.603 194.693 374.796C215.991 361.989 216.717 366.552 229.25 373.05C229.25 358.264 229.579 358.231 251.145 356.034L251.441 356.003C278.764 353.219 257.746 397.07 261.249 390.805C264.051 385.794 268.955 381.293 271.057 379.669C285.069 368.532 300.482 381.757 301.183 397.07C301.743 409.32 285.069 412.383 276.662 412.383C285.303 417.487 299.221 430.48 285.77 441.616C272.318 452.753 257.279 440.224 251.441 432.567C256.812 443.472 261.249 465.838 236.028 468.066C210.806 470.293 207.42 459.614 209.755 446.853C202.048 456.83 186.425 456.511 178.579 432.567Z" fill="#93BA24"/>
<path d="M189.401 428.748C182.959 409.185 199.369 407.327 208.379 408.844C199.178 404.105 185.145 392.011 202.628 381.547C220.112 371.082 220.709 374.811 230.996 380.12C230.996 368.039 231.267 368.012 248.97 366.217L249.213 366.192C271.642 363.917 254.389 399.745 257.264 394.627C259.565 390.532 263.59 386.855 265.316 385.528C276.818 376.429 289.471 387.234 290.046 399.745C290.506 409.754 276.818 412.256 269.917 412.256C277.01 416.427 288.435 427.043 277.393 436.142C266.351 445.241 254.005 435.004 249.213 428.748C253.622 437.658 257.264 455.932 236.56 457.752C215.856 459.572 213.076 450.847 214.993 440.421C208.667 448.572 195.842 448.311 189.401 428.748Z" fill="#7DA314"/>
<path d="M253.774 360.157C245.927 336.213 265.918 333.94 276.894 335.796C265.684 329.996 248.59 315.193 269.888 302.386C291.186 289.579 306.319 307.722 311.223 318.395C307.253 307.723 304.777 285.821 326.636 283.593C353.959 280.809 332.941 324.66 336.444 318.395C339.247 313.384 344.151 308.883 346.253 307.259C360.264 296.122 375.677 309.347 376.378 324.66C376.939 336.91 360.264 339.972 351.857 339.972C360.498 345.077 374.416 358.069 360.965 369.206C347.514 380.343 332.474 367.814 326.636 360.157C332.007 371.062 336.444 393.428 311.223 395.655C286.002 397.883 284.367 372.918 286.702 360.157C278.996 370.134 261.621 384.101 253.774 360.157Z" fill="#93BA24"/>
<path d="M262.329 392.239C253.604 365.525 275.832 362.988 288.036 365.059C275.572 358.587 256.564 342.072 280.246 327.783C303.929 313.494 320.755 333.737 326.209 345.645C321.794 333.737 319.042 309.301 343.347 306.816C373.729 303.71 350.358 352.634 354.253 345.645C357.369 340.053 362.822 335.031 365.159 333.219C380.74 320.794 397.878 335.549 398.657 352.634C399.28 366.301 380.74 369.718 371.392 369.718C380.999 375.413 396.476 389.909 381.519 402.334C366.562 414.759 349.839 400.781 343.347 392.239C349.319 404.405 354.253 429.359 326.209 431.844C298.164 434.329 296.346 406.476 298.943 392.239C290.374 403.369 271.054 418.953 262.329 392.239Z" fill="#83A61E"/>
<path d="M290.908 433.496C283.061 409.552 303.051 407.279 314.027 409.135C302.818 403.334 285.724 388.532 307.022 375.725C328.32 362.918 343.453 381.061 348.357 391.734C344.387 381.061 341.911 359.159 363.77 356.932C391.093 354.148 370.075 397.998 373.578 391.734C376.38 386.722 381.285 382.221 383.386 380.597C397.398 369.461 412.811 382.686 413.512 397.998C414.072 410.249 397.398 413.311 388.991 413.311C397.632 418.416 411.55 431.408 398.099 442.545C384.647 453.681 369.608 441.153 363.77 433.496C369.141 444.401 373.578 466.767 348.357 468.994C323.135 471.222 321.501 446.257 323.836 433.496C316.129 443.473 298.754 457.44 290.908 433.496Z" fill="#A3CF2A"/>
<path d="M317.065 391.572C312.933 396.71 320.939 403.347 325.458 406.023C327.18 407.629 329.59 410.905 325.458 411.162C320.293 411.483 309.963 411.804 311.578 420.474C313.192 429.145 317.065 430.43 325.458 423.686C333.851 416.942 333.529 425.934 335.466 436.531C337.403 447.128 349.992 440.706 353.22 434.925C356.449 429.145 349.992 418.226 348.378 417.263C346.764 416.3 344.182 408.914 341.276 406.023C338.371 403.133 344.182 396.068 335.466 388.682C326.75 381.296 322.23 385.15 317.065 391.572Z" fill="#ABDE1F"/>
<path d="M308.16 374.907C329.326 363.767 343.127 380.013 347.15 389.296L348.078 390.689C340.707 384.19 321.66 373.979 310.016 383.262C298.372 392.546 311.973 406.626 320.228 412.505C312.183 412.094 296.648 415.046 298.876 430.144C301.104 445.242 318.372 435.506 326.727 428.751C327.5 439.555 333.132 461.087 349.471 460.779C365.81 460.471 366.181 443.012 364.324 434.321C365.252 436.641 366.903 441.956 367.109 443.604C367.573 447.317 369.43 458.458 364.324 462.171C359.219 465.885 354.112 471.918 338.795 468.669C325.079 465.76 321.156 448.246 323.477 434.321C319.764 439.426 310.573 446.853 303.518 446.853C294.698 446.853 286.344 429.68 290.521 417.611C293.863 407.956 306.767 407.399 313.266 408.791L310.016 406.935C300.578 401.056 286.994 386.047 308.16 374.907Z" fill="#597609" fill-opacity="0.7"/>
<path d="M202.329 307.139C184.876 320.135 193.2 330.502 199.544 334.06L204.185 336.845C202.174 334.525 197.78 328.676 196.294 323.849C194.809 319.021 202.793 308.84 206.97 304.354L202.329 307.139Z" fill="#ABDE1F"/>
<path d="M339.259 310.387C363.396 303.332 356.743 330.347 350.399 344.736C351.172 336.072 351.791 317.721 348.078 313.637C343.436 308.531 333.689 312.708 339.259 310.387Z" fill="#74980F"/>
<path d="M262.206 308.995C255.894 316.05 262.361 324.622 266.384 328.026L271.025 331.739C267.216 326.633 262.719 314.287 275.203 305.746C287.687 297.205 305.779 312.708 313.265 321.528C310.635 313.637 308.809 296.462 322.548 290.892C336.288 285.322 339.413 298.474 339.259 305.746C339.723 303.734 340.651 298.876 340.651 295.534C340.651 291.356 338.794 288.107 336.938 286.251C335.081 284.394 328.118 280.217 315.586 288.107C305.56 294.42 307.695 309.614 310.016 316.422C300.732 298.783 288.664 297.855 283.094 297.855C277.524 297.855 270.097 300.176 262.206 308.995Z" fill="#7DA314"/>
<path d="M299.34 457.53L305.374 449.639L291.449 458.458L290.057 463.564L300.268 480.274L299.34 457.53Z" fill="#855633"/>
<path d="M292.098 542.479C291.355 538.394 293.027 531.184 293.955 528.09C295.812 523.448 297.204 531.339 296.74 537.373C296.276 543.408 297.668 542.479 297.204 549.906C296.74 557.333 293.026 558.261 293.955 553.155C294.883 548.049 293.027 547.585 292.098 542.479Z" fill="#855633"/>
<path d="M284.95 534.581C283.094 540.523 275.203 545.412 271.489 547.114L277.059 460.778C277.678 462.016 280.123 465.234 284.95 468.205C290.984 471.918 290.984 483.987 289.128 486.772C287.271 489.557 289.592 495.591 289.128 503.482C288.664 511.373 293.305 512.301 290.984 517.407C288.664 522.513 287.271 527.155 284.95 534.581Z" fill="#9D5823"/>
<path d="M271.489 541.08L274.738 491.414L276.131 473.775C278.916 477.179 284.579 484.173 284.95 484.915C285.414 485.844 279.38 503.482 279.38 508.124C279.38 512.766 284.022 517.872 283.094 522.049C282.351 525.391 275.048 536.129 271.489 541.08Z" fill="#855633"/>
<path d="M88.168 428.164C68.7427 444.212 59.3267 426.432 57.0469 415.536C55.7402 428.09 48.2016 449.408 28.5019 434.257C8.8022 419.106 20.1676 398.394 28.3127 389.931C19.8266 397.524 0.340774 407.826 -9.71412 388.29C-22.2827 363.87 26.2144 367.425 19.1034 366.451C13.4147 365.672 7.43382 362.75 5.15449 361.386C-10.3294 352.408 -3.64571 333.231 10.354 326.987C21.5538 321.992 30.4933 336.397 33.563 344.224C35.1598 334.316 42.1733 316.614 57.4526 325.07C72.7318 333.527 66.5595 352.102 61.5634 360.333C69.7539 351.351 88.9557 339.054 100.238 361.72C111.521 384.387 88.8771 395.024 76.1447 397.51C88.2464 401.041 107.593 412.117 88.168 428.164Z" fill="#A3CF2A"/>
<path d="M77.6326 592.467L98.0561 598.965L111.981 587.825L107.34 481.994L131.476 449.502V437.434L107.34 466.212L111.981 405.87L85.0593 427.222V466.212H66.4925L58.1374 449.502L52.5674 456.929L66.4925 475.496L85.0593 481.994L77.6326 592.467Z" fill="#B07D56"/>
<path d="M-13.4212 456.567C-21.2679 432.624 -1.27764 430.35 9.69831 432.206C-1.51107 426.406 -18.6053 411.603 2.69267 398.796C23.9907 385.989 24.7175 390.552 37.2501 397.05C37.2501 382.264 37.5792 382.231 59.1446 380.034L59.4407 380.003C86.7638 377.219 65.746 421.07 69.249 414.805C72.0513 409.794 76.9555 405.293 79.0573 403.669C93.0691 392.532 108.482 405.757 109.183 421.07C109.743 433.32 93.0691 436.383 84.662 436.383C93.3027 441.487 107.221 454.48 93.7697 465.616C80.3183 476.753 65.2789 464.224 59.4407 456.567C64.8119 467.472 69.249 489.838 44.0276 492.066C18.8063 494.293 15.4196 483.614 17.7549 470.853C10.0483 480.83 -5.57461 480.511 -13.4212 456.567Z" fill="#93BA24"/>
<path d="M-2.59941 452.748C-9.04068 433.185 7.36922 431.327 16.3793 432.844C7.17759 428.105 -6.85501 416.011 10.6284 405.547C28.1119 395.082 28.7085 398.811 38.9965 404.12C38.9965 392.039 39.2666 392.012 56.9696 390.217L57.2126 390.192C79.642 387.917 62.3886 423.745 65.2642 418.627C67.5646 414.532 71.5904 410.855 73.3158 409.528C84.818 400.429 97.4705 411.234 98.0456 423.745C98.5057 433.754 84.818 436.256 77.9167 436.256C85.0098 440.427 96.4353 451.043 85.3932 460.142C74.351 469.241 62.0052 459.004 57.2126 452.748C61.6218 461.658 65.2642 479.932 44.5601 481.752C23.856 483.572 21.0759 474.847 22.993 464.421C16.6666 472.572 3.84186 472.311 -2.59941 452.748Z" fill="#7DA314"/>
<path d="M61.7741 384.157C53.9274 360.213 73.9177 357.94 84.8936 359.796C73.6842 353.996 56.59 339.193 77.888 326.386C99.186 313.579 114.319 331.722 119.223 342.395C115.253 331.723 112.777 309.821 134.636 307.593C161.959 304.809 140.941 348.66 144.444 342.395C147.247 337.384 152.151 332.883 154.253 331.259C168.264 320.122 183.677 333.347 184.378 348.66C184.939 360.91 168.264 363.972 159.857 363.972C168.498 369.077 182.416 382.069 168.965 393.206C155.514 404.343 140.474 391.814 134.636 384.157C140.007 395.062 144.444 417.428 119.223 419.655C94.0016 421.883 92.3669 396.918 94.7022 384.157C86.9956 394.134 69.6207 408.101 61.7741 384.157Z" fill="#93BA24"/>
<path d="M70.3288 416.239C61.6038 389.525 83.8317 386.988 96.0363 389.059C83.5722 382.587 64.5644 366.072 88.2465 351.783C111.929 337.494 128.755 357.737 134.209 369.645C129.794 357.737 127.042 333.301 151.347 330.816C181.729 327.71 158.358 376.634 162.253 369.645C165.369 364.053 170.822 359.031 173.159 357.219C188.74 344.794 205.878 359.549 206.657 376.634C207.28 390.301 188.74 393.718 179.392 393.718C188.999 399.413 204.476 413.909 189.519 426.334C174.562 438.759 157.839 424.781 151.347 416.239C157.319 428.405 162.253 453.359 134.209 455.844C106.164 458.329 104.346 430.476 106.943 416.239C98.3736 427.369 79.0538 442.953 70.3288 416.239Z" fill="#83A61E"/>
<path d="M98.9079 457.496C91.0612 433.552 111.051 431.279 122.027 433.135C110.818 427.334 93.7238 412.532 115.022 399.725C136.32 386.918 151.453 405.061 156.357 415.734C152.387 405.061 149.911 383.159 171.77 380.932C199.093 378.148 178.075 421.998 181.578 415.734C184.38 410.722 189.285 406.221 191.386 404.597C205.398 393.461 220.811 406.686 221.512 421.998C222.072 434.249 205.398 437.311 196.991 437.311C205.632 442.416 219.55 455.408 206.099 466.545C192.647 477.681 177.608 465.153 171.77 457.496C177.141 468.401 181.578 490.767 156.357 492.994C131.135 495.222 129.501 470.257 131.836 457.496C124.129 467.473 106.754 481.44 98.9079 457.496Z" fill="#A3CF2A"/>
<path d="M125.065 415.572C120.933 420.71 128.939 427.347 133.458 430.023C135.18 431.629 137.59 434.905 133.458 435.162C128.293 435.483 117.963 435.804 119.578 444.474C121.192 453.145 125.065 454.43 133.458 447.686C141.851 440.942 141.529 449.934 143.466 460.531C145.403 471.128 157.992 464.706 161.22 458.925C164.449 453.145 157.992 442.226 156.378 441.263C154.764 440.3 152.182 432.914 149.276 430.023C146.371 427.133 152.182 420.068 143.466 412.682C134.75 405.296 130.23 409.15 125.065 415.572Z" fill="#ABDE1F"/>
<path d="M116.16 398.907C137.326 387.767 151.127 404.013 155.15 413.296L156.078 414.689C148.707 408.19 129.66 397.979 118.016 407.262C106.372 416.546 119.973 430.626 128.228 436.505C120.183 436.094 104.648 439.046 106.876 454.144C109.104 469.242 126.372 459.506 134.727 452.751C135.5 463.555 141.132 485.087 157.471 484.779C173.81 484.471 174.181 467.012 172.324 458.321C173.252 460.641 174.903 465.956 175.109 467.604C175.573 471.317 177.43 482.458 172.324 486.171C167.219 489.885 162.112 495.918 146.795 492.669C133.079 489.76 129.156 472.246 131.477 458.321C127.764 463.426 118.573 470.853 111.518 470.853C102.698 470.853 94.3439 453.68 98.5214 441.611C101.863 431.956 114.767 431.399 121.266 432.791L118.016 430.935C108.578 425.056 94.9936 410.047 116.16 398.907Z" fill="#597609" fill-opacity="0.7"/>
<path d="M10.3286 331.139C-7.12424 344.135 1.19988 354.502 7.54355 358.06L12.1852 360.845C10.1738 358.525 5.77966 352.676 4.29432 347.849C2.80897 343.021 10.7927 332.84 14.9702 328.354L10.3286 331.139Z" fill="#ABDE1F"/>
<path d="M147.259 334.387C171.396 327.332 164.743 354.347 158.399 368.736C159.172 360.072 159.791 341.721 156.078 337.637C151.436 332.531 141.689 336.708 147.259 334.387Z" fill="#74980F"/>
<path d="M70.2063 332.995C63.8936 340.05 70.3611 348.622 74.3839 352.026L79.0255 355.739C75.2165 350.633 70.7193 338.287 83.203 329.746C95.6867 321.205 113.779 336.708 121.265 345.528C118.635 337.637 116.809 320.462 130.548 314.892C144.288 309.322 147.413 322.474 147.259 329.746C147.723 327.734 148.651 322.876 148.651 319.534C148.651 315.356 146.794 312.107 144.938 310.251C143.081 308.394 136.118 304.217 123.586 312.107C113.56 318.42 115.695 333.614 118.016 340.422C108.732 322.783 96.664 321.855 91.0939 321.855C85.5239 321.855 78.0972 324.176 70.2063 332.995Z" fill="#7DA314"/>
<path d="M107.34 481.53L113.374 473.639L99.4492 482.458L98.0566 487.564L108.268 504.274L107.34 481.53Z" fill="#855633"/>
<path d="M100.098 566.479C99.3555 562.394 101.027 555.184 101.955 552.09C103.812 547.448 105.204 555.339 104.74 561.373C104.276 567.408 105.668 566.479 105.204 573.906C104.74 581.333 101.026 582.261 101.955 577.155C102.883 572.049 101.027 571.585 100.098 566.479Z" fill="#855633"/>
<path d="M92.9502 558.581C91.0935 564.523 83.2026 569.412 79.4893 571.114L85.0593 484.778C85.6782 486.016 88.1228 489.234 92.9502 492.205C98.9844 495.918 98.9844 507.987 97.1277 510.772C95.2711 513.557 97.5919 519.591 97.1277 527.482C96.6636 535.373 101.305 536.301 98.9844 541.407C96.6636 546.513 95.2711 551.155 92.9502 558.581Z" fill="#9D5823"/>
<path d="M79.4893 565.08L82.7385 515.414L84.131 497.775C86.916 501.179 92.5789 508.173 92.9502 508.915C93.4144 509.844 87.3802 527.482 87.3802 532.124C87.3802 536.766 92.0219 541.872 91.0935 546.049C90.3508 549.391 83.0479 560.129 79.4893 565.08Z" fill="#855633"/>
<path d="M224.168 482.164C204.743 498.212 195.327 480.432 193.047 469.536C191.74 482.09 184.202 503.408 164.502 488.257C144.802 473.106 156.168 452.394 164.313 443.931C155.827 451.524 136.341 461.826 126.286 442.29C113.717 417.87 162.214 421.425 155.103 420.451C149.415 419.672 143.434 416.75 141.154 415.386C125.671 406.408 132.354 387.231 146.354 380.987C157.554 375.992 166.493 390.397 169.563 398.224C171.16 388.316 178.173 370.614 193.453 379.07C208.732 387.527 202.559 406.102 197.563 414.333C205.754 405.351 224.956 393.054 236.238 415.72C247.521 438.387 224.877 449.024 212.145 451.51C224.246 455.041 243.593 466.117 224.168 482.164Z" fill="#A3CF2A"/>
<path d="M213.633 646.467L234.056 652.965L247.981 641.825L243.34 535.994L267.476 503.502V491.434L243.34 520.212L247.981 459.87L221.059 481.222V520.212H202.492L194.137 503.502L188.567 510.929L202.492 529.496L221.059 535.994L213.633 646.467Z" fill="#B07D56"/>
<path d="M122.579 510.567C114.732 486.624 134.722 484.35 145.698 486.206C134.489 480.406 117.395 465.603 138.693 452.796C159.991 439.989 160.717 444.552 173.25 451.05C173.25 436.264 173.579 436.231 195.145 434.034L195.441 434.003C222.764 431.219 201.746 475.07 205.249 468.805C208.051 463.794 212.955 459.293 215.057 457.669C229.069 446.532 244.482 459.757 245.183 475.07C245.743 487.32 229.069 490.383 220.662 490.383C229.303 495.487 243.221 508.48 229.77 519.616C216.318 530.753 201.279 518.224 195.441 510.567C200.812 521.472 205.249 543.838 180.028 546.066C154.806 548.293 151.42 537.614 153.755 524.853C146.048 534.83 130.425 534.511 122.579 510.567Z" fill="#93BA24"/>
<path d="M133.401 506.748C126.959 487.185 143.369 485.327 152.379 486.844C143.178 482.105 129.145 470.011 146.628 459.547C164.112 449.082 164.709 452.811 174.996 458.12C174.996 446.039 175.267 446.012 192.97 444.217L193.213 444.192C215.642 441.917 198.389 477.745 201.264 472.627C203.565 468.532 207.59 464.855 209.316 463.528C220.818 454.429 233.471 465.234 234.046 477.745C234.506 487.754 220.818 490.256 213.917 490.256C221.01 494.427 232.435 505.043 221.393 514.142C210.351 523.241 198.005 513.004 193.213 506.748C197.622 515.658 201.264 533.932 180.56 535.752C159.856 537.572 157.076 528.847 158.993 518.421C152.667 526.572 139.842 526.311 133.401 506.748Z" fill="#7DA314"/>
<path d="M197.774 438.157C189.927 414.213 209.918 411.94 220.894 413.796C209.684 407.996 192.59 393.193 213.888 380.386C235.186 367.579 250.319 385.722 255.223 396.395C251.253 385.723 248.777 363.821 270.636 361.593C297.959 358.809 276.941 402.66 280.444 396.395C283.247 391.384 288.151 386.883 290.253 385.259C304.264 374.122 319.677 387.347 320.378 402.66C320.939 414.91 304.264 417.972 295.857 417.972C304.498 423.077 318.416 436.069 304.965 447.206C291.514 458.343 276.474 445.814 270.636 438.157C276.007 449.062 280.444 471.428 255.223 473.655C230.002 475.883 228.367 450.918 230.702 438.157C222.996 448.134 205.621 462.101 197.774 438.157Z" fill="#93BA24"/>
<path d="M206.329 470.239C197.604 443.525 219.832 440.988 232.036 443.059C219.572 436.587 200.564 420.072 224.246 405.783C247.929 391.494 264.755 411.737 270.209 423.645C265.794 411.737 263.042 387.301 287.347 384.816C317.729 381.71 294.358 430.634 298.253 423.645C301.369 418.053 306.822 413.031 309.159 411.219C324.74 398.794 341.878 413.549 342.657 430.634C343.28 444.301 324.74 447.718 315.392 447.718C324.999 453.413 340.476 467.909 325.519 480.334C310.562 492.759 293.839 478.781 287.347 470.239C293.319 482.405 298.253 507.359 270.209 509.844C242.164 512.329 240.346 484.476 242.943 470.239C234.374 481.369 215.054 496.953 206.329 470.239Z" fill="#83A61E"/>
<path d="M234.908 511.496C227.061 487.552 247.051 485.279 258.027 487.135C246.818 481.334 229.724 466.532 251.022 453.725C272.32 440.918 287.453 459.061 292.357 469.734C288.387 459.061 285.911 437.159 307.77 434.932C335.093 432.148 314.075 475.998 317.578 469.734C320.38 464.722 325.285 460.221 327.386 458.597C341.398 447.461 356.811 460.686 357.512 475.998C358.072 488.249 341.398 491.311 332.991 491.311C341.632 496.416 355.55 509.408 342.099 520.545C328.647 531.681 313.608 519.153 307.77 511.496C313.141 522.401 317.578 544.767 292.357 546.994C267.135 549.222 265.501 524.257 267.836 511.496C260.129 521.473 242.754 535.44 234.908 511.496Z" fill="#95C01D"/>
<path d="M261.065 469.572C256.933 474.71 264.939 481.347 269.458 484.023C271.18 485.629 273.59 488.905 269.458 489.162C264.293 489.483 253.963 489.804 255.578 498.474C257.192 507.145 261.065 508.43 269.458 501.686C277.851 494.942 277.529 503.934 279.466 514.531C281.403 525.128 293.992 518.706 297.22 512.925C300.449 507.145 293.992 496.226 292.378 495.263C290.764 494.3 288.182 486.914 285.276 484.023C282.371 481.133 288.182 474.068 279.466 466.682C270.75 459.296 266.23 463.15 261.065 469.572Z" fill="#ABDE1F"/>
<path d="M252.16 452.907C273.326 441.767 287.127 458.013 291.15 467.296L292.078 468.689C284.707 462.19 265.66 451.979 254.016 461.262C242.372 470.546 255.973 484.626 264.228 490.505C256.183 490.094 240.648 493.046 242.876 508.144C245.104 523.242 262.372 513.506 270.727 506.751C271.5 517.555 277.132 539.087 293.471 538.779C309.81 538.471 310.181 521.012 308.324 512.321C309.252 514.641 310.903 519.956 311.109 521.604C311.573 525.317 313.43 536.458 308.324 540.171C303.219 543.885 298.112 549.918 282.795 546.669C269.079 543.76 265.156 526.246 267.477 512.321C263.764 517.426 254.573 524.853 247.518 524.853C238.698 524.853 230.344 507.68 234.521 495.611C237.863 485.956 250.767 485.399 257.266 486.791L254.016 484.935C244.578 479.056 230.994 464.047 252.16 452.907Z" fill="#597609" fill-opacity="0.7"/>
<path d="M146.329 385.139C128.876 398.135 137.2 408.502 143.544 412.06L148.185 414.845C146.174 412.525 141.78 406.676 140.294 401.849C138.809 397.021 146.793 386.84 150.97 382.354L146.329 385.139Z" fill="#ABDE1F"/>
<path d="M283.259 388.387C307.396 381.332 300.743 408.347 294.399 422.736C295.172 414.072 295.791 395.721 292.078 391.637C287.436 386.531 277.689 390.708 283.259 388.387Z" fill="#74980F"/>
<path d="M206.206 386.995C199.894 394.05 206.361 402.622 210.384 406.026L215.025 409.739C211.216 404.633 206.719 392.287 219.203 383.746C231.687 375.205 249.779 390.708 257.265 399.528C254.635 391.637 252.809 374.462 266.548 368.892C280.288 363.322 283.413 376.474 283.259 383.746C283.723 381.734 284.651 376.876 284.651 373.534C284.651 369.356 282.794 366.107 280.938 364.251C279.081 362.394 272.118 358.217 259.586 366.107C249.56 372.42 251.695 387.614 254.016 394.422C244.732 376.783 232.664 375.855 227.094 375.855C221.524 375.855 214.097 378.176 206.206 386.995Z" fill="#7DA314"/>
<path d="M243.34 535.53L249.374 527.639L235.449 536.458L234.057 541.564L244.268 558.274L243.34 535.53Z" fill="#855633"/>
<path d="M236.098 620.479C235.355 616.394 237.027 609.184 237.955 606.09C239.812 601.448 241.204 609.339 240.74 615.373C240.276 621.408 241.668 620.479 241.204 627.906C240.74 635.333 237.026 636.261 237.955 631.155C238.883 626.049 237.027 625.585 236.098 620.479Z" fill="#855633"/>
<path d="M228.95 612.581C227.094 618.523 219.203 623.412 215.489 625.114L221.059 538.778C221.678 540.016 224.123 543.234 228.95 546.205C234.984 549.918 234.984 561.987 233.128 564.772C231.271 567.557 233.592 573.591 233.128 581.482C232.664 589.373 237.305 590.301 234.984 595.407C232.664 600.513 231.271 605.155 228.95 612.581Z" fill="#9D5823"/>
<path d="M215.489 619.08L218.738 569.414L220.131 551.775C222.916 555.179 228.579 562.173 228.95 562.915C229.414 563.844 223.38 581.482 223.38 586.124C223.38 590.766 228.022 595.872 227.094 600.049C226.351 603.391 219.048 614.129 215.489 619.08Z" fill="#855633"/>
</g>
<defs>
<linearGradient id="paint0_linear" x1="576" y1="0" x2="576" y2="699" gradientUnits="userSpaceOnUse">
<stop stop-color="#FABC4D"/>
<stop offset="0.350501" stop-color="white" stop-opacity="0"/>
</linearGradient>
<clipPath id="clip0">
<rect width="1152" height="700" fill="white"/>
</clipPath>
</defs>
</svg>
